<svg width="28" height="28" viewBox="0 0 28 28" fill="none" xmlns="http://www.w3.org/2000/svg">
<path d="M13.7789 19.1531V10.423L5.58802 6.35967H5.51864V15.4933L13.7789 19.1531ZM14.289 10.423V19.1893L22.5937 15.4943V6.35814H22.5258L14.289 10.423ZM21.3908 13.7144C21.5168 13.6552 21.6683 13.7088 21.729 13.8358C21.7882 13.9629 21.7346 14.1149 21.6076 14.1741L16.6403 16.5238C16.5133 16.583 16.3613 16.5279 16.3005 16.4008C16.2414 16.2748 16.2965 16.1233 16.4235 16.0626L21.3908 13.7144ZM21.3908 12.0483C21.5168 11.9876 21.6683 12.0427 21.729 12.1697C21.7882 12.2967 21.7346 12.4488 21.6076 12.5079L16.6403 14.8561C16.5133 14.9168 16.3613 14.8617 16.3005 14.7347C16.2414 14.6077 16.2965 14.4557 16.4235 14.3965L21.3908 12.0483ZM21.3908 8.71653C21.5168 8.65583 21.6683 8.71092 21.729 8.83795C21.7882 8.96395 21.7346 9.11547 21.6076 9.17617L16.6403 11.5244C16.5133 11.5835 16.3613 11.53 16.3005 11.403C16.2414 11.2759 16.2965 11.1239 16.4235 11.0647L21.3908 8.71653ZM21.3908 10.3827C21.5168 10.322 21.6683 10.3771 21.729 10.5041C21.7882 10.6311 21.7346 10.7831 21.6076 10.8423L16.6403 13.1905C16.5133 13.2512 16.3613 13.1961 16.3005 13.0691C16.2414 12.9421 16.2965 12.79 16.4235 12.7309L21.3908 10.3827ZM7.00826 14.1741C6.88124 14.1149 6.82767 13.9629 6.88685 13.8358C6.94756 13.7088 7.09805 13.6552 7.22508 13.7144L12.1924 16.0626C12.3194 16.1233 12.3745 16.2753 12.3138 16.4008C12.2546 16.5279 12.1026 16.583 11.9755 16.5238L7.00826 14.1741ZM7.00826 12.5084C6.88124 12.4493 6.82767 12.2972 6.88685 12.1702C6.94756 12.0432 7.09805 11.9881 7.22508 12.0488L12.1924 14.397C12.3194 14.4562 12.3745 14.6082 12.3138 14.7352C12.2546 14.8622 12.1026 14.9173 11.9755 14.8566L7.00826 12.5084ZM7.00826 9.17669C6.88124 9.11598 6.82767 8.96395 6.88685 8.83846C6.94756 8.71143 7.09805 8.65634 7.22508 8.71704L12.1924 11.0652C12.3194 11.1244 12.3745 11.2764 12.3138 11.4035C12.2546 11.5305 12.1026 11.5841 11.9755 11.5249L7.00826 9.17669ZM7.00826 10.8423C6.88124 10.7831 6.82767 10.6311 6.88685 10.5041C6.94756 10.3771 7.09805 10.322 7.22508 10.3827L12.1924 12.7309C12.3194 12.79 12.3745 12.9421 12.3138 13.0691C12.2546 13.1961 12.1026 13.2512 11.9755 13.1905L7.00826 10.8423ZM16.7015 22.1216L20.071 23.6128L20.0506 20.583L16.7015 22.1216ZM13.9539 20.7493L24.0578 16.3447V6.70963L23.1049 7.13203V15.6596C23.1049 15.7708 23.0324 15.8662 22.9329 15.9009L14.1783 19.7953C14.1105 19.826 14.035 19.8244 13.9717 19.7953V19.7969L5.16154 15.8922C5.06614 15.8504 5.0085 15.7576 5.0085 15.6596V7.13509L4.05555 6.71116V16.3463L13.9539 20.7493ZM11.9613 21.6186L13.1397 21.1039L4.04688 17.0839L4.10197 18.1812L11.9613 21.6186ZM7.99897 23.3449L11.0547 22.0129L7.99897 20.7417V23.3449ZM15.669 22.2231L14.5094 22.7322L20.0828 25.1687L20.0756 24.1709L15.669 22.2231ZM8.01019 25.0325L24.0272 17.9915L24.0476 16.9038L13.8876 21.3334C13.8789 21.3375 13.8702 21.3406 13.8615 21.3436L11.8169 22.2359C11.8097 22.2389 11.8026 22.2415 11.795 22.2445L8.0107 23.8944V25.0325H8.01019ZM13.1152 3.11719C11.8888 3.66253 11.1935 4.96391 11.6807 6.22499C12.1653 7.48147 13.5937 8.12528 14.917 7.91714C13.8962 7.65952 13.004 6.9698 12.6178 5.97349C12.2316 4.97258 12.4525 3.90995 13.1152 3.11719ZM15.6731 4.26858L15.3797 3.64366L15.0951 4.24971C15.0634 4.33643 14.9854 4.40173 14.8869 4.41449L14.2044 4.49968L14.7002 4.96391C14.7655 5.02156 14.8002 5.11287 14.7829 5.20419L14.6528 5.88217L15.2558 5.54956C15.3297 5.50926 15.4221 5.50466 15.5032 5.54956L16.1077 5.88217L15.9776 5.20419C15.9618 5.12155 15.9878 5.0338 16.0526 4.97156L16.5556 4.50019L15.873 4.415V4.41346C15.7889 4.40275 15.7108 4.35072 15.6731 4.26858Z" fill="white"/>
</svg>
