<svg width="264" height="350" viewBox="0 0 264 350" fill="none" xmlns="http://www.w3.org/2000/svg">
<g opacity="0.05">
<path d="M165.564 192.397H90.8533C88.7136 192.397 86.9805 190.663 86.9805 188.524V187.631C86.9805 185.492 88.7142 183.758 90.8533 183.758H165.564C167.703 183.758 169.437 185.492 169.437 187.631V188.524C169.437 190.663 167.703 192.397 165.564 192.397Z" fill="#006766"/>
<path d="M156.457 171.026C154.352 153.058 128.21 150.227 128.21 136.633C128.21 150.227 102.068 153.058 99.9628 171.026C99.8323 172.142 99.795 173.221 99.8275 174.27H156.592C156.625 173.22 156.587 172.141 156.457 171.026Z" fill="#006766"/>
<path d="M95.1445 194.047V285.97H161.269V194.047H95.1445ZM112.432 265.195C111.537 272.831 100.427 274.034 100.427 279.812V199.936C100.427 205.714 111.537 206.916 112.432 214.553V265.195ZM140.212 265.195C139.317 272.831 128.207 274.034 128.207 279.812C128.207 274.035 117.096 272.831 116.202 265.195V214.553C117.096 206.916 128.207 205.714 128.207 199.936C128.207 205.714 139.317 206.916 140.212 214.553V265.195ZM155.986 279.812C155.986 274.035 144.876 272.831 143.981 265.195V214.553C144.876 206.916 155.986 205.714 155.986 199.936V279.812Z" fill="#006766"/>
<path d="M97.9813 178.015V177.346C97.9813 176.628 97.3998 176.047 96.6818 176.047C95.9649 176.047 95.3828 176.628 95.3828 177.346V178.015C95.4748 178.8 96.5633 178.957 96.6728 179.506C96.5633 180.056 95.4754 180.213 95.3828 180.998V182.966H96.6818H97.9813V180.998C97.8893 180.213 96.8009 180.056 96.6908 179.506C96.8009 178.957 97.8893 178.8 97.9813 178.015Z" fill="#006766"/>
<path d="M101.922 178.015V177.346C101.922 176.628 101.34 176.047 100.623 176.047C99.9057 176.047 99.3242 176.628 99.3242 177.346V178.015C99.4156 178.8 100.505 178.957 100.614 179.506C100.505 180.056 99.4162 180.213 99.3242 180.998V182.966H100.623H101.922V180.998C101.83 180.213 100.741 180.056 100.632 179.506C100.741 178.957 101.83 178.8 101.922 178.015Z" fill="#006766"/>
<path d="M105.864 178.015V177.346C105.864 176.628 105.282 176.047 104.565 176.047C103.848 176.047 103.266 176.628 103.266 177.346V178.015C103.358 178.8 104.447 178.957 104.556 179.506C104.447 180.056 103.358 180.213 103.266 180.998V182.966H104.565H105.864V180.998C105.772 180.213 104.683 180.056 104.575 179.506C104.683 178.957 105.772 178.8 105.864 178.015Z" fill="#006766"/>
<path d="M109.802 178.015V177.346C109.802 176.628 109.22 176.047 108.502 176.047C107.785 176.047 107.203 176.628 107.203 177.346V178.015C107.295 178.8 108.384 178.957 108.493 179.506C108.384 180.056 107.296 180.213 107.203 180.998V182.966H108.502H109.802V180.998C109.71 180.213 108.621 180.056 108.512 179.506C108.621 178.957 109.71 178.8 109.802 178.015Z" fill="#006766"/>
<path d="M113.742 178.015V177.346C113.742 176.628 113.161 176.047 112.443 176.047C111.726 176.047 111.145 176.628 111.145 177.346V178.015C111.236 178.8 112.325 178.957 112.434 179.506C112.325 180.056 111.237 180.213 111.145 180.998V182.966H112.443H113.742V180.998C113.651 180.213 112.562 180.056 112.453 179.506C112.562 178.957 113.651 178.8 113.742 178.015Z" fill="#006766"/>
<path d="M117.684 178.015V177.346C117.684 176.628 117.102 176.047 116.385 176.047C115.667 176.047 115.086 176.628 115.086 177.346V178.015C115.177 178.8 116.266 178.957 116.376 179.506C116.266 180.056 115.178 180.213 115.086 180.998V182.966H116.385H117.684V180.998C117.592 180.213 116.503 180.056 116.395 179.506C116.503 178.957 117.592 178.8 117.684 178.015Z" fill="#006766"/>
<path d="M121.625 178.015V177.346C121.625 176.628 121.044 176.047 120.326 176.047C119.609 176.047 119.027 176.628 119.027 177.346V178.015C119.119 178.8 120.208 178.957 120.317 179.506C120.208 180.056 119.119 180.213 119.027 180.998V182.966H120.326H121.625V180.998C121.534 180.213 120.445 180.056 120.335 179.506C120.445 178.957 121.533 178.8 121.625 178.015Z" fill="#006766"/>
<path d="M125.563 178.015V177.346C125.563 176.628 124.981 176.047 124.264 176.047C123.546 176.047 122.965 176.628 122.965 177.346V178.015C123.056 178.8 124.145 178.957 124.255 179.506C124.145 180.056 123.057 180.213 122.965 180.998V182.966H124.264H125.563V180.998C125.471 180.213 124.382 180.056 124.273 179.506C124.382 178.957 125.471 178.8 125.563 178.015Z" fill="#006766"/>
<path d="M129.504 178.015V177.346C129.504 176.628 128.923 176.047 128.205 176.047C127.488 176.047 126.906 176.628 126.906 177.346V178.015C126.998 178.8 128.087 178.957 128.196 179.506C128.087 180.056 126.998 180.213 126.906 180.998V182.966H128.205H129.504V180.998C129.413 180.213 128.324 180.056 128.215 179.506C128.324 178.957 129.413 178.8 129.504 178.015Z" fill="#006766"/>
<path d="M133.449 178.015V177.346C133.449 176.628 132.868 176.047 132.151 176.047C131.433 176.047 130.852 176.628 130.852 177.346V178.015C130.943 178.8 132.032 178.957 132.142 179.506C132.032 180.056 130.944 180.213 130.852 180.998V182.966H132.151H133.449V180.998C133.358 180.213 132.269 180.056 132.16 179.506C132.269 178.957 133.357 178.8 133.449 178.015Z" fill="#006766"/>
<path d="M137.387 178.015V177.346C137.387 176.628 136.805 176.047 136.088 176.047C135.371 176.047 134.789 176.628 134.789 177.346V178.015C134.88 178.8 135.97 178.957 136.079 179.506C135.97 180.056 134.881 180.213 134.789 180.998V182.966H136.088H137.387V180.998C137.296 180.213 136.206 180.056 136.097 179.506C136.207 178.957 137.296 178.8 137.387 178.015Z" fill="#006766"/>
<path d="M141.328 178.015V177.346C141.328 176.628 140.747 176.047 140.029 176.047C139.312 176.047 138.73 176.628 138.73 177.346V178.015C138.822 178.8 139.911 178.957 140.02 179.506C139.911 180.056 138.822 180.213 138.73 180.998V182.966H140.029H141.328V180.998C141.237 180.213 140.148 180.056 140.038 179.506C140.148 178.957 141.237 178.8 141.328 178.015Z" fill="#006766"/>
<path d="M145.27 178.015V177.346C145.27 176.628 144.688 176.047 143.971 176.047C143.253 176.047 142.672 176.628 142.672 177.346V178.015C142.763 178.8 143.852 178.957 143.962 179.506C143.852 180.056 142.764 180.213 142.672 180.998V182.966H143.971H145.27V180.998C145.178 180.213 144.089 180.056 143.98 179.506C144.089 178.957 145.178 178.8 145.27 178.015Z" fill="#006766"/>
<path d="M149.211 178.015V177.346C149.211 176.628 148.63 176.047 147.912 176.047C147.195 176.047 146.613 176.628 146.613 177.346V178.015C146.705 178.8 147.794 178.957 147.903 179.506C147.794 180.056 146.705 180.213 146.613 180.998V182.966H147.912H149.211V180.998C149.12 180.213 148.031 180.056 147.921 179.506C148.031 178.957 149.119 178.8 149.211 178.015Z" fill="#006766"/>
<path d="M153.149 178.015V177.346C153.149 176.628 152.567 176.047 151.85 176.047C151.132 176.047 150.551 176.628 150.551 177.346V178.015C150.642 178.8 151.731 178.957 151.84 179.506C151.731 180.056 150.643 180.213 150.551 180.998V182.966H151.85H153.149V180.998C153.057 180.213 151.968 180.056 151.859 179.506C151.969 178.957 153.057 178.8 153.149 178.015Z" fill="#006766"/>
<path d="M157.091 178.015V177.346C157.091 176.628 156.509 176.047 155.792 176.047C155.074 176.047 154.492 176.628 154.492 177.346V178.015C154.584 178.8 155.673 178.957 155.782 179.506C155.673 180.056 154.585 180.213 154.492 180.998V182.966H155.792H157.091V180.998C156.999 180.213 155.91 180.056 155.801 179.506C155.91 178.957 156.999 178.8 157.091 178.015Z" fill="#006766"/>
<path d="M161.032 178.015V177.346C161.032 176.628 160.449 176.047 159.733 176.047C159.015 176.047 158.434 176.628 158.434 177.346V178.015C158.525 178.8 159.614 178.957 159.724 179.506C159.614 180.056 158.526 180.213 158.434 180.998V182.966H159.733H161.032V180.998C160.94 180.213 159.85 180.056 159.742 179.506C159.85 178.957 160.94 178.8 161.032 178.015Z" fill="#006766"/>
<path d="M133.843 139.503C133.843 142.616 131.319 145.139 128.206 145.139C125.094 145.139 122.57 142.616 122.57 139.503C122.57 136.391 125.094 133.867 128.206 133.867C131.319 133.867 133.843 136.391 133.843 139.503Z" fill="#006766"/>
<path d="M131.483 131.511C131.483 133.321 130.017 134.788 128.207 134.788C126.397 134.788 124.93 133.321 124.93 131.511C124.93 129.701 126.398 128.234 128.207 128.234C130.017 128.234 131.483 129.701 131.483 131.511Z" fill="#006766"/>
<path d="M128.691 0H127.723V131.51H128.691V0Z" fill="#006766"/>
<path d="M135.871 163.118C135.871 167.351 132.44 170.782 128.207 170.782C123.974 170.782 120.543 167.351 120.543 163.118C120.543 158.885 123.974 155.453 128.207 155.453C132.44 155.453 135.871 158.885 135.871 163.118Z" fill="white"/>
<path d="M116.934 165.129C116.934 167.612 114.921 169.625 112.438 169.625C109.955 169.625 107.941 167.612 107.941 165.129C107.941 162.646 109.955 160.633 112.438 160.633C114.921 160.633 116.934 162.646 116.934 165.129Z" fill="white"/>
<path d="M148.469 165.129C148.469 167.612 146.456 169.625 143.973 169.625C141.49 169.625 139.477 167.612 139.477 165.129C139.477 162.646 141.49 160.633 143.973 160.633C146.456 160.633 148.469 162.646 148.469 165.129Z" fill="white"/>
<path d="M156.457 315.604C154.352 333.572 128.21 336.403 128.21 349.997C128.21 336.403 102.068 333.572 99.9628 315.604C99.8323 314.488 99.795 313.409 99.8275 312.359H156.592C156.625 313.409 156.587 314.488 156.457 315.604Z" fill="#006766"/>
<path d="M97.9813 308.631V309.3C97.9813 310.018 97.3998 310.599 96.6818 310.599C95.9649 310.599 95.3828 310.018 95.3828 309.3V308.631C95.4748 307.846 96.5633 307.689 96.6728 307.139C96.5633 306.59 95.4754 306.433 95.3828 305.648V303.68H96.6818H97.9813V305.648C97.8893 306.433 96.8009 306.59 96.6908 307.139C96.8009 307.689 97.8893 307.846 97.9813 308.631Z" fill="#006766"/>
<path d="M101.922 308.631V309.3C101.922 310.018 101.34 310.599 100.623 310.599C99.9057 310.599 99.3242 310.018 99.3242 309.3V308.631C99.4156 307.846 100.505 307.689 100.614 307.139C100.505 306.59 99.4162 306.433 99.3242 305.648V303.68H100.623H101.922V305.648C101.83 306.433 100.741 306.59 100.632 307.139C100.741 307.689 101.83 307.846 101.922 308.631Z" fill="#006766"/>
<path d="M105.864 308.631V309.3C105.864 310.018 105.282 310.599 104.565 310.599C103.848 310.599 103.266 310.018 103.266 309.3V308.631C103.358 307.846 104.447 307.689 104.556 307.139C104.447 306.59 103.358 306.433 103.266 305.648V303.68H104.565H105.864V305.648C105.772 306.433 104.683 306.59 104.575 307.139C104.683 307.689 105.772 307.846 105.864 308.631Z" fill="#006766"/>
<path d="M109.802 308.631V309.3C109.802 310.018 109.22 310.599 108.502 310.599C107.785 310.599 107.203 310.018 107.203 309.3V308.631C107.295 307.846 108.384 307.689 108.493 307.139C108.384 306.59 107.296 306.433 107.203 305.648V303.68H108.502H109.802V305.648C109.71 306.433 108.621 306.59 108.512 307.139C108.621 307.689 109.71 307.846 109.802 308.631Z" fill="#006766"/>
<path d="M113.742 308.631V309.3C113.742 310.018 113.161 310.599 112.443 310.599C111.726 310.599 111.145 310.018 111.145 309.3V308.631C111.236 307.846 112.325 307.689 112.434 307.139C112.325 306.59 111.237 306.433 111.145 305.648V303.68H112.443H113.742V305.648C113.651 306.433 112.562 306.59 112.453 307.139C112.562 307.689 113.651 307.846 113.742 308.631Z" fill="#006766"/>
<path d="M117.684 308.631V309.3C117.684 310.018 117.102 310.599 116.385 310.599C115.667 310.599 115.086 310.018 115.086 309.3V308.631C115.177 307.846 116.266 307.689 116.376 307.139C116.266 306.59 115.178 306.433 115.086 305.648V303.68H116.385H117.684V305.648C117.592 306.433 116.503 306.59 116.395 307.139C116.503 307.689 117.592 307.846 117.684 308.631Z" fill="#006766"/>
<path d="M121.625 308.631V309.3C121.625 310.018 121.044 310.599 120.326 310.599C119.609 310.599 119.027 310.018 119.027 309.3V308.631C119.119 307.846 120.208 307.689 120.317 307.139C120.208 306.59 119.119 306.433 119.027 305.648V303.68H120.326H121.625V305.648C121.534 306.433 120.445 306.59 120.335 307.139C120.445 307.689 121.533 307.846 121.625 308.631Z" fill="#006766"/>
<path d="M125.563 308.631V309.3C125.563 310.018 124.981 310.599 124.264 310.599C123.546 310.599 122.965 310.018 122.965 309.3V308.631C123.056 307.846 124.145 307.689 124.255 307.139C124.145 306.59 123.057 306.433 122.965 305.648V303.68H124.264H125.563V305.648C125.471 306.433 124.382 306.59 124.273 307.139C124.382 307.689 125.471 307.846 125.563 308.631Z" fill="#006766"/>
<path d="M129.504 308.631V309.3C129.504 310.018 128.923 310.599 128.205 310.599C127.488 310.599 126.906 310.018 126.906 309.3V308.631C126.998 307.846 128.087 307.689 128.196 307.139C128.087 306.59 126.998 306.433 126.906 305.648V303.68H128.205H129.504V305.648C129.413 306.433 128.324 306.59 128.215 307.139C128.324 307.689 129.413 307.846 129.504 308.631Z" fill="#006766"/>
<path d="M133.449 308.631V309.3C133.449 310.018 132.868 310.599 132.151 310.599C131.433 310.599 130.852 310.018 130.852 309.3V308.631C130.943 307.846 132.032 307.689 132.142 307.139C132.032 306.59 130.944 306.433 130.852 305.648V303.68H132.151H133.449V305.648C133.358 306.433 132.269 306.59 132.16 307.139C132.269 307.689 133.357 307.846 133.449 308.631Z" fill="#006766"/>
<path d="M137.387 308.631V309.3C137.387 310.018 136.805 310.599 136.088 310.599C135.371 310.599 134.789 310.018 134.789 309.3V308.631C134.88 307.846 135.97 307.689 136.079 307.139C135.97 306.59 134.881 306.433 134.789 305.648V303.68H136.088H137.387V305.648C137.296 306.433 136.206 306.59 136.097 307.139C136.207 307.689 137.296 307.846 137.387 308.631Z" fill="#006766"/>
<path d="M141.328 308.631V309.3C141.328 310.018 140.747 310.599 140.029 310.599C139.312 310.599 138.73 310.018 138.73 309.3V308.631C138.822 307.846 139.911 307.689 140.02 307.139C139.911 306.59 138.822 306.433 138.73 305.648V303.68H140.029H141.328V305.648C141.237 306.433 140.148 306.59 140.038 307.139C140.148 307.689 141.237 307.846 141.328 308.631Z" fill="#006766"/>
<path d="M145.27 308.631V309.3C145.27 310.018 144.688 310.599 143.971 310.599C143.253 310.599 142.672 310.018 142.672 309.3V308.631C142.763 307.846 143.852 307.689 143.962 307.139C143.852 306.59 142.764 306.433 142.672 305.648V303.68H143.971H145.27V305.648C145.178 306.433 144.089 306.59 143.98 307.139C144.089 307.689 145.178 307.846 145.27 308.631Z" fill="#006766"/>
<path d="M149.211 308.631V309.3C149.211 310.018 148.63 310.599 147.912 310.599C147.195 310.599 146.613 310.018 146.613 309.3V308.631C146.705 307.846 147.794 307.689 147.903 307.139C147.794 306.59 146.705 306.433 146.613 305.648V303.68H147.912H149.211V305.648C149.12 306.433 148.031 306.59 147.921 307.139C148.031 307.689 149.119 307.846 149.211 308.631Z" fill="#006766"/>
<path d="M153.149 308.631V309.3C153.149 310.018 152.567 310.599 151.85 310.599C151.132 310.599 150.551 310.018 150.551 309.3V308.631C150.642 307.846 151.731 307.689 151.84 307.139C151.731 306.59 150.643 306.433 150.551 305.648V303.68H151.85H153.149V305.648C153.057 306.433 151.968 306.59 151.859 307.139C151.969 307.689 153.057 307.846 153.149 308.631Z" fill="#006766"/>
<path d="M157.091 308.631V309.3C157.091 310.018 156.509 310.599 155.792 310.599C155.074 310.599 154.492 310.018 154.492 309.3V308.631C154.584 307.846 155.673 307.689 155.782 307.139C155.673 306.59 154.585 306.433 154.492 305.648V303.68H155.792H157.091V305.648C156.999 306.433 155.91 306.59 155.801 307.139C155.91 307.689 156.999 307.846 157.091 308.631Z" fill="#006766"/>
<path d="M161.032 308.631V309.3C161.032 310.018 160.449 310.599 159.733 310.599C159.015 310.599 158.434 310.018 158.434 309.3V308.631C158.525 307.846 159.614 307.689 159.724 307.139C159.614 306.59 158.526 306.433 158.434 305.648V303.68H159.733H161.032V305.648C160.94 306.433 159.85 306.59 159.742 307.139C159.85 307.689 160.94 307.846 161.032 308.631Z" fill="#006766"/>
<path d="M128.408 331.18C132.639 331.074 135.984 327.558 135.878 323.326C135.772 319.094 132.256 315.749 128.025 315.855C123.793 315.961 120.449 319.477 120.555 323.709C120.661 327.941 124.177 331.285 128.408 331.18Z" fill="white"/>
<path d="M116.934 322.176C116.934 319.693 114.921 317.68 112.438 317.68C109.955 317.68 107.941 319.692 107.941 322.176C107.941 324.659 109.955 326.672 112.438 326.672C114.921 326.672 116.934 324.659 116.934 322.176Z" fill="white"/>
<path d="M148.469 322.176C148.469 319.693 146.456 317.68 143.973 317.68C141.49 317.68 139.477 319.692 139.477 322.176C139.477 324.659 141.49 326.672 143.973 326.672C146.456 326.672 148.469 324.659 148.469 322.176Z" fill="white"/>
<path d="M166.012 191.172H90.4023V195.247H166.012V191.172Z" fill="#006766"/>
<path d="M162.773 194.297H93.6484V198.023H162.773V194.297Z" fill="#006766"/>
<path d="M165.564 291.594H90.8533C88.7136 291.594 86.9805 293.328 86.9805 295.467V296.36C86.9805 298.499 88.7142 300.232 90.8533 300.232H165.564C167.703 300.232 169.437 298.499 169.437 296.36V295.467C169.437 293.328 167.703 291.594 165.564 291.594Z" fill="#006766"/>
<path d="M166.012 288.75H90.4023V292.826H166.012V288.75Z" fill="#006766"/>
<path d="M162.773 285.969H93.6484V289.695H162.773V285.969Z" fill="#006766"/>
<path d="M261.589 112.996H217.712C216.456 112.996 215.438 111.977 215.438 110.721V110.196C215.438 108.94 216.456 107.922 217.712 107.922H261.589C262.846 107.922 263.863 108.94 263.863 110.196V110.721C263.863 111.977 262.846 112.996 261.589 112.996Z" fill="#006766"/>
<path d="M256.237 100.449C255.001 89.896 239.648 88.2332 239.648 80.25C239.648 88.2332 224.295 89.896 223.059 100.449C222.982 101.104 222.96 101.738 222.979 102.355H256.317C256.335 101.738 256.314 101.104 256.237 100.449Z" fill="#006766"/>
<path d="M220.23 113.961V167.947H259.065V113.961H220.23ZM230.383 155.746C229.858 160.231 223.333 160.937 223.333 164.33V117.419C223.333 120.812 229.858 121.519 230.383 126.004V155.746ZM246.699 155.746C246.173 160.231 239.647 160.937 239.647 164.33C239.647 160.937 233.122 160.231 232.597 155.746V126.004C233.122 121.519 239.647 120.812 239.647 117.419C239.647 120.812 246.173 121.519 246.699 126.004V155.746ZM255.963 164.331C255.963 160.938 249.437 160.231 248.912 155.746V126.005C249.437 121.52 255.963 120.813 255.963 117.42V164.331Z" fill="#006766"/>
<path d="M221.901 104.546V104.154C221.901 103.732 221.56 103.391 221.139 103.391C220.717 103.391 220.375 103.732 220.375 104.154V104.546C220.429 105.008 221.069 105.1 221.133 105.423C221.07 105.746 220.429 105.838 220.375 106.298V107.454H221.139H221.901V106.298C221.848 105.837 221.209 105.745 221.145 105.423C221.208 105.1 221.848 105.007 221.901 104.546Z" fill="#006766"/>
<path d="M224.214 104.546V104.154C224.214 103.732 223.872 103.391 223.45 103.391C223.029 103.391 222.688 103.732 222.688 104.154V104.546C222.741 105.008 223.38 105.1 223.445 105.423C223.381 105.746 222.741 105.838 222.688 106.298V107.454H223.45H224.214V106.298C224.16 105.837 223.52 105.745 223.456 105.423C223.52 105.1 224.16 105.007 224.214 104.546Z" fill="#006766"/>
<path d="M226.53 104.546V104.154C226.53 103.732 226.189 103.391 225.767 103.391C225.346 103.391 225.004 103.732 225.004 104.154V104.546C225.058 105.008 225.697 105.1 225.761 105.423C225.697 105.746 225.058 105.838 225.004 106.298V107.454H225.767H226.53V106.298C226.476 105.837 225.837 105.745 225.773 105.423C225.837 105.1 226.476 105.007 226.53 104.546Z" fill="#006766"/>
<path d="M228.847 104.546V104.154C228.847 103.732 228.505 103.391 228.083 103.391C227.662 103.391 227.32 103.732 227.32 104.154V104.546C227.374 105.008 228.014 105.1 228.077 105.423C228.014 105.746 227.374 105.838 227.32 106.298V107.454H228.083H228.847V106.298C228.793 105.837 228.153 105.745 228.089 105.423C228.153 105.1 228.793 105.007 228.847 104.546Z" fill="#006766"/>
<path d="M231.159 104.546V104.154C231.159 103.732 230.818 103.391 230.395 103.391C229.974 103.391 229.633 103.732 229.633 104.154V104.546C229.687 105.008 230.326 105.1 230.391 105.423C230.327 105.746 229.687 105.838 229.633 106.298V107.454H230.395H231.159V106.298C231.105 105.837 230.466 105.745 230.401 105.423C230.466 105.1 231.105 105.007 231.159 104.546Z" fill="#006766"/>
<path d="M233.471 104.546V104.154C233.471 103.732 233.129 103.391 232.708 103.391C232.287 103.391 231.945 103.732 231.945 104.154V104.546C231.999 105.008 232.639 105.1 232.703 105.423C232.639 105.746 231.999 105.838 231.945 106.298V107.454H232.708H233.471V106.298C233.417 105.837 232.778 105.745 232.714 105.423C232.778 105.1 233.417 105.007 233.471 104.546Z" fill="#006766"/>
<path d="M235.789 104.546V104.154C235.789 103.732 235.447 103.391 235.025 103.391C234.603 103.391 234.262 103.732 234.262 104.154V104.546C234.316 105.008 234.955 105.1 235.019 105.423C234.955 105.746 234.316 105.838 234.262 106.298V107.454H235.025H235.789V106.298C235.734 105.837 235.095 105.745 235.03 105.423C235.095 105.1 235.734 105.007 235.789 104.546Z" fill="#006766"/>
<path d="M238.101 104.546V104.154C238.101 103.732 237.76 103.391 237.337 103.391C236.916 103.391 236.574 103.732 236.574 104.154V104.546C236.628 105.008 237.268 105.1 237.333 105.423C237.268 105.746 236.628 105.838 236.574 106.298V107.454H237.337H238.101V106.298C238.047 105.837 237.408 105.745 237.343 105.423C237.408 105.1 238.047 105.007 238.101 104.546Z" fill="#006766"/>
<path d="M240.417 104.546V104.154C240.417 103.732 240.075 103.391 239.654 103.391C239.233 103.391 238.891 103.732 238.891 104.154V104.546C238.945 105.008 239.583 105.1 239.648 105.423C239.584 105.746 238.945 105.838 238.891 106.298V107.454H239.654H240.417V106.298C240.362 105.837 239.724 105.745 239.66 105.423C239.724 105.1 240.362 105.007 240.417 104.546Z" fill="#006766"/>
<path d="M242.73 104.546V104.154C242.73 103.732 242.389 103.391 241.967 103.391C241.545 103.391 241.203 103.732 241.203 104.154V104.546C241.258 105.008 241.897 105.1 241.961 105.423C241.897 105.746 241.258 105.838 241.203 106.298V107.454H241.967H242.73V106.298C242.676 105.837 242.037 105.745 241.973 105.423C242.036 105.1 242.676 105.007 242.73 104.546Z" fill="#006766"/>
<path d="M245.046 104.546V104.154C245.046 103.732 244.705 103.391 244.283 103.391C243.861 103.391 243.52 103.732 243.52 104.154V104.546C243.574 105.008 244.213 105.1 244.277 105.423C244.214 105.746 243.574 105.838 243.52 106.298V107.454H244.283H245.046V106.298C244.992 105.837 244.353 105.745 244.289 105.423C244.353 105.1 244.992 105.007 245.046 104.546Z" fill="#006766"/>
<path d="M247.358 104.546V104.154C247.358 103.732 247.017 103.391 246.596 103.391C246.174 103.391 245.832 103.732 245.832 104.154V104.546C245.886 105.008 246.525 105.1 246.59 105.423C246.525 105.746 245.886 105.838 245.832 106.298V107.454H246.596H247.358V106.298C247.305 105.837 246.666 105.745 246.601 105.423C246.665 105.1 247.305 105.007 247.358 104.546Z" fill="#006766"/>
<path d="M249.671 104.546V104.154C249.671 103.732 249.33 103.391 248.908 103.391C248.487 103.391 248.145 103.732 248.145 104.154V104.546C248.199 105.008 248.839 105.1 248.902 105.423C248.839 105.746 248.199 105.838 248.145 106.298V107.454H248.908H249.671V106.298C249.618 105.837 248.978 105.745 248.914 105.423C248.978 105.1 249.618 105.007 249.671 104.546Z" fill="#006766"/>
<path d="M251.987 104.546V104.154C251.987 103.732 251.645 103.391 251.224 103.391C250.803 103.391 250.461 103.732 250.461 104.154V104.546C250.515 105.008 251.154 105.1 251.218 105.423C251.154 105.746 250.515 105.838 250.461 106.298V107.454H251.224H251.987V106.298C251.932 105.837 251.293 105.745 251.229 105.423C251.293 105.1 251.932 105.007 251.987 104.546Z" fill="#006766"/>
<path d="M254.304 104.546V104.154C254.304 103.732 253.963 103.391 253.541 103.391C253.12 103.391 252.777 103.732 252.777 104.154V104.546C252.831 105.008 253.471 105.1 253.535 105.423C253.472 105.746 252.831 105.838 252.777 106.298V107.454H253.541H254.304V106.298C254.25 105.837 253.611 105.745 253.546 105.423C253.61 105.1 254.25 105.007 254.304 104.546Z" fill="#006766"/>
<path d="M256.617 104.546V104.154C256.617 103.732 256.275 103.391 255.853 103.391C255.432 103.391 255.09 103.732 255.09 104.154V104.546C255.144 105.008 255.783 105.1 255.847 105.423C255.784 105.746 255.144 105.838 255.09 106.298V107.454H255.853H256.617V106.298C256.562 105.837 255.923 105.745 255.859 105.423C255.923 105.1 256.563 105.007 256.617 104.546Z" fill="#006766"/>
<path d="M258.929 104.546V104.154C258.929 103.732 258.587 103.391 258.165 103.391C257.744 103.391 257.402 103.732 257.402 104.154V104.546C257.456 105.008 258.095 105.1 258.159 105.423C258.096 105.746 257.456 105.838 257.402 106.298V107.454H258.165H258.929V106.298C258.875 105.837 258.236 105.745 258.171 105.423C258.236 105.1 258.875 105.007 258.929 104.546Z" fill="#006766"/>
<path d="M242.96 81.9271C242.96 83.7547 241.477 85.2371 239.65 85.2371C237.821 85.2371 236.34 83.7553 236.34 81.9271C236.34 80.099 237.821 78.6172 239.65 78.6172C241.477 78.6172 242.96 80.099 242.96 81.9271Z" fill="#006766"/>
<path d="M241.575 77.2369C241.575 78.3001 240.714 79.1613 239.652 79.1613C238.588 79.1613 237.727 78.2995 237.727 77.2369C237.727 76.1743 238.588 75.3125 239.652 75.3125C240.714 75.3125 241.575 76.1743 241.575 77.2369Z" fill="#006766"/>
<path d="M239.935 0H239.367V77.2349H239.935V0Z" fill="#006766"/>
<path d="M244.151 95.7981C244.151 98.2842 242.135 100.299 239.65 100.299C237.164 100.299 235.148 98.2842 235.148 95.7981C235.148 93.3121 237.164 91.2969 239.65 91.2969C242.135 91.2969 244.151 93.3121 244.151 95.7981Z" fill="white"/>
<path d="M233.027 96.9766C233.027 98.4349 231.846 99.6172 230.387 99.6172C228.928 99.6172 227.746 98.4349 227.746 96.9766C227.746 95.5182 228.928 94.3359 230.387 94.3359C231.846 94.3359 233.027 95.5182 233.027 96.9766Z" fill="white"/>
<path d="M251.547 96.9766C251.547 98.4349 250.365 99.6172 248.906 99.6172C247.449 99.6172 246.266 98.4349 246.266 96.9766C246.266 95.5182 247.449 94.3359 248.906 94.3359C250.366 94.3359 251.547 95.5182 251.547 96.9766Z" fill="white"/>
<path d="M256.237 185.351C255.001 195.904 239.648 197.566 239.648 205.55C239.648 197.566 224.295 195.904 223.059 185.351C222.982 184.696 222.96 184.062 222.979 183.445H256.317C256.335 184.062 256.314 184.695 256.237 185.351Z" fill="#006766"/>
<path d="M221.901 181.252V181.645C221.901 182.066 221.56 182.408 221.139 182.408C220.717 182.408 220.375 182.066 220.375 181.645V181.252C220.429 180.791 221.069 180.699 221.133 180.376C221.07 180.053 220.429 179.961 220.375 179.5V178.344H221.139H221.901V179.5C221.848 179.961 221.209 180.053 221.145 180.376C221.208 180.699 221.848 180.791 221.901 181.252Z" fill="#006766"/>
<path d="M224.214 181.252V181.645C224.214 182.066 223.872 182.408 223.45 182.408C223.029 182.408 222.688 182.066 222.688 181.645V181.252C222.741 180.791 223.38 180.699 223.445 180.376C223.381 180.053 222.741 179.961 222.688 179.5V178.344H223.45H224.214V179.5C224.16 179.961 223.52 180.053 223.456 180.376C223.52 180.699 224.16 180.791 224.214 181.252Z" fill="#006766"/>
<path d="M226.53 181.252V181.645C226.53 182.066 226.189 182.408 225.767 182.408C225.346 182.408 225.004 182.066 225.004 181.645V181.252C225.058 180.791 225.697 180.699 225.761 180.376C225.697 180.053 225.058 179.961 225.004 179.5V178.344H225.767H226.53V179.5C226.476 179.961 225.837 180.053 225.773 180.376C225.837 180.699 226.476 180.791 226.53 181.252Z" fill="#006766"/>
<path d="M228.847 181.252V181.645C228.847 182.066 228.505 182.408 228.083 182.408C227.662 182.408 227.32 182.066 227.32 181.645V181.252C227.374 180.791 228.014 180.699 228.077 180.376C228.014 180.053 227.374 179.961 227.32 179.5V178.344H228.083H228.847V179.5C228.793 179.961 228.153 180.053 228.089 180.376C228.153 180.699 228.793 180.791 228.847 181.252Z" fill="#006766"/>
<path d="M231.159 181.252V181.645C231.159 182.066 230.818 182.408 230.395 182.408C229.974 182.408 229.633 182.066 229.633 181.645V181.252C229.687 180.791 230.326 180.699 230.391 180.376C230.327 180.053 229.687 179.961 229.633 179.5V178.344H230.395H231.159V179.5C231.105 179.961 230.466 180.053 230.401 180.376C230.466 180.699 231.105 180.791 231.159 181.252Z" fill="#006766"/>
<path d="M233.471 181.252V181.645C233.471 182.066 233.129 182.408 232.708 182.408C232.287 182.408 231.945 182.066 231.945 181.645V181.252C231.999 180.791 232.639 180.699 232.703 180.376C232.639 180.053 231.999 179.961 231.945 179.5V178.344H232.708H233.471V179.5C233.417 179.961 232.778 180.053 232.714 180.376C232.778 180.699 233.417 180.791 233.471 181.252Z" fill="#006766"/>
<path d="M235.789 181.252V181.645C235.789 182.066 235.447 182.408 235.025 182.408C234.603 182.408 234.262 182.066 234.262 181.645V181.252C234.316 180.791 234.955 180.699 235.019 180.376C234.955 180.053 234.316 179.961 234.262 179.5V178.344H235.025H235.789V179.5C235.734 179.961 235.095 180.053 235.03 180.376C235.095 180.699 235.734 180.791 235.789 181.252Z" fill="#006766"/>
<path d="M238.101 181.252V181.645C238.101 182.066 237.76 182.408 237.337 182.408C236.916 182.408 236.574 182.066 236.574 181.645V181.252C236.628 180.791 237.268 180.699 237.333 180.376C237.268 180.053 236.628 179.961 236.574 179.5V178.344H237.337H238.101V179.5C238.047 179.961 237.408 180.053 237.343 180.376C237.408 180.699 238.047 180.791 238.101 181.252Z" fill="#006766"/>
<path d="M240.417 181.252V181.645C240.417 182.066 240.075 182.408 239.654 182.408C239.233 182.408 238.891 182.066 238.891 181.645V181.252C238.945 180.791 239.583 180.699 239.648 180.376C239.584 180.053 238.945 179.961 238.891 179.5V178.344H239.654H240.417V179.5C240.362 179.961 239.724 180.053 239.66 180.376C239.724 180.699 240.362 180.791 240.417 181.252Z" fill="#006766"/>
<path d="M242.73 181.252V181.645C242.73 182.066 242.389 182.408 241.967 182.408C241.545 182.408 241.203 182.066 241.203 181.645V181.252C241.258 180.791 241.897 180.699 241.961 180.376C241.897 180.053 241.258 179.961 241.203 179.5V178.344H241.967H242.73V179.5C242.676 179.961 242.037 180.053 241.973 180.376C242.036 180.699 242.676 180.791 242.73 181.252Z" fill="#006766"/>
<path d="M245.046 181.252V181.645C245.046 182.066 244.705 182.408 244.283 182.408C243.861 182.408 243.52 182.066 243.52 181.645V181.252C243.574 180.791 244.213 180.699 244.277 180.376C244.214 180.053 243.574 179.961 243.52 179.5V178.344H244.283H245.046V179.5C244.992 179.961 244.353 180.053 244.289 180.376C244.353 180.699 244.992 180.791 245.046 181.252Z" fill="#006766"/>
<path d="M247.358 181.252V181.645C247.358 182.066 247.017 182.408 246.596 182.408C246.174 182.408 245.832 182.066 245.832 181.645V181.252C245.886 180.791 246.525 180.699 246.59 180.376C246.525 180.053 245.886 179.961 245.832 179.5V178.344H246.596H247.358V179.5C247.305 179.961 246.666 180.053 246.601 180.376C246.665 180.699 247.305 180.791 247.358 181.252Z" fill="#006766"/>
<path d="M249.671 181.252V181.645C249.671 182.066 249.33 182.408 248.908 182.408C248.487 182.408 248.145 182.066 248.145 181.645V181.252C248.199 180.791 248.839 180.699 248.902 180.376C248.839 180.053 248.199 179.961 248.145 179.5V178.344H248.908H249.671V179.5C249.618 179.961 248.978 180.053 248.914 180.376C248.978 180.699 249.618 180.791 249.671 181.252Z" fill="#006766"/>
<path d="M251.987 181.252V181.645C251.987 182.066 251.645 182.408 251.224 182.408C250.803 182.408 250.461 182.066 250.461 181.645V181.252C250.515 180.791 251.154 180.699 251.218 180.376C251.154 180.053 250.515 179.961 250.461 179.5V178.344H251.224H251.987V179.5C251.932 179.961 251.293 180.053 251.229 180.376C251.293 180.699 251.932 180.791 251.987 181.252Z" fill="#006766"/>
<path d="M254.304 181.252V181.645C254.304 182.066 253.963 182.408 253.541 182.408C253.12 182.408 252.777 182.066 252.777 181.645V181.252C252.831 180.791 253.471 180.699 253.535 180.376C253.472 180.053 252.831 179.961 252.777 179.5V178.344H253.541H254.304V179.5C254.25 179.961 253.611 180.053 253.546 180.376C253.61 180.699 254.25 180.791 254.304 181.252Z" fill="#006766"/>
<path d="M256.617 181.252V181.645C256.617 182.066 256.275 182.408 255.853 182.408C255.432 182.408 255.09 182.066 255.09 181.645V181.252C255.144 180.791 255.783 180.699 255.847 180.376C255.784 180.053 255.144 179.961 255.09 179.5V178.344H255.853H256.617V179.5C256.562 179.961 255.923 180.053 255.859 180.376C255.923 180.699 256.563 180.791 256.617 181.252Z" fill="#006766"/>
<path d="M258.929 181.252V181.645C258.929 182.066 258.587 182.408 258.165 182.408C257.744 182.408 257.402 182.066 257.402 181.645V181.252C257.456 180.791 258.095 180.699 258.159 180.376C258.096 180.053 257.456 179.961 257.402 179.5V178.344H258.165H258.929V179.5C258.875 179.961 258.236 180.053 258.171 180.376C258.236 180.699 258.875 180.791 258.929 181.252Z" fill="#006766"/>
<path d="M244.151 190.001C244.151 187.515 242.135 185.5 239.65 185.5C237.164 185.5 235.148 187.515 235.148 190.001C235.148 192.487 237.164 194.503 239.65 194.503C242.135 194.503 244.151 192.487 244.151 190.001Z" fill="white"/>
<path d="M233.027 189.211C233.027 187.753 231.846 186.57 230.387 186.57C228.928 186.57 227.746 187.753 227.746 189.211C227.746 190.669 228.928 191.852 230.387 191.852C231.846 191.852 233.027 190.67 233.027 189.211Z" fill="white"/>
<path d="M251.547 189.211C251.547 187.753 250.365 186.57 248.906 186.57C247.449 186.57 246.266 187.753 246.266 189.211C246.266 190.669 247.449 191.852 248.906 191.852C250.366 191.852 251.547 190.67 251.547 189.211Z" fill="white"/>
<path d="M261.854 112.273H217.449V114.667H261.854V112.273Z" fill="#006766"/>
<path d="M259.948 114.109H219.352V116.298H259.948V114.109Z" fill="#006766"/>
<path d="M261.589 171.258H217.712C216.456 171.258 215.438 172.276 215.438 173.532V174.057C215.438 175.313 216.456 176.332 217.712 176.332H261.589C262.846 176.332 263.863 175.313 263.863 174.057V173.532C263.863 172.276 262.846 171.258 261.589 171.258Z" fill="#006766"/>
<path d="M261.854 169.586H217.449V171.979H261.854V169.586Z" fill="#006766"/>
<path d="M259.948 167.953H219.352V170.142H259.948V167.953Z" fill="#006766"/>
<path d="M55.8759 135.686H2.27499C1.01812 135.686 0 134.668 0 133.412V131.869C0 130.612 1.01812 129.594 2.27499 129.594H55.8759C57.1316 129.594 58.1503 130.612 58.1503 131.869V133.412C58.1503 134.668 57.131 135.686 55.8759 135.686Z" fill="#006766"/>
<path d="M48.9945 120.607C47.5103 107.935 29.074 105.939 29.074 96.3516C29.074 105.939 10.6383 107.935 9.15355 120.607C9.06215 121.394 9.03569 122.155 9.05854 122.894H49.0901C49.113 122.155 49.0871 121.394 48.9945 120.607Z" fill="#006766"/>
<path d="M5.75781 136.852V201.678H52.3906V136.852H5.75781ZM17.9494 187.026C17.3186 192.412 9.48331 193.26 9.48331 197.335V141.005C9.48331 145.08 17.3186 145.928 17.9494 151.313V187.026ZM37.5403 187.026C36.9089 192.412 29.0736 193.26 29.0736 197.335C29.0736 193.261 21.2383 192.412 20.6087 187.026V151.313C21.2383 145.927 29.0736 145.079 29.0736 141.005C29.0736 145.079 36.9089 145.927 37.5403 151.313V187.026ZM48.6645 197.335C48.6645 193.261 40.8299 192.412 40.1984 187.026V151.313C40.8299 145.927 48.6645 145.079 48.6645 141.005V197.335Z" fill="#006766"/>
<path d="M7.76207 125.529V125.057C7.76207 124.551 7.35133 124.141 6.84558 124.141C6.33922 124.141 5.92969 124.551 5.92969 125.057V125.529C5.99403 126.082 6.76259 126.193 6.83956 126.581C6.76259 126.969 5.99464 127.08 5.92969 127.633V129.021H6.84558H7.76207V127.633C7.69712 127.08 6.92917 126.969 6.85219 126.581C6.92917 126.193 7.69652 126.082 7.76207 125.529Z" fill="#006766"/>
<path d="M10.5388 125.529V125.057C10.5388 124.551 10.1287 124.141 9.62292 124.141C9.11717 124.141 8.70703 124.551 8.70703 125.057V125.529C8.77198 126.082 9.53993 126.193 9.61751 126.581C9.53993 126.969 8.77258 127.08 8.70703 127.633V129.021H9.62292H10.5388V127.633C10.4745 127.08 9.70591 126.969 9.62954 126.581C9.70591 126.193 10.4739 126.082 10.5388 125.529Z" fill="#006766"/>
<path d="M13.3201 125.529V125.057C13.3201 124.551 12.9099 124.141 12.4042 124.141C11.8984 124.141 11.4883 124.551 11.4883 125.057V125.529C11.5526 126.082 12.3212 126.193 12.3982 126.581C12.3212 126.969 11.5532 127.08 11.4883 127.633V129.021H12.4042H13.3201V127.633C13.2563 127.08 12.4878 126.969 12.4108 126.581C12.4878 126.193 13.2563 126.082 13.3201 125.529Z" fill="#006766"/>
<path d="M16.0986 125.529V125.057C16.0986 124.551 15.6879 124.141 15.1815 124.141C14.6752 124.141 14.2656 124.551 14.2656 125.057V125.529C14.3306 126.082 15.0985 126.193 15.1755 126.581C15.0985 126.969 14.3312 127.08 14.2656 127.633V129.021H15.1815H16.0986V127.633C16.0337 127.08 15.2657 126.969 15.1887 126.581C15.2657 126.193 16.0337 126.082 16.0986 125.529Z" fill="#006766"/>
<path d="M18.8793 125.529V125.057C18.8793 124.551 18.4685 124.141 17.9634 124.141C17.4576 124.141 17.0469 124.551 17.0469 125.057V125.529C17.1118 126.082 17.8798 126.193 17.9574 126.581C17.8798 126.969 17.1124 127.08 17.0469 127.633V129.021H17.9634H18.8793V127.633C18.8143 127.08 18.0458 126.969 17.9694 126.581C18.0458 126.193 18.8143 126.082 18.8793 125.529Z" fill="#006766"/>
<path d="M21.656 125.529V125.057C21.656 124.551 21.2459 124.141 20.7401 124.141C20.235 124.141 19.8242 124.551 19.8242 125.057V125.529C19.8886 126.082 20.6571 126.193 20.7341 126.581C20.6571 126.969 19.8892 127.08 19.8242 127.633V129.021H20.7401H21.656V127.633C21.5917 127.08 20.8237 126.969 20.7467 126.581C20.8237 126.193 21.5917 126.082 21.656 125.529Z" fill="#006766"/>
<path d="M24.4373 125.529V125.057C24.4373 124.551 24.0265 124.141 23.5208 124.141C23.0144 124.141 22.6055 124.551 22.6055 125.057V125.529C22.6692 126.082 23.4378 126.193 23.5147 126.581C23.4378 126.969 22.6698 127.08 22.6055 127.633V129.021H23.5208H24.4373V127.633C24.3723 127.08 23.6043 126.969 23.5274 126.581C23.605 126.193 24.3723 126.082 24.4373 125.529Z" fill="#006766"/>
<path d="M27.2146 125.529V125.057C27.2146 124.551 26.8045 124.141 26.2993 124.141C25.7929 124.141 25.3828 124.551 25.3828 125.057V125.529C25.4478 126.082 26.2157 126.193 26.2933 126.581C26.2157 126.969 25.4484 127.08 25.3828 127.633V129.021H26.2993H27.2146V127.633C27.1502 127.08 26.3817 126.969 26.3053 126.581C26.3823 126.193 27.1502 126.082 27.2146 125.529Z" fill="#006766"/>
<path d="M29.9925 125.529V125.057C29.9925 124.551 29.5818 124.141 29.076 124.141C28.5697 124.141 28.1602 124.551 28.1602 125.057V125.529C28.2257 126.082 28.9931 126.193 29.07 126.581C28.9931 126.969 28.2263 127.08 28.1602 127.633V129.021H29.076H29.9925V127.633C29.9276 127.08 29.1596 126.969 29.0827 126.581C29.1596 126.193 29.927 126.082 29.9925 125.529Z" fill="#006766"/>
<path d="M32.7738 125.529V125.057C32.7738 124.551 32.363 124.141 31.8573 124.141C31.3515 124.141 30.9414 124.551 30.9414 125.057V125.529C31.0064 126.082 31.7743 126.193 31.8513 126.581C31.7743 126.969 31.007 127.08 30.9414 127.633V129.021H31.8573H32.7738V127.633C32.7088 127.08 31.9409 126.969 31.8639 126.581C31.9409 126.193 32.7082 126.082 32.7738 125.529Z" fill="#006766"/>
<path d="M35.5505 125.529V125.057C35.5505 124.551 35.1404 124.141 34.6352 124.141C34.1295 124.141 33.7188 124.551 33.7188 125.057V125.529C33.7837 126.082 34.5517 126.193 34.6292 126.581C34.5517 126.969 33.7843 127.08 33.7188 127.633V129.021H34.6352H35.5505V127.633C35.4862 127.08 34.7188 126.969 34.6413 126.581C34.7188 126.193 35.4856 126.082 35.5505 125.529Z" fill="#006766"/>
<path d="M38.3318 125.529V125.057C38.3318 124.551 37.9216 124.141 37.4159 124.141C36.9089 124.141 36.5 124.551 36.5 125.057V125.529C36.5643 126.082 37.3329 126.193 37.4099 126.581C37.3329 126.969 36.5649 127.08 36.5 127.633V129.021H37.4159H38.3318V127.633C38.2674 127.08 37.4995 126.969 37.4225 126.581C37.4995 126.193 38.2668 126.082 38.3318 125.529Z" fill="#006766"/>
<path d="M41.1091 125.529V125.057C41.1091 124.551 40.699 124.141 40.1932 124.141C39.6869 124.141 39.2773 124.551 39.2773 125.057V125.529C39.3423 126.082 40.1102 126.193 40.1878 126.581C40.1102 126.969 39.3429 127.08 39.2773 127.633V129.021H40.1932H41.1091V127.633C41.0448 127.08 40.2762 126.969 40.1998 126.581C40.2762 126.193 41.0448 126.082 41.1091 125.529Z" fill="#006766"/>
<path d="M43.8904 125.529V125.057C43.8904 124.551 43.4802 124.141 42.9745 124.141C42.4687 124.141 42.0586 124.551 42.0586 125.057V125.529C42.1229 126.082 42.8915 126.193 42.9691 126.581C42.8915 126.969 42.1235 127.08 42.0586 127.633V129.021H42.9745H43.8904V127.633C43.8266 127.08 43.0581 126.969 42.9811 126.581C43.0581 126.193 43.8266 126.082 43.8904 125.529Z" fill="#006766"/>
<path d="M46.6689 125.529V125.057C46.6689 124.551 46.2582 124.141 45.7524 124.141C45.2461 124.141 44.8359 124.551 44.8359 125.057V125.529C44.9009 126.082 45.6688 126.193 45.7458 126.581C45.6688 126.969 44.9009 127.08 44.8359 127.633V129.021H45.7524H46.6689V127.633C46.604 127.08 45.836 126.969 45.759 126.581C45.836 126.193 46.604 126.082 46.6689 125.529Z" fill="#006766"/>
<path d="M49.4463 125.529V125.057C49.4463 124.551 49.0355 124.141 48.5298 124.141C48.0234 124.141 47.6133 124.551 47.6133 125.057V125.529C47.6782 126.082 48.4462 126.193 48.5238 126.581C48.4462 126.969 47.6788 127.08 47.6133 127.633V129.021H48.5298H49.4463V127.633C49.3813 127.08 48.6128 126.969 48.5364 126.581C48.6128 126.193 49.3813 126.082 49.4463 125.529Z" fill="#006766"/>
<path d="M52.2263 125.529V125.057C52.2263 124.551 51.8162 124.141 51.3104 124.141C50.8047 124.141 50.3945 124.551 50.3945 125.057V125.529C50.4589 126.082 51.2274 126.193 51.3044 126.581C51.2274 126.969 50.4595 127.08 50.3945 127.633V129.021H51.3104H52.2263V127.633C52.162 127.08 51.394 126.969 51.317 126.581C51.3946 126.193 52.162 126.082 52.2263 125.529Z" fill="#006766"/>
<path d="M33.0511 98.3807C33.0511 100.576 31.2716 102.355 29.076 102.355C26.881 102.355 25.1016 100.576 25.1016 98.3807C25.1016 96.1857 26.881 94.4063 29.076 94.4063C31.2716 94.4056 33.0511 96.1857 33.0511 98.3807Z" fill="#006766"/>
<path d="M31.3833 92.7408C31.3833 94.0169 30.3489 95.0518 29.0722 95.0518C27.7961 95.0518 26.7617 94.0169 26.7617 92.7408C26.7617 91.4647 27.7961 90.4297 29.0722 90.4297C30.3489 90.4297 31.3833 91.4647 31.3833 92.7408Z" fill="#006766"/>
<path d="M29.4175 0H28.7344V92.7437H29.4175V0Z" fill="#006766"/>
<path d="M34.4776 115.03C34.4776 118.015 32.0583 120.435 29.0725 120.435C26.0879 120.435 23.668 118.015 23.668 115.03C23.668 112.045 26.0879 109.625 29.0725 109.625C32.0583 109.625 34.4776 112.045 34.4776 115.03Z" fill="white"/>
<path d="M21.1266 116.46C21.1266 118.211 19.7068 119.631 17.9568 119.631C16.2056 119.631 14.7852 118.211 14.7852 116.46C14.7852 114.709 16.205 113.289 17.9568 113.289C19.7068 113.29 21.1266 114.709 21.1266 116.46Z" fill="white"/>
<path d="M43.3688 116.46C43.3688 118.211 41.9496 119.631 40.1978 119.631C38.4466 119.631 37.0273 118.211 37.0273 116.46C37.0273 114.709 38.4466 113.289 40.1978 113.289C41.949 113.29 43.3688 114.709 43.3688 116.46Z" fill="white"/>
<path d="M48.9945 222.569C47.5103 235.242 29.074 237.238 29.074 246.824C29.074 237.238 10.6383 235.241 9.15355 222.569C9.06215 221.782 9.03569 221.022 9.05854 220.281H49.0901C49.113 221.022 49.0871 221.783 48.9945 222.569Z" fill="#006766"/>
<path d="M7.76207 217.657V218.128C7.76207 218.635 7.35133 219.045 6.84558 219.045C6.33922 219.045 5.92969 218.635 5.92969 218.128V217.657C5.99403 217.104 6.76259 216.992 6.83956 216.604C6.76259 216.217 5.99464 216.106 5.92969 215.552V214.164H6.84558H7.76207V215.552C7.69712 216.106 6.92917 216.217 6.85219 216.604C6.92917 216.992 7.69652 217.104 7.76207 217.657Z" fill="#006766"/>
<path d="M10.5388 217.657V218.128C10.5388 218.635 10.1287 219.045 9.62292 219.045C9.11717 219.045 8.70703 218.635 8.70703 218.128V217.657C8.77198 217.104 9.53993 216.992 9.61751 216.604C9.53993 216.217 8.77258 216.106 8.70703 215.552V214.164H9.62292H10.5388V215.552C10.4745 216.106 9.70591 216.217 9.62954 216.604C9.70591 216.992 10.4739 217.104 10.5388 217.657Z" fill="#006766"/>
<path d="M13.3201 217.657V218.128C13.3201 218.635 12.9099 219.045 12.4042 219.045C11.8984 219.045 11.4883 218.635 11.4883 218.128V217.657C11.5526 217.104 12.3212 216.992 12.3982 216.604C12.3212 216.217 11.5532 216.106 11.4883 215.552V214.164H12.4042H13.3201V215.552C13.2563 216.106 12.4878 216.217 12.4108 216.604C12.4878 216.992 13.2563 217.104 13.3201 217.657Z" fill="#006766"/>
<path d="M16.0986 217.657V218.128C16.0986 218.635 15.6879 219.045 15.1815 219.045C14.6752 219.045 14.2656 218.635 14.2656 218.128V217.657C14.3306 217.104 15.0985 216.992 15.1755 216.604C15.0985 216.217 14.3312 216.106 14.2656 215.552V214.164H15.1815H16.0986V215.552C16.0337 216.106 15.2657 216.217 15.1887 216.604C15.2657 216.992 16.0337 217.104 16.0986 217.657Z" fill="#006766"/>
<path d="M18.8793 217.657V218.128C18.8793 218.635 18.4685 219.045 17.9634 219.045C17.4576 219.045 17.0469 218.635 17.0469 218.128V217.657C17.1118 217.104 17.8798 216.992 17.9574 216.604C17.8798 216.217 17.1124 216.106 17.0469 215.552V214.164H17.9634H18.8793V215.552C18.8143 216.106 18.0458 216.217 17.9694 216.604C18.0458 216.992 18.8143 217.104 18.8793 217.657Z" fill="#006766"/>
<path d="M21.656 217.657V218.128C21.656 218.635 21.2459 219.045 20.7401 219.045C20.235 219.045 19.8242 218.635 19.8242 218.128V217.657C19.8886 217.104 20.6571 216.992 20.7341 216.604C20.6571 216.217 19.8892 216.106 19.8242 215.552V214.164H20.7401H21.656V215.552C21.5917 216.106 20.8237 216.217 20.7467 216.604C20.8237 216.992 21.5917 217.104 21.656 217.657Z" fill="#006766"/>
<path d="M24.4373 217.657V218.128C24.4373 218.635 24.0265 219.045 23.5208 219.045C23.0144 219.045 22.6055 218.635 22.6055 218.128V217.657C22.6692 217.104 23.4378 216.992 23.5147 216.604C23.4378 216.217 22.6698 216.106 22.6055 215.552V214.164H23.5208H24.4373V215.552C24.3723 216.106 23.6043 216.217 23.5274 216.604C23.605 216.992 24.3723 217.104 24.4373 217.657Z" fill="#006766"/>
<path d="M27.2146 217.657V218.128C27.2146 218.635 26.8045 219.045 26.2993 219.045C25.7929 219.045 25.3828 218.635 25.3828 218.128V217.657C25.4478 217.104 26.2157 216.992 26.2933 216.604C26.2157 216.217 25.4484 216.106 25.3828 215.552V214.164H26.2993H27.2146V215.552C27.1502 216.106 26.3817 216.217 26.3053 216.604C26.3823 216.992 27.1502 217.104 27.2146 217.657Z" fill="#006766"/>
<path d="M29.9925 217.657V218.128C29.9925 218.635 29.5818 219.045 29.076 219.045C28.5697 219.045 28.1602 218.635 28.1602 218.128V217.657C28.2257 217.104 28.9931 216.992 29.07 216.604C28.9931 216.217 28.2263 216.106 28.1602 215.552V214.164H29.076H29.9925V215.552C29.9276 216.106 29.1596 216.217 29.0827 216.604C29.1596 216.992 29.927 217.104 29.9925 217.657Z" fill="#006766"/>
<path d="M32.7738 217.657V218.128C32.7738 218.635 32.363 219.045 31.8573 219.045C31.3515 219.045 30.9414 218.635 30.9414 218.128V217.657C31.0064 217.104 31.7743 216.992 31.8513 216.604C31.7743 216.217 31.007 216.106 30.9414 215.552V214.164H31.8573H32.7738V215.552C32.7088 216.106 31.9409 216.217 31.8639 216.604C31.9409 216.992 32.7082 217.104 32.7738 217.657Z" fill="#006766"/>
<path d="M35.5505 217.657V218.128C35.5505 218.635 35.1404 219.045 34.6352 219.045C34.1295 219.045 33.7188 218.635 33.7188 218.128V217.657C33.7837 217.104 34.5517 216.992 34.6292 216.604C34.5517 216.217 33.7843 216.106 33.7188 215.552V214.164H34.6352H35.5505V215.552C35.4862 216.106 34.7188 216.217 34.6413 216.604C34.7188 216.992 35.4856 217.104 35.5505 217.657Z" fill="#006766"/>
<path d="M38.3318 217.657V218.128C38.3318 218.635 37.9216 219.045 37.4159 219.045C36.9089 219.045 36.5 218.635 36.5 218.128V217.657C36.5643 217.104 37.3329 216.992 37.4099 216.604C37.3329 216.217 36.5649 216.106 36.5 215.552V214.164H37.4159H38.3318V215.552C38.2674 216.106 37.4995 216.217 37.4225 216.604C37.4995 216.992 38.2668 217.104 38.3318 217.657Z" fill="#006766"/>
<path d="M41.1091 217.657V218.128C41.1091 218.635 40.699 219.045 40.1932 219.045C39.6869 219.045 39.2773 218.635 39.2773 218.128V217.657C39.3423 217.104 40.1102 216.992 40.1878 216.604C40.1102 216.217 39.3429 216.106 39.2773 215.552V214.164H40.1932H41.1091V215.552C41.0448 216.106 40.2762 216.217 40.1998 216.604C40.2762 216.992 41.0448 217.104 41.1091 217.657Z" fill="#006766"/>
<path d="M43.8904 217.657V218.128C43.8904 218.635 43.4802 219.045 42.9745 219.045C42.4687 219.045 42.0586 218.635 42.0586 218.128V217.657C42.1229 217.104 42.8915 216.992 42.9691 216.604C42.8915 216.217 42.1235 216.106 42.0586 215.552V214.164H42.9745H43.8904V215.552C43.8266 216.106 43.0581 216.217 42.9811 216.604C43.0581 216.992 43.8266 217.104 43.8904 217.657Z" fill="#006766"/>
<path d="M46.6689 217.657V218.128C46.6689 218.635 46.2582 219.045 45.7524 219.045C45.2461 219.045 44.8359 218.635 44.8359 218.128V217.657C44.9009 217.104 45.6688 216.992 45.7458 216.604C45.6688 216.217 44.9009 216.106 44.8359 215.552V214.164H45.7524H46.6689V215.552C46.604 216.106 45.836 216.217 45.759 216.604C45.836 216.992 46.604 217.104 46.6689 217.657Z" fill="#006766"/>
<path d="M49.4463 217.657V218.128C49.4463 218.635 49.0355 219.045 48.5298 219.045C48.0234 219.045 47.6133 218.635 47.6133 218.128V217.657C47.6782 217.104 48.4462 216.992 48.5238 216.604C48.4462 216.217 47.6788 216.106 47.6133 215.552V214.164H48.5298H49.4463V215.552C49.3813 216.106 48.6128 216.217 48.5364 216.604C48.6128 216.992 49.3813 217.104 49.4463 217.657Z" fill="#006766"/>
<path d="M52.2263 217.657V218.128C52.2263 218.635 51.8162 219.045 51.3104 219.045C50.8047 219.045 50.3945 218.635 50.3945 218.128V217.657C50.4589 217.104 51.2274 216.992 51.3044 216.604C51.2274 216.217 50.4595 216.106 50.3945 215.552V214.164H51.3104H52.2263V215.552C52.162 216.106 51.394 216.217 51.317 216.604C51.3946 216.992 52.162 217.104 52.2263 217.657Z" fill="#006766"/>
<path d="M34.4776 228.155C34.4776 225.17 32.0583 222.75 29.0725 222.75C26.0879 222.75 23.668 225.17 23.668 228.155C23.668 231.14 26.0879 233.56 29.0725 233.56C32.0583 233.561 34.4776 231.141 34.4776 228.155Z" fill="white"/>
<path d="M21.1266 227.21C21.1266 225.458 19.7068 224.039 17.9568 224.039C16.2056 224.039 14.7852 225.458 14.7852 227.21C14.7852 228.961 16.205 230.381 17.9568 230.381C19.7068 230.381 21.1266 228.961 21.1266 227.21Z" fill="white"/>
<path d="M43.3688 227.21C43.3688 225.458 41.9496 224.039 40.1978 224.039C38.4466 224.039 37.0273 225.458 37.0273 227.21C37.0273 228.961 38.4466 230.381 40.1978 230.381C41.949 230.381 43.3688 228.961 43.3688 227.21Z" fill="white"/>
<path d="M55.736 134.812H2.41406V137.686H55.736V134.812Z" fill="#006766"/>
<path d="M53.4471 137.023H4.69922V139.651H53.4471V137.023Z" fill="#006766"/>
<path d="M55.8759 205.641H2.27499C1.01812 205.641 0 206.659 0 207.916V209.459C0 210.715 1.01812 211.733 2.27499 211.733H55.8759C57.1316 211.733 58.1503 210.715 58.1503 209.459V207.916C58.1503 206.659 57.131 205.641 55.8759 205.641Z" fill="#006766"/>
<path d="M55.736 203.633H2.41406V206.507H55.736V203.633Z" fill="#006766"/>
<path d="M53.4471 201.68H4.69922V204.307H53.4471V201.68Z" fill="#006766"/>
<path d="M203.748 213.346C203.748 215.501 202.001 217.248 199.846 217.248C197.692 217.248 195.945 215.501 195.945 213.346C195.945 211.192 197.692 209.445 199.846 209.445C202.001 209.445 203.748 211.192 203.748 213.346Z" fill="#006766"/>
<path d="M202.115 207.815C202.115 209.067 201.099 210.083 199.847 210.083C198.594 210.083 197.578 209.067 197.578 207.815C197.578 206.562 198.594 205.547 199.847 205.547C201.099 205.547 202.115 206.562 202.115 207.815Z" fill="#006766"/>
<path d="M208.019 238.249C201.885 239.528 195.878 235.592 194.6 229.459C193.45 223.944 196.523 218.543 201.613 216.578C200.984 216.609 200.352 216.674 199.717 216.806C193.168 218.171 188.966 224.586 190.332 231.134C191.697 237.683 198.112 241.884 204.66 240.52C206.984 240.035 209.004 238.906 210.593 237.369C209.787 237.753 208.931 238.059 208.019 238.249Z" fill="#006766"/>
<path d="M204.004 221.336L205.456 225.804H210.154L206.352 228.564L207.805 233.032L204.004 230.271L200.204 233.032L201.656 228.564L197.855 225.804H202.553L204.004 221.336Z" fill="#006766"/>
<path d="M199.875 206.242V0" stroke="#006766" stroke-width="2" stroke-miterlimit="10"/>
<path d="M68.1616 285.362C68.1616 287.517 66.4152 289.263 64.2605 289.263C62.1064 289.263 60.3594 287.517 60.3594 285.362C60.3594 283.208 62.1064 281.461 64.2605 281.461C66.4152 281.461 68.1616 283.207 68.1616 285.362Z" fill="#006766"/>
<path d="M64.2606 282.099C65.5134 282.099 66.5289 281.084 66.5289 279.831C66.5289 278.578 65.5134 277.562 64.2606 277.562C63.0078 277.562 61.9922 278.578 61.9922 279.831C61.9922 281.084 63.0078 282.099 64.2606 282.099Z" fill="#006766"/>
<path d="M72.4322 310.265C66.3 311.543 60.2917 307.608 59.0132 301.475C57.8639 295.961 60.9376 290.558 66.0264 288.594C65.3973 288.624 64.7653 288.689 64.1302 288.821C57.5819 290.186 53.3801 296.601 54.7458 303.149C56.1097 309.698 62.5246 313.9 69.0729 312.535C71.3972 312.051 73.4172 310.922 75.0067 309.384C74.2008 309.769 73.3445 310.075 72.4322 310.265Z" fill="#006766"/>
<path d="M68.4186 293.352L69.8697 297.819H74.567L70.7669 300.58L72.2186 305.047L68.4186 302.287L64.6185 305.047L66.0702 300.58L62.2695 297.819H66.9662L68.4186 293.352Z" fill="#006766"/>
<path d="M64.2891 278.252V0" stroke="#006766" stroke-width="2" stroke-miterlimit="10"/>
</g>
</svg>
