<svg width="65" height="65" viewBox="0 0 65 65" fill="none" xmlns="http://www.w3.org/2000/svg">
<path opacity="0.3" d="M64.8782 32.2051L62.6304 29.9708C61.503 28.85 60.2122 27.8964 58.8142 27.1365C58.1283 23.7511 56.8098 20.5714 54.8965 17.684C55.3485 16.1571 55.5873 14.5685 55.5921 12.9774L55.6017 9.80776C55.602 9.69791 55.5585 9.59249 55.4808 9.51486C55.4035 9.43754 55.2985 9.39402 55.1893 9.39402H55.188L52.0186 9.40374C50.4271 9.4086 48.8384 9.64742 47.3116 10.0995C44.425 8.18599 41.2463 6.86927 37.8618 6.18334C37.102 4.78476 36.148 3.49318 35.0266 2.36479L32.7923 0.116768C32.6377 -0.0389228 32.3622 -0.0389228 32.2076 0.116768L29.9735 2.36479C28.8524 3.49275 27.8984 4.78413 27.1386 6.18271C23.7536 6.86874 20.5762 8.18715 17.69 10.1C16.1626 9.64763 14.5735 9.4086 12.9813 9.40374L9.81214 9.39402H9.81077C9.70145 9.39402 9.59657 9.43754 9.51926 9.51486C9.44163 9.59249 9.39823 9.69791 9.39844 9.80776L9.40815 12.9774C9.41291 14.5686 9.6516 16.1573 10.1037 17.6844C10.1009 17.6884 10.0973 17.6915 10.0946 17.6955C8.18543 20.5797 6.87239 23.7558 6.18747 27.1354C4.78889 27.8955 3.49761 28.8497 2.36973 29.9708L0.121671 32.2048C0.0438311 32.2824 0 32.3876 0 32.4975C0 32.6073 0.0437255 32.7125 0.121671 32.7902L2.36973 35.0241C3.49751 36.1454 4.78857 37.0993 6.18683 37.8591C6.86585 41.2095 8.16356 44.3614 10.0466 47.2269C10.0641 47.2536 10.0852 47.2765 10.1072 47.2977C9.65276 48.8286 9.41291 50.4217 9.40815 52.0176L9.39844 55.1872C9.39812 55.2971 9.44163 55.4026 9.51926 55.4801C9.59657 55.5574 9.70156 55.601 9.81077 55.601H9.81214L12.9813 55.5913C14.5724 55.5866 16.161 55.3478 17.6879 54.8957C20.5746 56.8091 23.7537 58.1272 27.139 58.8132C27.899 60.2116 28.8528 61.5026 29.9736 62.6304L32.2077 64.8783C32.285 64.9562 32.3902 65 32.5 65C32.6099 65 32.7151 64.9563 32.7924 64.8783L35.0267 62.6304C36.1476 61.5025 37.1015 60.2114 37.8612 58.8133C41.2292 58.1307 44.3952 56.8229 47.271 54.9246C47.2844 54.9158 47.2956 54.9049 47.3077 54.8947C48.8359 55.3477 50.426 55.5868 52.0187 55.5916L55.1881 55.6012H55.1894C55.2987 55.6012 55.4036 55.5576 55.4809 55.4803C55.5586 55.4027 55.602 55.2973 55.6018 55.1874L55.5922 52.0178C55.5874 50.4266 55.3486 48.838 54.8966 47.311C56.8074 44.4275 58.1253 41.2524 58.8118 37.872C58.8126 37.8678 58.8123 37.8638 58.8131 37.8595C60.2114 37.0996 61.5027 36.1456 62.6306 35.0242L64.8784 32.79C64.9563 32.7126 65 32.6074 65 32.4976C64.9998 32.3877 64.9561 32.2824 64.8782 32.2051ZM57.8586 26.6532C57.2595 26.3751 56.6441 26.1316 56.0156 25.926C55.4913 24.0461 54.7377 22.2294 53.7724 20.5192C54.072 19.9289 54.3353 19.3209 54.5627 18.7C56.1057 21.1605 57.2117 23.8296 57.8586 26.6532ZM46.2962 10.433C45.6755 10.6604 45.0676 10.9238 44.4776 11.2233C42.767 10.2579 40.95 9.50398 39.0708 8.97997C38.8653 8.3514 38.6218 7.73582 38.3438 7.13671C41.1674 7.78377 43.8359 8.88988 46.2962 10.433ZM26.6559 7.13682C26.378 7.73592 26.1344 8.3514 25.9288 8.97997C24.049 9.5043 22.2324 10.2579 20.5223 11.2233C19.9319 10.9237 19.324 10.6603 18.7032 10.4328C21.1633 8.88998 23.8318 7.78419 26.6559 7.13682ZM10.4372 18.7002C10.6645 19.3209 10.9278 19.9287 11.2273 20.5191C10.262 22.2293 9.50838 24.0461 8.9841 25.9259C8.35536 26.1316 7.73993 26.3751 7.14077 26.6533C7.78767 23.8298 8.89401 21.161 10.4372 18.7002ZM7.14066 38.3417C7.73983 38.6198 8.35536 38.8634 8.984 39.0691C9.50807 40.9484 10.2619 42.7655 11.2272 44.4762C10.9277 45.0665 10.6644 45.6744 10.437 46.2951C8.8938 43.8338 7.78757 41.1644 7.14066 38.3417ZM18.7035 54.562C19.3242 54.3346 19.9322 54.0713 20.5223 53.7716C22.2324 54.737 24.0491 55.4907 25.9288 56.015C26.1343 56.6436 26.378 57.2591 26.6558 57.8582C23.8322 57.2111 21.1635 56.1051 18.7035 54.562ZM38.3438 57.8585C38.6218 57.2593 38.8654 56.6438 39.0708 56.0151C40.95 55.491 42.767 54.7372 44.4776 53.7717C45.0677 54.0714 45.6756 54.3348 46.2962 54.5622C43.8359 56.105 41.1668 57.2114 38.3438 57.8585ZM54.5627 46.2951C54.3353 45.6742 54.072 45.0663 53.7724 44.4759C54.7377 42.7654 55.4916 40.9487 56.0156 39.0691C56.6442 38.8635 57.2596 38.6199 57.8587 38.3419C57.2116 41.1657 56.1056 43.8346 54.5627 46.2951ZM62.0488 34.4394C60.2408 36.2366 57.9948 37.5891 55.5544 38.3508C55.4194 38.3926 55.3154 38.5009 55.2789 38.6373C54.7519 40.5975 53.9672 42.4891 52.946 44.26C52.8754 44.3824 52.8724 44.5325 52.9382 44.6576C54.1269 46.9232 54.7595 49.4692 54.7672 52.0203L54.7755 54.7749L52.0211 54.7665C49.47 54.7587 46.9245 54.1262 44.6592 52.9374C44.5338 52.8716 44.3841 52.8751 44.2617 52.9452C42.4904 53.9665 40.5989 54.7513 38.6391 55.2783C38.5028 55.3148 38.3945 55.4186 38.3527 55.5537C37.5911 57.9944 36.2389 60.2405 34.4418 62.0487L32.4998 64.0026L30.5581 62.0488C28.7613 60.2412 27.4088 57.995 26.647 55.5535C26.605 55.4187 26.4969 55.3148 26.3605 55.2784C24.4005 54.7513 22.509 53.9663 20.7382 52.9453C20.6746 52.9088 20.6035 52.8903 20.5323 52.8903C20.4665 52.8903 20.4007 52.9058 20.3406 52.9375C18.0751 54.1263 15.5293 54.7589 12.9784 54.7666L10.2244 54.775L10.2327 52.0204C10.2405 49.4693 10.8727 46.9233 12.0615 44.6579C12.1273 44.5327 12.1243 44.3827 12.0536 44.2603C11.0324 42.4889 10.2477 40.5972 9.72078 38.6374C9.68424 38.501 9.58042 38.3927 9.44533 38.3509C7.00484 37.5892 4.7591 36.2366 2.95105 34.4395L0.997236 32.4976L2.95105 30.5557C4.75858 28.7588 7.00452 27.4062 9.44554 26.6443C9.58031 26.6025 9.68424 26.4942 9.72067 26.3578C10.2477 24.3976 11.0326 22.506 12.0535 20.7351C12.1242 20.6127 12.1271 20.4626 12.0614 20.3375C10.8726 18.0719 10.2404 15.5259 10.2326 12.9748L10.2243 10.2202L12.9783 10.2286C15.5297 10.2366 18.0755 10.8692 20.3405 12.0577C20.4658 12.1237 20.6156 12.1202 20.738 12.0499C22.5088 11.0288 24.4003 10.2438 26.3603 9.71681C26.4967 9.68027 26.6049 9.57644 26.6468 9.44166C27.4087 7.00035 28.7611 4.75434 30.5579 2.94636L32.4996 0.992611L34.4414 2.94636C36.2387 4.75487 37.5909 7.00088 38.3526 9.44134C38.3944 9.57644 38.5027 9.68027 38.639 9.71681C40.5988 10.2439 42.4904 11.0286 44.2616 12.0499C44.384 12.1202 44.5337 12.1232 44.6591 12.0577C46.9239 10.8691 49.4696 10.2366 52.021 10.2286L54.7754 10.2202L54.7671 12.9748C54.7593 15.5259 54.1268 18.0719 52.9381 20.3375C52.8723 20.4626 52.8753 20.6127 52.9459 20.7351C53.9668 22.506 54.7519 24.3976 55.2788 26.3578C55.3153 26.4942 55.4192 26.6025 55.5539 26.6443C57.9953 27.4063 60.2412 28.7588 62.0487 30.5557L64.0023 32.4976L62.0488 34.4394Z" fill="#006766"/>
</svg>
