<svg width="50" height="54" viewBox="0 0 50 54" fill="none" xmlns="http://www.w3.org/2000/svg">
<path d="M36.2815 43.7269C21.6203 43.7269 9.7352 31.8417 9.7352 17.1807C9.7352 12.2766 11.0665 7.68419 13.3853 3.74219C5.54229 8.35542 0.277344 16.8814 0.277344 26.6385C0.277344 41.2996 12.1626 53.1848 26.8236 53.1848C36.5807 53.1848 45.1067 47.9199 49.72 40.077C45.778 42.3956 41.1856 43.7269 36.2815 43.7269Z" fill="#FF9B24"/>
<path d="M24.203 11.8682L27.7926 9.64784L31.3822 11.8682L30.3798 7.76809L33.6008 5.04017L29.3915 4.72653L27.7926 0.820312L26.1936 4.72653L21.9844 5.04017L25.2054 7.76809L24.203 11.8682Z" fill="#FF9B24"/>
<path d="M33.1507 25.0103L32.1483 29.1104L35.7379 26.89L39.3275 29.1104L38.3251 25.0103L41.5461 22.2825L37.337 21.9688L35.7379 18.0625L34.139 21.9688L29.9297 22.2825L33.1507 25.0103Z" fill="#FF9B24"/>
<path d="M39.8866 16.0791L43.4762 13.8588L47.0658 16.0791L46.0634 11.979L49.2843 9.2511L45.0751 8.93747L43.4762 5.03125L41.8771 8.93747L37.668 9.2511L40.8889 11.979L39.8866 16.0791Z" fill="#FF9B24"/>
</svg>
