<svg width="143" height="109" viewBox="0 0 143 109" fill="none" xmlns="http://www.w3.org/2000/svg">
<path d="M0.983725 106.82C0.90213 107.644 1.5046 108.379 2.32939 108.462C3.15417 108.545 3.88894 107.944 3.97053 107.12L0.983725 106.82ZM21.0144 86.874L20.9114 85.378L21.0144 86.874ZM45.425 94.1568L46.3323 92.9641L45.425 94.1568ZM47.8427 104.735L48.6206 106.018L47.8427 104.735ZM28.508 91.4943L29.9585 91.1123L28.508 91.4943ZM39.9001 56.9909L38.8877 55.8826L39.9001 56.9909ZM89.096 43.8814L88.4265 45.2221L89.096 43.8814ZM99.2966 79.6935L100.324 80.7882L99.2966 79.6935ZM75.4609 71.4908L74.1424 72.2046L75.4609 71.4908ZM91.2247 22.5724L91.9055 23.9097L91.2247 22.5724ZM141.734 12.3178C142.284 11.6991 142.226 10.7514 141.606 10.2011L131.499 1.23346C130.879 0.683162 129.93 0.738632 129.381 1.35737C128.831 1.97609 128.888 2.92378 129.508 3.47408L138.492 11.4453L130.529 20.4078C129.979 21.0265 130.036 21.9742 130.656 22.5245C131.276 23.0748 132.225 23.0193 132.775 22.4006L141.734 12.3178ZM3.97053 107.12C4.87291 98.009 11.2363 89.0321 21.1173 88.3699L20.9114 85.378C9.07867 86.171 1.97584 96.8028 0.983725 106.82L3.97053 107.12ZM21.1173 88.3699C29.0583 87.8378 38.6236 90.8697 44.5176 95.3495L46.3323 92.9641C39.8711 88.0532 29.5906 84.7964 20.9114 85.378L21.1173 88.3699ZM44.5176 95.3495C45.9473 96.4361 47.5318 98.1577 48.2113 99.8087C48.5433 100.615 48.6104 101.284 48.4747 101.815C48.3485 102.31 47.9964 102.888 47.0647 103.451L48.6206 106.018C50.0925 105.129 51.0275 103.954 51.3831 102.561C51.7292 101.205 51.4727 99.8527 50.9869 98.6723C50.0309 96.3495 48.003 94.2339 46.3323 92.9641L44.5176 95.3495ZM47.0647 103.451C44.5441 104.974 40.9893 104.251 37.4432 101.651C33.9603 99.0972 31.0075 95.0643 29.9585 91.1123L27.0575 91.8764C28.3064 96.5817 31.7137 101.166 35.67 104.067C39.5633 106.922 44.5268 108.491 48.6206 106.018L47.0647 103.451ZM29.9585 91.1123C26.7151 78.8927 31.3867 66.7824 40.9126 58.0993L38.8877 55.8826C28.7078 65.1619 23.4725 78.3697 27.0575 91.8764L29.9585 91.1123ZM40.9126 58.0993C46.8937 52.6473 54.9838 47.4766 63.5099 44.6609C72.041 41.8436 80.8429 41.4324 88.4265 45.2221L89.7656 42.5407C81.2294 38.2749 71.5448 38.8477 62.5636 41.8137C53.5773 44.7813 45.1294 50.193 38.8877 55.8826L40.9126 58.0993ZM88.4265 45.2221C92.0216 47.0186 94.6178 49.0948 96.5577 51.6047C98.502 54.1204 99.8472 57.1497 100.83 60.9381L103.735 60.1902C102.683 56.134 101.193 52.7001 98.9321 49.7746C96.6666 46.8433 93.6871 44.5003 89.7656 42.5407L88.4265 45.2221ZM100.83 60.9381C102.449 67.1779 103.004 74.165 98.2693 78.5988L100.324 80.7882C106.421 75.0789 105.357 66.4402 103.735 60.1902L100.83 60.9381ZM98.2693 78.5988C96.247 80.4926 94.2146 81.3821 92.2685 81.611C90.3089 81.8416 88.3178 81.4158 86.3765 80.4832C82.4549 78.5992 78.9291 74.7319 76.7794 70.777L74.1424 72.2046C76.5036 76.5486 80.4391 80.9559 85.0794 83.1852C87.4191 84.3092 89.984 84.8997 92.6244 84.5891C95.2782 84.2769 97.8897 83.0677 100.324 80.7882L98.2693 78.5988ZM76.7794 70.777C68.0579 54.7314 75.3427 32.3051 91.9055 23.9097L90.5439 21.2351C72.5346 30.3638 64.5828 54.6172 74.1424 72.2046L76.7794 70.777ZM91.9055 23.9097C106.791 16.3643 123.98 13.7962 140.701 12.8182L140.521 9.82468C123.665 10.8105 105.983 13.4093 90.5439 21.2351L91.9055 23.9097Z" fill="#006766"/>
</svg>
