<svg width="24" height="24" viewBox="0 0 24 24" fill="none" xmlns="http://www.w3.org/2000/svg">
<g opacity="0.7">
<path d="M8.56818 10.0859H4.10547C4.00601 10.0859 3.91063 10.1254 3.8403 10.1958C3.76998 10.2661 3.73047 10.3615 3.73047 10.4609C3.73047 10.5604 3.76998 10.6558 3.8403 10.7261C3.91063 10.7964 4.00601 10.8359 4.10547 10.8359H8.56818C8.66631 10.8339 8.75974 10.7935 8.82842 10.7234C8.89711 10.6533 8.93558 10.5591 8.93558 10.4609C8.93558 10.3628 8.89711 10.2686 8.82842 10.1984C8.75974 10.1283 8.66631 10.0879 8.56818 10.0859Z" fill="#00001B"/>
<path d="M8.56818 12.3125H4.10547C4.00601 12.3125 3.91063 12.352 3.8403 12.4223C3.76998 12.4927 3.73047 12.588 3.73047 12.6875C3.73047 12.787 3.76998 12.8823 3.8403 12.9527C3.91063 13.023 4.00601 13.0625 4.10547 13.0625H8.56818C8.66631 13.0605 8.75974 13.0201 8.82842 12.95C8.89711 12.8799 8.93558 12.7856 8.93558 12.6875C8.93558 12.5894 8.89711 12.4951 8.82842 12.425C8.75974 12.3549 8.66631 12.3145 8.56818 12.3125Z" fill="#00001B"/>
<path d="M8.56818 14.5469H4.10547C4.00601 14.5469 3.91063 14.5864 3.8403 14.6567C3.76998 14.727 3.73047 14.8224 3.73047 14.9219C3.73047 15.0213 3.76998 15.1167 3.8403 15.187C3.91063 15.2574 4.00601 15.2969 4.10547 15.2969H8.56818C8.66631 15.2949 8.75974 15.2545 8.82842 15.1844C8.89711 15.1143 8.93558 15.02 8.93558 14.9219C8.93558 14.8237 8.89711 14.7295 8.82842 14.6594C8.75974 14.5893 8.66631 14.5489 8.56818 14.5469Z" fill="#00001B"/>
<path d="M8.56818 16.7734H4.10547C4.00601 16.7734 3.91063 16.8129 3.8403 16.8833C3.76998 16.9536 3.73047 17.049 3.73047 17.1484C3.73047 17.2479 3.76998 17.3433 3.8403 17.4136C3.91063 17.4839 4.00601 17.5234 4.10547 17.5234H8.56818C8.66631 17.5214 8.75974 17.481 8.82842 17.4109C8.89711 17.3408 8.93558 17.2466 8.93558 17.1484C8.93558 17.0503 8.89711 16.9561 8.82842 16.8859C8.75974 16.8158 8.66631 16.7754 8.56818 16.7734Z" fill="#00001B"/>
<path d="M13.0315 10.8359H14.4996C14.5991 10.8359 14.6945 10.7964 14.7648 10.7261C14.8351 10.6558 14.8746 10.5604 14.8746 10.4609C14.8746 10.3615 14.8351 10.2661 14.7648 10.1958C14.6945 10.1254 14.5991 10.0859 14.4996 10.0859H13.0315C12.9333 10.0879 12.8399 10.1283 12.7712 10.1984C12.7025 10.2686 12.6641 10.3628 12.6641 10.4609C12.6641 10.5591 12.7025 10.6533 12.7712 10.7234C12.8399 10.7935 12.9333 10.8339 13.0315 10.8359Z" fill="#00001B"/>
<path d="M13.0316 13.0703H13.7833C13.8815 13.0683 13.9749 13.028 14.0436 12.9579C14.1124 12.8877 14.1509 12.7935 14.1509 12.6953C14.1509 12.5971 14.1124 12.5029 14.0436 12.4328C13.9749 12.3626 13.8814 12.3223 13.7833 12.3203H13.0316C12.9335 12.3223 12.84 12.3626 12.7713 12.4328C12.7026 12.5029 12.6641 12.5971 12.6641 12.6953C12.6641 12.7935 12.7026 12.8878 12.7713 12.9579C12.84 13.028 12.9335 13.0683 13.0316 13.0703Z" fill="#00001B"/>
<path d="M13.0316 15.2969H13.6681C13.7676 15.2969 13.863 15.2574 13.9333 15.187C14.0036 15.1167 14.0431 15.0213 14.0431 14.9219C14.0431 14.8224 14.0036 14.727 13.9333 14.6567C13.863 14.5864 13.7676 14.5469 13.6681 14.5469H13.0316C12.9335 14.5488 12.84 14.5892 12.7713 14.6593C12.7026 14.7294 12.6641 14.8237 12.6641 14.9219C12.6641 15.0201 12.7026 15.1143 12.7713 15.1844C12.84 15.2545 12.9335 15.2949 13.0316 15.2969Z" fill="#00001B"/>
<path d="M17.494 16.7734H13.0313C12.9318 16.7734 12.8364 16.8129 12.7661 16.8833C12.6958 16.9536 12.6562 17.049 12.6562 17.1484C12.6562 17.2479 12.6958 17.3433 12.7661 17.4136C12.8364 17.4839 12.9318 17.5234 13.0313 17.5234H17.494C17.5921 17.5214 17.6855 17.481 17.7542 17.4109C17.8229 17.3408 17.8614 17.2466 17.8614 17.1484C17.8614 17.0503 17.8229 16.9561 17.7542 16.8859C17.6855 16.8158 17.5921 16.7754 17.494 16.7734Z" fill="#00001B"/>
<path d="M21.6809 2.88904C21.5012 2.75887 21.2957 2.66872 21.0782 2.62466C20.8608 2.58061 20.6364 2.58367 20.4202 2.63365C20.204 2.68363 20.0011 2.77935 19.825 2.91438C19.649 3.04941 19.5039 3.22061 19.3995 3.41644L17.8133 6.52876C15.4646 5.9413 12.9849 6.18608 10.7964 7.22144C9.37415 6.54593 7.81712 6.20212 6.24268 6.21591C4.66823 6.2297 3.11746 6.60073 1.70728 7.30105C1.64498 7.33219 1.59259 7.38007 1.55598 7.43932C1.51937 7.49857 1.49998 7.56685 1.5 7.6365V21.0246C1.50079 21.0883 1.51763 21.1507 1.54896 21.206C1.58029 21.2614 1.6251 21.308 1.67922 21.3415C1.73335 21.3749 1.79505 21.3942 1.85859 21.3974C1.92214 21.4007 1.98548 21.3878 2.04274 21.3601C3.37731 20.6967 4.84739 20.3515 6.33772 20.3515C7.82806 20.3515 9.29814 20.6967 10.6327 21.3601C10.6846 21.3864 10.7419 21.4004 10.8001 21.4008C10.8583 21.4013 10.9158 21.3883 10.9682 21.3628C12.303 20.6993 13.7733 20.354 15.264 20.354C16.7546 20.354 18.225 20.6993 19.5598 21.3628C19.617 21.3906 19.6804 21.4034 19.7439 21.4002C19.8075 21.3969 19.8692 21.3777 19.9233 21.3442C19.9775 21.3108 20.0223 21.2642 20.0536 21.2088C20.0849 21.1534 20.1017 21.091 20.1025 21.0274V9.29583L22.3374 4.91458C22.5177 4.55871 22.5498 4.14594 22.4268 3.76643C22.3038 3.38692 22.0357 3.0715 21.6809 2.88904ZM20.0684 3.7557C20.1599 3.57819 20.3179 3.444 20.5078 3.38234C20.6978 3.32069 20.9044 3.33655 21.0827 3.42648L21.3416 3.55794C21.5194 3.65024 21.6535 3.80912 21.7146 3.99992C21.7758 4.19071 21.759 4.39793 21.6679 4.57639L21.3112 5.27569L19.7097 4.45948L20.0684 3.7557ZM19.392 9.03801C19.378 9.07741 17.3142 13.1075 17.297 13.1456L16.8324 12.9101L20.5035 5.70596L20.9703 5.94388L19.392 9.03801ZM16.0045 14.3562L15.442 14.8118C15.4628 14.3994 15.5119 13.5105 15.5349 13.0926L16.1587 13.4097L16.7782 13.7235L16.0045 14.3562ZM19.3691 5.12779L19.8352 5.36535L16.1635 12.5707L15.6964 12.3332L19.3691 5.12779ZM2.25 20.4374V7.87144C3.52973 7.27337 4.92512 6.96341 6.33771 6.96341C7.7503 6.96341 9.14568 7.27337 10.4254 7.87144V20.4374C9.13313 19.8861 7.74268 19.6019 6.33771 19.6019C4.93274 19.6019 3.54228 19.8861 2.25 20.4374ZM11.1754 20.4402V7.86849C13.1395 6.9575 15.3518 6.72966 17.4603 7.22124L14.8577 12.3277C14.8378 12.3755 14.8243 12.4257 14.8176 12.477C14.7751 13.2592 14.6877 14.8328 14.6451 15.6149C14.642 15.6871 14.6597 15.7586 14.696 15.821C14.7324 15.8834 14.7858 15.9341 14.8501 15.967C14.9144 16 14.9867 16.0138 15.0586 16.0068C15.1305 15.9999 15.1989 15.9725 15.2556 15.9278L16.4795 14.9367L17.6946 13.943C17.701 13.9336 17.7096 13.926 17.7195 13.9206C17.7487 13.8901 17.774 13.8562 17.795 13.8195L19.3525 10.7688V20.4402C18.06 19.8887 16.6692 19.6044 15.264 19.6044C13.8587 19.6044 12.468 19.8887 11.1754 20.4402Z" fill="#00001B"/>
</g>
</svg>
