<svg width="10" height="10" viewBox="0 0 10 10" fill="none" xmlns="http://www.w3.org/2000/svg">
<g clip-path="url(#clip0_34_951)">
<path d="M9.48178 1.04166C9.48178 0.9375 9.37762 0.83332 9.27344 0.83332H7.29428V0.20834C7.29428 0.0833398 7.21094 0 7.08594 0C6.96094 0 6.8776 0.0833398 6.8776 0.20834V2.5C6.8776 2.625 6.96094 2.70834 7.08594 2.70834C7.21094 2.70834 7.29428 2.625 7.29428 2.5V1.91666C7.54428 2 7.71096 2.22916 7.71096 2.5C7.71096 2.85418 7.44012 3.12502 7.08594 3.12502C6.73178 3.12502 6.46092 2.85418 6.46092 2.5C6.46092 2.35416 6.52342 2.20834 6.60676 2.08332C6.6901 1.99998 6.66926 1.87498 6.58594 1.79166C6.5026 1.70832 6.3776 1.72916 6.29428 1.81248C6.12762 2 6.04428 2.24998 6.04428 2.49998C6.04428 3.08332 6.5026 3.54164 7.08594 3.54164C7.66928 3.54164 8.1276 3.08332 8.1276 2.49998C8.1276 1.99998 7.77344 1.5833 7.29428 1.47914V1.25H9.0651L9.16926 3.75H0.835938L0.940098 1.25H2.29428C2.41928 1.25 2.50262 1.16666 2.50262 1.04166C2.50262 0.91666 2.4193 0.83332 2.29428 0.83332H0.731777C0.627617 0.83332 0.523438 0.91666 0.523438 1.04166L0.210938 8.85416C0.210938 9.47918 0.731777 10 1.35678 10H8.64844C8.96094 10 9.23178 9.875 9.46094 9.66666C9.66928 9.45832 9.79428 9.16666 9.79428 8.85416L9.48178 1.04166ZM9.16928 9.37502C9.02344 9.52086 8.85678 9.58336 8.64844 9.58336H1.35678C0.960957 9.58336 0.627617 9.25 0.627617 8.85418L0.815137 4.16668H9.19012L9.37762 8.85418C9.37762 9.04168 9.29426 9.22918 9.16928 9.37502Z" fill="white"/>
<path d="M2.91666 2.70834C3.04166 2.70834 3.125 2.62502 3.125 2.5V1.91666C3.37498 2 3.54168 2.22916 3.54168 2.5C3.54168 2.85418 3.27084 3.12502 2.91666 3.12502C2.56248 3.12502 2.29164 2.85416 2.29164 2.5C2.29164 2.35416 2.35414 2.20834 2.43748 2.08332C2.52082 1.99998 2.49998 1.87498 2.41666 1.79166C2.33332 1.70832 2.20832 1.72916 2.125 1.81248C1.95834 2 1.875 2.24998 1.875 2.49998C1.875 3.08332 2.33332 3.54164 2.91666 3.54164C3.5 3.54164 3.95832 3.08332 3.95832 2.49998C3.95832 1.99998 3.60416 1.5833 3.125 1.47914V1.25H6.45834C6.58334 1.25 6.66668 1.16666 6.66668 1.04166C6.66668 0.91666 6.58334 0.83332 6.45834 0.83332H3.125V0.20834C3.125 0.0833398 3.04166 0 2.91666 0C2.79166 0 2.70832 0.0833398 2.70832 0.20834V2.5C2.70832 2.625 2.79164 2.70834 2.91666 2.70834Z" fill="white"/>
<path d="M6.04168 5.20312H3.95834C3.83334 5.20312 3.75 5.28647 3.75 5.41147C3.75 5.53647 3.83332 5.6198 3.95834 5.6198H5.66666L3.99998 8.22398C3.93748 8.32815 3.9583 8.45314 4.06248 8.51564C4.10416 8.53647 4.1458 8.55732 4.16664 8.55732C4.22914 8.55732 4.31248 8.51564 4.3333 8.45316L6.2083 5.5365C6.24998 5.474 6.24998 5.39066 6.2083 5.32816C6.18752 5.2448 6.12502 5.20312 6.04168 5.20312Z" fill="white"/>
</g>
<defs>
<clipPath id="clip0_34_951">
<rect width="10" height="10" fill="white"/>
</clipPath>
</defs>
</svg>
