<svg width="16" height="16" viewBox="0 0 16 16" fill="none" xmlns="http://www.w3.org/2000/svg">
<g clip-path="url(#clip0_34_2479)">
<path d="M12.2192 7.85794H13.3353C13.5876 7.85794 13.7929 7.65266 13.7929 7.40034V6.28428C13.7929 6.03197 13.5876 5.82669 13.3353 5.82669H12.2192C11.9669 5.82669 11.7616 6.03197 11.7616 6.28428V7.40034C11.7616 7.65266 11.9669 7.85794 12.2192 7.85794ZM12.2304 6.29544H13.3241V7.38919H12.2304V6.29544ZM12.2192 10.8267H13.3353C13.5876 10.8267 13.7929 10.6214 13.7929 10.3691V9.25303C13.7929 9.00072 13.5876 8.79544 13.3353 8.79544H12.2192C11.9669 8.79544 11.7616 9.00072 11.7616 9.25303V10.3691C11.7616 10.6214 11.9669 10.8267 12.2192 10.8267ZM12.2304 9.26419H13.3241V10.3579H12.2304V9.26419ZM9.03434 7.85794H10.1504C10.4027 7.85794 10.608 7.65266 10.608 7.40034V6.28428C10.608 6.03197 10.4027 5.82669 10.1504 5.82669H9.03434C8.78203 5.82669 8.57675 6.03197 8.57675 6.28428V7.40034C8.57675 7.65266 8.78203 7.85794 9.03434 7.85794ZM9.0455 6.29544H10.1392V7.38919H9.0455V6.29544ZM3.78066 11.625H2.66459C2.41228 11.625 2.207 11.8303 2.207 12.0826V13.1987C2.207 13.451 2.41228 13.6562 2.66459 13.6562H3.78066C4.03297 13.6562 4.23825 13.451 4.23825 13.1987V12.0826C4.23825 11.8303 4.03297 11.625 3.78066 11.625ZM3.7695 13.1875H2.67575V12.0938H3.7695V13.1875ZM3.78066 5.82669H2.66459C2.41228 5.82669 2.207 6.03197 2.207 6.28428V7.40034C2.207 7.65266 2.41228 7.85794 2.66459 7.85794H3.78066C4.03297 7.85794 4.23825 7.65266 4.23825 7.40034V6.28428C4.23825 6.03194 4.03297 5.82669 3.78066 5.82669ZM3.7695 7.38919H2.67575V6.29544H3.7695V7.38919ZM9.03434 10.7571H10.1504C10.4027 10.7571 10.608 10.5518 10.608 10.2995V9.18344C10.608 8.93112 10.4027 8.72584 10.1504 8.72584H9.03434C8.78203 8.72584 8.57675 8.93112 8.57675 9.18344V10.2995C8.57675 10.5518 8.78203 10.7571 9.03434 10.7571ZM9.0455 9.19459H10.1392V10.2883H9.0455V9.19459ZM14.0257 1.07106H13.0236V0.712719C13.0236 0.319719 12.7039 0 12.3109 0H12.2032C11.8103 0 11.4906 0.319719 11.4906 0.712719V1.07106H4.50931V0.712719C4.50931 0.319719 4.18959 0 3.79659 0H3.68897C3.29597 0 2.97625 0.319719 2.97625 0.712719V1.07106H1.97422C1.32719 1.07106 0.800781 1.59747 0.800781 2.2445V14.8281C0.800781 15.4743 1.32647 16 1.97266 16H14.0273C14.6735 16 15.1992 15.4743 15.1992 14.8281V2.2445C15.1991 1.59747 14.6727 1.07106 14.0257 1.07106ZM11.9593 0.712719C11.9593 0.578187 12.0687 0.46875 12.2033 0.46875H12.3109C12.4454 0.46875 12.5549 0.578187 12.5549 0.712719V1.07106H11.9593V0.712719ZM3.44503 0.712719C3.44503 0.578187 3.55447 0.46875 3.689 0.46875H3.79662C3.93116 0.46875 4.04059 0.578187 4.04059 0.712719V1.07106H3.44506V0.712719H3.44503ZM14.7304 14.8281C14.7304 15.2158 14.415 15.5312 14.0272 15.5312H1.97262C1.58491 15.5312 1.2695 15.2158 1.2695 14.8281V14.8267C1.46587 14.9746 1.70997 15.0625 1.97422 15.0625H11.4768C11.7902 15.0625 12.0849 14.9404 12.3066 14.7188L14.7304 12.295V14.8281ZM12.0674 14.295C12.0858 14.2192 12.0958 14.1401 12.0958 14.0587V12.4942C12.0958 12.1992 12.3358 11.9592 12.6308 11.9592H14.1953C14.2767 11.9592 14.3558 11.9492 14.4317 11.9308L12.0674 14.295ZM14.7304 4.42044H4.74369C4.61425 4.42044 4.50931 4.52537 4.50931 4.65481C4.50931 4.78425 4.61425 4.88919 4.74369 4.88919H14.7304V10.9554C14.7304 11.2504 14.4903 11.4904 14.1953 11.4904H12.6308C12.0773 11.4904 11.627 11.9408 11.627 12.4942V14.0587C11.627 14.3538 11.387 14.5938 11.092 14.5938H1.97422C1.58566 14.5938 1.26953 14.2777 1.26953 13.8891V4.88919H3.80619C3.93562 4.88919 4.04056 4.78425 4.04056 4.65481C4.04056 4.52537 3.93562 4.42044 3.80619 4.42044H1.2695V2.2445C1.2695 1.85594 1.58562 1.53981 1.97419 1.53981H2.97625V2.22894C2.97625 2.62194 3.29597 2.94166 3.68897 2.94166C3.81841 2.94166 3.92334 2.83672 3.92334 2.70728C3.92334 2.57784 3.81841 2.47291 3.68897 2.47291C3.55444 2.47291 3.445 2.36347 3.445 2.22894V1.53981H11.4906V2.22894C11.4906 2.62194 11.8103 2.94166 12.2033 2.94166C12.3327 2.94166 12.4377 2.83672 12.4377 2.70728C12.4377 2.57784 12.3327 2.47291 12.2033 2.47291C12.0687 2.47291 11.9593 2.36347 11.9593 2.22894V1.53981H14.0257C14.4142 1.53981 14.7304 1.85594 14.7304 2.2445V4.42044ZM3.78066 8.72584H2.66459C2.41228 8.72584 2.207 8.93112 2.207 9.18344V10.2995C2.207 10.5518 2.41228 10.7571 2.66459 10.7571H3.78066C4.03297 10.7571 4.23825 10.5518 4.23825 10.2995V9.18344C4.23825 8.93109 4.03297 8.72584 3.78066 8.72584ZM3.7695 10.2883H2.67575V9.19459H3.7695V10.2883ZM5.84947 7.85794H6.96553C7.21784 7.85794 7.42312 7.65266 7.42312 7.40034V6.28428C7.42312 6.03197 7.21784 5.82669 6.96553 5.82669H5.84947C5.59716 5.82669 5.39187 6.03197 5.39187 6.28428V7.40034C5.39187 7.65266 5.59716 7.85794 5.84947 7.85794ZM5.86062 6.29544H6.95437V7.38919H5.86062V6.29544ZM9.04522 13.1875C9.03941 13.0632 8.93681 12.9643 8.81109 12.9643C8.68166 12.9643 8.57672 13.0692 8.57672 13.1987C8.57672 13.451 8.782 13.6562 9.03431 13.6562H10.1504C10.4027 13.6562 10.608 13.451 10.608 13.1987V12.0826C10.608 11.8303 10.4027 11.625 10.1504 11.625H9.03431C8.782 11.625 8.57672 11.8303 8.57672 12.0826V12.4045C8.57672 12.5339 8.68166 12.6388 8.81109 12.6388C8.94053 12.6388 9.04547 12.5339 9.04547 12.4045V12.0938H10.1392V13.1875H9.04522ZM5.84947 10.7571H6.96553C7.21784 10.7571 7.42312 10.5518 7.42312 10.2995V9.18344C7.42312 8.93112 7.21784 8.72584 6.96553 8.72584H5.84947C5.59716 8.72584 5.39187 8.93112 5.39187 9.18344V10.2995C5.39187 10.5518 5.59716 10.7571 5.84947 10.7571ZM5.86062 9.19459H6.95437V10.2883H5.86062V9.19459ZM5.84947 13.6562H6.96553C7.21784 13.6562 7.42312 13.451 7.42312 13.1987V12.0826C7.42312 11.8303 7.21784 11.625 6.96553 11.625H5.84947C5.59716 11.625 5.39187 11.8303 5.39187 12.0826V13.1987C5.39187 13.451 5.59716 13.6562 5.84947 13.6562ZM5.86062 12.0938H6.95437V13.1875H5.86062V12.0938Z" fill="#00001B"/>
</g>
<defs>
<clipPath id="clip0_34_2479">
<rect width="16" height="16" fill="white"/>
</clipPath>
</defs>
</svg>
