<svg width="20" height="20" viewBox="0 0 20 20" fill="none" xmlns="http://www.w3.org/2000/svg">
<g clip-path="url(#clip0_34_1428)">
<path d="M3.14932 9.95192C2.3593 8.57438 1.97784 7.44953 1.74783 6.3093C1.40765 4.62294 2.18614 2.97563 3.47579 1.92452C4.02084 1.48028 4.64566 1.63206 4.96797 2.21029L5.69562 3.51572C6.27238 4.55043 6.56075 5.06779 6.50356 5.61629C6.44636 6.16478 6.05744 6.61151 5.27961 7.50496L3.14932 9.95192ZM3.14932 9.95192C4.74839 12.7402 7.25783 15.251 10.0493 16.8519M10.0493 16.8519C11.4269 17.642 12.5517 18.0234 13.692 18.2534C15.3783 18.5936 17.0256 17.8151 18.0767 16.5255C18.521 15.9804 18.3692 15.3556 17.791 15.0333L16.4855 14.3056C15.4508 13.7289 14.9335 13.4405 14.385 13.4977C13.8365 13.5549 13.3898 13.9438 12.4963 14.7217L10.0493 16.8519Z" stroke="white" stroke-width="1.5" stroke-linejoin="round"/>
<path d="M11.668 5.69317C12.854 6.19682 13.8045 7.14727 14.3081 8.33329M12.213 1.66663C15.1607 2.51726 17.4839 4.84039 18.3346 7.78798" stroke="white" stroke-width="1.5" stroke-linecap="round"/>
</g>
<defs>
<clipPath id="clip0_34_1428">
<rect width="20" height="20" fill="white" transform="translate(0.00195312)"/>
</clipPath>
</defs>
</svg>
