<svg width="24" height="18" viewBox="0 0 24 18" fill="none" xmlns="http://www.w3.org/2000/svg">
<path fill-rule="evenodd" clip-rule="evenodd" d="M12.1342 5.15256C12.7055 4.93801 13.3243 4.82043 13.9703 4.82043C16.8561 4.82043 19.1988 7.16315 19.1988 10.0489C19.1988 11.1999 18.8259 12.2646 18.1947 13.1286C18.0714 13.2974 18.1084 13.5345 18.2772 13.6581C18.4459 13.7814 18.6834 13.7444 18.8067 13.5756C19.5295 12.5863 19.9567 11.3669 19.9567 10.0489C19.9567 6.74511 17.2741 4.0625 13.9703 4.0625C13.2306 4.0625 12.5219 4.19724 11.8674 4.44278C11.6717 4.51652 11.5727 4.73515 11.6461 4.93084C11.7196 5.1266 11.9382 5.22599 12.1342 5.15256ZM9.0882 8.17538C9.45302 7.22616 10.0873 6.40997 10.8964 5.82018C10.9523 5.77976 11.0089 5.74001 11.0661 5.70161C11.2399 5.58542 11.2864 5.34963 11.1702 5.17582C11.0536 5.00233 10.8182 4.95553 10.6444 5.07208C10.5787 5.11586 10.514 5.16136 10.45 5.2078C9.52371 5.88252 8.79847 6.81692 8.38083 7.90321C8.30573 8.09858 8.40306 8.31789 8.59843 8.39298C8.7938 8.46808 9.01306 8.37043 9.0882 8.17538Z" fill="#21225F"/>
<path fill-rule="evenodd" clip-rule="evenodd" d="M13.5898 0.394553V2.11613C13.5898 2.32533 13.7596 2.49506 13.9688 2.49506C14.178 2.49506 14.3477 2.32529 14.3477 2.11613V0.394553C14.3477 0.185394 14.1779 0.015625 13.9688 0.015625C13.7596 0.015625 13.5898 0.185394 13.5898 0.394553Z" fill="#21225F"/>
<path fill-rule="evenodd" clip-rule="evenodd" d="M6.87652 3.49054L8.09386 4.70788C8.24172 4.85578 8.48191 4.85578 8.62976 4.70788C8.77761 4.55999 8.77761 4.31984 8.62976 4.17199L7.41241 2.95464C7.26456 2.80679 7.02437 2.80679 6.87652 2.95464C6.72866 3.10249 6.72866 3.34268 6.87652 3.49054Z" fill="#21225F"/>
<path fill-rule="evenodd" clip-rule="evenodd" d="M19.3101 15.9202L20.5275 17.1376C20.6753 17.2854 20.9155 17.2854 21.0634 17.1376C21.2112 16.9897 21.2112 16.7495 21.0634 16.6017L19.846 15.3843C19.6981 15.2365 19.458 15.2365 19.3101 15.3843C19.1623 15.5322 19.1623 15.7724 19.3101 15.9202Z" fill="#21225F"/>
<path fill-rule="evenodd" clip-rule="evenodd" d="M20.5275 2.95467L19.3101 4.17202C19.1622 4.31991 19.1622 4.56006 19.3101 4.70791C19.458 4.85577 19.6982 4.85581 19.846 4.70791L21.0634 3.49057C21.2113 3.34271 21.2113 3.10252 21.0634 2.95467C20.9155 2.80678 20.6754 2.80678 20.5275 2.95467Z" fill="#21225F"/>
<path fill-rule="evenodd" clip-rule="evenodd" d="M21.8985 10.4219H23.62C23.8292 10.4219 23.999 10.2521 23.999 10.043C23.999 9.83383 23.8292 9.66406 23.62 9.66406H21.8985C21.6893 9.66406 21.5195 9.83383 21.5195 10.043C21.5195 10.2521 21.6893 10.4219 21.8985 10.4219Z" fill="#21225F"/>
<path fill-rule="evenodd" clip-rule="evenodd" d="M3.7915 17.2205H2.75672C2.67488 17.2205 2.59539 17.1939 2.52968 17.145C1.45246 16.3127 0.757895 15.0097 0.757895 13.5462C0.757895 11.0414 2.79143 9.00793 5.29583 9.00793C6.95952 9.00793 8.41499 9.90492 9.20522 11.2415C9.25809 11.3304 9.34499 11.3944 9.44604 11.4177C9.5471 11.4409 9.65318 11.4221 9.73977 11.3648C10.1396 11.1017 10.6183 10.9484 11.1326 10.9484C12.5079 10.9484 13.6289 12.0449 13.6687 13.4107C13.6724 13.5344 13.736 13.6485 13.8395 13.7166C13.9432 13.7846 14.0732 13.7977 14.1881 13.7516C14.4788 13.6354 14.7961 13.5717 15.1279 13.5717C16.5281 13.5717 17.6653 14.7089 17.6653 16.1092C17.6653 16.4123 17.612 16.7033 17.5144 16.9728C17.4598 17.1156 17.3227 17.2103 17.1698 17.2103C17.1691 17.2103 17.1684 17.2103 17.1681 17.2103C14.9214 17.2204 5.29575 17.2204 5.29575 17.2204C5.08691 17.2204 4.91683 17.3902 4.91683 17.5994C4.91683 17.8085 5.08695 17.9783 5.29575 17.9783C5.29575 17.9783 14.924 17.9783 17.1715 17.9682C17.6386 17.9682 18.0587 17.6775 18.2241 17.2386C18.2244 17.2373 18.2251 17.2359 18.2254 17.2346C18.3531 16.8833 18.4232 16.5043 18.4232 16.1092C18.4232 14.2906 16.9464 12.8139 15.1279 12.8139C14.8692 12.8139 14.6172 12.8439 14.3757 12.9004C14.0991 11.3604 12.7514 10.1905 11.1326 10.1905C10.6017 10.1905 10.0998 10.3165 9.65552 10.5399C8.69956 9.15678 7.10257 8.25 5.29575 8.25C2.37303 8.25 0 10.6231 0 13.5462C0 15.2547 0.810799 16.7755 2.06722 17.7453C2.06821 17.7459 2.06924 17.7466 2.06991 17.7473C2.26766 17.8972 2.50884 17.9784 2.75707 17.9784H3.79153C4.00073 17.9784 4.17046 17.8086 4.17046 17.5994C4.17042 17.3902 4.00065 17.2205 3.7915 17.2205Z" fill="#21225F"/>
</svg>
