<svg width="20" height="20" viewBox="0 0 20 20" fill="none" xmlns="http://www.w3.org/2000/svg">
<path d="M6.875 5.625C5.49652 5.625 4.375 6.74622 4.375 8.125C4.375 9.50378 5.49652 10.625 6.875 10.625C8.25348 10.625 9.375 9.50378 9.375 8.125C9.375 6.74622 8.25348 5.625 6.875 5.625ZM5.9375 9.9176V6.3324L8.62671 8.125L5.9375 9.9176ZM16.875 1.25H3.125C1.74652 1.25 0.625 2.37122 0.625 3.75V12.5C0.625 13.8788 1.74652 15 3.125 15H16.875C18.2535 15 19.375 13.8788 19.375 12.5V3.75C19.375 2.37122 18.2535 1.25 16.875 1.25ZM6.875 11.875C4.80713 11.875 3.125 10.1929 3.125 8.125C3.125 6.05713 4.80713 4.375 6.875 4.375C8.94287 4.375 10.625 6.05713 10.625 8.125C10.625 10.1929 8.94287 11.875 6.875 11.875ZM16.875 11.25H11.875V10H16.875V11.25ZM16.875 8.75H11.875V7.5H16.875V8.75ZM16.875 6.25H11.875V5H16.875V6.25ZM11.875 17.5V16.25H8.125V17.5H5.625V18.75H14.375V17.5H11.875Z" fill="white"/>
</svg>
