<svg width="20" height="20" viewBox="0 0 20 20" fill="none" xmlns="http://www.w3.org/2000/svg">
<g clip-path="url(#clip0_34_1432)">
<path d="M1.66797 5L7.42882 8.26414C9.55263 9.46751 10.45 9.46751 12.5738 8.26414L18.3346 5" stroke="white" stroke-width="1.5" stroke-linejoin="round"/>
<path d="M1.68111 11.231C1.73559 13.7856 1.76283 15.0629 2.70543 16.0091C3.64804 16.9553 4.95991 16.9882 7.58366 17.0542C9.20073 17.0948 10.8019 17.0948 12.4189 17.0542C15.0427 16.9882 16.3546 16.9553 17.2972 16.0091C18.2398 15.0629 18.267 13.7856 18.3215 11.231C18.339 10.4096 18.339 9.59303 18.3215 8.77163C18.267 6.21702 18.2398 4.93971 17.2972 3.99352C16.3546 3.04733 15.0427 3.01437 12.419 2.94844C10.8019 2.90781 9.20073 2.90781 7.58365 2.94844C4.95991 3.01436 3.64804 3.04731 2.70543 3.99351C1.76282 4.9397 1.73558 6.21701 1.68111 8.77162C1.66359 9.59302 1.66359 10.4096 1.68111 11.231Z" stroke="white" stroke-width="1.5" stroke-linejoin="round"/>
</g>
<defs>
<clipPath id="clip0_34_1432">
<rect width="20" height="20" fill="white" transform="translate(0.00195312)"/>
</clipPath>
</defs>
</svg>
