<svg width="21" height="17" viewBox="0 0 21 17" fill="none" xmlns="http://www.w3.org/2000/svg">
  <path d="M2.52505 9.5114C2.43583 9.51103 2.34757 9.49296 2.26538 9.45823C2.1832 9.4235 2.10872 9.37281 2.04626 9.30909C1.05048 8.27788 0.496423 6.89879 0.501995 5.46528C0.501995 4.03449 1.07038 2.66229 2.0821 1.65057C3.09383 0.638842 4.46602 0.0704601 5.89682 0.0704601C7.08805 0.0618485 8.25146 0.430352 9.2205 1.12321C10.1895 1.81608 10.9145 2.79777 11.2916 3.92776C11.3426 4.09945 11.3233 4.28437 11.2379 4.44181C11.1526 4.59926 11.0081 4.71635 10.8365 4.76733C10.6648 4.8183 10.4798 4.79898 10.3224 4.71361C10.1649 4.62825 10.0479 4.48383 9.99688 4.31214C9.69941 3.46329 9.14455 2.72837 8.40961 2.20981C7.67467 1.69124 6.79628 1.41486 5.89682 1.41917C4.82372 1.41917 3.79458 1.84545 3.03578 2.60425C2.27699 3.36304 1.8507 4.39219 1.8507 5.46528C1.8506 6.54366 2.2632 7.58119 3.00384 8.365C3.06705 8.42769 3.11722 8.50227 3.15145 8.58445C3.18569 8.66662 3.20332 8.75477 3.20332 8.84379C3.20332 8.93281 3.18569 9.02095 3.15145 9.10313C3.11722 9.18531 3.06705 9.25989 3.00384 9.32258C2.87549 9.44634 2.70334 9.51423 2.52505 9.5114Z" fill="#00001B"/>
  <path d="M18.7114 9.5114C18.6222 9.51103 18.5339 9.49296 18.4517 9.45823C18.3696 9.4235 18.2951 9.37281 18.2326 9.30909C18.107 9.18275 18.0365 9.01183 18.0365 8.83368C18.0365 8.65552 18.107 8.48461 18.2326 8.35826C18.6095 7.97837 18.9059 7.52637 19.104 7.02928C19.3021 6.5322 19.398 6.00026 19.3858 5.46528C19.3858 4.39219 18.9595 3.36304 18.2007 2.60425C17.4419 1.84545 16.4127 1.41917 15.3396 1.41917C14.4494 1.42602 13.583 1.70758 12.8588 2.22538C12.1346 2.74318 11.5879 3.47196 11.2935 4.31214C11.2426 4.49099 11.1226 4.64226 10.9601 4.73269C10.7976 4.82311 10.6058 4.84527 10.427 4.7943C10.2481 4.74333 10.0969 4.6234 10.0064 4.46089C9.91601 4.29838 9.89385 4.10661 9.94482 3.92776C10.322 2.79777 11.0469 1.81608 12.016 1.12321C12.985 0.430352 14.1484 0.0618485 15.3396 0.0704601C16.7704 0.0704601 18.1426 0.638842 19.1544 1.65057C20.1661 2.66229 20.7345 4.03449 20.7345 5.46528C20.7469 6.17927 20.6161 6.8885 20.3497 7.55104C20.0833 8.21358 19.6867 8.81597 19.1835 9.32258C19.0568 9.4447 18.8874 9.51246 18.7114 9.5114Z" fill="#00001B"/>
  <path d="M10.6171 16.0703C9.83948 16.0692 9.09076 15.7755 8.51984 15.2476L2.06629 9.33348C1.93483 9.21187 1.85708 9.04301 1.85012 8.86406C1.84316 8.68511 1.90758 8.51073 2.0292 8.37928C2.15082 8.24782 2.31967 8.17006 2.49862 8.16311C2.67757 8.15615 2.85195 8.22057 2.98341 8.34219L9.43022 14.2495C9.7531 14.5486 10.177 14.7147 10.6171 14.7147C11.0572 14.7147 11.4811 14.5486 11.8039 14.2495L18.2508 8.34219C18.3158 8.28197 18.3922 8.23516 18.4753 8.20443C18.5585 8.17371 18.6469 8.15966 18.7355 8.16311C18.8241 8.16655 18.9112 8.18741 18.9918 8.2245C19.0723 8.26159 19.1447 8.31419 19.205 8.37928C19.2652 8.44437 19.312 8.52068 19.3427 8.60386C19.3734 8.68704 19.3875 8.77546 19.384 8.86406C19.3806 8.95267 19.3597 9.03973 19.3226 9.12027C19.2856 9.20082 19.233 9.27327 19.1679 9.33348L12.7143 15.2476C12.1434 15.7755 11.3947 16.0692 10.6171 16.0703Z" fill="#00001B"/>
</svg>