<svg width="20" height="20" viewBox="0 0 20 20" fill="none" xmlns="http://www.w3.org/2000/svg">
<g opacity="0.7" clip-path="url(#clip0_34_3959)">
<path d="M1.66602 15.0013C1.66602 13.7176 1.66602 13.0758 1.95496 12.6042C2.11663 12.3404 2.33846 12.1186 2.60229 11.9569C3.0738 11.668 3.71565 11.668 4.99935 11.668C6.28305 11.668 6.9249 11.668 7.3964 11.9569C7.66024 12.1186 7.88206 12.3404 8.04374 12.6042C8.33268 13.0758 8.33268 13.7176 8.33268 15.0013C8.33268 16.285 8.33268 16.9268 8.04374 17.3984C7.88206 17.6622 7.66024 17.884 7.3964 18.0457C6.9249 18.3346 6.28305 18.3346 4.99935 18.3346C3.71565 18.3346 3.0738 18.3346 2.60229 18.0457C2.33846 17.884 2.11663 17.6622 1.95496 17.3984C1.66602 16.9268 1.66602 16.285 1.66602 15.0013Z" stroke="#00001B" stroke-width="1.5"/>
<path d="M11.666 15.0013C11.666 13.7176 11.666 13.0758 11.955 12.6042C12.1166 12.3404 12.3385 12.1186 12.6023 11.9569C13.0738 11.668 13.7157 11.668 14.9993 11.668C16.283 11.668 16.9249 11.668 17.3964 11.9569C17.6602 12.1186 17.8821 12.3404 18.0437 12.6042C18.3327 13.0758 18.3327 13.7176 18.3327 15.0013C18.3327 16.285 18.3327 16.9268 18.0437 17.3984C17.8821 17.6622 17.6602 17.884 17.3964 18.0457C16.9249 18.3346 16.283 18.3346 14.9993 18.3346C13.7157 18.3346 13.0738 18.3346 12.6023 18.0457C12.3385 17.884 12.1166 17.6622 11.955 17.3984C11.666 16.9268 11.666 16.285 11.666 15.0013Z" stroke="#00001B" stroke-width="1.5"/>
<path d="M1.66602 5.0013C1.66602 3.7176 1.66602 3.07575 1.95496 2.60425C2.11663 2.34041 2.33846 2.11859 2.60229 1.95691C3.0738 1.66797 3.71565 1.66797 4.99935 1.66797C6.28305 1.66797 6.9249 1.66797 7.3964 1.95691C7.66024 2.11859 7.88206 2.34041 8.04374 2.60425C8.33268 3.07575 8.33268 3.7176 8.33268 5.0013C8.33268 6.285 8.33268 6.92685 8.04374 7.39836C7.88206 7.66219 7.66024 7.88402 7.3964 8.04569C6.9249 8.33464 6.28305 8.33464 4.99935 8.33464C3.71565 8.33464 3.0738 8.33464 2.60229 8.04569C2.33846 7.88402 2.11663 7.66219 1.95496 7.39836C1.66602 6.92685 1.66602 6.285 1.66602 5.0013Z" stroke="#00001B" stroke-width="1.5"/>
<path d="M11.666 5.0013C11.666 3.7176 11.666 3.07575 11.955 2.60425C12.1166 2.34041 12.3385 2.11859 12.6023 1.95691C13.0738 1.66797 13.7157 1.66797 14.9993 1.66797C16.283 1.66797 16.9249 1.66797 17.3964 1.95691C17.6602 2.11859 17.8821 2.34041 18.0437 2.60425C18.3327 3.07575 18.3327 3.7176 18.3327 5.0013C18.3327 6.285 18.3327 6.92685 18.0437 7.39836C17.8821 7.66219 17.6602 7.88402 17.3964 8.04569C16.9249 8.33464 16.283 8.33464 14.9993 8.33464C13.7157 8.33464 13.0738 8.33464 12.6023 8.04569C12.3385 7.88402 12.1166 7.66219 11.955 7.39836C11.666 6.92685 11.666 6.285 11.666 5.0013Z" stroke="#00001B" stroke-width="1.5"/>
</g>
<defs>
<clipPath id="clip0_34_3959">
<rect width="20" height="20" fill="white"/>
</clipPath>
</defs>
</svg>
