<svg width="16" height="16" viewBox="0 0 16 16" fill="none" xmlns="http://www.w3.org/2000/svg">
<path opacity="0.8" d="M6.44048 12.8742C7.8708 12.8742 9.26021 12.397 10.3886 11.5181L14.6458 15.7753C14.9638 16.0824 15.4706 16.0736 15.7777 15.7556C16.0773 15.4454 16.0773 14.9536 15.7777 14.6434L11.5206 10.3862C13.7015 7.57875 13.1936 3.53487 10.3862 1.35393C7.57871 -0.827011 3.53486 -0.319146 1.35393 2.48831C-0.827011 5.29577 -0.319146 9.33965 2.48831 11.5206C3.61857 12.3986 5.00922 12.8749 6.44048 12.8742ZM3.01989 3.01743C4.90905 1.12824 7.97198 1.1282 9.86118 3.01736C11.7504 4.90652 11.7504 7.96945 9.86125 9.85865C7.97209 11.7478 4.90915 11.7479 3.01996 9.85872C3.01993 9.85868 3.02 9.85875 3.01996 9.85872C1.1308 7.98332 1.1196 4.93149 2.995 3.04233C3.00328 3.034 3.01157 3.02572 3.01989 3.01743Z" fill="#00001B"/>
</svg>
