<svg width="30" height="30" viewBox="0 0 30 30" fill="none" xmlns="http://www.w3.org/2000/svg">
<path d="M29.8031 10.9724L26.8601 5.25273C26.4114 4.38079 25.3369 4.03621 24.4649 4.48503L23.0954 5.18974C19.1667 1.95217 13.7158 1.36368 9.18474 3.69525C6.89163 4.87514 5.03485 6.694 3.8151 8.95521C2.66443 11.0883 2.14747 13.4781 2.31377 15.8829L0.965704 16.5765C0.543287 16.7938 0.230726 17.1627 0.0857521 17.6151C-0.0592217 18.0675 -0.0194284 18.5492 0.197945 18.9717L3.14095 24.6913C3.45609 25.3037 4.07975 25.6559 4.72532 25.6559C4.99891 25.6559 5.27659 25.5926 5.53615 25.459L6.86271 24.7764C8.74632 26.3442 11.0296 27.3302 13.472 27.6285C13.9871 27.6914 14.5025 27.7226 15.0161 27.7226C17.0267 27.7226 19.0081 27.2436 20.8214 26.3106C21.8418 25.7856 22.7832 25.1292 23.6198 24.3596C23.7979 24.1957 23.8095 23.9185 23.6456 23.7403C23.4818 23.5622 23.2045 23.5507 23.0264 23.7145C22.2476 24.4309 21.3709 25.0422 20.4204 25.5312C18.3007 26.6219 15.9347 27.0464 13.5783 26.7584C11.4281 26.4958 9.41053 25.6613 7.71479 24.3379L9.94619 23.1898C9.95934 23.2 9.97296 23.2097 9.98751 23.2186C11.3709 24.0614 12.957 24.5457 14.5744 24.6192C14.7182 24.6258 14.8617 24.629 15.0054 24.629C16.5289 24.629 18.042 24.2628 19.4064 23.5608C20.8938 22.7954 22.1596 21.6539 23.0667 20.2598C23.9462 18.908 24.4767 17.3432 24.6008 15.7343C24.603 15.7058 24.6022 15.6777 24.599 15.6503L26.8352 14.4997C26.9565 17.3394 26.0621 20.1105 24.2896 22.353C24.1395 22.5428 24.1717 22.8185 24.3617 22.9685C24.4421 23.0322 24.5379 23.063 24.6331 23.063C24.7626 23.063 24.8908 23.0059 24.9772 22.8964C26.9642 20.3828 27.9233 17.2503 27.6872 14.0613L29.0353 13.3676C29.9074 12.9189 30.2518 11.8444 29.8031 10.9724ZM4.58648 9.37125C5.72191 7.26642 7.45061 5.57318 9.58577 4.47457C13.6918 2.36191 18.6092 2.82406 22.2416 5.62905L20.005 6.77984C18.6591 5.963 17.1252 5.48401 15.5516 5.3928C13.8425 5.29364 12.1301 5.65756 10.5997 6.44507C9.10002 7.21669 7.82692 8.36964 6.91799 9.77912C6.04692 11.13 5.52464 12.6895 5.4045 14.2925L3.16813 15.4432C3.08977 13.3328 3.57541 11.2456 4.58648 9.37125ZM22.3321 19.7817C21.5079 21.0484 20.3576 22.0857 19.0054 22.7814C17.6482 23.4798 16.1296 23.813 14.6143 23.7436C13.3077 23.6843 12.0239 23.3294 10.8716 22.7137L23.6786 16.124C23.5089 17.4249 23.0482 18.6811 22.3321 19.7817ZM28.6343 12.5882L5.13506 24.6796C4.69278 24.9071 4.14782 24.7325 3.92028 24.2902L0.977274 18.5706C0.86701 18.3564 0.84685 18.112 0.92036 17.8826C0.993869 17.6532 1.1524 17.4661 1.36668 17.3559L10.1547 12.834C10.37 12.7232 10.4546 12.459 10.3439 12.2437C10.2332 12.0286 9.96898 11.9439 9.75365 12.0546L6.33651 13.8129C6.51164 12.5484 6.9617 11.3287 7.65454 10.2542C8.48033 8.97355 9.63737 7.9259 11.0006 7.22446C13.5397 5.91806 16.5652 5.94681 19.0722 7.25975L11.5237 11.1438C11.3085 11.2546 11.2238 11.5188 11.3345 11.7341C11.4452 11.9493 11.7094 12.034 11.9248 11.9232L24.8659 5.26442C25.3082 5.03688 25.8532 5.21148 26.0807 5.65376L29.0237 11.3734C29.2513 11.8156 29.0766 12.3607 28.6343 12.5882Z" fill="white"/>
<path d="M19.8859 14.1766L17.2934 11.8344C17.2902 11.8315 17.287 11.8286 17.2837 11.8258C17.1244 11.6904 16.9014 11.6647 16.7156 11.7606C16.5297 11.8565 16.4214 12.053 16.4395 12.2613C16.4398 12.2649 16.4401 12.2685 16.4405 12.272L16.829 15.7481C16.8541 15.9722 17.0438 16.1378 17.264 16.1378C17.2803 16.1378 17.2967 16.1368 17.3132 16.135C17.5538 16.1081 17.727 15.8913 17.7001 15.6508L17.6369 15.0851L18.8775 14.4468L19.2983 14.827C19.4778 14.9891 19.755 14.9752 19.9173 14.7956C20.0796 14.616 20.0655 14.3389 19.8859 14.1766ZM17.5327 14.1531L17.4182 13.1284L18.1824 13.8188L17.5327 14.1531Z" fill="white"/>
<path d="M14.5468 13.3706C14.436 13.1555 14.1718 13.0707 13.9566 13.1815C13.7413 13.2922 13.6567 13.5564 13.7674 13.7717L15.2843 16.7197C15.3621 16.8707 15.5154 16.9575 15.6744 16.9575C15.7419 16.9575 15.8104 16.9418 15.8745 16.9088C16.0897 16.798 16.1744 16.5338 16.0637 16.3186L14.5468 13.3706Z" fill="white"/>
<path d="M9.02679 16.7044L9.45441 16.4843C9.66962 16.3735 9.75429 16.1093 9.64356 15.8941C9.53289 15.6788 9.26871 15.5942 9.05332 15.7049L7.4253 16.5426C7.21009 16.6533 7.12542 16.9176 7.23615 17.1328C7.31387 17.2839 7.46726 17.3707 7.6262 17.3707C7.69369 17.3707 7.76217 17.355 7.82633 17.322L8.24741 17.1053L9.5638 19.6637C9.64152 19.8147 9.7949 19.9015 9.95384 19.9015C10.0213 19.9015 10.0899 19.8858 10.154 19.8528C10.3692 19.7421 10.4539 19.4778 10.3431 19.2626L9.02679 16.7044Z" fill="white"/>
<path d="M14.2365 16.932L13.0837 16.4798C13.4838 16.0817 13.6065 15.4689 13.3435 14.9576C13.1827 14.6451 12.9028 14.4183 12.5554 14.3187C12.2193 14.2224 11.8621 14.2579 11.5495 14.4188L10.7661 14.8219C10.766 14.8219 10.7659 14.822 10.7658 14.8221C10.7656 14.8222 10.7654 14.8222 10.7651 14.8223C10.5499 14.9331 10.4653 15.1973 10.576 15.4126L12.0929 18.3606C12.1707 18.5116 12.324 18.5984 12.4829 18.5984C12.5504 18.5984 12.619 18.5827 12.6831 18.5497C12.8983 18.4389 12.9829 18.1747 12.8722 17.9595L12.4718 17.1813L13.9163 17.7479C13.9689 17.7686 14.023 17.7784 14.0762 17.7784C14.2512 17.7784 14.4165 17.6728 14.4843 17.5001C14.5729 17.2747 14.4618 17.0204 14.2365 16.932ZM11.9506 15.1982C12.0624 15.1407 12.1949 15.1271 12.314 15.1614C12.4264 15.1936 12.5152 15.2636 12.5641 15.3587C12.6691 15.5628 12.5655 15.8341 12.3379 15.9512C12.2462 15.9984 12.0939 16.0775 11.9483 16.1533C11.8745 16.0116 11.6352 15.5491 11.5581 15.4002L11.9506 15.1982Z" fill="white"/>
<path d="M22.1741 12.6828C21.9792 12.7845 21.7347 12.9116 21.535 13.0147L20.2187 10.4566C20.1079 10.2414 19.8437 10.1566 19.6284 10.2674C19.4132 10.3782 19.3285 10.6424 19.4393 10.8577L20.9549 13.8031C21.0317 13.9522 21.184 14.0409 21.3446 14.0409C21.3882 14.0409 21.4324 14.0343 21.4759 14.0207C21.521 14.0065 21.5483 13.9979 22.5796 13.4599C22.7941 13.348 22.8774 13.0833 22.7654 12.8687C22.6534 12.6542 22.3888 12.5709 22.1741 12.6828Z" fill="white"/>
</svg>
