<svg width="20" height="20" viewBox="0 0 20 20" fill="none" xmlns="http://www.w3.org/2000/svg">
<g clip-path="url(#clip0_34_3949)">
<path d="M9.85625 9.63408C11.1798 9.63408 12.3257 9.15938 13.2623 8.22279C14.1986 7.28636 14.6734 6.14058 14.6734 4.81689C14.6734 3.49365 14.1987 2.34771 13.2622 1.41098C12.3256 0.4747 11.1796 0 9.85625 0C8.53256 0 7.38678 0.4747 6.45035 1.41113C5.51392 2.34756 5.03906 3.49349 5.03906 4.81689C5.03906 6.14058 5.51392 7.28652 6.45035 8.22295C7.38708 9.15922 8.53301 9.63408 9.85625 9.63408ZM7.2792 2.23983C7.99774 1.5213 8.84063 1.17203 9.85625 1.17203C10.8717 1.17203 11.7148 1.5213 12.4335 2.23983C13.152 2.95852 13.5014 3.80157 13.5014 4.81689C13.5014 5.83251 13.152 6.6754 12.4335 7.39409C11.7148 8.11278 10.8717 8.46205 9.85625 8.46205C8.84094 8.46205 7.99804 8.11263 7.2792 7.39409C6.56051 6.67555 6.21109 5.83251 6.21109 4.81689C6.21109 3.80157 6.56051 2.95852 7.2792 2.23983Z" fill="#00001B"/>
<path d="M18.2863 15.3823C18.2592 14.9926 18.2046 14.5675 18.1242 14.1186C18.043 13.6663 17.9385 13.2387 17.8134 12.848C17.684 12.4441 17.5084 12.0452 17.2909 11.663C17.0656 11.2662 16.8007 10.9208 16.5034 10.6365C16.1926 10.3391 15.812 10.1 15.372 9.9256C14.9334 9.75211 14.4475 9.66422 13.9276 9.66422C13.7234 9.66422 13.526 9.74799 13.1447 9.99625C12.91 10.1493 12.6355 10.3263 12.3291 10.5221C12.0671 10.689 11.7122 10.8454 11.2738 10.987C10.8461 11.1254 10.4118 11.1956 9.98305 11.1956C9.55458 11.1956 9.12032 11.1254 8.69231 10.987C8.25438 10.8455 7.89931 10.6891 7.63778 10.5222C7.33428 10.3283 7.05962 10.1513 6.82143 9.99609C6.44042 9.74783 6.24297 9.66406 6.03881 9.66406C5.51879 9.66406 5.03295 9.75211 4.59457 9.92575C4.15481 10.0999 3.7741 10.339 3.46298 10.6367C3.16574 10.9211 2.90085 11.2664 2.67563 11.663C2.45849 12.0452 2.28271 12.4439 2.15332 12.8481C2.02835 13.2389 1.92383 13.6663 1.84265 14.1186C1.76208 14.5669 1.70761 14.9921 1.6806 15.3827C1.65405 15.7647 1.64062 16.1622 1.64062 16.5638C1.64062 17.6078 1.9725 18.453 2.62695 19.0763C3.27331 19.6914 4.12841 20.0032 5.1686 20.0032H14.7987C15.8386 20.0032 16.6937 19.6914 17.3402 19.0763C17.9948 18.4534 18.3267 17.6079 18.3267 16.5636C18.3265 16.1606 18.313 15.7631 18.2863 15.3823ZM16.5321 18.2271C16.105 18.6336 15.538 18.8312 14.7986 18.8312H5.1686C4.42901 18.8312 3.862 18.6336 3.43506 18.2273C3.0162 17.8286 2.81265 17.2843 2.81265 16.5638C2.81265 16.189 2.82501 15.819 2.84973 15.4638C2.87384 15.1153 2.92312 14.7324 2.99621 14.3256C3.06839 13.9239 3.16024 13.5468 3.2695 13.2055C3.37433 12.8782 3.5173 12.5541 3.69461 12.2419C3.86383 11.9443 4.05853 11.6891 4.27337 11.4834C4.47433 11.291 4.72762 11.1335 5.02609 11.0154C5.30212 10.9061 5.61233 10.8463 5.94909 10.8373C5.99013 10.8591 6.06322 10.9008 6.18163 10.978C6.42257 11.135 6.70028 11.3141 7.00728 11.5102C7.35335 11.7309 7.79921 11.9301 8.3319 12.1021C8.87648 12.2782 9.4319 12.3676 9.9832 12.3676C10.5345 12.3676 11.0901 12.2782 11.6343 12.1023C12.1675 11.93 12.6132 11.7309 12.9597 11.5099C13.2739 11.3091 13.5438 11.1352 13.7848 10.978C13.9032 10.9009 13.9763 10.8591 14.0173 10.8373C14.3542 10.8463 14.6644 10.9061 14.9406 11.0154C15.2389 11.1335 15.4922 11.2911 15.6932 11.4834C15.908 11.6889 16.1027 11.9442 16.2719 12.242C16.4494 12.5541 16.5925 12.8783 16.6972 13.2053C16.8066 13.5471 16.8986 13.924 16.9706 14.3255C17.0436 14.733 17.093 15.116 17.1171 15.4639V15.4642C17.142 15.8181 17.1545 16.1879 17.1547 16.5638C17.1545 17.2844 16.951 17.8286 16.5321 18.2271Z" fill="#00001B"/>
</g>
<defs>
<clipPath id="clip0_34_3949">
<rect width="20" height="20" fill="white"/>
</clipPath>
</defs>
</svg>
