<svg width="30" height="40" viewBox="0 0 30 40" fill="none" xmlns="http://www.w3.org/2000/svg">
<path d="M27.2443 26.4201V22.256L25.487 22.9397L25.4819 22.9281L25.44 22.8521C24.7666 21.8037 23.6776 21.0742 22.4513 20.8519L18.2228 20.0825V19.7487C19.8041 18.8304 20.9621 17.2639 21.323 15.4119C22.4945 15.1696 23.3779 14.1302 23.3779 12.8878V6.52318C23.3779 4.72468 22.2 3.15623 20.4911 2.64587L20.1689 2.32368C18.67 0.824822 16.6776 0 14.5581 0C10.1834 0 6.62375 3.55898 6.62375 7.9344V12.8878C6.62375 14.1302 7.50721 15.1696 8.67871 15.4119C9.04022 17.2639 10.1975 18.8311 11.7789 19.7487V20.0825L7.55103 20.8512C6.32604 21.0736 5.23766 21.8017 4.56363 22.8495L4.52496 22.9436L2.7574 22.256V26.4201C1.69157 26.4201 0.824219 27.2874 0.824219 28.3533V30.9308C0.824219 31.9967 1.69157 32.864 2.7574 32.864V35.2379L15.0008 40L27.2443 35.2379V32.864C28.3101 32.864 29.1775 31.9967 29.1775 30.9308V28.3533C29.1775 27.2874 28.3101 26.4201 27.2443 26.4201ZM19.4304 21.6123L22.2206 22.1194C23.0422 22.2689 23.7697 22.7432 24.255 23.4185L18.0205 25.8427L19.4304 21.6123ZM13.1224 20.3396C13.7172 20.5213 14.3474 20.6206 15.0008 20.6206C15.6543 20.6206 16.2845 20.5213 16.8792 20.3396L15.0008 21.7482L13.1224 20.3396ZM14.0201 22.6233L12.7049 23.9379L11.8517 21.379L12.2622 21.3049L14.0201 22.6233ZM17.7395 21.3055L18.15 21.3796L17.2968 23.9385L15.9816 22.624L17.7395 21.3055ZM21.4448 13.9975V11.7782C21.8282 12.0018 22.0892 12.4129 22.0892 12.8878C22.0892 13.3628 21.8282 13.7739 21.4448 13.9975ZM8.55692 13.9975C8.17351 13.7739 7.91253 13.3628 7.91253 12.8878C7.91253 12.4129 8.17351 12.0018 8.55692 11.7782V13.9975ZM8.55692 9.66588V10.4018C8.32752 10.4617 8.11229 10.5519 7.91253 10.6686V7.9344C7.91253 4.27039 10.8935 1.28878 14.5581 1.28878C16.3328 1.28878 18.0024 1.98022 19.2577 3.23549L19.8261 3.80449L19.9994 3.84702C21.2302 4.1544 22.0892 5.25502 22.0892 6.52318V10.6686C21.8894 10.5519 21.6742 10.4611 21.4448 10.4018V9.66588H19.4014C17.6551 9.66588 15.9861 8.83204 14.939 7.43564L14.4267 6.7513L13.1463 8.03235C12.0921 9.08593 10.6912 9.66588 9.20132 9.66588H8.55692ZM9.84571 14.1766V10.925C11.4367 10.7775 12.913 10.0873 14.0575 8.94352L14.3081 8.69285C15.6001 10.1189 17.4611 10.9547 19.4014 10.9547H20.156V14.1766C20.156 17.019 17.8433 19.3318 15.0008 19.3318C12.1584 19.3318 9.84571 17.019 9.84571 14.1766ZM7.78108 22.1194L10.5713 21.6123L11.9812 25.8427L5.74544 23.4179C6.23067 22.7419 6.95948 22.2689 7.78108 22.1194ZM2.113 30.9308V28.3533C2.113 27.9976 2.40234 27.7089 2.7574 27.7089C3.82322 27.7089 4.69057 28.5762 4.69057 29.642C4.69057 30.7079 3.82322 31.5752 2.7574 31.5752C2.40234 31.5752 2.113 31.2865 2.113 30.9308ZM14.3565 38.3658L4.04618 34.3571V32.5908C5.18224 32.092 5.97936 30.9598 5.97936 29.642C5.97936 28.3243 5.18224 27.1921 4.04618 26.6933V24.1402L14.3565 28.1496V38.3658ZM12.4433 26.0231L15.0008 23.4649L17.5584 26.0225L15.0008 27.0174L12.4433 26.0231ZM25.9555 34.3564L15.6452 38.3652V28.1496L25.9555 24.1402V26.6933C24.8194 27.1921 24.0223 28.3243 24.0223 29.642C24.0223 30.9598 24.8194 32.092 25.9555 32.5908V34.3564ZM27.8887 30.9308C27.8887 31.2865 27.5994 31.5752 27.2443 31.5752C26.1785 31.5752 25.3111 30.7079 25.3111 29.642C25.3111 28.5762 26.1785 27.7089 27.2443 27.7089C27.5994 27.7089 27.8887 27.9976 27.8887 28.3533V30.9308Z" fill="#00001B"/>
</svg>
