<svg width="20" height="20" viewBox="0 0 20 20" fill="none" xmlns="http://www.w3.org/2000/svg">
<path d="M10 6.64062C11.8338 6.64062 13.3203 5.15407 13.3203 3.32031C13.3203 1.48655 11.8338 0 10 0C8.16624 0 6.67969 1.48655 6.67969 3.32031C6.67969 5.15407 8.16624 6.64062 10 6.64062Z" fill="white"/>
<path d="M12.4413 7.09375C11.7383 7.55027 10.9004 7.81582 10.0015 7.81582C9.10266 7.81582 8.26473 7.55027 7.56172 7.09375C6.78457 7.39074 6.06402 7.82891 5.4375 8.39125L10.0015 10.1028L14.5655 8.39125C13.939 7.82891 13.2185 7.3907 12.4413 7.09375Z" fill="white"/>
<path d="M17.0312 12.1094H16.6406C16.317 12.1094 16.0547 12.3717 16.0547 12.6953V14.2578C16.0547 14.5814 16.317 14.8438 16.6406 14.8438H17.0312C17.7863 14.8438 18.3984 14.2316 18.3984 13.4766C18.3984 12.7215 17.7863 12.1094 17.0312 12.1094Z" fill="white"/>
<path d="M3.41625 9.15126C3.25828 9.26075 3.16406 9.44068 3.16406 9.63286V10.9374H3.35938C4.32863 10.9374 5.11719 11.7259 5.11719 12.6952V14.2577C5.11719 15.2269 4.32863 16.0155 3.35938 16.0155H3.16406V17.2501C3.16406 17.4943 3.31559 17.7129 3.54426 17.7987L9.41406 19.9999V11.1311L3.95574 9.08423C3.77578 9.01669 3.57418 9.04173 3.41625 9.15126Z" fill="white"/>
<path d="M14.8828 14.2577V12.6952C14.8828 11.7259 15.6714 10.9374 16.6406 10.9374H16.8359V9.63286C16.8359 9.44068 16.7417 9.26075 16.5838 9.15126C16.4258 9.04173 16.2241 9.01669 16.0443 9.08423L10.5859 11.1311V19.9999L16.4557 17.7987C16.6844 17.7129 16.8359 17.4943 16.8359 17.2501V16.0155H16.6406C15.6714 16.0155 14.8828 15.2269 14.8828 14.2577Z" fill="white"/>
<path d="M3.94531 14.2578V12.6953C3.94531 12.3717 3.68297 12.1094 3.35938 12.1094H2.96875C2.21367 12.1094 1.60156 12.7215 1.60156 13.4766C1.60156 14.2316 2.21367 14.8438 2.96875 14.8438H3.35938C3.68297 14.8438 3.94531 14.5814 3.94531 14.2578Z" fill="white"/>
</svg>
