<svg width="24" height="24" viewBox="0 0 24 24" fill="none" xmlns="http://www.w3.org/2000/svg">
<g opacity="0.7">
<path d="M19.352 15.852V13.3536L18.2977 13.7638L18.2946 13.7569L18.2695 13.7112C17.8654 13.0822 17.212 12.6445 16.4763 12.5111L13.9392 12.0495V11.8492C14.888 11.2983 15.5827 10.3583 15.7993 9.24716C16.5022 9.10178 17.0322 8.47814 17.0322 7.73271V3.91391C17.0322 2.83481 16.3255 1.89374 15.3001 1.58752L15.1068 1.39421C14.2075 0.494893 13.012 0 11.7404 0C9.11549 0 6.97972 2.13539 6.97972 4.76064V7.73271C6.97972 8.47814 7.50979 9.10178 8.2127 9.24716C8.4296 10.3583 9.124 11.2986 10.0728 11.8492V12.0495L7.53609 12.5107C6.80109 12.6441 6.14807 13.081 5.74364 13.7097L5.72045 13.7661L4.65991 13.3536V15.852C4.02041 15.852 3.5 16.3725 3.5 17.012V18.5585C3.5 19.198 4.02041 19.7184 4.65991 19.7184V21.1428L12.006 24L19.352 21.1428V19.7184C19.9915 19.7184 20.512 19.198 20.512 18.5585V17.012C20.512 16.3725 19.9915 15.852 19.352 15.852ZM14.6637 12.9674L16.3378 13.2716C16.8308 13.3613 17.2673 13.6459 17.5584 14.0511L13.8177 15.5056L14.6637 12.9674ZM10.8789 12.2038C11.2358 12.3128 11.6139 12.3723 12.006 12.3723C12.398 12.3723 12.7762 12.3128 13.133 12.2038L12.006 13.0489L10.8789 12.2038ZM11.4175 13.574L10.6284 14.3627L10.1165 12.8274L10.3628 12.7829L11.4175 13.574ZM13.6492 12.7833L13.8955 12.8278L13.3836 14.3631L12.5944 13.5744L13.6492 12.7833ZM15.8723 8.39849V7.06692C16.1024 7.20108 16.259 7.44776 16.259 7.73271C16.259 8.01766 16.1024 8.26433 15.8723 8.39849ZM8.13962 8.39849C7.90958 8.26433 7.75299 8.01766 7.75299 7.73271C7.75299 7.44776 7.90958 7.20108 8.13962 7.06692V8.39849ZM8.13962 5.79953V6.24107C8.00198 6.27702 7.87285 6.33115 7.75299 6.40113V4.76064C7.75299 2.56223 9.54156 0.773271 11.7404 0.773271C12.8052 0.773271 13.8069 1.18813 14.5601 1.9413L14.9011 2.28269L15.0051 2.30821C15.7436 2.49264 16.259 3.15301 16.259 3.91391V6.40113C16.1391 6.33115 16.01 6.27664 15.8723 6.24107V5.79953H14.6463C13.5985 5.79953 12.5971 5.29922 11.9689 4.46138L11.6615 4.05078L10.8932 4.81941C10.2607 5.45156 9.42016 5.79953 8.52626 5.79953H8.13962ZM8.91289 8.50598V6.55502C9.8675 6.46648 10.7533 6.05239 11.4399 5.36611L11.5903 5.21571C12.3655 6.07133 13.4822 6.5728 14.6463 6.5728H15.0991V8.50598C15.0991 10.2114 13.7114 11.5991 12.006 11.5991C10.3005 11.5991 8.91289 10.2114 8.91289 8.50598ZM7.67411 13.2716L9.34825 12.9674L10.1942 15.5056L6.45273 14.0507C6.74387 13.6451 7.18115 13.3613 7.67411 13.2716ZM4.27327 18.5585V17.012C4.27327 16.7985 4.44687 16.6253 4.65991 16.6253C5.2994 16.6253 5.81981 17.1457 5.81981 17.7852C5.81981 18.4247 5.2994 18.9451 4.65991 18.9451C4.44687 18.9451 4.27327 18.7719 4.27327 18.5585ZM11.6193 23.0195L5.43318 20.6142V19.5545C6.11481 19.2552 6.59308 18.5759 6.59308 17.7852C6.59308 16.9946 6.11481 16.3152 5.43318 16.016V14.4841L11.6193 16.8898V23.0195ZM10.4714 15.6139L12.006 14.0789L13.5405 15.6135L12.006 16.2105L10.4714 15.6139ZM18.5788 20.6138L12.3926 23.0191V16.8898L18.5788 14.4841V16.016C17.8971 16.3152 17.4189 16.9946 17.4189 17.7852C17.4189 18.5759 17.8971 19.2552 18.5788 19.5545V20.6138ZM19.7387 18.5585C19.7387 18.7719 19.5651 18.9451 19.352 18.9451C18.7126 18.9451 18.1921 18.4247 18.1921 17.7852C18.1921 17.1457 18.7126 16.6253 19.352 16.6253C19.5651 16.6253 19.7387 16.7985 19.7387 17.012V18.5585Z" fill="#00001B"/>
</g>
</svg>
