<svg width="20" height="20" viewBox="0 0 20 20" fill="none" xmlns="http://www.w3.org/2000/svg">
<path d="M9.98844 2.91163e-10C9.62994 2.91163e-10 9.2717 0.0192722 8.91524 0.0576915C8.58853 0.0910633 8.26583 0.145793 7.94746 0.212203C7.88585 0.225093 7.8242 0.238692 7.76258 0.252916C5.8868 0.679992 4.17399 1.63906 2.82957 3.0151C2.70455 3.14325 2.58216 3.27519 2.46248 3.41089C-1.16921 7.58019 -0.733372 13.9041 3.43597 17.5358C7.42757 21.0127 13.436 20.7814 17.1484 17.0079C17.2737 16.8797 17.396 16.7478 17.5155 16.6121C19.1182 14.7869 20.0014 12.4405 20 10.0115C20 4.48225 15.5177 -4.17144e-05 9.98844 2.91163e-10ZM3.27441 3.51568C3.32714 3.46095 3.38187 3.40855 3.4356 3.35549C3.49767 3.29442 3.55941 3.23302 3.62281 3.17395C3.67854 3.12189 3.73594 3.07183 3.79301 3.02111C3.85742 2.96404 3.92149 2.90697 3.98757 2.85191C4.04563 2.80285 4.10537 2.7558 4.16477 2.70841C4.23151 2.65502 4.29826 2.60162 4.367 2.55023C4.42774 2.50451 4.48948 2.46013 4.55155 2.41674C4.62063 2.36735 4.69004 2.31663 4.76046 2.27057C4.82353 2.22786 4.88727 2.18648 4.95134 2.14543C5.02276 2.09971 5.09451 2.05466 5.16693 2.01194C5.23213 1.97302 5.29774 1.93473 5.36382 1.89714C5.4377 1.8551 5.51187 1.81405 5.58641 1.774C5.65315 1.73842 5.7199 1.70359 5.78664 1.66955C5.86273 1.63117 5.93948 1.59413 6.01657 1.55775C6.08332 1.52605 6.15273 1.49435 6.22147 1.46431C6.2999 1.43094 6.37932 1.39757 6.45875 1.3642C6.52783 1.33583 6.59657 1.30813 6.66632 1.28143C6.74708 1.25073 6.82884 1.22203 6.9106 1.19333C6.98035 1.16897 7.0501 1.14461 7.12084 1.12158C7.20394 1.09489 7.2877 1.07019 7.3718 1.04583C7.44221 1.02547 7.51196 1.00445 7.58271 0.985427C7.60974 0.978419 7.63677 0.972746 7.6638 0.965738C6.676 1.92488 5.94295 3.11526 5.53101 4.42906C4.73893 4.22015 3.97213 3.92506 3.24438 3.54905C3.25539 3.53737 3.26473 3.52569 3.27441 3.51568ZM2.79453 4.05296C3.59616 4.48729 4.44622 4.8256 5.32711 5.06079C4.89528 6.56235 4.6686 8.11543 4.65333 9.67777H0.652058C0.724766 7.61753 1.47818 5.6395 2.79453 4.05296ZM2.79453 15.97C1.47826 14.3834 0.72485 12.4054 0.652058 10.3452H4.65333C4.6686 11.9076 4.89524 13.4606 5.32711 14.9622C4.44626 15.1975 3.5962 15.5357 2.79453 15.97ZM7.58071 19.0389C7.5133 19.0219 7.44355 18.9998 7.37414 18.9795C7.2897 18.9548 7.20494 18.9301 7.12151 18.9031C7.0511 18.8804 6.98168 18.856 6.91227 18.8317C6.83018 18.8033 6.74808 18.7743 6.66699 18.7432C6.59757 18.7169 6.52916 18.6892 6.46042 18.6611C6.38066 18.6278 6.3009 18.5944 6.22181 18.561C6.15373 18.531 6.08599 18.5001 6.01857 18.4682C5.94082 18.4315 5.8634 18.3942 5.78497 18.3554C5.71823 18.3221 5.65148 18.2887 5.58474 18.2523C5.50932 18.2119 5.43457 18.1706 5.35981 18.1278C5.29307 18.0908 5.22966 18.0528 5.16526 18.014C5.09184 17.97 5.01976 17.9246 4.94767 17.8782C4.88427 17.8378 4.82086 17.7968 4.75846 17.7547C4.68737 17.7067 4.61696 17.6566 4.54721 17.6066C4.48614 17.5629 4.42507 17.5191 4.365 17.4731C4.29592 17.421 4.22818 17.3673 4.16077 17.3132C4.1017 17.2662 4.04296 17.2195 3.98523 17.1711C3.91849 17.1157 3.85408 17.0579 3.78934 17.0005C3.73261 16.9502 3.67554 16.9004 3.62014 16.849C3.5564 16.7896 3.49467 16.7279 3.43259 16.6668C3.37887 16.6138 3.32414 16.5614 3.27141 16.507C3.26173 16.4966 3.25239 16.486 3.24271 16.4759C3.97042 16.0998 4.73722 15.8045 5.52934 15.5956C5.94136 16.9094 6.67437 18.0997 7.66213 19.0589C7.6351 19.0519 7.60774 19.0462 7.58071 19.0389ZM9.65476 19.3292C8.22678 19.1263 6.97501 17.6359 6.18743 15.4351C7.32608 15.1801 8.48804 15.0433 9.65476 15.0269V19.3292ZM9.65476 14.3595C8.41709 14.3758 7.18463 14.5228 5.97786 14.798C5.55884 13.3502 5.33779 11.8523 5.32077 10.3452H9.65476V14.3595ZM9.65476 9.67777H5.32077C5.33775 8.17066 5.55879 6.67277 5.97786 5.22498C7.18463 5.50017 8.41713 5.64717 9.65476 5.66348V9.67777ZM9.65476 4.99605C8.488 4.97978 7.32608 4.843 6.18743 4.58791C6.97501 2.38704 8.22678 0.896658 9.65476 0.693758V4.99605ZM17.1824 4.05296C18.4987 5.63954 19.2521 7.61757 19.3249 9.67777H15.3236C15.3084 8.11543 15.0817 6.56235 14.6499 5.06079C15.5307 4.82548 16.3808 4.48721 17.1824 4.05296ZM12.3936 0.983758C12.4637 1.00111 12.5334 1.02314 12.6028 1.04349C12.6873 1.06819 12.772 1.09288 12.8555 1.11992C12.9259 1.14261 12.9953 1.16697 13.0647 1.19133C13.1468 1.2197 13.2289 1.24873 13.31 1.27977C13.3794 1.30613 13.4478 1.33383 13.5165 1.36186C13.5963 1.39523 13.6761 1.4286 13.7552 1.46198C13.8232 1.49201 13.891 1.52292 13.9584 1.55475C14.0361 1.59146 14.1136 1.62884 14.192 1.66755C14.2587 1.70092 14.3255 1.73429 14.3922 1.77067C14.4676 1.81105 14.5424 1.85243 14.6171 1.89514C14.6839 1.93218 14.7473 1.97023 14.8117 2.00894C14.8851 2.05299 14.9572 2.09838 15.0293 2.14476C15.0927 2.18514 15.1561 2.22619 15.2185 2.26824C15.2896 2.31629 15.3597 2.36602 15.4294 2.41608C15.4908 2.45979 15.5519 2.50384 15.6123 2.54956C15.681 2.60129 15.7485 2.65502 15.8162 2.70908C15.8749 2.7558 15.934 2.80252 15.9917 2.85124C16.0585 2.90664 16.1229 2.96437 16.1876 3.02177C16.2444 3.07216 16.3014 3.12189 16.3568 3.17328C16.4206 3.23268 16.4823 3.29442 16.5444 3.35549C16.5981 3.40855 16.6528 3.46095 16.7056 3.51534C16.7152 3.52569 16.7246 3.53637 16.7343 3.54638C16.0065 3.92256 15.2397 4.21778 14.4476 4.42672C14.0348 3.11279 13.3008 1.92255 12.3122 0.963735C12.3392 0.970743 12.3666 0.976417 12.3936 0.983758ZM10.3222 0.693758C11.7502 0.896658 13.002 2.38704 13.7895 4.58791C12.6509 4.84287 11.4889 4.97965 10.3222 4.99605V0.693758ZM10.3222 5.66348C11.5599 5.64721 12.7923 5.50021 13.9991 5.22498C14.4181 6.67277 14.6392 8.17066 14.6562 9.67777H10.3222V5.66348ZM10.3222 10.3452H14.6562C14.6392 11.8523 14.4182 13.3502 13.9991 14.798C12.7923 14.5228 11.5599 14.3758 10.3222 14.3595V10.3452ZM10.3222 19.3292V15.0269C11.489 15.0432 12.6509 15.18 13.7895 15.4351C13.002 17.6359 11.7502 19.1263 10.3222 19.3292ZM16.7026 16.5073C16.6498 16.5617 16.5954 16.6141 16.5417 16.6672C16.4796 16.7282 16.4176 16.79 16.3538 16.8494C16.2984 16.9011 16.2414 16.9495 16.1846 17.0012C16.1199 17.0586 16.0555 17.116 15.9894 17.1714C15.931 17.2201 15.8716 17.2672 15.8122 17.3146C15.7454 17.368 15.6787 17.4214 15.61 17.4728C15.5492 17.5185 15.4875 17.5629 15.4254 17.6062C15.3563 17.6556 15.2869 17.7064 15.2165 17.7524C15.1534 17.7951 15.0897 17.8365 15.0256 17.8772C14.9542 17.9233 14.8822 17.9678 14.8097 18.0107C14.743 18.0498 14.6792 18.0878 14.6135 18.1255C14.5396 18.1676 14.4653 18.2086 14.3906 18.2486C14.3238 18.2842 14.2571 18.3191 14.1903 18.3531C14.1142 18.3915 14.0375 18.4285 13.9604 18.4649C13.8936 18.4966 13.8242 18.5283 13.7555 18.5583C13.6771 18.5917 13.5976 18.6251 13.5182 18.6585C13.4491 18.6865 13.3804 18.7145 13.311 18.7409C13.2295 18.7719 13.1478 18.801 13.0657 18.8293C12.9963 18.8537 12.9269 18.878 12.8565 18.9007C12.773 18.9278 12.6896 18.9525 12.6045 18.9768C12.5347 18.9975 12.4647 19.0182 12.3943 19.0372C12.3672 19.0442 12.3402 19.0499 12.3132 19.0569C13.301 18.0978 14.034 16.9074 14.446 15.5936C15.238 15.8025 16.0048 16.0976 16.7326 16.4736C16.7216 16.4856 16.7122 16.4973 16.7026 16.5073ZM17.1824 15.97C16.3808 15.5357 15.5307 15.1974 14.6499 14.9622C15.0817 13.4606 15.3084 11.9076 15.3236 10.3452H19.3249C19.2522 12.4054 18.4988 14.3835 17.1824 15.97Z" fill="white"/>
</svg>
