<svg width="277" height="241" viewBox="0 0 277 241" fill="none" xmlns="http://www.w3.org/2000/svg">
  <g opacity="0.75">
  <mask id="mask0_34_6983" style="mask-type:alpha" maskUnits="userSpaceOnUse" x="0" y="0" width="277" height="241">
  <path d="M124.221 1.24764C124.221 1.66068 123.886 1.99528 123.474 1.99528C123.061 1.99528 122.727 1.66068 122.727 1.24764C122.727 0.8346 123.061 0.5 123.474 0.5C123.886 0.5 124.221 0.8346 124.221 1.24764Z" fill="#7900FF" stroke="#6440FB"/>
  <path d="M139.248 1.24764C139.248 1.66068 138.914 1.99528 138.501 1.99528C138.089 1.99528 137.754 1.66068 137.754 1.24764C137.754 0.8346 138.089 0.5 138.501 0.5C138.914 0.5 139.248 0.8346 139.248 1.24764Z" fill="#7900FF" stroke="#6440FB"/>
  <path d="M154.276 1.24764C154.276 1.66068 153.941 1.99528 153.529 1.99528C153.116 1.99528 152.781 1.66068 152.781 1.24764C152.781 0.8346 153.116 0.5 153.529 0.5C153.941 0.5 154.276 0.8346 154.276 1.24764Z" fill="#7900FF" stroke="#6440FB"/>
  <path d="M169.303 1.24764C169.303 1.66068 168.968 1.99528 168.556 1.99528C168.143 1.99528 167.809 1.66068 167.809 1.24764C167.809 0.8346 168.143 0.5 168.556 0.5C168.968 0.5 169.303 0.8346 169.303 1.24764Z" fill="#7900FF" stroke="#6440FB"/>
  <path d="M1.99459 1.24764C1.99459 1.66068 1.65989 1.99528 1.2473 1.99528C0.834706 1.99528 0.5 1.66068 0.5 1.24764C0.5 0.8346 0.834706 0.5 1.2473 0.5C1.65989 0.5 1.99459 0.8346 1.99459 1.24764Z" fill="#7900FF" stroke="#6440FB"/>
  <path d="M185.331 1.24764C185.331 1.39553 185.287 1.54009 185.205 1.66305C185.122 1.78602 185.006 1.88183 184.869 1.93839C184.733 1.99497 184.582 2.00977 184.437 1.98094C184.293 1.9521 184.159 1.88091 184.055 1.77637C183.95 1.67183 183.879 1.53859 183.85 1.39352C183.821 1.24846 183.836 1.09811 183.893 0.961481C183.949 0.824884 184.045 0.708138 184.168 0.625983C184.291 0.543834 184.435 0.5 184.583 0.5C184.781 0.5 184.971 0.578734 185.112 0.718933C185.252 0.859136 185.331 1.04931 185.331 1.24764Z" fill="#7900FF" stroke="#6440FB"/>
  <path d="M17.0219 1.24764C17.0219 1.39553 16.9781 1.54009 16.896 1.66305C16.8138 1.78602 16.6971 1.88183 16.5606 1.93839C16.424 1.99497 16.2738 2.00977 16.1289 1.98094C15.9839 1.9521 15.8508 1.88091 15.7463 1.77637C15.6418 1.67183 15.5706 1.53859 15.5417 1.39352C15.5129 1.24846 15.5277 1.09811 15.5842 0.961481C15.6408 0.824884 15.7366 0.708138 15.8595 0.625983C15.9824 0.543834 16.1269 0.5 16.2746 0.5C16.4728 0.5 16.6629 0.578734 16.803 0.718933C16.9432 0.859136 17.0219 1.04931 17.0219 1.24764Z" fill="#7900FF" stroke="#6440FB"/>
  <path d="M200.362 1.24764C200.362 1.66068 200.027 1.99528 199.614 1.99528C199.202 1.99528 198.867 1.66068 198.867 1.24764C198.867 0.8346 199.202 0.5 199.614 0.5C200.027 0.5 200.362 0.8346 200.362 1.24764Z" fill="#7900FF" stroke="#6440FB"/>
  <path d="M32.0493 1.24764C32.0493 1.66068 31.7146 1.99528 31.302 1.99528C30.8894 1.99528 30.5547 1.66068 30.5547 1.24764C30.5547 0.8346 30.8894 0.5 31.302 0.5C31.7146 0.5 32.0493 0.8346 32.0493 1.24764Z" fill="#7900FF" stroke="#6440FB"/>
  <path d="M215.389 1.24764C215.389 1.66068 215.054 1.99528 214.642 1.99528C214.229 1.99528 213.895 1.66068 213.895 1.24764C213.895 0.8346 214.229 0.5 214.642 0.5C215.054 0.5 215.389 0.8346 215.389 1.24764Z" fill="#7900FF" stroke="#6440FB"/>
  <path d="M48.0805 1.24764C48.0805 1.66068 47.7458 1.99528 47.3332 1.99528C46.9206 1.99528 46.5859 1.66068 46.5859 1.24764C46.5859 0.8346 46.9206 0.5 47.3332 0.5C47.7458 0.5 48.0805 0.8346 48.0805 1.24764Z" fill="#7900FF" stroke="#6440FB"/>
  <path d="M230.416 1.24764C230.416 1.66068 230.082 1.99528 229.669 1.99528C229.257 1.99528 228.922 1.66068 228.922 1.24764C228.922 0.8346 229.257 0.5 229.669 0.5C230.082 0.5 230.416 0.8346 230.416 1.24764Z" fill="#7900FF" stroke="#6440FB"/>
  <path d="M63.1079 1.24764C63.1079 1.66068 62.7732 1.99528 62.3606 1.99528C61.948 1.99528 61.6133 1.66068 61.6133 1.24764C61.6133 0.8346 61.948 0.5 62.3606 0.5C62.7732 0.5 63.1079 0.8346 63.1079 1.24764Z" fill="#7900FF" stroke="#6440FB"/>
  <path d="M246.444 1.24764C246.444 1.66068 246.109 1.99528 245.697 1.99528C245.284 1.99528 244.949 1.66068 244.949 1.24764C244.949 0.8346 245.284 0.5 245.697 0.5C246.109 0.5 246.444 0.8346 246.444 1.24764Z" fill="#7900FF" stroke="#6440FB"/>
  <path d="M78.1352 1.24764C78.1352 1.66068 77.8005 1.99528 77.3879 1.99528C76.9753 1.99528 76.6406 1.66068 76.6406 1.24764C76.6406 0.8346 76.9753 0.5 77.3879 0.5C77.8005 0.5 78.1352 0.8346 78.1352 1.24764Z" fill="#7900FF" stroke="#6440FB"/>
  <path d="M261.471 1.24764C261.471 1.66068 261.136 1.99528 260.724 1.99528C260.311 1.99528 259.977 1.66068 259.977 1.24764C259.977 0.8346 260.311 0.5 260.724 0.5C261.136 0.5 261.471 0.8346 261.471 1.24764Z" fill="#7900FF" stroke="#6440FB"/>
  <path d="M93.1626 1.24764C93.1626 1.66068 92.8279 1.99528 92.4153 1.99528C92.0027 1.99528 91.668 1.66068 91.668 1.24764C91.668 0.8346 92.0027 0.5 92.4153 0.5C92.8279 0.5 93.1626 0.8346 93.1626 1.24764Z" fill="#7900FF" stroke="#6440FB"/>
  <path d="M276.498 1.24764C276.498 1.66068 276.164 1.99528 275.751 1.99528C275.339 1.99528 275.004 1.66068 275.004 1.24764C275.004 0.8346 275.339 0.5 275.751 0.5C276.164 0.5 276.498 0.8346 276.498 1.24764Z" fill="#7900FF" stroke="#6440FB"/>
  <path d="M109.194 1.24764C109.194 1.66068 108.859 1.99528 108.447 1.99528C108.034 1.99528 107.699 1.66068 107.699 1.24764C107.699 0.8346 108.034 0.5 108.447 0.5C108.859 0.5 109.194 0.8346 109.194 1.24764Z" fill="#7900FF" stroke="#6440FB"/>
  <path d="M124.221 18.2789C124.221 18.6919 123.886 19.0265 123.474 19.0265C123.061 19.0265 122.727 18.6919 122.727 18.2789C122.727 17.8659 123.061 17.5312 123.474 17.5312C123.886 17.5312 124.221 17.8659 124.221 18.2789Z" fill="#7900FF" stroke="#6440FB"/>
  <path d="M139.248 18.2789C139.248 18.6919 138.914 19.0265 138.501 19.0265C138.089 19.0265 137.754 18.6919 137.754 18.2789C137.754 17.8659 138.089 17.5312 138.501 17.5312C138.914 17.5312 139.248 17.8659 139.248 18.2789Z" fill="#7900FF" stroke="#6440FB"/>
  <path d="M154.276 18.2789C154.276 18.6919 153.941 19.0265 153.529 19.0265C153.116 19.0265 152.781 18.6919 152.781 18.2789C152.781 17.8659 153.116 17.5312 153.529 17.5312C153.941 17.5312 154.276 17.8659 154.276 18.2789Z" fill="#7900FF" stroke="#6440FB"/>
  <path d="M169.303 18.2789C169.303 18.6919 168.968 19.0265 168.556 19.0265C168.143 19.0265 167.809 18.6919 167.809 18.2789C167.809 17.8659 168.143 17.5312 168.556 17.5312C168.968 17.5312 169.303 17.8659 169.303 18.2789Z" fill="#7900FF" stroke="#6440FB"/>
  <path d="M1.99459 18.2789C1.99459 18.6919 1.65989 19.0265 1.2473 19.0265C0.834706 19.0265 0.5 18.6919 0.5 18.2789C0.5 17.8659 0.834706 17.5312 1.2473 17.5312C1.65989 17.5312 1.99459 17.8659 1.99459 18.2789Z" fill="#7900FF" stroke="#6440FB"/>
  <path d="M185.331 18.2789C185.331 18.4268 185.287 18.5713 185.205 18.6943C185.122 18.8173 185.006 18.9131 184.869 18.9696C184.733 19.0262 184.582 19.041 184.437 19.0122C184.293 18.9833 184.159 18.9122 184.055 18.8076C183.95 18.7031 183.879 18.5698 183.85 18.4248C183.821 18.2797 183.836 18.1294 183.893 17.9927C183.949 17.8561 184.045 17.7394 184.168 17.6572C184.291 17.5751 184.435 17.5312 184.583 17.5312C184.781 17.5312 184.971 17.61 185.112 17.7502C185.252 17.8904 185.331 18.0806 185.331 18.2789Z" fill="#7900FF" stroke="#6440FB"/>
  <path d="M17.0219 18.2789C17.0219 18.4268 16.9781 18.5713 16.896 18.6943C16.8138 18.8173 16.6971 18.9131 16.5606 18.9696C16.424 19.0262 16.2738 19.041 16.1289 19.0122C15.9839 18.9833 15.8508 18.9122 15.7463 18.8076C15.6418 18.7031 15.5706 18.5698 15.5417 18.4248C15.5129 18.2797 15.5277 18.1294 15.5842 17.9927C15.6408 17.8561 15.7366 17.7394 15.8595 17.6572C15.9824 17.5751 16.1269 17.5312 16.2746 17.5312C16.4728 17.5312 16.6629 17.61 16.803 17.7502C16.9432 17.8904 17.0219 18.0806 17.0219 18.2789Z" fill="#7900FF" stroke="#6440FB"/>
  <path d="M200.362 18.2789C200.362 18.6919 200.027 19.0265 199.614 19.0265C199.202 19.0265 198.867 18.6919 198.867 18.2789C198.867 17.8659 199.202 17.5312 199.614 17.5312C200.027 17.5312 200.362 17.8659 200.362 18.2789Z" fill="#7900FF" stroke="#6440FB"/>
  <path d="M32.0493 18.2789C32.0493 18.6919 31.7146 19.0265 31.302 19.0265C30.8894 19.0265 30.5547 18.6919 30.5547 18.2789C30.5547 17.8659 30.8894 17.5312 31.302 17.5312C31.7146 17.5312 32.0493 17.8659 32.0493 18.2789Z" fill="#7900FF" stroke="#6440FB"/>
  <path d="M215.389 18.2789C215.389 18.6919 215.054 19.0265 214.642 19.0265C214.229 19.0265 213.895 18.6919 213.895 18.2789C213.895 17.8659 214.229 17.5312 214.642 17.5312C215.054 17.5312 215.389 17.8659 215.389 18.2789Z" fill="#7900FF" stroke="#6440FB"/>
  <path d="M48.0805 18.2789C48.0805 18.6919 47.7458 19.0265 47.3332 19.0265C46.9206 19.0265 46.5859 18.6919 46.5859 18.2789C46.5859 17.8659 46.9206 17.5312 47.3332 17.5312C47.7458 17.5312 48.0805 17.8659 48.0805 18.2789Z" fill="#7900FF" stroke="#6440FB"/>
  <path d="M230.416 18.2789C230.416 18.6919 230.082 19.0265 229.669 19.0265C229.257 19.0265 228.922 18.6919 228.922 18.2789C228.922 17.8659 229.257 17.5312 229.669 17.5312C230.082 17.5312 230.416 17.8659 230.416 18.2789Z" fill="#7900FF" stroke="#6440FB"/>
  <path d="M63.1079 18.2789C63.1079 18.6919 62.7732 19.0265 62.3606 19.0265C61.948 19.0265 61.6133 18.6919 61.6133 18.2789C61.6133 17.8659 61.948 17.5312 62.3606 17.5312C62.7732 17.5312 63.1079 17.8659 63.1079 18.2789Z" fill="#7900FF" stroke="#6440FB"/>
  <path d="M246.444 18.2789C246.444 18.6919 246.109 19.0265 245.697 19.0265C245.284 19.0265 244.949 18.6919 244.949 18.2789C244.949 17.8659 245.284 17.5312 245.697 17.5312C246.109 17.5312 246.444 17.8659 246.444 18.2789Z" fill="#7900FF" stroke="#6440FB"/>
  <path d="M78.1352 18.2789C78.1352 18.6919 77.8005 19.0265 77.3879 19.0265C76.9753 19.0265 76.6406 18.6919 76.6406 18.2789C76.6406 17.8659 76.9753 17.5312 77.3879 17.5312C77.8005 17.5312 78.1352 17.8659 78.1352 18.2789Z" fill="#7900FF" stroke="#6440FB"/>
  <path d="M261.471 18.2789C261.471 18.6919 261.136 19.0265 260.724 19.0265C260.311 19.0265 259.977 18.6919 259.977 18.2789C259.977 17.8659 260.311 17.5312 260.724 17.5312C261.136 17.5312 261.471 17.8659 261.471 18.2789Z" fill="#7900FF" stroke="#6440FB"/>
  <path d="M93.1626 18.2789C93.1626 18.6919 92.8279 19.0265 92.4153 19.0265C92.0027 19.0265 91.668 18.6919 91.668 18.2789C91.668 17.8659 92.0027 17.5312 92.4153 17.5312C92.8279 17.5312 93.1626 17.8659 93.1626 18.2789Z" fill="#7900FF" stroke="#6440FB"/>
  <path d="M276.498 18.2789C276.498 18.6919 276.164 19.0265 275.751 19.0265C275.339 19.0265 275.004 18.6919 275.004 18.2789C275.004 17.8659 275.339 17.5312 275.751 17.5312C276.164 17.5312 276.498 17.8659 276.498 18.2789Z" fill="#7900FF" stroke="#6440FB"/>
  <path d="M109.194 18.2789C109.194 18.6919 108.859 19.0265 108.447 19.0265C108.034 19.0265 107.699 18.6919 107.699 18.2789C107.699 17.8659 108.034 17.5312 108.447 17.5312C108.859 17.5312 109.194 17.8659 109.194 18.2789Z" fill="#7900FF" stroke="#6440FB"/>
  <path d="M124.221 35.318C124.221 35.731 123.886 36.0656 123.474 36.0656C123.061 36.0656 122.727 35.731 122.727 35.318C122.727 34.9049 123.061 34.5703 123.474 34.5703C123.886 34.5703 124.221 34.9049 124.221 35.318Z" fill="#7900FF" stroke="#6440FB"/>
  <path d="M139.248 35.318C139.248 35.731 138.914 36.0656 138.501 36.0656C138.089 36.0656 137.754 35.731 137.754 35.318C137.754 34.9049 138.089 34.5703 138.501 34.5703C138.914 34.5703 139.248 34.9049 139.248 35.318Z" fill="#7900FF" stroke="#6440FB"/>
  <path d="M154.276 35.318C154.276 35.731 153.941 36.0656 153.529 36.0656C153.116 36.0656 152.781 35.731 152.781 35.318C152.781 34.9049 153.116 34.5703 153.529 34.5703C153.941 34.5703 154.276 34.9049 154.276 35.318Z" fill="#7900FF" stroke="#6440FB"/>
  <path d="M169.303 35.318C169.303 35.731 168.968 36.0656 168.556 36.0656C168.143 36.0656 167.809 35.731 167.809 35.318C167.809 34.9049 168.143 34.5703 168.556 34.5703C168.968 34.5703 169.303 34.9049 169.303 35.318Z" fill="#7900FF" stroke="#6440FB"/>
  <path d="M1.99459 35.318C1.99459 35.731 1.65989 36.0656 1.2473 36.0656C0.834706 36.0656 0.5 35.731 0.5 35.318C0.5 34.9049 0.834706 34.5703 1.2473 34.5703C1.65989 34.5703 1.99459 34.9049 1.99459 35.318Z" fill="#7900FF" stroke="#6440FB"/>
  <path d="M185.331 35.3179C185.331 35.4658 185.287 35.6104 185.205 35.7334C185.122 35.8563 185.006 35.9521 184.869 36.0087C184.733 36.0653 184.582 36.0801 184.437 36.0512C184.293 36.0224 184.159 35.9512 184.055 35.8467C183.95 35.7421 183.879 35.6089 183.85 35.4638C183.821 35.3188 183.836 35.1684 183.893 35.0318C183.949 34.8952 184.045 34.7785 184.168 34.6963C184.291 34.6141 184.435 34.5703 184.583 34.5703C184.781 34.5703 184.971 34.649 185.112 34.7892C185.252 34.9294 185.331 35.1196 185.331 35.3179Z" fill="#7900FF" stroke="#6440FB"/>
  <path d="M17.0219 35.3179C17.0219 35.4658 16.9781 35.6104 16.896 35.7334C16.8138 35.8563 16.6971 35.9521 16.5606 36.0087C16.424 36.0653 16.2738 36.0801 16.1289 36.0512C15.9839 36.0224 15.8508 35.9512 15.7463 35.8467C15.6418 35.7421 15.5706 35.6089 15.5417 35.4638C15.5129 35.3188 15.5277 35.1684 15.5842 35.0318C15.6408 34.8952 15.7366 34.7785 15.8595 34.6963C15.9824 34.6141 16.1269 34.5703 16.2746 34.5703C16.4728 34.5703 16.6629 34.649 16.803 34.7892C16.9432 34.9294 17.0219 35.1196 17.0219 35.3179Z" fill="#7900FF" stroke="#6440FB"/>
  <path d="M200.362 35.318C200.362 35.731 200.027 36.0656 199.614 36.0656C199.202 36.0656 198.867 35.731 198.867 35.318C198.867 34.9049 199.202 34.5703 199.614 34.5703C200.027 34.5703 200.362 34.9049 200.362 35.318Z" fill="#7900FF" stroke="#6440FB"/>
  <path d="M32.0493 35.318C32.0493 35.731 31.7146 36.0656 31.302 36.0656C30.8894 36.0656 30.5547 35.731 30.5547 35.318C30.5547 34.9049 30.8894 34.5703 31.302 34.5703C31.7146 34.5703 32.0493 34.9049 32.0493 35.318Z" fill="#7900FF" stroke="#6440FB"/>
  <path d="M215.389 35.318C215.389 35.731 215.054 36.0656 214.642 36.0656C214.229 36.0656 213.895 35.731 213.895 35.318C213.895 34.9049 214.229 34.5703 214.642 34.5703C215.054 34.5703 215.389 34.9049 215.389 35.318Z" fill="#7900FF" stroke="#6440FB"/>
  <path d="M48.0805 35.318C48.0805 35.731 47.7458 36.0656 47.3332 36.0656C46.9206 36.0656 46.5859 35.731 46.5859 35.318C46.5859 34.9049 46.9206 34.5703 47.3332 34.5703C47.7458 34.5703 48.0805 34.9049 48.0805 35.318Z" fill="#7900FF" stroke="#6440FB"/>
  <path d="M230.416 35.318C230.416 35.731 230.082 36.0656 229.669 36.0656C229.257 36.0656 228.922 35.731 228.922 35.318C228.922 34.9049 229.257 34.5703 229.669 34.5703C230.082 34.5703 230.416 34.9049 230.416 35.318Z" fill="#7900FF" stroke="#6440FB"/>
  <path d="M63.1079 35.318C63.1079 35.731 62.7732 36.0656 62.3606 36.0656C61.948 36.0656 61.6133 35.731 61.6133 35.318C61.6133 34.9049 61.948 34.5703 62.3606 34.5703C62.7732 34.5703 63.1079 34.9049 63.1079 35.318Z" fill="#7900FF" stroke="#6440FB"/>
  <path d="M246.444 35.318C246.444 35.731 246.109 36.0656 245.697 36.0656C245.284 36.0656 244.949 35.731 244.949 35.318C244.949 34.9049 245.284 34.5703 245.697 34.5703C246.109 34.5703 246.444 34.9049 246.444 35.318Z" fill="#7900FF" stroke="#6440FB"/>
  <path d="M78.1352 35.318C78.1352 35.731 77.8005 36.0656 77.3879 36.0656C76.9753 36.0656 76.6406 35.731 76.6406 35.318C76.6406 34.9049 76.9753 34.5703 77.3879 34.5703C77.8005 34.5703 78.1352 34.9049 78.1352 35.318Z" fill="#7900FF" stroke="#6440FB"/>
  <path d="M261.471 35.318C261.471 35.731 261.136 36.0656 260.724 36.0656C260.311 36.0656 259.977 35.731 259.977 35.318C259.977 34.9049 260.311 34.5703 260.724 34.5703C261.136 34.5703 261.471 34.9049 261.471 35.318Z" fill="#7900FF" stroke="#6440FB"/>
  <path d="M93.1626 35.318C93.1626 35.731 92.8279 36.0656 92.4153 36.0656C92.0027 36.0656 91.668 35.731 91.668 35.318C91.668 34.9049 92.0027 34.5703 92.4153 34.5703C92.8279 34.5703 93.1626 34.9049 93.1626 35.318Z" fill="#7900FF" stroke="#6440FB"/>
  <path d="M276.498 35.318C276.498 35.731 276.164 36.0656 275.751 36.0656C275.339 36.0656 275.004 35.731 275.004 35.318C275.004 34.9049 275.339 34.5703 275.751 34.5703C276.164 34.5703 276.498 34.9049 276.498 35.318Z" fill="#7900FF" stroke="#6440FB"/>
  <path d="M109.194 35.318C109.194 35.731 108.859 36.0656 108.447 36.0656C108.034 36.0656 107.699 35.731 107.699 35.318C107.699 34.9049 108.034 34.5703 108.447 34.5703C108.859 34.5703 109.194 34.9049 109.194 35.318Z" fill="#7900FF" stroke="#6440FB"/>
  <path d="M124.221 52.357C124.221 52.7701 123.886 53.1047 123.474 53.1047C123.061 53.1047 122.727 52.7701 122.727 52.357C122.727 51.944 123.061 51.6094 123.474 51.6094C123.886 51.6094 124.221 51.944 124.221 52.357Z" fill="#7900FF" stroke="#6440FB"/>
  <path d="M139.248 52.357C139.248 52.7701 138.914 53.1047 138.501 53.1047C138.089 53.1047 137.754 52.7701 137.754 52.357C137.754 51.944 138.089 51.6094 138.501 51.6094C138.914 51.6094 139.248 51.944 139.248 52.357Z" fill="#7900FF" stroke="#6440FB"/>
  <path d="M154.276 52.357C154.276 52.7701 153.941 53.1047 153.529 53.1047C153.116 53.1047 152.781 52.7701 152.781 52.357C152.781 51.944 153.116 51.6094 153.529 51.6094C153.941 51.6094 154.276 51.944 154.276 52.357Z" fill="#7900FF" stroke="#6440FB"/>
  <path d="M169.303 52.357C169.303 52.7701 168.968 53.1047 168.556 53.1047C168.143 53.1047 167.809 52.7701 167.809 52.357C167.809 51.944 168.143 51.6094 168.556 51.6094C168.968 51.6094 169.303 51.944 169.303 52.357Z" fill="#7900FF" stroke="#6440FB"/>
  <path d="M1.99459 52.357C1.99459 52.7701 1.65989 53.1047 1.2473 53.1047C0.834706 53.1047 0.5 52.7701 0.5 52.357C0.5 51.944 0.834706 51.6094 1.2473 51.6094C1.65989 51.6094 1.99459 51.944 1.99459 52.357Z" fill="#7900FF" stroke="#6440FB"/>
  <path d="M185.331 52.357C185.331 52.5049 185.287 52.6495 185.205 52.7724C185.122 52.8954 185.006 52.9912 184.869 53.0478C184.733 53.1043 184.582 53.1191 184.437 53.0903C184.293 53.0615 184.159 52.9903 184.055 52.8857C183.95 52.7812 183.879 52.648 183.85 52.5029C183.821 52.3578 183.836 52.2075 183.893 52.0709C183.949 51.9343 184.045 51.8175 184.168 51.7354C184.291 51.6532 184.435 51.6094 184.583 51.6094C184.781 51.6094 184.971 51.6881 185.112 51.8283C185.252 51.9685 185.331 52.1587 185.331 52.357Z" fill="#7900FF" stroke="#6440FB"/>
  <path d="M17.0219 52.357C17.0219 52.5049 16.9781 52.6495 16.896 52.7724C16.8138 52.8954 16.6971 52.9912 16.5606 53.0478C16.424 53.1043 16.2738 53.1191 16.1289 53.0903C15.9839 53.0615 15.8508 52.9903 15.7463 52.8857C15.6418 52.7812 15.5706 52.648 15.5417 52.5029C15.5129 52.3578 15.5277 52.2075 15.5842 52.0709C15.6408 51.9343 15.7366 51.8175 15.8595 51.7354C15.9824 51.6532 16.1269 51.6094 16.2746 51.6094C16.4728 51.6094 16.6629 51.6881 16.803 51.8283C16.9432 51.9685 17.0219 52.1587 17.0219 52.357Z" fill="#7900FF" stroke="#6440FB"/>
  <path d="M200.362 52.357C200.362 52.7701 200.027 53.1047 199.614 53.1047C199.202 53.1047 198.867 52.7701 198.867 52.357C198.867 51.944 199.202 51.6094 199.614 51.6094C200.027 51.6094 200.362 51.944 200.362 52.357Z" fill="#7900FF" stroke="#6440FB"/>
  <path d="M32.0493 52.357C32.0493 52.7701 31.7146 53.1047 31.302 53.1047C30.8894 53.1047 30.5547 52.7701 30.5547 52.357C30.5547 51.944 30.8894 51.6094 31.302 51.6094C31.7146 51.6094 32.0493 51.944 32.0493 52.357Z" fill="#7900FF" stroke="#6440FB"/>
  <path d="M215.389 52.357C215.389 52.7701 215.054 53.1047 214.642 53.1047C214.229 53.1047 213.895 52.7701 213.895 52.357C213.895 51.944 214.229 51.6094 214.642 51.6094C215.054 51.6094 215.389 51.944 215.389 52.357Z" fill="#7900FF" stroke="#6440FB"/>
  <path d="M48.0805 52.357C48.0805 52.7701 47.7458 53.1047 47.3332 53.1047C46.9206 53.1047 46.5859 52.7701 46.5859 52.357C46.5859 51.944 46.9206 51.6094 47.3332 51.6094C47.7458 51.6094 48.0805 51.944 48.0805 52.357Z" fill="#7900FF" stroke="#6440FB"/>
  <path d="M230.416 52.357C230.416 52.7701 230.082 53.1047 229.669 53.1047C229.257 53.1047 228.922 52.7701 228.922 52.357C228.922 51.944 229.257 51.6094 229.669 51.6094C230.082 51.6094 230.416 51.944 230.416 52.357Z" fill="#7900FF" stroke="#6440FB"/>
  <path d="M63.1079 52.357C63.1079 52.7701 62.7732 53.1047 62.3606 53.1047C61.948 53.1047 61.6133 52.7701 61.6133 52.357C61.6133 51.944 61.948 51.6094 62.3606 51.6094C62.7732 51.6094 63.1079 51.944 63.1079 52.357Z" fill="#7900FF" stroke="#6440FB"/>
  <path d="M246.444 52.357C246.444 52.7701 246.109 53.1047 245.697 53.1047C245.284 53.1047 244.949 52.7701 244.949 52.357C244.949 51.944 245.284 51.6094 245.697 51.6094C246.109 51.6094 246.444 51.944 246.444 52.357Z" fill="#7900FF" stroke="#6440FB"/>
  <path d="M78.1352 52.357C78.1352 52.7701 77.8005 53.1047 77.3879 53.1047C76.9753 53.1047 76.6406 52.7701 76.6406 52.357C76.6406 51.944 76.9753 51.6094 77.3879 51.6094C77.8005 51.6094 78.1352 51.944 78.1352 52.357Z" fill="#7900FF" stroke="#6440FB"/>
  <path d="M261.471 52.357C261.471 52.7701 261.136 53.1047 260.724 53.1047C260.311 53.1047 259.977 52.7701 259.977 52.357C259.977 51.944 260.311 51.6094 260.724 51.6094C261.136 51.6094 261.471 51.944 261.471 52.357Z" fill="#7900FF" stroke="#6440FB"/>
  <path d="M93.1626 52.357C93.1626 52.7701 92.8279 53.1047 92.4153 53.1047C92.0027 53.1047 91.668 52.7701 91.668 52.357C91.668 51.944 92.0027 51.6094 92.4153 51.6094C92.8279 51.6094 93.1626 51.944 93.1626 52.357Z" fill="#7900FF" stroke="#6440FB"/>
  <path d="M276.498 52.357C276.498 52.7701 276.164 53.1047 275.751 53.1047C275.339 53.1047 275.004 52.7701 275.004 52.357C275.004 51.944 275.339 51.6094 275.751 51.6094C276.164 51.6094 276.498 51.944 276.498 52.357Z" fill="#7900FF" stroke="#6440FB"/>
  <path d="M109.194 52.357C109.194 52.7701 108.859 53.1047 108.447 53.1047C108.034 53.1047 107.699 52.7701 107.699 52.357C107.699 51.944 108.034 51.6094 108.447 51.6094C108.859 51.6094 109.194 51.944 109.194 52.357Z" fill="#7900FF" stroke="#6440FB"/>
  <path d="M124.221 69.3961C124.221 69.8091 123.886 70.1437 123.474 70.1437C123.061 70.1437 122.727 69.8091 122.727 69.3961C122.727 68.983 123.061 68.6484 123.474 68.6484C123.886 68.6484 124.221 68.983 124.221 69.3961Z" fill="#7900FF" stroke="#6440FB"/>
  <path d="M139.248 69.3961C139.248 69.8091 138.914 70.1437 138.501 70.1437C138.089 70.1437 137.754 69.8091 137.754 69.3961C137.754 68.983 138.089 68.6484 138.501 68.6484C138.914 68.6484 139.248 68.983 139.248 69.3961Z" fill="#7900FF" stroke="#6440FB"/>
  <path d="M154.276 69.3961C154.276 69.8091 153.941 70.1437 153.529 70.1437C153.116 70.1437 152.781 69.8091 152.781 69.3961C152.781 68.983 153.116 68.6484 153.529 68.6484C153.941 68.6484 154.276 68.983 154.276 69.3961Z" fill="#7900FF" stroke="#6440FB"/>
  <path d="M169.303 69.3961C169.303 69.8091 168.968 70.1437 168.556 70.1437C168.143 70.1437 167.809 69.8091 167.809 69.3961C167.809 68.983 168.143 68.6484 168.556 68.6484C168.968 68.6484 169.303 68.983 169.303 69.3961Z" fill="#7900FF" stroke="#6440FB"/>
  <path d="M1.99459 69.3961C1.99459 69.8091 1.65989 70.1437 1.2473 70.1437C0.834706 70.1437 0.5 69.8091 0.5 69.3961C0.5 68.983 0.834706 68.6484 1.2473 68.6484C1.65989 68.6484 1.99459 68.983 1.99459 69.3961Z" fill="#7900FF" stroke="#6440FB"/>
  <path d="M185.331 69.3961C185.331 69.544 185.287 69.6885 185.205 69.8115C185.122 69.9345 185.006 70.0303 184.869 70.0868C184.733 70.1434 184.582 70.1582 184.437 70.1294C184.293 70.1005 184.159 70.0294 184.055 69.9248C183.95 69.8203 183.879 69.687 183.85 69.542C183.821 69.3969 183.836 69.2465 183.893 69.1099C183.949 68.9733 184.045 68.8566 184.168 68.7744C184.291 68.6923 184.435 68.6484 184.583 68.6484C184.781 68.6484 184.971 68.7272 185.112 68.8674C185.252 69.0076 185.331 69.1977 185.331 69.3961Z" fill="#7900FF" stroke="#6440FB"/>
  <path d="M17.0219 69.3961C17.0219 69.544 16.9781 69.6885 16.896 69.8115C16.8138 69.9345 16.6971 70.0303 16.5606 70.0868C16.424 70.1434 16.2738 70.1582 16.1289 70.1294C15.9839 70.1005 15.8508 70.0294 15.7463 69.9248C15.6418 69.8203 15.5706 69.687 15.5417 69.542C15.5129 69.3969 15.5277 69.2465 15.5842 69.1099C15.6408 68.9733 15.7366 68.8566 15.8595 68.7744C15.9824 68.6923 16.1269 68.6484 16.2746 68.6484C16.4728 68.6484 16.6629 68.7272 16.803 68.8674C16.9432 69.0076 17.0219 69.1977 17.0219 69.3961Z" fill="#7900FF" stroke="#6440FB"/>
  <path d="M200.362 69.3961C200.362 69.8091 200.027 70.1437 199.614 70.1437C199.202 70.1437 198.867 69.8091 198.867 69.3961C198.867 68.983 199.202 68.6484 199.614 68.6484C200.027 68.6484 200.362 68.983 200.362 69.3961Z" fill="#7900FF" stroke="#6440FB"/>
  <path d="M32.0493 69.3961C32.0493 69.8091 31.7146 70.1437 31.302 70.1437C30.8894 70.1437 30.5547 69.8091 30.5547 69.3961C30.5547 68.983 30.8894 68.6484 31.302 68.6484C31.7146 68.6484 32.0493 68.983 32.0493 69.3961Z" fill="#7900FF" stroke="#6440FB"/>
  <path d="M215.389 69.3961C215.389 69.8091 215.054 70.1437 214.642 70.1437C214.229 70.1437 213.895 69.8091 213.895 69.3961C213.895 68.983 214.229 68.6484 214.642 68.6484C215.054 68.6484 215.389 68.983 215.389 69.3961Z" fill="#7900FF" stroke="#6440FB"/>
  <path d="M48.0805 69.3961C48.0805 69.8091 47.7458 70.1437 47.3332 70.1437C46.9206 70.1437 46.5859 69.8091 46.5859 69.3961C46.5859 68.983 46.9206 68.6484 47.3332 68.6484C47.7458 68.6484 48.0805 68.983 48.0805 69.3961Z" fill="#7900FF" stroke="#6440FB"/>
  <path d="M230.416 69.3961C230.416 69.8091 230.082 70.1437 229.669 70.1437C229.257 70.1437 228.922 69.8091 228.922 69.3961C228.922 68.983 229.257 68.6484 229.669 68.6484C230.082 68.6484 230.416 68.983 230.416 69.3961Z" fill="#7900FF" stroke="#6440FB"/>
  <path d="M63.1079 69.3961C63.1079 69.8091 62.7732 70.1437 62.3606 70.1437C61.948 70.1437 61.6133 69.8091 61.6133 69.3961C61.6133 68.983 61.948 68.6484 62.3606 68.6484C62.7732 68.6484 63.1079 68.983 63.1079 69.3961Z" fill="#7900FF" stroke="#6440FB"/>
  <path d="M246.444 69.3961C246.444 69.8091 246.109 70.1437 245.697 70.1437C245.284 70.1437 244.949 69.8091 244.949 69.3961C244.949 68.983 245.284 68.6484 245.697 68.6484C246.109 68.6484 246.444 68.983 246.444 69.3961Z" fill="#7900FF" stroke="#6440FB"/>
  <path d="M78.1352 69.3961C78.1352 69.8091 77.8005 70.1437 77.3879 70.1437C76.9753 70.1437 76.6406 69.8091 76.6406 69.3961C76.6406 68.983 76.9753 68.6484 77.3879 68.6484C77.8005 68.6484 78.1352 68.983 78.1352 69.3961Z" fill="#7900FF" stroke="#6440FB"/>
  <path d="M261.471 69.3961C261.471 69.8091 261.136 70.1437 260.724 70.1437C260.311 70.1437 259.977 69.8091 259.977 69.3961C259.977 68.983 260.311 68.6484 260.724 68.6484C261.136 68.6484 261.471 68.983 261.471 69.3961Z" fill="#7900FF" stroke="#6440FB"/>
  <path d="M93.1626 69.3961C93.1626 69.8091 92.8279 70.1437 92.4153 70.1437C92.0027 70.1437 91.668 69.8091 91.668 69.3961C91.668 68.983 92.0027 68.6484 92.4153 68.6484C92.8279 68.6484 93.1626 68.983 93.1626 69.3961Z" fill="#7900FF" stroke="#6440FB"/>
  <path d="M276.498 69.3961C276.498 69.8091 276.164 70.1437 275.751 70.1437C275.339 70.1437 275.004 69.8091 275.004 69.3961C275.004 68.983 275.339 68.6484 275.751 68.6484C276.164 68.6484 276.498 68.983 276.498 69.3961Z" fill="#7900FF" stroke="#6440FB"/>
  <path d="M109.194 69.3961C109.194 69.8091 108.859 70.1437 108.447 70.1437C108.034 70.1437 107.699 69.8091 107.699 69.3961C107.699 68.983 108.034 68.6484 108.447 68.6484C108.859 68.6484 109.194 68.983 109.194 69.3961Z" fill="#7900FF" stroke="#6440FB"/>
  <path d="M124.221 86.4273C124.221 86.8404 123.886 87.175 123.474 87.175C123.061 87.175 122.727 86.8404 122.727 86.4273C122.727 86.0143 123.061 85.6797 123.474 85.6797C123.886 85.6797 124.221 86.0143 124.221 86.4273Z" fill="#7900FF" stroke="#6440FB"/>
  <path d="M139.248 86.4273C139.248 86.8404 138.914 87.175 138.501 87.175C138.089 87.175 137.754 86.8404 137.754 86.4273C137.754 86.0143 138.089 85.6797 138.501 85.6797C138.914 85.6797 139.248 86.0143 139.248 86.4273Z" fill="#7900FF" stroke="#6440FB"/>
  <path d="M154.276 86.4273C154.276 86.8404 153.941 87.175 153.529 87.175C153.116 87.175 152.781 86.8404 152.781 86.4273C152.781 86.0143 153.116 85.6797 153.529 85.6797C153.941 85.6797 154.276 86.0143 154.276 86.4273Z" fill="#7900FF" stroke="#6440FB"/>
  <path d="M169.303 86.4273C169.303 86.8404 168.968 87.175 168.556 87.175C168.143 87.175 167.809 86.8404 167.809 86.4273C167.809 86.0143 168.143 85.6797 168.556 85.6797C168.968 85.6797 169.303 86.0143 169.303 86.4273Z" fill="#7900FF" stroke="#6440FB"/>
  <path d="M1.99459 86.4273C1.99459 86.8404 1.65989 87.175 1.2473 87.175C0.834706 87.175 0.5 86.8404 0.5 86.4273C0.5 86.0143 0.834706 85.6797 1.2473 85.6797C1.65989 85.6797 1.99459 86.0143 1.99459 86.4273Z" fill="#7900FF" stroke="#6440FB"/>
  <path d="M185.331 86.4273C185.331 86.5752 185.287 86.7198 185.205 86.8427C185.122 86.9657 185.006 87.0615 184.869 87.1181C184.733 87.1747 184.582 87.1895 184.437 87.1606C184.293 87.1318 184.159 87.0606 184.055 86.9561C183.95 86.8515 183.879 86.7183 183.85 86.5732C183.821 86.4282 183.836 86.2778 183.893 86.1412C183.949 86.0046 184.045 85.8878 184.168 85.8057C184.291 85.7235 184.435 85.6797 184.583 85.6797C184.781 85.6797 184.971 85.7584 185.112 85.8986C185.252 86.0388 185.331 86.229 185.331 86.4273Z" fill="#7900FF" stroke="#6440FB"/>
  <path d="M17.0219 86.4273C17.0219 86.5752 16.9781 86.7198 16.896 86.8427C16.8138 86.9657 16.6971 87.0615 16.5606 87.1181C16.424 87.1747 16.2738 87.1895 16.1289 87.1606C15.9839 87.1318 15.8508 87.0606 15.7463 86.9561C15.6418 86.8515 15.5706 86.7183 15.5417 86.5732C15.5129 86.4282 15.5277 86.2778 15.5842 86.1412C15.6408 86.0046 15.7366 85.8878 15.8595 85.8057C15.9824 85.7235 16.1269 85.6797 16.2746 85.6797C16.4728 85.6797 16.6629 85.7584 16.803 85.8986C16.9432 86.0388 17.0219 86.229 17.0219 86.4273Z" fill="#7900FF" stroke="#6440FB"/>
  <path d="M200.362 86.4273C200.362 86.8404 200.027 87.175 199.614 87.175C199.202 87.175 198.867 86.8404 198.867 86.4273C198.867 86.0143 199.202 85.6797 199.614 85.6797C200.027 85.6797 200.362 86.0143 200.362 86.4273Z" fill="#7900FF" stroke="#6440FB"/>
  <path d="M32.0493 86.4273C32.0493 86.8404 31.7146 87.175 31.302 87.175C30.8894 87.175 30.5547 86.8404 30.5547 86.4273C30.5547 86.0143 30.8894 85.6797 31.302 85.6797C31.7146 85.6797 32.0493 86.0143 32.0493 86.4273Z" fill="#7900FF" stroke="#6440FB"/>
  <path d="M215.389 86.4273C215.389 86.8404 215.054 87.175 214.642 87.175C214.229 87.175 213.895 86.8404 213.895 86.4273C213.895 86.0143 214.229 85.6797 214.642 85.6797C215.054 85.6797 215.389 86.0143 215.389 86.4273Z" fill="#7900FF" stroke="#6440FB"/>
  <path d="M48.0805 86.4273C48.0805 86.8404 47.7458 87.175 47.3332 87.175C46.9206 87.175 46.5859 86.8404 46.5859 86.4273C46.5859 86.0143 46.9206 85.6797 47.3332 85.6797C47.7458 85.6797 48.0805 86.0143 48.0805 86.4273Z" fill="#7900FF" stroke="#6440FB"/>
  <path d="M230.416 86.4273C230.416 86.8404 230.082 87.175 229.669 87.175C229.257 87.175 228.922 86.8404 228.922 86.4273C228.922 86.0143 229.257 85.6797 229.669 85.6797C230.082 85.6797 230.416 86.0143 230.416 86.4273Z" fill="#7900FF" stroke="#6440FB"/>
  <path d="M63.1079 86.4273C63.1079 86.8404 62.7732 87.175 62.3606 87.175C61.948 87.175 61.6133 86.8404 61.6133 86.4273C61.6133 86.0143 61.948 85.6797 62.3606 85.6797C62.7732 85.6797 63.1079 86.0143 63.1079 86.4273Z" fill="#7900FF" stroke="#6440FB"/>
  <path d="M246.444 86.4273C246.444 86.8404 246.109 87.175 245.697 87.175C245.284 87.175 244.949 86.8404 244.949 86.4273C244.949 86.0143 245.284 85.6797 245.697 85.6797C246.109 85.6797 246.444 86.0143 246.444 86.4273Z" fill="#7900FF" stroke="#6440FB"/>
  <path d="M78.1352 86.4273C78.1352 86.8404 77.8005 87.175 77.3879 87.175C76.9753 87.175 76.6406 86.8404 76.6406 86.4273C76.6406 86.0143 76.9753 85.6797 77.3879 85.6797C77.8005 85.6797 78.1352 86.0143 78.1352 86.4273Z" fill="#7900FF" stroke="#6440FB"/>
  <path d="M261.471 86.4273C261.471 86.8404 261.136 87.175 260.724 87.175C260.311 87.175 259.977 86.8404 259.977 86.4273C259.977 86.0143 260.311 85.6797 260.724 85.6797C261.136 85.6797 261.471 86.0143 261.471 86.4273Z" fill="#7900FF" stroke="#6440FB"/>
  <path d="M93.1626 86.4273C93.1626 86.8404 92.8279 87.175 92.4153 87.175C92.0027 87.175 91.668 86.8404 91.668 86.4273C91.668 86.0143 92.0027 85.6797 92.4153 85.6797C92.8279 85.6797 93.1626 86.0143 93.1626 86.4273Z" fill="#7900FF" stroke="#6440FB"/>
  <path d="M276.498 86.4273C276.498 86.8404 276.164 87.175 275.751 87.175C275.339 87.175 275.004 86.8404 275.004 86.4273C275.004 86.0143 275.339 85.6797 275.751 85.6797C276.164 85.6797 276.498 86.0143 276.498 86.4273Z" fill="#7900FF" stroke="#6440FB"/>
  <path d="M109.194 86.4273C109.194 86.8404 108.859 87.175 108.447 87.175C108.034 87.175 107.699 86.8404 107.699 86.4273C107.699 86.0143 108.034 85.6797 108.447 85.6797C108.859 85.6797 109.194 86.0143 109.194 86.4273Z" fill="#7900FF" stroke="#6440FB"/>
  <path d="M124.221 103.459C124.221 103.872 123.886 104.206 123.474 104.206C123.061 104.206 122.727 103.872 122.727 103.459C122.727 103.046 123.061 102.711 123.474 102.711C123.886 102.711 124.221 103.046 124.221 103.459Z" fill="#7900FF" stroke="#6440FB"/>
  <path d="M139.248 103.459C139.248 103.872 138.914 104.206 138.501 104.206C138.089 104.206 137.754 103.872 137.754 103.459C137.754 103.046 138.089 102.711 138.501 102.711C138.914 102.711 139.248 103.046 139.248 103.459Z" fill="#7900FF" stroke="#6440FB"/>
  <path d="M154.276 103.459C154.276 103.872 153.941 104.206 153.529 104.206C153.116 104.206 152.781 103.872 152.781 103.459C152.781 103.046 153.116 102.711 153.529 102.711C153.941 102.711 154.276 103.046 154.276 103.459Z" fill="#7900FF" stroke="#6440FB"/>
  <path d="M169.303 103.459C169.303 103.872 168.968 104.206 168.556 104.206C168.143 104.206 167.809 103.872 167.809 103.459C167.809 103.046 168.143 102.711 168.556 102.711C168.968 102.711 169.303 103.046 169.303 103.459Z" fill="#7900FF" stroke="#6440FB"/>
  <path d="M1.99459 103.459C1.99459 103.872 1.65989 104.206 1.2473 104.206C0.834706 104.206 0.5 103.872 0.5 103.459C0.5 103.046 0.834706 102.711 1.2473 102.711C1.65989 102.711 1.99459 103.046 1.99459 103.459Z" fill="#7900FF" stroke="#6440FB"/>
  <path d="M185.331 103.459C185.331 103.606 185.287 103.751 185.205 103.874C185.122 103.997 185.006 104.093 184.869 104.149C184.733 104.206 184.582 104.221 184.437 104.192C184.293 104.163 184.159 104.092 184.055 103.987C183.95 103.883 183.879 103.75 183.85 103.604C183.821 103.459 183.836 103.309 183.893 103.172C183.949 103.036 184.045 102.919 184.168 102.837C184.291 102.755 184.435 102.711 184.583 102.711C184.781 102.711 184.971 102.79 185.112 102.93C185.252 103.07 185.331 103.26 185.331 103.459Z" fill="#7900FF" stroke="#6440FB"/>
  <path d="M17.0219 103.459C17.0219 103.606 16.9781 103.751 16.896 103.874C16.8138 103.997 16.6971 104.093 16.5606 104.149C16.424 104.206 16.2738 104.221 16.1289 104.192C15.9839 104.163 15.8508 104.092 15.7463 103.987C15.6418 103.883 15.5706 103.75 15.5417 103.604C15.5129 103.459 15.5277 103.309 15.5842 103.172C15.6408 103.036 15.7366 102.919 15.8595 102.837C15.9824 102.755 16.1269 102.711 16.2746 102.711C16.4728 102.711 16.6629 102.79 16.803 102.93C16.9432 103.07 17.0219 103.26 17.0219 103.459Z" fill="#7900FF" stroke="#6440FB"/>
  <path d="M200.362 103.459C200.362 103.872 200.027 104.206 199.614 104.206C199.202 104.206 198.867 103.872 198.867 103.459C198.867 103.046 199.202 102.711 199.614 102.711C200.027 102.711 200.362 103.046 200.362 103.459Z" fill="#7900FF" stroke="#6440FB"/>
  <path d="M32.0493 103.459C32.0493 103.872 31.7146 104.206 31.302 104.206C30.8894 104.206 30.5547 103.872 30.5547 103.459C30.5547 103.046 30.8894 102.711 31.302 102.711C31.7146 102.711 32.0493 103.046 32.0493 103.459Z" fill="#7900FF" stroke="#6440FB"/>
  <path d="M215.389 103.459C215.389 103.872 215.054 104.206 214.642 104.206C214.229 104.206 213.895 103.872 213.895 103.459C213.895 103.046 214.229 102.711 214.642 102.711C215.054 102.711 215.389 103.046 215.389 103.459Z" fill="#7900FF" stroke="#6440FB"/>
  <path d="M48.0805 103.459C48.0805 103.872 47.7458 104.206 47.3332 104.206C46.9206 104.206 46.5859 103.872 46.5859 103.459C46.5859 103.046 46.9206 102.711 47.3332 102.711C47.7458 102.711 48.0805 103.046 48.0805 103.459Z" fill="#7900FF" stroke="#6440FB"/>
  <path d="M230.416 103.459C230.416 103.872 230.082 104.206 229.669 104.206C229.257 104.206 228.922 103.872 228.922 103.459C228.922 103.046 229.257 102.711 229.669 102.711C230.082 102.711 230.416 103.046 230.416 103.459Z" fill="#7900FF" stroke="#6440FB"/>
  <path d="M63.1079 103.459C63.1079 103.872 62.7732 104.206 62.3606 104.206C61.948 104.206 61.6133 103.872 61.6133 103.459C61.6133 103.046 61.948 102.711 62.3606 102.711C62.7732 102.711 63.1079 103.046 63.1079 103.459Z" fill="#7900FF" stroke="#6440FB"/>
  <path d="M246.444 103.459C246.444 103.872 246.109 104.206 245.697 104.206C245.284 104.206 244.949 103.872 244.949 103.459C244.949 103.046 245.284 102.711 245.697 102.711C246.109 102.711 246.444 103.046 246.444 103.459Z" fill="#7900FF" stroke="#6440FB"/>
  <path d="M78.1352 103.459C78.1352 103.872 77.8005 104.206 77.3879 104.206C76.9753 104.206 76.6406 103.872 76.6406 103.459C76.6406 103.046 76.9753 102.711 77.3879 102.711C77.8005 102.711 78.1352 103.046 78.1352 103.459Z" fill="#7900FF" stroke="#6440FB"/>
  <path d="M261.471 103.459C261.471 103.872 261.136 104.206 260.724 104.206C260.311 104.206 259.977 103.872 259.977 103.459C259.977 103.046 260.311 102.711 260.724 102.711C261.136 102.711 261.471 103.046 261.471 103.459Z" fill="#7900FF" stroke="#6440FB"/>
  <path d="M93.1626 103.459C93.1626 103.872 92.8279 104.206 92.4153 104.206C92.0027 104.206 91.668 103.872 91.668 103.459C91.668 103.046 92.0027 102.711 92.4153 102.711C92.8279 102.711 93.1626 103.046 93.1626 103.459Z" fill="#7900FF" stroke="#6440FB"/>
  <path d="M276.498 103.459C276.498 103.872 276.164 104.206 275.751 104.206C275.339 104.206 275.004 103.872 275.004 103.459C275.004 103.046 275.339 102.711 275.751 102.711C276.164 102.711 276.498 103.046 276.498 103.459Z" fill="#7900FF" stroke="#6440FB"/>
  <path d="M109.194 103.459C109.194 103.872 108.859 104.206 108.447 104.206C108.034 104.206 107.699 103.872 107.699 103.459C107.699 103.046 108.034 102.711 108.447 102.711C108.859 102.711 109.194 103.046 109.194 103.459Z" fill="#7900FF" stroke="#6440FB"/>
  <path d="M124.221 120.505C124.221 120.918 123.886 121.253 123.474 121.253C123.061 121.253 122.727 120.918 122.727 120.505C122.727 120.092 123.061 119.758 123.474 119.758C123.886 119.758 124.221 120.092 124.221 120.505Z" fill="#7900FF" stroke="#6440FB"/>
  <path d="M139.248 120.505C139.248 120.918 138.914 121.253 138.501 121.253C138.089 121.253 137.754 120.918 137.754 120.505C137.754 120.092 138.089 119.758 138.501 119.758C138.914 119.758 139.248 120.092 139.248 120.505Z" fill="#7900FF" stroke="#6440FB"/>
  <path d="M154.276 120.505C154.276 120.918 153.941 121.253 153.529 121.253C153.116 121.253 152.781 120.918 152.781 120.505C152.781 120.092 153.116 119.758 153.529 119.758C153.941 119.758 154.276 120.092 154.276 120.505Z" fill="#7900FF" stroke="#6440FB"/>
  <path d="M169.303 120.505C169.303 120.918 168.968 121.253 168.556 121.253C168.143 121.253 167.809 120.918 167.809 120.505C167.809 120.092 168.143 119.758 168.556 119.758C168.968 119.758 169.303 120.092 169.303 120.505Z" fill="#7900FF" stroke="#6440FB"/>
  <path d="M1.99459 120.505C1.99459 120.918 1.65989 121.253 1.2473 121.253C0.834706 121.253 0.5 120.918 0.5 120.505C0.5 120.092 0.834706 119.758 1.2473 119.758C1.65989 119.758 1.99459 120.092 1.99459 120.505Z" fill="#7900FF" stroke="#6440FB"/>
  <path d="M185.331 120.505C185.331 120.653 185.287 120.798 185.205 120.921C185.122 121.044 185.006 121.14 184.869 121.196C184.733 121.253 184.582 121.268 184.437 121.239C184.293 121.21 184.159 121.139 184.055 121.034C183.95 120.93 183.879 120.796 183.85 120.651C183.821 120.506 183.836 120.356 183.893 120.219C183.949 120.083 184.045 119.966 184.168 119.884C184.291 119.802 184.435 119.758 184.583 119.758C184.781 119.758 184.971 119.837 185.112 119.977C185.252 120.117 185.331 120.307 185.331 120.505Z" fill="#7900FF" stroke="#6440FB"/>
  <path d="M17.0219 120.505C17.0219 120.653 16.9781 120.798 16.896 120.921C16.8138 121.044 16.6971 121.14 16.5606 121.196C16.424 121.253 16.2738 121.268 16.1289 121.239C15.9839 121.21 15.8508 121.139 15.7463 121.034C15.6418 120.93 15.5706 120.796 15.5417 120.651C15.5129 120.506 15.5277 120.356 15.5842 120.219C15.6408 120.083 15.7366 119.966 15.8595 119.884C15.9824 119.802 16.1269 119.758 16.2746 119.758C16.4728 119.758 16.6629 119.837 16.803 119.977C16.9432 120.117 17.0219 120.307 17.0219 120.505Z" fill="#7900FF" stroke="#6440FB"/>
  <path d="M200.362 120.505C200.362 120.918 200.027 121.253 199.614 121.253C199.202 121.253 198.867 120.918 198.867 120.505C198.867 120.092 199.202 119.758 199.614 119.758C200.027 119.758 200.362 120.092 200.362 120.505Z" fill="#7900FF" stroke="#6440FB"/>
  <path d="M32.0493 120.505C32.0493 120.918 31.7146 121.253 31.302 121.253C30.8894 121.253 30.5547 120.918 30.5547 120.505C30.5547 120.092 30.8894 119.758 31.302 119.758C31.7146 119.758 32.0493 120.092 32.0493 120.505Z" fill="#7900FF" stroke="#6440FB"/>
  <path d="M215.389 120.505C215.389 120.918 215.054 121.253 214.642 121.253C214.229 121.253 213.895 120.918 213.895 120.505C213.895 120.092 214.229 119.758 214.642 119.758C215.054 119.758 215.389 120.092 215.389 120.505Z" fill="#7900FF" stroke="#6440FB"/>
  <path d="M48.0805 120.505C48.0805 120.918 47.7458 121.253 47.3332 121.253C46.9206 121.253 46.5859 120.918 46.5859 120.505C46.5859 120.092 46.9206 119.758 47.3332 119.758C47.7458 119.758 48.0805 120.092 48.0805 120.505Z" fill="#7900FF" stroke="#6440FB"/>
  <path d="M230.416 120.505C230.416 120.918 230.082 121.253 229.669 121.253C229.257 121.253 228.922 120.918 228.922 120.505C228.922 120.092 229.257 119.758 229.669 119.758C230.082 119.758 230.416 120.092 230.416 120.505Z" fill="#7900FF" stroke="#6440FB"/>
  <path d="M63.1079 120.505C63.1079 120.918 62.7732 121.253 62.3606 121.253C61.948 121.253 61.6133 120.918 61.6133 120.505C61.6133 120.092 61.948 119.758 62.3606 119.758C62.7732 119.758 63.1079 120.092 63.1079 120.505Z" fill="#7900FF" stroke="#6440FB"/>
  <path d="M246.444 120.505C246.444 120.918 246.109 121.253 245.697 121.253C245.284 121.253 244.949 120.918 244.949 120.505C244.949 120.092 245.284 119.758 245.697 119.758C246.109 119.758 246.444 120.092 246.444 120.505Z" fill="#7900FF" stroke="#6440FB"/>
  <path d="M78.1352 120.505C78.1352 120.918 77.8005 121.253 77.3879 121.253C76.9753 121.253 76.6406 120.918 76.6406 120.505C76.6406 120.092 76.9753 119.758 77.3879 119.758C77.8005 119.758 78.1352 120.092 78.1352 120.505Z" fill="#7900FF" stroke="#6440FB"/>
  <path d="M261.471 120.505C261.471 120.918 261.136 121.253 260.724 121.253C260.311 121.253 259.977 120.918 259.977 120.505C259.977 120.092 260.311 119.758 260.724 119.758C261.136 119.758 261.471 120.092 261.471 120.505Z" fill="#7900FF" stroke="#6440FB"/>
  <path d="M93.1626 120.505C93.1626 120.918 92.8279 121.253 92.4153 121.253C92.0027 121.253 91.668 120.918 91.668 120.505C91.668 120.092 92.0027 119.758 92.4153 119.758C92.8279 119.758 93.1626 120.092 93.1626 120.505Z" fill="#7900FF" stroke="#6440FB"/>
  <path d="M276.498 120.505C276.498 120.918 276.164 121.253 275.751 121.253C275.339 121.253 275.004 120.918 275.004 120.505C275.004 120.092 275.339 119.758 275.751 119.758C276.164 119.758 276.498 120.092 276.498 120.505Z" fill="#7900FF" stroke="#6440FB"/>
  <path d="M109.194 120.505C109.194 120.918 108.859 121.253 108.447 121.253C108.034 121.253 107.699 120.918 107.699 120.505C107.699 120.092 108.034 119.758 108.447 119.758C108.859 119.758 109.194 120.092 109.194 120.505Z" fill="#7900FF" stroke="#6440FB"/>
  <path d="M124.221 137.537C124.221 137.95 123.886 138.284 123.474 138.284C123.061 138.284 122.727 137.95 122.727 137.537C122.727 137.124 123.061 136.789 123.474 136.789C123.886 136.789 124.221 137.124 124.221 137.537Z" fill="#7900FF" stroke="#6440FB"/>
  <path d="M139.248 137.537C139.248 137.95 138.914 138.284 138.501 138.284C138.089 138.284 137.754 137.95 137.754 137.537C137.754 137.124 138.089 136.789 138.501 136.789C138.914 136.789 139.248 137.124 139.248 137.537Z" fill="#7900FF" stroke="#6440FB"/>
  <path d="M154.276 137.537C154.276 137.95 153.941 138.284 153.529 138.284C153.116 138.284 152.781 137.95 152.781 137.537C152.781 137.124 153.116 136.789 153.529 136.789C153.941 136.789 154.276 137.124 154.276 137.537Z" fill="#7900FF" stroke="#6440FB"/>
  <path d="M169.303 137.537C169.303 137.95 168.968 138.284 168.556 138.284C168.143 138.284 167.809 137.95 167.809 137.537C167.809 137.124 168.143 136.789 168.556 136.789C168.968 136.789 169.303 137.124 169.303 137.537Z" fill="#7900FF" stroke="#6440FB"/>
  <path d="M1.99459 137.537C1.99459 137.95 1.65989 138.284 1.2473 138.284C0.834706 138.284 0.5 137.95 0.5 137.537C0.5 137.124 0.834706 136.789 1.2473 136.789C1.65989 136.789 1.99459 137.124 1.99459 137.537Z" fill="#7900FF" stroke="#6440FB"/>
  <path d="M185.331 137.537C185.331 137.685 185.287 137.829 185.205 137.952C185.122 138.075 185.006 138.171 184.869 138.227C184.733 138.284 184.582 138.299 184.437 138.27C184.293 138.241 184.159 138.17 184.055 138.065C183.95 137.961 183.879 137.828 183.85 137.683C183.821 137.538 183.836 137.387 183.893 137.251C183.949 137.114 184.045 136.997 184.168 136.915C184.291 136.833 184.435 136.789 184.583 136.789C184.781 136.789 184.971 136.868 185.112 137.008C185.252 137.148 185.331 137.338 185.331 137.537Z" fill="#7900FF" stroke="#6440FB"/>
  <path d="M17.0219 137.537C17.0219 137.685 16.9781 137.829 16.896 137.952C16.8138 138.075 16.6971 138.171 16.5606 138.227C16.424 138.284 16.2738 138.299 16.1289 138.27C15.9839 138.241 15.8508 138.17 15.7463 138.065C15.6418 137.961 15.5706 137.828 15.5417 137.683C15.5129 137.538 15.5277 137.387 15.5842 137.251C15.6408 137.114 15.7366 136.997 15.8595 136.915C15.9824 136.833 16.1269 136.789 16.2746 136.789C16.4728 136.789 16.6629 136.868 16.803 137.008C16.9432 137.148 17.0219 137.338 17.0219 137.537Z" fill="#7900FF" stroke="#6440FB"/>
  <path d="M200.362 137.537C200.362 137.95 200.027 138.284 199.614 138.284C199.202 138.284 198.867 137.95 198.867 137.537C198.867 137.124 199.202 136.789 199.614 136.789C200.027 136.789 200.362 137.124 200.362 137.537Z" fill="#7900FF" stroke="#6440FB"/>
  <path d="M32.0493 137.537C32.0493 137.95 31.7146 138.284 31.302 138.284C30.8894 138.284 30.5547 137.95 30.5547 137.537C30.5547 137.124 30.8894 136.789 31.302 136.789C31.7146 136.789 32.0493 137.124 32.0493 137.537Z" fill="#7900FF" stroke="#6440FB"/>
  <path d="M215.389 137.537C215.389 137.95 215.054 138.284 214.642 138.284C214.229 138.284 213.895 137.95 213.895 137.537C213.895 137.124 214.229 136.789 214.642 136.789C215.054 136.789 215.389 137.124 215.389 137.537Z" fill="#7900FF" stroke="#6440FB"/>
  <path d="M48.0805 137.537C48.0805 137.95 47.7458 138.284 47.3332 138.284C46.9206 138.284 46.5859 137.95 46.5859 137.537C46.5859 137.124 46.9206 136.789 47.3332 136.789C47.7458 136.789 48.0805 137.124 48.0805 137.537Z" fill="#7900FF" stroke="#6440FB"/>
  <path d="M230.416 137.537C230.416 137.95 230.082 138.284 229.669 138.284C229.257 138.284 228.922 137.95 228.922 137.537C228.922 137.124 229.257 136.789 229.669 136.789C230.082 136.789 230.416 137.124 230.416 137.537Z" fill="#7900FF" stroke="#6440FB"/>
  <path d="M63.1079 137.537C63.1079 137.95 62.7732 138.284 62.3606 138.284C61.948 138.284 61.6133 137.95 61.6133 137.537C61.6133 137.124 61.948 136.789 62.3606 136.789C62.7732 136.789 63.1079 137.124 63.1079 137.537Z" fill="#7900FF" stroke="#6440FB"/>
  <path d="M246.444 137.537C246.444 137.95 246.109 138.284 245.697 138.284C245.284 138.284 244.949 137.95 244.949 137.537C244.949 137.124 245.284 136.789 245.697 136.789C246.109 136.789 246.444 137.124 246.444 137.537Z" fill="#7900FF" stroke="#6440FB"/>
  <path d="M78.1352 137.537C78.1352 137.95 77.8005 138.284 77.3879 138.284C76.9753 138.284 76.6406 137.95 76.6406 137.537C76.6406 137.124 76.9753 136.789 77.3879 136.789C77.8005 136.789 78.1352 137.124 78.1352 137.537Z" fill="#7900FF" stroke="#6440FB"/>
  <path d="M261.471 137.537C261.471 137.95 261.136 138.284 260.724 138.284C260.311 138.284 259.977 137.95 259.977 137.537C259.977 137.124 260.311 136.789 260.724 136.789C261.136 136.789 261.471 137.124 261.471 137.537Z" fill="#7900FF" stroke="#6440FB"/>
  <path d="M93.1626 137.537C93.1626 137.95 92.8279 138.284 92.4153 138.284C92.0027 138.284 91.668 137.95 91.668 137.537C91.668 137.124 92.0027 136.789 92.4153 136.789C92.8279 136.789 93.1626 137.124 93.1626 137.537Z" fill="#7900FF" stroke="#6440FB"/>
  <path d="M276.498 137.537C276.498 137.95 276.164 138.284 275.751 138.284C275.339 138.284 275.004 137.95 275.004 137.537C275.004 137.124 275.339 136.789 275.751 136.789C276.164 136.789 276.498 137.124 276.498 137.537Z" fill="#7900FF" stroke="#6440FB"/>
  <path d="M109.194 137.537C109.194 137.95 108.859 138.284 108.447 138.284C108.034 138.284 107.699 137.95 107.699 137.537C107.699 137.124 108.034 136.789 108.447 136.789C108.859 136.789 109.194 137.124 109.194 137.537Z" fill="#7900FF" stroke="#6440FB"/>
  <path d="M124.221 154.568C124.221 154.981 123.886 155.316 123.474 155.316C123.061 155.316 122.727 154.981 122.727 154.568C122.727 154.155 123.061 153.82 123.474 153.82C123.886 153.82 124.221 154.155 124.221 154.568Z" fill="#7900FF" stroke="#6440FB"/>
  <path d="M139.248 154.568C139.248 154.981 138.914 155.316 138.501 155.316C138.089 155.316 137.754 154.981 137.754 154.568C137.754 154.155 138.089 153.82 138.501 153.82C138.914 153.82 139.248 154.155 139.248 154.568Z" fill="#7900FF" stroke="#6440FB"/>
  <path d="M154.276 154.568C154.276 154.981 153.941 155.316 153.529 155.316C153.116 155.316 152.781 154.981 152.781 154.568C152.781 154.155 153.116 153.82 153.529 153.82C153.941 153.82 154.276 154.155 154.276 154.568Z" fill="#7900FF" stroke="#6440FB"/>
  <path d="M169.303 154.568C169.303 154.981 168.968 155.316 168.556 155.316C168.143 155.316 167.809 154.981 167.809 154.568C167.809 154.155 168.143 153.82 168.556 153.82C168.968 153.82 169.303 154.155 169.303 154.568Z" fill="#7900FF" stroke="#6440FB"/>
  <path d="M1.99459 154.568C1.99459 154.981 1.65989 155.316 1.2473 155.316C0.834706 155.316 0.5 154.981 0.5 154.568C0.5 154.155 0.834706 153.82 1.2473 153.82C1.65989 153.82 1.99459 154.155 1.99459 154.568Z" fill="#7900FF" stroke="#6440FB"/>
  <path d="M185.331 154.568C185.331 154.716 185.287 154.86 185.205 154.983C185.122 155.106 185.006 155.202 184.869 155.259C184.733 155.315 184.582 155.33 184.437 155.301C184.293 155.272 184.159 155.201 184.055 155.097C183.95 154.992 183.879 154.859 183.85 154.714C183.821 154.569 183.836 154.418 183.893 154.282C183.949 154.145 184.045 154.028 184.168 153.946C184.291 153.864 184.435 153.82 184.583 153.82C184.781 153.82 184.971 153.899 185.112 154.039C185.252 154.179 185.331 154.37 185.331 154.568Z" fill="#7900FF" stroke="#6440FB"/>
  <path d="M17.0219 154.568C17.0219 154.716 16.9781 154.86 16.896 154.983C16.8138 155.106 16.6971 155.202 16.5606 155.259C16.424 155.315 16.2738 155.33 16.1289 155.301C15.9839 155.272 15.8508 155.201 15.7463 155.097C15.6418 154.992 15.5706 154.859 15.5417 154.714C15.5129 154.569 15.5277 154.418 15.5842 154.282C15.6408 154.145 15.7366 154.028 15.8595 153.946C15.9824 153.864 16.1269 153.82 16.2746 153.82C16.4728 153.82 16.6629 153.899 16.803 154.039C16.9432 154.179 17.0219 154.37 17.0219 154.568Z" fill="#7900FF" stroke="#6440FB"/>
  <path d="M200.362 154.568C200.362 154.981 200.027 155.316 199.614 155.316C199.202 155.316 198.867 154.981 198.867 154.568C198.867 154.155 199.202 153.82 199.614 153.82C200.027 153.82 200.362 154.155 200.362 154.568Z" fill="#7900FF" stroke="#6440FB"/>
  <path d="M32.0493 154.568C32.0493 154.981 31.7146 155.316 31.302 155.316C30.8894 155.316 30.5547 154.981 30.5547 154.568C30.5547 154.155 30.8894 153.82 31.302 153.82C31.7146 153.82 32.0493 154.155 32.0493 154.568Z" fill="#7900FF" stroke="#6440FB"/>
  <path d="M215.389 154.568C215.389 154.981 215.054 155.316 214.642 155.316C214.229 155.316 213.895 154.981 213.895 154.568C213.895 154.155 214.229 153.82 214.642 153.82C215.054 153.82 215.389 154.155 215.389 154.568Z" fill="#7900FF" stroke="#6440FB"/>
  <path d="M48.0805 154.568C48.0805 154.981 47.7458 155.316 47.3332 155.316C46.9206 155.316 46.5859 154.981 46.5859 154.568C46.5859 154.155 46.9206 153.82 47.3332 153.82C47.7458 153.82 48.0805 154.155 48.0805 154.568Z" fill="#7900FF" stroke="#6440FB"/>
  <path d="M230.416 154.568C230.416 154.981 230.082 155.316 229.669 155.316C229.257 155.316 228.922 154.981 228.922 154.568C228.922 154.155 229.257 153.82 229.669 153.82C230.082 153.82 230.416 154.155 230.416 154.568Z" fill="#7900FF" stroke="#6440FB"/>
  <path d="M63.1079 154.568C63.1079 154.981 62.7732 155.316 62.3606 155.316C61.948 155.316 61.6133 154.981 61.6133 154.568C61.6133 154.155 61.948 153.82 62.3606 153.82C62.7732 153.82 63.1079 154.155 63.1079 154.568Z" fill="#7900FF" stroke="#6440FB"/>
  <path d="M246.444 154.568C246.444 154.981 246.109 155.316 245.697 155.316C245.284 155.316 244.949 154.981 244.949 154.568C244.949 154.155 245.284 153.82 245.697 153.82C246.109 153.82 246.444 154.155 246.444 154.568Z" fill="#7900FF" stroke="#6440FB"/>
  <path d="M78.1352 154.568C78.1352 154.981 77.8005 155.316 77.3879 155.316C76.9753 155.316 76.6406 154.981 76.6406 154.568C76.6406 154.155 76.9753 153.82 77.3879 153.82C77.8005 153.82 78.1352 154.155 78.1352 154.568Z" fill="#7900FF" stroke="#6440FB"/>
  <path d="M261.471 154.568C261.471 154.981 261.136 155.316 260.724 155.316C260.311 155.316 259.977 154.981 259.977 154.568C259.977 154.155 260.311 153.82 260.724 153.82C261.136 153.82 261.471 154.155 261.471 154.568Z" fill="#7900FF" stroke="#6440FB"/>
  <path d="M93.1626 154.568C93.1626 154.981 92.8279 155.316 92.4153 155.316C92.0027 155.316 91.668 154.981 91.668 154.568C91.668 154.155 92.0027 153.82 92.4153 153.82C92.8279 153.82 93.1626 154.155 93.1626 154.568Z" fill="#7900FF" stroke="#6440FB"/>
  <path d="M276.498 154.568C276.498 154.981 276.164 155.316 275.751 155.316C275.339 155.316 275.004 154.981 275.004 154.568C275.004 154.155 275.339 153.82 275.751 153.82C276.164 153.82 276.498 154.155 276.498 154.568Z" fill="#7900FF" stroke="#6440FB"/>
  <path d="M109.194 154.568C109.194 154.981 108.859 155.316 108.447 155.316C108.034 155.316 107.699 154.981 107.699 154.568C107.699 154.155 108.034 153.82 108.447 153.82C108.859 153.82 109.194 154.155 109.194 154.568Z" fill="#7900FF" stroke="#6440FB"/>
  <path d="M124.221 171.607C124.221 172.02 123.886 172.355 123.474 172.355C123.061 172.355 122.727 172.02 122.727 171.607C122.727 171.194 123.061 170.859 123.474 170.859C123.886 170.859 124.221 171.194 124.221 171.607Z" fill="#7900FF" stroke="#6440FB"/>
  <path d="M139.248 171.607C139.248 172.02 138.914 172.355 138.501 172.355C138.089 172.355 137.754 172.02 137.754 171.607C137.754 171.194 138.089 170.859 138.501 170.859C138.914 170.859 139.248 171.194 139.248 171.607Z" fill="#7900FF" stroke="#6440FB"/>
  <path d="M154.276 171.607C154.276 172.02 153.941 172.355 153.529 172.355C153.116 172.355 152.781 172.02 152.781 171.607C152.781 171.194 153.116 170.859 153.529 170.859C153.941 170.859 154.276 171.194 154.276 171.607Z" fill="#7900FF" stroke="#6440FB"/>
  <path d="M169.303 171.607C169.303 172.02 168.968 172.355 168.556 172.355C168.143 172.355 167.809 172.02 167.809 171.607C167.809 171.194 168.143 170.859 168.556 170.859C168.968 170.859 169.303 171.194 169.303 171.607Z" fill="#7900FF" stroke="#6440FB"/>
  <path d="M1.99459 171.607C1.99459 172.02 1.65989 172.355 1.2473 172.355C0.834706 172.355 0.5 172.02 0.5 171.607C0.5 171.194 0.834706 170.859 1.2473 170.859C1.65989 170.859 1.99459 171.194 1.99459 171.607Z" fill="#7900FF" stroke="#6440FB"/>
  <path d="M185.331 171.607C185.331 171.755 185.287 171.899 185.205 172.022C185.122 172.145 185.006 172.241 184.869 172.298C184.733 172.354 184.582 172.369 184.437 172.34C184.293 172.311 184.159 172.24 184.055 172.136C183.95 172.031 183.879 171.898 183.85 171.753C183.821 171.608 183.836 171.457 183.893 171.321C183.949 171.184 184.045 171.068 184.168 170.985C184.291 170.903 184.435 170.859 184.583 170.859C184.781 170.859 184.971 170.938 185.112 171.078C185.252 171.219 185.331 171.409 185.331 171.607Z" fill="#7900FF" stroke="#6440FB"/>
  <path d="M17.0219 171.607C17.0219 171.755 16.9781 171.899 16.896 172.022C16.8138 172.145 16.6971 172.241 16.5606 172.298C16.424 172.354 16.2738 172.369 16.1289 172.34C15.9839 172.311 15.8508 172.24 15.7463 172.136C15.6418 172.031 15.5706 171.898 15.5417 171.753C15.5129 171.608 15.5277 171.457 15.5842 171.321C15.6408 171.184 15.7366 171.068 15.8595 170.985C15.9824 170.903 16.1269 170.859 16.2746 170.859C16.4728 170.859 16.6629 170.938 16.803 171.078C16.9432 171.219 17.0219 171.409 17.0219 171.607Z" fill="#7900FF" stroke="#6440FB"/>
  <path d="M200.362 171.607C200.362 172.02 200.027 172.355 199.614 172.355C199.202 172.355 198.867 172.02 198.867 171.607C198.867 171.194 199.202 170.859 199.614 170.859C200.027 170.859 200.362 171.194 200.362 171.607Z" fill="#7900FF" stroke="#6440FB"/>
  <path d="M32.0493 171.607C32.0493 172.02 31.7146 172.355 31.302 172.355C30.8894 172.355 30.5547 172.02 30.5547 171.607C30.5547 171.194 30.8894 170.859 31.302 170.859C31.7146 170.859 32.0493 171.194 32.0493 171.607Z" fill="#7900FF" stroke="#6440FB"/>
  <path d="M215.389 171.607C215.389 172.02 215.054 172.355 214.642 172.355C214.229 172.355 213.895 172.02 213.895 171.607C213.895 171.194 214.229 170.859 214.642 170.859C215.054 170.859 215.389 171.194 215.389 171.607Z" fill="#7900FF" stroke="#6440FB"/>
  <path d="M48.0805 171.607C48.0805 172.02 47.7458 172.355 47.3332 172.355C46.9206 172.355 46.5859 172.02 46.5859 171.607C46.5859 171.194 46.9206 170.859 47.3332 170.859C47.7458 170.859 48.0805 171.194 48.0805 171.607Z" fill="#7900FF" stroke="#6440FB"/>
  <path d="M230.416 171.607C230.416 172.02 230.082 172.355 229.669 172.355C229.257 172.355 228.922 172.02 228.922 171.607C228.922 171.194 229.257 170.859 229.669 170.859C230.082 170.859 230.416 171.194 230.416 171.607Z" fill="#7900FF" stroke="#6440FB"/>
  <path d="M63.1079 171.607C63.1079 172.02 62.7732 172.355 62.3606 172.355C61.948 172.355 61.6133 172.02 61.6133 171.607C61.6133 171.194 61.948 170.859 62.3606 170.859C62.7732 170.859 63.1079 171.194 63.1079 171.607Z" fill="#7900FF" stroke="#6440FB"/>
  <path d="M246.444 171.607C246.444 172.02 246.109 172.355 245.697 172.355C245.284 172.355 244.949 172.02 244.949 171.607C244.949 171.194 245.284 170.859 245.697 170.859C246.109 170.859 246.444 171.194 246.444 171.607Z" fill="#7900FF" stroke="#6440FB"/>
  <path d="M78.1352 171.607C78.1352 172.02 77.8005 172.355 77.3879 172.355C76.9753 172.355 76.6406 172.02 76.6406 171.607C76.6406 171.194 76.9753 170.859 77.3879 170.859C77.8005 170.859 78.1352 171.194 78.1352 171.607Z" fill="#7900FF" stroke="#6440FB"/>
  <path d="M261.471 171.607C261.471 172.02 261.136 172.355 260.724 172.355C260.311 172.355 259.977 172.02 259.977 171.607C259.977 171.194 260.311 170.859 260.724 170.859C261.136 170.859 261.471 171.194 261.471 171.607Z" fill="#7900FF" stroke="#6440FB"/>
  <path d="M93.1626 171.607C93.1626 172.02 92.8279 172.355 92.4153 172.355C92.0027 172.355 91.668 172.02 91.668 171.607C91.668 171.194 92.0027 170.859 92.4153 170.859C92.8279 170.859 93.1626 171.194 93.1626 171.607Z" fill="#7900FF" stroke="#6440FB"/>
  <path d="M276.498 171.607C276.498 172.02 276.164 172.355 275.751 172.355C275.339 172.355 275.004 172.02 275.004 171.607C275.004 171.194 275.339 170.859 275.751 170.859C276.164 170.859 276.498 171.194 276.498 171.607Z" fill="#7900FF" stroke="#6440FB"/>
  <path d="M109.194 171.607C109.194 172.02 108.859 172.355 108.447 172.355C108.034 172.355 107.699 172.02 107.699 171.607C107.699 171.194 108.034 170.859 108.447 170.859C108.859 170.859 109.194 171.194 109.194 171.607Z" fill="#7900FF" stroke="#6440FB"/>
  <path d="M124.221 188.646C124.221 189.059 123.886 189.394 123.474 189.394C123.061 189.394 122.727 189.059 122.727 188.646C122.727 188.233 123.061 187.898 123.474 187.898C123.886 187.898 124.221 188.233 124.221 188.646Z" fill="#7900FF" stroke="#6440FB"/>
  <path d="M139.248 188.646C139.248 189.059 138.914 189.394 138.501 189.394C138.089 189.394 137.754 189.059 137.754 188.646C137.754 188.233 138.089 187.898 138.501 187.898C138.914 187.898 139.248 188.233 139.248 188.646Z" fill="#7900FF" stroke="#6440FB"/>
  <path d="M154.276 188.646C154.276 189.059 153.941 189.394 153.529 189.394C153.116 189.394 152.781 189.059 152.781 188.646C152.781 188.233 153.116 187.898 153.529 187.898C153.941 187.898 154.276 188.233 154.276 188.646Z" fill="#7900FF" stroke="#6440FB"/>
  <path d="M169.303 188.646C169.303 189.059 168.968 189.394 168.556 189.394C168.143 189.394 167.809 189.059 167.809 188.646C167.809 188.233 168.143 187.898 168.556 187.898C168.968 187.898 169.303 188.233 169.303 188.646Z" fill="#7900FF" stroke="#6440FB"/>
  <path d="M1.99459 188.646C1.99459 189.059 1.65989 189.394 1.2473 189.394C0.834706 189.394 0.5 189.059 0.5 188.646C0.5 188.233 0.834706 187.898 1.2473 187.898C1.65989 187.898 1.99459 188.233 1.99459 188.646Z" fill="#7900FF" stroke="#6440FB"/>
  <path d="M185.331 188.646C185.331 188.794 185.287 188.939 185.205 189.061C185.122 189.184 185.006 189.28 184.869 189.337C184.733 189.393 184.582 189.408 184.437 189.379C184.293 189.351 184.159 189.279 184.055 189.175C183.95 189.07 183.879 188.937 183.85 188.792C183.821 188.647 183.836 188.497 183.893 188.36C183.949 188.223 184.045 188.107 184.168 188.024C184.291 187.942 184.435 187.898 184.583 187.898C184.781 187.898 184.971 187.977 185.112 188.117C185.252 188.258 185.331 188.448 185.331 188.646Z" fill="#7900FF" stroke="#6440FB"/>
  <path d="M17.0219 188.646C17.0219 188.794 16.9781 188.939 16.896 189.061C16.8138 189.184 16.6971 189.28 16.5606 189.337C16.424 189.393 16.2738 189.408 16.1289 189.379C15.9839 189.351 15.8508 189.279 15.7463 189.175C15.6418 189.07 15.5706 188.937 15.5417 188.792C15.5129 188.647 15.5277 188.497 15.5842 188.36C15.6408 188.223 15.7366 188.107 15.8595 188.024C15.9824 187.942 16.1269 187.898 16.2746 187.898C16.4728 187.898 16.6629 187.977 16.803 188.117C16.9432 188.258 17.0219 188.448 17.0219 188.646Z" fill="#7900FF" stroke="#6440FB"/>
  <path d="M200.362 188.646C200.362 189.059 200.027 189.394 199.614 189.394C199.202 189.394 198.867 189.059 198.867 188.646C198.867 188.233 199.202 187.898 199.614 187.898C200.027 187.898 200.362 188.233 200.362 188.646Z" fill="#7900FF" stroke="#6440FB"/>
  <path d="M32.0493 188.646C32.0493 189.059 31.7146 189.394 31.302 189.394C30.8894 189.394 30.5547 189.059 30.5547 188.646C30.5547 188.233 30.8894 187.898 31.302 187.898C31.7146 187.898 32.0493 188.233 32.0493 188.646Z" fill="#7900FF" stroke="#6440FB"/>
  <path d="M215.389 188.646C215.389 189.059 215.054 189.394 214.642 189.394C214.229 189.394 213.895 189.059 213.895 188.646C213.895 188.233 214.229 187.898 214.642 187.898C215.054 187.898 215.389 188.233 215.389 188.646Z" fill="#7900FF" stroke="#6440FB"/>
  <path d="M48.0805 188.646C48.0805 189.059 47.7458 189.394 47.3332 189.394C46.9206 189.394 46.5859 189.059 46.5859 188.646C46.5859 188.233 46.9206 187.898 47.3332 187.898C47.7458 187.898 48.0805 188.233 48.0805 188.646Z" fill="#7900FF" stroke="#6440FB"/>
  <path d="M230.416 188.646C230.416 189.059 230.082 189.394 229.669 189.394C229.257 189.394 228.922 189.059 228.922 188.646C228.922 188.233 229.257 187.898 229.669 187.898C230.082 187.898 230.416 188.233 230.416 188.646Z" fill="#7900FF" stroke="#6440FB"/>
  <path d="M63.1079 188.646C63.1079 189.059 62.7732 189.394 62.3606 189.394C61.948 189.394 61.6133 189.059 61.6133 188.646C61.6133 188.233 61.948 187.898 62.3606 187.898C62.7732 187.898 63.1079 188.233 63.1079 188.646Z" fill="#7900FF" stroke="#6440FB"/>
  <path d="M246.444 188.646C246.444 189.059 246.109 189.394 245.697 189.394C245.284 189.394 244.949 189.059 244.949 188.646C244.949 188.233 245.284 187.898 245.697 187.898C246.109 187.898 246.444 188.233 246.444 188.646Z" fill="#7900FF" stroke="#6440FB"/>
  <path d="M78.1352 188.646C78.1352 189.059 77.8005 189.394 77.3879 189.394C76.9753 189.394 76.6406 189.059 76.6406 188.646C76.6406 188.233 76.9753 187.898 77.3879 187.898C77.8005 187.898 78.1352 188.233 78.1352 188.646Z" fill="#7900FF" stroke="#6440FB"/>
  <path d="M261.471 188.646C261.471 189.059 261.136 189.394 260.724 189.394C260.311 189.394 259.977 189.059 259.977 188.646C259.977 188.233 260.311 187.898 260.724 187.898C261.136 187.898 261.471 188.233 261.471 188.646Z" fill="#7900FF" stroke="#6440FB"/>
  <path d="M93.1626 188.646C93.1626 189.059 92.8279 189.394 92.4153 189.394C92.0027 189.394 91.668 189.059 91.668 188.646C91.668 188.233 92.0027 187.898 92.4153 187.898C92.8279 187.898 93.1626 188.233 93.1626 188.646Z" fill="#7900FF" stroke="#6440FB"/>
  <path d="M276.498 188.646C276.498 189.059 276.164 189.394 275.751 189.394C275.339 189.394 275.004 189.059 275.004 188.646C275.004 188.233 275.339 187.898 275.751 187.898C276.164 187.898 276.498 188.233 276.498 188.646Z" fill="#7900FF" stroke="#6440FB"/>
  <path d="M109.194 188.646C109.194 189.059 108.859 189.394 108.447 189.394C108.034 189.394 107.699 189.059 107.699 188.646C107.699 188.233 108.034 187.898 108.447 187.898C108.859 187.898 109.194 188.233 109.194 188.646Z" fill="#7900FF" stroke="#6440FB"/>
  <path d="M124.221 205.685C124.221 206.098 123.886 206.433 123.474 206.433C123.061 206.433 122.727 206.098 122.727 205.685C122.727 205.272 123.061 204.938 123.474 204.938C123.886 204.938 124.221 205.272 124.221 205.685Z" fill="#7900FF" stroke="#6440FB"/>
  <path d="M139.248 205.685C139.248 206.098 138.914 206.433 138.501 206.433C138.089 206.433 137.754 206.098 137.754 205.685C137.754 205.272 138.089 204.938 138.501 204.938C138.914 204.938 139.248 205.272 139.248 205.685Z" fill="#7900FF" stroke="#6440FB"/>
  <path d="M154.276 205.685C154.276 206.098 153.941 206.433 153.529 206.433C153.116 206.433 152.781 206.098 152.781 205.685C152.781 205.272 153.116 204.938 153.529 204.938C153.941 204.938 154.276 205.272 154.276 205.685Z" fill="#7900FF" stroke="#6440FB"/>
  <path d="M169.303 205.685C169.303 206.098 168.968 206.433 168.556 206.433C168.143 206.433 167.809 206.098 167.809 205.685C167.809 205.272 168.143 204.938 168.556 204.938C168.968 204.938 169.303 205.272 169.303 205.685Z" fill="#7900FF" stroke="#6440FB"/>
  <path d="M1.99459 205.685C1.99459 206.098 1.65989 206.433 1.2473 206.433C0.834706 206.433 0.5 206.098 0.5 205.685C0.5 205.272 0.834706 204.938 1.2473 204.938C1.65989 204.938 1.99459 205.272 1.99459 205.685Z" fill="#7900FF" stroke="#6440FB"/>
  <path d="M185.331 205.685C185.331 205.833 185.287 205.978 185.205 206.101C185.122 206.224 185.006 206.319 184.869 206.376C184.733 206.432 184.582 206.447 184.437 206.418C184.293 206.39 184.159 206.318 184.055 206.214C183.95 206.109 183.879 205.976 183.85 205.831C183.821 205.686 183.836 205.536 183.893 205.399C183.949 205.262 184.045 205.146 184.168 205.063C184.291 204.981 184.435 204.938 184.583 204.938C184.781 204.938 184.971 205.016 185.112 205.156C185.252 205.297 185.331 205.487 185.331 205.685Z" fill="#7900FF" stroke="#6440FB"/>
  <path d="M17.0219 205.685C17.0219 205.833 16.9781 205.978 16.896 206.101C16.8138 206.224 16.6971 206.319 16.5606 206.376C16.424 206.432 16.2738 206.447 16.1289 206.418C15.9839 206.39 15.8508 206.318 15.7463 206.214C15.6418 206.109 15.5706 205.976 15.5417 205.831C15.5129 205.686 15.5277 205.536 15.5842 205.399C15.6408 205.262 15.7366 205.146 15.8595 205.063C15.9824 204.981 16.1269 204.938 16.2746 204.938C16.4728 204.938 16.6629 205.016 16.803 205.156C16.9432 205.297 17.0219 205.487 17.0219 205.685Z" fill="#7900FF" stroke="#6440FB"/>
  <path d="M200.362 205.685C200.362 206.098 200.027 206.433 199.614 206.433C199.202 206.433 198.867 206.098 198.867 205.685C198.867 205.272 199.202 204.938 199.614 204.938C200.027 204.938 200.362 205.272 200.362 205.685Z" fill="#7900FF" stroke="#6440FB"/>
  <path d="M32.0493 205.685C32.0493 206.098 31.7146 206.433 31.302 206.433C30.8894 206.433 30.5547 206.098 30.5547 205.685C30.5547 205.272 30.8894 204.938 31.302 204.938C31.7146 204.938 32.0493 205.272 32.0493 205.685Z" fill="#7900FF" stroke="#6440FB"/>
  <path d="M215.389 205.685C215.389 206.098 215.054 206.433 214.642 206.433C214.229 206.433 213.895 206.098 213.895 205.685C213.895 205.272 214.229 204.938 214.642 204.938C215.054 204.938 215.389 205.272 215.389 205.685Z" fill="#7900FF" stroke="#6440FB"/>
  <path d="M48.0805 205.685C48.0805 206.098 47.7458 206.433 47.3332 206.433C46.9206 206.433 46.5859 206.098 46.5859 205.685C46.5859 205.272 46.9206 204.938 47.3332 204.938C47.7458 204.938 48.0805 205.272 48.0805 205.685Z" fill="#7900FF" stroke="#6440FB"/>
  <path d="M230.416 205.685C230.416 206.098 230.082 206.433 229.669 206.433C229.257 206.433 228.922 206.098 228.922 205.685C228.922 205.272 229.257 204.938 229.669 204.938C230.082 204.938 230.416 205.272 230.416 205.685Z" fill="#7900FF" stroke="#6440FB"/>
  <path d="M63.1079 205.685C63.1079 206.098 62.7732 206.433 62.3606 206.433C61.948 206.433 61.6133 206.098 61.6133 205.685C61.6133 205.272 61.948 204.938 62.3606 204.938C62.7732 204.938 63.1079 205.272 63.1079 205.685Z" fill="#7900FF" stroke="#6440FB"/>
  <path d="M246.444 205.685C246.444 206.098 246.109 206.433 245.697 206.433C245.284 206.433 244.949 206.098 244.949 205.685C244.949 205.272 245.284 204.938 245.697 204.938C246.109 204.938 246.444 205.272 246.444 205.685Z" fill="#7900FF" stroke="#6440FB"/>
  <path d="M78.1352 205.685C78.1352 206.098 77.8005 206.433 77.3879 206.433C76.9753 206.433 76.6406 206.098 76.6406 205.685C76.6406 205.272 76.9753 204.938 77.3879 204.938C77.8005 204.938 78.1352 205.272 78.1352 205.685Z" fill="#7900FF" stroke="#6440FB"/>
  <path d="M261.471 205.685C261.471 206.098 261.136 206.433 260.724 206.433C260.311 206.433 259.977 206.098 259.977 205.685C259.977 205.272 260.311 204.938 260.724 204.938C261.136 204.938 261.471 205.272 261.471 205.685Z" fill="#7900FF" stroke="#6440FB"/>
  <path d="M93.1626 205.685C93.1626 206.098 92.8279 206.433 92.4153 206.433C92.0027 206.433 91.668 206.098 91.668 205.685C91.668 205.272 92.0027 204.938 92.4153 204.938C92.8279 204.938 93.1626 205.272 93.1626 205.685Z" fill="#7900FF" stroke="#6440FB"/>
  <path d="M276.498 205.685C276.498 206.098 276.164 206.433 275.751 206.433C275.339 206.433 275.004 206.098 275.004 205.685C275.004 205.272 275.339 204.938 275.751 204.938C276.164 204.938 276.498 205.272 276.498 205.685Z" fill="#7900FF" stroke="#6440FB"/>
  <path d="M109.194 205.685C109.194 206.098 108.859 206.433 108.447 206.433C108.034 206.433 107.699 206.098 107.699 205.685C107.699 205.272 108.034 204.938 108.447 204.938C108.859 204.938 109.194 205.272 109.194 205.685Z" fill="#7900FF" stroke="#6440FB"/>
  <path d="M124.221 222.716C124.221 223.129 123.886 223.464 123.474 223.464C123.061 223.464 122.727 223.129 122.727 222.716C122.727 222.303 123.061 221.969 123.474 221.969C123.886 221.969 124.221 222.303 124.221 222.716Z" fill="#7900FF" stroke="#6440FB"/>
  <path d="M139.248 222.716C139.248 223.129 138.914 223.464 138.501 223.464C138.089 223.464 137.754 223.129 137.754 222.716C137.754 222.303 138.089 221.969 138.501 221.969C138.914 221.969 139.248 222.303 139.248 222.716Z" fill="#7900FF" stroke="#6440FB"/>
  <path d="M154.276 222.716C154.276 223.129 153.941 223.464 153.529 223.464C153.116 223.464 152.781 223.129 152.781 222.716C152.781 222.303 153.116 221.969 153.529 221.969C153.941 221.969 154.276 222.303 154.276 222.716Z" fill="#7900FF" stroke="#6440FB"/>
  <path d="M169.303 222.716C169.303 223.129 168.968 223.464 168.556 223.464C168.143 223.464 167.809 223.129 167.809 222.716C167.809 222.303 168.143 221.969 168.556 221.969C168.968 221.969 169.303 222.303 169.303 222.716Z" fill="#7900FF" stroke="#6440FB"/>
  <path d="M1.99459 222.716C1.99459 223.129 1.65989 223.464 1.2473 223.464C0.834706 223.464 0.5 223.129 0.5 222.716C0.5 222.303 0.834706 221.969 1.2473 221.969C1.65989 221.969 1.99459 222.303 1.99459 222.716Z" fill="#7900FF" stroke="#6440FB"/>
  <path d="M185.331 222.716C185.331 222.864 185.287 223.009 185.205 223.132C185.122 223.255 185.006 223.35 184.869 223.407C184.733 223.464 184.582 223.478 184.437 223.449C184.293 223.421 184.159 223.349 184.055 223.245C183.95 223.14 183.879 223.007 183.85 222.862C183.821 222.717 183.836 222.567 183.893 222.43C183.949 222.293 184.045 222.177 184.168 222.095C184.291 222.012 184.435 221.969 184.583 221.969C184.781 221.969 184.971 222.047 185.112 222.187C185.252 222.328 185.331 222.518 185.331 222.716Z" fill="#7900FF" stroke="#6440FB"/>
  <path d="M17.0219 222.716C17.0219 222.864 16.9781 223.009 16.896 223.132C16.8138 223.255 16.6971 223.35 16.5606 223.407C16.424 223.464 16.2738 223.478 16.1289 223.449C15.9839 223.421 15.8508 223.349 15.7463 223.245C15.6418 223.14 15.5706 223.007 15.5417 222.862C15.5129 222.717 15.5277 222.567 15.5842 222.43C15.6408 222.293 15.7366 222.177 15.8595 222.095C15.9824 222.012 16.1269 221.969 16.2746 221.969C16.4728 221.969 16.6629 222.047 16.803 222.187C16.9432 222.328 17.0219 222.518 17.0219 222.716Z" fill="#7900FF" stroke="#6440FB"/>
  <path d="M200.362 222.716C200.362 223.129 200.027 223.464 199.614 223.464C199.202 223.464 198.867 223.129 198.867 222.716C198.867 222.303 199.202 221.969 199.614 221.969C200.027 221.969 200.362 222.303 200.362 222.716Z" fill="#7900FF" stroke="#6440FB"/>
  <path d="M32.0493 222.716C32.0493 223.129 31.7146 223.464 31.302 223.464C30.8894 223.464 30.5547 223.129 30.5547 222.716C30.5547 222.303 30.8894 221.969 31.302 221.969C31.7146 221.969 32.0493 222.303 32.0493 222.716Z" fill="#7900FF" stroke="#6440FB"/>
  <path d="M215.389 222.716C215.389 223.129 215.054 223.464 214.642 223.464C214.229 223.464 213.895 223.129 213.895 222.716C213.895 222.303 214.229 221.969 214.642 221.969C215.054 221.969 215.389 222.303 215.389 222.716Z" fill="#7900FF" stroke="#6440FB"/>
  <path d="M48.0805 222.716C48.0805 223.129 47.7458 223.464 47.3332 223.464C46.9206 223.464 46.5859 223.129 46.5859 222.716C46.5859 222.303 46.9206 221.969 47.3332 221.969C47.7458 221.969 48.0805 222.303 48.0805 222.716Z" fill="#7900FF" stroke="#6440FB"/>
  <path d="M230.416 222.716C230.416 223.129 230.082 223.464 229.669 223.464C229.257 223.464 228.922 223.129 228.922 222.716C228.922 222.303 229.257 221.969 229.669 221.969C230.082 221.969 230.416 222.303 230.416 222.716Z" fill="#7900FF" stroke="#6440FB"/>
  <path d="M63.1079 222.716C63.1079 223.129 62.7732 223.464 62.3606 223.464C61.948 223.464 61.6133 223.129 61.6133 222.716C61.6133 222.303 61.948 221.969 62.3606 221.969C62.7732 221.969 63.1079 222.303 63.1079 222.716Z" fill="#7900FF" stroke="#6440FB"/>
  <path d="M246.444 222.716C246.444 223.129 246.109 223.464 245.697 223.464C245.284 223.464 244.949 223.129 244.949 222.716C244.949 222.303 245.284 221.969 245.697 221.969C246.109 221.969 246.444 222.303 246.444 222.716Z" fill="#7900FF" stroke="#6440FB"/>
  <path d="M78.1352 222.716C78.1352 223.129 77.8005 223.464 77.3879 223.464C76.9753 223.464 76.6406 223.129 76.6406 222.716C76.6406 222.303 76.9753 221.969 77.3879 221.969C77.8005 221.969 78.1352 222.303 78.1352 222.716Z" fill="#7900FF" stroke="#6440FB"/>
  <path d="M261.471 222.716C261.471 223.129 261.136 223.464 260.724 223.464C260.311 223.464 259.977 223.129 259.977 222.716C259.977 222.303 260.311 221.969 260.724 221.969C261.136 221.969 261.471 222.303 261.471 222.716Z" fill="#7900FF" stroke="#6440FB"/>
  <path d="M93.1626 222.716C93.1626 223.129 92.8279 223.464 92.4153 223.464C92.0027 223.464 91.668 223.129 91.668 222.716C91.668 222.303 92.0027 221.969 92.4153 221.969C92.8279 221.969 93.1626 222.303 93.1626 222.716Z" fill="#7900FF" stroke="#6440FB"/>
  <path d="M276.498 222.716C276.498 223.129 276.164 223.464 275.751 223.464C275.339 223.464 275.004 223.129 275.004 222.716C275.004 222.303 275.339 221.969 275.751 221.969C276.164 221.969 276.498 222.303 276.498 222.716Z" fill="#7900FF" stroke="#6440FB"/>
  <path d="M109.194 222.716C109.194 223.129 108.859 223.464 108.447 223.464C108.034 223.464 107.699 223.129 107.699 222.716C107.699 222.303 108.034 221.969 108.447 221.969C108.859 221.969 109.194 222.303 109.194 222.716Z" fill="#7900FF" stroke="#6440FB"/>
  <path d="M124.221 239.748C124.221 240.161 123.886 240.495 123.474 240.495C123.061 240.495 122.727 240.161 122.727 239.748C122.727 239.335 123.061 239 123.474 239C123.886 239 124.221 239.335 124.221 239.748Z" fill="#7900FF" stroke="#6440FB"/>
  <path d="M139.248 239.748C139.248 240.161 138.914 240.495 138.501 240.495C138.089 240.495 137.754 240.161 137.754 239.748C137.754 239.335 138.089 239 138.501 239C138.914 239 139.248 239.335 139.248 239.748Z" fill="#7900FF" stroke="#6440FB"/>
  <path d="M154.276 239.748C154.276 240.161 153.941 240.495 153.529 240.495C153.116 240.495 152.781 240.161 152.781 239.748C152.781 239.335 153.116 239 153.529 239C153.941 239 154.276 239.335 154.276 239.748Z" fill="#7900FF" stroke="#6440FB"/>
  <path d="M169.303 239.748C169.303 240.161 168.968 240.495 168.556 240.495C168.143 240.495 167.809 240.161 167.809 239.748C167.809 239.335 168.143 239 168.556 239C168.968 239 169.303 239.335 169.303 239.748Z" fill="#7900FF" stroke="#6440FB"/>
  <path d="M1.99459 239.748C1.99459 240.161 1.65989 240.495 1.2473 240.495C0.834706 240.495 0.5 240.161 0.5 239.748C0.5 239.335 0.834706 239 1.2473 239C1.65989 239 1.99459 239.335 1.99459 239.748Z" fill="#7900FF" stroke="#6440FB"/>
  <path d="M185.331 239.748C185.331 239.896 185.287 240.04 185.205 240.163C185.122 240.286 185.006 240.382 184.869 240.438C184.733 240.495 184.582 240.51 184.437 240.481C184.293 240.452 184.159 240.381 184.055 240.276C183.95 240.172 183.879 240.039 183.85 239.894C183.821 239.748 183.836 239.598 183.893 239.461C183.949 239.325 184.045 239.208 184.168 239.126C184.291 239.044 184.435 239 184.583 239C184.781 239 184.971 239.079 185.112 239.219C185.252 239.359 185.331 239.549 185.331 239.748Z" fill="#7900FF" stroke="#6440FB"/>
  <path d="M17.0219 239.748C17.0219 239.896 16.9781 240.04 16.896 240.163C16.8138 240.286 16.6971 240.382 16.5606 240.438C16.424 240.495 16.2738 240.51 16.1289 240.481C15.9839 240.452 15.8508 240.381 15.7463 240.276C15.6418 240.172 15.5706 240.039 15.5417 239.894C15.5129 239.748 15.5277 239.598 15.5842 239.461C15.6408 239.325 15.7366 239.208 15.8595 239.126C15.9824 239.044 16.1269 239 16.2746 239C16.4728 239 16.6629 239.079 16.803 239.219C16.9432 239.359 17.0219 239.549 17.0219 239.748Z" fill="#7900FF" stroke="#6440FB"/>
  <path d="M200.362 239.748C200.362 240.161 200.027 240.495 199.614 240.495C199.202 240.495 198.867 240.161 198.867 239.748C198.867 239.335 199.202 239 199.614 239C200.027 239 200.362 239.335 200.362 239.748Z" fill="#7900FF" stroke="#6440FB"/>
  <path d="M32.0493 239.748C32.0493 240.161 31.7146 240.495 31.302 240.495C30.8894 240.495 30.5547 240.161 30.5547 239.748C30.5547 239.335 30.8894 239 31.302 239C31.7146 239 32.0493 239.335 32.0493 239.748Z" fill="#7900FF" stroke="#6440FB"/>
  <path d="M215.389 239.748C215.389 240.161 215.054 240.495 214.642 240.495C214.229 240.495 213.895 240.161 213.895 239.748C213.895 239.335 214.229 239 214.642 239C215.054 239 215.389 239.335 215.389 239.748Z" fill="#7900FF" stroke="#6440FB"/>
  <path d="M48.0805 239.748C48.0805 240.161 47.7458 240.495 47.3332 240.495C46.9206 240.495 46.5859 240.161 46.5859 239.748C46.5859 239.335 46.9206 239 47.3332 239C47.7458 239 48.0805 239.335 48.0805 239.748Z" fill="#7900FF" stroke="#6440FB"/>
  <path d="M230.416 239.748C230.416 240.161 230.082 240.495 229.669 240.495C229.257 240.495 228.922 240.161 228.922 239.748C228.922 239.335 229.257 239 229.669 239C230.082 239 230.416 239.335 230.416 239.748Z" fill="#7900FF" stroke="#6440FB"/>
  <path d="M63.1079 239.748C63.1079 240.161 62.7732 240.495 62.3606 240.495C61.948 240.495 61.6133 240.161 61.6133 239.748C61.6133 239.335 61.948 239 62.3606 239C62.7732 239 63.1079 239.335 63.1079 239.748Z" fill="#7900FF" stroke="#6440FB"/>
  <path d="M246.444 239.748C246.444 240.161 246.109 240.495 245.697 240.495C245.284 240.495 244.949 240.161 244.949 239.748C244.949 239.335 245.284 239 245.697 239C246.109 239 246.444 239.335 246.444 239.748Z" fill="#7900FF" stroke="#6440FB"/>
  <path d="M78.1352 239.748C78.1352 240.161 77.8005 240.495 77.3879 240.495C76.9753 240.495 76.6406 240.161 76.6406 239.748C76.6406 239.335 76.9753 239 77.3879 239C77.8005 239 78.1352 239.335 78.1352 239.748Z" fill="#7900FF" stroke="#6440FB"/>
  <path d="M261.471 239.748C261.471 240.161 261.136 240.495 260.724 240.495C260.311 240.495 259.977 240.161 259.977 239.748C259.977 239.335 260.311 239 260.724 239C261.136 239 261.471 239.335 261.471 239.748Z" fill="#7900FF" stroke="#6440FB"/>
  <path d="M93.1626 239.748C93.1626 240.161 92.8279 240.495 92.4153 240.495C92.0027 240.495 91.668 240.161 91.668 239.748C91.668 239.335 92.0027 239 92.4153 239C92.8279 239 93.1626 239.335 93.1626 239.748Z" fill="#7900FF" stroke="#6440FB"/>
  <path d="M276.498 239.748C276.498 240.161 276.164 240.495 275.751 240.495C275.339 240.495 275.004 240.161 275.004 239.748C275.004 239.335 275.339 239 275.751 239C276.164 239 276.498 239.335 276.498 239.748Z" fill="#7900FF" stroke="#6440FB"/>
  <path d="M109.194 239.748C109.194 240.161 108.859 240.495 108.447 240.495C108.034 240.495 107.699 240.161 107.699 239.748C107.699 239.335 108.034 239 108.447 239C108.859 239 109.194 239.335 109.194 239.748Z" fill="#7900FF" stroke="#6440FB"/>
  </mask>
  <g mask="url(#mask0_34_6983)">
  <path d="M247.957 121.257C247.957 181.861 198.841 230.99 138.254 230.99C77.6666 230.99 28.5508 181.861 28.5508 121.257C28.5508 60.6524 77.6666 11.5233 138.254 11.5233C198.841 11.5233 247.957 60.6524 247.957 121.257Z" fill="#006766" stroke="#006766"/>
  </g>
  </g>
</svg>  