<svg width="118" height="120" viewBox="0 0 118 120" fill="none" xmlns="http://www.w3.org/2000/svg">
<path fill-rule="evenodd" clip-rule="evenodd" d="M15.5117 71.4787C17.7684 77.1897 21.1909 82.5303 25.7899 87.1288L58.6592 119.998L91.5278 87.1288C96.1268 82.5299 99.5594 77.1897 101.817 71.4787C95.7657 67.6958 88.0526 65.958 80.6984 66.6361C79.5863 68.6072 78.198 70.4508 76.5237 72.1251C66.6586 81.9901 50.6591 81.9901 40.794 72.1251C39.1197 70.4508 37.7322 68.6075 36.6294 66.6361C29.2651 65.9577 21.5621 67.6955 15.5117 71.4787Z" fill="#006766"/>
<path fill-rule="evenodd" clip-rule="evenodd" d="M62.6666 68.8516C74.3114 59.6433 92.547 59.877 104.934 68.0674C104.235 48.772 108.441 29.6145 117.173 12.3956C112.658 11.0925 107.943 10.7322 103.334 11.3149C103.122 12.3425 102.91 13.3809 102.719 14.4194C104.838 14.3667 106.958 14.4829 109.067 14.7692C103.641 29.3072 100.982 44.7453 101.257 60.2792C88.2341 56.3909 72.1392 59.1245 62.6666 68.8516ZM58.6613 20.4701C57.4853 38.5155 57.4853 48.8886 58.6613 66.934C59.8478 48.8886 59.8478 38.5155 58.6613 20.4701ZM54.656 68.8516C43.0105 59.6433 24.7748 59.877 12.3884 68.0674C13.0979 48.772 8.88101 29.6145 0.160156 12.3956C4.67422 11.0925 9.37892 10.7322 13.9988 11.3149C14.2103 12.3425 14.4118 13.3809 14.6129 14.4194C12.4942 14.3667 10.3646 14.4829 8.2661 14.7692C13.6915 29.3072 16.3403 44.7453 16.0752 60.2792C29.0874 56.3909 45.183 59.1245 54.656 68.8516ZM57.2834 71.5221C49.3999 58.9339 34.3326 52.8412 19.9112 56.4013C21.2678 37.7631 19.4556 19.0295 14.5393 1.00539C28.9498 -2.55435 44.0283 3.53791 51.9115 16.1261C43.9001 7.8718 32.6796 3.54838 21.2042 4.27992C24.743 19.3581 26.3534 34.8175 25.9938 50.3091C39.5666 50.9976 51.6255 59.1667 57.2834 71.5221ZM25.9934 11.633C36.1123 8.7192 46.9309 12.8939 52.4621 21.8476C45.5538 14.7378 35.8899 11.008 25.9934 11.633ZM29.4264 46.9815C39.5453 44.0676 50.3647 48.2423 55.8955 57.196C48.9868 50.0859 39.3233 46.3565 29.4264 46.9815ZM28.5685 38.1447C38.6874 35.2305 49.5061 39.4056 55.0373 48.3589C48.1282 41.2492 38.4646 37.5193 28.5685 38.1447ZM27.7099 29.3072C37.8288 26.3931 48.6474 30.5681 54.1786 39.5218C47.2704 32.4121 37.6064 28.6819 27.7099 29.3072ZM26.8513 20.4701C36.9709 17.5563 47.7896 21.7313 53.3207 30.6847C46.4117 23.575 36.7485 19.8451 26.8513 20.4701ZM60.038 71.5221C67.9215 58.9339 83.0001 52.8412 97.4106 56.4013C96.0541 37.7631 97.8771 19.0295 102.793 1.00539C88.372 -2.55435 73.3043 3.53791 65.4208 16.1261C73.4314 7.8718 84.6418 3.54838 96.1172 4.27992C92.5885 19.3581 90.9782 34.8175 91.3277 50.3091C77.7653 50.9976 65.7071 59.1667 60.038 71.5221ZM91.3393 11.633C81.2204 8.7192 70.401 12.8939 64.8597 21.8476C71.7684 14.7378 81.4421 11.008 91.3393 11.633ZM87.9062 46.9815C77.7866 44.0676 66.968 48.2423 61.4267 57.196C68.335 50.0859 78.009 46.3565 87.9062 46.9815ZM88.7641 38.1447C78.6452 35.2305 67.8266 39.4056 62.2846 48.3589C69.1936 41.2492 78.8676 37.5193 88.7641 38.1447ZM89.6228 29.3072C79.5031 26.3931 68.6845 30.5681 63.1432 39.5218C70.0511 32.4121 79.7255 28.6819 89.6228 29.3072ZM90.4806 20.4701C80.3618 17.5563 69.5431 21.7313 64.0011 30.6847C70.9097 23.575 80.5842 19.8451 90.4806 20.4701Z" fill="#006766"/>
</svg>
