<svg width="184" height="120" viewBox="0 0 184 120" fill="none" xmlns="http://www.w3.org/2000/svg">
<path fill-rule="evenodd" clip-rule="evenodd" d="M88.0865 30.6488V40.4366C81.3477 41.1856 74.8227 44.127 69.6882 49.2609C57.6369 61.3121 57.6369 81.0117 69.6882 93.0453L79.9741 103.35C61.4871 88.7492 37.0104 83.5437 13.9405 89.6938V1.85767C34.4073 -3.59754 88.0865 2.08973 88.0865 30.6488ZM87.7645 120C67.6021 94.3466 40.8254 88.8737 7.79037 97.6804V9.3625C4.86717 9.68388 2.22825 10.1474 0 10.7361V109.125C29.3087 96.3792 62.2003 100.569 87.7645 120ZM95.3775 120C115.54 94.3466 142.317 88.8737 175.352 97.6804V9.3625C178.275 9.68388 180.914 10.1474 183.16 10.7361V109.125C153.852 96.3792 120.924 100.569 95.3775 120ZM95.0561 30.6488V40.4366C101.795 41.1856 108.32 44.127 113.473 49.2609C125.506 61.3121 125.506 81.0117 113.473 93.0453L103.15 103.35C121.637 88.7492 146.132 83.5437 169.201 89.6938V1.85767C148.735 -3.59754 95.0561 2.08973 95.0561 30.6488ZM91.3304 87.9819C101.135 88.1253 108.302 80.3167 108.391 71.1534C108.302 61.6863 100.779 54.306 91.5084 54.3419C81.9533 54.3595 74.8396 62.0788 74.751 71.1534C74.8396 80.3519 82.0426 87.8391 91.3304 87.9819Z" fill="#890C25"/>
</svg>
