<svg width="91" height="120" viewBox="0 0 91 120" fill="none" xmlns="http://www.w3.org/2000/svg">
<path d="M17.3322 87.3647L45.4248 102.628L75.9622 86.0312V103.401L45.4248 119.998L14.8867 103.401V86.0312L17.3322 87.3647ZM44.6418 105.952L18.2 91.5776V101.443L45.4248 116.24L72.6601 101.443V91.5776L45.4248 106.386L44.6418 105.952Z" fill="#006766"/>
<path d="M3.23445 73.0486L29.6336 58.6953L32.0571 61.13L7.46858 74.4985L45.426 95.1289L83.3835 74.4985L58.7942 61.13L61.2184 58.7058L90.2842 74.4985C75.3278 82.6173 60.3711 90.7465 45.4256 98.8761L0.566406 74.4985L3.23445 73.0486Z" fill="#006766"/>
<path d="M44.6363 75.9332C43.832 75.4993 43.5351 74.5045 43.969 73.7002C44.4138 72.9059 45.4086 72.6098 46.2133 73.0437L67.7749 84.7719V113.267C68.6853 113.817 69.2991 114.822 69.2991 115.966C69.2991 117.723 67.8697 119.141 66.1236 119.141C64.3768 119.141 62.9582 117.723 62.9582 115.966C62.9582 114.822 63.562 113.817 64.4724 113.267V86.7193L44.6363 75.9332Z" fill="#006766"/>
<path fill-rule="evenodd" clip-rule="evenodd" d="M24.9664 8.43848C13.7143 19.6905 13.7143 38.108 24.9664 49.3601L45.4276 69.8209L65.888 49.3601C77.14 38.108 77.14 19.6905 65.888 8.43848C54.6359 -2.81283 36.2184 -2.81283 24.9664 8.43848ZM34.3133 17.7854C28.1628 23.9247 28.1628 33.8851 34.3133 40.0244C40.4518 46.1637 50.4123 46.1637 56.5519 40.0244C62.6912 33.8855 62.6912 23.9247 56.5519 17.7854C50.4123 11.6353 40.4522 11.6353 34.3133 17.7854Z" fill="#006766"/>
</svg>
