<svg width="150" height="120" viewBox="0 0 150 120" fill="none" xmlns="http://www.w3.org/2000/svg">
<path d="M147.901 15.6336L148.252 15.625C147.995 15.9336 147.267 16.1565 146.898 16.3365L143.881 17.9052C137.469 21.3511 131.391 26.0314 126.3 31.2346C126.145 31.3975 125.434 32.1004 125.399 32.2976C125.382 32.3747 125.537 32.829 125.571 32.9319C125.777 33.7034 126.051 34.5177 126.059 35.3149C125.871 35.555 125.699 35.7178 125.417 35.855C124.602 36.275 123.676 36.5407 122.828 36.8836C121.336 37.4922 119.896 38.1694 118.482 38.9409L118.079 35.915C111.633 39.0866 105.444 42.9097 99.8462 47.4015L97.4375 49.3816C97.4975 48.9187 97.5061 48.353 97.6432 47.9072C97.8832 47.1443 98.6976 46.2014 99.1605 45.5499C102.709 40.501 106.935 36.1036 111.753 32.2547C113.484 30.8746 115.31 29.6745 117.153 28.4573C124.311 23.717 132.154 19.9453 140.392 17.4937C142.844 16.7651 145.389 16.0707 147.901 15.6336Z" fill="#00001B"/>
<path d="M66.7818 0.585092C68.659 0.165062 70.742 0.105061 72.6536 0.0364852C80.1713 -0.23782 87.3803 1.03941 94.4008 3.70531C97.5125 4.88825 100.667 6.34549 103.479 8.12847C108.759 11.4801 113.431 15.329 117.391 20.1893C118.197 21.1837 119.045 22.1694 119.705 23.2752L113.234 27.2698C110.953 24.0896 108.399 21.0979 105.442 18.5263C99.1669 13.0402 90.9549 9.2857 82.7429 7.94846C78.7397 7.29699 74.7537 7.2027 70.7163 7.49414C64.733 7.86274 58.4583 9.74858 53.0837 12.3888C44.7088 16.5033 37.714 23.0609 32.9909 31.1101C31.645 33.4159 30.3764 35.919 29.5192 38.4563L22.6016 35.4218C24.4445 30.6815 26.9647 26.2926 30.0335 22.238C38.7341 10.7601 52.4922 2.55666 66.7818 0.585092Z" fill="#00001B"/>
<path d="M54.5287 29.5419L51.2456 27.9904L51.1942 28.3847C50.9885 31.7792 51.1428 35.2852 51.1428 38.6883V40.8484C51.1428 41.0799 51.0913 41.4485 51.1685 41.6542C51.2542 41.8771 51.6142 42.1771 51.7857 42.3485L53.0715 43.7543C52.3257 44.7658 51.2113 45.683 50.2856 46.5317C49.7455 46.2831 49.2226 45.7002 48.7769 45.2973C48.2797 44.8516 47.6968 44.3972 47.2596 43.9001C47.2339 43.8744 47.1139 43.7201 47.1139 43.7029C47.1225 43.6686 47.4311 43.3857 47.4654 43.3515L48.9826 41.8085C49.0598 41.7313 49.3769 41.4656 49.4026 41.3799C49.4627 41.1742 49.4112 40.7027 49.4198 40.4713L49.4112 27.2703C49.0255 26.8675 48.0311 26.576 47.4997 26.3446C45.7253 25.5902 43.8308 24.9216 42.125 24.013L74.613 10.0234C77.1417 10.8206 79.6705 12.0893 82.1221 13.1351L97.4831 19.8298L102.498 21.9986C103.509 22.4272 104.675 22.7872 105.601 23.3786C105.884 23.5587 106.055 23.7644 106.115 24.0901C105.301 24.6473 104.186 25.0073 103.286 25.4359L95.1087 29.3191L79.7048 36.6053L76.6274 38.0882C75.9845 38.4054 75.3587 38.774 74.673 39.0054L54.5287 29.5419Z" fill="#00001B"/>
<path d="M54.5375 29.5339L74.6817 39.0145C75.3675 38.7831 75.9933 38.4145 76.6362 38.0973L79.7135 36.6143L95.1174 29.3281V32.5941L94.9889 51.8468C86.2454 60.0245 79.3449 70.0024 76.9105 81.9003C76.3361 84.6948 76.0961 87.5836 75.9933 90.4381C75.9247 92.3582 75.9675 94.304 76.2933 96.1985C76.5076 94.2183 76.6104 92.2468 77.0219 90.2923C78.1706 84.8491 80.5193 79.6802 83.3995 74.9398C83.9652 74.0055 84.5396 72.9683 85.2339 72.1197L85.251 72.0511C85.5511 71.4253 86.0997 70.791 86.5026 70.2167L89.8542 65.6564C95.4089 58.5159 102.455 52.2926 110.058 47.398C117.225 42.7776 125.008 39.1688 132.946 36.1172L140.489 33.3913C142.049 32.8598 143.609 32.2769 145.212 31.8654L149.121 30.6225C148.907 31.0254 147.184 33.3741 146.884 33.5284C145.118 36.1429 142.924 38.6031 140.806 40.9432C137.763 44.312 134.609 47.5694 131.111 50.4582C128.625 52.5154 125.9 54.3584 123.165 56.0728C120.396 57.813 117.533 59.4759 114.576 60.8903L99.1292 67.3622L133.194 41.5518C132.354 41.749 131.54 42.3319 130.786 42.7433L127.888 44.252L113.659 51.9411L104.675 57.6158C101.461 59.7417 98.3405 61.8504 95.3575 64.302C93.4116 65.8964 91.5172 67.5765 89.7514 69.368L87.5226 71.8454C87.2569 72.1539 86.8883 72.7797 86.5797 72.9769C82.7052 78.1886 80.0135 83.8205 78.3677 90.1123C78.0163 91.4581 77.6219 92.8554 77.5105 94.244C77.4934 94.4841 77.4762 94.7069 77.5019 94.947C77.5705 94.5183 77.6219 94.0897 77.742 93.6697C78.1706 92.2382 78.5734 90.8667 79.1906 89.5037C82.1394 83.0233 87.3083 78.0429 93.4973 74.6398C97.029 72.7026 100.749 71.4339 104.461 69.9338C108.095 68.468 111.67 66.7964 115.142 64.9792C116.925 64.0448 118.828 63.1276 120.379 61.8247C118.493 75.557 110.427 87.995 99.4549 96.2756L92.4601 100.724C93.8916 100.424 95.4775 99.5501 96.8061 98.9329C104.59 95.3241 111.113 89.8466 115.836 82.6718C119.342 77.3486 121.999 70.9367 123.217 64.6706C123.362 63.9248 123.757 60.2131 124.022 59.8445C124.117 59.7159 124.554 59.5016 124.691 59.4074L127.083 57.8215C128.745 56.6986 130.28 55.4814 131.789 54.1613C132.26 68.3994 126.585 83.7605 116.848 94.1669C113.127 98.1443 109.004 101.676 104.35 104.522C101.898 106.031 99.1463 107.222 96.5747 108.516L85.7654 114.14L78.7706 117.817C77.4505 118.529 75.9847 119.523 74.5789 120.003L69.8728 117.208L53.3374 108.688C49.8057 106.879 46.1798 105.173 42.8452 103.022C31.1787 95.487 23.0782 83.4347 19.7094 70.0367C18.4236 64.9363 17.7807 59.5874 17.9007 54.3241L25.8298 59.9645C26.927 72.1539 32.8588 84.6177 42.3138 92.5125C45.7683 95.3927 49.4457 97.7243 53.5689 99.5416C55.6433 100.459 57.6749 101.256 59.9036 101.745C59.1921 101.402 58.4378 101.179 57.7177 100.87C56.1833 100.219 54.6489 99.473 53.2174 98.6329C43.1367 92.7439 35.7133 82.929 31.9159 72.0082C30.8016 68.8109 30.2015 65.4078 29.5672 62.099L42.6052 68.5708L51.4516 72.3768C58.0863 75.497 64.0782 79.5345 68.2699 85.6549C69.3928 87.2921 70.3957 89.0923 71.1158 90.9524C71.4158 91.7324 71.6044 92.7268 71.9987 93.4468C72.093 92.984 71.793 92.1353 71.673 91.681C70.8243 88.3551 69.5985 84.8491 68.0899 81.7546L66.5555 78.7716C66.3755 78.4544 65.7925 77.6486 65.7668 77.3572C64.9268 76.4228 64.301 75.1027 63.5638 74.0655C62.1494 72.0854 60.555 70.2767 58.9092 68.4937C58.8492 68.4937 58.8921 68.4937 58.8149 68.4251L53.8603 64.0791C50.8172 61.6446 47.6113 59.4759 44.3196 57.3844L21.0723 44.2092L18.1578 42.5976C17.7292 42.3576 17.1549 41.9547 16.6663 41.9119C17.0092 42.2462 17.5235 42.5119 17.9178 42.8033L20.8237 44.9292L33.4675 54.3156L44.7568 62.9219L50.3629 67.3022C49.6429 67.0707 48.94 66.6593 48.2456 66.3507L45.0397 65.0306C38.3364 62.399 31.7702 59.6559 25.6155 55.8585C22.281 53.8012 19.1693 51.3839 16.2377 48.778C14.8405 47.5351 13.3318 46.2836 12.0888 44.8863C10.8802 43.952 9.74867 42.6319 8.72003 41.4918C5.68553 38.1144 2.74533 34.4456 0.285156 30.6396C0.679469 30.6739 1.1595 30.914 1.5281 31.034L3.9797 31.8483L22.1695 38.7059C24.9812 39.8117 27.6985 41.1232 30.3901 42.4776C36.9391 45.7693 43.1367 49.5838 48.7171 54.3584C51.0915 56.39 53.2345 58.5759 55.3775 60.8389L59.1235 65.0992C59.6378 65.7421 60.255 66.445 60.6751 67.1565L60.7008 67.2165L64.9525 73.2683C65.6297 74.3141 66.4183 75.4542 66.9155 76.5857L66.9241 76.5943C69.6928 81.3174 71.9387 86.5807 72.8559 91.9982C73.0445 93.1211 73.0873 94.2955 73.1645 95.4356L73.2759 95.4441L73.4559 91.7239C73.4731 83.4862 71.2272 75.1113 67.2584 67.8851C64.0867 62.1075 59.9293 57.0072 55.2918 52.344C55.0775 52.1211 54.5289 51.6754 54.4089 51.4011C54.3489 51.2725 54.4003 50.8439 54.4003 50.6725L54.3918 48.0323L54.4089 32.5683L54.5375 29.5339Z" fill="#00001B"/>
<path d="M54.5411 29.5339L74.6854 39.0145C75.3711 38.7831 75.9969 38.4145 76.6398 38.0973L79.7172 36.6143L95.1211 29.3281V32.5941C94.3239 33.1341 93.3981 33.5198 92.5323 33.9399L88.7263 35.8L74.6597 42.7433L54.6011 32.6369L54.4297 32.5683L54.5411 29.5339Z" fill="white"/>
</svg>
