<svg width="121" height="120" viewBox="0 0 121 120" fill="none" xmlns="http://www.w3.org/2000/svg">
<path fill-rule="evenodd" clip-rule="evenodd" d="M18.0191 107.794H17.5586C17.0822 107.794 16.7115 107.995 16.446 108.4C16.3192 108.592 16.2572 109.024 16.2572 109.702V114.668C16.2572 115.8 16.1674 116.662 15.9854 117.253C15.7193 118.081 15.2127 118.755 14.4583 119.265C13.7413 119.753 12.7674 119.997 11.537 119.997C9.1479 119.997 7.64235 119.141 7.01523 117.432C6.82078 116.903 6.72471 115.895 6.72471 114.415V109.627C6.72471 109.003 6.65703 108.564 6.52399 108.317C6.32954 107.967 5.95259 107.794 5.39256 107.794H4.92578V107.442H10.2486V107.794H9.77218C9.26218 107.794 8.89773 107.955 8.67826 108.273C8.52646 108.489 8.44972 108.944 8.44972 109.63V114.977C8.44972 116.424 8.65382 117.45 9.05863 118.053C9.58398 118.841 10.4465 119.237 11.6456 119.237C12.3716 119.237 13.0454 119.086 13.6606 118.785C14.3684 118.445 14.854 117.972 15.1132 117.364C15.3452 116.823 15.4595 115.899 15.4595 114.597V109.63C15.4595 108.863 15.3759 108.384 15.2059 108.193C14.9711 107.926 14.6214 107.794 14.158 107.794H13.6975V107.442H18.0186L18.0191 107.794ZM31.3564 107.794H30.9209C30.4013 107.794 30.0305 107.951 29.8139 108.264C29.6809 108.459 29.6132 108.898 29.6132 109.584V119.923H29.2857L21.1752 110.038V117.58C21.1752 118.337 21.2554 118.807 21.4191 118.987C21.6448 119.24 21.9974 119.367 22.4824 119.367H22.9184V119.72H18.6531V119.367H19.0795C19.6049 119.367 19.979 119.21 20.195 118.897C20.3281 118.706 20.3957 118.267 20.3957 117.581V109.068C20.0773 108.694 19.8391 108.447 19.6816 108.327C19.4593 108.147 19.1591 107.996 18.7793 107.875C18.6127 107.823 18.3466 107.795 17.985 107.795V107.442H21.3231L28.8343 116.649V109.583C28.8343 108.829 28.7507 108.359 28.5807 108.174C28.355 107.92 28.0031 107.794 27.5175 107.794H27.0911V107.442H31.3564V107.794ZM37.3502 119.718H32.0831V119.366H32.5191C33.0291 119.366 33.397 119.218 33.6284 118.924C33.7734 118.739 33.845 118.275 33.845 117.533V109.627C33.845 109.006 33.8046 108.598 33.7273 108.4C33.6653 108.242 33.542 108.112 33.3532 108.011C33.0934 107.866 32.8154 107.795 32.5186 107.795H32.0825V107.442H37.3496V107.794H36.9016C36.3978 107.794 36.03 107.942 35.798 108.236C35.6468 108.427 35.5694 108.891 35.5694 109.627V117.533C35.5694 118.155 35.6098 118.563 35.6872 118.76C35.8537 119.165 36.2591 119.366 36.9016 119.366H37.3496L37.3502 119.718ZM50.9627 107.794C50.5209 107.871 50.1928 108.01 49.9734 108.211C49.6612 108.492 49.377 108.944 49.1234 109.565L44.833 119.997H44.4993L39.9064 109.429C39.6716 108.882 39.5045 108.551 39.409 108.437C39.1093 108.063 38.6272 107.85 37.9625 107.794V107.442H42.9699V107.794C42.0675 107.877 41.6161 108.153 41.6161 108.616C41.6161 108.916 41.7548 109.386 42.0334 110.026L45.1548 117.206L48.051 110.115C48.3353 109.423 48.4775 108.938 48.4775 108.66C48.4775 108.227 48.0971 107.949 47.3335 107.822L47.1789 107.795V107.442H50.9621V107.794H50.9627ZM62.0928 116.64L61.0358 119.718H51.5778V119.366H52.0133C52.2976 119.366 52.5728 119.298 52.8389 119.159C53.0891 119.032 53.2437 118.795 53.3023 118.445C53.3267 118.319 53.3392 118.019 53.3392 117.543V109.59C53.3392 108.808 53.2619 108.329 53.1044 108.156C52.8912 107.915 52.5296 107.795 52.0133 107.795H51.5778V107.442H61.0301L61.166 110.131H60.8135C60.7118 109.605 60.6094 109.235 60.5042 109.015C60.3314 108.647 60.0653 108.391 59.71 108.245C59.4848 108.156 59.0612 108.11 58.4335 108.11H55.0642V112.968H57.7689C58.4705 112.968 58.9373 112.863 59.1755 112.653C59.4905 112.375 59.6639 111.887 59.7009 111.188H60.0534V115.454H59.7009C59.6173 114.848 59.5303 114.462 59.4473 114.298C59.2153 113.843 58.6564 113.618 57.7689 113.618H55.0642V117.674C55.0642 118.097 55.0676 118.329 55.0733 118.373C55.1103 118.657 55.2155 118.846 55.3889 118.945C55.5094 119.016 55.7414 119.053 56.078 119.053H58.1584C58.7548 119.053 59.1875 119.022 59.4598 118.963C59.8834 118.864 60.2541 118.656 60.5724 118.335C60.9403 117.967 61.3235 117.402 61.7221 116.641H62.0928V116.64ZM75.0531 119.718H71.7611L67.6067 113.969C67.2974 113.982 67.0472 113.988 66.8522 113.988C66.6884 113.988 66.5122 113.982 66.3178 113.969V117.53C66.3178 118.296 66.4013 118.776 66.5713 118.967C66.8067 119.233 67.1496 119.366 67.6004 119.366H68.0797V119.719H62.8313V119.366H63.2919C63.811 119.366 64.1822 119.196 64.4045 118.86C64.5313 118.668 64.5933 118.226 64.5933 117.534V109.628C64.5933 108.858 64.5097 108.379 64.3397 108.194C64.1049 107.928 63.7553 107.795 63.2919 107.795H62.8313V107.442H67.3008C68.3918 107.442 69.1924 107.497 69.7058 107.606C70.5746 107.791 71.2574 108.181 71.7583 108.771C72.1881 109.281 72.4013 109.89 72.4013 110.595C72.4013 112.239 71.3939 113.284 69.3783 113.729L71.9129 117.249C72.4258 117.966 72.8619 118.455 73.2201 118.714C73.6959 119.07 74.3049 119.289 75.0531 119.366V119.718ZM70.3796 110.718C70.3796 109.939 70.1385 109.312 69.6529 108.839C69.1674 108.366 68.5312 108.128 67.746 108.128C67.3935 108.128 66.9176 108.183 66.3178 108.295V113.414H66.5713C66.689 113.414 66.7726 113.414 66.8278 113.414C67.8136 113.414 68.6238 113.216 69.2544 112.82C70.006 112.35 70.3796 111.648 70.3796 110.718ZM84.1961 116.584C84.1961 117.604 83.8033 118.439 83.0152 119.091C82.2733 119.693 81.3829 119.996 80.3447 119.996C79.9956 119.996 79.6619 119.969 79.3435 119.916C79.161 119.885 78.7715 119.768 78.1688 119.564C77.6406 119.388 77.2722 119.301 77.0687 119.301C76.7685 119.301 76.5831 119.533 76.5183 119.996H76.1663V115.787H76.5188C76.6576 116.578 76.8338 117.175 77.0533 117.58C77.3347 118.118 77.7737 118.544 78.3701 118.856C78.9142 119.147 79.5106 119.293 80.1599 119.293C80.812 119.293 81.3681 119.123 81.8321 118.785C82.3455 118.418 82.6019 117.917 82.6019 117.283C82.6019 116.619 82.2619 116.028 81.579 115.509C81.1617 115.188 80.472 114.767 79.5112 114.245C78.5469 113.725 77.8482 113.29 77.4121 112.947C76.5064 112.236 76.0555 111.386 76.0555 110.394C76.0555 109.442 76.4199 108.657 77.1494 108.042C77.8419 107.457 78.6731 107.164 79.6408 107.164C80.2992 107.164 80.9883 107.325 81.7087 107.643C82.0549 107.794 82.2897 107.868 82.4228 107.868C82.7383 107.868 82.9447 107.634 83.0471 107.164H83.3996V111.411H83.0471C82.8429 109.883 82.2494 108.852 81.2697 108.314C80.7535 108.029 80.2191 107.887 79.6658 107.887C79.1064 107.887 78.6146 108.057 78.1882 108.394C77.731 108.762 77.5019 109.22 77.5019 109.77C77.5019 110.138 77.6315 110.478 77.8913 110.793C78.2683 111.244 79.1553 111.85 80.5528 112.604C81.5205 113.12 82.1385 113.476 82.4103 113.661C83.1028 114.131 83.5877 114.638 83.8629 115.181C84.0847 115.629 84.1961 116.096 84.1961 116.584ZM90.9307 119.718H85.6641V119.366H86.1002C86.6102 119.366 86.9781 119.218 87.2095 118.924C87.3551 118.739 87.4256 118.275 87.4256 117.533V109.627C87.4256 109.006 87.3852 108.598 87.3078 108.4C87.2464 108.242 87.1225 108.112 86.9337 108.011C86.6745 107.866 86.3959 107.795 86.0991 107.795H85.6636V107.442H90.9302V107.794H90.4821C89.9784 107.794 89.61 107.942 89.3786 108.236C89.2273 108.427 89.15 108.891 89.15 109.627V117.533C89.15 118.155 89.1898 118.563 89.2671 118.76C89.4343 119.165 89.8385 119.366 90.4816 119.366H90.9296V119.718H90.9307ZM102.25 110.316H101.91C101.842 109.808 101.753 109.444 101.638 109.228C101.273 108.545 100.615 108.202 99.6564 108.202H97.9223V117.574C97.9223 118.334 98.0053 118.807 98.1696 118.986C98.3953 119.24 98.7507 119.366 99.2363 119.366H99.6661V119.719H94.4365V119.366H94.8782C95.4036 119.366 95.7749 119.209 95.9972 118.897C96.1302 118.702 96.1978 118.263 96.1978 117.574V108.202H94.7173C94.1362 108.202 93.728 108.245 93.4932 108.328C92.7672 108.588 92.3624 109.252 92.285 110.316H91.9359L92.0809 107.442H102.114L102.25 110.316ZM115.816 107.794H115.581C115.087 107.794 114.582 108.063 114.069 108.597C113.853 108.826 113.547 109.247 113.155 109.862L110.197 114.51V117.579C110.197 118.331 110.28 118.8 110.45 118.986C110.682 119.24 111.044 119.366 111.541 119.366H111.94V119.719H106.728V119.366H107.164C107.683 119.366 108.055 119.209 108.271 118.897C108.404 118.705 108.472 118.266 108.472 117.58V114.681L105.106 109.556C104.738 108.993 104.507 108.66 104.411 108.551C104.195 108.323 103.86 108.1 103.415 107.884C103.288 107.825 103.112 107.794 102.89 107.794V107.442H108.12V107.794H107.848C107.56 107.794 107.31 107.853 107.099 107.973C106.84 108.118 106.71 108.322 106.71 108.588C106.711 108.804 106.895 109.197 107.264 109.762L109.829 113.709L112.234 109.935C112.595 109.367 112.775 108.946 112.775 108.668C112.775 108.313 112.608 108.059 112.274 107.901C112.113 107.83 111.872 107.793 111.551 107.793V107.442H115.816V107.794Z" fill="#890C25"/>
<path fill-rule="evenodd" clip-rule="evenodd" d="M28.6445 99.2488L34.7509 98.8588L40.8566 98.4688V99.2488V100.029L34.7509 99.6388L28.6445 99.2488Z" fill="#890C25"/>
<path fill-rule="evenodd" clip-rule="evenodd" d="M92.0949 99.2488L85.9886 98.8588L79.8828 98.4688V99.2488V100.029L85.9886 99.6388L92.0949 99.2488Z" fill="#890C25"/>
<path d="M48.1676 99.8085C47.7724 100.583 47.3256 100.993 46.6097 100.993C45.4993 100.993 44.7016 100.055 44.7016 98.6532C44.7016 97.5206 45.3424 96.4773 46.5427 96.4773C47.2505 96.4773 47.7946 96.7679 48.0181 97.6327L48.279 97.5803C48.2341 97.126 48.1824 96.7906 48.1073 96.3659C47.906 96.3284 47.3472 96.1646 46.7212 96.1646C44.9251 96.1646 43.6953 97.2307 43.6953 98.8027C43.6953 100.01 44.5447 101.315 46.5421 101.315C47.0788 101.315 47.7719 101.165 47.9732 101.113C48.1073 100.86 48.3086 100.279 48.4127 99.9137L48.1676 99.8085ZM51.6256 96.1641C49.9336 96.1641 48.9573 97.4388 48.9573 98.7652C48.9573 100.226 50.0529 101.314 51.5357 101.314C52.9742 101.314 54.1665 100.315 54.1665 98.6833C54.1665 97.1778 52.9964 96.1641 51.6324 96.1641H51.6256ZM51.484 96.4694C52.4307 96.4694 53.1533 97.3415 53.1533 98.8841C53.1533 100.308 52.475 101.016 51.6853 101.016C50.6494 101.016 49.9711 99.9495 49.9711 98.6009C49.9711 97.2296 50.6641 96.4694 51.4766 96.4694H51.484ZM58.2885 99.883C58.147 100.255 58.0128 100.502 57.8712 100.658C57.6995 100.852 57.4237 100.896 57.0513 100.896C56.783 100.896 56.5521 100.889 56.418 100.822C56.269 100.747 56.2315 100.613 56.2315 100.233V97.2671C56.2315 96.6115 56.3059 96.574 56.895 96.5291V96.2755H54.6964V96.5291C55.3002 96.574 55.3673 96.6183 55.3673 97.2671V100.211C55.3673 100.859 55.2928 100.904 54.6293 100.964V101.202H58.259C58.3261 100.986 58.4824 100.241 58.5347 99.9501L58.2885 99.883ZM62.4617 99.883C62.3202 100.255 62.186 100.502 62.0444 100.658C61.8733 100.852 61.5976 100.896 61.2246 100.896C60.9562 100.896 60.7254 100.889 60.5912 100.822C60.4422 100.747 60.4047 100.613 60.4047 100.233V97.2671C60.4047 96.6115 60.4792 96.574 61.0682 96.5291V96.2755H58.8696V96.5291C59.4734 96.574 59.5405 96.6183 59.5405 97.2671V100.211C59.5405 100.859 59.466 100.904 58.8025 100.964V101.202H62.4322C62.4993 100.986 62.6557 100.241 62.708 99.9501L62.4617 99.883ZM66.8067 99.9126C66.6799 100.241 66.5309 100.494 66.3968 100.651C66.2177 100.844 65.9647 100.897 65.495 100.897C65.1749 100.897 64.8992 100.889 64.765 100.815C64.616 100.733 64.5785 100.554 64.5785 100.196V98.8397H65.1823C65.8379 98.8397 65.9203 98.8766 66.0169 99.4208H66.2706V97.9226H66.0169C65.9203 98.4457 65.8458 98.4963 65.1823 98.4963H64.5785V96.8355C64.5785 96.603 64.6007 96.5808 64.8616 96.5808H65.3313C65.8083 96.5808 66.0096 96.6331 66.1364 96.7832C66.2558 96.9396 66.345 97.1499 66.4195 97.4427L66.6731 97.4058C66.6435 96.9634 66.6134 96.4392 66.606 96.2755H63.0735V96.5217C63.6398 96.574 63.7069 96.6035 63.7069 97.2784V100.218C63.7069 100.852 63.6398 100.904 62.9615 100.964V101.202H66.7919C66.8516 100.971 67.008 100.271 67.0603 99.9649L66.8067 99.9126ZM72.5599 98.8767H70.4062V99.1228C71.196 99.1899 71.2409 99.2422 71.2409 99.7863V100.457C71.2409 100.718 71.1664 100.83 71.0322 100.904C70.8981 100.986 70.6894 101.024 70.4955 101.024C69.1241 101.024 68.5129 99.7863 68.5129 98.6686C68.5129 97.2972 69.3402 96.4699 70.3761 96.4699C71.1141 96.4699 71.7026 96.7827 71.8816 97.6696L72.1426 97.6173C72.0829 97.051 72.046 96.6411 72.0232 96.3801C71.7549 96.3204 71.1511 96.1641 70.5177 96.1641C68.945 96.1641 67.5066 97.051 67.5066 98.78C67.5066 100.3 68.6545 101.314 70.4057 101.314C71.0316 101.314 71.6872 101.15 72.1568 101.038C72.1119 100.837 72.1045 100.591 72.1045 100.322V99.7113C72.1045 99.2269 72.1489 99.1894 72.5594 99.1223L72.5599 98.8767ZM76.7935 99.9126C76.6667 100.241 76.5177 100.494 76.3835 100.651C76.2044 100.844 75.9514 100.897 75.4818 100.897C75.1611 100.897 74.8854 100.889 74.7518 100.815C74.6028 100.733 74.5653 100.554 74.5653 100.196V98.8397H75.1691C75.8246 98.8397 75.9071 98.8766 76.0037 99.4208H76.2573V97.9226H76.0037C75.9065 98.4457 75.832 98.4963 75.1691 98.4963H74.5653V96.8355C74.5653 96.603 74.5874 96.5808 74.8484 96.5808H75.318C75.795 96.5808 75.9963 96.6331 76.1231 96.7832C76.2425 96.9396 76.3318 97.1499 76.4062 97.4427L76.6598 97.4058C76.6303 96.9634 76.6001 96.4392 76.5927 96.2755H73.0603V96.5217C73.6266 96.574 73.6937 96.6035 73.6937 97.2784V100.218C73.6937 100.852 73.6266 100.904 72.9483 100.964V101.202H76.7787C76.8384 100.971 76.9947 100.271 77.047 99.9649L76.7935 99.9126Z" fill="#890C25"/>
<path fill-rule="evenodd" clip-rule="evenodd" d="M60.3768 80.5156C61.9961 80.5156 63.3083 81.8279 63.3083 83.4471C63.3083 85.0664 61.9955 86.3786 60.3768 86.3786C58.7576 86.3786 57.4453 85.0664 57.4453 83.4471C57.4453 81.8279 58.7576 80.5156 60.3768 80.5156Z" fill="#890C25"/>
<path fill-rule="evenodd" clip-rule="evenodd" d="M80.6947 69.8594C81.1098 78.6095 80.5139 78.7227 75.2445 81.4904C73.648 76.5832 74.191 75.2027 80.6947 69.8594Z" fill="#890C25"/>
<path fill-rule="evenodd" clip-rule="evenodd" d="M87.2791 85.6606C82.1233 79.9642 81.6833 80.2626 76.6953 81.8029C78.7381 85.8402 79.9298 86.3627 87.2791 85.6606Z" fill="#890C25"/>
<path fill-rule="evenodd" clip-rule="evenodd" d="M88.3795 68.3516C88.4159 75.9356 87.8963 76.0112 83.2364 78.211C82.0361 73.907 82.5564 72.7329 88.3795 68.3516Z" fill="#890C25"/>
<path fill-rule="evenodd" clip-rule="evenodd" d="M95.889 82.0901C90.7327 76.3943 90.2927 76.6922 85.3047 78.2324C87.3487 82.2703 88.5403 82.7929 95.889 82.0901Z" fill="#890C25"/>
<path fill-rule="evenodd" clip-rule="evenodd" d="M94.4189 64.4766C95.9244 71.9099 95.4292 72.085 91.2844 75.1462C89.2723 71.1571 89.5554 69.9046 94.4189 64.4766Z" fill="#890C25"/>
<path fill-rule="evenodd" clip-rule="evenodd" d="M104.253 76.502C98.0903 71.9131 97.7162 72.2912 93.1211 74.7696C95.9099 78.3345 97.18 78.6165 104.253 76.502Z" fill="#890C25"/>
<path fill-rule="evenodd" clip-rule="evenodd" d="M99.0941 60.0156C102.166 66.5643 101.747 66.8378 98.596 70.6096C95.8322 67.3665 95.8118 66.1419 99.0941 60.0156Z" fill="#890C25"/>
<path fill-rule="evenodd" clip-rule="evenodd" d="M110.878 69.0461C104.132 66.184 103.871 66.6184 100.172 69.9513C103.559 72.6263 104.8 72.6001 110.878 69.0461Z" fill="#890C25"/>
<path fill-rule="evenodd" clip-rule="evenodd" d="M103.482 54.5234C107.168 60.4262 106.799 60.7361 104.223 64.7012C101.211 61.921 101.05 60.7531 103.482 54.5234Z" fill="#890C25"/>
<path fill-rule="evenodd" clip-rule="evenodd" d="M115.432 62.1739C108.659 60.2146 108.46 60.6599 105.309 64.2679C108.852 66.4347 110.034 66.2675 115.432 62.1739Z" fill="#890C25"/>
<path fill-rule="evenodd" clip-rule="evenodd" d="M106.879 49.9219C110.879 54.7717 110.586 55.0929 108.747 58.9489C105.721 56.8151 105.439 55.7888 106.879 49.9219Z" fill="#890C25"/>
<path fill-rule="evenodd" clip-rule="evenodd" d="M118.557 55.407C112.259 54.4535 112.133 54.8765 109.738 58.4812C113.168 60.0015 114.207 59.7127 118.557 55.407Z" fill="#890C25"/>
<path fill-rule="evenodd" clip-rule="evenodd" d="M109.832 45.0156C113.516 49.4811 113.244 49.7767 111.552 53.3268C108.765 51.363 108.505 50.4175 109.832 45.0156Z" fill="#890C25"/>
<path fill-rule="evenodd" clip-rule="evenodd" d="M120.568 50.0597C114.77 49.1819 114.654 49.5713 112.449 52.89C115.607 54.2904 116.563 54.0237 120.568 50.0597Z" fill="#890C25"/>
<path fill-rule="evenodd" clip-rule="evenodd" d="M116.97 41.4453C117.772 47.1775 117.387 47.2884 114.087 49.4279C112.739 46.2957 113.013 45.3547 116.97 41.4453Z" fill="#890C25"/>
<path fill-rule="evenodd" clip-rule="evenodd" d="M73.8304 71.9844C71.9684 80.5446 71.364 80.4997 65.5573 81.8102C65.2844 76.6574 66.1657 75.4645 73.8304 71.9844Z" fill="#890C25"/>
<path fill-rule="evenodd" clip-rule="evenodd" d="M77.3621 89.4874C73.6039 82.1627 73.0661 82.3497 67.4766 82.5613C68.4727 87.307 69.5615 88.178 77.3621 89.4874Z" fill="#890C25"/>
<path fill-rule="evenodd" clip-rule="evenodd" d="M40.048 69.8594C39.6329 78.6095 40.2288 78.7227 45.4988 81.4904C47.0953 76.5832 46.5523 75.2027 40.048 69.8594Z" fill="#890C25"/>
<path fill-rule="evenodd" clip-rule="evenodd" d="M33.4648 85.6606C38.6211 79.9642 39.0612 80.2626 44.0491 81.8029C42.0057 85.8402 40.8141 86.3627 33.4648 85.6606Z" fill="#890C25"/>
<path fill-rule="evenodd" clip-rule="evenodd" d="M32.3649 68.3516C32.3291 75.9356 32.8482 76.0112 37.5081 78.211C38.7083 73.907 38.1875 72.7329 32.3649 68.3516Z" fill="#890C25"/>
<path fill-rule="evenodd" clip-rule="evenodd" d="M24.8594 82.0901C30.0151 76.3943 30.4557 76.6922 35.4437 78.2324C33.3997 82.2703 32.208 82.7929 24.8594 82.0901Z" fill="#890C25"/>
<path fill-rule="evenodd" clip-rule="evenodd" d="M26.3207 64.4766C24.8151 71.9099 25.3098 72.085 29.4552 75.1462C31.4667 71.1571 31.1836 69.9046 26.3207 64.4766Z" fill="#890C25"/>
<path fill-rule="evenodd" clip-rule="evenodd" d="M16.4883 76.502C22.6509 71.9131 23.025 72.2912 27.6195 74.7696C24.8319 78.3345 23.5617 78.6165 16.4883 76.502Z" fill="#890C25"/>
<path fill-rule="evenodd" clip-rule="evenodd" d="M21.6558 60.0156C18.5839 66.5643 19.0029 66.8378 22.1538 70.6096C24.9176 67.3665 24.9381 66.1419 21.6558 60.0156Z" fill="#890C25"/>
<path fill-rule="evenodd" clip-rule="evenodd" d="M9.87109 69.0461C16.6171 66.184 16.8786 66.6184 20.5776 69.9513C17.1902 72.6263 15.949 72.6001 9.87109 69.0461Z" fill="#890C25"/>
<path fill-rule="evenodd" clip-rule="evenodd" d="M17.2646 54.5234C13.5775 60.4262 13.9465 60.7361 16.5238 64.7012C19.536 61.921 19.6963 60.7531 17.2646 54.5234Z" fill="#890C25"/>
<path fill-rule="evenodd" clip-rule="evenodd" d="M5.3125 62.1739C12.0852 60.2146 12.2847 60.6599 15.4357 64.2679C11.8924 66.4347 10.7104 66.2675 5.3125 62.1739Z" fill="#890C25"/>
<path fill-rule="evenodd" clip-rule="evenodd" d="M13.8596 49.9219C9.85921 54.7717 10.1531 55.0929 11.9913 58.9489C15.0183 56.8151 15.2998 55.7888 13.8596 49.9219Z" fill="#890C25"/>
<path fill-rule="evenodd" clip-rule="evenodd" d="M2.19141 55.407C8.48878 54.4535 8.61497 54.8765 11.0097 58.4812C7.57962 60.0015 6.54089 59.7127 2.19141 55.407Z" fill="#890C25"/>
<path fill-rule="evenodd" clip-rule="evenodd" d="M10.9133 45.0156C7.23017 49.4811 7.50079 49.7767 9.19339 53.3268C11.9799 51.363 12.2392 50.4175 10.9133 45.0156Z" fill="#890C25"/>
<path fill-rule="evenodd" clip-rule="evenodd" d="M0.171875 50.0597C5.97005 49.1819 6.08605 49.5713 8.29093 52.89C5.13315 54.2904 4.17624 54.0237 0.171875 50.0597Z" fill="#890C25"/>
<path fill-rule="evenodd" clip-rule="evenodd" d="M3.7708 41.4453C2.96856 47.1775 3.35348 47.2884 6.6534 49.4279C8.00089 46.2957 7.7274 45.3547 3.7708 41.4453Z" fill="#890C25"/>
<path fill-rule="evenodd" clip-rule="evenodd" d="M46.9141 71.9844C48.7761 80.5446 49.3805 80.4997 55.1872 81.8102C55.4601 76.6574 54.5783 75.4645 46.9141 71.9844Z" fill="#890C25"/>
<path fill-rule="evenodd" clip-rule="evenodd" d="M43.3828 89.4874C47.141 82.1627 47.6794 82.3497 53.2689 82.5613C52.2728 87.307 51.184 88.178 43.3828 89.4874Z" fill="#890C25"/>
<path fill-rule="evenodd" clip-rule="evenodd" d="M54.4111 67.7831H53.7311V63.4535C53.5673 63.6104 53.3524 63.7662 53.0869 63.922C52.8214 64.0778 52.582 64.1949 52.3711 64.2722V63.6156C52.7509 63.4376 53.0835 63.2215 53.3678 62.9668C53.6526 62.7133 53.8545 62.467 53.9733 62.2277H54.4111V67.7831ZM56.2595 66.5004L56.9087 66.4464C56.9645 66.7529 57.0697 66.9746 57.2254 67.1122C57.3812 67.2498 57.5808 67.3197 57.8259 67.3197C58.0345 67.3197 58.2176 67.272 58.3756 67.1753C58.5343 67.0798 58.6628 66.9524 58.7623 66.7915C58.8612 66.6318 58.9453 66.4157 59.0136 66.1439C59.0818 65.8721 59.1154 65.5953 59.1154 65.3132C59.1154 65.2837 59.1142 65.2371 59.1114 65.1768C58.9766 65.3929 58.7907 65.5697 58.5564 65.7039C58.3222 65.8392 58.0669 65.9057 57.794 65.9057C57.3369 65.9057 56.9503 65.7397 56.6336 65.4071C56.318 65.0762 56.1594 64.6384 56.1594 64.0948C56.1594 63.5331 56.3243 63.0828 56.6552 62.7399C56.9849 62.3988 57.3983 62.2277 57.8969 62.2277C58.2551 62.2277 58.5832 62.3243 58.8822 62.5188C59.1796 62.7121 59.4048 62.9878 59.5594 63.3466C59.7141 63.7048 59.7914 64.2239 59.7914 64.9028C59.7914 65.61 59.7152 66.1724 59.5622 66.5914C59.4087 67.011 59.1796 67.3294 58.8771 67.5483C58.5741 67.7672 58.2204 67.8769 57.8133 67.8769C57.3807 67.8769 57.0276 67.7569 56.7536 67.5164C56.4795 67.2748 56.3146 66.9359 56.2595 66.5004ZM59.0335 64.0596C59.0335 63.6701 58.9306 63.3614 58.7242 63.1334C58.5195 62.9054 58.2699 62.7906 57.9759 62.7906C57.6718 62.7906 57.4091 62.9128 57.1879 63.159C56.9651 63.4052 56.8542 63.7241 56.8542 64.1159C56.8542 64.4673 56.9599 64.7532 57.1697 64.9721C57.3812 65.1922 57.6439 65.3019 57.9566 65.3019C58.2705 65.3019 58.528 65.1927 58.7304 64.9721C58.9334 64.7538 59.0335 64.4491 59.0335 64.0596ZM61.5039 64.7833C61.2219 64.6804 61.0132 64.5326 60.8762 64.3416C60.7409 64.1494 60.6726 63.9203 60.6726 63.6536C60.6726 63.2505 60.8165 62.9134 61.1053 62.6388C61.3953 62.3641 61.779 62.2266 62.2595 62.2266C62.741 62.2266 63.13 62.367 63.4239 62.6478C63.7173 62.9287 63.8645 63.2699 63.8645 63.673C63.8645 63.9294 63.7974 64.1534 63.6638 64.3427C63.5297 64.5332 63.3267 64.6804 63.0521 64.7833C63.3909 64.8942 63.6473 65.0716 63.8236 65.3189C64.0004 65.5646 64.0891 65.8585 64.0891 66.2013C64.0891 66.6738 63.922 67.0707 63.5882 67.3925C63.2533 67.7143 62.8138 67.8758 62.2692 67.8758C61.7245 67.8758 61.285 67.7149 60.9501 67.3914C60.6169 67.0678 60.4492 66.6647 60.4492 66.182C60.4492 65.8227 60.5407 65.5213 60.7232 65.2791C60.9063 65.0358 61.1661 64.8709 61.5039 64.7833ZM61.3686 63.6292C61.3686 63.8919 61.4521 64.1056 61.6181 64.2717C61.7853 64.4377 62.0048 64.5218 62.276 64.5218C62.5403 64.5218 62.7535 64.4394 62.9201 64.2745C63.0862 64.1096 63.1686 63.9078 63.1686 63.6678C63.1686 63.4177 63.0839 63.2079 62.9122 63.0379C62.7422 62.8673 62.5273 62.7826 62.268 62.7826C62.0065 62.7826 61.7915 62.8662 61.6215 63.0322C61.4538 63.1994 61.3686 63.3978 61.3686 63.6292ZM61.1445 66.1872C61.1445 66.3816 61.1895 66.5687 61.2799 66.75C61.3703 66.9303 61.5067 67.0707 61.6892 67.1696C61.8706 67.2685 62.0667 67.3191 62.2737 67.3191C62.6006 67.3191 62.869 67.2145 63.0788 67.0059C63.2886 66.7972 63.3932 66.5323 63.3932 66.2099C63.3932 65.883 63.2852 65.6123 63.0703 65.3985C62.8536 65.1848 62.5807 65.0779 62.2521 65.0779C61.9297 65.0779 61.6659 65.1836 61.4572 65.3946C61.2491 65.6066 61.1445 65.8705 61.1445 66.1872ZM64.7543 66.3145L65.4343 66.2218C65.5133 66.6079 65.6441 66.8865 65.8312 67.0565C66.0182 67.2265 66.2474 67.3112 66.5191 67.3112C66.8409 67.3112 67.1127 67.2009 67.3316 66.9791C67.5505 66.7574 67.6596 66.4834 67.6596 66.1564C67.6596 65.8449 67.5579 65.5873 67.3532 65.3838C67.1502 65.1814 66.891 65.0796 66.5754 65.0796C66.4469 65.0796 66.2872 65.1052 66.095 65.1558L66.1712 64.5605C66.2161 64.5656 66.2536 64.5684 66.2803 64.5684C66.5714 64.5684 66.8318 64.4923 67.0644 64.3416C67.2963 64.1909 67.4123 63.9589 67.4123 63.6462C67.4123 63.3978 67.3271 63.1914 67.1588 63.0282C66.9899 62.865 66.7727 62.7837 66.506 62.7837C66.2405 62.7837 66.0205 62.8673 65.8442 63.0351C65.668 63.2028 65.5543 63.4535 65.5043 63.7884L64.8242 63.665C64.9078 63.209 65.096 62.8548 65.3911 62.6035C65.6845 62.3522 66.0518 62.2277 66.4896 62.2277C66.7909 62.2277 67.0689 62.2919 67.3225 62.4221C67.5778 62.5506 67.7722 62.7269 67.9059 62.9503C68.0412 63.1743 68.1077 63.4114 68.1077 63.6627C68.1077 63.901 68.0435 64.1176 67.9161 64.3132C67.787 64.5088 67.5966 64.6646 67.3452 64.7805C67.6727 64.855 67.9263 65.0125 68.1077 65.2507C68.2885 65.4878 68.3783 65.7863 68.3783 66.1434C68.3783 66.6261 68.2021 67.0371 67.8501 67.3732C67.4976 67.7092 67.0519 67.8769 66.5134 67.8769C66.0279 67.8769 65.6248 67.7314 65.3041 67.4414C64.9829 67.1503 64.7998 66.7762 64.7543 66.3145Z" fill="#890C25"/>
<path fill-rule="evenodd" clip-rule="evenodd" d="M44.1602 65.4328L47.281 64.9273L50.4018 64.4219V65.4328V66.4431L47.281 65.9377L44.1602 65.4328Z" fill="#890C25"/>
<path fill-rule="evenodd" clip-rule="evenodd" d="M76.5849 65.4328L73.4646 64.9273L70.3438 64.4219V65.4328V66.4431L73.4646 65.9377L76.5849 65.4328Z" fill="#890C25"/>
<path fill-rule="evenodd" clip-rule="evenodd" d="M84.3523 30.8516V47.2034L60.3653 59.1966L36.3789 47.2034V30.8516L60.3653 42.8448L84.3523 30.8516Z" fill="#890C25"/>
<path fill-rule="evenodd" clip-rule="evenodd" d="M60.3672 0L101.398 20.5159L60.3672 41.0313L19.3359 20.5159L60.3672 0Z" fill="#890C25"/>
<path fill-rule="evenodd" clip-rule="evenodd" d="M60.6787 20.1562H31.0101C29.5995 20.1562 28.4453 21.3104 28.4453 22.721V25.0572L29.4613 25.5655V22.721C29.4613 21.8693 30.1584 21.1723 31.0101 21.1723H60.6832C61.6094 21.1723 61.6128 20.1562 60.6787 20.1562Z" fill="#890C25"/>
<path fill-rule="evenodd" clip-rule="evenodd" d="M60.3072 19.6328H30.6386C29.228 19.6328 28.0738 20.787 28.0738 22.1976V37.7522C27.2016 37.9802 26.5586 38.7728 26.5586 39.7166C26.5586 40.2363 26.7542 40.7105 27.0754 41.0698H27.0589L26.3789 46.9453C27.6894 47.5633 29.4895 47.5633 30.8 46.9453L30.12 41.0698H30.103C30.4242 40.7105 30.6198 40.2369 30.6198 39.7172C30.6198 38.7688 29.9694 37.9723 29.0904 37.7494V22.1982C29.0904 21.3464 29.7874 20.65 30.6392 20.65H60.3117C61.2373 20.6488 61.2413 19.6328 60.3072 19.6328Z" fill="#890C25"/>
</svg>
