<svg width="100" height="120" viewBox="0 0 100 120" fill="none" xmlns="http://www.w3.org/2000/svg">
<path fill-rule="evenodd" clip-rule="evenodd" d="M49.6153 114.881L70.9094 93.7469C76.7662 87.9451 79.6836 80.2784 79.6836 72.6223C79.6836 68.3496 78.7763 64.0772 76.9628 60.1301C76.646 60.3252 76.3176 60.5096 75.9795 60.6829L74.2963 61.6048V67.84C75.0071 68.3825 75.4769 69.239 75.4769 70.2042C75.4769 71.8526 74.1333 73.1862 72.4724 73.1862C70.8115 73.1862 69.4679 71.8526 69.4679 70.2042C69.4679 69.2394 69.9262 68.3825 70.6473 67.84V63.5677L67.3479 65.3458C68.3204 67.6664 68.8011 70.1388 68.8011 72.6223C68.8011 77.4804 66.922 82.3602 63.1852 86.0687C59.4375 89.7993 54.5324 91.6536 49.6157 91.6536V114.881H49.6153ZM49.6153 68.187V60L70.6473 48.6573V59.4579L60.0492 65.1836C56.3235 67.1893 52.9586 68.187 49.6153 68.187ZM49.6257 49.2965V31.2848L47.6812 30.2332C45.7139 29.1704 44.9935 26.7305 46.0642 24.7783C46.7958 23.4337 48.1842 22.6854 49.6257 22.6747V4.10977L91.5047 26.6976L72.472 36.978L50.4891 25.1146C49.6149 24.6376 48.5002 24.9627 48.02 25.8411C47.5389 26.7087 47.8669 27.804 48.7515 28.2806L68.6588 39.0273L49.6257 49.2965ZM79.9238 57.8741C82.1967 62.5046 83.3438 67.5688 83.3438 72.6223C83.3438 81.2003 80.0548 89.7883 73.4888 96.3058L49.6153 120L25.7534 96.3058C19.1866 89.7883 15.8976 81.2003 15.8976 72.6223C15.8976 67.5585 17.0451 62.505 19.3176 57.8741C18.662 57.2131 18.105 56.5084 17.6352 55.7276C16.4442 53.7215 15.9196 51.3792 15.9196 48.375V37.7155L18.6184 39.1688L49.6157 55.8902L70.6477 44.5582V42.064L49.6157 53.4067L0.121094 26.6976L3.06009 25.1146L49.6157 0L99.1211 26.6976L74.2971 40.0904V42.5847L83.3226 37.7159V48.3754C83.3226 51.3796 82.798 53.7219 81.607 55.728C81.1364 56.5084 80.5794 57.2131 79.9238 57.8741ZM64.1249 67.0921L61.7868 68.3496C57.5034 70.6598 53.5707 71.809 49.6153 71.809C45.6707 71.809 41.7376 70.6598 37.4542 68.3496L35.1161 67.081C34.4281 68.8595 34.0893 70.7356 34.0893 72.6223C34.0893 76.5695 35.6083 80.506 38.6348 83.5205C41.6725 86.5247 45.6487 88.0316 49.6153 88.0316C53.5923 88.0316 57.5697 86.5247 60.6066 83.5205C63.6331 80.5163 65.1521 76.5695 65.1521 72.6223C65.1521 70.7463 64.8017 68.8703 64.1249 67.0921ZM74.2963 46.694V57.4947C76.274 56.4101 77.6404 55.2827 78.4706 53.8837C79.3117 52.4847 79.6721 50.7174 79.6721 48.375V43.7882L74.2963 46.694Z" fill="#FF9B24"/>
</svg>
