<svg width="40" height="40" viewBox="0 0 40 40" fill="none" xmlns="http://www.w3.org/2000/svg">
<path d="M32.9637 29.4914C33.5285 29.2695 34.0575 28.9148 34.516 28.4406C35.5239 27.3984 36.0723 25.9148 36.0215 24.3695C35.9317 21.6305 34.2239 19.9281 31.566 19.9273C28.9082 19.9281 27.2004 21.6305 27.1106 24.3695C27.0598 25.9148 27.6082 27.3984 28.616 28.4406C29.0754 28.9148 29.6043 29.2703 30.1707 29.4922C28.6535 29.7078 27.3739 30.2859 26.4012 31.1984C26.2129 30.9586 26.0082 30.7313 25.7848 30.5188C24.6496 29.4406 23.1246 28.7742 21.3239 28.5586C22.0332 28.3234 22.6973 27.9008 23.2653 27.3141C24.384 26.157 24.9934 24.5094 24.9371 22.793C24.8371 19.757 22.9457 17.8703 20.0004 17.8695C17.0551 17.8703 15.1637 19.757 15.0637 22.793C15.0075 24.5094 15.616 26.157 16.7356 27.3141C17.3028 27.9008 17.9676 28.3234 18.677 28.5586C16.877 28.7742 15.3512 29.4414 14.2161 30.5188C13.9926 30.7305 13.7879 30.9586 13.5996 31.1984C12.627 30.2852 11.3473 29.707 9.83011 29.4922C10.3957 29.2703 10.9254 28.9148 11.3848 28.4406C12.3926 27.3984 12.941 25.9148 12.8903 24.3695C12.8004 21.6305 11.0926 19.9281 8.4348 19.9273C5.77699 19.9281 4.06917 21.6305 3.97933 24.3695C3.92855 25.9148 4.47699 27.3984 5.4848 28.4406C5.94339 28.9148 6.47152 29.2695 7.03714 29.4914C3.16292 30.0375 1.4098 32.8617 1.4098 35.6641V37.4477C1.4098 37.7062 1.61996 37.9164 1.87855 37.9164H12.6536H27.3473H38.1223C38.3809 37.9164 38.591 37.7062 38.591 37.4477V35.6641C38.591 32.8617 36.8379 30.0375 32.9637 29.4914ZM28.0481 24.4008C28.1223 22.1547 29.4043 20.8664 31.5668 20.8656C33.7293 20.8664 35.0114 22.1547 35.0856 24.4008C35.1278 25.6937 34.6754 26.9289 33.8426 27.7891C33.1989 28.4547 32.3903 28.8219 31.5668 28.8219C30.7426 28.8219 29.9348 28.4547 29.2903 27.7891C28.4582 26.9281 28.0051 25.6937 28.0481 24.4008ZM16.0004 22.8242C16.0848 20.2727 17.5426 18.8086 20.0004 18.8078C22.4582 18.8086 23.916 20.2727 24.0004 22.8242C24.0489 24.2883 23.5356 25.6875 22.5918 26.6625C21.859 27.4195 20.9387 27.8375 20.0004 27.8375C19.0614 27.8367 18.1411 27.4195 17.409 26.6625C16.466 25.6875 15.9528 24.2883 16.0004 22.8242ZM4.91605 24.4008C4.99027 22.1547 6.2723 20.8664 8.4348 20.8656C10.5973 20.8664 11.8793 22.1547 11.9535 24.4008C11.9957 25.6937 11.5434 26.9289 10.7106 27.7891C10.0668 28.4547 9.25824 28.8219 8.4348 28.8219C7.61058 28.8219 6.80277 28.4547 6.15824 27.7891C5.32621 26.9281 4.87308 25.6937 4.91605 24.4008ZM2.3473 35.6641C2.3473 32.4258 4.73636 30.3344 8.43402 30.3344C10.3887 30.3344 11.9825 30.9062 13.0684 31.9906C12.4926 33.0055 12.184 34.1875 12.184 35.4492V36.9789H2.3473V35.6641ZM26.8785 36.9781H13.1223V35.4484C13.1223 31.7852 15.8223 29.4187 20.0004 29.4187C24.1785 29.4187 26.8785 31.7859 26.8785 35.4484V36.9781ZM37.6535 36.9789H27.816V35.4492C27.816 34.1875 27.5075 33.0063 26.9317 31.9906C28.0176 30.9055 29.6114 30.3344 31.566 30.3344C35.2637 30.3344 37.6528 32.4266 37.6528 35.6641V36.9789H37.6535ZM16.8293 9.43594L16.0981 13.0516C16.0614 13.2312 16.1332 13.4156 16.2817 13.5234C16.4301 13.6313 16.6278 13.643 16.7879 13.5523L20.0004 11.7398L23.2129 13.5531C23.2848 13.5937 23.3645 13.6133 23.4434 13.6133C23.5403 13.6133 23.6371 13.5828 23.7192 13.5234C23.8676 13.4156 23.9395 13.2312 23.9028 13.0516L23.1715 9.43594L25.8887 6.94063C26.0239 6.81641 26.0739 6.625 26.0176 6.45078C25.9606 6.27656 25.8075 6.15078 25.6254 6.12969L21.9606 5.70781L20.427 2.35234C20.3504 2.18516 20.184 2.07812 20.0004 2.07812C19.8168 2.07812 19.6504 2.18516 19.5739 2.35234L18.0403 5.70859L14.3754 6.12969C14.1934 6.15078 14.0403 6.27578 13.9832 6.45078C13.9262 6.625 13.977 6.81719 14.1121 6.94063L16.8293 9.43594ZM18.4106 6.60938C18.5739 6.59062 18.7153 6.4875 18.7832 6.33828L20.0004 3.67578L21.2176 6.33906C21.2856 6.48828 21.427 6.59141 21.5903 6.61016L24.4989 6.94453L22.3426 8.925C22.2215 9.03594 22.1676 9.20234 22.2004 9.36328L22.7809 12.2328L20.2309 10.7938C20.159 10.7531 20.0801 10.7336 20.0004 10.7336C19.9207 10.7336 19.8418 10.7539 19.77 10.7938L17.22 12.2328L17.8004 9.36328C17.8332 9.20234 17.7793 9.03594 17.6582 8.925L15.502 6.94453L18.4106 6.60938ZM3.3098 16.7977C3.27308 16.9773 3.34495 17.1617 3.49339 17.2695C3.64183 17.3773 3.83949 17.3883 3.99964 17.2984L7.21214 15.4852L10.4246 17.2984C10.4965 17.3391 10.5762 17.3586 10.6551 17.3586C10.752 17.3586 10.8489 17.3281 10.9309 17.2688C11.0793 17.1609 11.1512 16.9766 11.1145 16.7969L10.3832 13.1812L13.1004 10.6859C13.2356 10.5617 13.2856 10.3703 13.2293 10.1961C13.1723 10.0219 13.0192 9.89609 12.8371 9.875L9.1723 9.45312L7.6387 6.09844C7.56214 5.93125 7.39574 5.82422 7.21214 5.82422C7.02855 5.82422 6.86214 5.93125 6.78558 6.09844L5.25199 9.45391L1.58714 9.87578C1.40511 9.89688 1.25199 10.0219 1.19496 10.1969C1.13792 10.3711 1.18871 10.5633 1.32386 10.6867L4.04105 13.182L3.3098 16.7977ZM2.71371 10.6898L5.6223 10.3555C5.78558 10.3367 5.92699 10.2336 5.99496 10.0844L7.21214 7.42109L8.42933 10.0844C8.4973 10.2336 8.63871 10.3367 8.80199 10.3555L11.7106 10.6898L9.55433 12.6703C9.43324 12.7812 9.37933 12.9477 9.41214 13.1086L9.99261 15.9781L7.44261 14.5391C7.29964 14.4586 7.12464 14.4586 6.98167 14.5391L4.43167 15.9781L5.01214 13.1086C5.04496 12.9477 4.99105 12.7812 4.86996 12.6703L2.71371 10.6898ZM38.8059 10.1961C38.7489 10.0219 38.5957 9.89609 38.4137 9.875L34.7489 9.45312L33.2153 6.09766C33.1387 5.93047 32.9723 5.82344 32.7887 5.82344C32.6051 5.82344 32.4387 5.93047 32.3621 6.09766L30.8286 9.45312L27.1637 9.875C26.9817 9.89609 26.8286 10.0211 26.7715 10.1961C26.7145 10.3703 26.7653 10.5625 26.9004 10.6859L29.6176 13.1812L28.8864 16.7969C28.8496 16.9766 28.9215 17.1609 29.07 17.2688C29.2184 17.3766 29.416 17.3875 29.5762 17.2977L32.7887 15.4844L36.0012 17.2977C36.0731 17.3383 36.1528 17.3578 36.2317 17.3578C36.3285 17.3578 36.4254 17.3273 36.5075 17.268C36.6559 17.1602 36.7278 16.9758 36.6911 16.7961L35.9598 13.1805L38.677 10.6852C38.8121 10.5625 38.8621 10.3711 38.8059 10.1961ZM35.1309 12.6703C35.0098 12.7812 34.9559 12.9477 34.9887 13.1086L35.5692 15.9781L33.0192 14.5391C32.8762 14.4586 32.7012 14.4586 32.5582 14.5391L30.0082 15.9781L30.5887 13.1086C30.6215 12.9477 30.5676 12.7812 30.4465 12.6703L28.2903 10.6898L31.1989 10.3555C31.3621 10.3367 31.5035 10.2336 31.5715 10.0844L32.7887 7.42109L34.0059 10.0844C34.0739 10.2336 34.2153 10.3367 34.3786 10.3555L37.2871 10.6898L35.1309 12.6703Z" fill="white"/>
</svg>
