<svg width="40" height="40" viewBox="0 0 40 40" fill="none" xmlns="http://www.w3.org/2000/svg">
<g clip-path="url(#clip0_34_7334)">
<path d="M12.7675 40.0034C12.5118 40.0034 12.3087 39.771 12.3438 39.5176L12.9919 34.8221C13.0242 34.5883 13.2402 34.4252 13.4736 34.4572C13.7074 34.4895 13.8708 34.7051 13.8385 34.9389L13.1904 39.6344C13.1608 39.8484 12.9776 40.0034 12.7675 40.0034Z" fill="white"/>
<path d="M27.5477 40.0034C27.3376 40.0034 27.1544 39.8484 27.1248 39.6344L26.4767 34.9389C26.4444 34.7052 26.6078 34.4894 26.8416 34.4571C27.0748 34.4252 27.2911 34.5882 27.3233 34.8221L27.9714 39.5176C28.0065 39.7711 27.8033 40.0034 27.5477 40.0034Z" fill="white"/>
<path d="M39.5568 22.2671L37.3901 17.2986C36.6541 15.611 34.7647 14.7243 32.9952 15.2359L31.747 15.5969C30.4662 15.9672 29.7825 17.4393 30.3342 18.6592L30.6577 19.3742C31.0612 20.2659 32.1415 20.673 33.0331 20.2695L34.1764 22.9961C32.9767 22.5983 31.7787 23.0429 31.0442 24.0464C29.8348 23.0431 27.8233 22.6758 26.5778 23.8453C25.7371 23.3935 24.7993 23.0832 23.8792 22.8418C24.8909 22.0588 25.6673 20.9707 26.063 19.6881C27.0376 19.6149 27.8082 18.7942 27.8082 17.7958C27.8082 17.0659 27.3986 16.4319 26.7937 16.1153C27.6436 12.2776 25.0279 8.94142 21.4441 7.83338C19.607 7.26552 17.6818 7.37458 16.7134 9.2433C16.5462 8.97304 16.2071 8.92022 15.9313 9.02765C15.2538 9.29116 14.0619 10.721 13.4805 12.24C13.0218 13.4387 12.9142 14.7611 13.158 16.175C12.5701 16.5053 12.1918 17.1173 12.1918 17.7959C12.1918 18.7942 12.9624 19.615 13.937 19.6882C14.3326 20.9708 15.1091 22.0588 16.1207 22.8419C15.2007 23.0832 14.2632 23.3934 13.4226 23.845C12.177 22.6753 10.1656 23.0426 8.95578 24.0464C8.22168 23.0433 7.02373 22.5981 5.82356 22.9961L6.96689 20.2695C7.85852 20.673 8.93877 20.2659 9.34228 19.3742L9.6657 18.6592C10.2171 17.4401 9.53416 15.9674 8.25296 15.5969L7.00476 15.2359C5.23553 14.7242 3.34587 15.611 2.60988 17.2986L0.443218 22.2671C-0.461483 24.3417 0.0473205 26.7402 1.70929 28.2357C3.99177 30.2896 7.08271 30.8618 9.43202 30.9556L8.30142 39.5173C8.27151 39.7439 8.43194 39.9591 8.65758 39.9951C8.89194 40.0325 9.11758 39.8648 9.14869 39.6292L10.4983 29.4084C10.9611 25.9037 13.9352 24.1318 17.1359 23.4831C17.186 23.5085 17.2354 23.5351 17.2862 23.5592V25.3205C17.2862 26.817 18.5036 28.0344 20.0002 28.0344C21.4966 28.0344 22.7139 26.8169 22.7139 25.3205V23.5592C22.7647 23.5351 22.8141 23.5085 22.8642 23.4831C26.0643 24.1317 29.0389 25.9026 29.5019 29.4084L30.8514 39.6292C30.8825 39.8647 31.1081 40.0325 31.3425 39.9951C31.5681 39.9591 31.7286 39.744 31.6987 39.5173L30.5681 30.9549C32.9175 30.8613 36.008 30.2899 38.2909 28.2356C39.9527 26.7402 40.4614 24.3417 39.5568 22.2671ZM9.651 29.2965L9.54433 30.1043C7.33134 30.026 4.40151 29.5086 2.28074 27.6003C0.892876 26.3514 0.469115 24.3455 1.22655 22.6089L3.3933 17.6403C3.95826 16.3447 5.40886 15.664 6.76749 16.0571L8.0157 16.418C8.80501 16.6463 9.22903 17.5513 8.88715 18.307L8.56373 19.0219C8.2486 19.7186 7.4798 19.6165 6.92014 19.3093C6.66672 19.2228 6.47638 19.2974 6.34912 19.533L4.59074 23.7261C4.43134 24.1065 4.87672 24.4764 5.22117 24.2474C6.36245 23.4896 7.84023 23.5102 8.47647 24.8915C8.59954 25.1606 8.96775 25.2238 9.17305 25.01C10.0342 24.1145 11.5182 23.5701 12.6521 24.3241C11.0271 25.4812 9.91706 27.2822 9.651 29.2965ZM14.2787 12.5455C14.7232 11.3841 15.5135 10.4038 15.9707 10.0065C15.9666 10.0629 15.9619 10.1165 15.9583 10.1593C15.9237 10.5568 15.8846 11.0073 16.297 11.1374C16.7881 11.2918 17.006 10.6914 17.1514 10.3445C17.9505 8.43697 19.2221 8.04099 21.1917 8.65005C24.2619 9.59928 26.6299 12.3854 26.0043 15.7125L24.1953 13.734V13.3709C24.1953 12.3185 23.3392 11.4624 22.2866 11.4624C22.0506 11.4624 21.8595 11.6537 21.8595 11.8897C21.8595 12.1257 22.051 12.3171 22.287 12.3171C22.868 12.3171 23.3407 12.7898 23.3407 13.3709V13.7532C21.613 15.9627 18.1679 15.9475 16.457 13.7247C16.2852 13.4673 15.9024 13.3566 15.6976 13.6619L14.1989 15.8981C14.126 15.8986 14.0533 15.9039 13.981 15.9118C13.7894 14.696 13.8884 13.5653 14.2787 12.5455ZM21.8592 25.3205C21.8592 26.3457 21.0252 27.1797 19.9998 27.1797C18.9747 27.1797 18.1407 26.3457 18.1407 25.3205V23.8895C19.3469 24.2591 20.653 24.2591 21.8592 23.8895V25.3205ZM20 23.3136C17.4795 23.3136 15.2892 21.6013 14.6736 19.1498C14.6254 18.9578 14.4529 18.8265 14.2595 18.8265C13.6333 18.8265 13.0464 18.5102 13.0464 17.7959C13.0464 17.1183 13.7336 16.684 14.366 16.7621C14.5257 16.7816 14.6836 16.7099 14.7734 16.5759L16.0892 14.6129C18.1354 16.8285 21.7748 16.8016 23.787 14.5539L25.6737 16.6175C25.75 16.701 25.8562 16.7507 25.9692 16.756C26.5213 16.7817 26.9537 17.2385 26.9537 17.7959C26.9537 18.3711 26.4905 18.8389 25.921 18.8389C25.6785 18.8389 25.4028 18.8467 25.3266 19.1499C24.7107 21.6013 22.5205 23.3136 20 23.3136ZM37.7193 27.6003C35.5983 29.5089 32.6687 30.0259 30.4556 30.104L30.349 29.2965C30.083 27.2824 28.9731 25.4816 27.3483 24.3242C28.4816 23.5697 29.966 24.1147 30.8269 25.01C31.0319 25.2232 31.398 25.1601 31.5228 24.893C32.1631 23.516 33.6294 23.4841 34.7789 24.2473C35.1236 24.4761 35.5691 24.1076 35.4093 23.726L33.6509 19.533C33.5236 19.2973 33.3333 19.2228 33.0799 19.3092L32.6823 19.4901C32.2178 19.7016 31.6443 19.4818 31.4363 19.0218L31.1129 18.3069C30.771 17.5513 31.195 16.6462 31.9843 16.4179L33.2325 16.057C34.5909 15.664 36.0418 16.3447 36.6067 17.6402L38.7735 22.6088C39.5308 24.3454 39.1072 26.3513 37.7193 27.6003Z" fill="white"/>
<path d="M20.0874 4.63564C19.8514 4.63564 19.6602 4.44427 19.6602 4.20829V0.42735C19.6602 0.191368 19.8514 0 20.0874 0C20.3234 0 20.5147 0.191368 20.5147 0.42735V4.20829C20.5147 4.44436 20.3234 4.63564 20.0874 4.63564Z" fill="white"/>
<path d="M12.9627 6.54343C12.815 6.54343 12.6713 6.46677 12.5923 6.32967L10.7019 3.05523C10.5838 2.85087 10.6539 2.5895 10.8583 2.47147C11.0626 2.35326 11.3241 2.42352 11.4419 2.62788L13.3324 5.90232C13.4934 6.18121 13.2865 6.54343 12.9627 6.54343Z" fill="white"/>
<path d="M7.74432 11.7611C7.67184 11.7611 7.59842 11.7426 7.53107 11.7037L4.25671 9.8132C4.05235 9.69525 3.98227 9.43389 4.1003 9.22944C4.21816 9.02508 4.47927 8.95483 4.68397 9.07303L7.95833 10.9635C8.32739 11.1765 8.17218 11.7611 7.74432 11.7611Z" fill="white"/>
<path d="M32.4333 11.761C32.0054 11.761 31.8501 11.1766 32.2192 10.9635L35.4935 9.07299C35.6978 8.95487 35.9592 9.02504 36.0771 9.2294C36.1952 9.43385 36.1251 9.69522 35.9207 9.81316L32.6465 11.7037C32.5793 11.7425 32.5057 11.761 32.4333 11.761Z" fill="white"/>
<path d="M27.2145 6.54334C26.8909 6.54334 26.6839 6.1812 26.8449 5.90223L28.7353 2.62778C28.8533 2.42334 29.1149 2.35342 29.319 2.47137C29.5233 2.58941 29.5934 2.85078 29.4754 3.05513L27.585 6.32958C27.5059 6.46667 27.3621 6.54334 27.2145 6.54334Z" fill="white"/>
</g>
<defs>
<clipPath id="clip0_34_7334">
<rect width="40" height="40" fill="white"/>
</clipPath>
</defs>
</svg>
