<svg width="40" height="40" viewBox="0 0 40 40" fill="none" xmlns="http://www.w3.org/2000/svg">
<path d="M39.9993 2.2478C39.9993 0.999022 39.041 0 37.8431 0H3.82227C2.62435 0 1.66602 0.999022 1.66602 2.2478C1.66602 3.43414 2.56445 4.43316 3.70247 4.4956V27.7229C3.70247 28.9716 4.7207 30.0331 5.91862 30.0331H14.0046L10.6504 39.0867C10.5306 39.3989 10.7103 39.7736 11.0098 39.8984C11.3092 40.0233 11.6686 39.836 11.7884 39.5238L15.2624 30.0331H19.6947V38.0877C19.6947 38.4624 19.9342 38.7121 20.2936 38.7121C20.653 38.7121 20.8926 38.4624 20.8926 38.0877V30.0955H25.5645L29.0384 39.5863C29.1582 39.8984 29.5176 40.0858 29.8171 39.9609C30.1165 39.836 30.2962 39.4614 30.1764 39.1492L26.8223 30.0955H35.7467C36.9447 30.0955 37.9629 29.0341 37.9629 27.7853V4.55804C39.1009 4.43316 39.9993 3.49658 39.9993 2.2478ZM35.7467 28.8468C26.7624 28.8468 14.903 28.8468 5.91862 28.8468C5.37956 28.8468 4.90039 28.3473 4.90039 27.7853V4.55804H36.765V27.7853C36.765 28.3473 36.3457 28.8468 35.7467 28.8468ZM37.8431 3.30926C36.5853 3.30926 5.91862 3.30926 3.88216 3.30926C3.2832 3.30926 2.86393 2.87219 2.86393 2.2478C2.86393 1.62341 3.2832 1.24878 3.82227 1.24878H37.7832C38.3822 1.24878 38.8014 1.68585 38.8014 2.2478C38.8014 2.80975 38.3822 3.30926 37.8431 3.30926Z" fill="white"/>
<path d="M21.4915 7.67998H13.0462C12.6868 7.67998 12.4473 7.92974 12.4473 8.30437C12.4473 8.67901 12.6868 8.92876 13.0462 8.92876H21.4915C21.8509 8.92876 22.0905 8.67901 22.0905 8.30437C22.0905 7.92974 21.8509 7.67998 21.4915 7.67998Z" fill="white"/>
<path d="M10.0514 7.05559L8.79362 8.17949L8.61393 7.99218C8.43424 7.74242 8.01497 7.67998 7.77539 7.8673C7.53581 8.05462 7.47591 8.49169 7.6556 8.74144L8.19466 9.49071C8.43424 9.74047 8.79362 9.80291 9.0332 9.55315L10.7702 7.99218C11.0098 7.74242 11.0697 7.36779 10.8301 7.11803C10.7103 6.86828 10.291 6.80584 10.0514 7.05559Z" fill="white"/>
<path d="M21.4915 13.237H13.0462C12.6868 13.237 12.4473 13.4868 12.4473 13.8614C12.4473 14.2361 12.6868 14.4858 13.0462 14.4858H21.4915C21.8509 14.4858 22.0905 14.2361 22.0905 13.8614C22.0905 13.5492 21.8509 13.237 21.4915 13.237Z" fill="white"/>
<path d="M10.0514 12.6127L8.79362 13.7366L8.61393 13.5492C8.43424 13.2995 8.01497 13.237 7.77539 13.4244C7.53581 13.6117 7.47591 14.0487 7.6556 14.2985L8.19466 15.0478C8.31445 15.1726 8.43424 15.2351 8.61393 15.2975H8.67383C8.79362 15.2975 8.97331 15.2351 9.0931 15.1726L10.8301 13.6117C11.0697 13.3619 11.1296 12.9873 10.89 12.7375C10.7103 12.4253 10.291 12.4253 10.0514 12.6127Z" fill="white"/>
<path d="M21.4915 18.8565H13.0462C12.6868 18.8565 12.4473 19.1063 12.4473 19.4809C12.4473 19.8556 12.6868 20.1053 13.0462 20.1053H21.4915C21.8509 20.1053 22.0905 19.8556 22.0905 19.4809C22.0905 19.1687 21.8509 18.8565 21.4915 18.8565Z" fill="white"/>
<path d="M10.0514 18.2322L8.79362 19.3561L8.61393 19.1687C8.43424 18.919 8.01497 18.8565 7.77539 19.0439C7.53581 19.2312 7.47591 19.6682 7.6556 19.918L8.19466 20.6673C8.43424 20.917 8.79362 20.9795 9.0332 20.7297L10.7702 19.1687C11.0098 18.919 11.0697 18.5443 10.8301 18.2946C10.7103 18.0448 10.291 17.9824 10.0514 18.2322Z" fill="white"/>
<path d="M21.4915 24.476H13.0462C12.6868 24.476 12.4473 24.7258 12.4473 25.1004C12.4473 25.4751 12.6868 25.7248 13.0462 25.7248H21.4915C21.8509 25.7248 22.0905 25.4751 22.0905 25.1004C22.0905 24.7258 21.8509 24.476 21.4915 24.476Z" fill="white"/>
<path d="M10.0514 23.8517L8.79362 24.9756L8.61393 24.7882C8.43424 24.5385 8.01497 24.476 7.77539 24.6634C7.53581 24.8507 7.47591 25.2878 7.6556 25.5375L8.25456 26.2243C8.49414 26.4741 8.85352 26.5365 9.0931 26.2868L10.8301 24.7258C11.0697 24.476 11.1296 24.1014 10.89 23.8517C10.7103 23.6019 10.291 23.6019 10.0514 23.8517Z" fill="white"/>
<path d="M35.3275 13.6741L34.5488 11.4888C34.4889 11.3014 34.3691 11.1766 34.2493 11.1141C34.0697 11.0517 33.9499 11.0517 33.7702 11.1141L31.6139 12.1131C31.3145 12.238 31.1947 12.6127 31.3145 12.9248C31.4342 13.237 31.7936 13.3619 32.0931 13.237L32.8717 12.8624L31.6139 16.5463L28.4993 14.1736C28.3796 14.0487 28.1999 14.0487 28.0202 14.0487C27.8405 14.1112 27.7207 14.2361 27.6009 14.3609L25.3249 19.4185C25.2051 19.7307 25.3249 20.1053 25.6243 20.2302C25.9238 20.3551 26.2832 20.2302 26.403 19.918L28.3796 15.5473L31.4941 17.92C31.7936 18.1697 32.2728 18.0448 32.3926 17.6078L33.89 13.4244L34.1296 14.0487C34.2493 14.3609 34.6087 14.5483 34.9082 14.4234C35.2676 14.3609 35.3874 14.0487 35.3275 13.6741Z" fill="white"/>
</svg>
