<svg width="122" height="88" viewBox="0 0 122 88" fill="none" xmlns="http://www.w3.org/2000/svg">
<g opacity="0.3" filter="url(#filter0_d_34_6946)">
<path opacity="0.8" d="M17.241 74.9868C17.241 74.9868 31.7528 82.8346 36.801 77.6866C40.5609 73.8524 39.5287 62.3426 39.5287 62.3426C39.5287 62.3426 48.3681 71.2969 52.4357 68.8168C56.4205 66.3872 53.1674 54.605 53.1674 54.605C53.1674 54.605 59.6104 63.2877 63.7459 62.4003C68.6935 61.3387 65.4756 47.6224 65.4756 47.6224C65.4756 47.6224 71.0436 56.5707 75.0561 55.9839C79.9029 55.275 76.1205 41.5834 76.1205 41.5834C76.1205 41.5834 81.0239 50.4468 85.0356 50.3223C90.1312 50.1641 86.4327 35.7331 86.4327 35.7331C86.4327 35.7331 92.4732 44.1233 96.6785 43.7171C102.13 43.1905 95.4008 31.8906 99.4061 28.373C104.304 24.0718 117.303 32.0165 117.303 32.0165" stroke="#EBECED"/>
<path opacity="0.8" d="M11.1433 64.2368C11.1433 64.2368 25.6552 72.0846 30.7034 66.9366C34.4633 63.1024 33.431 51.5926 33.431 51.5926C33.431 51.5926 42.2704 60.5469 46.338 58.0668C50.3228 55.6372 47.0698 43.855 47.0698 43.855C47.0698 43.855 53.5127 52.5377 57.6482 51.6503C62.5959 50.5887 59.3779 36.8724 59.3779 36.8724C59.3779 36.8724 64.9459 45.8207 68.9584 45.2339C73.8052 44.525 70.0228 30.8334 70.0228 30.8334C70.0228 30.8334 74.9263 39.6968 78.938 39.5723C84.0336 39.4141 80.335 24.9831 80.335 24.9831C80.335 24.9831 86.3755 33.3733 90.5808 32.9671C96.0323 32.4405 89.3031 21.1406 93.3085 17.623C98.2062 13.3218 111.205 21.2665 111.205 21.2665" stroke="#EBECED"/>
<path opacity="0.8" d="M5.04568 53.4868C5.04568 53.4868 19.5575 61.3346 24.6057 56.1866C28.3656 52.3524 27.3334 40.8426 27.3334 40.8426C27.3334 40.8426 36.1728 49.7969 40.2404 47.3168C44.2252 44.8872 40.9721 33.105 40.9721 33.105C40.9721 33.105 47.4151 41.7877 51.5506 40.9003C56.4982 39.8387 53.2803 26.1224 53.2803 26.1224C53.2803 26.1224 58.8482 35.0707 62.8607 34.4839C67.7076 33.775 63.9251 20.0834 63.9251 20.0834C63.9251 20.0834 68.8286 28.9468 72.8403 28.8223C77.9359 28.6641 74.2374 14.2331 74.2374 14.2331C74.2374 14.2331 80.2779 22.6233 84.4831 22.2171C89.9347 21.6905 83.2055 10.3906 87.2108 6.87302C92.1085 2.57175 105.108 10.5165 105.108 10.5165" stroke="#EBECED"/>
</g>
<defs>
<filter id="filter0_d_34_6946" x="0.808594" y="5.09619" width="120.754" height="82.8406" filterUnits="userSpaceOnUse" color-interpolation-filters="sRGB">
<feFlood flood-opacity="0" result="BackgroundImageFix"/>
<feColorMatrix in="SourceAlpha" type="matrix" values="0 0 0 0 0 0 0 0 0 0 0 0 0 0 0 0 0 0 127 0" result="hardAlpha"/>
<feOffset dy="4"/>
<feGaussianBlur stdDeviation="2"/>
<feComposite in2="hardAlpha" operator="out"/>
<feColorMatrix type="matrix" values="0 0 0 0 0 0 0 0 0 0 0 0 0 0 0 0 0 0 0.25 0"/>
<feBlend mode="normal" in2="BackgroundImageFix" result="effect1_dropShadow_34_6946"/>
<feBlend mode="normal" in="SourceGraphic" in2="effect1_dropShadow_34_6946" result="shape"/>
</filter>
</defs>
</svg>
