<svg width="160" height="160" viewBox="0 0 160 160" fill="none" xmlns="http://www.w3.org/2000/svg">
<path d="M54.51 16.4717L51.9568 17.2319L51.9498 17.2089C52.2959 16.6551 52.5327 15.6581 52.5851 14.5908L52.9029 7.78517L54.6741 7.2578L58.7416 12.7702C59.2949 13.5194 59.9288 14.2447 60.5065 14.6611L60.5135 14.6841L56.4767 15.8861L56.4697 15.8631C56.8071 15.074 56.7703 14.2085 56.0783 13.2502L55.749 12.7848L53.0807 13.5793L53.0647 14.0223C52.9993 15.419 53.5516 16.2061 54.503 16.4487L54.51 16.4717ZM53.1048 13.1214L55.4855 12.4125L53.2753 9.30195L53.1048 13.1214Z" fill="white"/>
<path d="M38.2694 25.6295L35.522 27.7457L30.8035 25.9123L31.1421 23.0009C31.291 21.6745 30.6879 21.1393 29.9805 20.9572L29.9657 20.9383L32.6466 18.8733L32.6614 18.8922C32.0504 19.9989 31.7167 21.3617 31.5961 22.3937L31.4681 23.4162L35.6589 25.0048C36.7417 25.4127 37.4936 25.6515 38.2546 25.6106L38.2694 25.6295ZM30.9303 31.2826L30.9154 31.2637C30.6174 30.2815 30.4097 29.7448 29.58 28.6875L27.713 26.3087C26.8832 25.2514 26.4093 24.9197 25.5219 24.3915L25.5071 24.3726L28.3971 22.1465L28.4119 22.1654C28.7194 23.1403 28.9303 23.72 29.7305 24.7395L31.6123 27.1372C32.4124 28.1567 32.9276 28.5021 33.8055 29.0376L33.8203 29.0565L30.9303 31.2826Z" fill="white"/>
<path d="M17.322 50.1916L15.9407 52.4694L15.92 52.4572C15.8039 51.8155 15.3084 50.9202 14.6289 50.0968L10.2841 44.8576L11.2423 43.2775L17.9683 44.6135C18.8828 44.7948 19.8409 44.9042 20.5496 44.8233L20.5702 44.8355L18.3861 48.437L18.3655 48.4247C18.0846 47.6152 17.4747 47.0009 16.3166 46.7584L15.7593 46.6362L14.3156 49.0166L14.6019 49.3546C15.4935 50.4299 16.4328 50.6398 17.3014 50.1793L17.322 50.1916ZM14.0253 48.6623L15.3134 46.5384L11.5811 45.7273L14.0253 48.6623Z" fill="white"/>
<path d="M9.92964 76.912L9.90598 76.9079C9.02419 76.3786 8.50922 76.1194 7.18471 75.8914L4.20456 75.3783C2.88005 75.1502 2.30703 75.222 1.29667 75.4255L1.27301 75.4215L1.90338 71.8283L1.92703 71.8324C2.8109 72.3499 3.3572 72.6388 4.63441 72.8587L5.85248 73.0684L6.38332 70.0426L5.17707 69.8349C3.85256 69.6069 3.27746 69.6905 2.2671 69.894L2.24345 69.8899L2.87381 66.2968L2.89747 66.3009C3.78341 66.8065 4.32971 67.0954 5.60691 67.3153L8.61071 67.8325C9.88792 68.0524 10.5006 67.9631 11.5068 67.7832L11.5304 67.7873L10.9001 71.3804L10.8764 71.3764C9.99462 70.8471 9.48173 70.5761 8.15722 70.348L6.80905 70.1159L6.27822 73.1417L7.63821 73.3759C8.91541 73.5958 9.52806 73.5064 10.5364 73.3148L10.56 73.3188L9.92964 76.912Z" fill="white"/>
<path d="M13.1822 102.217L13.1586 102.221C12.1434 102.043 11.5687 101.985 10.2502 102.245L7.28356 102.831C5.96504 103.092 5.45666 103.364 4.58827 103.914L4.56472 103.919C4.31371 102.672 4.10086 101.858 3.77881 100.258C3.11339 96.9522 4.22467 94.5676 7.01474 94.0164C9.80482 93.4652 11.7542 95.1228 12.4433 98.5461L13.1822 102.217ZM7.72184 96.6778C5.01417 97.2127 3.80228 98.0637 4.22373 100.097C4.26872 100.32 4.3514 100.548 4.45999 100.784L12.0179 99.2907C12.0152 98.9732 11.9866 98.6486 11.9416 98.4251C11.5531 96.3735 10.0881 96.2103 7.72184 96.6778Z" fill="white"/>
<path d="M28.3932 127.452L28.4115 127.437L30.7766 130.199L30.7582 130.214C29.7814 130.549 29.2495 130.777 28.2206 131.642L25.9057 133.587C24.8768 134.452 24.5635 134.935 24.0706 135.835L24.0522 135.85L19.7202 130.792L21.3633 128.8L21.5419 128.916C21.4843 129.826 21.1979 131.65 21.5656 132.172L22.3324 133.252L25.1709 130.866L24.8119 130.447C24.3514 129.909 23.3865 129.889 22.7656 129.847L22.6329 129.692L24.8193 127.854L24.952 128.009C24.8931 128.623 24.6743 129.622 25.1504 130.178L25.5017 130.588L26.5673 129.692C27.5594 128.859 27.8924 128.344 28.3932 127.452Z" fill="white"/>
<path d="M47.586 141.916C49.9586 143.303 50.6922 146.011 49.3661 148.238C48.0338 150.475 45.274 151.17 42.9015 149.783C40.5289 148.396 39.8179 145.674 41.1502 143.436C42.4764 141.209 45.2135 140.53 47.586 141.916ZM47.3711 142.277C46.159 141.569 44.8673 142.565 43.5228 144.823C42.1782 147.081 41.8835 148.702 43.1164 149.422C44.3596 150.149 45.6447 149.093 46.9832 146.845C48.3216 144.598 48.5937 142.992 47.3711 142.277Z" fill="white"/>
<path d="M86.7366 149.887L86.7368 149.911C86.3839 150.754 86.2079 151.223 86.2177 152.387L86.2322 154.091L87.4634 156.349C88.1584 157.639 88.4628 158.165 89.0427 158.616L89.043 158.652L84.5791 158.689L84.5788 158.653C84.948 158.314 85.3244 157.423 84.6908 156.288L83.8375 154.723L83.0223 156.242C82.3842 157.411 82.9911 158.222 83.631 158.673L83.6312 158.697L80.7153 158.721L80.7151 158.697C81.4536 158.055 81.951 157.271 82.4356 156.391L83.6644 154.124L83.6497 152.396C83.6403 151.28 83.468 150.778 83.1009 149.941L83.1007 149.917L86.7366 149.887Z" fill="white"/>
<path d="M104.851 145.451L104.842 145.428L108.257 144.178L108.265 144.2C108.251 145.228 108.282 145.791 108.752 147.051L110.674 152.2L110.857 152.107C111.553 151.776 112.059 149.699 112.317 148.608L112.53 148.594L113.142 151.743L106.088 154.326L104.484 151.54L104.655 151.413C105.568 152.076 107.316 153.327 108.062 153.131L108.262 153.083L106.341 147.934C105.879 146.697 105.524 146.226 104.851 145.451Z" fill="white"/>
<path d="M123.249 135.199L123.263 135.218C123.519 136.212 123.704 136.757 124.488 137.849L126.253 140.304C127.037 141.396 127.497 141.747 128.361 142.312L128.375 142.332L125.394 144.434L125.38 144.415C125.114 143.428 124.927 142.84 124.171 141.787L122.392 139.312C121.636 138.26 121.136 137.893 120.282 137.321L120.268 137.301L123.249 135.199Z" fill="white"/>
<path d="M140.371 130.604L138.403 129.419L138.48 129.217C140.169 129.359 141.267 129.289 141.911 128.529C142.338 128.026 142.36 127.388 141.908 127.012C141.253 126.467 140.241 127.03 139.079 127.546C137.842 128.077 136.46 128.519 135.104 127.391C133.508 126.062 134.009 124.34 135.166 122.977C135.872 122.144 136.769 121.532 137.364 121.294L139.571 122.662L139.477 122.865C137.176 122.573 135.978 122.669 135.248 123.529C134.728 124.142 134.738 124.853 135.283 125.306C136.039 125.936 137.08 125.413 138.242 124.897C139.479 124.366 140.812 123.852 142.066 124.896C143.56 126.14 142.979 127.92 141.776 129.338C141.357 129.832 140.864 130.265 140.371 130.604Z" fill="white"/>
<path d="M146.306 102.825L146.283 102.816L147.59 99.539L147.612 99.5477C148.337 100.192 148.76 100.525 149.944 100.989L153.051 102.204C154.236 102.667 154.774 102.711 155.748 102.731L155.77 102.739L154.237 106.585C153.206 109.171 152.075 109.644 150.846 109.163C149.963 108.817 149.294 108.13 149.229 106.932L146.482 107.146C145.564 107.212 144.986 107.27 144.342 107.752L144.319 107.743L145.537 104.689L149.782 104.443L150.048 103.774L148.987 103.358C147.847 102.912 147.275 102.856 146.306 102.825ZM154.101 105.823C154.146 105.712 154.193 105.563 154.25 105.418L150.451 103.931L150.264 104.399C149.798 105.57 150.786 106.33 151.758 106.711C152.664 107.065 153.617 107.038 154.101 105.823Z" fill="white"/>
<path d="M149.99 77.2187L150.014 77.2197C150.958 77.6313 151.502 77.8221 152.845 77.878L155.866 78.0039C157.209 78.0598 157.768 77.9149 158.743 77.5832L158.767 77.5841L158.484 84.2382L155.923 84.5999L155.872 84.3936C156.535 83.7606 157.974 82.6916 158.076 81.9752L158.252 80.6614L154.547 80.5071L154.524 81.0586C154.494 81.766 155.186 82.4314 155.611 82.8815L155.603 83.0853L152.749 82.9665L152.758 82.7627C153.22 82.3495 154.062 81.76 154.093 81.0287L154.115 80.4892L150.243 80.3279L150.273 81.8905C150.287 82.6718 151.988 84.2079 152.825 84.8553L152.756 85.0686L149.692 84.2444L149.99 77.2187Z" fill="white"/>
<path d="M152.458 49.7693L153.786 53.9682L153.764 53.9754C152.941 53.5646 152.215 53.6144 151.157 54.4077L147.556 57.1087L151.685 57.2718C152.885 57.3264 153.953 56.8819 154.335 55.7831L154.358 55.776L155.162 58.3159L155.139 58.3231C154.57 57.9592 153.489 57.8426 152.543 57.7969L145.694 57.5106L145.137 55.7486L150.485 51.6885C151.335 51.0728 152.04 50.5149 152.435 49.7764L152.458 49.7693Z" fill="white"/>
<path d="M135.968 39.5777L135.988 39.5644C136.996 39.3404 137.55 39.1736 138.669 38.429L141.186 36.7535C142.305 36.0089 142.671 35.564 143.261 34.7243L143.281 34.711L145.328 37.7302L145.308 37.7435C144.307 37.9774 143.71 38.1443 142.631 38.8624L140.094 40.5511C139.015 41.2691 138.633 41.7538 138.036 42.5837L138.016 42.597L135.968 39.5777Z" fill="white"/>
<path d="M123.616 27.0927L123.531 18.1165L121.005 21.1968C120.183 22.199 120.075 22.8709 120.008 24.0566L119.992 24.075L117.923 22.3783L117.938 22.3599C119.129 22.0949 119.752 21.8919 120.614 20.8605L122.799 18.245C123.553 17.3425 123.604 16.7948 123.641 15.7393L123.656 15.7208L126.116 17.7371L126.164 24.1546L127.455 22.5906C128.315 21.5423 128.419 20.9133 128.467 19.6956L128.482 19.6772L130.542 21.3662L130.527 21.3847C129.364 21.6725 128.718 21.9031 127.887 22.8977L124.101 27.4287L123.616 27.0927Z" fill="white"/>
<path d="M100.084 11.232C98.1237 10.1907 97.2322 8.53517 98.443 6.29777L99.6366 4.09204C100.276 2.91002 100.391 2.34575 100.519 1.32696L100.53 1.30585L103.773 3.02824L103.762 3.04935C102.955 3.7079 102.555 4.1202 101.921 5.29167L100.636 7.66626C99.6193 9.54482 100.059 10.4714 101.034 10.9893C102.465 11.7492 103.527 10.8458 104.355 9.31548L105.486 7.22584C106.131 6.03327 106.119 5.37471 105.85 4.15821L105.861 4.1371L108.32 5.44297L108.309 5.46408C107.184 5.95377 106.576 6.29641 105.936 7.47843L104.868 9.45198C103.817 11.3939 102.49 12.5097 100.084 11.232Z" fill="white"/>
<ellipse cx="77.0063" cy="4.98761" rx="2.00632" ry="1.98761" fill="white"/>
<ellipse cx="67.0063" cy="152.988" rx="2.00632" ry="1.98761" fill="white"/>
</svg>
