<svg width="156" height="156" viewBox="0 0 156 156" fill="none" xmlns="http://www.w3.org/2000/svg">
<g opacity="0.6">
<path d="M10.2122 39.3957L39.4402 10.2007C34.3341 13.1905 29.4041 16.708 25.1783 20.7531L20.9526 24.9741C16.7269 29.3709 13.2054 34.1195 10.2122 39.3957Z" fill="#EBECED"/>
<path d="M1.58465 62.4352L62.5056 1.58286C60.7449 1.93461 59.1603 2.28636 57.5756 2.81398L2.64108 57.5107C2.28894 59.0936 1.93679 60.8523 1.58465 62.4352Z" fill="#EBECED"/>
<path d="M0 77.9121C0 78.0879 0 78.2638 0 78.4397L78.5282 0C78.3521 0 78.1761 0 78 0C76.9436 0 75.7111 0 74.6546 0L0 74.5705C0 75.8016 0 76.8568 0 77.9121Z" fill="#EBECED"/>
<path d="M1.23251 91.8061L91.9097 1.23112C90.8533 1.05524 89.7968 0.879369 88.5643 0.703495L0.704289 88.4645C0.880361 89.5197 1.05643 90.575 1.23251 91.8061Z" fill="#EBECED"/>
<path d="M4.22573 103.238L103.354 4.22097C102.298 3.86922 101.418 3.51747 100.361 3.3416L3.34537 100.248C3.52144 101.303 3.87359 102.183 4.22573 103.238Z" fill="#EBECED"/>
<path d="M8.45147 113.439L113.567 8.44194C112.686 8.09019 111.806 7.56257 110.926 7.21082L7.21896 110.8C7.57111 111.68 8.09932 112.559 8.45147 113.439Z" fill="#EBECED"/>
<path d="M13.9097 122.408L122.546 13.894C121.842 13.3664 120.962 12.8388 120.257 12.3112L12.3251 120.122C12.8533 120.825 13.3815 121.705 13.9097 122.408Z" fill="#EBECED"/>
<path d="M20.2483 130.498L130.47 20.4014C129.765 19.8737 129.061 19.1702 128.357 18.6426L18.4876 128.388C19.1919 129.091 19.7201 129.795 20.2483 130.498Z" fill="#EBECED"/>
<path d="M27.6433 137.533L137.688 27.6122C137.16 26.9087 136.456 26.2052 135.928 25.5017L25.7065 135.775C26.2348 136.302 26.9391 137.006 27.6433 137.533Z" fill="#EBECED"/>
<path d="M35.9187 143.689L143.851 35.8782C143.323 35.1747 142.795 34.2954 142.266 33.5919L33.8059 142.106C34.5102 142.634 35.2144 143.161 35.9187 143.689Z" fill="#EBECED"/>
<path d="M45.4266 148.789L149.133 45.1996C148.781 44.3202 148.253 43.4408 147.901 42.5614L42.7856 147.558C43.6659 148.086 44.5463 148.437 45.4266 148.789Z" fill="#EBECED"/>
<path d="M55.8149 152.834L152.831 55.9278C152.479 54.8726 152.302 53.9932 151.95 53.1139L52.9977 151.779C53.8781 152.131 54.9345 152.483 55.8149 152.834Z" fill="#EBECED"/>
<path d="M67.7878 155.297L155.472 67.7114C155.296 66.6561 155.12 65.425 154.944 64.3698L64.4424 154.769C65.4989 154.945 66.7314 155.121 67.7878 155.297Z" fill="#EBECED"/>
<path d="M78 156C79.2325 156 80.465 156 81.5214 156L156 81.6054C156 80.3743 156 79.1432 156 78.0879C156 77.9121 156 77.9121 156 77.7362L77.8239 156H78Z" fill="#EBECED"/>
<path d="M98.7765 153.186L153.183 98.841C153.711 97.2582 154.063 95.4994 154.415 93.7407L93.8465 154.417C95.6072 154.065 97.1919 153.714 98.7765 153.186Z" fill="#EBECED"/>
<path d="M145.612 117.132L117.264 145.448C129.061 138.589 138.745 128.915 145.612 117.132Z" fill="#EBECED"/>
</g>
</svg>
