<svg width="134" height="110" viewBox="0 0 134 110" fill="none" xmlns="http://www.w3.org/2000/svg">
<path d="M2.04602 108.296C2.2504 98.6871 8.20473 88.3912 18.9728 86.8258C27.2148 85.6276 37.3513 87.9948 43.8737 92.198C47.1471 94.3075 51.6707 99.2903 47.1026 102.557C40.8171 107.052 29.7622 99.306 26.8014 90.8525C22.4022 78.2921 26.3613 65.2877 35.4898 55.571C46.8139 43.5172 66.8292 31.9103 83.5239 38.6944C91.3086 41.8577 95.3257 46.6433 97.9619 54.3068C100.061 60.4077 101.472 68.1345 96.4648 73.6099C88.2243 82.621 77.2053 75.201 72.0658 67.276C61.6516 51.2172 67.4412 27.3578 83.9974 17.2845C98.5196 8.44885 115.703 4.52413 132.365 2.24619" stroke="#00001B" stroke-width="3" stroke-linecap="round"/>
</svg>
