<svg width="132" height="108" viewBox="0 0 132 108" fill="none" xmlns="http://www.w3.org/2000/svg">
<path d="M1.04602 107.296C1.2504 97.6871 7.20473 87.3912 17.9728 85.8258C26.2148 84.6276 36.3513 86.9948 42.8737 91.198C46.1471 93.3075 50.6707 98.2903 46.1026 101.557C39.8171 106.052 28.7622 98.306 25.8014 89.8525C21.4022 77.2921 25.3613 64.2877 34.4898 54.571C45.8139 42.5172 65.8292 30.9103 82.5239 37.6944C90.3086 40.8577 94.3257 45.6433 96.9619 53.3068C99.0606 59.4077 100.472 67.1345 95.4648 72.6099C87.2243 81.621 76.2053 74.201 71.0658 66.276C60.6516 50.2172 66.4412 26.3578 82.9974 16.2845C97.5196 7.44885 114.703 3.52413 131.365 1.24619" stroke="#00001B" stroke-linecap="round"/>
</svg>
