<svg width="189" height="164" viewBox="0 0 189 164" fill="none" xmlns="http://www.w3.org/2000/svg">
<path d="M84.3933 0.848981C84.3933 1.04172 84.237 1.19796 84.0443 1.19796C83.8516 1.19796 83.6953 1.04172 83.6953 0.848981C83.6953 0.656244 83.8516 0.5 84.0443 0.5C84.237 0.5 84.3933 0.656244 84.3933 0.848981Z" fill="#7900FF" stroke="#6440FB"/>
<path d="M94.6237 0.848981C94.6237 1.04172 94.4675 1.19796 94.2748 1.19796C94.082 1.19796 93.9258 1.04172 93.9258 0.848981C93.9258 0.656244 94.082 0.5 94.2748 0.5C94.4675 0.5 94.6237 0.656244 94.6237 0.848981Z" fill="#7900FF" stroke="#6440FB"/>
<path d="M104.846 0.848981C104.846 1.04172 104.69 1.19796 104.497 1.19796C104.305 1.19796 104.148 1.04172 104.148 0.848981C104.148 0.656244 104.305 0.5 104.497 0.5C104.69 0.5 104.846 0.656244 104.846 0.848981Z" fill="#7900FF" stroke="#6440FB"/>
<path d="M115.077 0.848981C115.077 1.04172 114.921 1.19796 114.728 1.19796C114.535 1.19796 114.379 1.04172 114.379 0.848981C114.379 0.656244 114.535 0.5 114.728 0.5C114.921 0.5 115.077 0.656244 115.077 0.848981Z" fill="#7900FF" stroke="#6440FB"/>
<path d="M1.19796 0.848981C1.19796 1.04172 1.04172 1.19796 0.848981 1.19796C0.656244 1.19796 0.5 1.04172 0.5 0.848981C0.5 0.656244 0.656244 0.5 0.848981 0.5C1.04172 0.5 1.19796 0.656244 1.19796 0.848981Z" fill="#7900FF" stroke="#6440FB"/>
<path d="M125.987 0.848978C125.987 0.917994 125.967 0.985464 125.928 1.04286C125.89 1.10027 125.835 1.14499 125.772 1.1714C125.708 1.19782 125.638 1.20473 125.57 1.19127C125.502 1.1778 125.44 1.14456 125.391 1.09576L125.038 1.44931L125.391 1.09576C125.342 1.04697 125.309 0.984773 125.296 0.917062C125.282 0.849365 125.289 0.779195 125.316 0.715429C125.342 0.651692 125.387 0.597192 125.444 0.558827C125.502 0.520465 125.569 0.5 125.638 0.5C125.731 0.5 125.819 0.536765 125.885 0.602216C125.95 0.667667 125.987 0.756428 125.987 0.848978Z" fill="#7900FF" stroke="#6440FB"/>
<path d="M11.4284 0.848978C11.4284 0.917994 11.408 0.985464 11.3696 1.04286C11.3313 1.10027 11.2768 1.14499 11.213 1.1714C11.1492 1.19782 11.079 1.20473 11.0114 1.19127C10.9437 1.1778 10.8815 1.14456 10.8327 1.09576L10.4791 1.44931L10.8327 1.09576C10.7839 1.04697 10.7506 0.984773 10.7372 0.917062C10.7237 0.849365 10.7306 0.779195 10.757 0.715429C10.7834 0.651692 10.8282 0.597192 10.8856 0.558827C10.943 0.520465 11.0105 0.5 11.0795 0.5C11.172 0.5 11.2608 0.536765 11.3262 0.602216C11.3917 0.667667 11.4284 0.756428 11.4284 0.848978Z" fill="#7900FF" stroke="#6440FB"/>
<path d="M136.217 0.848981C136.217 1.04172 136.061 1.19796 135.869 1.19796C135.676 1.19796 135.52 1.04172 135.52 0.848981C135.52 0.656244 135.676 0.5 135.869 0.5C136.061 0.5 136.217 0.656244 136.217 0.848981Z" fill="#7900FF" stroke="#6440FB"/>
<path d="M21.6511 0.848981C21.6511 1.04172 21.4948 1.19796 21.3021 1.19796C21.1094 1.19796 20.9531 1.04172 20.9531 0.848981C20.9531 0.656244 21.1094 0.5 21.3021 0.5C21.4948 0.5 21.6511 0.656244 21.6511 0.848981Z" fill="#7900FF" stroke="#6440FB"/>
<path d="M146.448 0.848981C146.448 1.04172 146.292 1.19796 146.099 1.19796C145.906 1.19796 145.75 1.04172 145.75 0.848981C145.75 0.656244 145.906 0.5 146.099 0.5C146.292 0.5 146.448 0.656244 146.448 0.848981Z" fill="#7900FF" stroke="#6440FB"/>
<path d="M32.5691 0.848981C32.5691 1.04172 32.4128 1.19796 32.2201 1.19796C32.0273 1.19796 31.8711 1.04172 31.8711 0.848981C31.8711 0.656244 32.0273 0.5 32.2201 0.5C32.4128 0.5 32.5691 0.656244 32.5691 0.848981Z" fill="#7900FF" stroke="#6440FB"/>
<path d="M156.671 0.848981C156.671 1.04172 156.514 1.19796 156.322 1.19796C156.129 1.19796 155.973 1.04172 155.973 0.848981C155.973 0.656244 156.129 0.5 156.322 0.5C156.514 0.5 156.671 0.656244 156.671 0.848981Z" fill="#7900FF" stroke="#6440FB"/>
<path d="M42.7917 0.848981C42.7917 1.04172 42.6355 1.19796 42.4427 1.19796C42.25 1.19796 42.0938 1.04172 42.0938 0.848981C42.0938 0.656244 42.25 0.5 42.4427 0.5C42.6355 0.5 42.7917 0.656244 42.7917 0.848981Z" fill="#7900FF" stroke="#6440FB"/>
<path d="M167.589 0.848981C167.589 1.04172 167.432 1.19796 167.24 1.19796C167.047 1.19796 166.891 1.04172 166.891 0.848981C166.891 0.656244 167.047 0.5 167.24 0.5C167.432 0.5 167.589 0.656244 167.589 0.848981Z" fill="#7900FF" stroke="#6440FB"/>
<path d="M53.0222 0.848981C53.0222 1.04172 52.8659 1.19796 52.6732 1.19796C52.4805 1.19796 52.3242 1.04172 52.3242 0.848981C52.3242 0.656244 52.4805 0.5 52.6732 0.5C52.8659 0.5 53.0222 0.656244 53.0222 0.848981Z" fill="#7900FF" stroke="#6440FB"/>
<path d="M177.811 0.848981C177.811 1.04172 177.655 1.19796 177.462 1.19796C177.27 1.19796 177.113 1.04172 177.113 0.848981C177.113 0.656244 177.27 0.5 177.462 0.5C177.655 0.5 177.811 0.656244 177.811 0.848981Z" fill="#7900FF" stroke="#6440FB"/>
<path d="M63.2527 0.848981C63.2527 1.04172 63.0964 1.19796 62.9037 1.19796C62.7109 1.19796 62.5547 1.04172 62.5547 0.848981C62.5547 0.656244 62.7109 0.5 62.9037 0.5C63.0964 0.5 63.2527 0.656244 63.2527 0.848981Z" fill="#7900FF" stroke="#6440FB"/>
<path d="M188.042 0.848981C188.042 1.04172 187.885 1.19796 187.693 1.19796C187.5 1.19796 187.344 1.04172 187.344 0.848981C187.344 0.656244 187.5 0.5 187.693 0.5C187.885 0.5 188.042 0.656244 188.042 0.848981Z" fill="#7900FF" stroke="#6440FB"/>
<path d="M74.1628 0.848981C74.1628 1.04172 74.0066 1.19796 73.8138 1.19796C73.6211 1.19796 73.4648 1.04172 73.4648 0.848981C73.4648 0.656244 73.6211 0.5 73.8138 0.5C74.0066 0.5 74.1628 0.656244 74.1628 0.848981Z" fill="#7900FF" stroke="#6440FB"/>
<path d="M84.3933 12.4427C84.3933 12.6355 84.237 12.7917 84.0443 12.7917C83.8516 12.7917 83.6953 12.6355 83.6953 12.4427C83.6953 12.25 83.8516 12.0938 84.0443 12.0938C84.237 12.0938 84.3933 12.25 84.3933 12.4427Z" fill="#7900FF" stroke="#6440FB"/>
<path d="M94.6237 12.4427C94.6237 12.6355 94.4675 12.7917 94.2748 12.7917C94.082 12.7917 93.9258 12.6355 93.9258 12.4427C93.9258 12.25 94.082 12.0938 94.2748 12.0938C94.4675 12.0938 94.6237 12.25 94.6237 12.4427Z" fill="#7900FF" stroke="#6440FB"/>
<path d="M104.846 12.4427C104.846 12.6355 104.69 12.7917 104.497 12.7917C104.305 12.7917 104.148 12.6355 104.148 12.4427C104.148 12.25 104.305 12.0938 104.497 12.0938C104.69 12.0938 104.846 12.25 104.846 12.4427Z" fill="#7900FF" stroke="#6440FB"/>
<path d="M115.077 12.4427C115.077 12.6355 114.921 12.7917 114.728 12.7917C114.535 12.7917 114.379 12.6355 114.379 12.4427C114.379 12.25 114.535 12.0938 114.728 12.0938C114.921 12.0938 115.077 12.25 115.077 12.4427Z" fill="#7900FF" stroke="#6440FB"/>
<path d="M1.19796 12.4427C1.19796 12.6355 1.04172 12.7917 0.848981 12.7917C0.656244 12.7917 0.5 12.6355 0.5 12.4427C0.5 12.25 0.656244 12.0938 0.848981 12.0938C1.04172 12.0938 1.19796 12.25 1.19796 12.4427Z" fill="#7900FF" stroke="#6440FB"/>
<path d="M125.987 12.4427C125.987 12.5117 125.967 12.5792 125.928 12.6366C125.89 12.694 125.835 12.7387 125.772 12.7652C125.708 12.7916 125.638 12.7985 125.57 12.785C125.502 12.7716 125.44 12.7383 125.391 12.6895L125.038 13.0431L125.391 12.6895C125.342 12.6407 125.309 12.5785 125.296 12.5108C125.282 12.4431 125.289 12.3729 125.316 12.3092C125.342 12.2454 125.387 12.1909 125.444 12.1526C125.502 12.1142 125.569 12.0938 125.638 12.0938C125.731 12.0938 125.819 12.1305 125.885 12.196C125.95 12.2614 125.987 12.3502 125.987 12.4427Z" fill="#7900FF" stroke="#6440FB"/>
<path d="M11.4284 12.4427C11.4284 12.5117 11.408 12.5792 11.3696 12.6366C11.3313 12.694 11.2768 12.7387 11.213 12.7652C11.1492 12.7916 11.079 12.7985 11.0114 12.785C10.9437 12.7716 10.8815 12.7383 10.8327 12.6895L10.4791 13.0431L10.8327 12.6895C10.7839 12.6407 10.7506 12.5785 10.7372 12.5108C10.7237 12.4431 10.7306 12.3729 10.757 12.3092C10.7834 12.2454 10.8282 12.1909 10.8856 12.1526C10.943 12.1142 11.0105 12.0938 11.0795 12.0938C11.172 12.0938 11.2608 12.1305 11.3262 12.196C11.3917 12.2614 11.4284 12.3502 11.4284 12.4427Z" fill="#7900FF" stroke="#6440FB"/>
<path d="M136.217 12.4427C136.217 12.6355 136.061 12.7917 135.869 12.7917C135.676 12.7917 135.52 12.6355 135.52 12.4427C135.52 12.25 135.676 12.0938 135.869 12.0938C136.061 12.0938 136.217 12.25 136.217 12.4427Z" fill="#7900FF" stroke="#6440FB"/>
<path d="M21.6511 12.4427C21.6511 12.6355 21.4948 12.7917 21.3021 12.7917C21.1094 12.7917 20.9531 12.6355 20.9531 12.4427C20.9531 12.25 21.1094 12.0938 21.3021 12.0938C21.4948 12.0938 21.6511 12.25 21.6511 12.4427Z" fill="#7900FF" stroke="#6440FB"/>
<path d="M146.448 12.4427C146.448 12.6355 146.292 12.7917 146.099 12.7917C145.906 12.7917 145.75 12.6355 145.75 12.4427C145.75 12.25 145.906 12.0938 146.099 12.0938C146.292 12.0938 146.448 12.25 146.448 12.4427Z" fill="#7900FF" stroke="#6440FB"/>
<path d="M32.5691 12.4427C32.5691 12.6355 32.4128 12.7917 32.2201 12.7917C32.0273 12.7917 31.8711 12.6355 31.8711 12.4427C31.8711 12.25 32.0273 12.0938 32.2201 12.0938C32.4128 12.0938 32.5691 12.25 32.5691 12.4427Z" fill="#7900FF" stroke="#6440FB"/>
<path d="M156.671 12.4427C156.671 12.6355 156.514 12.7917 156.322 12.7917C156.129 12.7917 155.973 12.6355 155.973 12.4427C155.973 12.25 156.129 12.0938 156.322 12.0938C156.514 12.0938 156.671 12.25 156.671 12.4427Z" fill="#7900FF" stroke="#6440FB"/>
<path d="M42.7917 12.4427C42.7917 12.6355 42.6355 12.7917 42.4427 12.7917C42.25 12.7917 42.0938 12.6355 42.0938 12.4427C42.0938 12.25 42.25 12.0938 42.4427 12.0938C42.6355 12.0938 42.7917 12.25 42.7917 12.4427Z" fill="#7900FF" stroke="#6440FB"/>
<path d="M167.589 12.4427C167.589 12.6355 167.432 12.7917 167.24 12.7917C167.047 12.7917 166.891 12.6355 166.891 12.4427C166.891 12.25 167.047 12.0938 167.24 12.0938C167.432 12.0938 167.589 12.25 167.589 12.4427Z" fill="#7900FF" stroke="#6440FB"/>
<path d="M53.0222 12.4427C53.0222 12.6355 52.8659 12.7917 52.6732 12.7917C52.4805 12.7917 52.3242 12.6355 52.3242 12.4427C52.3242 12.25 52.4805 12.0938 52.6732 12.0938C52.8659 12.0938 53.0222 12.25 53.0222 12.4427Z" fill="#7900FF" stroke="#6440FB"/>
<path d="M177.811 12.4427C177.811 12.6355 177.655 12.7917 177.462 12.7917C177.27 12.7917 177.113 12.6355 177.113 12.4427C177.113 12.25 177.27 12.0938 177.462 12.0938C177.655 12.0938 177.811 12.25 177.811 12.4427Z" fill="#7900FF" stroke="#6440FB"/>
<path d="M63.2527 12.4427C63.2527 12.6355 63.0964 12.7917 62.9037 12.7917C62.7109 12.7917 62.5547 12.6355 62.5547 12.4427C62.5547 12.25 62.7109 12.0938 62.9037 12.0938C63.0964 12.0938 63.2527 12.25 63.2527 12.4427Z" fill="#7900FF" stroke="#6440FB"/>
<path d="M188.042 12.4427C188.042 12.6355 187.885 12.7917 187.693 12.7917C187.5 12.7917 187.344 12.6355 187.344 12.4427C187.344 12.25 187.5 12.0938 187.693 12.0938C187.885 12.0938 188.042 12.25 188.042 12.4427Z" fill="#7900FF" stroke="#6440FB"/>
<path d="M74.1628 12.4427C74.1628 12.6355 74.0066 12.7917 73.8138 12.7917C73.6211 12.7917 73.4648 12.6355 73.4648 12.4427C73.4648 12.25 73.6211 12.0938 73.8138 12.0938C74.0066 12.0938 74.1628 12.25 74.1628 12.4427Z" fill="#7900FF" stroke="#6440FB"/>
<path d="M84.3933 24.0209C84.3933 24.2136 84.237 24.3698 84.0443 24.3698C83.8516 24.3698 83.6953 24.2136 83.6953 24.0209C83.6953 23.8281 83.8516 23.6719 84.0443 23.6719C84.237 23.6719 84.3933 23.8281 84.3933 24.0209Z" fill="#7900FF" stroke="#6440FB"/>
<path d="M94.6237 24.0209C94.6237 24.2136 94.4675 24.3698 94.2748 24.3698C94.082 24.3698 93.9258 24.2136 93.9258 24.0209C93.9258 23.8281 94.082 23.6719 94.2748 23.6719C94.4675 23.6719 94.6237 23.8281 94.6237 24.0209Z" fill="#7900FF" stroke="#6440FB"/>
<path d="M104.846 24.0209C104.846 24.2136 104.69 24.3698 104.497 24.3698C104.305 24.3698 104.148 24.2136 104.148 24.0209C104.148 23.8281 104.305 23.6719 104.497 23.6719C104.69 23.6719 104.846 23.8281 104.846 24.0209Z" fill="#7900FF" stroke="#6440FB"/>
<path d="M115.077 24.0209C115.077 24.2136 114.921 24.3698 114.728 24.3698C114.535 24.3698 114.379 24.2136 114.379 24.0209C114.379 23.8281 114.535 23.6719 114.728 23.6719C114.921 23.6719 115.077 23.8281 115.077 24.0209Z" fill="#7900FF" stroke="#6440FB"/>
<path d="M1.19796 24.0209C1.19796 24.2136 1.04172 24.3698 0.848981 24.3698C0.656244 24.3698 0.5 24.2136 0.5 24.0209C0.5 23.8281 0.656244 23.6719 0.848981 23.6719C1.04172 23.6719 1.19796 23.8281 1.19796 24.0209Z" fill="#7900FF" stroke="#6440FB"/>
<path d="M125.987 24.0209C125.987 24.0899 125.967 24.1573 125.928 24.2147C125.89 24.2721 125.835 24.3169 125.772 24.3433C125.708 24.3697 125.638 24.3766 125.57 24.3631C125.502 24.3497 125.44 24.3164 125.391 24.2676L125.038 24.6212L125.391 24.2676C125.342 24.2188 125.309 24.1566 125.296 24.0889C125.282 24.0212 125.289 23.9511 125.316 23.8873C125.342 23.8236 125.387 23.7691 125.444 23.7307C125.502 23.6923 125.569 23.6719 125.638 23.6719C125.731 23.6719 125.819 23.7086 125.885 23.7741C125.95 23.8395 125.987 23.9283 125.987 24.0209Z" fill="#7900FF" stroke="#6440FB"/>
<path d="M11.4284 24.0209C11.4284 24.0899 11.408 24.1573 11.3696 24.2147C11.3313 24.2721 11.2768 24.3169 11.213 24.3433C11.1492 24.3697 11.079 24.3766 11.0114 24.3631C10.9437 24.3497 10.8815 24.3164 10.8327 24.2676L10.4791 24.6212L10.8327 24.2676C10.7839 24.2188 10.7506 24.1566 10.7372 24.0889C10.7237 24.0212 10.7306 23.9511 10.757 23.8873C10.7834 23.8236 10.8282 23.7691 10.8856 23.7307C10.943 23.6923 11.0105 23.6719 11.0795 23.6719C11.172 23.6719 11.2608 23.7086 11.3262 23.7741C11.3917 23.8395 11.4284 23.9283 11.4284 24.0209Z" fill="#7900FF" stroke="#6440FB"/>
<path d="M136.217 24.0209C136.217 24.2136 136.061 24.3698 135.869 24.3698C135.676 24.3698 135.52 24.2136 135.52 24.0209C135.52 23.8281 135.676 23.6719 135.869 23.6719C136.061 23.6719 136.217 23.8281 136.217 24.0209Z" fill="#7900FF" stroke="#6440FB"/>
<path d="M21.6511 24.0209C21.6511 24.2136 21.4948 24.3698 21.3021 24.3698C21.1094 24.3698 20.9531 24.2136 20.9531 24.0209C20.9531 23.8281 21.1094 23.6719 21.3021 23.6719C21.4948 23.6719 21.6511 23.8281 21.6511 24.0209Z" fill="#7900FF" stroke="#6440FB"/>
<path d="M146.448 24.0209C146.448 24.2136 146.292 24.3698 146.099 24.3698C145.906 24.3698 145.75 24.2136 145.75 24.0209C145.75 23.8281 145.906 23.6719 146.099 23.6719C146.292 23.6719 146.448 23.8281 146.448 24.0209Z" fill="#7900FF" stroke="#6440FB"/>
<path d="M32.5691 24.0209C32.5691 24.2136 32.4128 24.3698 32.2201 24.3698C32.0273 24.3698 31.8711 24.2136 31.8711 24.0209C31.8711 23.8281 32.0273 23.6719 32.2201 23.6719C32.4128 23.6719 32.5691 23.8281 32.5691 24.0209Z" fill="#7900FF" stroke="#6440FB"/>
<path d="M156.671 24.0209C156.671 24.2136 156.514 24.3698 156.322 24.3698C156.129 24.3698 155.973 24.2136 155.973 24.0209C155.973 23.8281 156.129 23.6719 156.322 23.6719C156.514 23.6719 156.671 23.8281 156.671 24.0209Z" fill="#7900FF" stroke="#6440FB"/>
<path d="M42.7917 24.0209C42.7917 24.2136 42.6355 24.3698 42.4427 24.3698C42.25 24.3698 42.0938 24.2136 42.0938 24.0209C42.0938 23.8281 42.25 23.6719 42.4427 23.6719C42.6355 23.6719 42.7917 23.8281 42.7917 24.0209Z" fill="#7900FF" stroke="#6440FB"/>
<path d="M167.589 24.0209C167.589 24.2136 167.432 24.3698 167.24 24.3698C167.047 24.3698 166.891 24.2136 166.891 24.0209C166.891 23.8281 167.047 23.6719 167.24 23.6719C167.432 23.6719 167.589 23.8281 167.589 24.0209Z" fill="#7900FF" stroke="#6440FB"/>
<path d="M53.0222 24.0209C53.0222 24.2136 52.8659 24.3698 52.6732 24.3698C52.4805 24.3698 52.3242 24.2136 52.3242 24.0209C52.3242 23.8281 52.4805 23.6719 52.6732 23.6719C52.8659 23.6719 53.0222 23.8281 53.0222 24.0209Z" fill="#7900FF" stroke="#6440FB"/>
<path d="M177.811 24.0209C177.811 24.2136 177.655 24.3698 177.462 24.3698C177.27 24.3698 177.113 24.2136 177.113 24.0209C177.113 23.8281 177.27 23.6719 177.462 23.6719C177.655 23.6719 177.811 23.8281 177.811 24.0209Z" fill="#7900FF" stroke="#6440FB"/>
<path d="M63.2527 24.0209C63.2527 24.2136 63.0964 24.3698 62.9037 24.3698C62.7109 24.3698 62.5547 24.2136 62.5547 24.0209C62.5547 23.8281 62.7109 23.6719 62.9037 23.6719C63.0964 23.6719 63.2527 23.8281 63.2527 24.0209Z" fill="#7900FF" stroke="#6440FB"/>
<path d="M188.042 24.0209C188.042 24.2136 187.885 24.3698 187.693 24.3698C187.5 24.3698 187.344 24.2136 187.344 24.0209C187.344 23.8281 187.5 23.6719 187.693 23.6719C187.885 23.6719 188.042 23.8281 188.042 24.0209Z" fill="#7900FF" stroke="#6440FB"/>
<path d="M74.1628 24.0209C74.1628 24.2136 74.0066 24.3698 73.8138 24.3698C73.6211 24.3698 73.4648 24.2136 73.4648 24.0209C73.4648 23.8281 73.6211 23.6719 73.8138 23.6719C74.0066 23.6719 74.1628 23.8281 74.1628 24.0209Z" fill="#7900FF" stroke="#6440FB"/>
<path d="M84.3933 35.638C84.3933 35.8308 84.237 35.987 84.0443 35.987C83.8516 35.987 83.6953 35.8308 83.6953 35.638C83.6953 35.4453 83.8516 35.2891 84.0443 35.2891C84.237 35.2891 84.3933 35.4453 84.3933 35.638Z" fill="#7900FF" stroke="#6440FB"/>
<path d="M94.6237 35.638C94.6237 35.8308 94.4675 35.987 94.2748 35.987C94.082 35.987 93.9258 35.8308 93.9258 35.638C93.9258 35.4453 94.082 35.2891 94.2748 35.2891C94.4675 35.2891 94.6237 35.4453 94.6237 35.638Z" fill="#7900FF" stroke="#6440FB"/>
<path d="M104.846 35.638C104.846 35.8308 104.69 35.987 104.497 35.987C104.305 35.987 104.148 35.8308 104.148 35.638C104.148 35.4453 104.305 35.2891 104.497 35.2891C104.69 35.2891 104.846 35.4453 104.846 35.638Z" fill="#7900FF" stroke="#6440FB"/>
<path d="M115.077 35.638C115.077 35.8308 114.921 35.987 114.728 35.987C114.535 35.987 114.379 35.8308 114.379 35.638C114.379 35.4453 114.535 35.2891 114.728 35.2891C114.921 35.2891 115.077 35.4453 115.077 35.638Z" fill="#7900FF" stroke="#6440FB"/>
<path d="M1.19796 35.638C1.19796 35.8308 1.04172 35.987 0.848981 35.987C0.656244 35.987 0.5 35.8308 0.5 35.638C0.5 35.4453 0.656244 35.2891 0.848981 35.2891C1.04172 35.2891 1.19796 35.4453 1.19796 35.638Z" fill="#7900FF" stroke="#6440FB"/>
<path d="M125.987 35.638C125.987 35.7071 125.967 35.7745 125.928 35.8319C125.89 35.8893 125.835 35.9341 125.772 35.9605C125.708 35.9869 125.638 35.9938 125.57 35.9803C125.502 35.9669 125.44 35.9336 125.391 35.8848L125.038 36.2384L125.391 35.8848C125.342 35.836 125.309 35.7738 125.296 35.7061C125.282 35.6384 125.289 35.5683 125.316 35.5045C125.342 35.4408 125.387 35.3863 125.444 35.3479C125.502 35.3095 125.569 35.2891 125.638 35.2891C125.731 35.2891 125.819 35.3258 125.885 35.3913C125.95 35.4567 125.987 35.5455 125.987 35.638Z" fill="#7900FF" stroke="#6440FB"/>
<path d="M11.4284 35.638C11.4284 35.7071 11.408 35.7745 11.3696 35.8319C11.3313 35.8893 11.2768 35.9341 11.213 35.9605C11.1492 35.9869 11.079 35.9938 11.0114 35.9803C10.9437 35.9669 10.8815 35.9336 10.8327 35.8848L10.4791 36.2384L10.8327 35.8848C10.7839 35.836 10.7506 35.7738 10.7372 35.7061C10.7237 35.6384 10.7306 35.5683 10.757 35.5045C10.7834 35.4408 10.8282 35.3863 10.8856 35.3479C10.943 35.3095 11.0105 35.2891 11.0795 35.2891C11.172 35.2891 11.2608 35.3258 11.3262 35.3913C11.3917 35.4567 11.4284 35.5455 11.4284 35.638Z" fill="#7900FF" stroke="#6440FB"/>
<path d="M136.217 35.638C136.217 35.8308 136.061 35.987 135.869 35.987C135.676 35.987 135.52 35.8308 135.52 35.638C135.52 35.4453 135.676 35.2891 135.869 35.2891C136.061 35.2891 136.217 35.4453 136.217 35.638Z" fill="#7900FF" stroke="#6440FB"/>
<path d="M21.6511 35.638C21.6511 35.8308 21.4948 35.987 21.3021 35.987C21.1094 35.987 20.9531 35.8308 20.9531 35.638C20.9531 35.4453 21.1094 35.2891 21.3021 35.2891C21.4948 35.2891 21.6511 35.4453 21.6511 35.638Z" fill="#7900FF" stroke="#6440FB"/>
<path d="M146.448 35.638C146.448 35.8308 146.292 35.987 146.099 35.987C145.906 35.987 145.75 35.8308 145.75 35.638C145.75 35.4453 145.906 35.2891 146.099 35.2891C146.292 35.2891 146.448 35.4453 146.448 35.638Z" fill="#7900FF" stroke="#6440FB"/>
<path d="M32.5691 35.638C32.5691 35.8308 32.4128 35.987 32.2201 35.987C32.0273 35.987 31.8711 35.8308 31.8711 35.638C31.8711 35.4453 32.0273 35.2891 32.2201 35.2891C32.4128 35.2891 32.5691 35.4453 32.5691 35.638Z" fill="#7900FF" stroke="#6440FB"/>
<path d="M156.671 35.638C156.671 35.8308 156.514 35.987 156.322 35.987C156.129 35.987 155.973 35.8308 155.973 35.638C155.973 35.4453 156.129 35.2891 156.322 35.2891C156.514 35.2891 156.671 35.4453 156.671 35.638Z" fill="#7900FF" stroke="#6440FB"/>
<path d="M42.7917 35.638C42.7917 35.8308 42.6355 35.987 42.4427 35.987C42.25 35.987 42.0938 35.8308 42.0938 35.638C42.0938 35.4453 42.25 35.2891 42.4427 35.2891C42.6355 35.2891 42.7917 35.4453 42.7917 35.638Z" fill="#7900FF" stroke="#6440FB"/>
<path d="M167.589 35.638C167.589 35.8308 167.432 35.987 167.24 35.987C167.047 35.987 166.891 35.8308 166.891 35.638C166.891 35.4453 167.047 35.2891 167.24 35.2891C167.432 35.2891 167.589 35.4453 167.589 35.638Z" fill="#7900FF" stroke="#6440FB"/>
<path d="M53.0222 35.638C53.0222 35.8308 52.8659 35.987 52.6732 35.987C52.4805 35.987 52.3242 35.8308 52.3242 35.638C52.3242 35.4453 52.4805 35.2891 52.6732 35.2891C52.8659 35.2891 53.0222 35.4453 53.0222 35.638Z" fill="#7900FF" stroke="#6440FB"/>
<path d="M177.811 35.638C177.811 35.8308 177.655 35.987 177.462 35.987C177.27 35.987 177.113 35.8308 177.113 35.638C177.113 35.4453 177.27 35.2891 177.462 35.2891C177.655 35.2891 177.811 35.4453 177.811 35.638Z" fill="#7900FF" stroke="#6440FB"/>
<path d="M63.2527 35.638C63.2527 35.8308 63.0964 35.987 62.9037 35.987C62.7109 35.987 62.5547 35.8308 62.5547 35.638C62.5547 35.4453 62.7109 35.2891 62.9037 35.2891C63.0964 35.2891 63.2527 35.4453 63.2527 35.638Z" fill="#7900FF" stroke="#6440FB"/>
<path d="M188.042 35.638C188.042 35.8308 187.885 35.987 187.693 35.987C187.5 35.987 187.344 35.8308 187.344 35.638C187.344 35.4453 187.5 35.2891 187.693 35.2891C187.885 35.2891 188.042 35.4453 188.042 35.638Z" fill="#7900FF" stroke="#6440FB"/>
<path d="M74.1628 35.638C74.1628 35.8308 74.0066 35.987 73.8138 35.987C73.6211 35.987 73.4648 35.8308 73.4648 35.638C73.4648 35.4453 73.6211 35.2891 73.8138 35.2891C74.0066 35.2891 74.1628 35.4453 74.1628 35.638Z" fill="#7900FF" stroke="#6440FB"/>
<path d="M84.3933 47.224C84.3933 47.4167 84.237 47.573 84.0443 47.573C83.8516 47.573 83.6953 47.4167 83.6953 47.224C83.6953 47.0312 83.8516 46.875 84.0443 46.875C84.237 46.875 84.3933 47.0312 84.3933 47.224Z" fill="#7900FF" stroke="#6440FB"/>
<path d="M94.6237 47.224C94.6237 47.4167 94.4675 47.573 94.2748 47.573C94.082 47.573 93.9258 47.4167 93.9258 47.224C93.9258 47.0312 94.082 46.875 94.2748 46.875C94.4675 46.875 94.6237 47.0312 94.6237 47.224Z" fill="#7900FF" stroke="#6440FB"/>
<path d="M104.846 47.224C104.846 47.4167 104.69 47.573 104.497 47.573C104.305 47.573 104.148 47.4167 104.148 47.224C104.148 47.0312 104.305 46.875 104.497 46.875C104.69 46.875 104.846 47.0312 104.846 47.224Z" fill="#7900FF" stroke="#6440FB"/>
<path d="M115.077 47.224C115.077 47.4167 114.921 47.573 114.728 47.573C114.535 47.573 114.379 47.4167 114.379 47.224C114.379 47.0312 114.535 46.875 114.728 46.875C114.921 46.875 115.077 47.0312 115.077 47.224Z" fill="#7900FF" stroke="#6440FB"/>
<path d="M1.19796 47.224C1.19796 47.4167 1.04172 47.573 0.848981 47.573C0.656244 47.573 0.5 47.4167 0.5 47.224C0.5 47.0312 0.656244 46.875 0.848981 46.875C1.04172 46.875 1.19796 47.0312 1.19796 47.224Z" fill="#7900FF" stroke="#6440FB"/>
<path d="M125.987 47.224C125.987 47.293 125.967 47.3605 125.928 47.4179C125.89 47.4753 125.835 47.52 125.772 47.5464C125.708 47.5728 125.638 47.5797 125.57 47.5663C125.502 47.5528 125.44 47.5196 125.391 47.4708L125.038 47.8243L125.391 47.4708C125.342 47.422 125.309 47.3598 125.296 47.2921C125.282 47.2244 125.289 47.1542 125.316 47.0904C125.342 47.0267 125.387 46.9722 125.444 46.9338C125.502 46.8955 125.569 46.875 125.638 46.875C125.731 46.875 125.819 46.9118 125.885 46.9772C125.95 47.0427 125.987 47.1314 125.987 47.224Z" fill="#7900FF" stroke="#6440FB"/>
<path d="M11.4284 47.224C11.4284 47.293 11.408 47.3605 11.3696 47.4179C11.3313 47.4753 11.2768 47.52 11.213 47.5464C11.1492 47.5728 11.079 47.5797 11.0114 47.5663C10.9437 47.5528 10.8815 47.5196 10.8327 47.4708L10.4791 47.8243L10.8327 47.4708C10.7839 47.422 10.7506 47.3598 10.7372 47.2921C10.7237 47.2244 10.7306 47.1542 10.757 47.0904C10.7834 47.0267 10.8282 46.9722 10.8856 46.9338C10.943 46.8955 11.0105 46.875 11.0795 46.875C11.172 46.875 11.2608 46.9118 11.3262 46.9772C11.3917 47.0427 11.4284 47.1314 11.4284 47.224Z" fill="#7900FF" stroke="#6440FB"/>
<path d="M136.217 47.224C136.217 47.4167 136.061 47.573 135.869 47.573C135.676 47.573 135.52 47.4167 135.52 47.224C135.52 47.0312 135.676 46.875 135.869 46.875C136.061 46.875 136.217 47.0312 136.217 47.224Z" fill="#7900FF" stroke="#6440FB"/>
<path d="M21.6511 47.224C21.6511 47.4167 21.4948 47.573 21.3021 47.573C21.1094 47.573 20.9531 47.4167 20.9531 47.224C20.9531 47.0312 21.1094 46.875 21.3021 46.875C21.4948 46.875 21.6511 47.0312 21.6511 47.224Z" fill="#7900FF" stroke="#6440FB"/>
<path d="M146.448 47.224C146.448 47.4167 146.292 47.573 146.099 47.573C145.906 47.573 145.75 47.4167 145.75 47.224C145.75 47.0312 145.906 46.875 146.099 46.875C146.292 46.875 146.448 47.0312 146.448 47.224Z" fill="#7900FF" stroke="#6440FB"/>
<path d="M32.5691 47.224C32.5691 47.4167 32.4128 47.573 32.2201 47.573C32.0273 47.573 31.8711 47.4167 31.8711 47.224C31.8711 47.0312 32.0273 46.875 32.2201 46.875C32.4128 46.875 32.5691 47.0312 32.5691 47.224Z" fill="#7900FF" stroke="#6440FB"/>
<path d="M156.671 47.224C156.671 47.4167 156.514 47.573 156.322 47.573C156.129 47.573 155.973 47.4167 155.973 47.224C155.973 47.0312 156.129 46.875 156.322 46.875C156.514 46.875 156.671 47.0312 156.671 47.224Z" fill="#7900FF" stroke="#6440FB"/>
<path d="M42.7917 47.224C42.7917 47.4167 42.6355 47.573 42.4427 47.573C42.25 47.573 42.0938 47.4167 42.0938 47.224C42.0938 47.0312 42.25 46.875 42.4427 46.875C42.6355 46.875 42.7917 47.0312 42.7917 47.224Z" fill="#7900FF" stroke="#6440FB"/>
<path d="M167.589 47.224C167.589 47.4167 167.432 47.573 167.24 47.573C167.047 47.573 166.891 47.4167 166.891 47.224C166.891 47.0312 167.047 46.875 167.24 46.875C167.432 46.875 167.589 47.0312 167.589 47.224Z" fill="#7900FF" stroke="#6440FB"/>
<path d="M53.0222 47.224C53.0222 47.4167 52.8659 47.573 52.6732 47.573C52.4805 47.573 52.3242 47.4167 52.3242 47.224C52.3242 47.0312 52.4805 46.875 52.6732 46.875C52.8659 46.875 53.0222 47.0312 53.0222 47.224Z" fill="#7900FF" stroke="#6440FB"/>
<path d="M177.811 47.224C177.811 47.4167 177.655 47.573 177.462 47.573C177.27 47.573 177.113 47.4167 177.113 47.224C177.113 47.0312 177.27 46.875 177.462 46.875C177.655 46.875 177.811 47.0312 177.811 47.224Z" fill="#7900FF" stroke="#6440FB"/>
<path d="M63.2527 47.224C63.2527 47.4167 63.0964 47.573 62.9037 47.573C62.7109 47.573 62.5547 47.4167 62.5547 47.224C62.5547 47.0312 62.7109 46.875 62.9037 46.875C63.0964 46.875 63.2527 47.0312 63.2527 47.224Z" fill="#7900FF" stroke="#6440FB"/>
<path d="M188.042 47.224C188.042 47.4167 187.885 47.573 187.693 47.573C187.5 47.573 187.344 47.4167 187.344 47.224C187.344 47.0312 187.5 46.875 187.693 46.875C187.885 46.875 188.042 47.0312 188.042 47.224Z" fill="#7900FF" stroke="#6440FB"/>
<path d="M74.1628 47.224C74.1628 47.4167 74.0066 47.573 73.8138 47.573C73.6211 47.573 73.4648 47.4167 73.4648 47.224C73.4648 47.0312 73.6211 46.875 73.8138 46.875C74.0066 46.875 74.1628 47.0312 74.1628 47.224Z" fill="#7900FF" stroke="#6440FB"/>
<path d="M84.3933 58.8099C84.3933 59.0027 84.237 59.1589 84.0443 59.1589C83.8516 59.1589 83.6953 59.0027 83.6953 58.8099C83.6953 58.6172 83.8516 58.4609 84.0443 58.4609C84.237 58.4609 84.3933 58.6172 84.3933 58.8099Z" fill="#7900FF" stroke="#6440FB"/>
<path d="M94.6237 58.8099C94.6237 59.0027 94.4675 59.1589 94.2748 59.1589C94.082 59.1589 93.9258 59.0027 93.9258 58.8099C93.9258 58.6172 94.082 58.4609 94.2748 58.4609C94.4675 58.4609 94.6237 58.6172 94.6237 58.8099Z" fill="#7900FF" stroke="#6440FB"/>
<path d="M104.846 58.8099C104.846 59.0027 104.69 59.1589 104.497 59.1589C104.305 59.1589 104.148 59.0027 104.148 58.8099C104.148 58.6172 104.305 58.4609 104.497 58.4609C104.69 58.4609 104.846 58.6172 104.846 58.8099Z" fill="#7900FF" stroke="#6440FB"/>
<path d="M115.077 58.8099C115.077 59.0027 114.921 59.1589 114.728 59.1589C114.535 59.1589 114.379 59.0027 114.379 58.8099C114.379 58.6172 114.535 58.4609 114.728 58.4609C114.921 58.4609 115.077 58.6172 115.077 58.8099Z" fill="#7900FF" stroke="#6440FB"/>
<path d="M1.19796 58.8099C1.19796 59.0027 1.04172 59.1589 0.848981 59.1589C0.656244 59.1589 0.5 59.0027 0.5 58.8099C0.5 58.6172 0.656244 58.4609 0.848981 58.4609C1.04172 58.4609 1.19796 58.6172 1.19796 58.8099Z" fill="#7900FF" stroke="#6440FB"/>
<path d="M125.987 58.8099C125.987 58.8789 125.967 58.9464 125.928 59.0038C125.89 59.0612 125.835 59.1059 125.772 59.1323C125.708 59.1588 125.638 59.1657 125.57 59.1522C125.502 59.1387 125.44 59.1055 125.391 59.0567L125.038 59.4103L125.391 59.0567C125.342 59.0079 125.309 58.9457 125.296 58.878C125.282 58.8103 125.289 58.7401 125.316 58.6764C125.342 58.6126 125.387 58.5581 125.444 58.5198C125.502 58.4814 125.569 58.4609 125.638 58.4609C125.731 58.4609 125.819 58.4977 125.885 58.5632C125.95 58.6286 125.987 58.7174 125.987 58.8099Z" fill="#7900FF" stroke="#6440FB"/>
<path d="M11.4284 58.8099C11.4284 58.8789 11.408 58.9464 11.3696 59.0038C11.3313 59.0612 11.2768 59.1059 11.213 59.1323C11.1492 59.1588 11.079 59.1657 11.0114 59.1522C10.9437 59.1387 10.8815 59.1055 10.8327 59.0567L10.4791 59.4103L10.8327 59.0567C10.7839 59.0079 10.7506 58.9457 10.7372 58.878C10.7237 58.8103 10.7306 58.7401 10.757 58.6764C10.7834 58.6126 10.8282 58.5581 10.8856 58.5198C10.943 58.4814 11.0105 58.4609 11.0795 58.4609C11.172 58.4609 11.2608 58.4977 11.3262 58.5632C11.3917 58.6286 11.4284 58.7174 11.4284 58.8099Z" fill="#7900FF" stroke="#6440FB"/>
<path d="M136.217 58.8099C136.217 59.0027 136.061 59.1589 135.869 59.1589C135.676 59.1589 135.52 59.0027 135.52 58.8099C135.52 58.6172 135.676 58.4609 135.869 58.4609C136.061 58.4609 136.217 58.6172 136.217 58.8099Z" fill="#7900FF" stroke="#6440FB"/>
<path d="M21.6511 58.8099C21.6511 59.0027 21.4948 59.1589 21.3021 59.1589C21.1094 59.1589 20.9531 59.0027 20.9531 58.8099C20.9531 58.6172 21.1094 58.4609 21.3021 58.4609C21.4948 58.4609 21.6511 58.6172 21.6511 58.8099Z" fill="#7900FF" stroke="#6440FB"/>
<path d="M146.448 58.8099C146.448 59.0027 146.292 59.1589 146.099 59.1589C145.906 59.1589 145.75 59.0027 145.75 58.8099C145.75 58.6172 145.906 58.4609 146.099 58.4609C146.292 58.4609 146.448 58.6172 146.448 58.8099Z" fill="#7900FF" stroke="#6440FB"/>
<path d="M32.5691 58.8099C32.5691 59.0027 32.4128 59.1589 32.2201 59.1589C32.0273 59.1589 31.8711 59.0027 31.8711 58.8099C31.8711 58.6172 32.0273 58.4609 32.2201 58.4609C32.4128 58.4609 32.5691 58.6172 32.5691 58.8099Z" fill="#7900FF" stroke="#6440FB"/>
<path d="M156.671 58.8099C156.671 59.0027 156.514 59.1589 156.322 59.1589C156.129 59.1589 155.973 59.0027 155.973 58.8099C155.973 58.6172 156.129 58.4609 156.322 58.4609C156.514 58.4609 156.671 58.6172 156.671 58.8099Z" fill="#7900FF" stroke="#6440FB"/>
<path d="M42.7917 58.8099C42.7917 59.0027 42.6355 59.1589 42.4427 59.1589C42.25 59.1589 42.0938 59.0027 42.0938 58.8099C42.0938 58.6172 42.25 58.4609 42.4427 58.4609C42.6355 58.4609 42.7917 58.6172 42.7917 58.8099Z" fill="#7900FF" stroke="#6440FB"/>
<path d="M167.589 58.8099C167.589 59.0027 167.432 59.1589 167.24 59.1589C167.047 59.1589 166.891 59.0027 166.891 58.8099C166.891 58.6172 167.047 58.4609 167.24 58.4609C167.432 58.4609 167.589 58.6172 167.589 58.8099Z" fill="#7900FF" stroke="#6440FB"/>
<path d="M53.0222 58.8099C53.0222 59.0027 52.8659 59.1589 52.6732 59.1589C52.4805 59.1589 52.3242 59.0027 52.3242 58.8099C52.3242 58.6172 52.4805 58.4609 52.6732 58.4609C52.8659 58.4609 53.0222 58.6172 53.0222 58.8099Z" fill="#7900FF" stroke="#6440FB"/>
<path d="M177.811 58.8099C177.811 59.0027 177.655 59.1589 177.462 59.1589C177.27 59.1589 177.113 59.0027 177.113 58.8099C177.113 58.6172 177.27 58.4609 177.462 58.4609C177.655 58.4609 177.811 58.6172 177.811 58.8099Z" fill="#7900FF" stroke="#6440FB"/>
<path d="M63.2527 58.8099C63.2527 59.0027 63.0964 59.1589 62.9037 59.1589C62.7109 59.1589 62.5547 59.0027 62.5547 58.8099C62.5547 58.6172 62.7109 58.4609 62.9037 58.4609C63.0964 58.4609 63.2527 58.6172 63.2527 58.8099Z" fill="#7900FF" stroke="#6440FB"/>
<path d="M188.042 58.8099C188.042 59.0027 187.885 59.1589 187.693 59.1589C187.5 59.1589 187.344 59.0027 187.344 58.8099C187.344 58.6172 187.5 58.4609 187.693 58.4609C187.885 58.4609 188.042 58.6172 188.042 58.8099Z" fill="#7900FF" stroke="#6440FB"/>
<path d="M74.1628 58.8099C74.1628 59.0027 74.0066 59.1589 73.8138 59.1589C73.6211 59.1589 73.4648 59.0027 73.4648 58.8099C73.4648 58.6172 73.6211 58.4609 73.8138 58.4609C74.0066 58.4609 74.1628 58.6172 74.1628 58.8099Z" fill="#7900FF" stroke="#6440FB"/>
<path d="M84.3933 70.4037C84.3933 70.5964 84.237 70.7527 84.0443 70.7527C83.8516 70.7527 83.6953 70.5964 83.6953 70.4037C83.6953 70.2109 83.8516 70.0547 84.0443 70.0547C84.237 70.0547 84.3933 70.2109 84.3933 70.4037Z" fill="#7900FF" stroke="#6440FB"/>
<path d="M94.6237 70.4037C94.6237 70.5964 94.4675 70.7527 94.2748 70.7527C94.082 70.7527 93.9258 70.5964 93.9258 70.4037C93.9258 70.2109 94.082 70.0547 94.2748 70.0547C94.4675 70.0547 94.6237 70.2109 94.6237 70.4037Z" fill="#7900FF" stroke="#6440FB"/>
<path d="M104.846 70.4037C104.846 70.5964 104.69 70.7527 104.497 70.7527C104.305 70.7527 104.148 70.5964 104.148 70.4037C104.148 70.2109 104.305 70.0547 104.497 70.0547C104.69 70.0547 104.846 70.2109 104.846 70.4037Z" fill="#7900FF" stroke="#6440FB"/>
<path d="M115.077 70.4037C115.077 70.5964 114.921 70.7527 114.728 70.7527C114.535 70.7527 114.379 70.5964 114.379 70.4037C114.379 70.2109 114.535 70.0547 114.728 70.0547C114.921 70.0547 115.077 70.2109 115.077 70.4037Z" fill="#7900FF" stroke="#6440FB"/>
<path d="M1.19796 70.4037C1.19796 70.5964 1.04172 70.7527 0.848981 70.7527C0.656244 70.7527 0.5 70.5964 0.5 70.4037C0.5 70.2109 0.656244 70.0547 0.848981 70.0547C1.04172 70.0547 1.19796 70.2109 1.19796 70.4037Z" fill="#7900FF" stroke="#6440FB"/>
<path d="M125.987 70.4037C125.987 70.4727 125.967 70.5402 125.928 70.5975C125.89 70.655 125.835 70.6997 125.772 70.7261C125.708 70.7525 125.638 70.7594 125.57 70.746C125.502 70.7325 125.44 70.6993 125.391 70.6504L125.038 71.004L125.391 70.6504C125.342 70.6017 125.309 70.5395 125.296 70.4717C125.282 70.4041 125.289 70.3339 125.316 70.2701C125.342 70.2064 125.387 70.1519 125.444 70.1135C125.502 70.0752 125.569 70.0547 125.638 70.0547C125.731 70.0547 125.819 70.0915 125.885 70.1569C125.95 70.2224 125.987 70.3111 125.987 70.4037Z" fill="#7900FF" stroke="#6440FB"/>
<path d="M11.4284 70.4037C11.4284 70.4727 11.408 70.5402 11.3696 70.5975C11.3313 70.655 11.2768 70.6997 11.213 70.7261C11.1492 70.7525 11.079 70.7594 11.0114 70.746C10.9437 70.7325 10.8815 70.6993 10.8327 70.6504L10.4791 71.004L10.8327 70.6504C10.7839 70.6017 10.7506 70.5395 10.7372 70.4717C10.7237 70.4041 10.7306 70.3339 10.757 70.2701C10.7834 70.2064 10.8282 70.1519 10.8856 70.1135C10.943 70.0752 11.0105 70.0547 11.0795 70.0547C11.172 70.0547 11.2608 70.0915 11.3262 70.1569C11.3917 70.2224 11.4284 70.3111 11.4284 70.4037Z" fill="#7900FF" stroke="#6440FB"/>
<path d="M136.217 70.4037C136.217 70.5964 136.061 70.7527 135.869 70.7527C135.676 70.7527 135.52 70.5964 135.52 70.4037C135.52 70.2109 135.676 70.0547 135.869 70.0547C136.061 70.0547 136.217 70.2109 136.217 70.4037Z" fill="#7900FF" stroke="#6440FB"/>
<path d="M21.6511 70.4037C21.6511 70.5964 21.4948 70.7527 21.3021 70.7527C21.1094 70.7527 20.9531 70.5964 20.9531 70.4037C20.9531 70.2109 21.1094 70.0547 21.3021 70.0547C21.4948 70.0547 21.6511 70.2109 21.6511 70.4037Z" fill="#7900FF" stroke="#6440FB"/>
<path d="M146.448 70.4037C146.448 70.5964 146.292 70.7527 146.099 70.7527C145.906 70.7527 145.75 70.5964 145.75 70.4037C145.75 70.2109 145.906 70.0547 146.099 70.0547C146.292 70.0547 146.448 70.2109 146.448 70.4037Z" fill="#7900FF" stroke="#6440FB"/>
<path d="M32.5691 70.4037C32.5691 70.5964 32.4128 70.7527 32.2201 70.7527C32.0273 70.7527 31.8711 70.5964 31.8711 70.4037C31.8711 70.2109 32.0273 70.0547 32.2201 70.0547C32.4128 70.0547 32.5691 70.2109 32.5691 70.4037Z" fill="#7900FF" stroke="#6440FB"/>
<path d="M156.671 70.4037C156.671 70.5964 156.514 70.7527 156.322 70.7527C156.129 70.7527 155.973 70.5964 155.973 70.4037C155.973 70.2109 156.129 70.0547 156.322 70.0547C156.514 70.0547 156.671 70.2109 156.671 70.4037Z" fill="#7900FF" stroke="#6440FB"/>
<path d="M42.7917 70.4037C42.7917 70.5964 42.6355 70.7527 42.4427 70.7527C42.25 70.7527 42.0938 70.5964 42.0938 70.4037C42.0938 70.2109 42.25 70.0547 42.4427 70.0547C42.6355 70.0547 42.7917 70.2109 42.7917 70.4037Z" fill="#7900FF" stroke="#6440FB"/>
<path d="M167.589 70.4037C167.589 70.5964 167.432 70.7527 167.24 70.7527C167.047 70.7527 166.891 70.5964 166.891 70.4037C166.891 70.2109 167.047 70.0547 167.24 70.0547C167.432 70.0547 167.589 70.2109 167.589 70.4037Z" fill="#7900FF" stroke="#6440FB"/>
<path d="M53.0222 70.4037C53.0222 70.5964 52.8659 70.7527 52.6732 70.7527C52.4805 70.7527 52.3242 70.5964 52.3242 70.4037C52.3242 70.2109 52.4805 70.0547 52.6732 70.0547C52.8659 70.0547 53.0222 70.2109 53.0222 70.4037Z" fill="#7900FF" stroke="#6440FB"/>
<path d="M177.811 70.4037C177.811 70.5964 177.655 70.7527 177.462 70.7527C177.27 70.7527 177.113 70.5964 177.113 70.4037C177.113 70.2109 177.27 70.0547 177.462 70.0547C177.655 70.0547 177.811 70.2109 177.811 70.4037Z" fill="#7900FF" stroke="#6440FB"/>
<path d="M63.2527 70.4037C63.2527 70.5964 63.0964 70.7527 62.9037 70.7527C62.7109 70.7527 62.5547 70.5964 62.5547 70.4037C62.5547 70.2109 62.7109 70.0547 62.9037 70.0547C63.0964 70.0547 63.2527 70.2109 63.2527 70.4037Z" fill="#7900FF" stroke="#6440FB"/>
<path d="M188.042 70.4037C188.042 70.5964 187.885 70.7527 187.693 70.7527C187.5 70.7527 187.344 70.5964 187.344 70.4037C187.344 70.2109 187.5 70.0547 187.693 70.0547C187.885 70.0547 188.042 70.2109 188.042 70.4037Z" fill="#7900FF" stroke="#6440FB"/>
<path d="M74.1628 70.4037C74.1628 70.5964 74.0066 70.7527 73.8138 70.7527C73.6211 70.7527 73.4648 70.5964 73.4648 70.4037C73.4648 70.2109 73.6211 70.0547 73.8138 70.0547C74.0066 70.0547 74.1628 70.2109 74.1628 70.4037Z" fill="#7900FF" stroke="#6440FB"/>
<path d="M84.3933 81.9818C84.3933 82.1745 84.237 82.3308 84.0443 82.3308C83.8516 82.3308 83.6953 82.1745 83.6953 81.9818C83.6953 81.7891 83.8516 81.6328 84.0443 81.6328C84.237 81.6328 84.3933 81.7891 84.3933 81.9818Z" fill="#7900FF" stroke="#6440FB"/>
<path d="M94.6237 81.9818C94.6237 82.1745 94.4675 82.3308 94.2748 82.3308C94.082 82.3308 93.9258 82.1745 93.9258 81.9818C93.9258 81.7891 94.082 81.6328 94.2748 81.6328C94.4675 81.6328 94.6237 81.7891 94.6237 81.9818Z" fill="#7900FF" stroke="#6440FB"/>
<path d="M104.846 81.9818C104.846 82.1745 104.69 82.3308 104.497 82.3308C104.305 82.3308 104.148 82.1745 104.148 81.9818C104.148 81.7891 104.305 81.6328 104.497 81.6328C104.69 81.6328 104.846 81.7891 104.846 81.9818Z" fill="#7900FF" stroke="#6440FB"/>
<path d="M115.077 81.9818C115.077 82.1745 114.921 82.3308 114.728 82.3308C114.535 82.3308 114.379 82.1745 114.379 81.9818C114.379 81.7891 114.535 81.6328 114.728 81.6328C114.921 81.6328 115.077 81.7891 115.077 81.9818Z" fill="#7900FF" stroke="#6440FB"/>
<path d="M1.19796 81.9818C1.19796 82.1745 1.04172 82.3308 0.848981 82.3308C0.656244 82.3308 0.5 82.1745 0.5 81.9818C0.5 81.7891 0.656244 81.6328 0.848981 81.6328C1.04172 81.6328 1.19796 81.7891 1.19796 81.9818Z" fill="#7900FF" stroke="#6440FB"/>
<path d="M125.987 81.9818C125.987 82.0508 125.967 82.1183 125.928 82.1757C125.89 82.2331 125.835 82.2778 125.772 82.3042C125.708 82.3306 125.638 82.3375 125.57 82.3241C125.502 82.3106 125.44 82.2774 125.391 82.2286L125.038 82.5821L125.391 82.2286C125.342 82.1798 125.309 82.1176 125.296 82.0499C125.282 81.9822 125.289 81.912 125.316 81.8482C125.342 81.7845 125.387 81.73 125.444 81.6916C125.502 81.6533 125.569 81.6328 125.638 81.6328C125.731 81.6328 125.819 81.6696 125.885 81.735C125.95 81.8005 125.987 81.8892 125.987 81.9818Z" fill="#7900FF" stroke="#6440FB"/>
<path d="M11.4284 81.9818C11.4284 82.0508 11.408 82.1183 11.3696 82.1757C11.3313 82.2331 11.2768 82.2778 11.213 82.3042C11.1492 82.3306 11.079 82.3375 11.0114 82.3241C10.9437 82.3106 10.8815 82.2774 10.8327 82.2286L10.4791 82.5821L10.8327 82.2286C10.7839 82.1798 10.7506 82.1176 10.7372 82.0499C10.7237 81.9822 10.7306 81.912 10.757 81.8482C10.7834 81.7845 10.8282 81.73 10.8856 81.6916C10.943 81.6533 11.0105 81.6328 11.0795 81.6328C11.172 81.6328 11.2608 81.6696 11.3262 81.735C11.3917 81.8005 11.4284 81.8892 11.4284 81.9818Z" fill="#7900FF" stroke="#6440FB"/>
<path d="M136.217 81.9818C136.217 82.1745 136.061 82.3308 135.869 82.3308C135.676 82.3308 135.52 82.1745 135.52 81.9818C135.52 81.7891 135.676 81.6328 135.869 81.6328C136.061 81.6328 136.217 81.7891 136.217 81.9818Z" fill="#7900FF" stroke="#6440FB"/>
<path d="M21.6511 81.9818C21.6511 82.1745 21.4948 82.3308 21.3021 82.3308C21.1094 82.3308 20.9531 82.1745 20.9531 81.9818C20.9531 81.7891 21.1094 81.6328 21.3021 81.6328C21.4948 81.6328 21.6511 81.7891 21.6511 81.9818Z" fill="#7900FF" stroke="#6440FB"/>
<path d="M146.448 81.9818C146.448 82.1745 146.292 82.3308 146.099 82.3308C145.906 82.3308 145.75 82.1745 145.75 81.9818C145.75 81.7891 145.906 81.6328 146.099 81.6328C146.292 81.6328 146.448 81.7891 146.448 81.9818Z" fill="#7900FF" stroke="#6440FB"/>
<path d="M32.5691 81.9818C32.5691 82.1745 32.4128 82.3308 32.2201 82.3308C32.0273 82.3308 31.8711 82.1745 31.8711 81.9818C31.8711 81.7891 32.0273 81.6328 32.2201 81.6328C32.4128 81.6328 32.5691 81.7891 32.5691 81.9818Z" fill="#7900FF" stroke="#6440FB"/>
<path d="M156.671 81.9818C156.671 82.1745 156.514 82.3308 156.322 82.3308C156.129 82.3308 155.973 82.1745 155.973 81.9818C155.973 81.7891 156.129 81.6328 156.322 81.6328C156.514 81.6328 156.671 81.7891 156.671 81.9818Z" fill="#7900FF" stroke="#6440FB"/>
<path d="M42.7917 81.9818C42.7917 82.1745 42.6355 82.3308 42.4427 82.3308C42.25 82.3308 42.0938 82.1745 42.0938 81.9818C42.0938 81.7891 42.25 81.6328 42.4427 81.6328C42.6355 81.6328 42.7917 81.7891 42.7917 81.9818Z" fill="#7900FF" stroke="#6440FB"/>
<path d="M167.589 81.9818C167.589 82.1745 167.432 82.3308 167.24 82.3308C167.047 82.3308 166.891 82.1745 166.891 81.9818C166.891 81.7891 167.047 81.6328 167.24 81.6328C167.432 81.6328 167.589 81.7891 167.589 81.9818Z" fill="#7900FF" stroke="#6440FB"/>
<path d="M53.0222 81.9818C53.0222 82.1745 52.8659 82.3308 52.6732 82.3308C52.4805 82.3308 52.3242 82.1745 52.3242 81.9818C52.3242 81.7891 52.4805 81.6328 52.6732 81.6328C52.8659 81.6328 53.0222 81.7891 53.0222 81.9818Z" fill="#7900FF" stroke="#6440FB"/>
<path d="M177.811 81.9818C177.811 82.1745 177.655 82.3308 177.462 82.3308C177.27 82.3308 177.113 82.1745 177.113 81.9818C177.113 81.7891 177.27 81.6328 177.462 81.6328C177.655 81.6328 177.811 81.7891 177.811 81.9818Z" fill="#7900FF" stroke="#6440FB"/>
<path d="M63.2527 81.9818C63.2527 82.1745 63.0964 82.3308 62.9037 82.3308C62.7109 82.3308 62.5547 82.1745 62.5547 81.9818C62.5547 81.7891 62.7109 81.6328 62.9037 81.6328C63.0964 81.6328 63.2527 81.7891 63.2527 81.9818Z" fill="#7900FF" stroke="#6440FB"/>
<path d="M188.042 81.9818C188.042 82.1745 187.885 82.3308 187.693 82.3308C187.5 82.3308 187.344 82.1745 187.344 81.9818C187.344 81.7891 187.5 81.6328 187.693 81.6328C187.885 81.6328 188.042 81.7891 188.042 81.9818Z" fill="#7900FF" stroke="#6440FB"/>
<path d="M74.1628 81.9818C74.1628 82.1745 74.0066 82.3308 73.8138 82.3308C73.6211 82.3308 73.4648 82.1745 73.4648 81.9818C73.4648 81.7891 73.6211 81.6328 73.8138 81.6328C74.0066 81.6328 74.1628 81.7891 74.1628 81.9818Z" fill="#7900FF" stroke="#6440FB"/>
<path d="M84.3933 93.5834C84.3933 93.7761 84.237 93.9323 84.0443 93.9323C83.8516 93.9323 83.6953 93.7761 83.6953 93.5834C83.6953 93.3906 83.8516 93.2344 84.0443 93.2344C84.237 93.2344 84.3933 93.3906 84.3933 93.5834Z" fill="#7900FF" stroke="#6440FB"/>
<path d="M94.6237 93.5834C94.6237 93.7761 94.4675 93.9323 94.2748 93.9323C94.082 93.9323 93.9258 93.7761 93.9258 93.5834C93.9258 93.3906 94.082 93.2344 94.2748 93.2344C94.4675 93.2344 94.6237 93.3906 94.6237 93.5834Z" fill="#7900FF" stroke="#6440FB"/>
<path d="M104.846 93.5834C104.846 93.7761 104.69 93.9323 104.497 93.9323C104.305 93.9323 104.148 93.7761 104.148 93.5834C104.148 93.3906 104.305 93.2344 104.497 93.2344C104.69 93.2344 104.846 93.3906 104.846 93.5834Z" fill="#7900FF" stroke="#6440FB"/>
<path d="M115.077 93.5834C115.077 93.7761 114.921 93.9323 114.728 93.9323C114.535 93.9323 114.379 93.7761 114.379 93.5834C114.379 93.3906 114.535 93.2344 114.728 93.2344C114.921 93.2344 115.077 93.3906 115.077 93.5834Z" fill="#7900FF" stroke="#6440FB"/>
<path d="M1.19796 93.5834C1.19796 93.7761 1.04172 93.9323 0.848981 93.9323C0.656244 93.9323 0.5 93.7761 0.5 93.5834C0.5 93.3906 0.656244 93.2344 0.848981 93.2344C1.04172 93.2344 1.19796 93.3906 1.19796 93.5834Z" fill="#7900FF" stroke="#6440FB"/>
<path d="M125.987 93.5834C125.987 93.6524 125.967 93.7198 125.928 93.7772C125.89 93.8346 125.835 93.8794 125.772 93.9058C125.708 93.9322 125.638 93.9391 125.57 93.9256C125.502 93.9122 125.44 93.8789 125.391 93.8301L125.038 94.1837L125.391 93.8301C125.342 93.7813 125.309 93.7191 125.296 93.6514C125.282 93.5837 125.289 93.5136 125.316 93.4498C125.342 93.3861 125.387 93.3316 125.444 93.2932C125.502 93.2548 125.569 93.2344 125.638 93.2344C125.731 93.2344 125.819 93.2711 125.885 93.3366C125.95 93.402 125.987 93.4908 125.987 93.5834Z" fill="#7900FF" stroke="#6440FB"/>
<path d="M11.4284 93.5834C11.4284 93.6524 11.408 93.7198 11.3696 93.7772C11.3313 93.8346 11.2768 93.8794 11.213 93.9058C11.1492 93.9322 11.079 93.9391 11.0114 93.9256C10.9437 93.9122 10.8815 93.8789 10.8327 93.8301L10.4791 94.1837L10.8327 93.8301C10.7839 93.7813 10.7506 93.7191 10.7372 93.6514C10.7237 93.5837 10.7306 93.5136 10.757 93.4498C10.7834 93.3861 10.8282 93.3316 10.8856 93.2932C10.943 93.2548 11.0105 93.2344 11.0795 93.2344C11.172 93.2344 11.2608 93.2711 11.3262 93.3366C11.3917 93.402 11.4284 93.4908 11.4284 93.5834Z" fill="#7900FF" stroke="#6440FB"/>
<path d="M136.217 93.5834C136.217 93.7761 136.061 93.9323 135.869 93.9323C135.676 93.9323 135.52 93.7761 135.52 93.5834C135.52 93.3906 135.676 93.2344 135.869 93.2344C136.061 93.2344 136.217 93.3906 136.217 93.5834Z" fill="#7900FF" stroke="#6440FB"/>
<path d="M21.6511 93.5834C21.6511 93.7761 21.4948 93.9323 21.3021 93.9323C21.1094 93.9323 20.9531 93.7761 20.9531 93.5834C20.9531 93.3906 21.1094 93.2344 21.3021 93.2344C21.4948 93.2344 21.6511 93.3906 21.6511 93.5834Z" fill="#7900FF" stroke="#6440FB"/>
<path d="M146.448 93.5834C146.448 93.7761 146.292 93.9323 146.099 93.9323C145.906 93.9323 145.75 93.7761 145.75 93.5834C145.75 93.3906 145.906 93.2344 146.099 93.2344C146.292 93.2344 146.448 93.3906 146.448 93.5834Z" fill="#7900FF" stroke="#6440FB"/>
<path d="M32.5691 93.5834C32.5691 93.7761 32.4128 93.9323 32.2201 93.9323C32.0273 93.9323 31.8711 93.7761 31.8711 93.5834C31.8711 93.3906 32.0273 93.2344 32.2201 93.2344C32.4128 93.2344 32.5691 93.3906 32.5691 93.5834Z" fill="#7900FF" stroke="#6440FB"/>
<path d="M156.671 93.5834C156.671 93.7761 156.514 93.9323 156.322 93.9323C156.129 93.9323 155.973 93.7761 155.973 93.5834C155.973 93.3906 156.129 93.2344 156.322 93.2344C156.514 93.2344 156.671 93.3906 156.671 93.5834Z" fill="#7900FF" stroke="#6440FB"/>
<path d="M42.7917 93.5834C42.7917 93.7761 42.6355 93.9323 42.4427 93.9323C42.25 93.9323 42.0938 93.7761 42.0938 93.5834C42.0938 93.3906 42.25 93.2344 42.4427 93.2344C42.6355 93.2344 42.7917 93.3906 42.7917 93.5834Z" fill="#7900FF" stroke="#6440FB"/>
<path d="M167.589 93.5834C167.589 93.7761 167.432 93.9323 167.24 93.9323C167.047 93.9323 166.891 93.7761 166.891 93.5834C166.891 93.3906 167.047 93.2344 167.24 93.2344C167.432 93.2344 167.589 93.3906 167.589 93.5834Z" fill="#7900FF" stroke="#6440FB"/>
<path d="M53.0222 93.5834C53.0222 93.7761 52.8659 93.9323 52.6732 93.9323C52.4805 93.9323 52.3242 93.7761 52.3242 93.5834C52.3242 93.3906 52.4805 93.2344 52.6732 93.2344C52.8659 93.2344 53.0222 93.3906 53.0222 93.5834Z" fill="#7900FF" stroke="#6440FB"/>
<path d="M177.811 93.5834C177.811 93.7761 177.655 93.9323 177.462 93.9323C177.27 93.9323 177.113 93.7761 177.113 93.5834C177.113 93.3906 177.27 93.2344 177.462 93.2344C177.655 93.2344 177.811 93.3906 177.811 93.5834Z" fill="#7900FF" stroke="#6440FB"/>
<path d="M63.2527 93.5834C63.2527 93.7761 63.0964 93.9323 62.9037 93.9323C62.7109 93.9323 62.5547 93.7761 62.5547 93.5834C62.5547 93.3906 62.7109 93.2344 62.9037 93.2344C63.0964 93.2344 63.2527 93.3906 63.2527 93.5834Z" fill="#7900FF" stroke="#6440FB"/>
<path d="M188.042 93.5834C188.042 93.7761 187.885 93.9323 187.693 93.9323C187.5 93.9323 187.344 93.7761 187.344 93.5834C187.344 93.3906 187.5 93.2344 187.693 93.2344C187.885 93.2344 188.042 93.3906 188.042 93.5834Z" fill="#7900FF" stroke="#6440FB"/>
<path d="M74.1628 93.5834C74.1628 93.7761 74.0066 93.9323 73.8138 93.9323C73.6211 93.9323 73.4648 93.7761 73.4648 93.5834C73.4648 93.3906 73.6211 93.2344 73.8138 93.2344C74.0066 93.2344 74.1628 93.3906 74.1628 93.5834Z" fill="#7900FF" stroke="#6440FB"/>
<path d="M84.3933 105.185C84.3933 105.378 84.237 105.534 84.0443 105.534C83.8516 105.534 83.6953 105.378 83.6953 105.185C83.6953 104.992 83.8516 104.836 84.0443 104.836C84.237 104.836 84.3933 104.992 84.3933 105.185Z" fill="#7900FF" stroke="#6440FB"/>
<path d="M94.6237 105.185C94.6237 105.378 94.4675 105.534 94.2748 105.534C94.082 105.534 93.9258 105.378 93.9258 105.185C93.9258 104.992 94.082 104.836 94.2748 104.836C94.4675 104.836 94.6237 104.992 94.6237 105.185Z" fill="#7900FF" stroke="#6440FB"/>
<path d="M104.846 105.185C104.846 105.378 104.69 105.534 104.497 105.534C104.305 105.534 104.148 105.378 104.148 105.185C104.148 104.992 104.305 104.836 104.497 104.836C104.69 104.836 104.846 104.992 104.846 105.185Z" fill="#7900FF" stroke="#6440FB"/>
<path d="M115.077 105.185C115.077 105.378 114.921 105.534 114.728 105.534C114.535 105.534 114.379 105.378 114.379 105.185C114.379 104.992 114.535 104.836 114.728 104.836C114.921 104.836 115.077 104.992 115.077 105.185Z" fill="#7900FF" stroke="#6440FB"/>
<path d="M1.19796 105.185C1.19796 105.378 1.04172 105.534 0.848981 105.534C0.656244 105.534 0.5 105.378 0.5 105.185C0.5 104.992 0.656244 104.836 0.848981 104.836C1.04172 104.836 1.19796 104.992 1.19796 105.185Z" fill="#7900FF" stroke="#6440FB"/>
<path d="M125.987 105.185C125.987 105.254 125.967 105.321 125.928 105.379C125.89 105.436 125.835 105.481 125.772 105.507C125.708 105.534 125.638 105.541 125.57 105.527C125.502 105.514 125.44 105.481 125.391 105.432L125.038 105.785L125.391 105.432C125.342 105.383 125.309 105.321 125.296 105.253C125.282 105.185 125.289 105.115 125.316 105.051C125.342 104.988 125.387 104.933 125.444 104.895C125.502 104.856 125.569 104.836 125.638 104.836C125.731 104.836 125.819 104.873 125.885 104.938C125.95 105.004 125.987 105.092 125.987 105.185Z" fill="#7900FF" stroke="#6440FB"/>
<path d="M11.4284 105.185C11.4284 105.254 11.408 105.321 11.3696 105.379C11.3313 105.436 11.2768 105.481 11.213 105.507C11.1492 105.534 11.079 105.541 11.0114 105.527C10.9437 105.514 10.8815 105.481 10.8327 105.432L10.4791 105.785L10.8327 105.432C10.7839 105.383 10.7506 105.321 10.7372 105.253C10.7237 105.185 10.7306 105.115 10.757 105.051C10.7834 104.988 10.8282 104.933 10.8856 104.895C10.943 104.856 11.0105 104.836 11.0795 104.836C11.172 104.836 11.2608 104.873 11.3262 104.938C11.3917 105.004 11.4284 105.092 11.4284 105.185Z" fill="#7900FF" stroke="#6440FB"/>
<path d="M136.217 105.185C136.217 105.378 136.061 105.534 135.869 105.534C135.676 105.534 135.52 105.378 135.52 105.185C135.52 104.992 135.676 104.836 135.869 104.836C136.061 104.836 136.217 104.992 136.217 105.185Z" fill="#7900FF" stroke="#6440FB"/>
<path d="M21.6511 105.185C21.6511 105.378 21.4948 105.534 21.3021 105.534C21.1094 105.534 20.9531 105.378 20.9531 105.185C20.9531 104.992 21.1094 104.836 21.3021 104.836C21.4948 104.836 21.6511 104.992 21.6511 105.185Z" fill="#7900FF" stroke="#6440FB"/>
<path d="M146.448 105.185C146.448 105.378 146.292 105.534 146.099 105.534C145.906 105.534 145.75 105.378 145.75 105.185C145.75 104.992 145.906 104.836 146.099 104.836C146.292 104.836 146.448 104.992 146.448 105.185Z" fill="#7900FF" stroke="#6440FB"/>
<path d="M32.5691 105.185C32.5691 105.378 32.4128 105.534 32.2201 105.534C32.0273 105.534 31.8711 105.378 31.8711 105.185C31.8711 104.992 32.0273 104.836 32.2201 104.836C32.4128 104.836 32.5691 104.992 32.5691 105.185Z" fill="#7900FF" stroke="#6440FB"/>
<path d="M156.671 105.185C156.671 105.378 156.514 105.534 156.322 105.534C156.129 105.534 155.973 105.378 155.973 105.185C155.973 104.992 156.129 104.836 156.322 104.836C156.514 104.836 156.671 104.992 156.671 105.185Z" fill="#7900FF" stroke="#6440FB"/>
<path d="M42.7917 105.185C42.7917 105.378 42.6355 105.534 42.4427 105.534C42.25 105.534 42.0938 105.378 42.0938 105.185C42.0938 104.992 42.25 104.836 42.4427 104.836C42.6355 104.836 42.7917 104.992 42.7917 105.185Z" fill="#7900FF" stroke="#6440FB"/>
<path d="M167.589 105.185C167.589 105.378 167.432 105.534 167.24 105.534C167.047 105.534 166.891 105.378 166.891 105.185C166.891 104.992 167.047 104.836 167.24 104.836C167.432 104.836 167.589 104.992 167.589 105.185Z" fill="#7900FF" stroke="#6440FB"/>
<path d="M53.0222 105.185C53.0222 105.378 52.8659 105.534 52.6732 105.534C52.4805 105.534 52.3242 105.378 52.3242 105.185C52.3242 104.992 52.4805 104.836 52.6732 104.836C52.8659 104.836 53.0222 104.992 53.0222 105.185Z" fill="#7900FF" stroke="#6440FB"/>
<path d="M177.811 105.185C177.811 105.378 177.655 105.534 177.462 105.534C177.27 105.534 177.113 105.378 177.113 105.185C177.113 104.992 177.27 104.836 177.462 104.836C177.655 104.836 177.811 104.992 177.811 105.185Z" fill="#7900FF" stroke="#6440FB"/>
<path d="M63.2527 105.185C63.2527 105.378 63.0964 105.534 62.9037 105.534C62.7109 105.534 62.5547 105.378 62.5547 105.185C62.5547 104.992 62.7109 104.836 62.9037 104.836C63.0964 104.836 63.2527 104.992 63.2527 105.185Z" fill="#7900FF" stroke="#6440FB"/>
<path d="M188.042 105.185C188.042 105.378 187.885 105.534 187.693 105.534C187.5 105.534 187.344 105.378 187.344 105.185C187.344 104.992 187.5 104.836 187.693 104.836C187.885 104.836 188.042 104.992 188.042 105.185Z" fill="#7900FF" stroke="#6440FB"/>
<path d="M74.1628 105.185C74.1628 105.378 74.0066 105.534 73.8138 105.534C73.6211 105.534 73.4648 105.378 73.4648 105.185C73.4648 104.992 73.6211 104.836 73.8138 104.836C74.0066 104.836 74.1628 104.992 74.1628 105.185Z" fill="#7900FF" stroke="#6440FB"/>
<path d="M84.3933 116.771C84.3933 116.964 84.237 117.12 84.0443 117.12C83.8516 117.12 83.6953 116.964 83.6953 116.771C83.6953 116.578 83.8516 116.422 84.0443 116.422C84.237 116.422 84.3933 116.578 84.3933 116.771Z" fill="#7900FF" stroke="#6440FB"/>
<path d="M94.6237 116.771C94.6237 116.964 94.4675 117.12 94.2748 117.12C94.082 117.12 93.9258 116.964 93.9258 116.771C93.9258 116.578 94.082 116.422 94.2748 116.422C94.4675 116.422 94.6237 116.578 94.6237 116.771Z" fill="#7900FF" stroke="#6440FB"/>
<path d="M104.846 116.771C104.846 116.964 104.69 117.12 104.497 117.12C104.305 117.12 104.148 116.964 104.148 116.771C104.148 116.578 104.305 116.422 104.497 116.422C104.69 116.422 104.846 116.578 104.846 116.771Z" fill="#7900FF" stroke="#6440FB"/>
<path d="M115.077 116.771C115.077 116.964 114.921 117.12 114.728 117.12C114.535 117.12 114.379 116.964 114.379 116.771C114.379 116.578 114.535 116.422 114.728 116.422C114.921 116.422 115.077 116.578 115.077 116.771Z" fill="#7900FF" stroke="#6440FB"/>
<path d="M1.19796 116.771C1.19796 116.964 1.04172 117.12 0.848981 117.12C0.656244 117.12 0.5 116.964 0.5 116.771C0.5 116.578 0.656244 116.422 0.848981 116.422C1.04172 116.422 1.19796 116.578 1.19796 116.771Z" fill="#7900FF" stroke="#6440FB"/>
<path d="M125.987 116.771C125.987 116.84 125.967 116.907 125.928 116.965C125.89 117.022 125.835 117.067 125.772 117.093C125.708 117.12 125.638 117.127 125.57 117.113C125.502 117.1 125.44 117.066 125.391 117.018L125.038 117.371L125.391 117.018C125.342 116.969 125.309 116.907 125.296 116.839C125.282 116.771 125.289 116.701 125.316 116.637C125.342 116.574 125.387 116.519 125.444 116.481C125.502 116.442 125.569 116.422 125.638 116.422C125.731 116.422 125.819 116.459 125.885 116.524C125.95 116.59 125.987 116.678 125.987 116.771Z" fill="#7900FF" stroke="#6440FB"/>
<path d="M11.4284 116.771C11.4284 116.84 11.408 116.907 11.3696 116.965C11.3313 117.022 11.2768 117.067 11.213 117.093C11.1492 117.12 11.079 117.127 11.0114 117.113C10.9437 117.1 10.8815 117.066 10.8327 117.018L10.4791 117.371L10.8327 117.018C10.7839 116.969 10.7506 116.907 10.7372 116.839C10.7237 116.771 10.7306 116.701 10.757 116.637C10.7834 116.574 10.8282 116.519 10.8856 116.481C10.943 116.442 11.0105 116.422 11.0795 116.422C11.172 116.422 11.2608 116.459 11.3262 116.524C11.3917 116.59 11.4284 116.678 11.4284 116.771Z" fill="#7900FF" stroke="#6440FB"/>
<path d="M136.217 116.771C136.217 116.964 136.061 117.12 135.869 117.12C135.676 117.12 135.52 116.964 135.52 116.771C135.52 116.578 135.676 116.422 135.869 116.422C136.061 116.422 136.217 116.578 136.217 116.771Z" fill="#7900FF" stroke="#6440FB"/>
<path d="M21.6511 116.771C21.6511 116.964 21.4948 117.12 21.3021 117.12C21.1094 117.12 20.9531 116.964 20.9531 116.771C20.9531 116.578 21.1094 116.422 21.3021 116.422C21.4948 116.422 21.6511 116.578 21.6511 116.771Z" fill="#7900FF" stroke="#6440FB"/>
<path d="M146.448 116.771C146.448 116.964 146.292 117.12 146.099 117.12C145.906 117.12 145.75 116.964 145.75 116.771C145.75 116.578 145.906 116.422 146.099 116.422C146.292 116.422 146.448 116.578 146.448 116.771Z" fill="#7900FF" stroke="#6440FB"/>
<path d="M32.5691 116.771C32.5691 116.964 32.4128 117.12 32.2201 117.12C32.0273 117.12 31.8711 116.964 31.8711 116.771C31.8711 116.578 32.0273 116.422 32.2201 116.422C32.4128 116.422 32.5691 116.578 32.5691 116.771Z" fill="#7900FF" stroke="#6440FB"/>
<path d="M156.671 116.771C156.671 116.964 156.514 117.12 156.322 117.12C156.129 117.12 155.973 116.964 155.973 116.771C155.973 116.578 156.129 116.422 156.322 116.422C156.514 116.422 156.671 116.578 156.671 116.771Z" fill="#7900FF" stroke="#6440FB"/>
<path d="M42.7917 116.771C42.7917 116.964 42.6355 117.12 42.4427 117.12C42.25 117.12 42.0938 116.964 42.0938 116.771C42.0938 116.578 42.25 116.422 42.4427 116.422C42.6355 116.422 42.7917 116.578 42.7917 116.771Z" fill="#7900FF" stroke="#6440FB"/>
<path d="M167.589 116.771C167.589 116.964 167.432 117.12 167.24 117.12C167.047 117.12 166.891 116.964 166.891 116.771C166.891 116.578 167.047 116.422 167.24 116.422C167.432 116.422 167.589 116.578 167.589 116.771Z" fill="#7900FF" stroke="#6440FB"/>
<path d="M53.0222 116.771C53.0222 116.964 52.8659 117.12 52.6732 117.12C52.4805 117.12 52.3242 116.964 52.3242 116.771C52.3242 116.578 52.4805 116.422 52.6732 116.422C52.8659 116.422 53.0222 116.578 53.0222 116.771Z" fill="#7900FF" stroke="#6440FB"/>
<path d="M177.811 116.771C177.811 116.964 177.655 117.12 177.462 117.12C177.27 117.12 177.113 116.964 177.113 116.771C177.113 116.578 177.27 116.422 177.462 116.422C177.655 116.422 177.811 116.578 177.811 116.771Z" fill="#7900FF" stroke="#6440FB"/>
<path d="M63.2527 116.771C63.2527 116.964 63.0964 117.12 62.9037 117.12C62.7109 117.12 62.5547 116.964 62.5547 116.771C62.5547 116.578 62.7109 116.422 62.9037 116.422C63.0964 116.422 63.2527 116.578 63.2527 116.771Z" fill="#7900FF" stroke="#6440FB"/>
<path d="M188.042 116.771C188.042 116.964 187.885 117.12 187.693 117.12C187.5 117.12 187.344 116.964 187.344 116.771C187.344 116.578 187.5 116.422 187.693 116.422C187.885 116.422 188.042 116.578 188.042 116.771Z" fill="#7900FF" stroke="#6440FB"/>
<path d="M74.1628 116.771C74.1628 116.964 74.0066 117.12 73.8138 117.12C73.6211 117.12 73.4648 116.964 73.4648 116.771C73.4648 116.578 73.6211 116.422 73.8138 116.422C74.0066 116.422 74.1628 116.578 74.1628 116.771Z" fill="#7900FF" stroke="#6440FB"/>
<path d="M84.3933 128.365C84.3933 128.557 84.237 128.714 84.0443 128.714C83.8516 128.714 83.6953 128.557 83.6953 128.365C83.6953 128.172 83.8516 128.016 84.0443 128.016C84.237 128.016 84.3933 128.172 84.3933 128.365Z" fill="#7900FF" stroke="#6440FB"/>
<path d="M94.6237 128.365C94.6237 128.557 94.4675 128.714 94.2748 128.714C94.082 128.714 93.9258 128.557 93.9258 128.365C93.9258 128.172 94.082 128.016 94.2748 128.016C94.4675 128.016 94.6237 128.172 94.6237 128.365Z" fill="#7900FF" stroke="#6440FB"/>
<path d="M104.846 128.365C104.846 128.557 104.69 128.714 104.497 128.714C104.305 128.714 104.148 128.557 104.148 128.365C104.148 128.172 104.305 128.016 104.497 128.016C104.69 128.016 104.846 128.172 104.846 128.365Z" fill="#7900FF" stroke="#6440FB"/>
<path d="M115.077 128.365C115.077 128.557 114.921 128.714 114.728 128.714C114.535 128.714 114.379 128.557 114.379 128.365C114.379 128.172 114.535 128.016 114.728 128.016C114.921 128.016 115.077 128.172 115.077 128.365Z" fill="#7900FF" stroke="#6440FB"/>
<path d="M1.19796 128.365C1.19796 128.557 1.04172 128.714 0.848981 128.714C0.656244 128.714 0.5 128.557 0.5 128.365C0.5 128.172 0.656244 128.016 0.848981 128.016C1.04172 128.016 1.19796 128.172 1.19796 128.365Z" fill="#7900FF" stroke="#6440FB"/>
<path d="M125.987 128.365C125.987 128.434 125.967 128.501 125.928 128.558C125.89 128.616 125.835 128.661 125.772 128.687C125.708 128.713 125.638 128.72 125.57 128.707C125.502 128.693 125.44 128.66 125.391 128.611L125.038 128.965L125.391 128.611C125.342 128.563 125.309 128.5 125.296 128.433C125.282 128.365 125.289 128.295 125.316 128.231C125.342 128.167 125.387 128.113 125.444 128.074C125.502 128.036 125.569 128.016 125.638 128.016C125.731 128.016 125.819 128.052 125.885 128.118C125.95 128.183 125.987 128.272 125.987 128.365Z" fill="#7900FF" stroke="#6440FB"/>
<path d="M11.4284 128.365C11.4284 128.434 11.408 128.501 11.3696 128.558C11.3313 128.616 11.2768 128.661 11.213 128.687C11.1492 128.713 11.079 128.72 11.0114 128.707C10.9437 128.693 10.8815 128.66 10.8327 128.611L10.4791 128.965L10.8327 128.611C10.7839 128.563 10.7506 128.5 10.7372 128.433C10.7237 128.365 10.7306 128.295 10.757 128.231C10.7834 128.167 10.8282 128.113 10.8856 128.074C10.943 128.036 11.0105 128.016 11.0795 128.016C11.172 128.016 11.2608 128.052 11.3262 128.118C11.3917 128.183 11.4284 128.272 11.4284 128.365Z" fill="#7900FF" stroke="#6440FB"/>
<path d="M136.217 128.365C136.217 128.557 136.061 128.714 135.869 128.714C135.676 128.714 135.52 128.557 135.52 128.365C135.52 128.172 135.676 128.016 135.869 128.016C136.061 128.016 136.217 128.172 136.217 128.365Z" fill="#7900FF" stroke="#6440FB"/>
<path d="M21.6511 128.365C21.6511 128.557 21.4948 128.714 21.3021 128.714C21.1094 128.714 20.9531 128.557 20.9531 128.365C20.9531 128.172 21.1094 128.016 21.3021 128.016C21.4948 128.016 21.6511 128.172 21.6511 128.365Z" fill="#7900FF" stroke="#6440FB"/>
<path d="M146.448 128.365C146.448 128.557 146.292 128.714 146.099 128.714C145.906 128.714 145.75 128.557 145.75 128.365C145.75 128.172 145.906 128.016 146.099 128.016C146.292 128.016 146.448 128.172 146.448 128.365Z" fill="#7900FF" stroke="#6440FB"/>
<path d="M32.5691 128.365C32.5691 128.557 32.4128 128.714 32.2201 128.714C32.0273 128.714 31.8711 128.557 31.8711 128.365C31.8711 128.172 32.0273 128.016 32.2201 128.016C32.4128 128.016 32.5691 128.172 32.5691 128.365Z" fill="#7900FF" stroke="#6440FB"/>
<path d="M156.671 128.365C156.671 128.557 156.514 128.714 156.322 128.714C156.129 128.714 155.973 128.557 155.973 128.365C155.973 128.172 156.129 128.016 156.322 128.016C156.514 128.016 156.671 128.172 156.671 128.365Z" fill="#7900FF" stroke="#6440FB"/>
<path d="M42.7917 128.365C42.7917 128.557 42.6355 128.714 42.4427 128.714C42.25 128.714 42.0938 128.557 42.0938 128.365C42.0938 128.172 42.25 128.016 42.4427 128.016C42.6355 128.016 42.7917 128.172 42.7917 128.365Z" fill="#7900FF" stroke="#6440FB"/>
<path d="M167.589 128.365C167.589 128.557 167.432 128.714 167.24 128.714C167.047 128.714 166.891 128.557 166.891 128.365C166.891 128.172 167.047 128.016 167.24 128.016C167.432 128.016 167.589 128.172 167.589 128.365Z" fill="#7900FF" stroke="#6440FB"/>
<path d="M53.0222 128.365C53.0222 128.557 52.8659 128.714 52.6732 128.714C52.4805 128.714 52.3242 128.557 52.3242 128.365C52.3242 128.172 52.4805 128.016 52.6732 128.016C52.8659 128.016 53.0222 128.172 53.0222 128.365Z" fill="#7900FF" stroke="#6440FB"/>
<path d="M177.811 128.365C177.811 128.557 177.655 128.714 177.462 128.714C177.27 128.714 177.113 128.557 177.113 128.365C177.113 128.172 177.27 128.016 177.462 128.016C177.655 128.016 177.811 128.172 177.811 128.365Z" fill="#7900FF" stroke="#6440FB"/>
<path d="M63.2527 128.365C63.2527 128.557 63.0964 128.714 62.9037 128.714C62.7109 128.714 62.5547 128.557 62.5547 128.365C62.5547 128.172 62.7109 128.016 62.9037 128.016C63.0964 128.016 63.2527 128.172 63.2527 128.365Z" fill="#7900FF" stroke="#6440FB"/>
<path d="M188.042 128.365C188.042 128.557 187.885 128.714 187.693 128.714C187.5 128.714 187.344 128.557 187.344 128.365C187.344 128.172 187.5 128.016 187.693 128.016C187.885 128.016 188.042 128.172 188.042 128.365Z" fill="#7900FF" stroke="#6440FB"/>
<path d="M74.1628 128.365C74.1628 128.557 74.0066 128.714 73.8138 128.714C73.6211 128.714 73.4648 128.557 73.4648 128.365C73.4648 128.172 73.6211 128.016 73.8138 128.016C74.0066 128.016 74.1628 128.172 74.1628 128.365Z" fill="#7900FF" stroke="#6440FB"/>
<path d="M84.3933 139.966C84.3933 140.159 84.237 140.315 84.0443 140.315C83.8516 140.315 83.6953 140.159 83.6953 139.966C83.6953 139.773 83.8516 139.617 84.0443 139.617C84.237 139.617 84.3933 139.773 84.3933 139.966Z" fill="#7900FF" stroke="#6440FB"/>
<path d="M94.6237 139.966C94.6237 140.159 94.4675 140.315 94.2748 140.315C94.082 140.315 93.9258 140.159 93.9258 139.966C93.9258 139.773 94.082 139.617 94.2748 139.617C94.4675 139.617 94.6237 139.773 94.6237 139.966Z" fill="#7900FF" stroke="#6440FB"/>
<path d="M104.846 139.966C104.846 140.159 104.69 140.315 104.497 140.315C104.305 140.315 104.148 140.159 104.148 139.966C104.148 139.773 104.305 139.617 104.497 139.617C104.69 139.617 104.846 139.773 104.846 139.966Z" fill="#7900FF" stroke="#6440FB"/>
<path d="M115.077 139.966C115.077 140.159 114.921 140.315 114.728 140.315C114.535 140.315 114.379 140.159 114.379 139.966C114.379 139.773 114.535 139.617 114.728 139.617C114.921 139.617 115.077 139.773 115.077 139.966Z" fill="#7900FF" stroke="#6440FB"/>
<path d="M1.19796 139.966C1.19796 140.159 1.04172 140.315 0.848981 140.315C0.656244 140.315 0.5 140.159 0.5 139.966C0.5 139.773 0.656244 139.617 0.848981 139.617C1.04172 139.617 1.19796 139.773 1.19796 139.966Z" fill="#7900FF" stroke="#6440FB"/>
<path d="M125.987 139.966C125.987 140.035 125.967 140.103 125.928 140.16C125.89 140.217 125.835 140.262 125.772 140.289C125.708 140.315 125.638 140.322 125.57 140.308C125.502 140.295 125.44 140.262 125.391 140.213L125.038 140.567L125.391 140.213C125.342 140.164 125.309 140.102 125.296 140.034C125.282 139.967 125.289 139.896 125.316 139.833C125.342 139.769 125.387 139.714 125.444 139.676C125.502 139.638 125.569 139.617 125.638 139.617C125.731 139.617 125.819 139.654 125.885 139.719C125.95 139.785 125.987 139.874 125.987 139.966Z" fill="#7900FF" stroke="#6440FB"/>
<path d="M11.4284 139.966C11.4284 140.035 11.408 140.103 11.3696 140.16C11.3313 140.217 11.2768 140.262 11.213 140.289C11.1492 140.315 11.079 140.322 11.0114 140.308C10.9437 140.295 10.8815 140.262 10.8327 140.213L10.4791 140.567L10.8327 140.213C10.7839 140.164 10.7506 140.102 10.7372 140.034C10.7237 139.967 10.7306 139.896 10.757 139.833C10.7834 139.769 10.8282 139.714 10.8856 139.676C10.943 139.638 11.0105 139.617 11.0795 139.617C11.172 139.617 11.2608 139.654 11.3262 139.719C11.3917 139.785 11.4284 139.874 11.4284 139.966Z" fill="#7900FF" stroke="#6440FB"/>
<path d="M136.217 139.966C136.217 140.159 136.061 140.315 135.869 140.315C135.676 140.315 135.52 140.159 135.52 139.966C135.52 139.773 135.676 139.617 135.869 139.617C136.061 139.617 136.217 139.773 136.217 139.966Z" fill="#7900FF" stroke="#6440FB"/>
<path d="M21.6511 139.966C21.6511 140.159 21.4948 140.315 21.3021 140.315C21.1094 140.315 20.9531 140.159 20.9531 139.966C20.9531 139.773 21.1094 139.617 21.3021 139.617C21.4948 139.617 21.6511 139.773 21.6511 139.966Z" fill="#7900FF" stroke="#6440FB"/>
<path d="M146.448 139.966C146.448 140.159 146.292 140.315 146.099 140.315C145.906 140.315 145.75 140.159 145.75 139.966C145.75 139.773 145.906 139.617 146.099 139.617C146.292 139.617 146.448 139.773 146.448 139.966Z" fill="#7900FF" stroke="#6440FB"/>
<path d="M32.5691 139.966C32.5691 140.159 32.4128 140.315 32.2201 140.315C32.0273 140.315 31.8711 140.159 31.8711 139.966C31.8711 139.773 32.0273 139.617 32.2201 139.617C32.4128 139.617 32.5691 139.773 32.5691 139.966Z" fill="#7900FF" stroke="#6440FB"/>
<path d="M156.671 139.966C156.671 140.159 156.514 140.315 156.322 140.315C156.129 140.315 155.973 140.159 155.973 139.966C155.973 139.773 156.129 139.617 156.322 139.617C156.514 139.617 156.671 139.773 156.671 139.966Z" fill="#7900FF" stroke="#6440FB"/>
<path d="M42.7917 139.966C42.7917 140.159 42.6355 140.315 42.4427 140.315C42.25 140.315 42.0938 140.159 42.0938 139.966C42.0938 139.773 42.25 139.617 42.4427 139.617C42.6355 139.617 42.7917 139.773 42.7917 139.966Z" fill="#7900FF" stroke="#6440FB"/>
<path d="M167.589 139.966C167.589 140.159 167.432 140.315 167.24 140.315C167.047 140.315 166.891 140.159 166.891 139.966C166.891 139.773 167.047 139.617 167.24 139.617C167.432 139.617 167.589 139.773 167.589 139.966Z" fill="#7900FF" stroke="#6440FB"/>
<path d="M53.0222 139.966C53.0222 140.159 52.8659 140.315 52.6732 140.315C52.4805 140.315 52.3242 140.159 52.3242 139.966C52.3242 139.773 52.4805 139.617 52.6732 139.617C52.8659 139.617 53.0222 139.773 53.0222 139.966Z" fill="#7900FF" stroke="#6440FB"/>
<path d="M177.811 139.966C177.811 140.159 177.655 140.315 177.462 140.315C177.27 140.315 177.113 140.159 177.113 139.966C177.113 139.773 177.27 139.617 177.462 139.617C177.655 139.617 177.811 139.773 177.811 139.966Z" fill="#7900FF" stroke="#6440FB"/>
<path d="M63.2527 139.966C63.2527 140.159 63.0964 140.315 62.9037 140.315C62.7109 140.315 62.5547 140.159 62.5547 139.966C62.5547 139.773 62.7109 139.617 62.9037 139.617C63.0964 139.617 63.2527 139.773 63.2527 139.966Z" fill="#7900FF" stroke="#6440FB"/>
<path d="M188.042 139.966C188.042 140.159 187.885 140.315 187.693 140.315C187.5 140.315 187.344 140.159 187.344 139.966C187.344 139.773 187.5 139.617 187.693 139.617C187.885 139.617 188.042 139.773 188.042 139.966Z" fill="#7900FF" stroke="#6440FB"/>
<path d="M74.1628 139.966C74.1628 140.159 74.0066 140.315 73.8138 140.315C73.6211 140.315 73.4648 140.159 73.4648 139.966C73.4648 139.773 73.6211 139.617 73.8138 139.617C74.0066 139.617 74.1628 139.773 74.1628 139.966Z" fill="#7900FF" stroke="#6440FB"/>
<path d="M84.3933 151.544C84.3933 151.737 84.237 151.893 84.0443 151.893C83.8516 151.893 83.6953 151.737 83.6953 151.544C83.6953 151.352 83.8516 151.195 84.0443 151.195C84.237 151.195 84.3933 151.352 84.3933 151.544Z" fill="#7900FF" stroke="#6440FB"/>
<path d="M94.6237 151.544C94.6237 151.737 94.4675 151.893 94.2748 151.893C94.082 151.893 93.9258 151.737 93.9258 151.544C93.9258 151.352 94.082 151.195 94.2748 151.195C94.4675 151.195 94.6237 151.352 94.6237 151.544Z" fill="#7900FF" stroke="#6440FB"/>
<path d="M104.846 151.544C104.846 151.737 104.69 151.893 104.497 151.893C104.305 151.893 104.148 151.737 104.148 151.544C104.148 151.352 104.305 151.195 104.497 151.195C104.69 151.195 104.846 151.352 104.846 151.544Z" fill="#7900FF" stroke="#6440FB"/>
<path d="M115.077 151.544C115.077 151.737 114.921 151.893 114.728 151.893C114.535 151.893 114.379 151.737 114.379 151.544C114.379 151.352 114.535 151.195 114.728 151.195C114.921 151.195 115.077 151.352 115.077 151.544Z" fill="#7900FF" stroke="#6440FB"/>
<path d="M1.19796 151.544C1.19796 151.737 1.04172 151.893 0.848981 151.893C0.656244 151.893 0.5 151.737 0.5 151.544C0.5 151.352 0.656244 151.195 0.848981 151.195C1.04172 151.195 1.19796 151.352 1.19796 151.544Z" fill="#7900FF" stroke="#6440FB"/>
<path d="M125.987 151.544C125.987 151.613 125.967 151.681 125.928 151.738C125.89 151.796 125.835 151.84 125.772 151.867C125.708 151.893 125.638 151.9 125.57 151.887C125.502 151.873 125.44 151.84 125.391 151.791L125.038 152.145L125.391 151.791C125.342 151.742 125.309 151.68 125.296 151.612C125.282 151.545 125.289 151.475 125.316 151.411C125.342 151.347 125.387 151.293 125.444 151.254C125.502 151.216 125.569 151.195 125.638 151.195C125.731 151.195 125.819 151.232 125.885 151.298C125.95 151.363 125.987 151.452 125.987 151.544Z" fill="#7900FF" stroke="#6440FB"/>
<path d="M11.4284 151.544C11.4284 151.613 11.408 151.681 11.3696 151.738C11.3313 151.796 11.2768 151.84 11.213 151.867C11.1492 151.893 11.079 151.9 11.0114 151.887C10.9437 151.873 10.8815 151.84 10.8327 151.791L10.4791 152.145L10.8327 151.791C10.7839 151.742 10.7506 151.68 10.7372 151.612C10.7237 151.545 10.7306 151.475 10.757 151.411C10.7834 151.347 10.8282 151.293 10.8856 151.254C10.943 151.216 11.0105 151.195 11.0795 151.195C11.172 151.195 11.2608 151.232 11.3262 151.298C11.3917 151.363 11.4284 151.452 11.4284 151.544Z" fill="#7900FF" stroke="#6440FB"/>
<path d="M136.217 151.544C136.217 151.737 136.061 151.893 135.869 151.893C135.676 151.893 135.52 151.737 135.52 151.544C135.52 151.352 135.676 151.195 135.869 151.195C136.061 151.195 136.217 151.352 136.217 151.544Z" fill="#7900FF" stroke="#6440FB"/>
<path d="M21.6511 151.544C21.6511 151.737 21.4948 151.893 21.3021 151.893C21.1094 151.893 20.9531 151.737 20.9531 151.544C20.9531 151.352 21.1094 151.195 21.3021 151.195C21.4948 151.195 21.6511 151.352 21.6511 151.544Z" fill="#7900FF" stroke="#6440FB"/>
<path d="M146.448 151.544C146.448 151.737 146.292 151.893 146.099 151.893C145.906 151.893 145.75 151.737 145.75 151.544C145.75 151.352 145.906 151.195 146.099 151.195C146.292 151.195 146.448 151.352 146.448 151.544Z" fill="#7900FF" stroke="#6440FB"/>
<path d="M32.5691 151.544C32.5691 151.737 32.4128 151.893 32.2201 151.893C32.0273 151.893 31.8711 151.737 31.8711 151.544C31.8711 151.352 32.0273 151.195 32.2201 151.195C32.4128 151.195 32.5691 151.352 32.5691 151.544Z" fill="#7900FF" stroke="#6440FB"/>
<path d="M156.671 151.544C156.671 151.737 156.514 151.893 156.322 151.893C156.129 151.893 155.973 151.737 155.973 151.544C155.973 151.352 156.129 151.195 156.322 151.195C156.514 151.195 156.671 151.352 156.671 151.544Z" fill="#7900FF" stroke="#6440FB"/>
<path d="M42.7917 151.544C42.7917 151.737 42.6355 151.893 42.4427 151.893C42.25 151.893 42.0938 151.737 42.0938 151.544C42.0938 151.352 42.25 151.195 42.4427 151.195C42.6355 151.195 42.7917 151.352 42.7917 151.544Z" fill="#7900FF" stroke="#6440FB"/>
<path d="M167.589 151.544C167.589 151.737 167.432 151.893 167.24 151.893C167.047 151.893 166.891 151.737 166.891 151.544C166.891 151.352 167.047 151.195 167.24 151.195C167.432 151.195 167.589 151.352 167.589 151.544Z" fill="#7900FF" stroke="#6440FB"/>
<path d="M53.0222 151.544C53.0222 151.737 52.8659 151.893 52.6732 151.893C52.4805 151.893 52.3242 151.737 52.3242 151.544C52.3242 151.352 52.4805 151.195 52.6732 151.195C52.8659 151.195 53.0222 151.352 53.0222 151.544Z" fill="#7900FF" stroke="#6440FB"/>
<path d="M177.811 151.544C177.811 151.737 177.655 151.893 177.462 151.893C177.27 151.893 177.113 151.737 177.113 151.544C177.113 151.352 177.27 151.195 177.462 151.195C177.655 151.195 177.811 151.352 177.811 151.544Z" fill="#7900FF" stroke="#6440FB"/>
<path d="M63.2527 151.544C63.2527 151.737 63.0964 151.893 62.9037 151.893C62.7109 151.893 62.5547 151.737 62.5547 151.544C62.5547 151.352 62.7109 151.195 62.9037 151.195C63.0964 151.195 63.2527 151.352 63.2527 151.544Z" fill="#7900FF" stroke="#6440FB"/>
<path d="M188.042 151.544C188.042 151.737 187.885 151.893 187.693 151.893C187.5 151.893 187.344 151.737 187.344 151.544C187.344 151.352 187.5 151.195 187.693 151.195C187.885 151.195 188.042 151.352 188.042 151.544Z" fill="#7900FF" stroke="#6440FB"/>
<path d="M74.1628 151.544C74.1628 151.737 74.0066 151.893 73.8138 151.893C73.6211 151.893 73.4648 151.737 73.4648 151.544C73.4648 151.352 73.6211 151.195 73.8138 151.195C74.0066 151.195 74.1628 151.352 74.1628 151.544Z" fill="#7900FF" stroke="#6440FB"/>
<path d="M84.3933 163.146C84.3933 163.339 84.237 163.495 84.0443 163.495C83.8516 163.495 83.6953 163.339 83.6953 163.146C83.6953 162.953 83.8516 162.797 84.0443 162.797C84.237 162.797 84.3933 162.953 84.3933 163.146Z" fill="#7900FF" stroke="#6440FB"/>
<path d="M94.6237 163.146C94.6237 163.339 94.4675 163.495 94.2748 163.495C94.082 163.495 93.9258 163.339 93.9258 163.146C93.9258 162.953 94.082 162.797 94.2748 162.797C94.4675 162.797 94.6237 162.953 94.6237 163.146Z" fill="#7900FF" stroke="#6440FB"/>
<path d="M104.846 163.146C104.846 163.339 104.69 163.495 104.497 163.495C104.305 163.495 104.148 163.339 104.148 163.146C104.148 162.953 104.305 162.797 104.497 162.797C104.69 162.797 104.846 162.953 104.846 163.146Z" fill="#7900FF" stroke="#6440FB"/>
<path d="M115.077 163.146C115.077 163.339 114.921 163.495 114.728 163.495C114.535 163.495 114.379 163.339 114.379 163.146C114.379 162.953 114.535 162.797 114.728 162.797C114.921 162.797 115.077 162.953 115.077 163.146Z" fill="#7900FF" stroke="#6440FB"/>
<path d="M1.19796 163.146C1.19796 163.339 1.04172 163.495 0.848981 163.495C0.656244 163.495 0.5 163.339 0.5 163.146C0.5 162.953 0.656244 162.797 0.848981 162.797C1.04172 162.797 1.19796 162.953 1.19796 163.146Z" fill="#7900FF" stroke="#6440FB"/>
<path d="M125.987 163.146C125.987 163.215 125.967 163.282 125.928 163.34C125.89 163.397 125.835 163.442 125.772 163.468C125.708 163.495 125.638 163.502 125.57 163.488C125.502 163.475 125.44 163.441 125.391 163.393L125.038 163.746L125.391 163.393C125.342 163.344 125.309 163.282 125.296 163.214C125.282 163.146 125.289 163.076 125.316 163.012C125.342 162.949 125.387 162.894 125.444 162.856C125.502 162.817 125.569 162.797 125.638 162.797C125.731 162.797 125.819 162.834 125.885 162.899C125.95 162.965 125.987 163.053 125.987 163.146Z" fill="#7900FF" stroke="#6440FB"/>
<path d="M11.4284 163.146C11.4284 163.215 11.408 163.282 11.3696 163.34C11.3313 163.397 11.2768 163.442 11.213 163.468C11.1492 163.495 11.079 163.502 11.0114 163.488C10.9437 163.475 10.8815 163.441 10.8327 163.393L10.4791 163.746L10.8327 163.393C10.7839 163.344 10.7506 163.282 10.7372 163.214C10.7237 163.146 10.7306 163.076 10.757 163.012C10.7834 162.949 10.8282 162.894 10.8856 162.856C10.943 162.817 11.0105 162.797 11.0795 162.797C11.172 162.797 11.2608 162.834 11.3262 162.899C11.3917 162.965 11.4284 163.053 11.4284 163.146Z" fill="#7900FF" stroke="#6440FB"/>
<path d="M136.217 163.146C136.217 163.339 136.061 163.495 135.869 163.495C135.676 163.495 135.52 163.339 135.52 163.146C135.52 162.953 135.676 162.797 135.869 162.797C136.061 162.797 136.217 162.953 136.217 163.146Z" fill="#7900FF" stroke="#6440FB"/>
<path d="M21.6511 163.146C21.6511 163.339 21.4948 163.495 21.3021 163.495C21.1094 163.495 20.9531 163.339 20.9531 163.146C20.9531 162.953 21.1094 162.797 21.3021 162.797C21.4948 162.797 21.6511 162.953 21.6511 163.146Z" fill="#7900FF" stroke="#6440FB"/>
<path d="M146.448 163.146C146.448 163.339 146.292 163.495 146.099 163.495C145.906 163.495 145.75 163.339 145.75 163.146C145.75 162.953 145.906 162.797 146.099 162.797C146.292 162.797 146.448 162.953 146.448 163.146Z" fill="#7900FF" stroke="#6440FB"/>
<path d="M32.5691 163.146C32.5691 163.339 32.4128 163.495 32.2201 163.495C32.0273 163.495 31.8711 163.339 31.8711 163.146C31.8711 162.953 32.0273 162.797 32.2201 162.797C32.4128 162.797 32.5691 162.953 32.5691 163.146Z" fill="#7900FF" stroke="#6440FB"/>
<path d="M156.671 163.146C156.671 163.339 156.514 163.495 156.322 163.495C156.129 163.495 155.973 163.339 155.973 163.146C155.973 162.953 156.129 162.797 156.322 162.797C156.514 162.797 156.671 162.953 156.671 163.146Z" fill="#7900FF" stroke="#6440FB"/>
<path d="M42.7917 163.146C42.7917 163.339 42.6355 163.495 42.4427 163.495C42.25 163.495 42.0938 163.339 42.0938 163.146C42.0938 162.953 42.25 162.797 42.4427 162.797C42.6355 162.797 42.7917 162.953 42.7917 163.146Z" fill="#7900FF" stroke="#6440FB"/>
<path d="M167.589 163.146C167.589 163.339 167.432 163.495 167.24 163.495C167.047 163.495 166.891 163.339 166.891 163.146C166.891 162.953 167.047 162.797 167.24 162.797C167.432 162.797 167.589 162.953 167.589 163.146Z" fill="#7900FF" stroke="#6440FB"/>
<path d="M53.0222 163.146C53.0222 163.339 52.8659 163.495 52.6732 163.495C52.4805 163.495 52.3242 163.339 52.3242 163.146C52.3242 162.953 52.4805 162.797 52.6732 162.797C52.8659 162.797 53.0222 162.953 53.0222 163.146Z" fill="#7900FF" stroke="#6440FB"/>
<path d="M177.811 163.146C177.811 163.339 177.655 163.495 177.462 163.495C177.27 163.495 177.113 163.339 177.113 163.146C177.113 162.953 177.27 162.797 177.462 162.797C177.655 162.797 177.811 162.953 177.811 163.146Z" fill="#7900FF" stroke="#6440FB"/>
<path d="M63.2527 163.146C63.2527 163.339 63.0964 163.495 62.9037 163.495C62.7109 163.495 62.5547 163.339 62.5547 163.146C62.5547 162.953 62.7109 162.797 62.9037 162.797C63.0964 162.797 63.2527 162.953 63.2527 163.146Z" fill="#7900FF" stroke="#6440FB"/>
<path d="M188.042 163.146C188.042 163.339 187.885 163.495 187.693 163.495C187.5 163.495 187.344 163.339 187.344 163.146C187.344 162.953 187.5 162.797 187.693 162.797C187.885 162.797 188.042 162.953 188.042 163.146Z" fill="#7900FF" stroke="#6440FB"/>
<path d="M74.1628 163.146C74.1628 163.339 74.0066 163.495 73.8138 163.495C73.6211 163.495 73.4648 163.339 73.4648 163.146C73.4648 162.953 73.6211 162.797 73.8138 162.797C74.0066 162.797 74.1628 162.953 74.1628 163.146Z" fill="#7900FF" stroke="#6440FB"/>
</svg>
