<svg width="241" height="231" viewBox="0 0 241 231" fill="none" xmlns="http://www.w3.org/2000/svg">
<g filter="url(#filter0_d_34_5367)">
<path d="M126.417 39.3635C127.744 37.8865 130.18 39.0374 129.882 41.0006L124.219 78.2822C124.044 79.4327 124.885 80.4889 126.045 80.5768L168.563 83.7988C170.658 83.9575 171.122 86.8264 169.184 87.6379L133.979 102.378C132.717 102.906 132.346 104.518 133.251 105.545L160.225 136.154C161.647 137.768 159.868 140.182 157.905 139.301L118.925 121.805C117.758 121.281 116.407 121.972 116.147 123.224L108.699 159.155C108.288 161.139 105.528 161.325 104.855 159.414L91.4107 121.263C91.0408 120.214 89.8856 119.668 88.8401 120.048L50.8305 133.888C48.9272 134.581 47.3179 132.33 48.5891 130.753L71.6183 102.184C72.4207 101.188 72.0958 99.7059 70.9507 99.1372L32.6826 80.133C30.7561 79.1763 31.4912 76.269 33.6408 76.3429L74.4152 77.7447C75.7829 77.7918 76.7928 76.482 76.3996 75.1712L65.4321 38.615C64.8283 36.6024 67.3394 35.1394 68.7924 36.6572L98.2792 67.4574C99.0839 68.298 100.434 68.2767 101.211 67.4112L126.417 39.3635Z" fill="#FF9B24"/>
<path d="M126.603 39.5306C127.764 38.2382 129.895 39.2453 129.635 40.9631L123.972 78.2447C123.775 79.539 124.721 80.7272 126.026 80.8261L168.544 84.048C170.377 84.187 170.783 86.6972 169.087 87.4073L133.883 102.147C132.462 102.742 132.046 104.555 133.063 105.71L160.037 136.319C161.282 137.731 159.725 139.844 158.008 139.073L119.027 121.577C117.715 120.988 116.194 121.764 115.902 123.173L108.455 159.105C108.095 160.84 105.679 161.003 105.09 159.331L91.6464 121.18C91.2304 119.999 89.9308 119.385 88.7546 119.814L50.745 133.653C49.0796 134.259 47.6715 132.29 48.7838 130.91L71.8129 102.341C72.7156 101.221 72.3502 99.5531 71.0619 98.9133L32.7938 79.9091C31.1081 79.072 31.7513 76.5281 33.6323 76.5928L74.4066 77.9946C75.9453 78.0475 77.0814 76.574 76.639 75.0993L65.6716 38.5432C65.1432 36.7821 67.3404 35.502 68.6119 36.8301L98.0986 67.6303C99.004 68.576 100.522 68.552 101.397 67.5783L126.603 39.5306Z" stroke="#FF9B24" stroke-width="0.5"/>
</g>
<g clip-path="url(#clip0_34_5367)">
<path d="M116.98 90.793C116.98 87.5059 114.314 84.8398 111.027 84.8398C107.74 84.8398 105.074 87.5059 105.074 90.793C105.074 94.0801 107.74 96.7461 111.027 96.7461C112.012 96.7461 112.92 96.4883 113.74 96.0664C112.686 100.707 108.531 104.187 103.574 104.187C102.754 104.187 102.086 104.855 102.086 105.676C102.086 106.496 102.754 107.164 103.574 107.164C110.969 107.164 116.98 101.152 116.98 93.7578V90.793Z" fill="white"/>
<path d="M102.113 90.793C102.113 87.5059 99.4473 84.8398 96.1602 84.8398C92.873 84.8398 90.207 87.5059 90.207 90.793C90.207 94.0801 92.873 96.7461 96.1602 96.7461C97.1445 96.7461 98.0527 96.4883 98.873 96.0664C97.8184 100.707 93.6641 104.187 88.707 104.187C87.8867 104.187 87.2188 104.855 87.2188 105.676C87.2188 106.496 87.8867 107.164 88.707 107.164C96.1016 107.164 102.113 101.152 102.113 93.7578V90.793Z" fill="white"/>
</g>
<defs>
<filter id="filter0_d_34_5367" x="1.56836" y="6.02954" width="238.844" height="224.72" filterUnits="userSpaceOnUse" color-interpolation-filters="sRGB">
<feFlood flood-opacity="0" result="BackgroundImageFix"/>
<feColorMatrix in="SourceAlpha" type="matrix" values="0 0 0 0 0 0 0 0 0 0 0 0 0 0 0 0 0 0 127 0" result="hardAlpha"/>
<feOffset dx="20" dy="20"/>
<feGaussianBlur stdDeviation="25"/>
<feComposite in2="hardAlpha" operator="out"/>
<feColorMatrix type="matrix" values="0 0 0 0 0 0 0 0 0 0 0 0 0 0 0.104167 0 0 0 0.15 0"/>
<feBlend mode="normal" in2="BackgroundImageFix" result="effect1_dropShadow_34_5367"/>
<feBlend mode="normal" in="SourceGraphic" in2="effect1_dropShadow_34_5367" result="shape"/>
</filter>
<clipPath id="clip0_34_5367">
<rect width="30" height="30" fill="white" transform="matrix(-1 0 0 -1 117.098 111)"/>
</clipPath>
</defs>
</svg>
