<svg width="36" height="37" viewBox="0 0 36 37" fill="none" xmlns="http://www.w3.org/2000/svg">
<g clip-path="url(#clip0_34_2808)">
<path d="M27.8746 35.5005L24.0984 31.7262C23.9665 31.5944 23.7877 31.5203 23.6012 31.5203C23.6009 31.5203 23.6005 31.5203 23.6002 31.5203L21.5742 31.5232C21.5697 31.5232 21.5653 31.5232 21.5609 31.5232C20.4425 31.5232 19.3221 31.3177 18.2736 30.9255L19.4893 30.1108C19.987 29.7773 20.3216 29.2694 20.4317 28.6808C20.5416 28.0921 20.413 27.4978 20.0693 27.0071C19.6419 26.3972 18.9537 26.0661 18.253 26.0661C18.2416 26.0661 18.2302 26.0662 18.2187 26.0664L21.0192 23.2677C21.8688 22.4186 21.8688 21.0369 21.0192 20.1878C20.8125 19.9812 20.5715 19.8214 20.3091 19.7133C20.5036 19.3829 20.6076 19.0055 20.6076 18.612C20.6076 18.0304 20.3809 17.4834 19.9694 17.072C19.5578 16.6607 19.0105 16.4342 18.4284 16.4342C18.0347 16.4342 17.6571 16.5381 17.3265 16.7325C17.2183 16.4703 17.0584 16.2295 16.8516 16.0228C16.44 15.6114 15.8928 15.3849 15.3107 15.3849C14.7286 15.3849 14.1813 15.6114 13.7697 16.0228L12.7642 17.0277C12.6572 16.7922 12.5081 16.5752 12.3196 16.3869C11.908 15.9755 11.3608 15.749 10.7787 15.749C10.1966 15.749 9.64932 15.9756 9.23771 16.3869L8.792 16.8323L6.97997 15.0316C6.45362 14.5056 6.45362 13.6496 6.97997 13.1236C7.47308 12.6308 8.25579 12.5997 8.78546 13.0301L10.5403 14.784C10.6776 14.9212 10.8576 14.9898 11.0375 14.9898C11.2174 14.9898 11.3974 14.9211 11.5347 14.784C11.8092 14.5096 11.8092 14.0646 11.5347 13.7902L8.5073 10.7648C7.98094 10.2387 7.98094 9.38272 8.5073 8.85669C9.03366 8.33059 9.89021 8.33066 10.4166 8.85669L15.7207 14.1677C15.8581 14.3049 16.038 14.3735 16.2179 14.3735C16.3978 14.3735 16.5778 14.3049 16.7151 14.1677C16.9897 13.8933 16.9897 13.4484 16.7151 13.174L12.6834 9.1346C12.2528 8.6052 12.2839 7.82304 12.777 7.33032C13.3034 6.80429 14.1599 6.80429 14.6862 7.33032L16.1633 8.80659C16.438 9.08106 16.8832 9.08106 17.1577 8.80659C17.4323 8.53219 17.4324 8.08725 17.1577 7.81286L15.6806 6.33659C14.6059 5.26261 12.8573 5.26268 11.7826 6.33659C11.4275 6.69151 11.1905 7.12015 11.0701 7.57359C10.6045 7.23785 10.0474 7.05621 9.46194 7.05621C8.72569 7.05621 8.03354 7.34276 7.51294 7.86296C6.54558 8.82971 6.44954 10.342 7.22368 11.4178C6.76988 11.5381 6.34083 11.7749 5.98561 12.1299C4.97143 13.1436 4.9149 14.7567 5.81497 15.8378C5.37122 15.9603 4.95223 16.1947 4.60412 16.5426C3.52953 17.6166 3.52953 19.3641 4.60412 20.4382L4.91792 20.7518C3.7314 22.1756 3.08656 23.952 3.08923 25.828L3.09092 26.9919L0.205928 29.8753C-0.0686426 30.1497 -0.0686426 30.5946 0.205928 30.8691C0.343248 31.0063 0.523178 31.0749 0.703107 31.0749C0.883037 31.0749 1.06304 31.0063 1.20029 30.8691L4.29165 27.7796C4.42376 27.6476 4.49787 27.4684 4.49759 27.2817L4.49548 25.8261C4.49295 24.0796 5.17224 22.4375 6.40798 21.2026L9.89731 17.7154L9.89738 17.7153L10.2321 17.3808C10.378 17.2349 10.5721 17.1545 10.7786 17.1545C10.9851 17.1545 11.1792 17.2349 11.3251 17.3808C11.4712 17.5267 11.5516 17.7206 11.5516 17.927C11.5516 18.1041 11.4919 18.272 11.3827 18.4083L10.4532 19.3372C10.1786 19.6116 10.1786 20.0566 10.4532 20.331C10.4538 20.3317 10.4545 20.3321 10.4551 20.3328C10.4557 20.3334 10.4562 20.334 10.4569 20.3347C10.5942 20.4718 10.7741 20.5405 10.954 20.5405C11.134 20.5405 11.314 20.4718 11.4512 20.3347L14.7639 17.0167C14.9099 16.8707 15.104 16.7904 15.3105 16.7904C15.517 16.7904 15.711 16.8708 15.857 17.0167C16.1375 17.297 16.1566 17.741 15.9147 18.044L12.5406 21.4234C12.266 21.6978 12.266 22.1428 12.5406 22.4172C12.6779 22.5544 12.8578 22.623 13.0377 22.623C13.2177 22.623 13.3977 22.5544 13.5349 22.4172L17.8816 18.0659C18.0275 17.92 18.2216 17.8397 18.4281 17.8397C18.6346 17.8397 18.8287 17.92 18.9747 18.0659C19.276 18.3671 19.276 18.8571 18.9747 19.1583L14.6207 23.5022C14.3461 23.7766 14.3461 24.2215 14.6207 24.496C14.8953 24.7703 15.3406 24.7704 15.6151 24.496L18.9967 21.1239C19.2998 20.8821 19.744 20.9012 20.0246 21.1817C20.3259 21.4828 20.3259 21.9729 20.0246 22.274L15.2774 27.0183C14.943 27.3524 14.9121 27.8648 15.2039 28.2367C15.4957 28.6086 16.0011 28.7007 16.4056 28.4557L17.8397 27.5868C18.2013 27.3676 18.6745 27.4672 18.917 27.8134C19.0422 27.9921 19.0891 28.2085 19.049 28.423C19.0089 28.6373 18.887 28.8223 18.7059 28.9437L15.3879 31.1672C14.3082 31.8908 13.051 32.273 11.7512 32.273C11.7481 32.273 11.745 32.273 11.742 32.273L9.48837 32.2698C9.48802 32.2698 9.48774 32.2698 9.48739 32.2698C9.30092 32.2698 9.12204 32.3438 8.99021 32.4756L5.89878 35.5651C5.62421 35.8395 5.62421 36.2844 5.89878 36.5589C6.0361 36.696 6.21603 36.7647 6.39596 36.7647C6.57589 36.7647 6.75589 36.696 6.89314 36.5589L9.7782 33.6756L11.74 33.6784C11.7437 33.6784 11.7473 33.6784 11.7511 33.6784C13.3307 33.6784 14.859 33.2138 16.171 32.3345L16.8815 31.8584C18.3334 32.5586 19.9488 32.9288 21.5605 32.9288C21.5655 32.9288 21.5708 32.9288 21.5759 32.9288L23.3101 32.9263L26.8802 36.4943C27.0176 36.6315 27.1975 36.7001 27.3774 36.7001C27.5574 36.7001 27.7374 36.6315 27.8746 36.4943C28.1492 36.2199 28.1492 35.775 27.8746 35.5005ZM7.33744 18.2862L7.3373 18.2864L5.88844 19.7343L5.59855 19.4446C5.07219 18.9185 5.07219 18.0625 5.59855 17.5365C6.09165 17.0437 6.87437 17.0127 7.40403 17.4431L7.79258 17.8314L7.33744 18.2862Z" fill="#00001B"/>
<path d="M35.794 27.5828C35.6632 27.4513 35.4818 27.3768 35.2969 27.3768C35.112 27.3768 34.9305 27.4513 34.7998 27.5828C34.669 27.7136 34.5938 27.8943 34.5938 28.0799C34.5938 28.2648 34.669 28.4462 34.7998 28.5769C34.9305 28.7077 35.112 28.783 35.2969 28.783C35.4818 28.783 35.6632 28.7078 35.794 28.5769C35.9248 28.4454 36 28.2648 36 28.0799C36 27.8942 35.9248 27.7136 35.794 27.5828Z" fill="#00001B"/>
<path d="M33.9027 25.6896L32.2232 24.0111L32.2273 21.1701C32.2303 19.0235 31.5997 16.9466 30.4034 15.1637L27.3086 10.5515C26.8859 9.92143 26.2422 9.49778 25.4961 9.35851C24.7499 9.21923 23.9967 9.38219 23.375 9.81729C22.3563 10.5302 21.9512 11.8164 22.3114 12.9565L20.4738 11.12C20.1992 10.8457 19.754 10.8457 19.4794 11.12C19.2048 11.3944 19.2048 11.8393 19.4794 12.1138L23.427 16.0589C23.7922 16.4239 24.3524 16.4577 24.7588 16.1391C25.1652 15.8205 25.2659 15.2688 24.9981 14.8273L23.7887 12.8336C23.409 12.2077 23.5815 11.3884 24.1815 10.9686C24.4912 10.7519 24.8666 10.6708 25.2379 10.7401C25.6095 10.8095 25.93 11.0205 26.1406 11.3342L29.2354 15.9465C30.2754 17.4965 30.8237 19.302 30.821 21.1681L30.8166 24.3008C30.8163 24.4875 30.8904 24.6667 31.0225 24.7987L32.9083 26.6834C33.0457 26.8205 33.2256 26.8892 33.4055 26.8892C33.5855 26.8892 33.7655 26.8205 33.9027 26.6834C34.1773 26.409 34.1773 25.964 33.9027 25.6896Z" fill="#00001B"/>
<path d="M18.8213 9.4692C18.6912 9.33842 18.5098 9.26318 18.3249 9.26318C18.1393 9.26318 17.9586 9.33842 17.8271 9.4692C17.6963 9.59998 17.6211 9.78139 17.6211 9.96631C17.6211 10.1519 17.6963 10.3326 17.8271 10.4634C17.9586 10.5942 18.1393 10.6694 18.3249 10.6694C18.5098 10.6694 18.6905 10.5942 18.8213 10.4634C18.9528 10.3326 19.028 10.1512 19.028 9.96631C19.028 9.78139 18.9528 9.59998 18.8213 9.4692Z" fill="#00001B"/>
<path d="M25.3484 20.3784C25.623 20.104 25.623 19.659 25.3484 19.3846C25.0738 19.1103 24.6286 19.1103 24.354 19.3846L24.0473 19.6911C22.7342 21.0034 22.7342 23.1385 24.0473 24.4507C24.1846 24.5879 24.3645 24.6565 24.5444 24.6565C24.7244 24.6565 24.9044 24.5879 25.0416 24.4507C25.3162 24.1763 25.3163 23.7314 25.0416 23.4569C24.2769 22.6927 24.2769 21.4491 25.0416 20.6848L25.3484 20.3784Z" fill="#00001B"/>
<path d="M33.5609 4.57861C33.114 4.57861 32.677 4.70538 32.2993 4.93719C31.9215 4.70538 31.4845 4.57861 31.0376 4.57861C29.6922 4.57861 28.5977 5.69251 28.5977 7.06155C28.5977 7.83745 29.1559 8.76928 30.3042 9.91044C31.0774 10.6788 31.84 11.2635 31.8722 11.288C31.9982 11.3844 32.1487 11.4325 32.2993 11.4325C32.4498 11.4325 32.6003 11.3844 32.7263 11.288C32.7585 11.2635 33.5211 10.6787 34.2943 9.91044C35.4426 8.76935 36.0009 7.83745 36.0009 7.06155C36.0009 5.69244 34.9063 4.57861 33.5609 4.57861ZM32.299 9.83089C31.124 8.85557 30.0039 7.61111 30.0039 7.06155C30.0039 6.46736 30.4676 5.98398 31.0376 5.98398C31.3211 5.98398 31.5856 6.1014 31.7825 6.31473C31.9156 6.45892 32.1029 6.54093 32.2993 6.54093C32.4956 6.54093 32.683 6.45892 32.8161 6.31473C33.0129 6.10147 33.2774 5.98398 33.5609 5.98398C34.1309 5.98398 34.5946 6.46736 34.5946 7.06155C34.5946 7.60971 33.4742 8.85451 32.299 9.83089Z" fill="#00001B"/>
<path d="M4.96329 0.784302C4.51631 0.784302 4.07939 0.911066 3.7016 1.14288C3.32381 0.911066 2.88689 0.784302 2.43991 0.784302C1.09455 0.784231 0 1.89806 0 3.26716C0 4.04307 0.558211 4.9749 1.70655 6.11605C2.47971 6.88437 3.24246 7.46921 3.27452 7.49374C3.40052 7.59007 3.55106 7.63821 3.7016 7.63821C3.85214 7.63821 4.00261 7.59007 4.12868 7.49374C4.16081 7.46921 4.92349 6.88437 5.69665 6.11612C6.84499 4.97497 7.4032 4.04314 7.4032 3.26723C7.4032 1.89813 6.30865 0.784302 4.96329 0.784302ZM3.70139 6.03651C2.52626 5.06119 1.40625 3.8168 1.40625 3.26716C1.40625 2.67297 1.86996 2.1896 2.43991 2.1896C2.72341 2.1896 2.98793 2.30702 3.1848 2.52035C3.31798 2.66454 3.50529 2.74655 3.7016 2.74655C3.89791 2.74655 4.0853 2.66454 4.2184 2.52035C4.41527 2.30709 4.67979 2.1896 4.96329 2.1896C5.53324 2.1896 5.99695 2.67297 5.99695 3.26716C5.99695 3.81526 4.87652 5.06013 3.70139 6.03651Z" fill="#00001B"/>
</g>
<defs>
<clipPath id="clip0_34_2808">
<rect width="36" height="35.9774" fill="white" transform="translate(0 0.784119)"/>
</clipPath>
</defs>
</svg>
