<svg width="188" height="189" viewBox="0 0 188 189" fill="none" xmlns="http://www.w3.org/2000/svg">
<g opacity="0.8" clip-path="url(#clip0_34_2712)">
<path d="M123.588 19.3105C115.587 23.323 108.975 29.367 103.936 37.2748C99.9437 43.5405 96.9333 50.9771 94.9877 59.3778C92.8959 68.4092 92.4902 76.5201 92.4823 81.3673C91.7241 81.1535 90.9283 81.0692 90.1309 81.1249C88.075 71.4176 90.5471 63.6609 90.5741 63.5783C90.952 62.4312 90.3299 61.194 89.1822 60.8135C88.033 60.4326 86.7925 61.0547 86.4115 62.2031C86.3051 62.5236 84.3487 68.5737 85.079 76.9358C78.8072 71.3529 72.784 69.3047 72.4632 69.1983C71.3141 68.8174 70.0735 69.4395 69.6926 70.5879C69.3114 71.7363 69.9339 72.976 71.083 73.3568C71.1648 73.3839 78.8307 75.9923 85.421 83.4863C84.8998 84.0911 84.4925 84.7781 84.2104 85.5127C80.3164 82.6224 73.5675 78.1005 65.0737 74.3795C57.1713 70.9174 49.4057 68.8855 41.9932 68.3397C32.638 67.651 23.8375 69.3364 15.8367 73.349C10.3967 76.0775 8.69213 80.7805 11.2779 85.9299C12.5178 88.3992 15.0047 91.0395 18.669 93.7778C24.4031 98.0626 28.1124 104.039 31.385 109.312C35.1681 115.407 38.4357 120.671 43.8039 121.333C45.4905 121.542 48.463 121.212 55.5363 117.665C55.7306 117.567 55.9303 117.466 56.1308 117.363C53.8057 121.698 51.8377 127.24 52.9916 132.393C55.0754 141.701 66.11 146.999 68.8536 148.185C73.1344 153.729 78.3865 154.749 80.4709 154.93C85.0479 158.459 90.0014 156.714 92.5391 154.926C93.7244 154.844 94.9761 154.568 96.1821 153.963C98.8475 152.626 101.287 149.685 102.276 143.701C102.741 140.887 103.647 139.885 104.697 138.725C105.785 137.521 107.14 136.024 107.622 132.941C108.028 130.349 107.757 125.416 106.854 120.294C110.424 124.079 114.219 127.244 116.541 128.468C119.302 129.924 121.314 129.734 122.93 129.581C124.488 129.433 125.833 129.306 128.369 130.615C133.76 133.399 137.578 133.203 140.243 131.866C141.449 131.261 142.419 130.423 143.193 129.522C146.144 128.558 150.505 125.632 150.409 119.855C151.509 118.077 153.83 113.259 151.941 106.516C152.629 103.609 154.974 91.6009 148.752 84.3682C145.307 80.3639 139.684 78.6281 134.818 77.9008C135.02 77.8011 135.221 77.7023 135.415 77.6047C142.487 74.058 144.529 71.8723 145.37 70.3966C148.047 65.6996 145.777 59.9354 143.148 53.2611C140.874 47.4876 138.296 40.9435 138.285 33.7886C138.279 29.2158 137.647 25.6454 136.407 23.1761C133.819 18.0272 129.028 16.5821 123.588 19.3105ZM19.0731 88.4784C17.2076 86.8482 15.8614 85.289 15.1965 83.9647C14.1894 81.9593 13.5756 79.3855 17.8033 77.2653C19.5304 76.3991 21.3005 75.6563 23.1087 75.0292C22.1353 76.182 21.3201 77.4543 20.6765 78.8521C19.1982 82.0617 18.8474 85.4822 19.0731 88.4784ZM44.3413 116.985C41.0553 116.579 38.3008 112.141 35.1109 107.002C32.411 102.652 29.1716 97.4343 24.5896 93.0634C23.6152 90.9334 22.457 85.4654 24.6593 80.6838C26.4814 76.7272 30.2238 74.0172 35.7812 72.6264C37.6939 72.5397 39.6359 72.5622 41.6072 72.7051C48.5082 73.2048 55.7754 75.1026 63.207 78.3459C72.1968 82.2694 79.2716 87.2464 82.7119 89.8834C68.364 89.4 52.4468 86.9361 52.2699 86.9086C51.0743 86.7216 49.9528 87.5393 49.7655 88.7345C49.5786 89.9299 50.3964 91.0503 51.5926 91.2374C51.7811 91.2666 69.491 94.0095 84.6369 94.3183C81.2395 96.6957 74.9541 101.02 68.2567 105.247C50.1947 116.649 45.3854 117.114 44.3413 116.985ZM97.9115 143.216C97.5395 145.436 96.528 150.565 91.7575 150.572C91.2392 150.573 90.7487 150.747 90.3536 151.083C89.948 151.417 86.2862 154.264 82.7577 151.138C82.3383 150.767 81.8118 150.569 81.2517 150.588C81.0396 150.591 76.0085 150.599 72.0239 145.107C71.7772 144.767 71.4376 144.505 71.046 144.352C71.0159 144.34 67.9964 143.151 64.7306 140.881C61.8422 138.873 58.203 135.605 57.2694 131.436C56.3374 127.274 58.343 122.416 60.1896 119.075C61.9701 115.853 63.9608 113.374 64.5504 112.665C66.402 111.563 68.415 110.329 70.6132 108.941C77.7657 104.425 84.453 99.8022 87.7226 97.5061L88.666 99.3847C96.3062 115.207 97.7784 140.591 97.9115 143.216ZM99.2797 110.101C102.574 116.661 103.869 128.565 103.29 132.265C103.038 133.878 102.507 134.597 101.715 135.486C100.909 127.344 99.065 114.251 95.0097 103.186C95.2644 103.179 95.52 103.157 95.775 103.121L99.2797 110.101ZM95.9294 98.5444C94.705 99.1585 93.209 98.6626 92.5946 97.4389L88.4148 89.1151C88.4122 89.11 88.4097 89.1049 88.4071 89.0997L88.3996 89.0848C87.7859 87.8627 88.2802 86.3704 89.5008 85.7549C89.5018 85.7544 89.5027 85.7539 89.5037 85.7534C89.5042 85.7532 89.5049 85.7528 89.5059 85.7523C89.5069 85.7518 89.5071 85.7517 89.5081 85.7512C89.5091 85.7507 89.5103 85.7501 89.5111 85.7498C90.7343 85.1396 92.2272 85.6353 92.8409 86.8575L97.0359 95.2116C97.6502 96.4355 97.1538 97.9304 95.9294 98.5444ZM118.586 124.594C115.272 122.846 106.496 114.694 103.202 108.134L99.6962 101.153C99.877 100.97 100.047 100.778 100.205 100.578C106.659 110.441 116.062 119.744 122.111 125.257C120.925 125.36 120.031 125.356 118.586 124.594ZM145.426 87.2249C150.865 93.5478 147.587 105.861 147.554 105.982C147.442 106.387 147.45 106.816 147.575 107.217C149.6 113.692 146.586 117.718 146.469 117.871C146.119 118.309 145.951 118.864 145.999 119.422C146.397 124.117 141.925 125.35 141.428 125.472C140.923 125.589 140.475 125.88 140.165 126.295C137.309 130.112 132.589 127.858 130.586 126.83C128.56 125.155 109.066 108.797 100.942 93.2158C100.934 93.2001 100.924 93.186 100.915 93.1705L100.001 91.3488C103.795 90.1017 111.503 87.5061 119.404 84.4728C121.834 83.5398 124.028 82.6641 126.021 81.8383C130.168 81.571 140.965 82.0394 145.426 87.2249ZM139.066 54.8665C141.283 60.4938 143.197 65.3536 141.559 68.2289C141.038 69.1424 137.79 72.7177 117.849 80.3757C110.455 83.2155 103.229 85.6675 99.2917 86.9687C108.096 74.6484 116.48 58.819 116.569 58.6506C117.134 57.5803 116.724 56.2555 115.653 55.6909C114.582 55.1262 113.256 55.5363 112.692 56.6062C112.608 56.7644 105.072 70.9906 96.8842 82.7757C96.8251 78.443 97.0601 69.8004 99.2854 60.252C101.125 52.3589 103.946 45.4016 107.669 39.5739C108.733 37.9093 109.875 36.3399 111.088 34.8588C115.525 31.2375 119.936 29.8583 124.199 30.7629C129.352 31.8562 133.046 36.0521 134.173 38.1058C134.941 44.39 137.191 50.1039 139.066 54.8665ZM133.791 30.9456C131.523 28.9738 128.569 27.2108 125.11 26.4769C123.603 26.1573 122.096 26.0498 120.589 26.1408C122.173 25.067 123.827 24.0925 125.554 23.2263C127.775 22.1126 130.57 21.3239 132.487 25.1416C133.152 26.4658 133.598 28.4767 133.791 30.9456Z" fill="#8E56FF"/>
</g>
<defs>
<clipPath id="clip0_34_2712">
<rect width="139.982" height="139.93" fill="white" transform="matrix(0.893885 -0.448297 0.448747 0.893659 0 63.473)"/>
</clipPath>
</defs>
</svg>
