<svg width="183" height="152" viewBox="0 0 183 152" fill="none" xmlns="http://www.w3.org/2000/svg">
<path opacity="0.36" d="M2.13114 150.349C2.34184 136.857 10.4918 122.443 25.3578 120.324C36.7365 118.703 50.7592 122.103 59.8021 128.054C64.3405 131.04 70.6276 138.071 64.3405 142.624C55.6898 148.89 40.3581 137.93 36.2042 126.037C30.0324 108.366 35.4055 90.1344 47.9453 76.5575C63.5013 59.7149 91.0688 43.5646 114.186 53.2152C124.965 57.7152 130.551 64.4653 134.25 75.2464C137.195 83.8292 139.203 94.6902 132.326 102.342C121.007 114.935 105.728 104.433 98.5677 93.266C84.0591 70.6379 91.8803 37.1762 114.68 23.1537C134.679 10.854 158.391 5.4704 181.395 2.39539" stroke="#8E56FF" stroke-width="3" stroke-linecap="round"/>
</svg>
