<svg width="36" height="37" viewBox="0 0 36 37" fill="none" xmlns="http://www.w3.org/2000/svg">
<g clip-path="url(#clip0_34_2899)">
<path d="M18 36.012C14.5883 36.012 11.2532 35.0009 8.41642 33.1067C5.57967 31.2124 3.3687 28.52 2.06309 25.37C0.757474 22.2199 0.415867 18.7537 1.08146 15.4096C1.74706 12.0655 3.38996 8.99382 5.80242 6.58287C8.21487 4.17193 11.2885 2.53006 14.6347 1.86488C17.9809 1.19971 21.4493 1.5411 24.6013 2.84589C27.7533 4.15068 30.4474 6.36027 32.3429 9.19524C34.2383 12.0302 35.25 15.3632 35.25 18.7728C35.25 23.3449 33.4326 27.7298 30.1976 30.9627C26.9626 34.1957 22.575 36.012 18 36.012ZM18 3.0327C14.885 3.0327 11.8399 3.95584 9.24978 5.68538C6.6597 7.41493 4.64099 9.8732 3.44891 12.7493C2.25682 15.6255 1.94492 18.7903 2.55264 21.8436C3.16036 24.8968 4.6604 27.7015 6.86308 29.9028C9.06575 32.104 11.8721 33.6031 14.9273 34.2105C17.9825 34.8178 21.1493 34.5061 24.0273 33.3148C26.9052 32.1234 29.365 30.106 31.0957 27.5175C32.8263 24.9291 33.75 21.8859 33.75 18.7728C33.75 14.5983 32.0906 10.5947 29.1369 7.64287C26.1832 4.69103 22.1772 3.0327 18 3.0327Z" fill="black"/>
<path d="M22.3292 27.0176H13.6742C13.5421 27.0181 13.4121 26.9837 13.2975 26.9179C13.183 26.8521 13.0878 26.7572 13.0217 26.6428L8.69423 19.1475C8.62841 19.0336 8.59375 18.9044 8.59375 18.7728C8.59375 18.6412 8.62841 18.512 8.69423 18.398L13.0217 10.9027C13.0878 10.7883 13.183 10.6934 13.2975 10.6276C13.4121 10.5618 13.5421 10.5274 13.6742 10.528H22.3292C22.4614 10.5274 22.5913 10.5618 22.7059 10.6276C22.8205 10.6934 22.9157 10.7883 22.9817 10.9027L27.3092 18.398C27.3751 18.512 27.4097 18.6412 27.4097 18.7728C27.4097 18.9044 27.3751 19.0336 27.3092 19.1475L22.9817 26.6428C22.9157 26.7572 22.8205 26.8521 22.7059 26.9179C22.5913 26.9837 22.4614 27.0181 22.3292 27.0176ZM14.0792 25.5185H21.9017L25.7942 18.7728L21.9017 12.027H14.1017L10.2092 18.7728L14.0792 25.5185Z" fill="black"/>
<path d="M13.4992 12.0301C13.4005 12.0306 13.3026 12.0117 13.2112 11.9744C13.1199 11.9371 13.0367 11.8822 12.9667 11.8127L7.71666 6.56601C7.57543 6.42487 7.49609 6.23345 7.49609 6.03385C7.49609 5.83425 7.57543 5.64282 7.71666 5.50168C7.85789 5.36054 8.04944 5.28125 8.24916 5.28125C8.44889 5.28125 8.64043 5.36054 8.78166 5.50168L14.0317 10.7484C14.102 10.8181 14.1578 10.901 14.1958 10.9923C14.2339 11.0836 14.2535 11.1816 14.2535 11.2805C14.2535 11.3795 14.2339 11.4775 14.1958 11.5688C14.1578 11.6601 14.102 11.743 14.0317 11.8127C13.9616 11.8822 13.8785 11.9371 13.7871 11.9744C13.6957 12.0117 13.5979 12.0306 13.4992 12.0301Z" fill="black"/>
<path d="M22.5004 12.0301C22.4017 12.0306 22.3039 12.0117 22.2125 11.9744C22.1211 11.9371 22.038 11.8822 21.9679 11.8127C21.8976 11.743 21.8418 11.6601 21.8038 11.5688C21.7657 11.4775 21.7461 11.3795 21.7461 11.2805C21.7461 11.1816 21.7657 11.0836 21.8038 10.9923C21.8418 10.901 21.8976 10.8181 21.9679 10.7484L27.2179 5.50168C27.2879 5.4318 27.3709 5.37636 27.4623 5.33854C27.5536 5.30072 27.6515 5.28125 27.7504 5.28125C27.8493 5.28125 27.9473 5.30072 28.0386 5.33854C28.13 5.37636 28.213 5.4318 28.2829 5.50168C28.3529 5.57157 28.4083 5.65453 28.4462 5.74584C28.484 5.83715 28.5035 5.93501 28.5035 6.03385C28.5035 6.13268 28.484 6.23054 28.4462 6.32185C28.4083 6.41316 28.3529 6.49613 28.2829 6.56601L23.0329 11.8127C22.9629 11.8822 22.8798 11.9371 22.7884 11.9744C22.697 12.0117 22.5991 12.0306 22.5004 12.0301Z" fill="black"/>
<path d="M8.25044 32.2674C8.15174 32.268 8.05389 32.249 7.96251 32.2117C7.87113 32.1744 7.78802 32.1195 7.71794 32.05C7.64765 31.9803 7.59185 31.8974 7.55377 31.8061C7.5157 31.7148 7.49609 31.6168 7.49609 31.5179C7.49609 31.4189 7.5157 31.3209 7.55377 31.2296C7.59185 31.1383 7.64765 31.0554 7.71794 30.9857L12.9679 25.739C13.1092 25.5978 13.3007 25.5186 13.5004 25.5186C13.7002 25.5186 13.8917 25.5978 14.0329 25.739C14.1742 25.8801 14.2535 26.0716 14.2535 26.2712C14.2535 26.4708 14.1742 26.6622 14.0329 26.8033L8.78294 32.05C8.71286 32.1195 8.62975 32.1744 8.53837 32.2117C8.44699 32.249 8.34915 32.268 8.25044 32.2674Z" fill="black"/>
<path d="M27.7492 32.2674C27.6505 32.268 27.5526 32.249 27.4612 32.2117C27.3699 32.1744 27.2867 32.1195 27.2167 32.05L21.9667 26.8033C21.8254 26.6622 21.7461 26.4708 21.7461 26.2712C21.7461 26.0716 21.8254 25.8801 21.9667 25.739C22.1079 25.5978 22.2994 25.5186 22.4992 25.5186C22.6989 25.5186 22.8904 25.5978 23.0317 25.739L28.2817 30.9857C28.352 31.0554 28.4078 31.1383 28.4458 31.2296C28.4839 31.3209 28.5035 31.4189 28.5035 31.5179C28.5035 31.6168 28.4839 31.7148 28.4458 31.8061C28.4078 31.8974 28.352 31.9803 28.2817 32.05C28.2116 32.1195 28.1285 32.1744 28.0371 32.2117C27.9457 32.249 27.8479 32.268 27.7492 32.2674Z" fill="black"/>
<path d="M34.5 19.5233H27C26.8011 19.5233 26.6103 19.4442 26.4697 19.3036C26.329 19.1629 26.25 18.9722 26.25 18.7733C26.25 18.5743 26.329 18.3836 26.4697 18.2429C26.6103 18.1023 26.8011 18.0233 27 18.0233H34.5C34.6989 18.0233 34.8897 18.1023 35.0303 18.2429C35.171 18.3836 35.25 18.5743 35.25 18.7733C35.25 18.9722 35.171 19.1629 35.0303 19.3036C34.8897 19.4442 34.6989 19.5233 34.5 19.5233Z" fill="black"/>
<path d="M9 19.5233H1.5C1.30109 19.5233 1.11032 19.4442 0.96967 19.3036C0.829018 19.1629 0.75 18.9722 0.75 18.7733C0.75 18.5743 0.829018 18.3836 0.96967 18.2429C1.11032 18.1023 1.30109 18.0233 1.5 18.0233H9C9.19891 18.0233 9.38968 18.1023 9.53033 18.2429C9.67098 18.3836 9.75 18.5743 9.75 18.7733C9.75 18.9722 9.67098 19.1629 9.53033 19.3036C9.38968 19.4442 9.19891 19.5233 9 19.5233Z" fill="black"/>
</g>
<defs>
<clipPath id="clip0_34_2899">
<rect width="36" height="35.9774" fill="white" transform="translate(0 0.784119)"/>
</clipPath>
</defs>
</svg>
