<svg width="36" height="37" viewBox="0 0 36 37" fill="none" xmlns="http://www.w3.org/2000/svg">
<g clip-path="url(#clip0_34_2839)">
<path d="M34.9572 6.5235L28.8586 1.45701C28.7583 1.3736 28.6289 1.33341 28.4987 1.34549C28.3686 1.35751 28.2486 1.42068 28.1652 1.52116L26.4147 3.62907C26.3778 3.61657 26.3401 3.60511 26.3022 3.59464C26.2989 3.59373 26.2957 3.59289 26.2925 3.59204L24.5693 3.15469C24.5592 3.15216 24.5491 3.14991 24.5388 3.14802C23.0971 2.87762 21.9257 3.65465 21.6239 5.08061C21.5822 5.27743 21.5372 5.49358 21.4892 5.7242C21.1257 7.46966 20.5794 10.0931 20.0301 11.3157C18.7228 12.8898 17.9254 13.8118 17.6473 14.0702C17.4028 14.098 17.194 14.1187 17.0066 14.1373C16.4046 14.1968 16.0414 14.2327 15.6218 14.4C14.6827 14.7744 13.2621 15.8661 12.0087 16.8293C11.6029 17.1411 11.2198 17.4355 10.9088 17.661C9.99881 18.3209 9.76671 19.5716 10.3803 20.5084C10.7572 21.084 11.244 21.3045 11.7511 21.3413L4.36889 30.1883C4.28522 30.2886 4.24486 30.418 4.25674 30.5481C4.26863 30.6782 4.33177 30.7981 4.43224 30.8816L10.524 35.9424C10.6127 36.0161 10.7242 36.056 10.8386 36.056C10.8537 36.056 10.8689 36.0553 10.884 36.0539C11.0141 36.0419 11.134 35.9787 11.2174 35.8782L13.084 33.6302C13.4198 33.9335 13.8488 34.0994 14.3024 34.0994H14.3037C14.7652 34.0991 15.2012 33.9271 15.5394 33.6136C15.5786 33.6631 15.6203 33.7108 15.6645 33.7565C16.0157 34.1191 16.4765 34.3187 16.9624 34.3187H16.9637C17.9291 34.318 18.721 33.5635 18.7812 32.614C19.0379 32.7483 19.3244 32.8194 19.6215 32.8194H19.6226C20.1078 32.819 20.5649 32.629 20.9096 32.2841C21.2544 31.9391 21.4441 31.4821 21.4438 30.9972L21.4432 30.1181C21.699 30.2512 21.984 30.3216 22.2795 30.3216H22.2809C22.7662 30.3214 23.2232 30.1313 23.568 29.7864C23.9128 29.4415 24.1026 28.9844 24.1022 28.5022L24.1411 20.3187L25.0665 19.2043L25.2364 19.3499C25.5761 19.6411 25.9938 19.7836 26.4097 19.7836C26.9182 19.7836 27.4241 19.5703 27.7804 19.1551C27.7858 19.1488 27.791 19.1424 27.7962 19.1358C28.1164 18.7219 28.251 18.2448 28.2079 17.7907C28.6857 17.7671 29.1534 17.5553 29.4887 17.1647C29.4941 17.1583 29.4994 17.1519 29.5045 17.1453C29.8252 16.7307 29.9597 16.2529 29.9161 15.7984C29.9325 15.7976 29.9488 15.7978 29.9652 15.7965C30.4467 15.7596 30.8842 15.5386 31.197 15.1742C31.2025 15.1678 31.2077 15.1614 31.2129 15.1548C31.5303 14.7445 31.6639 14.2649 31.6221 13.8098C32.1008 13.7868 32.5695 13.5751 32.9054 13.1837C33.5529 12.4291 33.4656 11.2886 32.7105 10.6413L32.3991 10.3744L35.0218 7.21613C35.1948 7.00694 35.1661 6.69706 34.9572 6.5235ZM22.4529 5.9246C22.5007 5.6951 22.5454 5.48001 22.5869 5.28418C22.6512 4.98048 22.9307 4.07661 23.968 4.07661C24.0833 4.07661 24.2081 4.08779 24.3428 4.11224L26.0446 4.54411C26.3228 4.6219 26.5554 4.80438 26.6996 5.05819C26.8446 5.31327 26.8818 5.6079 26.8046 5.88785C26.6442 6.46918 26.0405 6.81167 25.4593 6.6516L24.4558 6.37453C24.2687 6.32288 24.0685 6.38598 23.9449 6.5358C23.845 6.65694 23.6297 6.92192 23.3354 7.28373C22.7458 8.00897 22.2008 8.67701 21.7004 9.28821C21.9906 8.14445 22.2496 6.90056 22.4529 5.9246ZM10.7744 34.8712L5.44059 30.44L12.4811 22.0024L12.4802 32.2794C12.4803 32.4383 12.5008 32.5942 12.5405 32.7441L10.7744 34.8712ZM27.0247 18.5238C26.8837 18.6833 26.6883 18.78 26.473 18.7965C26.2539 18.813 26.0419 18.7446 25.8769 18.6031L24.4965 17.42C24.0931 17.0742 24.1648 16.5883 24.416 16.2556C24.7109 15.922 25.2224 15.8851 25.5623 16.175L26.9442 17.3594L26.9447 17.3599C27.3476 17.7057 27.2759 18.1913 27.0247 18.5238ZM28.733 16.5332C28.4375 16.8676 27.9252 16.904 27.585 16.6126L25.6507 14.9546C25.2472 14.6087 25.3189 14.1227 25.5702 13.79C25.8657 13.456 26.3773 13.4196 26.7173 13.7101C26.7176 13.7103 26.7178 13.7105 26.7181 13.7108L28.6524 15.3687C28.6524 15.3687 28.6525 15.3688 28.6526 15.3688C28.6526 15.3689 28.6526 15.3689 28.6527 15.3689C29.056 15.7149 28.9842 16.2006 28.733 16.5332ZM30.4413 14.5428C30.3002 14.7023 30.1048 14.799 29.8895 14.8155C29.6706 14.8325 29.4585 14.7637 29.2933 14.6221L27.359 12.9641C26.9555 12.6182 27.0272 12.1323 27.2785 11.7996C27.5736 11.4658 28.0855 11.4291 28.4254 11.7194C28.4255 11.7195 28.4257 11.7196 28.4259 11.7197C28.4261 11.7199 28.4263 11.7201 28.4265 11.7203L30.3608 13.3782C30.3617 13.379 30.3626 13.3796 30.3635 13.3804C30.3644 13.3811 30.3652 13.382 30.3662 13.3828C30.7507 13.703 30.6952 14.2061 30.4413 14.5428ZM32.1577 12.543C32.016 12.7081 31.8172 12.8082 31.5979 12.825C31.3781 12.8418 31.1668 12.7731 31.0016 12.6315L29.0674 10.9735C28.6638 10.6276 28.7355 10.1418 28.9868 9.80904C29.1278 9.64946 29.3233 9.55277 29.5385 9.53625C29.7575 9.5196 29.9696 9.58818 30.1348 9.7297L32.0691 11.3877C32.4064 11.6769 32.447 12.206 32.1577 12.543ZM31.6513 9.73364L30.7757 8.9831C30.411 8.67048 29.9448 8.51877 29.4634 8.55552C28.9819 8.59234 28.5444 8.8134 28.2316 9.17781C28.2262 9.18414 28.221 9.1906 28.2158 9.19714C27.8953 9.61137 27.7607 10.0887 27.804 10.5428C27.3261 10.5665 26.8583 10.7778 26.5232 11.1683C26.5178 11.1746 26.5125 11.1811 26.5074 11.1877C26.1871 11.6019 26.0524 12.0791 26.0957 12.5331C25.6178 12.5568 25.1502 12.7681 24.815 13.1587C24.8096 13.1651 24.8043 13.1715 24.7992 13.1781C24.3469 13.7629 24.2642 14.4733 24.5307 15.0667C24.2031 15.1605 23.8985 15.3472 23.6608 15.6242C23.6554 15.6306 23.6501 15.637 23.645 15.6436C23.0137 16.4598 23.1022 17.5209 23.8556 18.1666L24.3188 18.5636L23.2706 19.8258C23.1979 19.9135 23.1578 20.0237 23.1572 20.1376L23.1175 28.5001C23.1177 28.7222 23.0303 28.932 22.8714 29.091C22.7124 29.25 22.5025 29.3376 22.2795 29.3377C22.0575 29.3377 21.8477 29.2504 21.6888 29.0918C21.5332 28.9366 21.4459 28.7325 21.442 28.5159L21.4405 26.3502C21.4403 26.0787 21.22 25.8587 20.9479 25.8587C20.6762 25.8589 20.456 26.0793 20.4561 26.3509L20.4592 30.9978C20.4594 31.2199 20.3719 31.4297 20.213 31.5887C20.0541 31.7477 19.8441 31.8354 19.6213 31.8355C19.3992 31.8355 19.1893 31.7482 19.0304 31.5895C18.876 31.4355 18.7889 31.2334 18.7837 31.0187L18.7808 26.7737C18.7806 26.5022 18.5603 26.2822 18.2883 26.2822C18.0165 26.2824 17.7963 26.5028 17.7965 26.7744L17.8003 32.497C17.8007 32.9586 17.425 33.3344 16.9623 33.3347C16.5922 33.3351 16.2647 33.0554 16.1529 32.7119C16.105 32.5647 16.1249 32.4276 16.1247 32.2768L16.1211 26.9572C16.1209 26.6857 15.9006 26.4657 15.6286 26.4657C15.3568 26.4659 15.1365 26.6862 15.1368 26.9579L15.1403 32.2776C15.1408 32.4988 15.0503 32.7124 14.8942 32.8686C14.7353 33.0276 14.5253 33.1152 14.3024 33.1154C14.0803 33.1154 13.8705 33.028 13.7115 32.8694C13.5524 32.7105 13.4647 32.5008 13.4646 32.279L13.4656 20.6557C13.4666 20.6138 13.4622 20.5715 13.4521 20.5292C13.4462 20.5049 13.4386 20.4812 13.4292 20.4583C13.3919 20.3666 13.3293 20.2916 13.2518 20.2385C13.2262 20.2209 13.1987 20.2057 13.1696 20.1931C13.0625 20.1464 12.938 20.1376 12.8183 20.1774C11.6971 20.5498 11.415 20.2916 11.204 19.9695C10.8785 19.4725 11.0028 18.8082 11.487 18.4571C11.809 18.2235 12.1975 17.925 12.6087 17.609C13.7519 16.7305 15.1744 15.6372 15.9866 15.3135C16.2769 15.1978 16.5532 15.1704 17.1036 15.116C17.3269 15.0939 17.58 15.0688 17.8893 15.0322C18.139 15.0026 18.2529 14.9891 20.6443 12.1178C21.8828 10.6306 24.396 7.5393 24.5031 7.4079L25.1976 7.59966C26.3029 7.90413 27.4491 7.25323 27.7537 6.14904C27.9008 5.61577 27.8305 5.0558 27.5557 4.57222C27.4701 4.42142 27.3678 4.28391 27.2515 4.16164L28.6082 2.52797L33.9499 6.96563L31.6513 9.73364ZM4.84962 20.9295C5.12145 20.9295 5.3418 20.7093 5.3418 20.4376C5.3418 18.7855 6.68667 17.4415 8.33979 17.4415C8.61162 17.4415 8.83198 17.2213 8.83198 16.9496C8.83198 16.678 8.61162 16.4578 8.33979 16.4578C6.68667 16.4578 5.3418 15.1137 5.3418 13.4616C5.3418 13.1899 5.12145 12.9697 4.84962 12.9697C4.57779 12.9697 4.35743 13.1899 4.35743 13.4616C4.35743 15.1137 3.01249 16.4578 1.35938 16.4578C1.08755 16.4578 0.867188 16.678 0.867188 16.9496C0.867188 17.2213 1.08755 17.4415 1.35938 17.4415C3.01249 17.4415 4.35743 18.7855 4.35743 20.4376C4.35743 20.7093 4.57779 20.9295 4.84962 20.9295ZM3.27595 16.9496C3.93752 16.5851 4.48491 16.038 4.84969 15.3769C5.21447 16.038 5.76185 16.5852 6.42342 16.9496C5.76185 17.3141 5.21447 17.8612 4.84969 18.5224C4.48491 17.8612 3.93752 17.3141 3.27595 16.9496ZM1.35945 5.81512C3.01256 5.81512 4.3575 7.15915 4.3575 8.81123C4.3575 9.08288 4.57786 9.3031 4.84969 9.3031C5.12152 9.3031 5.34188 9.08288 5.34188 8.81123C5.34188 7.15915 6.68674 5.81512 8.33986 5.81512C8.61169 5.81512 8.83205 5.5949 8.83205 5.32324C8.83205 5.05159 8.61169 4.83137 8.33986 4.83137C6.68674 4.83137 5.34188 3.48734 5.34188 1.83526C5.34188 1.56361 5.12152 1.34339 4.84969 1.34339C4.57786 1.34339 4.3575 1.56361 4.3575 1.83526C4.3575 3.48734 3.01256 4.83137 1.35945 4.83137C1.08762 4.83137 0.867258 5.05159 0.867258 5.32324C0.867258 5.5949 1.08762 5.81512 1.35945 5.81512ZM4.84962 3.7505C5.2144 4.41165 5.76178 4.95869 6.42335 5.32324C5.76178 5.6878 5.2144 6.23484 4.84962 6.89599C4.48484 6.23484 3.93745 5.6878 3.27588 5.32324C3.93752 4.95876 4.48491 4.41172 4.84962 3.7505ZM7.54034 11.2375C7.54034 11.5092 7.76069 11.7294 8.03252 11.7294C9.68564 11.7294 11.0306 13.0734 11.0306 14.7255C11.0306 14.9972 11.2509 15.2174 11.5228 15.2174C11.7946 15.2174 12.015 14.9972 12.015 14.7255C12.015 13.0734 13.3598 11.7294 15.0129 11.7294C15.2848 11.7294 15.5051 11.5092 15.5051 11.2375C15.5051 10.9659 15.2848 10.7456 15.0129 10.7456C13.3598 10.7456 12.015 9.40162 12.015 7.74954C12.015 7.47788 11.7946 7.25766 11.5228 7.25766C11.2509 7.25766 11.0306 7.47788 11.0306 7.74954C11.0306 9.40162 9.68564 10.7456 8.03252 10.7456C7.76069 10.7456 7.54034 10.9659 7.54034 11.2375ZM11.5228 9.66477C11.8875 10.3259 12.4349 10.873 13.0965 11.2375C12.4349 11.6021 11.8875 12.1491 11.5228 12.8103C11.158 12.1491 10.6106 11.6021 9.94903 11.2375C10.6106 10.873 11.158 10.3259 11.5228 9.66477Z" fill="#00001B"/>
</g>
<defs>
<clipPath id="clip0_34_2839">
<rect width="36" height="35.9774" fill="white" transform="translate(0 0.710999)"/>
</clipPath>
</defs>
</svg>
