<svg width="135" height="136" viewBox="0 0 135 136" fill="none" xmlns="http://www.w3.org/2000/svg">
<path d="M60.7942 13.149C60.6559 13.1588 60.5164 13.1527 60.3759 13.1306C60.2459 13.1077 60.1338 13.0355 60.0397 12.9138C59.9561 12.7914 59.9042 12.5866 59.8838 12.2993C59.8641 12.0227 59.8874 11.8232 59.9536 11.7009C60.0296 11.5672 60.1303 11.4798 60.2558 11.4388C60.3911 11.3865 60.5225 11.3558 60.6502 11.3467L64.6242 11.0649C64.7626 11.0551 64.8971 11.067 65.0278 11.1005C65.1577 11.1233 65.2645 11.196 65.348 11.3184C65.4414 11.4294 65.4984 11.6285 65.5187 11.9158C65.5384 12.1924 65.5102 12.3976 65.4341 12.5313C65.3687 12.6643 65.2733 12.7512 65.1479 12.7922C65.0225 12.8332 64.8853 12.859 64.7363 12.8695L60.7942 13.149Z" fill="black"/>
<path d="M41.0633 23.08C40.7966 23.2144 40.5797 23.2699 40.4126 23.2465C40.2504 23.2327 40.1213 23.1664 40.0255 23.0474C39.9297 22.9285 39.8409 22.7881 39.7593 22.6261L35.6021 14.3831C35.4388 14.0593 35.3878 13.8043 35.4492 13.6181C35.5201 13.4271 35.7271 13.2452 36.07 13.0725L41.643 10.2654C41.8049 10.1839 41.9574 10.1309 42.1005 10.1066C42.2483 10.068 42.3915 10.0914 42.5302 10.1769C42.664 10.2528 42.8006 10.4288 42.9399 10.705C43.0744 10.9717 43.13 11.1885 43.1067 11.3555C43.0929 11.5177 43.0265 11.6467 42.9076 11.7424C42.7981 11.8334 42.6624 11.9197 42.5005 12.0012L37.7706 14.3836L38.981 16.7837L42.2391 15.1426C42.401 15.0611 42.5488 15.0105 42.6823 14.9911C42.811 14.962 42.9351 14.9831 43.0547 15.0543C43.1742 15.1255 43.2964 15.2849 43.4213 15.5325C43.5413 15.7706 43.5969 15.9636 43.5878 16.1115C43.574 16.2498 43.5123 16.3645 43.4029 16.4554C43.2887 16.5369 43.1506 16.6184 42.9886 16.6999L39.7592 18.3266L41.056 20.8981L45.8002 18.5085C45.9621 18.4269 46.1146 18.374 46.2577 18.3497C46.4055 18.3111 46.5487 18.3345 46.6873 18.4199C46.826 18.5053 46.9626 18.6814 47.0971 18.9481C47.2316 19.2147 47.2871 19.4316 47.2639 19.5986C47.2501 19.7608 47.1837 19.8897 47.0648 19.9855C46.9601 20.086 46.8268 20.177 46.6649 20.2586L41.0633 23.08Z" fill="black"/>
<path d="M29.9057 31.7073C29.6849 31.9084 29.4944 32.024 29.3344 32.0543C29.1822 32.0774 29.0401 32.0481 28.908 31.9664C28.7765 31.8697 28.6533 31.7583 28.5384 31.6321L22.3201 24.8085C22.2051 24.6823 22.1167 24.5536 22.0549 24.4224C21.9858 24.2833 21.9699 24.1392 22.0071 23.9899C22.045 23.8256 22.1744 23.643 22.3952 23.4419L24.9275 21.1373C25.2903 20.807 25.6874 20.5538 26.1186 20.3777C26.5505 20.1865 27.0044 20.0907 27.4802 20.0903C27.9489 20.082 28.4198 20.1871 28.893 20.4054C29.3669 20.6087 29.8158 20.943 30.2397 21.4081C30.5199 21.7156 30.7528 22.0662 30.9383 22.4598C31.1167 22.8456 31.2297 23.2547 31.2775 23.6872C31.326 24.1046 31.2908 24.5332 31.1721 24.973C31.0534 25.4128 30.8259 25.8362 30.4896 26.2432L28.1704 28.354L29.9809 30.3408C30.0959 30.467 30.1879 30.5996 30.2569 30.7387C30.3338 30.8706 30.3497 31.0148 30.3047 31.1712C30.2675 31.3204 30.1345 31.4991 29.9057 31.7073ZM34.7849 26.9421C34.6998 27.308 34.5644 27.5394 34.3786 27.6364C34.2006 27.7262 33.9437 27.7293 33.6077 27.6457L28.8824 26.4512L30.2859 24.7844L34.0366 25.7409C34.2907 25.7981 34.4799 25.8711 34.6042 25.9599C34.7284 26.0488 34.8021 26.1692 34.8252 26.3212C34.8483 26.4733 34.8349 26.6802 34.7849 26.9421ZM26.8772 26.9349L28.8769 25.1148C29.0189 24.9856 29.1354 24.8363 29.2264 24.667C29.3181 24.4825 29.3689 24.2849 29.3787 24.074C29.3814 23.8552 29.3388 23.6343 29.2511 23.4113C29.164 23.1732 29.0127 22.9359 28.7972 22.6994C28.5385 22.4156 28.2642 22.2254 27.9741 22.1288C27.6769 22.0243 27.379 22.0142 27.0805 22.0984C26.7827 22.1675 26.4918 22.3313 26.2078 22.5898L24.4092 24.2267L26.8772 26.9349Z" fill="black"/>
<path d="M24.3419 35.8396C24.5706 35.8537 24.7533 35.9023 24.89 35.9854C25.0232 36.0538 25.115 36.1595 25.1654 36.3024C25.2066 36.4398 25.2192 36.6347 25.2031 36.887C25.1624 37.2617 25.0603 37.5117 24.8967 37.6369C24.7387 37.7531 24.4722 37.7909 24.0973 37.7504L15.8025 36.886L20.3972 43.8334C20.5966 44.1418 20.6738 44.3946 20.6288 44.5919C20.5928 44.7947 20.4223 45.0031 20.1173 45.2172C19.9153 45.3441 19.7364 45.4226 19.5807 45.4528C19.4305 45.4739 19.2898 45.4384 19.1586 45.3462C19.0238 45.2394 18.8867 45.0749 18.7471 44.8528L13.1983 36.3335C13.0968 36.172 13.0466 35.998 13.0477 35.8115C13.0452 35.6103 13.0911 35.4322 13.1853 35.2773C13.2518 35.1679 13.3311 35.0788 13.4229 35.0098C13.5148 34.9408 13.6194 34.892 13.7367 34.8634C13.8595 34.8257 13.9923 34.8127 14.1349 34.8245L24.3419 35.8396ZM18.7666 42.0191L17.7573 40.5073L19.9275 36.9395L21.735 37.139L18.7666 42.0191Z" fill="black"/>
<path d="M17.1813 53.9808C17.0497 54.4866 16.8444 54.9788 16.5655 55.4574C16.2763 55.9332 15.9203 56.3697 15.4973 56.7667C15.064 57.161 14.577 57.4863 14.0364 57.7425C13.4881 57.9857 12.8915 58.1393 12.2467 58.2031C11.5915 58.2642 10.9026 58.2008 10.1799 58.013C9.46758 57.8278 8.85573 57.553 8.34436 57.1886C7.82267 56.8216 7.39204 56.401 7.05249 55.927C6.71563 55.4427 6.46312 54.9307 6.29497 54.391C6.12951 53.841 6.04168 53.2892 6.03149 52.7355C6.01367 52.1688 6.06676 51.626 6.19078 51.1072C6.32781 50.5807 6.50281 50.1413 6.71578 49.7889C6.92875 49.4364 7.13324 49.159 7.32924 48.9564C7.51492 48.7512 7.64432 48.614 7.71743 48.5449C7.86366 48.4065 8.02268 48.2826 8.1945 48.1729C8.35869 48.0503 8.53503 48.008 8.72355 48.0459C8.85011 48.0678 8.95964 48.1128 9.05213 48.181C9.1343 48.2464 9.21759 48.3287 9.30202 48.4278C9.44528 48.5973 9.54208 48.7547 9.59243 48.9C9.64277 49.0454 9.65183 49.18 9.61958 49.3038C9.59003 49.4174 9.53085 49.5177 9.44204 49.6049C9.35591 49.6817 9.24759 49.7802 9.11706 49.9006C9.05965 49.9518 8.96815 50.0493 8.84257 50.193C8.70936 50.3236 8.57169 50.5138 8.42957 50.7634C8.29013 51.0027 8.17205 51.3081 8.07532 51.6797C7.95979 52.1236 7.92437 52.5773 7.96906 53.0408C8.01376 53.5043 8.14662 53.9466 8.36767 54.3678C8.58107 54.7759 8.88936 55.1371 9.29255 55.4513C9.68541 55.7628 10.1709 55.9938 10.749 56.144C11.3271 56.2943 11.8688 56.3304 12.3741 56.2524C12.8691 56.1717 13.3144 56.0064 13.7101 55.7566C14.0982 55.4937 14.4247 55.1708 14.6897 54.7879C14.9547 54.4049 15.145 53.9915 15.2605 53.5476C15.3519 53.1966 15.3988 52.8892 15.4014 52.6254C15.3963 52.3485 15.3701 52.1103 15.3229 51.9106C15.268 51.698 15.2268 51.5385 15.1994 51.4322C15.1567 51.2998 15.1178 51.174 15.0827 51.0547C15.0477 50.9353 15.0449 50.8189 15.0744 50.7053C15.1067 50.5815 15.1789 50.4735 15.291 50.3814C15.4059 50.279 15.571 50.1952 15.7863 50.1299C15.9187 50.0872 16.0419 50.0586 16.1559 50.0442C16.2698 50.0297 16.3823 50.0424 16.4931 50.0822C16.6763 50.1409 16.8148 50.265 16.9087 50.4548C16.995 50.6315 17.0631 50.8145 17.113 51.0038C17.1431 51.0998 17.1944 51.284 17.2668 51.5563C17.3316 51.8156 17.3659 52.1496 17.3697 52.5584C17.3838 52.9699 17.321 53.444 17.1813 53.9808Z" fill="black"/>
<path d="M12.7698 78.4272C12.7902 78.5643 12.7948 78.7038 12.7835 78.8457C12.7707 78.977 12.7072 79.0943 12.5932 79.1975C12.4776 79.2901 12.2773 79.3576 11.9924 79.3999C11.7181 79.4407 11.5174 79.4327 11.3904 79.3761C11.2512 79.3105 11.1564 79.2168 11.1059 79.0949C11.0433 78.964 11.0026 78.8352 10.9838 78.7086L10.3978 74.7679C10.3774 74.6308 10.3789 74.4958 10.4022 74.3629C10.4151 74.2316 10.4793 74.1196 10.5949 74.0269C10.6984 73.9253 10.8926 73.8533 11.1775 73.811C11.4518 73.7703 11.6586 73.7827 11.7977 73.8483C11.9353 73.9033 12.0294 73.9918 12.0798 74.1137C12.1303 74.2356 12.1665 74.3704 12.1885 74.5182L12.7698 78.4272Z" fill="black"/>
<path d="M22.5376 94.3075C22.7816 94.7209 22.9534 95.1273 23.053 95.5267C23.1471 95.917 23.192 96.2868 23.1876 96.6361C23.1778 96.9762 23.1417 97.2823 23.0794 97.5543C23.017 97.8263 22.9413 98.0443 22.8523 98.2083C22.7574 98.4252 22.6565 98.5899 22.5495 98.7025C22.4426 98.8151 22.3131 98.8791 22.1611 98.8944C21.9945 98.9059 21.7935 98.8696 21.5581 98.7856C21.3134 98.7069 21.1505 98.5987 21.0691 98.4609C20.9732 98.3194 20.9332 98.1572 20.9492 97.9744C20.9597 97.7825 21.0097 97.5734 21.0992 97.3473C21.2631 96.9535 21.328 96.5809 21.294 96.2295C21.2508 95.8835 21.1478 95.5727 20.9851 95.2971C20.7737 94.9389 20.5434 94.6537 20.2942 94.4415C20.0359 94.2347 19.7669 94.1147 19.4872 94.0815C19.202 94.0391 18.9078 94.1073 18.6046 94.2861C18.3565 94.4323 18.2005 94.6296 18.1364 94.8778C18.0578 95.1223 18.0366 95.4011 18.0727 95.7141C18.0997 96.0325 18.1594 96.375 18.2519 96.7415C18.3297 97.1042 18.4011 97.4769 18.466 97.8597C18.5227 98.1234 18.5655 98.3954 18.5946 98.6754C18.6144 98.9609 18.6124 99.2407 18.5884 99.5148C18.5591 99.7798 18.4959 100.04 18.3989 100.295C18.2872 100.547 18.1318 100.787 17.9325 101.016C17.7332 101.245 17.4682 101.457 17.1374 101.652C16.6136 101.961 16.0783 102.103 15.5314 102.079C14.9752 102.06 14.4467 101.889 13.9459 101.565C13.4359 101.246 13.0074 100.793 12.6603 100.205C12.438 99.8287 12.2768 99.4718 12.1768 99.1345C12.0622 98.7934 11.9977 98.4848 11.9832 98.2085C11.9541 97.9285 11.9541 97.687 11.983 97.4842C11.9973 97.2777 12.0222 97.1206 12.0578 97.0129C12.1444 96.6771 12.2558 96.4566 12.392 96.3516C12.5135 96.2428 12.7507 96.2144 13.1035 96.2664C13.4655 96.313 13.7144 96.4201 13.8505 96.5875C13.9719 96.7512 14.0149 96.9921 13.9797 97.31C13.9102 97.5491 13.8729 97.7692 13.8678 97.9703C13.8535 98.1769 13.8776 98.3856 13.9401 98.5964C13.9972 98.798 14.1016 99.0274 14.2535 99.2846C14.3619 99.4683 14.4952 99.6312 14.6534 99.7732C14.7969 99.9114 14.9545 100.01 15.1261 100.07C15.2884 100.136 15.4602 100.164 15.6414 100.156C15.8172 100.14 15.9924 100.08 16.167 99.9767C16.4059 99.8358 16.5655 99.655 16.6458 99.4343C16.7115 99.2099 16.7271 98.953 16.6926 98.6638C16.6489 98.38 16.5844 98.0713 16.499 97.7378C16.4136 97.4043 16.33 97.0635 16.2484 96.7154C16.1705 96.3527 16.1138 95.9837 16.0781 95.6085C16.0424 95.2333 16.0624 94.8686 16.1382 94.5143C16.2048 94.1655 16.3536 93.8301 16.5847 93.5081C16.8066 93.1916 17.138 92.9033 17.5791 92.6433C18.0845 92.3453 18.5824 92.1817 19.073 92.1525C19.5636 92.1233 20.026 92.2036 20.4601 92.3934C20.8942 92.5832 21.2857 92.8477 21.6346 93.1869C21.9926 93.5206 22.2936 93.8942 22.5376 94.3075Z" fill="black"/>
<path d="M33.6723 107.843C33.8721 108.036 33.9887 108.214 34.0219 108.38C34.0626 108.537 34.0465 108.685 33.9736 108.822C33.9007 108.959 33.805 109.089 33.6866 109.212L27.2684 115.87C27.15 115.993 27.0311 116.093 26.9118 116.171C26.7775 116.249 26.6307 116.27 26.4716 116.236C26.3051 116.209 26.1142 116.092 25.8991 115.884L23.7432 113.787C23.1822 113.247 22.7599 112.655 22.4763 112.012C22.1849 111.361 22.0366 110.693 22.0313 110.006C22.026 109.32 22.1681 108.643 22.4574 107.974C22.7317 107.305 23.1501 106.679 23.7127 106.095C24.2901 105.496 24.9155 105.039 25.5888 104.725C26.2621 104.411 26.9456 104.24 27.6393 104.212C28.333 104.184 29.0143 104.299 29.6832 104.558C30.337 104.817 30.9521 105.224 31.5284 105.779L33.6723 107.843ZM31.6256 108.56L30.1502 107.14C29.6584 106.666 29.1245 106.36 28.5484 106.22C27.9648 106.087 27.3844 106.121 26.8071 106.32C26.2221 106.512 25.6779 106.869 25.1745 107.391C24.6637 107.921 24.3233 108.482 24.1532 109.073C23.9681 109.665 23.9601 110.249 24.1294 110.827C24.2835 111.405 24.6065 111.93 25.0983 112.404L26.5622 113.813L31.6256 108.56Z" fill="black"/>
<path d="M40.0751 112.251C40.3303 112.407 40.4921 112.561 40.5606 112.715C40.6347 112.86 40.6465 113.005 40.5962 113.149C40.5458 113.293 40.4735 113.443 40.3791 113.597L35.576 121.482C35.4872 121.627 35.3903 121.756 35.2853 121.867C35.1711 121.972 35.0372 122.028 34.8834 122.034C34.7206 122.035 34.507 121.955 34.2428 121.794C33.9876 121.639 33.8276 121.492 33.7626 121.352C33.6885 121.207 33.6767 121.063 33.727 120.919C33.7683 120.769 33.8361 120.617 33.9304 120.462L38.7335 112.577C38.8279 112.423 38.9321 112.293 39.0463 112.187C39.1457 112.085 39.2769 112.034 39.4398 112.033C39.6082 112.023 39.82 112.096 40.0751 112.251Z" fill="black"/>
<path d="M52.369 117.767C52.6505 117.867 52.8406 117.985 52.9392 118.122C53.0414 118.249 53.0826 118.388 53.0628 118.539C53.043 118.691 53.0046 118.847 52.9475 119.008L49.8551 127.723C49.7944 127.894 49.7259 128.04 49.6493 128.16C49.5592 128.286 49.4395 128.368 49.2903 128.406C49.1311 128.44 48.9057 128.405 48.6141 128.302C48.3326 128.202 48.1458 128.091 48.0537 127.967C47.9515 127.841 47.9103 127.702 47.9301 127.55C47.9398 127.395 47.975 127.232 48.0356 127.061L49.1431 123.94L43.9706 126.317C43.7491 126.431 43.5623 126.495 43.4102 126.509C43.2581 126.523 43.1206 126.48 42.9976 126.379C42.8711 126.289 42.756 126.135 42.6522 125.918C42.48 125.574 42.4277 125.306 42.4955 125.115C42.5597 124.934 42.7502 124.764 43.0671 124.605L48.37 122.291L45.6702 117.125C45.5045 116.794 45.4605 116.535 45.5383 116.348C45.6162 116.161 45.8286 115.993 46.1756 115.844C46.4237 115.751 46.6253 115.709 46.7803 115.719C46.9288 115.715 47.056 115.771 47.1617 115.888C47.2609 115.991 47.3556 116.155 47.4458 116.379L49.9992 121.527L51.1281 118.346C51.1851 118.185 51.2588 118.041 51.3489 117.915C51.429 117.785 51.5487 117.703 51.7079 117.669C51.8571 117.631 52.0775 117.664 52.369 117.767Z" fill="black"/>
<path d="M72.2022 122.97C72.3407 122.963 72.48 122.971 72.6201 122.996C72.7496 123.022 72.8602 123.096 72.952 123.219C73.0332 123.343 73.0812 123.549 73.096 123.837C73.1103 124.114 73.0832 124.313 73.0147 124.434C72.936 124.566 72.8336 124.651 72.7074 124.69C72.5712 124.74 72.4391 124.768 72.3113 124.774L68.3325 124.979C68.194 124.986 68.0598 124.972 67.9298 124.936C67.8003 124.911 67.695 124.836 67.6138 124.712C67.5226 124.599 67.4695 124.399 67.4547 124.111C67.4404 123.834 67.4726 123.63 67.5512 123.498C67.6192 123.366 67.7163 123.281 67.8424 123.242C67.9686 123.204 68.1063 123.181 68.2554 123.173L72.2022 122.97Z" fill="black"/>
<path d="M88.5092 115.241C88.7877 115.133 89.009 115.099 89.173 115.138C89.3332 115.168 89.4552 115.246 89.539 115.374C89.6228 115.502 89.6975 115.65 89.7631 115.819L93.1005 124.427C93.2316 124.765 93.2576 125.024 93.1784 125.203C93.0893 125.386 92.8657 125.547 92.5076 125.686L86.6887 127.939C86.5196 128.005 86.3627 128.043 86.2179 128.053C86.0671 128.077 85.9268 128.04 85.7971 127.941C85.6713 127.853 85.5524 127.664 85.4406 127.376C85.3326 127.097 85.2984 126.876 85.3377 126.712C85.3672 126.552 85.4458 126.43 85.5734 126.346C85.6912 126.267 85.8346 126.194 86.0037 126.128L90.9423 124.216L89.9706 121.71L86.5688 123.027C86.3997 123.092 86.2477 123.128 86.1129 123.135C85.982 123.151 85.8605 123.118 85.7485 123.036C85.6364 122.953 85.5303 122.783 85.43 122.524C85.3336 122.276 85.2971 122.078 85.3204 121.932C85.3476 121.796 85.4201 121.687 85.5379 121.607C85.6595 121.538 85.8048 121.47 85.9739 121.404L89.3459 120.099L88.3048 117.413L83.3512 119.332C83.1821 119.397 83.0252 119.435 82.8805 119.445C82.7296 119.469 82.5894 119.432 82.4597 119.334C82.33 119.235 82.2111 119.047 82.1031 118.768C81.9952 118.49 81.9609 118.269 82.0003 118.105C82.0297 117.944 82.1083 117.823 82.236 117.739C82.3499 117.649 82.4914 117.571 82.6605 117.506L88.5092 115.241Z" fill="black"/>
<path d="M100.506 107.666C100.745 107.487 100.949 107.395 101.117 107.388C101.28 107.374 101.418 107.416 101.534 107.517C101.649 107.617 101.761 107.74 101.869 107.885L107.404 115.274C107.622 115.564 107.717 115.806 107.689 116C107.652 116.201 107.48 116.416 107.173 116.646L102.176 120.384C102.031 120.493 101.89 120.571 101.754 120.62C101.623 120.678 101.483 120.677 101.331 120.617C101.186 120.565 101.021 120.416 100.835 120.168C100.656 119.929 100.564 119.726 100.557 119.557C100.543 119.395 100.585 119.256 100.686 119.141C100.778 119.033 100.896 118.924 101.041 118.815L105.269 115.652L103.657 113.501L100.749 115.677C100.604 115.786 100.467 115.861 100.339 115.904C100.209 115.961 100.08 115.958 99.9521 115.894C99.8219 115.844 99.6737 115.709 99.5075 115.487C99.354 115.282 99.2688 115.106 99.2518 114.959C99.2412 114.82 99.2819 114.697 99.3737 114.588C99.4634 114.494 99.5809 114.393 99.7261 114.284L102.621 112.118L100.31 109.032C100.201 108.887 100.119 108.742 100.063 108.597C100.006 108.467 100.007 108.326 100.067 108.174C100.12 108.014 100.267 107.845 100.506 107.666Z" fill="black"/>
<path d="M106.103 102.047C106.299 101.822 106.479 101.688 106.642 101.647C106.798 101.599 106.942 101.611 107.076 101.685C107.21 101.759 107.345 101.856 107.482 101.975L114.442 108.039C114.571 108.151 114.681 108.269 114.773 108.391C114.857 108.521 114.89 108.662 114.87 108.815C114.843 108.976 114.728 109.172 114.525 109.405C114.328 109.631 114.156 109.763 114.007 109.804C113.852 109.852 113.707 109.839 113.574 109.765C113.433 109.699 113.294 109.607 113.158 109.488L106.197 103.423C106.06 103.304 105.949 103.18 105.865 103.049C105.781 102.934 105.753 102.796 105.78 102.636C105.799 102.468 105.906 102.272 106.103 102.047Z" fill="black"/>
<path d="M113.378 91.3488C113.531 91.0797 113.683 90.9086 113.835 90.8353C113.978 90.7567 114.124 90.7357 114.275 90.7722C114.421 90.818 114.568 90.883 114.717 90.9671L122.749 95.5181C122.907 95.6075 123.043 95.7029 123.157 95.8044C123.266 95.9151 123.326 96.0472 123.337 96.2006C123.343 96.3632 123.269 96.5791 123.117 96.8482C122.969 97.1079 122.827 97.2724 122.689 97.3417C122.547 97.4203 122.403 97.4366 122.257 97.3909C122.106 97.3544 121.952 97.2914 121.794 97.202L114.416 93.0217L112.008 97.2662C111.929 97.4054 111.844 97.5228 111.753 97.6183C111.671 97.7191 111.556 97.7705 111.408 97.7723C111.269 97.7794 111.084 97.7172 110.852 97.5858C110.62 97.4543 110.466 97.3246 110.392 97.1965C110.327 97.0738 110.312 96.9488 110.347 96.8217C110.373 96.6893 110.425 96.5536 110.504 96.4144L113.378 91.3488Z" fill="black"/>
<path d="M121.536 77.0203C121.565 76.8846 121.609 76.7521 121.668 76.6229C121.726 76.5042 121.826 76.4162 121.969 76.3588C122.109 76.312 122.321 76.318 122.603 76.3769C122.874 76.4337 123.06 76.5106 123.159 76.6077C123.267 76.7174 123.323 76.8382 123.328 76.97C123.342 77.1145 123.335 77.2493 123.309 77.3746L122.493 81.2741C122.464 81.4098 122.416 81.536 122.348 81.6525C122.291 81.7713 122.192 81.8541 122.051 81.901C121.919 81.9605 121.712 81.9608 121.43 81.9018C121.158 81.8451 120.969 81.7618 120.861 81.6521C120.751 81.5528 120.693 81.4373 120.688 81.3054C120.683 81.1736 120.696 81.0346 120.726 80.8884L121.536 77.0203Z" fill="black"/>
<path d="M130.014 65.0201C129.838 65.3519 129.656 65.5448 129.469 65.5986C129.282 65.6525 129.051 65.6041 128.776 65.4534L123.009 62.5289L119.592 62.9244C119.412 62.9452 119.245 62.943 119.092 62.9178C118.95 62.902 118.829 62.8301 118.729 62.7021C118.617 62.5754 118.544 62.3637 118.51 62.067C118.474 61.7598 118.496 61.5317 118.576 61.383C118.646 61.246 118.752 61.1477 118.896 61.0882C119.041 61.0392 119.208 61.0037 119.399 60.9817L122.784 60.5899L127.712 56.4117C127.955 56.1903 128.174 56.0898 128.37 56.1101C128.567 56.141 128.783 56.2932 129.019 56.5665C129.192 56.7613 129.303 56.931 129.352 57.0757C129.402 57.2309 129.392 57.377 129.322 57.514C129.252 57.6509 129.128 57.7887 128.951 57.9274L124.753 61.3124L129.619 63.6968C129.825 63.8018 129.971 63.9084 130.059 64.0163C130.159 64.1337 130.202 64.2737 130.188 64.4363C130.186 64.5977 130.128 64.7923 130.014 65.0201Z" fill="black"/>
<path d="M113.941 45.7372C113.828 45.4607 113.785 45.2422 113.812 45.0816C113.838 44.921 113.915 44.7977 114.041 44.7116C114.177 44.6216 114.324 44.5444 114.482 44.4799L123.03 40.9937C123.188 40.9292 123.338 40.8856 123.478 40.8629C123.632 40.846 123.775 40.8856 123.907 40.9818C124.048 41.0739 124.175 41.2582 124.288 41.5347L125.57 44.675C125.748 45.1095 125.847 45.5644 125.868 46.0395C125.89 46.5147 125.819 46.9756 125.655 47.4224C125.496 47.879 125.238 48.2897 124.88 48.6545C124.526 49.0293 124.057 49.3355 123.475 49.5731C122.902 49.8068 122.358 49.9134 121.842 49.8932C121.341 49.8787 120.874 49.7641 120.44 49.5492C120.007 49.3342 119.631 49.0496 119.314 48.6953C119 48.3508 118.753 47.9564 118.572 47.512L117.658 45.2753L115.199 46.2783C115.041 46.3427 114.885 46.3834 114.73 46.4003C114.58 46.4271 114.439 46.3924 114.308 46.2962C114.18 46.2099 114.058 46.0236 113.941 45.7372ZM119.466 44.5382L120.385 46.7897C120.51 47.0958 120.682 47.3482 120.902 47.5467C121.135 47.7511 121.407 47.8819 121.719 47.9393C122.04 47.9925 122.393 47.9406 122.778 47.7835C123.124 47.6425 123.39 47.4476 123.577 47.1988C123.777 46.9558 123.894 46.6778 123.927 46.3646C123.965 46.0614 123.913 45.7369 123.772 45.3913L122.858 43.1546L119.466 44.5382Z" fill="black"/>
<path d="M106.434 34.2004C106.252 33.9634 106.153 33.7639 106.137 33.6019C106.12 33.44 106.161 33.301 106.261 33.1848C106.368 33.0622 106.49 32.949 106.625 32.8453L113.957 27.2349C114.092 27.1312 114.225 27.0499 114.355 26.9911C114.499 26.9342 114.647 26.9348 114.8 26.9931C114.96 27.0448 115.131 27.1892 115.313 27.4263L117.376 30.1188C117.661 30.4914 117.877 30.9041 118.022 31.3569C118.168 31.8098 118.22 32.2732 118.18 32.747C118.147 33.2294 118.005 33.6936 117.756 34.1397C117.513 34.5943 117.141 35.0128 116.641 35.3952C116.15 35.7712 115.653 36.0171 115.151 36.133C114.663 36.2508 114.182 36.2631 113.707 36.1696C113.233 36.0762 112.796 35.9003 112.396 35.6419C112.003 35.392 111.661 35.0765 111.369 34.6955L109.899 32.7777L107.79 34.3918C107.654 34.4955 107.514 34.5758 107.37 34.6327C107.232 34.698 107.087 34.7016 106.935 34.6434C106.789 34.5936 106.622 34.446 106.434 34.2004ZM111.449 31.5915L112.929 33.522C113.13 33.7845 113.362 33.9827 113.626 34.1165C113.905 34.2524 114.202 34.3071 114.518 34.2805C114.842 34.2474 115.169 34.1045 115.499 33.8517C115.796 33.6248 116.001 33.3668 116.116 33.0778C116.245 32.7907 116.285 32.4917 116.235 32.1808C116.191 31.8784 116.056 31.579 115.829 31.2826L114.359 29.3648L111.449 31.5915Z" fill="black"/>
<path d="M102.851 28.3484C102.816 28.5748 102.752 28.7524 102.657 28.8813C102.577 29.0079 102.464 29.0899 102.317 29.1275C102.176 29.1566 101.981 29.1519 101.731 29.1137C101.361 29.0403 101.121 28.9167 101.01 28.7428C100.909 28.5752 100.895 28.3066 100.968 27.937L102.562 19.7548L95.2322 23.7186C94.9072 23.89 94.6485 23.9447 94.4558 23.8824C94.2569 23.8288 94.0642 23.6407 93.8778 23.3183C93.7692 23.106 93.7067 22.921 93.6903 22.7633C93.6826 22.612 93.7304 22.475 93.8339 22.3525C93.9523 22.2277 94.1283 22.1056 94.362 21.9862L103.343 17.2107C103.513 17.1238 103.691 17.0891 103.876 17.1066C104.077 17.1218 104.251 17.1832 104.397 17.2906C104.5 17.3664 104.582 17.4531 104.642 17.5507C104.703 17.6482 104.742 17.7567 104.76 17.8759C104.787 18.0015 104.788 18.1348 104.764 18.2758L102.851 28.3484ZM97.1845 22.2546L98.7804 21.3826L102.145 23.8568L101.786 25.6389L97.1845 22.2546Z" fill="black"/>
<path d="M87.5958 20.3136C87.3142 20.2142 87.1222 20.1012 87.0199 19.9746C86.9176 19.8479 86.8762 19.7089 86.8958 19.5575C86.9189 19.396 86.959 19.2347 87.0158 19.0738L90.0924 10.3695C90.1493 10.2086 90.2177 10.0631 90.2976 9.93296C90.3876 9.80637 90.5072 9.72414 90.6563 9.6863C90.8155 9.652 91.041 9.68634 91.3327 9.78931C91.6143 9.88873 91.8012 9.99997 91.8935 10.123C91.9958 10.2496 92.0372 10.3887 92.0176 10.5401C92.0081 10.6951 91.9731 10.8581 91.9127 11.0291L88.8361 19.7334C88.7792 19.8943 88.7058 20.038 88.6158 20.1646C88.5358 20.2948 88.4163 20.377 88.2571 20.4113C88.0979 20.4456 87.8775 20.413 87.5958 20.3136ZM80.9875 17.9808C80.7059 17.8814 80.5139 17.7684 80.4116 17.6417C80.3193 17.5187 80.2779 17.3796 80.2875 17.2246C80.3106 17.0631 80.3506 16.9019 80.4075 16.741L83.4841 8.03674C83.5409 7.87583 83.6093 7.7303 83.6893 7.60015C83.7793 7.47356 83.9039 7.39311 84.0631 7.35882C84.2223 7.32452 84.4427 7.35708 84.7243 7.4565C85.016 7.55947 85.208 7.67249 85.3003 7.79555C85.4026 7.92217 85.4439 8.0612 85.4243 8.21265C85.4048 8.3641 85.3647 8.5253 85.3043 8.69627L82.2278 17.4006C82.1709 17.5615 82.0974 17.7052 82.0074 17.8318C81.9275 17.962 81.8079 18.0442 81.6487 18.0785C81.4996 18.1163 81.2792 18.0838 80.9875 17.9808ZM83.03 13.5945L83.6058 11.9653L89.1128 13.9093L88.5218 15.5332L83.03 13.5945Z" fill="black"/>
</svg>
