<svg width="30" height="31" viewBox="0 0 30 31" fill="none" xmlns="http://www.w3.org/2000/svg">
<g clip-path="url(#clip0_34_2727)">
<path fill-rule="evenodd" clip-rule="evenodd" d="M8.54963 19.2802C9.73916 19.914 10.9281 20.5497 12.1032 21.2097L14.7455 22.6937C13.8283 23.3872 12.8933 24.0577 11.9941 24.7742C11.6509 25.0476 11.3321 25.3514 11.0212 25.661C10.5769 26.1034 10.1522 26.6129 9.80881 27.1525C9.36067 27.8565 8.89379 29.0438 9.47096 29.8229C10.0346 30.5896 10.9801 30.7539 11.8647 30.8742C12.6452 30.9804 13.5451 30.8039 14.3283 30.681C15.9343 30.4288 17.5331 30.0502 19.1047 29.6376C20.1925 29.352 21.2317 28.9907 22.265 28.5465C22.7475 28.3391 23.4324 27.8884 23.3105 27.2623C23.2196 26.8051 22.8225 26.5045 22.4509 26.2706C21.9761 25.9718 21.4917 25.6856 21.0085 25.4004L19.025 24.2299C20.2294 23.4128 21.445 22.6116 22.6383 21.7785C23.5889 21.1152 24.4876 20.4008 25.3302 19.6046C26.1214 18.8568 26.9077 17.7474 26.7864 16.6009C26.6433 15.2481 25.2415 14.3922 24.1127 13.8957C23.5936 13.6674 23.0907 13.3967 22.5548 13.2107L18.944 11.9574C18.944 11.2715 18.9643 10.5851 18.944 9.89908C18.9141 8.88121 18.8722 7.86299 18.7935 6.84746C18.7385 6.14076 18.6535 5.43577 18.5433 4.73551C18.3334 3.39968 18.0132 1.18617 16.3289 0.94664C15.301 0.800477 14.3 1.43997 13.5817 2.11489C12.8282 2.82281 12.0874 3.54508 11.3632 4.28297C9.47178 6.2103 7.79914 8.46303 6.13839 10.6048C5.54465 11.3705 5.00983 12.1803 4.45966 12.9775C4.08913 13.5144 3.78298 14.1248 3.48772 14.7164C3.31106 15.0701 3.18097 15.487 3.20628 15.8861C3.22133 16.1234 3.42504 16.3434 3.58729 16.5004C3.90387 16.8068 4.2881 17.0333 4.66642 17.2536L8.54963 19.2802ZM11.98 8.49962C12.6523 7.80223 13.3263 7.1063 14.0105 6.42056C14.2269 6.20363 14.7397 5.62325 15.0894 5.81923C15.5797 6.09435 15.5358 7.18111 15.59 7.66075C15.6364 8.07108 15.6692 8.48305 15.7074 8.89409L15.9111 11.0831L13.4708 10.5221L11.1936 10.1474L10.6422 10.1052L10.4629 10.1003C10.9685 9.56677 11.4697 9.02883 11.98 8.49962ZM10.461 11.5284C10.4757 11.5161 10.5013 11.5203 10.519 11.525L10.6042 11.5495C10.7806 11.617 10.9514 11.6931 11.125 11.7671C11.9005 12.0984 12.676 12.4301 13.4516 12.7608C13.9655 12.9799 14.4802 13.1975 14.9941 13.4168L16.0097 13.8503L16.0999 13.8908C16.1544 14.6933 16.2214 15.495 16.2636 16.2982C16.2967 16.9254 16.3103 17.5539 16.3258 18.1818C16.332 18.4518 16.3164 18.8475 16.0425 18.9943C15.5125 19.2782 14.8148 18.6269 14.4864 18.276C14.3105 18.088 14.137 17.8971 13.974 17.6977C13.6797 17.3377 13.3737 16.9847 13.1148 16.5983C12.7583 16.0661 12.3921 15.5403 12.0452 15.0018C11.838 14.68 11.625 14.3599 11.4527 14.0181C11.2147 13.5465 10.9767 13.0748 10.7387 12.6032C10.6374 12.4025 10.5702 12.1849 10.5008 11.9714C10.476 11.8755 10.4555 11.7806 10.4393 11.6829C10.4393 11.6829 10.4221 11.5611 10.461 11.5284ZM19.1078 25.2945C19.7776 25.7202 20.4677 26.1512 21.0814 26.6685C21.1602 26.7349 21.2342 26.8072 21.304 26.8828C21.3613 26.9448 21.4114 27.0134 21.4622 27.0807C21.4764 27.0989 21.4624 27.1371 21.4474 27.151C21.4164 27.1797 21.3683 27.1845 21.328 27.1872C20.2985 27.2643 19.2681 27.335 18.2388 27.4157L14.2175 27.7317L14.0918 27.739L14.1496 27.6771L14.4028 27.4535C14.9242 27.0659 15.4288 26.6551 15.9665 26.2906L18.2439 24.747C18.5319 24.9294 18.82 25.1116 19.1078 25.2945ZM22.2052 17.3816C22.1619 17.5612 22.0002 17.7147 21.8687 17.8351C21.701 17.9884 21.5348 18.1456 21.3495 18.2769C20.7099 18.7298 20.0777 19.1934 19.4307 19.6353C18.985 19.9398 18.5258 20.2247 18.0716 20.5161L15.4291 22.2123C15.0552 21.9979 14.6811 21.7832 14.3069 21.5694L9.5221 18.8361C8.44168 18.1905 7.35441 17.5562 6.28078 16.8995C6.07847 16.7757 5.88835 16.6327 5.69535 16.4951C5.50195 16.3572 5.2365 16.1689 5.19942 15.9126C5.16879 15.6906 5.31733 15.4797 5.44543 15.3128C5.51144 15.2268 5.5833 15.145 5.65898 15.0672C6.27697 14.4313 6.90469 13.8048 7.52579 13.1718L9.20101 11.4644L9.28049 11.7398L9.4842 12.2246L9.4982 12.2545C9.94118 13.0216 10.357 13.8048 10.8267 14.5558C11.3666 15.4188 11.9459 16.2571 12.5254 17.0939C12.797 17.4861 13.0812 17.8702 13.3797 18.2422C13.6398 18.5659 13.9089 18.8846 14.2008 19.1803C14.4575 19.4404 14.7375 19.6778 15.0227 19.9065C15.4457 20.2457 15.972 20.5037 16.5239 20.5054C16.7138 20.506 16.9043 20.471 17.0798 20.3981C17.6351 20.1678 17.9712 19.5686 18.1494 19.0248C18.3385 18.4479 18.5288 17.8078 18.5931 17.1906L18.8097 15.1052C19.3047 15.3357 19.8106 15.5445 20.2948 15.7968C20.7679 16.0431 21.2202 16.3277 21.6788 16.6001C21.9124 16.7389 22.2333 17.007 22.2153 17.3139C22.2141 17.3367 22.2106 17.3593 22.2052 17.3816Z" fill="#00001B"/>
</g>
<defs>
<clipPath id="clip0_34_2727">
<rect width="30" height="29.9812" fill="white" transform="translate(0 0.925598)"/>
</clipPath>
</defs>
</svg>
