<svg width="36" height="37" viewBox="0 0 36 37" fill="none" xmlns="http://www.w3.org/2000/svg">
<g clip-path="url(#clip0_34_2850)">
<path d="M8.40078 24.3992C6.41537 24.3992 4.80078 26.0128 4.80078 27.997C4.80078 29.9811 6.41537 31.5947 8.40078 31.5947C10.3862 31.5947 12.0008 29.9811 12.0008 27.997C12.0008 26.0128 10.3861 24.3992 8.40078 24.3992ZM8.40078 30.3954C7.07715 30.3954 6.0008 29.3197 6.0008 27.997C6.0008 26.6742 7.07722 25.5985 8.40078 25.5985C9.72434 25.5985 10.8008 26.6742 10.8008 27.997C10.8008 29.3197 9.72434 30.3954 8.40078 30.3954Z" fill="#00001B"/>
<path d="M28.7992 24.3992C26.8138 24.3992 25.1992 26.0128 25.1992 27.997C25.1992 29.9811 26.8138 31.5947 28.7992 31.5947C30.7846 31.5947 32.3992 29.9811 32.3992 27.997C32.3992 26.0128 30.7846 24.3992 28.7992 24.3992ZM28.7992 30.3954C27.4756 30.3954 26.3992 29.3197 26.3992 27.997C26.3992 26.6742 27.4757 25.5985 28.7992 25.5985C30.1229 25.5985 31.1992 26.6742 31.1992 27.997C31.1992 29.3197 30.1229 30.3954 28.7992 30.3954Z" fill="#00001B"/>
<path d="M35.9053 21.0768L30.5053 12.682C30.395 12.5105 30.2048 12.4068 30.0007 12.4068H23.4008C23.069 12.4068 22.8008 12.6754 22.8008 13.0064V27.9969C22.8008 28.3285 23.069 28.5965 23.4008 28.5965H25.8007V27.3973H24.0007V13.606H29.6731L34.8007 21.5774V27.3974H31.8007V28.5966H35.4007C35.7325 28.5966 36.0007 28.3286 36.0007 27.997V21.4011C36.0008 21.2866 35.9678 21.1732 35.9053 21.0768Z" fill="#00001B"/>
<path d="M26.3992 20.2003V16.003H31.1992V14.8037H25.7992C25.4674 14.8037 25.1992 15.0723 25.1992 15.4033V20.7999C25.1992 21.1315 25.4674 21.3995 25.7992 21.3995H34.7992V20.2003H26.3992V20.2003Z" fill="#00001B"/>
<path d="M23.4 8.2063H0.599977C0.268805 8.2063 0 8.47493 0 8.8059V27.9939C0 28.3255 0.268805 28.5935 0.599977 28.5935H5.4V27.3942H1.20002V9.4055H22.8V27.3942H11.4V28.5935H23.4C23.7318 28.5935 24 28.3255 24 27.9939V8.8059C24 8.47493 23.7318 8.2063 23.4 8.2063Z" fill="#00001B"/>
<path d="M4.20156 24.9926H0.601562V26.1926H4.20156V24.9926Z" fill="#00001B"/>
<path d="M22.8016 24.9926H12.6016V26.1926H22.8016V24.9926Z" fill="#00001B"/>
<path d="M35.4 24.9926H33V26.1926H35.4V24.9926Z" fill="#00001B"/>
<path d="M23.3985 10.6032H2.39844V11.8032H23.3985V10.6032Z" fill="#00001B"/>
<path d="M9.0008 27.3974H7.80078V28.5974H9.0008V27.3974Z" fill="#00001B"/>
<path d="M29.3992 27.3974H28.1992V28.5974H29.3992V27.3974Z" fill="#00001B"/>
<path d="M10.7985 5.80936H2.39844V7.00938H10.7985V5.80936Z" fill="#00001B"/>
<path d="M1.20002 5.80936H0V7.00938H1.20002V5.80936Z" fill="#00001B"/>
</g>
<defs>
<clipPath id="clip0_34_2850">
<rect width="36" height="35.9774" fill="white" transform="translate(0 0.710999)"/>
</clipPath>
</defs>
</svg>
