<svg width="66" height="81" viewBox="0 0 66 81" fill="none" xmlns="http://www.w3.org/2000/svg">
<g opacity="0.42">
<path d="M52.6847 1.56639L50.0588 8.94579C49.9463 9.26175 49.7238 9.51223 49.4428 9.63842L42.8826 12.592C41.9558 13.0093 41.9558 14.4853 42.8826 14.9025L49.4428 17.8565C49.7238 17.983 49.9463 18.2334 50.0588 18.5494L52.6847 25.9288C53.0555 26.9713 54.3678 26.9713 54.7386 25.9288L57.3645 18.5494C57.477 18.2334 57.6995 17.983 57.9805 17.8565L64.5408 14.9025C65.4675 14.4853 65.4675 13.0096 64.5408 12.592L57.9809 9.63842C57.6999 9.51191 57.4774 9.26143 57.3648 8.94579L54.739 1.56639C54.3678 0.523605 53.0558 0.523605 52.6847 1.56639Z" fill="#00001B"/>
<path d="M32.7046 62.0995L30.7567 67.5731C30.6733 67.8076 30.5083 67.9932 30.2999 68.0872L25.4337 70.2782C24.7461 70.5878 24.7461 71.6823 25.4337 71.9919L30.2999 74.1829C30.5083 74.2768 30.6733 74.4624 30.7567 74.6969L32.7046 80.1706C32.9798 80.9438 33.9529 80.9438 34.2282 80.1706L36.176 74.6969C36.2594 74.4624 36.4244 74.2768 36.6328 74.1829L41.499 71.9919C42.1863 71.6823 42.1863 70.5878 41.499 70.2782L36.6328 68.0872C36.4244 67.9932 36.2594 67.8076 36.176 67.5731L34.2282 62.0995C33.9529 61.3263 32.9798 61.3263 32.7046 62.0995Z" fill="#00001B"/>
<path d="M0 15.3687C0 18.5335 2.56705 21.0992 5.73415 21.0992C8.90093 21.0992 11.468 18.5335 11.468 15.3687C11.468 12.2039 8.90093 9.63812 5.73415 9.63812C2.56705 9.63812 0 12.2036 0 15.3687Z" fill="#00001B"/>
<path d="M33.4562 43.1155C34.7804 43.1155 35.8538 42.0427 35.8538 40.7194C35.8538 39.396 34.7804 38.3232 33.4562 38.3232C32.132 38.3232 31.0586 39.396 31.0586 40.7194C31.0586 42.0427 32.132 43.1155 33.4562 43.1155Z" fill="#00001B"/>
</g>
</svg>
