<svg width="174" height="174" viewBox="0 0 174 174" fill="none" xmlns="http://www.w3.org/2000/svg">
<path opacity="0.49" d="M172.9 86.9156C172.9 85.7851 172.878 84.6597 172.835 83.5398L171.935 83.5746C171.849 81.3337 171.675 79.115 171.418 76.9219L172.312 76.8171C172.048 74.5696 171.698 72.3485 171.264 70.1574L170.381 70.3322C169.946 68.137 169.427 65.9723 168.827 63.8414L169.693 63.5974C169.081 61.424 168.385 59.2857 167.609 57.1859L166.765 57.4978C165.991 55.4029 165.137 53.3469 164.206 51.3335L165.023 50.9559C164.077 48.9095 163.053 46.9066 161.955 44.9511L161.17 45.3919C160.078 43.4486 158.913 41.5526 157.676 39.7076L158.424 39.2066C157.171 37.3364 155.846 35.5182 154.453 33.7558L153.747 34.3138C152.367 32.5671 150.92 30.8758 149.409 29.244L150.069 28.6326C148.542 26.9826 146.951 25.3927 145.299 23.8667L144.688 24.5278C143.055 23.0188 141.363 21.573 139.614 20.1943L140.172 19.4877C138.408 18.0969 136.589 16.7736 134.717 15.5219L134.217 16.27C132.371 15.0354 130.474 13.8711 128.53 12.7809L128.97 11.9959C127.014 10.899 125.01 9.87648 122.963 8.93204L122.586 9.74926C120.572 8.82009 118.515 7.96735 116.42 7.19476L116.731 6.35033C114.631 5.57602 112.492 4.88138 110.319 4.27006L110.075 5.13645C107.944 4.53711 105.779 4.01872 103.584 3.58482L103.758 2.7019C101.567 2.26882 99.3459 1.91903 97.0983 1.65596L96.9937 2.54986C94.8006 2.29317 92.5819 2.11991 90.341 2.03335L90.3757 1.13402C89.2558 1.09076 88.1304 1.06893 87 1.06893C85.8696 1.06893 84.7442 1.09076 83.6243 1.13402L83.659 2.03335C81.4181 2.11991 79.1994 2.29317 77.0063 2.54986L76.9016 1.65597C74.6541 1.91903 72.433 2.26882 70.2417 2.7019L70.4162 3.58482C68.2209 4.01873 66.0559 4.53711 63.9248 5.13645L63.6811 4.27006C61.5075 4.88138 59.3688 5.57603 57.2687 6.35033L57.5801 7.19477C55.4846 7.96735 53.428 8.82009 51.414 9.74927L51.037 8.93204C48.9898 9.87648 46.9862 10.899 45.03 11.9959L45.4701 12.7809C43.5259 13.8711 41.6288 15.0354 39.7829 16.27L39.2825 15.5219C37.4111 16.7736 35.5917 18.0968 33.8282 19.4877L34.3855 20.1943C32.6375 21.573 30.9449 23.0187 29.3117 24.5278L28.7009 23.8667C27.0494 25.3927 25.458 26.9826 23.9306 28.6326L24.5911 29.244C23.0804 30.8758 21.6331 32.5671 20.2529 34.3138L19.5468 33.7558C18.1543 35.5182 16.8294 37.3364 15.5761 39.2066L16.3238 39.7076C15.0875 41.5526 13.9216 43.4486 12.8299 45.3919L12.0452 44.9511C10.9468 46.9066 9.92266 48.9095 8.97677 50.9559L9.79373 51.3335C8.86308 53.3469 8.00897 55.4029 7.23513 57.4978L6.39089 57.1859C5.61525 59.2857 4.9194 61.424 4.30702 63.5974L5.17329 63.8415C4.57288 65.9723 4.05356 68.137 3.61888 70.3322L2.73602 70.1574C2.30214 72.3486 1.9517 74.5696 1.68814 76.8171L2.58202 76.9219C2.32484 79.1151 2.15126 81.3337 2.06453 83.5746L1.16521 83.5398C1.12187 84.6598 1.1 85.7851 1.1 86.9156C1.1 88.046 1.12187 89.1714 1.16521 90.2913L2.06454 90.2565C2.15126 92.4974 2.32484 94.7161 2.58202 96.9092L1.68815 97.014C1.9517 99.2615 2.30214 101.483 2.73603 103.674L3.61888 103.499C4.05357 105.694 4.57288 107.859 5.17329 109.99L4.30702 110.234C4.91941 112.407 5.61526 114.545 6.3909 116.645L7.23514 116.333C8.00898 118.428 8.86308 120.484 9.79373 122.498L8.97678 122.875C9.92266 124.922 10.9468 126.925 12.0452 128.88L12.8299 128.439C13.9216 130.382 15.0875 132.279 16.3238 134.123L15.5761 134.624C16.8294 136.495 18.1543 138.313 19.5468 140.075L20.2529 139.517C21.6331 141.264 23.0804 142.955 24.5911 144.587L23.9306 145.199C25.458 146.849 27.0494 148.438 28.7009 149.964L29.3117 149.303C30.9449 150.812 32.6375 152.258 34.3855 153.637L33.8282 154.343C35.5917 155.734 37.4111 157.057 39.2825 158.309L39.7829 157.561C41.6288 158.796 43.5259 159.96 45.4701 161.05L45.03 161.835C46.9862 162.932 48.9898 163.955 51.037 164.899L51.414 164.082C53.428 165.011 55.4846 165.864 57.5801 166.636L57.2687 167.481C59.3688 168.255 61.5075 168.95 63.6812 169.561L63.9248 168.695C66.0559 169.294 68.2209 169.812 70.4162 170.246L70.2417 171.129C72.433 171.562 74.6541 171.912 76.9017 172.175L77.0063 171.281C79.1994 171.538 81.4181 171.711 83.659 171.798L83.6243 172.697C84.7442 172.74 85.8696 172.762 87 172.762C88.1304 172.762 89.2558 172.74 90.3757 172.697L90.341 171.798C92.5819 171.711 94.8006 171.538 96.9937 171.281L97.0984 172.175C99.3459 171.912 101.567 171.562 103.758 171.129L103.584 170.246C105.779 169.812 107.944 169.294 110.075 168.695L110.319 169.561C112.492 168.95 114.631 168.255 116.731 167.481L116.42 166.636C118.515 165.864 120.572 165.011 122.586 164.082L122.963 164.899C125.01 163.955 127.014 162.932 128.97 161.835L128.53 161.05C130.474 159.96 132.371 158.796 134.217 157.561L134.717 158.309C136.589 157.057 138.408 155.734 140.172 154.343L139.614 153.637C141.363 152.258 143.055 150.812 144.688 149.303L145.299 149.964C146.951 148.438 148.542 146.849 150.069 145.199L149.409 144.587C150.92 142.955 152.367 141.264 153.747 139.517L154.453 140.075C155.846 138.313 157.171 136.495 158.424 134.624L157.676 134.123C158.913 132.279 160.078 130.382 161.17 128.439L161.955 128.88C163.053 126.925 164.077 124.922 165.023 122.875L164.206 122.498C165.137 120.484 165.991 118.428 166.765 116.333L167.609 116.645C168.385 114.545 169.081 112.407 169.693 110.234L168.827 109.99C169.427 107.859 169.946 105.694 170.381 103.499L171.264 103.674C171.698 101.483 172.048 99.2615 172.312 97.014L171.418 96.9092C171.675 94.7161 171.849 92.4974 171.935 90.2565L172.835 90.2913C172.878 89.1714 172.9 88.046 172.9 86.9156Z" stroke="#00001B" stroke-width="1.8" stroke-dasharray="7 7"/>
</svg>
