<svg width="87" height="80" viewBox="0 0 87 80" fill="none" xmlns="http://www.w3.org/2000/svg">
<path opacity="0.39" d="M84.6687 41.9129C85.485 43.7589 86.0598 45.6297 86.3561 47.5172L85.8622 47.5947C86.0106 48.5407 86.0872 49.4899 86.0872 50.4415C86.0872 51.4867 86.0352 52.4439 85.9352 53.3189L86.432 53.3757C86.1638 55.7229 85.5556 57.5206 84.6653 58.861L84.2488 58.5843C83.1815 60.1911 81.6833 61.093 79.83 61.4743L79.9308 61.964C78.2335 62.3132 76.2787 62.2418 74.1467 61.8778L74.2308 61.3849C72.4879 61.0873 70.6156 60.589 68.6565 59.9591L68.5034 60.4351C66.7276 59.8641 64.89 59.1886 63.0242 58.4625L63.2056 57.9966C61.4242 57.3033 59.6163 56.5633 57.8077 55.8221L57.6181 56.2847C57.5702 56.2651 57.5223 56.2454 57.4743 56.2258C55.7082 55.502 53.9465 54.7799 52.2169 54.1037L52.3989 53.6381C50.5189 52.903 48.6712 52.2198 46.8936 51.6461L46.74 52.1219C44.7486 51.4792 42.8501 50.9765 41.0952 50.6943L41.1746 50.2006C40.1388 50.034 39.1442 49.9415 38.2025 49.9415C37.246 49.9415 36.2753 50.1102 35.2985 50.4163L35.448 50.8934C33.8359 51.3985 32.1736 52.3037 30.4895 53.4911L30.2014 53.0824C28.7479 54.1071 27.2845 55.3342 25.8289 56.6872L26.1694 57.0534C24.8419 58.2874 23.5157 59.6322 22.2041 61.0315L21.8393 60.6896C20.5631 62.0511 19.3019 63.4629 18.0686 64.8727L18.445 65.2019C17.4294 66.3628 16.4315 67.5239 15.4581 68.6564C15.2301 68.9218 15.0034 69.1855 14.7781 69.4474L14.3991 69.1213C13.1117 70.6176 11.8746 72.0467 10.7018 73.343L11.0726 73.6784C9.65988 75.2399 8.33816 76.6115 7.13581 77.6744L6.80464 77.2998C5.81379 78.1758 4.93378 78.8127 4.17504 79.171C3.41196 79.5314 2.84973 79.5747 2.43199 79.4016L2.24057 79.8635C1.1793 79.4237 0.476139 77.8949 0.220371 74.9035L0.718553 74.8609C0.648876 74.046 0.612706 73.1154 0.612706 72.0601C0.612706 71.0177 0.609208 69.9458 0.603447 68.8483L0.103454 68.8509C0.0936127 66.9763 0.0771587 65.0263 0.0602356 63.0206C0.0585319 62.8187 0.0568235 62.6163 0.0551166 62.4133L0.555099 62.4091C0.537469 60.3122 0.520007 58.1582 0.509611 55.9686L0.00961715 55.971C-0.000446548 53.8514 -0.00389249 51.6983 0.00553648 49.5319L0.505532 49.5341C0.514834 47.3967 0.536678 45.2469 0.577068 43.1039L0.0771569 43.0945C0.117844 40.9358 0.177334 38.7835 0.261761 36.6574L0.761367 36.6773C0.8477 34.5032 0.960122 32.3575 1.10517 30.2612L0.606365 30.2267C0.758436 28.029 0.946334 25.8845 1.1776 23.8176L1.6745 23.8732C1.9226 21.6557 2.22052 19.5305 2.57738 17.5272L2.08513 17.4395C2.48636 15.1871 2.96215 13.0847 3.52563 11.1748L4.0052 11.3163C4.6726 9.0542 5.45953 7.08206 6.38326 5.46307L5.94898 5.21528C7.16534 3.08339 8.62548 1.52429 10.377 0.69098L10.5918 1.14248C11.4745 0.722504 12.4379 0.5 13.4954 0.5C14.3192 0.5 15.2713 0.568875 16.338 0.705469L16.4015 0.209518C18.0821 0.424736 20.0228 0.802954 22.1637 1.33116L22.0439 1.8166C23.7937 2.24834 25.6804 2.78148 27.6706 3.40911L27.821 2.93226C29.6012 3.49368 31.4625 4.12988 33.3812 4.83575L33.2086 5.305C34.9831 5.95781 36.8073 6.67056 38.6623 7.43917L38.8537 6.97725C40.6274 7.71214 42.4289 8.49783 44.2419 9.33076L44.0332 9.78511C45.7864 10.5906 47.5503 11.4403 49.3102 12.3311L49.536 11.885C51.2738 12.7647 53.0078 13.6843 54.7236 14.6408L54.4802 15.0775C56.1869 16.029 57.8754 17.0168 59.5314 18.0379L59.7938 17.6123C61.4718 18.647 63.1169 19.7159 64.7148 20.816L64.4313 21.2278C66.0599 22.349 67.6383 23.5022 69.1511 24.6838L69.4589 24.2898C71.0341 25.5201 72.5395 26.7819 73.9578 28.0712L73.6214 28.4412C75.0997 29.7852 76.4809 31.1577 77.7456 32.5544L78.1162 32.2188C79.4763 33.721 80.7047 35.2528 81.7772 36.8088L81.3655 37.0926C82.505 38.7459 83.4628 40.4223 84.2114 42.1152L84.6687 41.9129Z" stroke="#00001B" stroke-dasharray="6 6"/>
</svg>
