<svg width="116" height="116" viewBox="0 0 116 116" fill="none" xmlns="http://www.w3.org/2000/svg">
<g opacity="0.3" clip-path="url(#clip0_34_2917)">
<path d="M10.6449 111.15L12.193 104.967L7.92387 103.281L4.9914 108.114C4.9914 108.114 6.60818 112.499 4.8125 116.005C4.8139 116.005 7.06086 112.178 10.6449 111.15ZM7.77682 108.313C8.30233 108.097 8.90801 108.343 9.12507 108.859C9.34388 109.375 9.09461 109.969 8.56911 110.185C8.0436 110.4 7.43792 110.154 7.22086 109.638C6.99994 109.12 7.24957 108.526 7.77682 108.313Z" fill="#FF9B24"/>
<path d="M55.4394 39.4346C43.1455 49.5175 27.0509 70.287 13.4015 94.5488L13.3938 94.5394L11.0078 98.7497L13.552 99.7286L14.8964 96.1866C22.1782 83.0609 41.9328 48.7827 78.054 26.0081C78.054 26.0081 91.5018 17.9988 104.751 6.92188C101.526 9.61837 95.1617 12.9983 91.7111 15.1787C82.6547 20.9008 71.4787 26.2784 55.4394 39.4346Z" fill="#FF9B24"/>
<path d="M11.6232 75.3999C8.82764 85.2809 8.98763 92.8064 10.0695 94.8744H11.7605C16.4298 85.2028 38.9186 50.1687 52.9165 39.2024C67.4191 27.8398 78.6063 21.2285 88.0153 16.4069C91.3193 14.7141 94.7086 12.4213 97.765 10.1229C101.476 7.19602 105.239 4.0654 108.533 1.00164L98.9837 7.26464L103.242 0.752021L95.1123 9.01831L100.402 0C87.8876 1.12908 76.2739 7.39033 76.2739 7.39033C71.6277 12.9013 67.8858 21.6682 67.8858 21.6682C67.7563 17.2846 70.7252 10.6466 70.7252 10.6466C68.5314 11.6483 60.1965 16.409 60.1965 16.409C56.1196 19.791 54.8532 28.6836 54.8532 28.6836C54.0781 25.1759 56.7879 18.414 56.7879 18.414C45.0444 25.178 36.6563 36.7003 36.6563 36.7003C30.8502 48.0972 35.6242 56.9898 33.8169 54.8608C32.0097 52.7318 32.3983 44.9665 32.3983 44.9665C20.1388 56.7405 18.8497 62.3751 18.8497 62.3751C16.7855 67.385 14.9782 80.787 14.9782 80.787C13.8166 79.534 14.9782 72.5207 14.9782 72.5207C12.0097 78.7837 13.4301 84.6696 13.4301 84.6696C12.0115 84.1672 11.6232 75.3999 11.6232 75.3999Z" fill="#FF9B24"/>
<path d="M108.531 4.97656C108.531 4.97656 103.811 9.55066 97.7628 14.0978C88.2817 21.5756 79.1527 27.6884 79.1527 27.6884C43.3894 48.8214 23.4615 83.309 16.875 95.1341H20.3767C21.6143 94.1419 23.473 93.3937 31.2348 91.1467C41.0416 88.3074 46.8914 82.3798 46.8914 82.3798C46.8914 82.3798 37.9453 87.3898 33.7293 86.8891C29.5134 86.3885 23.8484 87.9744 23.8484 87.9744C23.8484 87.9744 21.6851 86.9728 32.3527 85.3865C43.0203 83.8002 60.5696 71.8606 60.5696 71.8606C60.5696 71.8606 53.8592 74.6159 50.7629 74.3645C47.6666 74.1132 40.0098 74.3645 40.0098 74.3645C45.0846 73.1952 49.8165 73.8639 57.5591 70.9409C65.3016 68.0179 64.8713 68.2692 64.8713 68.2692C73.646 65.3462 77.2909 56.246 77.2909 56.246C75.7732 56.8307 64.182 58.2493 59.374 56.8307C54.5657 55.4121 46.374 56.8307 46.374 56.8307C54.1165 54.2427 55.838 55.4121 57.7289 55.3284C59.6215 55.2447 65.7305 55.7454 77.8605 51.5714C89.9905 47.3975 93.4313 42.2198 93.4313 42.2198L85.2508 43.3129C90.5924 42.4141 96.6134 38.8798 96.6134 38.8798C92.9135 39.8815 87.1494 40.3821 87.1494 40.3821C93.9456 38.8798 97.7313 36.7925 97.7313 36.7925C104.097 31.9499 105.56 24.7693 105.56 24.7693C96.5259 27.8579 89.3869 26.4393 89.3869 26.4393C101.776 25.6053 105.217 22.431 106.936 21.6807C108.658 20.9287 109.366 17.819 109.366 17.819C103.107 20.0737 96.0095 20.4487 96.0095 20.4487C103.687 19.2587 110.266 15.3757 110.266 15.3757V11.4888C107.298 13.1798 102.074 14.4955 102.074 14.4955L110.203 9.23592C110.66 6.60454 108.531 4.97656 108.531 4.97656Z" fill="#FF9B24"/>
<path d="M8.24609 101.726L13.081 103.663L13.9815 101.522L9.14691 99.5859L8.24609 101.726Z" fill="#FF9B24"/>
<path d="M61.9747 99.9377C46.0002 107.618 30.6538 112.852 10.2442 113.538C8.33999 113.603 8.33054 115.507 10.2442 115.442C28.5021 114.829 43.6941 110.904 58.3452 104.037C74.6663 96.3862 89.6567 89.9748 110.1 87.7961C111.986 87.5941 111.184 85.7606 109.312 85.9605C91.2066 87.8917 76.4963 92.957 61.9747 99.9377Z" fill="#FF9B24"/>
</g>
<defs>
<clipPath id="clip0_34_2917">
<rect width="116" height="116" fill="white"/>
</clipPath>
</defs>
</svg>
