<svg width="142" height="24" viewBox="0 0 142 24" fill="none" xmlns="http://www.w3.org/2000/svg">
<path d="M3.06818 1.30915C2.13435 0.719206 0.899094 0.997981 0.309143 1.93181C-0.280792 2.86564 -0.00202942 4.10091 0.931808 4.69085L3.06818 1.30915ZM33.6295 5.53703L33.7787 3.54261L33.6295 5.53703ZM72.6925 9.47007L72.4863 11.4594L72.6925 9.47007ZM142 12L122.067 0.337804L121.934 23.4314L142 12ZM0.931808 4.69085C1.20636 4.8643 1.47496 4.94201 1.55632 4.96576C1.68564 5.00351 1.81519 5.03259 1.92711 5.05517C2.15379 5.10092 2.42326 5.14281 2.70941 5.18174C3.28792 5.26045 4.04858 5.3422 4.91432 5.42425C6.65192 5.58892 8.89569 5.76246 11.1337 5.92028C15.5603 6.23245 20.1461 6.49594 20.7306 6.49594V2.49594C20.7328 2.49594 20.7122 2.49581 20.6555 2.494C20.6038 2.49235 20.5356 2.48977 20.4501 2.48613C20.2794 2.47888 20.0523 2.46799 19.7749 2.4537C19.2208 2.42514 18.4783 2.38364 17.6095 2.33217C15.8722 2.22925 13.6395 2.08706 11.4151 1.93019C9.18782 1.77312 6.98146 1.60222 5.2917 1.44209C4.44377 1.36173 3.74646 1.28599 3.24866 1.21826C2.99663 1.18397 2.82335 1.1554 2.71844 1.13423C2.66457 1.12336 2.65611 1.11986 2.67719 1.12601C2.68837 1.12927 2.72498 1.1402 2.77718 1.16067C2.81987 1.17742 2.93211 1.22319 3.06818 1.30915L0.931808 4.69085ZM20.7306 6.49594C24.9426 6.49594 28.9525 7.19273 33.4803 7.53146L33.7787 3.54261C29.7913 3.2443 25.0889 2.49594 20.7306 2.49594V6.49594ZM33.4803 7.53146C46.4556 8.50217 59.4819 10.1116 72.4863 11.4594L72.8987 7.48073C60.0005 6.14389 46.8287 4.5189 33.7787 3.54261L33.4803 7.53146ZM72.4863 11.4594C87.9571 13.0629 106.732 13.6802 123.974 13.896L124.024 9.89631C106.813 9.6809 88.1846 9.06505 72.8987 7.48073L72.4863 11.4594Z" fill="#FEF0D5"/>
</svg>
