<svg width="36" height="35" viewBox="0 0 36 35" fill="none" xmlns="http://www.w3.org/2000/svg">
<path d="M23.4078 24.6567L23.1074 24.6533L22.9634 24.9169L18.1858 33.6572L18.1857 33.6571L18.1801 33.668C18.021 33.9766 17.8089 34.182 17.543 34.3093C17.2527 34.4484 16.9701 34.4934 16.6844 34.456C16.3758 34.4156 16.0913 34.3076 15.8257 34.128C15.6031 33.9768 15.4316 33.748 15.3243 33.4043C15.3243 33.4041 15.3242 33.404 15.3242 33.4038L12.3801 23.8948L12.2906 23.6056L11.9928 23.5509L2.18159 21.7497C1.82044 21.675 1.55931 21.5262 1.36884 21.3185L1.36747 21.317C1.15881 21.0914 1.03003 20.8335 0.975455 20.5334C0.917364 20.2141 0.937442 19.9307 1.02381 19.6733C1.09943 19.448 1.27181 19.2019 1.59385 18.9439L9.75364 13.1584L9.99921 12.9843L9.96024 12.6858L8.67704 2.85729L8.67677 2.85531C8.63107 2.51584 8.68843 2.22856 8.83665 1.97212L8.83706 1.97141C9.00449 1.68063 9.21103 1.47211 9.45438 1.32966C9.69765 1.18725 9.98125 1.10881 10.3182 1.10452C10.6131 1.10138 10.8913 1.19218 11.1654 1.39854L11.167 1.39974L19.1088 7.33045L19.35 7.51057L19.622 7.38169L28.6616 3.09915C29.0442 2.94464 29.3432 2.9148 29.5767 2.95919C29.8434 3.00989 30.1003 3.13111 30.3504 3.33812C30.5857 3.53294 30.7483 3.77168 30.8439 4.06385C30.9309 4.33263 30.9321 4.63385 30.8205 4.98529L27.5877 14.4221L27.4896 14.7085L27.6979 14.9282L34.548 22.1507C34.5481 22.1507 34.5481 22.1508 34.5482 22.1509C34.7954 22.4126 34.9109 22.6741 34.9339 22.9421C34.9606 23.2618 34.9155 23.5629 34.7996 23.8519C34.6923 24.1193 34.5147 24.3437 34.2513 24.5287C34.0101 24.6982 33.7272 24.7827 33.3802 24.7702L33.3802 24.7701L33.3679 24.7699L23.4078 24.6567Z" stroke="white"/>
</svg>
