<svg width="45" height="43" viewBox="0 0 45 43" fill="none" xmlns="http://www.w3.org/2000/svg">
<path d="M20.0816 13.8659L19.4231 13.5576C19.3415 13.5194 19.2665 13.4837 19.1954 13.45C19.0558 13.3836 18.9312 13.3243 18.8005 13.2667L18.8005 13.2667C15.1799 11.6697 11.4962 11.6746 7.72472 13.5361L7.7247 13.5361C6.25093 14.2635 4.97486 15.275 3.89079 16.5114C0.176427 20.7475 -0.269862 26.6644 3.30021 31.1048L2.91086 31.4178L3.30022 31.1048C4.6938 32.8381 6.50776 34.0753 8.66076 34.9175L8.47861 35.3832L8.66077 34.9175C10.5298 35.6487 12.53 35.9703 14.6108 36.1204C15.1287 36.1577 15.6491 36.1925 16.1712 36.2273C18.0278 36.3511 19.9041 36.4763 21.757 36.7266L21.69 37.2221L21.757 36.7266C27.0277 37.4386 31.8559 39.1453 36.1744 41.9885C36.1745 41.9885 36.1745 41.9885 36.1745 41.9885L20.0816 13.8659ZM20.0816 13.8659L20.1338 13.1407M20.0816 13.8659L20.1338 13.1407M20.1338 13.1407C20.1777 12.5307 20.2534 11.9565 20.3728 11.3886L19.8835 11.2857M20.1338 13.1407L19.8835 11.2857M19.8835 11.2857L20.3728 11.3886C21.0331 8.2484 22.6217 5.6152 25.3082 3.58079M19.8835 11.2857L25.3082 3.58079M25.3082 3.58079C30.2928 -0.193889 37.1959 0.188217 41.1385 4.34732M25.3082 3.58079L41.1385 4.34732M41.1385 4.34732C41.8564 5.10465 42.4652 5.93156 42.9436 6.8419M41.1385 4.34732L42.9436 6.8419M42.9436 6.8419C44.0341 8.91687 44.4144 11.1715 44.2159 13.5817M42.9436 6.8419L44.2159 13.5817M44.2159 13.5817C44.0464 15.641 43.409 17.6221 42.485 19.5609M44.2159 13.5817L42.485 19.5609M42.485 19.5609C42.0941 20.3811 41.6893 21.1964 41.2824 22.0159M42.485 19.5609L41.2824 22.0159M41.2824 22.0159L41.2326 22.1164M41.2824 22.0159L41.2326 22.1164M41.2326 22.1164C40.8095 22.9684 40.3849 23.8251 39.9762 24.6889M41.2326 22.1164L39.9762 24.6889M39.9762 24.6889C38.2936 28.2449 37.036 31.9194 36.4882 35.7654M39.9762 24.6889L36.4882 35.7654M36.4882 35.7654C36.1999 37.7893 36.1037 39.8094 36.1872 41.8252L36.4882 35.7654ZM36.1939 41.9666C36.1946 41.9795 36.1952 41.9915 36.1958 42.0025L36.1939 41.9666Z" stroke="#8E56FF"/>
</svg>
