<svg width="64" height="64" viewBox="0 0 64 64" fill="none" xmlns="http://www.w3.org/2000/svg">
<path d="M42.7475 9.55908L21.6582 16.4365C19.8265 17.0152 17.7287 19.0478 17.0926 20.8605L9.22526 42.0415C8.67523 43.5314 9.18825 44.3901 9.54696 44.7603C9.90566 45.1305 10.7079 45.6292 12.2543 45.1675L14.0051 44.5875L20.382 51.1686C19.9206 52.1739 20.1033 53.4324 20.9004 54.255C21.6975 55.0776 22.9496 55.2999 23.9279 54.9103L27.7763 62.5856L32.9589 57.5638L25.4086 53.4754C25.87 52.4701 25.6462 51.2515 24.8491 50.4289C24.0121 49.5651 22.7998 49.384 21.7805 49.8135L16.0811 43.9316L19.2973 42.8887L27.5873 51.4441C27.7069 51.5675 27.8676 51.651 28.0694 51.6947C28.5142 51.7422 37.4011 53.2593 45.2161 45.6868C53.0311 38.1142 51.7548 29.1428 51.7201 28.7777C51.6828 28.5746 51.6043 28.4113 51.4848 28.2879L43.2346 19.7737L45.7765 12.6851C46.3266 11.1951 45.8135 10.3364 45.4548 9.96626C45.055 9.63593 44.2541 9.05626 42.7475 9.55908ZM49.9693 29.3576C50.1083 30.818 50.3971 38.1942 43.9806 44.4117C37.5641 50.6292 30.2006 50.1081 28.7454 49.9232L21.2127 42.1493L33.6726 37.9712C34.5686 37.6613 35.5506 37.0287 36.3733 36.2316C37.237 35.3946 37.9002 34.433 38.1984 33.5061L42.4764 21.6249L49.9693 29.3576ZM44.0847 12.0914L41.5004 19.3008C41.2948 19.5001 41.21 19.7418 41.2871 19.986L36.5464 32.9535C36.1211 34.2429 34.4347 35.877 33.0914 36.3014L17.0077 41.678L28.2003 27.9616C28.5306 27.5618 28.4586 26.9936 28.0986 26.7044C27.6987 26.3741 27.1306 26.4461 26.8414 26.8061L13.8725 42.7222L11.7142 43.4578C11.1846 43.652 10.903 43.526 10.903 43.526C10.8632 43.4849 10.786 43.2407 10.9968 42.7174L18.8243 21.4953C19.0775 20.8512 19.5749 20.13 20.1918 19.5322C20.8499 18.8945 21.6276 18.3802 22.2382 18.1873L43.3275 11.3099C43.8571 11.1157 44.0988 11.2005 44.1785 11.2828C44.1785 11.2828 44.2544 11.608 44.0847 12.0914Z" fill="white"/>
</svg>
