<svg width="98" height="91" viewBox="0 0 98 91" fill="none" xmlns="http://www.w3.org/2000/svg">
<path opacity="0.36" d="M1.6941 88.6516C1.43749 80.2934 5.51089 71.5826 13.6078 70.6793C19.8054 69.9879 27.5919 72.4819 32.717 76.4203C35.2891 78.3969 38.9321 82.9287 35.6087 85.5782C31.0357 89.2236 22.3226 82.007 19.7157 74.5197C15.8424 63.3951 18.2871 52.2408 24.7918 44.1699C32.8611 34.1577 47.5389 24.9058 60.4868 31.5257C66.5244 34.6126 69.775 38.9511 72.1019 45.7365C73.9544 51.1383 75.3553 57.9267 71.7936 62.4805C65.9319 69.9749 57.2598 63.0436 53.0239 55.9235C44.4403 41.4959 47.8079 20.9679 59.9288 12.9036C70.5606 5.83012 83.4203 3.14641 95.9554 1.87435" stroke="#8E56FF" stroke-width="3" stroke-linecap="round"/>
</svg>
