<svg width="142" height="24" viewBox="0 0 142 24" fill="none" xmlns="http://www.w3.org/2000/svg">
<path d="M138.932 22.6909C139.866 23.2808 141.101 23.002 141.691 22.0682C142.281 21.1344 142.002 19.8991 141.068 19.3091L138.932 22.6909ZM108.371 18.463L108.221 20.4574L108.371 18.463ZM69.3075 14.5299L69.5137 12.5406L69.3075 14.5299ZM0 12L19.9331 23.6622L20.0663 0.56857L0 12ZM141.068 19.3091C140.794 19.1357 140.525 19.058 140.444 19.0342C140.314 18.9965 140.185 18.9674 140.073 18.9448C139.846 18.8991 139.577 18.8572 139.291 18.8183C138.712 18.7395 137.951 18.6578 137.086 18.5758C135.348 18.4111 133.104 18.2375 130.866 18.0797C126.44 17.7676 121.854 17.5041 121.269 17.5041V21.5041C121.267 21.5041 121.288 21.5042 121.345 21.506C121.396 21.5076 121.464 21.5102 121.55 21.5139C121.721 21.5211 121.948 21.532 122.225 21.5463C122.779 21.5749 123.522 21.6164 124.391 21.6678C126.128 21.7707 128.361 21.9129 130.585 22.0698C132.812 22.2269 135.019 22.3978 136.708 22.5579C137.556 22.6383 138.254 22.714 138.751 22.7817C139.003 22.816 139.177 22.8446 139.282 22.8658C139.335 22.8766 139.344 22.8801 139.323 22.874C139.312 22.8707 139.275 22.8598 139.223 22.8393C139.18 22.8226 139.068 22.7768 138.932 22.6909L141.068 19.3091ZM121.269 17.5041C117.057 17.5041 113.048 16.8073 108.52 16.4685L108.221 20.4574C112.209 20.7557 116.911 21.5041 121.269 21.5041V17.5041ZM108.52 16.4685C95.5444 15.4978 82.5181 13.8884 69.5137 12.5406L69.1013 16.5193C81.9995 17.8561 95.1713 19.4811 108.221 20.4574L108.52 16.4685ZM69.5137 12.5406C54.0429 10.9371 35.2681 10.3198 18.0257 10.104L17.9757 14.1037C35.1865 14.3191 53.8154 14.935 69.1013 16.5193L69.5137 12.5406Z" fill="#FEF0D5"/>
</svg>
