<svg width="54" height="54" viewBox="0 0 54 54" fill="none" xmlns="http://www.w3.org/2000/svg">
<g opacity="0.5" clip-path="url(#clip0_34_3547)">
<path d="M16.3282 36.2491C16.1768 36.2063 16.0148 36.2222 15.8746 36.2936C15.7345 36.365 15.6263 36.4866 15.5719 36.6342L14.656 39.1227C14.5988 39.2782 14.6057 39.4501 14.6752 39.6006C14.7447 39.751 14.8711 39.8677 15.0266 39.925L22.492 42.6726C22.6091 42.7157 22.7364 42.7227 22.8576 42.6927C22.9787 42.6628 23.0881 42.5973 23.1717 42.5046L25.7257 39.6725L28.9952 46.7549L30.13 46.2307L26.4607 38.2872C26.4173 38.1934 26.3513 38.1117 26.2686 38.0496C26.1859 37.9875 26.089 37.9469 25.9868 37.9314C25.8845 37.916 25.78 37.9261 25.6826 37.961C25.5853 37.9958 25.4981 38.0543 25.4288 38.1312L22.5246 41.3543L16.0447 38.9679L16.5454 37.609L21.5353 39.0217C21.6538 39.0555 21.7797 39.0534 21.8971 39.0159C22.0145 38.9783 22.1181 38.9069 22.195 38.8105L24.4457 35.9953C24.6268 35.7689 24.8575 35.5872 25.1201 35.4642L28.9267 33.7058L29.7272 39.3346C29.7395 39.4204 29.7695 39.5028 29.8154 39.5765C29.8613 39.6501 29.922 39.7134 29.9936 39.7623L33.0063 41.8129C33.0955 41.8735 33.1988 41.91 33.3063 41.9188C33.4137 41.9277 33.5217 41.9085 33.6196 41.8633C33.7174 41.8181 33.802 41.7483 33.8649 41.6608C33.9279 41.5732 33.9671 41.4709 33.9788 41.3637L34.3705 37.7405C34.3797 37.6542 34.3709 37.567 34.3445 37.4843C34.3182 37.4016 34.2749 37.3254 34.2175 37.2603L30.4519 33.0013L34.2619 31.2413C34.5263 31.1194 34.8154 31.0606 35.1064 31.0694L38.7066 31.1847C38.8298 31.1886 38.9514 31.156 39.0561 31.0909C39.1608 31.0259 39.244 30.9314 39.2951 30.8192L41.4543 26.1041L42.8096 26.6043L40.4235 33.0862L36.0924 33.2053C35.9885 33.2075 35.8868 33.2356 35.7965 33.287C35.7062 33.3384 35.6301 33.4115 35.5752 33.4997C35.5202 33.5879 35.4881 33.6884 35.4818 33.7921C35.4755 33.8958 35.4951 33.9995 35.5389 34.0937L39.2082 42.0372L40.343 41.513L37.0713 34.4302L40.8777 34.3242C41.0024 34.3207 41.1232 34.2799 41.2245 34.207C41.3259 34.1342 41.4031 34.0327 41.4462 33.9157L44.1939 26.4503C44.2511 26.2948 44.2442 26.1229 44.1747 25.9724C44.1052 25.822 43.9788 25.7053 43.8233 25.648L41.3348 24.7321C41.1871 24.6779 41.0244 24.6813 40.8792 24.7418C40.7339 24.8023 40.6168 24.9153 40.5512 25.0583L38.3226 29.9211L35.1479 29.8193C34.6619 29.8047 34.1792 29.903 33.7377 30.1065L31.1215 31.315C31.6036 30.5767 31.8325 29.7016 31.7735 28.8218C31.7145 27.9419 31.3708 27.1052 30.7944 26.4379C30.2179 25.7706 29.44 25.309 28.5781 25.1227C27.7161 24.9365 26.817 25.0358 26.0165 25.4056C25.216 25.7754 24.5575 26.3956 24.1405 27.1726C23.7235 27.9496 23.5707 28.8411 23.7051 29.7127C23.8394 30.5842 24.2537 31.3883 24.8854 32.0036C25.517 32.6189 26.3317 33.012 27.2065 33.1235L24.5959 34.3294C24.1561 34.5332 23.7693 34.8361 23.4659 35.2142L21.4733 37.7057L16.3282 36.2491ZM33.0991 37.881L32.8491 40.194L30.926 38.8848L30.3393 34.7607L33.0991 37.881ZM25.1703 30.2775C24.9371 29.7726 24.8588 29.2097 24.9454 28.6603C25.032 28.1108 25.2796 27.5993 25.6568 27.1906C26.0341 26.7818 26.5241 26.4941 27.0649 26.3638C27.6057 26.2335 28.173 26.2666 28.695 26.4587C29.217 26.6508 29.6704 26.9934 29.9977 27.4432C30.325 27.893 30.5116 28.4297 30.5338 28.9855C30.5561 29.5414 30.413 30.0913 30.1227 30.5658C29.8325 31.0403 29.408 31.4181 28.903 31.6514C28.2257 31.9633 27.4524 31.9939 26.7526 31.7363C26.0528 31.4787 25.4838 30.9541 25.1703 30.2775Z" fill="#FF9B24"/>
<path d="M18.941 10.0895C19.6934 9.74189 20.5531 9.70746 21.3309 9.99373C22.1087 10.28 22.7409 10.8635 23.0884 11.6159C23.436 12.3683 23.4704 13.228 23.1842 14.0058C22.8979 14.7836 22.3144 15.4158 21.562 15.7633C21.4115 15.8329 21.2948 15.9593 21.2375 16.1149C21.1803 16.2704 21.1872 16.4424 21.2567 16.5928L22.8293 19.9972L23.964 19.473L22.635 16.5957C23.3382 16.1389 23.8953 15.4896 24.24 14.7252C24.5847 13.9607 24.7025 13.1133 24.5792 12.2838C24.4559 11.4543 24.0969 10.6778 23.5448 10.0465C22.9927 9.41534 22.2709 8.9561 21.4652 8.72351C20.6595 8.49091 19.8039 8.49477 19.0004 8.73462C18.1968 8.97447 17.4791 9.4402 16.9328 10.0764C16.3864 10.7125 16.0344 11.4923 15.9186 12.3229C15.8028 13.1534 15.9282 13.9997 16.2798 14.7611L17.4146 14.2369C17.068 13.4843 17.0341 12.6251 17.3203 11.8476C17.6064 11.0701 18.1893 10.4378 18.941 10.0895Z" fill="#FF9B24"/>
<path d="M23.4609 21.3601L24.5957 20.8359L25.2247 22.1977L24.09 22.7218L23.4609 21.3601Z" fill="#FF9B24"/>
<path d="M36.0113 15.6706C36.6735 15.7877 37.3553 15.7135 37.9768 15.4568C38.5982 15.2 39.1336 14.7713 39.52 14.221C39.9064 13.6707 40.1279 13.0216 40.1584 12.3499C40.1888 11.6782 40.0271 11.0117 39.6921 10.4286C39.3572 9.84557 38.8629 9.37015 38.2672 9.05816C37.6715 8.74616 36.9992 8.61053 36.3292 8.66717C35.6592 8.72381 35.0192 8.97039 34.4844 9.37795C33.9495 9.78552 33.542 10.3372 33.3097 10.9682L34.4849 11.3988C34.7057 10.8392 35.1337 10.3862 35.6799 10.1339C36.2261 9.88159 36.8484 9.84942 37.4177 10.044C37.6994 10.1475 37.958 10.3055 38.1786 10.5089C38.3992 10.7124 38.5775 10.9574 38.7034 11.2298C38.8293 11.5023 38.9002 11.7969 38.9121 12.0967C38.924 12.3966 38.8766 12.6959 38.7727 12.9775C38.552 13.5372 38.124 13.9903 37.5778 14.2426C37.0316 14.4949 36.4092 14.527 35.8399 14.3322C35.6844 14.275 35.5125 14.2819 35.362 14.3514C35.2116 14.4209 35.0949 14.5473 35.0376 14.7028L34.0303 17.4345L35.2002 17.8656L36.0113 15.6706Z" fill="#FF9B24"/>
<path d="M33.2227 19.6179L33.6246 18.5258L34.7977 18.9575L34.3957 20.0497L33.2227 19.6179Z" fill="#FF9B24"/>
<path d="M8.28488 27.0617C8.00316 26.9582 7.7446 26.8003 7.52399 26.5968C7.30338 26.3933 7.12504 26.1484 6.99919 25.8759C6.87334 25.6035 6.80243 25.3089 6.79054 25.009C6.77864 24.7091 6.82598 24.4098 6.92985 24.1283C7.15071 23.5687 7.57869 23.1156 8.12486 22.8634C8.67103 22.6111 9.29341 22.5789 9.86268 22.7735C10.1443 22.8771 10.4028 23.0352 10.6233 23.2386C10.8438 23.4421 11.0221 23.6871 11.1479 23.9595C11.2737 24.2319 11.3447 24.5264 11.3566 24.8263C11.3686 25.1261 11.3214 25.4253 11.2177 25.7069C11.1605 25.8625 11.1674 26.0343 11.2369 26.1848C11.3064 26.3353 11.4328 26.4519 11.5883 26.5092L14.3197 27.5098L14.7514 26.3369L12.5557 25.5288C12.709 24.6592 12.5314 23.7638 12.0578 23.0187C11.5841 22.2735 10.8488 21.7326 9.99641 21.5023C9.14403 21.272 8.23634 21.3691 7.4519 21.7743C6.66746 22.1796 6.06307 22.8637 5.75765 23.6921C5.59687 24.1278 5.52358 24.5909 5.54197 25.055C5.56035 25.519 5.67006 25.9749 5.86481 26.3965C6.05956 26.8181 6.33553 27.1971 6.67693 27.512C7.01833 27.8268 7.41846 28.0712 7.85442 28.2313L8.28488 27.0617Z" fill="#FF9B24"/>
<path d="M15.4102 27.9148L15.8419 26.7417L16.934 27.1437L16.5023 28.3168L15.4102 27.9148Z" fill="#FF9B24"/>
</g>
<defs>
<clipPath id="clip0_34_3547">
<rect width="40" height="40" fill="white" transform="translate(0 16.7742) rotate(-24.7938)"/>
</clipPath>
</defs>
</svg>
