<svg width="36" height="36" viewBox="0 0 36 36" fill="none" xmlns="http://www.w3.org/2000/svg">
<path d="M1.04178 18.9092C1.37094 24.5529 5.01071 30.1622 10.4691 32.8165C9.13501 32.6115 7.8526 32.5609 6.38796 32.627C5.71614 32.6572 5.53842 33.5917 6.14298 33.8863C7.38985 34.4939 10.9441 34.9565 12.3478 35.0439C14.8755 35.2013 17.4221 35.0572 19.9159 34.6149C20.9956 34.4234 22.2449 34.2463 23.293 33.8389C27.2069 32.8436 30.9892 29.9444 33.0374 26.9065C36.5689 21.6688 35.6359 13.0103 31.7694 7.82591C29.5717 4.87924 25.9033 2.29031 20.7415 1.87691C10.9341 0.10519 0.374529 7.57384 1.04178 18.9092ZM29.9483 8.46937C33.884 13.6454 34.0991 21.3156 30.4604 26.7073C26.7922 32.1379 19.4951 34.7224 13.3483 33.0343C6.92794 31.265 2.2301 25.1655 1.8621 18.8611C0.973271 3.75397 20.785 -3.58138 29.9483 8.46937Z" fill="#00001B"/>
<path d="M0.992564 7.25498L3.00054 8.26205C3.20446 8.36354 3.45083 8.28077 3.55196 8.07851C3.65363 7.8757 3.57176 7.62902 3.36869 7.52682L1.36071 6.51975C1.15791 6.41915 0.910961 6.49995 0.809292 6.70329C0.707622 6.9061 0.789493 7.15331 0.992564 7.25498Z" fill="#00001B"/>
<path d="M5.19187 4.93742C4.68967 4.06093 4.04434 3.28663 3.27379 2.63595C3.10069 2.48933 2.84116 2.5118 2.69454 2.68518C2.54819 2.85855 2.57013 3.11754 2.7435 3.26416C3.44048 3.85224 4.02427 4.55269 4.47858 5.34624C4.59091 5.54165 4.84107 5.61191 5.03963 5.49821C5.23655 5.38584 5.30451 5.13434 5.19187 4.93742Z" fill="#00001B"/>
<path d="M7.36475 3.99829C7.58869 3.96244 7.74146 3.75215 7.70561 3.52794L7.3404 1.24519C7.30455 1.02045 7.09533 0.865801 6.86951 0.904329C6.64557 0.940181 6.4928 1.15048 6.52865 1.37468L6.89386 3.65743C6.93034 3.88536 7.14637 4.03513 7.36475 3.99829Z" fill="#00001B"/>
<path d="M14.2296 12.6606C14.9159 12.2679 15.3051 11.6102 15.7683 11.1142C17.3008 9.47784 20.2786 9.40954 21.1046 11.5679C21.3112 12.1078 21.2924 12.6531 21.0522 13.1026C19.8573 15.3355 15.2909 14.3851 14.5531 19.2996C14.3685 20.5288 14.5081 21.7531 14.643 22.9373C14.6949 23.3932 14.7733 24.0818 15.265 24.5517C15.8608 25.1219 17.1607 25.0671 17.3249 24.2279C17.6707 22.4631 16.671 20.5864 17.3945 19.1921C18.2509 17.5397 20.9091 17.309 22.5866 16.2297C24.8731 14.7566 25.6096 11.5497 24.1954 9.22685C22.8555 7.02704 19.777 5.83965 17.0362 6.46144C14.4067 7.05915 12.2444 9.19047 11.6558 11.7654C11.4008 12.8793 13.3353 13.1731 14.2296 12.6606ZM17.2182 7.26303C19.632 6.71348 22.3287 7.74194 23.4933 9.65386C24.6818 11.6059 24.0627 14.3007 22.1414 15.5384C20.4465 16.6304 17.7321 16.7544 16.6646 18.8132C15.7764 20.5262 16.8312 22.4413 16.5206 24.0588C16.4262 24.1332 16.0083 24.1252 15.833 23.9577C15.577 23.7132 15.5125 23.3086 15.4595 22.8441C15.3306 21.7129 15.1973 20.5432 15.3659 19.4216C16.0307 14.9923 20.3492 16.1589 21.7767 13.49C22.1315 12.827 22.1652 12.0404 21.8722 11.2742C20.8374 8.57064 17.156 8.42967 15.1682 10.5523C14.6853 11.069 14.3509 11.6441 13.8205 11.9479C13.435 12.1699 12.5743 12.0816 12.4568 11.9484C12.9769 9.67527 14.8902 7.79224 17.2182 7.26303Z" fill="#00001B"/>
<path d="M16.8125 26.152C16.3618 25.6876 14.6903 26.6132 14.7475 28.0581C14.7877 29.0573 15.6694 29.9197 16.6736 29.9197C18.211 29.9197 19.2607 28.0475 18.0636 26.7594C17.7267 26.3971 17.2724 26.1772 16.8125 26.152ZM16.6573 29.0978C16.1096 29.0881 15.5909 28.5771 15.5689 28.0254C15.548 27.4994 15.966 26.9772 16.4818 26.8611C16.5522 26.9274 16.6461 26.9691 16.7502 26.9724C17.2875 26.9893 17.7825 27.5248 17.7596 28.0672C17.7377 28.6071 17.1852 29.1106 16.6573 29.0978Z" fill="#00001B"/>
</svg>
