<svg width="114" height="118" viewBox="0 0 114 118" fill="none" xmlns="http://www.w3.org/2000/svg">
<circle cx="72.5" cy="76.5" r="41" fill="white" stroke="#FF9B24"/>
<path d="M69.8411 72.149C69.8724 71.8747 69.6754 71.6269 69.401 71.5956L64.93 71.0853C64.6556 71.054 64.4079 71.251 64.3765 71.5254C64.3452 71.7998 64.5423 72.0475 64.8166 72.0789L68.7908 72.5324L68.3373 76.5066C68.306 76.781 68.503 77.0288 68.7773 77.0601C69.0517 77.0914 69.2995 76.8944 69.3308 76.62L69.8411 72.149ZM71.5234 83.2788L71.6085 82.7861L71.5234 83.2788ZM64.2622 65.9603L64.0221 65.5217L64.2622 65.9603ZM59.9054 77.1493L60.3877 77.0177L59.9054 77.1493ZM86.7713 84.0031L87.2501 84.1469L86.7713 84.0031ZM77.6949 57.3002L77.9687 56.8818L77.6949 57.3002ZM51.8888 78.9059L51.4051 79.0329L51.8888 78.9059ZM62.5 94.5L62.8178 94.114L62.5 94.5ZM69.0331 71.701C67.3813 73.0144 66.2013 75.6826 66.2944 78.1733C66.3416 79.4337 66.7154 80.6831 67.5532 81.7C68.3948 82.7214 69.6696 83.4657 71.4382 83.7715L71.6085 82.7861C70.0369 82.5144 68.9911 81.8725 68.325 81.0641C67.6553 80.2512 67.3345 79.2272 67.2937 78.136C67.211 75.9236 68.2818 73.576 69.6555 72.4837L69.0331 71.701ZM71.4382 83.7715C75.6485 84.4992 78.4393 84.1644 80.1444 83.0678C81.9006 81.9384 82.3796 80.0927 82.1868 78.1767L81.1918 78.2768C81.3621 79.9694 80.9335 81.3714 79.6035 82.2267C78.2225 83.1149 75.7488 83.5017 71.6085 82.7861L71.4382 83.7715ZM82.1868 78.1767C82.0124 76.443 82.0038 74.2745 81.541 72.2514C81.0686 70.1863 80.1104 68.1694 77.9878 66.6351L77.402 67.4456C79.2731 68.7981 80.1306 70.5702 80.5662 72.4744C81.0114 74.4207 81.0032 76.402 81.1918 78.2768L82.1868 78.1767ZM77.9878 66.6351C73.8631 63.6535 68.9086 62.8469 64.0221 65.5217L64.5023 66.3989C68.9988 63.9375 73.5394 64.6535 77.402 67.4456L77.9878 66.6351ZM64.0221 65.5217C61.2732 67.0264 59.5389 68.1729 58.8309 69.918C58.4747 70.7959 58.3939 71.7827 58.5125 72.9659C58.6307 74.1444 58.9505 75.5499 59.423 77.281L60.3877 77.0177C59.918 75.2968 59.617 73.9577 59.5075 72.8661C59.3985 71.7791 59.4832 70.9702 59.7576 70.2939C60.3107 68.9305 61.6971 67.9344 64.5023 66.3989L64.0221 65.5217ZM59.423 77.281C61.5637 85.1227 64.2112 88.5501 67.0814 89.9439C68.5109 90.638 69.9497 90.8035 71.3151 90.8022C71.9957 90.8016 72.6661 90.7593 73.306 90.7184C73.9515 90.6772 74.5632 90.6376 75.1532 90.6376V89.6376C74.5253 89.6376 73.8803 89.6797 73.2423 89.7205C72.5986 89.7616 71.9586 89.8016 71.3142 89.8022C70.0295 89.8034 68.7594 89.647 67.5182 89.0443C65.047 87.8443 62.5061 84.7776 60.3877 77.0177L59.423 77.281ZM75.1532 90.6376C77.2997 90.6376 79.8344 90.6428 82.0639 89.8413C84.3377 89.0239 86.2807 87.3743 87.2501 84.1469L86.2924 83.8592C85.4191 86.7664 83.7178 88.1841 81.7256 88.9003C79.689 89.6324 77.336 89.6376 75.1532 89.6376V90.6376ZM87.2501 84.1469C88.2243 80.9039 89.4261 77.6789 89.9122 74.623C90.4036 71.5341 90.1842 68.5271 88.2757 65.6818L87.4452 66.2388C89.1673 68.8063 89.3915 71.5313 88.9246 74.4659C88.4525 77.4335 87.2944 80.5235 86.2924 83.8592L87.2501 84.1469ZM88.2757 65.6818C84.572 60.16 81.1474 58.9616 77.9687 56.8818L77.4212 57.7186C80.7229 59.8788 83.8876 60.9349 87.4452 66.2388L88.2757 65.6818ZM77.9687 56.8818C77.327 56.462 76.049 55.9409 74.4563 55.4725C72.8479 54.9996 70.8713 54.5667 68.8046 54.3418C66.74 54.1171 64.5677 54.098 62.5753 54.4643C60.5843 54.8303 58.739 55.5879 57.3735 56.9451L58.0785 57.6544C59.2544 56.4856 60.8873 55.7914 62.7561 55.4478C64.6236 55.1044 66.6928 55.1179 68.6964 55.3359C70.6978 55.5537 72.6161 55.9738 74.1742 56.4319C75.748 56.8947 76.9081 57.3829 77.4212 57.7186L77.9687 56.8818ZM57.3735 56.9451C54.792 59.5109 52.6379 62.5319 51.462 66.1741C50.2848 69.8205 50.0988 74.057 51.4051 79.0329L52.3724 78.779C51.1096 73.9692 51.3007 69.9285 52.4137 66.4813C53.528 63.0298 55.577 60.1406 58.0785 57.6544L57.3735 56.9451ZM51.4051 79.0329C52.214 82.1136 52.783 84.2353 53.3067 85.7775C53.8321 87.3248 54.3245 88.329 54.9979 89.1576C55.6653 89.9788 56.489 90.5986 57.6032 91.4034C58.7249 92.2137 60.1805 93.2377 62.1822 94.886L62.8178 94.114C60.7877 92.4423 59.3062 91.4 58.1887 90.5928C57.0638 89.7801 56.3463 89.2311 55.7739 88.5269C55.2076 87.83 54.7617 86.9523 54.2536 85.4559C53.7437 83.9544 53.1841 81.8706 52.3724 78.779L51.4051 79.0329ZM62.1822 94.886C66.6249 98.5445 70.5433 99.5625 74.0236 99.4035C77.4641 99.2463 80.4498 97.9312 82.9458 97.045L82.6112 96.1027C80.0254 97.0208 77.2281 98.256 73.9779 98.4045C70.7676 98.5512 67.0876 97.6301 62.8178 94.114L62.1822 94.886ZM82.9458 97.045C85.4681 96.1495 87.8719 95.3389 89.7727 94.3407C91.6754 93.3415 93.1758 92.1039 93.7815 90.2965L92.8334 89.9788C92.3498 91.4216 91.1268 92.5001 89.3078 93.4553C87.4869 94.4116 85.1709 95.1939 82.6112 96.1027L82.9458 97.045ZM93.7815 90.2965C94.334 88.6479 95.2403 85.0945 96.1389 81.4896C97.0415 77.8681 97.9395 74.1809 98.4818 72.226L97.5182 71.9587C96.9713 73.9305 96.0676 77.6408 95.1686 81.2477C94.2654 84.8711 93.3701 88.3771 92.8334 89.9788L93.7815 90.2965Z" fill="#FF9B24"/>
<path d="M10.0431 36.4747C18.0408 40.1605 26.3501 42.9212 34.4826 46.2354M5.49234 12.3069C15.8901 22.2435 27.5321 31.1997 39.2897 39.4419M29.3904 4.75258C32.4666 14.1299 40.8388 25.8967 46.2488 34.5628" stroke="#00001B" stroke-width="4.75981" stroke-miterlimit="1.5" stroke-linecap="round" stroke-linejoin="round"/>
</svg>
