<svg width="104" height="97" viewBox="0 0 104 97" fill="none" xmlns="http://www.w3.org/2000/svg">
<circle cx="32.5" cy="1.5" r="1.5" fill="#D9D9D9"/>
<circle cx="34.5" cy="5.5" r="1.5" fill="#D9D9D9"/>
<circle cx="37.5" cy="1.5" r="1.5" fill="#D9D9D9"/>
<circle cx="39.5" cy="5.5" r="1.5" fill="#D9D9D9"/>
<circle cx="29.5" cy="10.5" r="1.5" fill="#D9D9D9"/>
<circle cx="31.5" cy="14.5" r="1.5" fill="#D9D9D9"/>
<circle cx="34.5" cy="10.5" r="1.5" fill="#D9D9D9"/>
<circle cx="36.5" cy="14.5" r="1.5" fill="#D9D9D9"/>
<circle cx="44.5" cy="14.5" r="1.5" fill="#D9D9D9"/>
<circle cx="46.5" cy="18.5" r="1.5" fill="#D9D9D9"/>
<circle cx="49.5" cy="14.5" r="1.5" fill="#D9D9D9"/>
<circle cx="51.5" cy="18.5" r="1.5" fill="#D9D9D9"/>
<circle cx="41.5" cy="23.5" r="1.5" fill="#D9D9D9"/>
<circle cx="43.5" cy="27.5" r="1.5" fill="#D9D9D9"/>
<circle cx="46.5" cy="23.5" r="1.5" fill="#D9D9D9"/>
<circle cx="48.5" cy="27.5" r="1.5" fill="#D9D9D9"/>
<circle cx="11.5" cy="8.5" r="1.5" fill="#D9D9D9"/>
<circle cx="13.5" cy="12.5" r="1.5" fill="#D9D9D9"/>
<circle cx="16.5" cy="8.5" r="1.5" fill="#D9D9D9"/>
<circle cx="18.5" cy="12.5" r="1.5" fill="#D9D9D9"/>
<circle cx="8.5" cy="17.5" r="1.5" fill="#D9D9D9"/>
<circle cx="10.5" cy="21.5" r="1.5" fill="#D9D9D9"/>
<circle cx="13.5" cy="17.5" r="1.5" fill="#D9D9D9"/>
<circle cx="15.5" cy="21.5" r="1.5" fill="#D9D9D9"/>
<circle cx="23.5" cy="21.5" r="1.5" fill="#D9D9D9"/>
<circle cx="25.5" cy="25.5" r="1.5" fill="#D9D9D9"/>
<circle cx="28.5" cy="21.5" r="1.5" fill="#D9D9D9"/>
<circle cx="30.5" cy="25.5" r="1.5" fill="#D9D9D9"/>
<circle cx="20.5" cy="30.5" r="1.5" fill="#D9D9D9"/>
<circle cx="22.5" cy="34.5" r="1.5" fill="#D9D9D9"/>
<circle cx="25.5" cy="30.5" r="1.5" fill="#D9D9D9"/>
<circle cx="27.5" cy="34.5" r="1.5" fill="#D9D9D9"/>
<circle cx="83.5" cy="20.5" r="1.5" fill="#D9D9D9"/>
<circle cx="85.5" cy="24.5" r="1.5" fill="#D9D9D9"/>
<circle cx="88.5" cy="20.5" r="1.5" fill="#D9D9D9"/>
<circle cx="90.5" cy="24.5" r="1.5" fill="#D9D9D9"/>
<circle cx="80.5" cy="29.5" r="1.5" fill="#D9D9D9"/>
<circle cx="82.5" cy="33.5" r="1.5" fill="#D9D9D9"/>
<circle cx="85.5" cy="29.5" r="1.5" fill="#D9D9D9"/>
<circle cx="87.5" cy="33.5" r="1.5" fill="#D9D9D9"/>
<circle cx="95.5" cy="33.5" r="1.5" fill="#D9D9D9"/>
<circle cx="97.5" cy="37.5" r="1.5" fill="#D9D9D9"/>
<circle cx="100.5" cy="33.5" r="1.5" fill="#D9D9D9"/>
<circle cx="102.5" cy="37.5" r="1.5" fill="#D9D9D9"/>
<circle cx="92.5" cy="42.5" r="1.5" fill="#D9D9D9"/>
<circle cx="94.5" cy="46.5" r="1.5" fill="#D9D9D9"/>
<circle cx="97.5" cy="42.5" r="1.5" fill="#D9D9D9"/>
<circle cx="99.5" cy="46.5" r="1.5" fill="#D9D9D9"/>
<circle cx="62.5" cy="27.5" r="1.5" fill="#D9D9D9"/>
<circle cx="64.5" cy="31.5" r="1.5" fill="#D9D9D9"/>
<circle cx="67.5" cy="27.5" r="1.5" fill="#D9D9D9"/>
<circle cx="69.5" cy="31.5" r="1.5" fill="#D9D9D9"/>
<circle cx="59.5" cy="36.5" r="1.5" fill="#D9D9D9"/>
<circle cx="61.5" cy="40.5" r="1.5" fill="#D9D9D9"/>
<circle cx="64.5" cy="36.5" r="1.5" fill="#D9D9D9"/>
<circle cx="66.5" cy="40.5" r="1.5" fill="#D9D9D9"/>
<circle cx="74.5" cy="40.5" r="1.5" fill="#D9D9D9"/>
<circle cx="76.5" cy="44.5" r="1.5" fill="#D9D9D9"/>
<circle cx="79.5" cy="40.5" r="1.5" fill="#D9D9D9"/>
<circle cx="81.5" cy="44.5" r="1.5" fill="#D9D9D9"/>
<circle cx="71.5" cy="49.5" r="1.5" fill="#D9D9D9"/>
<circle cx="73.5" cy="53.5" r="1.5" fill="#D9D9D9"/>
<circle cx="76.5" cy="49.5" r="1.5" fill="#D9D9D9"/>
<circle cx="78.5" cy="53.5" r="1.5" fill="#D9D9D9"/>
<circle cx="25.5" cy="43.5" r="1.5" fill="#D9D9D9"/>
<circle cx="27.5" cy="47.5" r="1.5" fill="#D9D9D9"/>
<circle cx="30.5" cy="43.5" r="1.5" fill="#D9D9D9"/>
<circle cx="32.5" cy="47.5" r="1.5" fill="#D9D9D9"/>
<circle cx="22.5" cy="52.5" r="1.5" fill="#D9D9D9"/>
<circle cx="24.5" cy="56.5" r="1.5" fill="#D9D9D9"/>
<circle cx="27.5" cy="52.5" r="1.5" fill="#D9D9D9"/>
<circle cx="29.5" cy="56.5" r="1.5" fill="#D9D9D9"/>
<circle cx="37.5" cy="56.5" r="1.5" fill="#D9D9D9"/>
<circle cx="39.5" cy="60.5" r="1.5" fill="#D9D9D9"/>
<circle cx="42.5" cy="56.5" r="1.5" fill="#D9D9D9"/>
<circle cx="44.5" cy="60.5" r="1.5" fill="#D9D9D9"/>
<circle cx="34.5" cy="65.5" r="1.5" fill="#D9D9D9"/>
<circle cx="36.5" cy="69.5" r="1.5" fill="#D9D9D9"/>
<circle cx="39.5" cy="65.5" r="1.5" fill="#D9D9D9"/>
<circle cx="41.5" cy="69.5" r="1.5" fill="#D9D9D9"/>
<circle cx="4.5" cy="50.5" r="1.5" fill="#D9D9D9"/>
<circle cx="6.5" cy="54.5" r="1.5" fill="#D9D9D9"/>
<circle cx="9.5" cy="50.5" r="1.5" fill="#D9D9D9"/>
<circle cx="11.5" cy="54.5" r="1.5" fill="#D9D9D9"/>
<circle cx="1.5" cy="59.5" r="1.5" fill="#D9D9D9"/>
<circle cx="3.5" cy="63.5" r="1.5" fill="#D9D9D9"/>
<circle cx="6.5" cy="59.5" r="1.5" fill="#D9D9D9"/>
<circle cx="8.5" cy="63.5" r="1.5" fill="#D9D9D9"/>
<circle cx="16.5" cy="63.5" r="1.5" fill="#D9D9D9"/>
<circle cx="18.5" cy="67.5" r="1.5" fill="#D9D9D9"/>
<circle cx="21.5" cy="63.5" r="1.5" fill="#D9D9D9"/>
<circle cx="23.5" cy="67.5" r="1.5" fill="#D9D9D9"/>
<circle cx="13.5" cy="72.5" r="1.5" fill="#D9D9D9"/>
<circle cx="15.5" cy="76.5" r="1.5" fill="#D9D9D9"/>
<circle cx="18.5" cy="72.5" r="1.5" fill="#D9D9D9"/>
<circle cx="20.5" cy="76.5" r="1.5" fill="#D9D9D9"/>
<circle cx="76.5" cy="62.5" r="1.5" fill="#D9D9D9"/>
<circle cx="78.5" cy="66.5" r="1.5" fill="#D9D9D9"/>
<circle cx="81.5" cy="62.5" r="1.5" fill="#D9D9D9"/>
<circle cx="83.5" cy="66.5" r="1.5" fill="#D9D9D9"/>
<circle cx="73.5" cy="71.5" r="1.5" fill="#D9D9D9"/>
<circle cx="75.5" cy="75.5" r="1.5" fill="#D9D9D9"/>
<circle cx="78.5" cy="71.5" r="1.5" fill="#D9D9D9"/>
<circle cx="80.5" cy="75.5" r="1.5" fill="#D9D9D9"/>
<circle cx="88.5" cy="75.5" r="1.5" fill="#D9D9D9"/>
<circle cx="90.5" cy="79.5" r="1.5" fill="#D9D9D9"/>
<circle cx="93.5" cy="75.5" r="1.5" fill="#D9D9D9"/>
<circle cx="95.5" cy="79.5" r="1.5" fill="#D9D9D9"/>
<circle cx="85.5" cy="84.5" r="1.5" fill="#D9D9D9"/>
<circle cx="87.5" cy="88.5" r="1.5" fill="#D9D9D9"/>
<circle cx="90.5" cy="84.5" r="1.5" fill="#D9D9D9"/>
<circle cx="92.5" cy="88.5" r="1.5" fill="#D9D9D9"/>
<circle cx="55.5" cy="69.5" r="1.5" fill="#D9D9D9"/>
<circle cx="57.5" cy="73.5" r="1.5" fill="#D9D9D9"/>
<circle cx="60.5" cy="69.5" r="1.5" fill="#D9D9D9"/>
<circle cx="62.5" cy="73.5" r="1.5" fill="#D9D9D9"/>
<circle cx="52.5" cy="78.5" r="1.5" fill="#D9D9D9"/>
<circle cx="54.5" cy="82.5" r="1.5" fill="#D9D9D9"/>
<circle cx="57.5" cy="78.5" r="1.5" fill="#D9D9D9"/>
<circle cx="59.5" cy="82.5" r="1.5" fill="#D9D9D9"/>
<circle cx="67.5" cy="82.5" r="1.5" fill="#D9D9D9"/>
<circle cx="69.5" cy="86.5" r="1.5" fill="#D9D9D9"/>
<circle cx="72.5" cy="82.5" r="1.5" fill="#D9D9D9"/>
<circle cx="74.5" cy="86.5" r="1.5" fill="#D9D9D9"/>
<circle cx="64.5" cy="91.5" r="1.5" fill="#D9D9D9"/>
<circle cx="66.5" cy="95.5" r="1.5" fill="#D9D9D9"/>
<circle cx="69.5" cy="91.5" r="1.5" fill="#D9D9D9"/>
<circle cx="71.5" cy="95.5" r="1.5" fill="#D9D9D9"/>
</svg>
