<svg width="112" height="52" viewBox="0 0 112 52" fill="none" xmlns="http://www.w3.org/2000/svg">
<g opacity="0.8" filter="url(#filter0_d_34_3469)">
<path d="M1.03645 38.7023C1.03645 38.7023 14.5862 48.1142 20.1753 43.5591C24.338 40.1665 24.5913 28.6132 24.5913 28.6132C24.5913 28.6132 32.3808 38.4945 36.6988 36.4818C40.9289 34.51 39.0054 22.4394 39.0054 22.4394C39.0054 22.4394 44.4435 31.7842 48.652 31.3619C53.687 30.8567 52.0133 16.8678 52.0133 16.8678C52.0133 16.8678 56.5523 26.3794 60.6052 26.2421C65.5008 26.0763 63.2634 12.0492 63.2634 12.0492C63.2634 12.0492 67.1515 21.4026 71.1521 21.7247C76.2338 22.1337 74.1619 7.3811 74.1619 7.3811C74.1619 7.3811 79.2325 16.3906 83.4569 16.4543C88.9332 16.5368 83.5014 4.55906 87.8729 1.50838C93.2182 -2.22196 105.254 7.11814 105.254 7.11814" stroke="#8E56FF"/>
</g>
<defs>
<filter id="filter0_d_34_3469" x="0.751953" y="0.128784" width="110.809" height="51.175" filterUnits="userSpaceOnUse" color-interpolation-filters="sRGB">
<feFlood flood-opacity="0" result="BackgroundImageFix"/>
<feColorMatrix in="SourceAlpha" type="matrix" values="0 0 0 0 0 0 0 0 0 0 0 0 0 0 0 0 0 0 127 0" result="hardAlpha"/>
<feOffset dx="6" dy="6"/>
<feComposite in2="hardAlpha" operator="out"/>
<feColorMatrix type="matrix" values="0 0 0 0 0 0 0 0 0 0 0 0 0 0 0 0 0 0 0.25 0"/>
<feBlend mode="normal" in2="BackgroundImageFix" result="effect1_dropShadow_34_3469"/>
<feBlend mode="normal" in="SourceGraphic" in2="effect1_dropShadow_34_3469" result="shape"/>
</filter>
</defs>
</svg>
