<svg width="40" height="40" viewBox="0 0 40 40" fill="none" xmlns="http://www.w3.org/2000/svg">
<g opacity="0.9">
<path d="M36.875 15.0396V13.7896C36.8754 13.5307 36.8236 13.2744 36.7226 13.036C36.6217 12.7976 36.4737 12.582 36.2875 12.4021C36.0994 12.2239 35.8775 12.0851 35.6349 11.9938C35.3923 11.9026 35.134 11.8608 34.875 11.8709C32.5691 11.9333 30.2711 12.1673 28 12.5709L27.175 12.7334C26.9979 10.9795 26.1856 9.35086 24.8912 8.15418C23.5968 6.9575 21.9095 6.27534 20.1472 6.23616C18.3848 6.19698 16.6689 6.80348 15.3225 7.94145C13.9762 9.07942 13.0924 10.6703 12.8375 12.4146C12.8375 12.5271 12.8375 12.6334 12.8375 12.7396C10.2956 12.2338 7.71568 11.9432 5.125 11.8709C4.86557 11.8634 4.60727 11.9079 4.36533 12.0018C4.12338 12.0957 3.9027 12.2372 3.71629 12.4177C3.52988 12.5983 3.38153 12.8144 3.27997 13.0533C3.17842 13.2921 3.12573 13.5489 3.125 13.8084V15.0584C2.41915 15.2025 1.78475 15.586 1.32918 16.1441C0.873615 16.7022 0.624853 17.4005 0.625 18.1209V35.6209C0.625 36.4497 0.95424 37.2446 1.54029 37.8306C1.83047 38.1208 2.17497 38.351 2.55411 38.508C2.93326 38.6651 3.33962 38.7459 3.75 38.7459H36.25C37.0788 38.7459 37.8737 38.4167 38.4597 37.8306C39.0458 37.2446 39.375 36.4497 39.375 35.6209V18.1209C39.3795 17.3973 39.1327 16.6945 38.6768 16.1326C38.2208 15.5706 37.584 15.1844 36.875 15.0396ZM14.0875 12.5896C14.2862 11.2906 14.9055 10.0926 15.8505 9.17933C16.7954 8.26604 18.0137 7.68784 19.3187 7.53339C19.545 7.5085 19.7724 7.49598 20 7.49589C21.4685 7.49238 22.8857 8.03607 23.975 9.02089C24.6307 9.60688 25.149 10.3304 25.4928 11.1398C25.8367 11.9492 25.9977 12.8245 25.9642 13.7032C25.9308 14.582 25.7038 15.4425 25.2994 16.2235C24.8951 17.0044 24.3233 17.6864 23.625 18.2209C23.0954 18.6135 22.6644 19.124 22.3661 19.7119C22.0678 20.2999 21.9104 20.9491 21.9062 21.6084C21.9046 21.8433 21.8106 22.0681 21.6445 22.2341C21.4784 22.4002 21.2536 22.4943 21.0187 22.4959H20.625V18.1209C20.6253 17.9749 20.5744 17.8333 20.4812 17.7209L18.2062 14.9959H21.6125L20.4937 16.1146C20.3914 16.2342 20.3379 16.388 20.3439 16.5453C20.35 16.7026 20.4152 16.8518 20.5265 16.9631C20.6378 17.0744 20.787 17.1396 20.9443 17.1457C21.1016 17.1518 21.2554 17.0983 21.375 16.9959L23.5625 14.8084C23.6481 14.721 23.7063 14.6105 23.7297 14.4904C23.7531 14.3703 23.7407 14.246 23.6941 14.1329C23.6476 14.0197 23.5688 13.9228 23.4676 13.854C23.3665 13.7852 23.2473 13.7476 23.125 13.7459H16.875C16.7561 13.7457 16.6397 13.7794 16.5393 13.8431C16.4389 13.9067 16.3588 13.9977 16.3082 14.1053C16.2577 14.2129 16.2389 14.3326 16.2541 14.4505C16.2692 14.5684 16.3177 14.6796 16.3937 14.7709L19.375 18.3459V22.4959H18.9812C18.8634 22.4959 18.7466 22.4726 18.6378 22.4273C18.5289 22.382 18.4301 22.3156 18.3471 22.2319C18.264 22.1483 18.1983 22.049 18.1537 21.9398C18.1092 21.8307 18.0867 21.7138 18.0875 21.5959C18.0802 20.9374 17.9208 20.2896 17.6215 19.703C17.3223 19.1164 16.8913 18.607 16.3625 18.2146C15.513 17.5678 14.8535 16.7041 14.4532 15.7143C14.0528 14.7245 13.9265 13.6451 14.0875 12.5896ZM4.375 13.8084C4.37577 13.7157 4.39513 13.624 4.43192 13.5389C4.46871 13.4538 4.52218 13.377 4.58919 13.3129C4.6562 13.2488 4.73537 13.1988 4.82203 13.1658C4.90869 13.1328 5.00109 13.1175 5.09375 13.1209C7.68543 13.1929 10.266 13.4899 12.8062 14.0084C12.878 15.0252 13.1667 16.0148 13.6529 16.9107C14.1391 17.8066 14.8115 18.5879 15.625 19.2021C16.005 19.478 16.3157 19.8384 16.5327 20.2549C16.7496 20.6714 16.8668 21.1326 16.875 21.6021C16.8749 22.1643 17.0956 22.7039 17.4896 23.1049C17.8835 23.5059 18.4192 23.7361 18.9812 23.7459H21.0187C21.3016 23.7451 21.5815 23.6884 21.8425 23.5793C22.1034 23.4701 22.3403 23.3104 22.5394 23.1095C22.7386 22.9087 22.8961 22.6704 23.003 22.4086C23.11 22.1467 23.1641 21.8663 23.1625 21.5834C23.1726 21.1177 23.2908 20.6608 23.5077 20.2487C23.7247 19.8365 24.0344 19.4804 24.4125 19.2084C25.2221 18.5905 25.8906 17.8071 26.3734 16.9104C26.8562 16.0137 27.1423 15.0244 27.2125 14.0084L28.25 13.8021C30.4489 13.4111 32.6737 13.1834 34.9062 13.1209C35 13.1161 35.0938 13.1314 35.1811 13.1659C35.2684 13.2004 35.3473 13.2533 35.4125 13.3209C35.4784 13.385 35.5307 13.4618 35.5661 13.5467C35.6016 13.6315 35.6195 13.7227 35.6187 13.8146V33.6834C35.6189 33.8604 35.5508 34.0307 35.4286 34.1588C35.3063 34.2869 35.1394 34.3628 34.9625 34.3709C30.057 34.4365 25.2022 35.374 20.625 37.1396V26.2459H21.25C21.4158 26.2459 21.5747 26.18 21.6919 26.0628C21.8092 25.9456 21.875 25.7867 21.875 25.6209C21.875 25.4551 21.8092 25.2962 21.6919 25.179C21.5747 25.0617 21.4158 24.9959 21.25 24.9959H18.75C18.5842 24.9959 18.4253 25.0617 18.3081 25.179C18.1908 25.2962 18.125 25.4551 18.125 25.6209C18.125 25.7867 18.1908 25.9456 18.3081 26.0628C18.4253 26.18 18.5842 26.2459 18.75 26.2459H19.375V37.1459C14.7989 35.3755 9.94367 34.4358 5.0375 34.3709C4.85953 34.3644 4.69102 34.2891 4.56745 34.1609C4.44387 34.0327 4.37488 33.8615 4.375 33.6834V13.8084ZM1.875 35.6209V18.1209C1.87609 17.7341 1.9968 17.357 2.22059 17.0415C2.44437 16.7259 2.76028 16.4873 3.125 16.3584V33.6834C3.12785 34.1857 3.3244 34.6675 3.67369 35.0284C4.02299 35.3893 4.49809 35.6016 5 35.6209C8.92384 35.714 12.8164 36.3448 16.5687 37.4959H3.75C3.25272 37.4959 2.77581 37.2983 2.42417 36.9467C2.07254 36.5951 1.875 36.1182 1.875 35.6209ZM38.125 35.6209C38.125 36.1182 37.9275 36.5951 37.5758 36.9467C37.2242 37.2983 36.7473 37.4959 36.25 37.4959H23.425C27.1794 36.3443 31.0741 35.7134 35 35.6209C35.5019 35.6016 35.977 35.3893 36.3263 35.0284C36.6756 34.6675 36.8721 34.1857 36.875 33.6834V16.3396C37.2427 16.4696 37.5608 16.7111 37.7848 17.0304C38.0089 17.3497 38.1278 17.7309 38.125 18.1209V35.6209Z" fill="white"/>
<path d="M6.82945 16.8748C7.65445 16.931 8.48569 17.006 9.29819 17.106H9.37319C9.53896 17.116 9.70188 17.0596 9.82612 16.9495C9.95036 16.8393 10.0257 16.6843 10.0357 16.5185C10.0456 16.3527 9.98933 16.1898 9.87915 16.0656C9.76898 15.9413 9.61396 15.866 9.44819 15.856C8.61694 15.756 7.76069 15.6748 6.91694 15.6185C6.75118 15.6077 6.58793 15.6632 6.4631 15.7728C6.33828 15.8824 6.26209 16.0371 6.25132 16.2029C6.24055 16.3686 6.29606 16.5319 6.40565 16.6567C6.51524 16.7816 6.66993 16.8577 6.83569 16.8685L6.82945 16.8748Z" fill="white"/>
<path d="M6.82945 19.4576C8.35417 19.557 9.87282 19.7343 11.3794 19.9888H11.4857C11.5678 19.9958 11.6504 19.9865 11.7289 19.9616C11.8074 19.9366 11.8802 19.8964 11.9432 19.8433C12.0062 19.7902 12.0581 19.7252 12.0959 19.6521C12.1338 19.5789 12.1568 19.499 12.1638 19.4169C12.1708 19.3349 12.1615 19.2522 12.1366 19.1737C12.1116 19.0952 12.0714 19.0224 12.0183 18.9594C11.9652 18.8965 11.9002 18.8446 11.8271 18.8067C11.7539 18.7689 11.674 18.7458 11.5919 18.7388C10.044 18.4762 8.48361 18.2926 6.91694 18.1888C6.75118 18.178 6.58793 18.2336 6.4631 18.3432C6.33828 18.4527 6.26209 18.6074 6.25132 18.7732C6.24055 18.939 6.29606 19.1022 6.40565 19.227C6.51524 19.3519 6.66993 19.428 6.83569 19.4388L6.82945 19.4576Z" fill="white"/>
<path d="M6.25122 23.1683C6.24092 23.3331 6.29628 23.4953 6.40519 23.6195C6.5141 23.7436 6.66771 23.8196 6.83247 23.8308C10.1754 24.0356 13.482 24.6378 16.6825 25.6246C16.8408 25.6743 17.0123 25.6591 17.1594 25.5823C17.3065 25.5056 17.4171 25.3735 17.4668 25.2152C17.5166 25.0569 17.5014 24.8853 17.4246 24.7382C17.3478 24.5911 17.2158 24.4805 17.0575 24.4308C13.7626 23.4056 10.3574 22.7762 6.91372 22.5558C6.82958 22.5507 6.74529 22.5627 6.66592 22.5911C6.58654 22.6194 6.51372 22.6635 6.45183 22.7208C6.38994 22.778 6.34026 22.8471 6.30579 22.924C6.27131 23.001 6.25275 23.084 6.25122 23.1683Z" fill="white"/>
<path d="M17.0607 27.5013C13.7658 26.4762 10.3606 25.8468 6.91694 25.6263C6.83487 25.621 6.75255 25.6319 6.67468 25.6583C6.59681 25.6848 6.52491 25.7264 6.4631 25.7807C6.33828 25.8902 6.26209 26.0449 6.25132 26.2107C6.24055 26.3765 6.29606 26.5397 6.40565 26.6645C6.51524 26.7894 6.66993 26.8655 6.83569 26.8763C10.1788 27.0832 13.4854 27.6875 16.6857 28.6763C16.8323 28.6978 16.9817 28.6666 17.1074 28.5881C17.2331 28.5097 17.3268 28.3891 17.3719 28.248C17.4169 28.1068 17.4104 27.9543 17.3534 27.8175C17.2964 27.6808 17.1926 27.5687 17.0607 27.5013Z" fill="white"/>
<path d="M17.0607 30.6263C13.7658 29.6011 10.3606 28.9717 6.91694 28.7513C6.75118 28.7405 6.58793 28.7961 6.4631 28.9057C6.33828 29.0152 6.26209 29.1699 6.25132 29.3357C6.24055 29.5015 6.29606 29.6647 6.40565 29.7895C6.51524 29.9144 6.66993 29.9905 6.83569 30.0013C10.1798 30.233 13.4843 30.8625 16.6794 31.8763C16.8452 31.9269 17.0243 31.9095 17.1772 31.8281C17.3302 31.7466 17.4445 31.6077 17.4951 31.4419C17.5456 31.2762 17.5283 31.0971 17.4468 30.9442C17.3653 30.7912 17.2265 30.6769 17.0607 30.6263Z" fill="white"/>
<path d="M23.1242 25.6607C23.1863 25.6701 23.2495 25.6701 23.3117 25.6607C26.5119 24.6718 29.8185 24.0675 33.1617 23.8607C33.3274 23.8499 33.4821 23.7737 33.5917 23.6489C33.7013 23.5241 33.7568 23.3608 33.7461 23.1951C33.7353 23.0293 33.6591 22.8746 33.5343 22.765C33.4094 22.6554 33.2462 22.5999 33.0804 22.6107C29.6368 22.8311 26.2316 23.4605 22.9367 24.4857C22.8546 24.498 22.7758 24.5264 22.7046 24.5691C22.6335 24.6119 22.5715 24.6683 22.5222 24.735C22.4226 24.8698 22.3806 25.0387 22.4054 25.2044C22.4303 25.3702 22.52 25.5193 22.6548 25.6189C22.7896 25.7186 22.9584 25.7606 23.1242 25.7357V25.6607Z" fill="white"/>
<path d="M23.1242 28.7076C23.1863 28.717 23.2495 28.717 23.3117 28.7076C26.5106 27.7081 29.8173 27.0934 33.1617 26.8763C33.2438 26.871 33.324 26.8495 33.3978 26.8132C33.4716 26.7769 33.5375 26.7263 33.5917 26.6645C33.646 26.6027 33.6875 26.5308 33.714 26.453C33.7405 26.3751 33.7514 26.2928 33.7461 26.2107C33.7407 26.1286 33.7193 26.0484 33.6829 25.9746C33.6466 25.9008 33.5961 25.8349 33.5343 25.7807C33.4725 25.7264 33.4006 25.6848 33.3227 25.6583C33.2448 25.6319 33.1625 25.621 33.0804 25.6263C29.6368 25.8468 26.2316 26.4762 22.9367 27.5013C22.7709 27.5262 22.6218 27.6159 22.5222 27.7507C22.4226 27.8855 22.3806 28.0543 22.4054 28.2201C22.4303 28.3858 22.52 28.5349 22.6548 28.6346C22.7896 28.7342 22.9584 28.7762 23.1242 28.7513V28.7076Z" fill="white"/>
<path d="M23.1242 31.8794C23.1863 31.8889 23.2495 31.8889 23.3117 31.8794C26.5119 30.8905 29.8185 30.2863 33.1617 30.0794C33.3274 30.0687 33.4821 29.9925 33.5917 29.8677C33.7013 29.7428 33.7568 29.5796 33.7461 29.4138C33.7353 29.2481 33.6591 29.0934 33.5343 28.9838C33.4094 28.8742 33.2462 28.8187 33.0804 28.8294C29.6398 29.0255 26.2347 29.6297 22.9367 30.6294C22.7709 30.6543 22.6218 30.744 22.5222 30.8788C22.4226 31.0136 22.3806 31.1824 22.4054 31.3482C22.4303 31.514 22.52 31.663 22.6548 31.7627C22.7896 31.8623 22.9584 31.9043 23.1242 31.8794Z" fill="white"/>
<path d="M20 4.375C20.1658 4.375 20.3247 4.30915 20.4419 4.19194C20.5592 4.07473 20.625 3.91576 20.625 3.75V1.25C20.625 1.08424 20.5592 0.925268 20.4419 0.808058C20.3247 0.690848 20.1658 0.625 20 0.625C19.8342 0.625 19.6753 0.690848 19.5581 0.808058C19.4408 0.925268 19.375 1.08424 19.375 1.25V3.75C19.375 3.91576 19.4408 4.07473 19.5581 4.19194C19.6753 4.30915 19.8342 4.375 20 4.375Z" fill="white"/>
<path d="M24.4177 6.2081C24.5 6.20857 24.5815 6.19281 24.6576 6.1617C24.7338 6.1306 24.803 6.08477 24.8614 6.02685L26.6302 4.2581C26.7326 4.13853 26.7861 3.98474 26.78 3.82744C26.7739 3.67014 26.7087 3.52093 26.5974 3.40962C26.4861 3.29831 26.3369 3.2331 26.1796 3.22703C26.0223 3.22095 25.8685 3.27446 25.7489 3.37685L23.9739 5.13935C23.8858 5.22677 23.8257 5.33846 23.8013 5.46017C23.7769 5.58189 23.7892 5.70812 23.8368 5.82277C23.8844 5.93743 23.9651 6.0353 24.0686 6.10393C24.172 6.17256 24.2936 6.20882 24.4177 6.2081Z" fill="white"/>
<path d="M15.1393 6.02529C15.2589 6.12768 15.4127 6.18118 15.57 6.17511C15.7273 6.16903 15.8765 6.10382 15.9878 5.99251C16.0991 5.8812 16.1643 5.73199 16.1704 5.57469C16.1765 5.4174 16.123 5.2636 16.0206 5.14404L14.2581 3.36904C14.1385 3.26664 13.9847 3.21314 13.8274 3.21922C13.6701 3.22529 13.5209 3.2905 13.4096 3.40181C13.2983 3.51312 13.2331 3.66233 13.227 3.81963C13.221 3.97692 13.2745 4.13072 13.3768 4.25029L15.1393 6.02529Z" fill="white"/>
</g>
</svg>
