<svg width="40" height="40" viewBox="0 0 40 40" fill="none" xmlns="http://www.w3.org/2000/svg">
<g clip-path="url(#clip0_34_3068)">
<path d="M7.37047 25.4212C6.30318 25.4212 5.25986 25.1047 4.37247 24.5117C3.48508 23.9187 2.79348 23.0759 2.38515 22.0898C1.97681 21.1037 1.87007 20.0187 2.07845 18.9719C2.28682 17.9252 2.80093 16.9637 3.55577 16.2092C4.3106 15.4546 5.27225 14.9409 6.31908 14.7329C7.36591 14.525 8.45091 14.6321 9.43683 15.0409C10.4228 15.4496 11.2653 16.1415 11.858 17.0291C12.4506 17.9168 12.7667 18.9602 12.7663 20.0275C12.7647 21.4578 12.1956 22.8291 11.1839 23.8403C10.1723 24.8516 8.80083 25.4201 7.37047 25.4212ZM7.37047 16.7369C6.71966 16.7369 6.08346 16.9299 5.54233 17.2915C5.0012 17.653 4.57944 18.167 4.33038 18.7682C4.08133 19.3695 4.01616 20.0311 4.14313 20.6694C4.2701 21.3078 4.58349 21.8941 5.04369 22.3543C5.50388 22.8145 6.0902 23.1279 6.72851 23.2548C7.36682 23.3818 8.02844 23.3166 8.62971 23.0676C9.23099 22.8185 9.7449 22.3968 10.1065 21.8556C10.468 21.3145 10.661 20.6783 10.661 20.0275C10.6605 19.1549 10.3136 18.3183 9.69664 17.7013C9.07966 17.0843 8.24301 16.7375 7.37047 16.7369Z" fill="white"/>
<path d="M13.6844 37.7898C13.4052 37.7898 13.1375 37.6789 12.9401 37.4814C12.7426 37.284 12.6317 37.0163 12.6317 36.7371V34.6318C12.6317 33.2359 12.0772 31.8972 11.0902 30.9102C10.1031 29.9231 8.76441 29.3686 7.36852 29.3686C5.97262 29.3686 4.6339 29.9231 3.64685 30.9102C2.65981 31.8972 2.10529 33.2359 2.10529 34.6318V36.7371C2.10529 37.0163 1.99439 37.284 1.79698 37.4814C1.59957 37.6789 1.33182 37.7898 1.05265 37.7898C0.773466 37.7898 0.505722 37.6789 0.308313 37.4814C0.110904 37.284 0 37.0163 0 36.7371V34.6318C4.11828e-08 32.6776 0.776324 30.8034 2.15819 29.4215C3.54005 28.0396 5.41426 27.2633 7.36852 27.2633C9.32277 27.2633 11.197 28.0396 12.5788 29.4215C13.9607 30.8034 14.737 32.6776 14.737 34.6318V36.7371C14.737 37.0163 14.6261 37.284 14.4287 37.4814C14.2313 37.6789 13.9636 37.7898 13.6844 37.7898Z" fill="white"/>
<path d="M13.6828 36.4426C13.4825 36.4424 13.2865 36.3852 13.1177 36.2776C12.9488 36.1699 12.8142 36.0164 12.7296 35.8349C12.6449 35.6535 12.6138 35.4517 12.6398 35.2531C12.6658 35.0546 12.7479 34.8676 12.8764 34.7141L27.6135 17.1139C27.7957 16.9104 28.05 16.7857 28.3225 16.7662C28.595 16.7467 28.8644 16.834 29.0737 17.0094C29.2831 17.1849 29.4161 17.4349 29.4445 17.7066C29.4729 17.9783 29.3946 18.2505 29.2261 18.4655L14.4891 36.0657C14.3904 36.1836 14.267 36.2784 14.1277 36.3435C13.9884 36.4087 13.8365 36.4424 13.6828 36.4426Z" fill="white"/>
<path d="M5.26163 12.5264C4.98245 12.5264 4.71471 12.4155 4.5173 12.2181C4.31989 12.0207 4.20898 11.753 4.20898 11.4738V3.05264C4.20898 2.77347 4.31989 2.50572 4.5173 2.30831C4.71471 2.1109 4.98245 2 5.26163 2C5.54081 2 5.80855 2.1109 6.00596 2.30831C6.20337 2.50572 6.31427 2.77347 6.31427 3.05264V11.4738C6.31427 11.753 6.20337 12.0207 6.00596 12.2181C5.80855 12.4155 5.54081 12.5264 5.26163 12.5264Z" fill="white"/>
<path d="M38.9461 4.10529H3.15616C2.87698 4.10529 2.60924 3.99439 2.41183 3.79698C2.21442 3.59957 2.10352 3.33182 2.10352 3.05265C2.10352 2.77347 2.21442 2.50572 2.41183 2.30831C2.60924 2.1109 2.87698 2 3.15616 2H38.9461C39.2253 2 39.493 2.1109 39.6904 2.30831C39.8878 2.50572 39.9987 2.77347 39.9987 3.05265C39.9987 3.33182 39.8878 3.59957 39.6904 3.79698C39.493 3.99439 39.2253 4.10529 38.9461 4.10529Z" fill="white"/>
<path d="M36.8417 27.2635C36.5625 27.2635 36.2948 27.1526 36.0974 26.9552C35.9 26.7578 35.7891 26.49 35.7891 26.2108V3.05265C35.7891 2.77347 35.9 2.50572 36.0974 2.30831C36.2948 2.1109 36.5625 2 36.8417 2C37.1209 2 37.3886 2.1109 37.586 2.30831C37.7835 2.50572 37.8944 2.77347 37.8944 3.05265V26.2108C37.8944 26.49 37.7835 26.7578 37.586 26.9552C37.3886 27.1526 37.1209 27.2635 36.8417 27.2635Z" fill="white"/>
<path d="M38.9481 27.2635H26.3163C26.0371 27.2635 25.7694 27.1526 25.572 26.9552C25.3746 26.7578 25.2637 26.49 25.2637 26.2108C25.2637 25.9317 25.3746 25.6639 25.572 25.4665C25.7694 25.2691 26.0371 25.1582 26.3163 25.1582H38.9481C39.2272 25.1582 39.495 25.2691 39.6924 25.4665C39.8898 25.6639 40.0007 25.9317 40.0007 26.2108C40.0007 26.49 39.8898 26.7578 39.6924 26.9552C39.495 27.1526 39.2272 27.2635 38.9481 27.2635Z" fill="white"/>
<path d="M30.5281 10.4213H17.8964C17.6172 10.4213 17.3495 10.3104 17.1521 10.113C16.9547 9.91555 16.8438 9.6478 16.8438 9.36862C16.8438 9.08945 16.9547 8.8217 17.1521 8.62429C17.3495 8.42688 17.6172 8.31598 17.8964 8.31598H30.5281C30.8073 8.31598 31.0751 8.42688 31.2725 8.62429C31.4699 8.8217 31.5808 9.08945 31.5808 9.36862C31.5808 9.6478 31.4699 9.91555 31.2725 10.113C31.0751 10.3104 30.8073 10.4213 30.5281 10.4213Z" fill="white"/>
<path d="M30.5258 14.6318H13.6835C13.4043 14.6318 13.1366 14.5209 12.9392 14.3235C12.7418 14.1261 12.6309 13.8583 12.6309 13.5791C12.6309 13.3 12.7418 13.0322 12.9392 12.8348C13.1366 12.6374 13.4043 12.5265 13.6835 12.5265H30.5258C30.805 12.5265 31.0728 12.6374 31.2702 12.8348C31.4676 13.0322 31.5785 13.3 31.5785 13.5791C31.5785 13.8583 31.4676 14.1261 31.2702 14.3235C31.0728 14.5209 30.805 14.6318 30.5258 14.6318Z" fill="white"/>
</g>
<defs>
<clipPath id="clip0_34_3068">
<rect width="40" height="40" fill="white"/>
</clipPath>
</defs>
</svg>
