<svg width="40" height="40" viewBox="0 0 40 40" fill="none" xmlns="http://www.w3.org/2000/svg">
<g clip-path="url(#clip0_34_3153)">
<path d="M37.3752 20.0049C38.2169 18.3271 38.8794 16.6404 39.3393 14.9784C40.7813 9.77085 40.0831 5.41018 37.3728 2.70022C34.6628 -0.0097434 30.3022 -0.708292 25.0946 0.733666C23.4326 1.19357 21.7459 1.85641 20.0681 2.69778C17.9807 1.65011 15.8902 0.883507 13.8761 0.441917C9.1977 -0.583475 5.25452 0.218528 2.77314 2.70022C1.18042 4.29293 0.256653 6.53079 0.102234 9.17209C-0.0366212 11.5482 0.444947 14.2749 1.49445 17.0838C0.63263 17.7652 0.078125 18.8187 0.078125 20C0.078125 21.1814 0.63263 22.2348 1.49445 22.9163C0.444947 25.7251 -0.0366212 28.4522 0.102234 30.828C0.256958 33.4693 1.18042 35.7072 2.77314 37.2999C4.5517 39.0787 7.04713 39.9958 10.0614 39.9958C10.6665 39.9958 11.2927 39.9589 11.9385 39.8844C14.523 39.5863 17.2846 38.7058 20.072 37.3041C21.7487 38.1449 23.4342 38.8068 25.0946 39.2664C26.8668 39.7571 28.541 40.0001 30.0855 40.0001C33.079 40.0001 35.5851 39.0876 37.3728 37.2999C39.8545 34.8185 40.6565 30.8753 39.6311 26.1966C39.1895 24.1828 38.4229 22.0923 37.3752 20.0049ZM25.4077 1.86495C30.1902 0.540794 34.1446 1.13223 36.5427 3.5303C38.9408 5.92837 39.5322 9.88285 38.2081 14.6653C37.8373 16.005 37.3279 17.363 36.6944 18.7198C35.5591 16.684 34.1629 14.6668 32.5452 12.7427C33.0408 12.1109 33.3374 11.316 33.3374 10.4526C33.3374 9.61795 33.0674 8.82938 32.5559 8.17203L31.6294 8.89255C31.9791 9.34207 32.1637 9.88163 32.1637 10.4526C32.1637 11.8552 31.0227 12.9959 29.6204 12.9959C28.2181 12.9959 27.0771 11.8552 27.0771 10.4526C27.0771 9.05002 28.2181 7.90927 29.6204 7.90927C30.0782 7.90927 30.5271 8.03195 30.918 8.2645L31.518 7.25558C30.9455 6.91531 30.2893 6.73526 29.6204 6.73526C28.7571 6.73526 27.9621 7.0322 27.3307 7.5278C25.4062 5.91006 23.389 4.51388 21.3532 3.37832C22.71 2.74508 24.068 2.23574 25.4077 1.86495ZM3.60321 3.5303C6.77674 0.356773 12.5958 0.475181 18.7879 3.37496C15.7651 5.06076 12.8003 7.31815 10.0955 10.0226C8.08991 12.0282 6.32478 14.1825 4.84192 16.4313C4.50776 16.3343 4.15619 16.2827 3.79548 16.2827C3.35144 16.2827 2.92572 16.3614 2.53052 16.5046C0.496827 10.9616 0.877687 6.25552 3.60321 3.5303ZM10.0919 38.8178C7.43653 38.8178 5.17914 38.0457 3.60291 36.4698C0.877687 33.7446 0.496522 29.0388 2.53052 23.4955C2.92572 23.639 3.35144 23.7174 3.79548 23.7174C4.15833 23.7174 4.50867 23.664 4.8407 23.5666C6.32355 25.8164 8.0893 27.9712 10.0955 29.9775C12.7994 32.681 15.7633 34.9378 18.7851 36.6236C15.6812 38.0762 12.695 38.8181 10.0919 38.8178ZM20.0696 35.9849C16.8991 34.3195 13.7683 31.9898 10.9256 29.1474C9.01551 27.237 7.33064 25.1899 5.91004 23.0549C6.87745 22.3832 7.51252 21.2647 7.51252 20.0004C7.51252 19.8902 7.50794 19.7788 7.49818 19.6692L6.32874 19.7727C6.33546 19.8478 6.33881 19.9241 6.33881 20C6.33881 21.4026 5.19776 22.5434 3.79548 22.5434C2.39319 22.5434 1.25214 21.4026 1.25214 20C1.25214 18.5975 2.39319 17.4567 3.79548 17.4567C4.7641 17.4567 5.63599 17.995 6.07056 18.8614L7.11976 18.3353C6.83289 17.7631 6.4148 17.2892 5.91248 16.941C7.33277 14.8078 9.01674 12.7616 10.9256 10.8527C13.7689 8.00937 16.901 5.67904 20.0724 4.0137C22.2309 5.14987 24.4147 6.61471 26.5305 8.3887C26.1344 8.97952 25.903 9.68936 25.903 10.4526C25.903 12.5022 27.5708 14.1697 29.6204 14.1697C30.3836 14.1697 31.0935 13.9383 31.6843 13.5422C33.4583 15.658 34.9228 17.8421 36.059 20.0004C34.3937 23.1717 32.0633 26.3038 29.2203 29.1474C28.9075 29.4599 28.5862 29.7706 28.2614 30.0748C27.6136 29.5267 26.7771 29.1953 25.864 29.1953C25.0293 29.1953 24.2408 29.4657 23.5834 29.9769L24.3042 30.9034C24.7534 30.554 25.293 30.3693 25.864 30.369C27.2663 30.369 28.4073 31.5101 28.4073 32.9124C28.4073 34.3149 27.2663 35.4557 25.864 35.4557C24.4617 35.4557 23.3206 34.3149 23.3206 32.9124C23.3206 32.4546 23.4433 32.006 23.6759 31.615L22.667 31.0148C22.3267 31.5873 22.1466 32.2434 22.1466 32.9124C22.1466 33.5013 22.2849 34.058 22.5296 34.5533C21.7072 35.0782 20.8856 35.5555 20.0696 35.9849ZM36.5427 36.4698C34.1446 38.8682 30.1902 39.4593 25.4077 38.1354C24.0689 37.7647 22.7121 37.2559 21.3562 36.623C21.9745 36.2775 22.5931 35.9067 23.2099 35.5118C23.8852 36.2009 24.8252 36.6297 25.864 36.6297C27.9135 36.6297 29.5813 34.9622 29.5813 32.9127C29.5813 32.1988 29.3787 31.532 29.0287 30.965C29.3747 30.6412 29.7171 30.3104 30.0501 29.9775C32.7549 27.2724 35.0119 24.3076 36.698 21.2848C39.5978 27.4772 39.7162 33.2963 36.5427 36.4698Z" fill="white"/>
<path d="M29.6983 26.0651H28.4855V23.1076C28.4855 21.7996 27.6063 20.6381 26.3475 20.2829L25.9086 20.1593L25.59 21.2891L26.0289 21.413C26.7839 21.626 27.3115 22.3227 27.3115 23.1076V26.0651H25.1985V24.4608H24.0248V26.0651H18.7422V27.2388H29.6983V26.0651Z" fill="white"/>
<path d="M22.0141 20.2805L24.4603 20.9708L24.7793 19.8407L22.3815 19.1644V17.6056C23.467 16.8652 24.1814 15.6192 24.1814 14.209V12.4872C24.1814 10.2219 22.3385 8.3786 20.0728 8.3786C17.8075 8.3786 15.9642 10.2219 15.9642 12.4872V14.209C15.9642 15.6192 16.6787 16.8652 17.7642 17.6056V19.1644L13.7981 20.2829C12.5392 20.6381 11.66 21.7996 11.66 23.1076V26.0651H10.4473V27.2388H17.5686V26.0651H16.1208V24.4608H14.9471V26.0651H12.834V23.1076C12.834 22.3227 13.3617 21.626 14.1167 21.413L18.1316 20.2808C18.626 20.8215 19.3242 21.135 20.0728 21.135C20.8214 21.135 21.52 20.8212 22.0141 20.2805ZM20.0728 9.55261C21.6909 9.55261 23.0074 10.8691 23.0074 12.4875V13.1412L21.7736 11.5091H17.3064C17.7102 10.3705 18.7975 9.55261 20.0728 9.55261ZM17.1383 14.209V12.6831H21.1895L22.91 14.9585C22.5777 16.2149 21.4318 17.1436 20.0728 17.1436C18.4548 17.1436 17.1383 15.827 17.1383 14.209ZM18.9382 19.4193V18.1567C19.2986 18.2608 19.6791 18.3176 20.0728 18.3176C20.4665 18.3176 20.8468 18.2608 21.2075 18.1567V19.4193C20.9316 19.7608 20.5184 19.961 20.0728 19.961C19.6273 19.961 19.2138 19.7608 18.9382 19.4193Z" fill="white"/>
<path d="M23.173 23.0466L21.5195 22.5803L21.8384 21.4506L23.4916 21.9169L23.173 23.0466Z" fill="white"/>
<path d="M25.7495 22.5519L25.4305 23.6816L24.3008 23.363L24.6197 22.2333L25.7495 22.5519Z" fill="white"/>
<path d="M29.0332 9.86572H30.2069V11.0397H29.0332V9.86572Z" fill="white"/>
<path d="M25.2773 32.3258H26.4511V33.4995H25.2773V32.3258Z" fill="white"/>
<path d="M3.20898 19.4132H4.383V20.5869H3.20898V19.4132Z" fill="white"/>
</g>
<defs>
<clipPath id="clip0_34_3153">
<rect width="40" height="40" fill="white"/>
</clipPath>
</defs>
</svg>
