<svg width="40" height="40" viewBox="0 0 40 40" fill="none" xmlns="http://www.w3.org/2000/svg">
<g clip-path="url(#clip0_34_3116)">
<path d="M39.9986 7.63292C39.9588 4.238 38.2214 2.36823 35.1065 2.36823C33.9009 2.36823 32.7392 2.64885 31.9797 2.883C32.0553 1.49534 32.0565 0.638777 32.0565 0.596199L32.0566 0.00213623H7.94402V0.596121C7.94402 0.616433 7.94605 1.48651 8.02254 2.8837C7.26316 2.6494 6.10035 2.36823 4.89355 2.36823C1.77871 2.36823 0.0412844 4.23792 0.0014406 7.63292C-0.0377781 10.9728 0.723941 13.9457 2.26527 16.4694C3.77855 18.9471 5.71277 20.4402 7.06894 21.2562C9.24105 22.5634 11.4119 22.8378 12.8507 22.8378C13.2053 22.8378 13.5471 22.821 13.8667 22.7881C13.8878 22.7859 13.9075 22.7834 13.9282 22.7811C14.6238 23.5303 15.3737 24.1303 16.175 24.5763C16.7657 24.9049 17.1766 25.4782 17.3174 26.137C16.5209 26.3849 15.941 27.129 15.941 28.006C15.941 28.9026 16.5475 29.6599 17.3714 29.8903V32.3833H14.1572V34.9849H10.9853V39.998H29.0151V34.9849H25.8432V32.3833H22.629V29.8903C23.4531 29.6598 24.0596 28.9026 24.0596 28.006C24.0596 27.1289 23.4796 26.3849 22.6832 26.137C22.8239 25.4782 23.2347 24.905 23.8255 24.5763C24.6249 24.1315 25.38 23.5282 26.0739 22.7814C26.3197 22.8087 26.6884 22.8377 27.1493 22.8377C27.1495 22.8377 27.1494 22.8377 27.1496 22.8377C28.5882 22.8377 30.759 22.5632 32.931 21.2561C34.2871 20.44 36.2214 18.9471 37.7346 16.4693C39.2762 13.9457 40.0378 10.9727 39.9986 7.63292ZM30.8588 1.1901C30.8535 1.40737 30.845 1.6805 30.8321 2.00018H9.17089C9.15746 1.68057 9.14847 1.40706 9.14269 1.1901H30.8588ZM31.6668 6.64425C32.4716 6.37635 33.5147 6.1062 34.4492 6.1062C35.2327 6.1062 35.7968 6.29761 36.126 6.67511C36.5042 7.10901 36.6262 7.83792 36.4882 8.84182C35.9138 13.0235 34.1006 16.2878 31.3825 18.033C30.4357 18.641 29.416 18.8921 28.5614 18.9814C30.369 15.1821 31.2439 10.4152 31.6668 6.64425ZM8.94496 10.782C9.52925 13.916 10.336 16.6072 11.3428 18.7809C11.374 18.8484 11.4057 18.9149 11.4373 18.9814C10.5831 18.8919 9.56402 18.6408 8.61761 18.0332C5.89957 16.2878 4.08628 13.0237 3.51183 8.84198C3.37394 7.838 3.49582 7.10901 3.87418 6.67526C4.20332 6.29776 4.76753 6.10643 5.55097 6.10643C6.48621 6.10643 7.53027 6.37698 8.33543 6.64503C8.47925 7.93112 8.67589 9.33886 8.94496 10.782ZM12.8507 21.6498C11.5625 21.6498 9.61996 21.4049 7.6816 20.2384C5.69917 19.0454 1.098 15.4303 1.18941 7.6469C1.22175 4.89432 2.43339 3.55628 4.89355 3.55628C6.20925 3.55628 7.50871 3.95292 8.10269 4.16214C8.1323 4.56065 8.1655 4.96034 8.20222 5.35839C7.3948 5.1212 6.44347 4.91823 5.55097 4.91823C4.40894 4.91823 3.54355 5.24659 2.97871 5.89425C2.36472 6.59839 2.14808 7.64448 2.3348 9.00346C2.65464 11.3317 3.32308 13.3895 4.3216 15.1196C5.2748 16.7714 6.50425 18.0879 7.97566 19.0326C9.41285 19.9555 10.9673 20.1882 12.0761 20.2105C12.0799 20.2171 12.0837 20.2233 12.0875 20.2298C12.1482 20.3363 12.2096 20.441 12.2717 20.5443C12.291 20.5766 12.3104 20.6086 12.3299 20.6406C12.389 20.7378 12.4486 20.834 12.5089 20.9283C12.5315 20.9638 12.5545 20.9984 12.5773 21.0335C12.6183 21.0966 12.6596 21.1591 12.7011 21.2209C12.7413 21.2807 12.7816 21.3398 12.8221 21.3983C12.8619 21.4556 12.9018 21.5125 12.9419 21.5687C12.9607 21.5951 12.9793 21.6225 12.9981 21.6486C12.9503 21.6494 12.9011 21.6498 12.8507 21.6498ZM27.8272 36.1731V38.81H12.1735V36.1731H14.1573H25.8433H27.8272ZM22.6292 33.5714H24.6553V34.985H15.3453V33.5714H17.3715H22.6292ZM18.5595 32.3834V29.9629H21.4411V32.3834H18.5595ZM22.8717 28.006C22.8717 28.4299 22.5267 28.7749 22.1028 28.7749H17.8979C17.4739 28.7749 17.129 28.4299 17.129 28.006C17.129 27.582 17.4739 27.2371 17.8979 27.2371H22.1028C22.5268 27.2371 22.8717 27.582 22.8717 28.006ZM25.8431 21.215C25.8365 21.2235 25.83 21.2321 25.8234 21.2406C25.765 21.3162 25.706 21.3899 25.6468 21.4627C25.6323 21.4804 25.618 21.4985 25.6034 21.5161C25.5383 21.5952 25.4727 21.6725 25.4068 21.748C25.4035 21.7516 25.4006 21.7553 25.3974 21.7589C24.735 22.5146 24.0118 23.1132 23.248 23.5382C22.3065 24.0619 21.6664 24.9921 21.4903 26.049H18.5104C18.3343 24.9921 17.6941 24.0619 16.7526 23.5382C16.0154 23.1281 15.3496 22.5799 14.7482 21.9248L14.6028 21.759C14.0122 21.0854 13.4555 20.2693 12.9482 19.3336L12.7928 19.0468C10.2384 14.1111 9.46574 6.97745 9.23277 3.18815H30.7722C30.7623 3.353 30.7514 3.52323 30.7394 3.70003C30.7389 3.70823 30.7382 3.71667 30.7377 3.72487C30.7246 3.91643 30.7105 4.10854 30.6956 4.30081C30.6952 4.30643 30.6947 4.31206 30.6943 4.31776C30.6468 4.92714 30.5906 5.53878 30.5264 6.14315L30.4876 6.50862C30.056 10.378 29.1443 15.3074 27.2219 19.0206L27.0521 19.3335C26.6744 20.0301 26.2693 20.6603 25.8431 21.215ZM32.3186 20.2384C30.38 21.4049 28.4378 21.6498 27.1498 21.6498C27.1497 21.6498 27.1496 21.6498 27.1495 21.6498C27.0989 21.6498 27.0498 21.6494 27.0019 21.6486C27.0027 21.6475 27.0035 21.6464 27.0043 21.6453C27.0814 21.5389 27.1573 21.4309 27.2321 21.3214C27.2412 21.3081 27.2502 21.2944 27.2593 21.281C27.3225 21.1879 27.3848 21.0935 27.4464 20.9982C27.4622 20.9738 27.4781 20.9492 27.4938 20.9246C27.5619 20.8177 27.6293 20.71 27.6954 20.6005C27.7058 20.5834 27.7159 20.5658 27.7262 20.5485C27.7803 20.4581 27.8339 20.3667 27.8867 20.2746C27.899 20.253 27.9118 20.2324 27.9242 20.2107C29.033 20.1884 30.5875 19.9557 32.0246 19.0328C33.496 18.0879 34.7255 16.7714 35.6787 15.1198C36.6771 13.3896 37.3456 11.3318 37.6655 9.00362C37.8521 7.64456 37.6355 6.59846 37.0216 5.8944C36.4568 5.24667 35.5914 4.91831 34.4493 4.91831C33.5569 4.91831 32.6054 5.12112 31.7981 5.35839C31.8355 4.95253 31.8676 4.56323 31.8951 4.19323C31.8959 4.18292 31.8968 4.17253 31.8975 4.16229C32.4917 3.953 33.791 3.55643 35.1067 3.55643C37.5668 3.55643 38.7785 4.89448 38.8109 7.6469C38.902 15.4303 34.301 19.0453 32.3186 20.2384Z" fill="white"/>
<path d="M15.0273 19.2373L14.0352 19.891C14.3739 20.4053 14.738 20.8725 15.1173 21.2797L15.9866 20.4699C15.6525 20.1112 15.3298 19.6964 15.0273 19.2373Z" fill="white"/>
<path d="M12.4786 12.6501L11.3203 12.9144C11.89 15.4116 12.6505 17.508 13.5807 19.1453L14.6137 18.5584C13.7409 17.0221 13.0225 15.0343 12.4786 12.6501Z" fill="white"/>
<path d="M34.6615 26.0554L34.6606 24.8674L33.6577 24.868L33.657 23.8651L32.469 23.8659L32.4697 24.8689L31.4668 24.8696L31.4676 26.0576L32.4705 26.0569L32.4712 27.0597L33.6592 27.0589L33.6585 26.0561L34.6615 26.0554Z" fill="white"/>
<path d="M8.81203 32.2246L8.81078 31.0366L7.96922 31.0374L7.96836 30.1958L6.78031 30.1971L6.78117 31.0386L5.93945 31.0395L5.94078 32.2275L6.78234 32.2267L6.7832 33.0684L7.97125 33.0671L7.97039 32.2255L8.81203 32.2246Z" fill="white"/>
<path d="M4.93711 22.5126H3.81641V23.7006H4.93711V22.5126Z" fill="white"/>
<path d="M12.1402 26.0276H11.0195V27.2156H12.1402V26.0276Z" fill="white"/>
<path d="M30.2027 29.6019H29.082V30.79H30.2027V29.6019Z" fill="white"/>
</g>
<defs>
<clipPath id="clip0_34_3116">
<rect width="40" height="40" fill="white"/>
</clipPath>
</defs>
</svg>
