<svg width="73" height="130" viewBox="0 0 73 130" fill="none" xmlns="http://www.w3.org/2000/svg">
<path d="M15.4778 129.201C15.7487 129.524 16.2208 129.573 16.5324 129.31C16.8439 129.048 16.8769 128.574 16.6061 128.252L15.4778 129.201ZM35.4946 69.6296L36.0541 69.1495L35.4946 69.6296ZM72.3633 5.45399C72.5651 5.0984 72.4368 4.63576 72.0766 4.42066L66.2077 0.915382C65.8476 0.700296 65.392 0.814175 65.1902 1.16977C64.9884 1.52536 65.1168 1.988 65.4769 2.2031L70.6937 5.3189L67.7703 10.4697C67.5685 10.8253 67.6969 11.2879 68.057 11.503C68.4172 11.7181 68.8727 11.6042 69.0745 11.2487L72.3633 5.45399ZM3.12259 82.5178L2.43183 82.2072L3.12259 82.5178ZM34.9352 70.1096C35.8227 71.1471 36.1982 72.1251 36.2511 72.9958C36.3042 73.8692 36.0373 74.7077 35.5144 75.4668C34.4539 77.0066 32.3823 78.146 30.2005 78.3661L30.3984 79.8637C32.9329 79.6079 35.4158 78.2921 36.7522 76.3518C37.4278 75.371 37.8199 74.2132 37.7433 72.9537C37.6665 71.6913 37.1234 70.3994 36.0541 69.1495L34.9352 70.1096ZM30.2005 78.3661C28.3145 78.5564 26.3469 77.8408 24.4248 76.4096C22.5031 74.9787 20.679 72.8682 19.1214 70.3879C15.9958 65.4108 14.0508 59.1213 14.4502 54.2401L12.9602 54.0672C12.5265 59.3672 14.6166 65.9883 17.8653 71.1615C19.4949 73.7565 21.4427 76.031 23.5618 77.609C25.6804 79.1865 28.0222 80.1034 30.3984 79.8637L30.2005 78.3661ZM14.4502 54.2401C15.863 36.976 30.0679 24.8664 44.1695 17.0294C51.1948 13.1251 58.1355 10.3147 63.3226 8.48009C65.9151 7.56316 68.067 6.8909 69.569 6.44831C70.32 6.22703 70.9084 6.06322 71.3079 5.95498C71.5077 5.90086 71.6603 5.86064 71.7624 5.83408C71.8134 5.82081 71.8519 5.81095 71.8773 5.80447C71.8899 5.80123 71.8994 5.79884 71.9055 5.7973C71.9086 5.79653 71.9108 5.79596 71.9122 5.79562C71.9129 5.79544 71.9133 5.79534 71.9137 5.79524C71.9139 5.79519 71.9139 5.79519 71.7112 5.06451C71.5085 4.33383 71.5081 4.33394 71.5075 4.3341C71.507 4.33422 71.5061 4.33443 71.5052 4.33467C71.5032 4.33517 71.5004 4.33586 71.4968 4.33678C71.4896 4.33861 71.479 4.34127 71.4652 4.34479C71.4376 4.35183 71.3969 4.36228 71.3436 4.37615C71.237 4.40389 71.0797 4.44535 70.8751 4.50077C70.4659 4.61162 69.8673 4.77832 69.1055 5.00278C67.5821 5.45167 65.4055 6.13175 62.7857 7.05833C57.5481 8.91076 50.5291 11.752 43.414 15.7062C29.235 23.5862 14.437 36.0212 12.9602 54.0672L14.4502 54.2401ZM16.0419 128.727C16.6061 128.252 16.6061 128.252 16.6061 128.252C16.606 128.252 16.6059 128.252 16.6057 128.251C16.6052 128.251 16.6044 128.25 16.6033 128.249C16.6011 128.246 16.5976 128.242 16.5929 128.236C16.5834 128.225 16.5688 128.207 16.5494 128.184C16.5106 128.137 16.4524 128.065 16.3764 127.971C16.2244 127.783 16.0012 127.502 15.7192 127.137C15.1553 126.406 14.357 125.336 13.4247 123.988C11.5591 121.289 9.16239 117.481 7.03338 113.039C2.75846 104.121 -0.354354 92.8273 3.81335 82.8283L2.43183 82.2072C-1.9874 92.8096 1.35946 104.62 5.69095 113.656C7.86514 118.192 10.3083 122.073 12.2068 124.819C13.1566 126.193 13.9714 127.285 14.55 128.035C14.8394 128.41 15.0698 128.7 15.2286 128.897C15.308 128.995 15.3695 129.07 15.4116 129.121C15.4326 129.147 15.4488 129.166 15.4599 129.18C15.4654 129.186 15.4697 129.191 15.4727 129.195C15.4742 129.197 15.4754 129.198 15.4763 129.199C15.4767 129.2 15.4771 129.2 15.4773 129.2C15.4776 129.201 15.4778 129.201 16.0419 128.727ZM3.81335 82.8283C6.75876 75.7618 12.8446 70.5069 19.0945 68.083C25.3893 65.6418 31.5528 66.156 34.9352 70.1096L36.0541 69.1495C32.0373 64.4542 25.044 64.145 18.5171 66.6763C11.9454 69.225 5.5448 74.7387 2.43183 82.2072L3.81335 82.8283Z" fill="#FACC15"/>
</svg>
