<svg width="43" height="39" viewBox="0 0 43 39" fill="none" xmlns="http://www.w3.org/2000/svg">
<path d="M38.4267 14.0259L37.0332 14.9713C32.237 7.92655 22.6624 6.04948 15.6765 10.7892C8.69036 15.5291 6.89615 25.1195 11.6698 32.1797L10.287 33.1179C9.82905 33.4286 9.7076 34.0518 10.0168 34.5075L12.4244 38.056C12.7335 38.5116 13.3577 38.6295 13.8157 38.3188L41.9553 19.2268C42.4075 18.92 42.524 18.2996 42.2149 17.844L39.8073 14.2954C39.4981 13.8398 38.8788 13.7191 38.4267 14.0259ZM10.4261 28.6347L12.2073 28.0247L12.0645 27.611L10.2837 28.221C9.91285 27.1103 9.67659 25.9731 9.57325 24.8315L11.4526 24.7003L11.4153 24.2615L9.53939 24.3925C9.46882 23.2356 9.53399 22.0787 9.7276 20.945L11.5822 21.3019L11.6615 20.8768L9.80947 20.5044C10.0368 19.3773 10.3917 18.2771 10.8729 17.2287L12.5707 18.0632L12.7632 17.6697L11.0628 16.8339C11.5689 15.8123 12.1966 14.8452 12.9401 13.9538L14.368 15.2041L14.6599 14.8668L13.2218 13.6219C13.9695 12.7781 14.8276 12.011 15.7887 11.3383L16.8566 12.9124L17.2237 12.6633L16.156 11.0895C17.1335 10.4481 18.1601 9.93625 19.2172 9.55464L19.8517 11.3445L20.2625 11.205L19.6386 9.41276C20.7415 9.05221 21.8719 8.82733 23.008 8.73542L23.1466 10.6249L23.5834 10.5915L23.445 8.70475C24.5965 8.64582 25.7493 8.72334 26.88 8.92923L26.5338 10.7864L26.9685 10.8627L27.3129 9.01497C28.4375 9.25401 29.5361 9.62085 30.5848 10.1139L29.7698 11.8086L30.1741 11.9983L30.9858 10.3104C32.0072 10.8282 32.9753 11.4677 33.8693 12.2221L32.6424 13.6495L32.974 13.9351L34.199 12.5055C35.0923 13.3051 35.9052 14.2232 36.6102 15.2585L31.6432 18.6284C28.8878 14.5918 23.3916 13.5218 19.378 16.2449C15.3702 18.9641 14.3379 24.4634 17.0707 28.5153L12.0931 31.8925C11.3917 30.8549 10.8389 29.7602 10.4261 28.6347ZM17.4956 28.2271C14.9219 24.4091 15.8913 19.229 19.6653 16.6684C23.4451 14.1039 28.6215 15.1143 31.218 18.9168L17.4956 28.2271ZM41.791 18.1316C41.9418 18.3538 41.8866 18.6551 41.6681 18.8034L40.9255 19.3072L40.53 18.7244C40.4506 18.6073 40.2915 18.5769 40.1744 18.6564C40.0573 18.7358 40.0268 18.8948 40.1062 19.0119L40.5017 19.5947L39.5411 20.2465L38.7216 19.0386C38.6421 18.9215 38.4831 18.8911 38.366 18.9706C38.2489 19.05 38.2183 19.209 38.2977 19.3261L39.1173 20.534L38.1671 21.1787L37.7717 20.5958C37.6922 20.4787 37.5332 20.4484 37.4161 20.5278C37.2991 20.6072 37.2684 20.7663 37.3479 20.8834L37.7433 21.4662L36.7827 22.1179L35.9632 20.91C35.8838 20.7929 35.7247 20.7626 35.6076 20.842C35.4906 20.9214 35.4599 21.0805 35.5394 21.1976L36.3589 22.4055L35.3982 23.0573L35.0028 22.4745C34.9233 22.3573 34.7642 22.327 34.6471 22.4065C34.5301 22.4859 34.4994 22.6449 34.5789 22.7621L34.9743 23.3449L34.0242 23.9895L33.2047 22.7816C33.1252 22.6645 32.9661 22.6342 32.8491 22.7136C32.732 22.793 32.7014 22.952 32.7809 23.0692L33.6004 24.2771L32.6398 24.9288L32.2444 24.346C32.1649 24.2288 32.0058 24.1985 31.8888 24.278C31.7717 24.3574 31.7411 24.5164 31.8206 24.6335L32.216 25.2163L31.2554 25.8681L30.4359 24.6602C30.3564 24.5431 30.1974 24.5127 30.0803 24.5922C29.9632 24.6716 29.9326 24.8306 30.0121 24.9477L30.8316 26.1556L29.8815 26.8002L29.486 26.2174C29.4066 26.1003 29.2475 26.07 29.1304 26.1494C29.0133 26.2289 28.9828 26.3879 29.0622 26.505L29.4577 27.0878L28.4971 27.7395L27.6775 26.5316C27.5981 26.4145 27.439 26.3842 27.322 26.4636C27.2048 26.5431 27.1743 26.7021 27.2537 26.8192L28.0733 28.0271L27.1127 28.6788L26.7172 28.096C26.6378 27.9789 26.4787 27.9485 26.3617 28.028C26.2446 28.1074 26.214 28.2664 26.2934 28.3835L26.6889 28.9663L25.7387 29.611L24.9192 28.4031C24.8398 28.286 24.6807 28.2556 24.5636 28.3351C24.4465 28.4145 24.4159 28.5735 24.4954 28.6906L25.3149 29.8985L24.3543 30.5502L23.9589 29.9674C23.8795 29.8503 23.7204 29.82 23.6033 29.8994C23.4862 29.9789 23.4556 30.1379 23.5351 30.255L23.9305 30.8378L22.9699 31.4895L22.1504 30.2816C22.071 30.1645 21.9119 30.1342 21.7948 30.2136C21.6778 30.293 21.6471 30.4521 21.7266 30.5692L22.5461 31.7771L21.596 32.4217L21.2006 31.8389C21.1211 31.7218 20.9621 31.6914 20.845 31.7709C20.7279 31.8503 20.6973 32.0093 20.7768 32.1264L21.1722 32.7093L20.2116 33.361L19.3921 32.1531C19.3126 32.036 19.1535 32.0057 19.0365 32.0851C18.9194 32.1645 18.8887 32.3236 18.9682 32.4407L19.7877 33.6486L18.8272 34.3003L18.4318 33.7174C18.3523 33.6003 18.1932 33.57 18.0762 33.6494C17.9591 33.7289 17.9285 33.8879 18.008 34.005L18.4034 34.5878L17.4531 35.2325L16.6336 34.0246C16.5542 33.9075 16.3951 33.8772 16.278 33.9566C16.161 34.036 16.1303 34.1951 16.2098 34.3122L17.0293 35.5201L16.0687 36.1718L15.6732 35.589C15.5938 35.4719 15.4347 35.4416 15.3177 35.521C15.2006 35.6004 15.17 35.7594 15.2494 35.8766L15.6449 36.4594L14.6843 37.1111L13.8648 35.9032C13.7853 35.7861 13.6263 35.7558 13.5092 35.8352C13.3921 35.9146 13.3615 36.0737 13.4409 36.1908L14.2605 37.3987L13.5284 37.8953C13.3002 38.0502 13.0014 37.9943 12.8482 37.7685L10.4406 34.2199C10.2876 33.9944 10.3461 33.6961 10.5743 33.5413L12.1684 32.4597L17.5699 28.795L31.7078 19.2028L37.1091 15.5382L38.714 14.4493C38.9325 14.301 39.2329 14.3611 39.3834 14.583L41.791 18.1316Z" fill="#00001B"/>
<path d="M37.6423 16.3689L12.754 33.255C12.2844 33.5736 12.1666 34.2223 12.4914 34.701C12.8126 35.1743 13.4558 35.2999 13.9253 34.9814L38.8135 18.0954C39.2753 17.7821 39.3988 17.1247 39.0831 16.6593C38.7637 16.1884 38.104 16.0557 37.6423 16.3689ZM38.5262 17.6718L13.6379 34.5579C13.402 34.718 13.0778 34.653 12.9152 34.4134C12.7488 34.1681 12.8053 33.8385 13.0412 33.6784L37.9295 16.7924C38.1614 16.635 38.4958 16.7059 38.6593 16.9468C38.8164 17.1785 38.7542 17.5172 38.5262 17.6718Z" fill="#00001B"/>
</svg>
