<svg width="60" height="60" viewBox="0 0 60 60" fill="none" xmlns="http://www.w3.org/2000/svg">
<g opacity="0.47" clip-path="url(#clip0_34_2662)">
<path d="M4.96988 22.4135C5.12156 22.4134 5.27095 22.3766 5.40524 22.3061C5.53954 22.2356 5.65472 22.1335 5.74092 22.0087C5.82711 21.8839 5.88174 21.7401 5.90012 21.5895C5.9185 21.439 5.90008 21.2862 5.84645 21.1443C5.33286 19.7878 5.85148 19.0895 6.0735 18.7912C6.22943 18.5482 6.44659 18.3505 6.70315 18.218C6.95971 18.0855 7.24663 18.0228 7.53506 18.0364C7.65813 18.0364 7.78 18.0121 7.8937 17.965C8.0074 17.918 8.11071 17.8489 8.19773 17.7619C8.28476 17.6749 8.35379 17.5716 8.40088 17.4579C8.44798 17.3442 8.47222 17.2223 8.47222 17.0992C8.47222 16.9762 8.44798 16.8543 8.40088 16.7406C8.35379 16.6269 8.28476 16.5236 8.19773 16.4366C8.11071 16.3495 8.0074 16.2805 7.8937 16.2334C7.78 16.1863 7.65813 16.1621 7.53506 16.1621C6.95369 16.1469 6.37776 16.2773 5.85959 16.5414C5.34142 16.8054 4.89744 17.1947 4.56798 17.674C4.12827 18.2585 3.85247 18.9498 3.76903 19.6764C3.68559 20.4031 3.79753 21.1389 4.09331 21.8079C4.16067 21.9859 4.28061 22.1392 4.43719 22.2473C4.59377 22.3555 4.77957 22.4135 4.96988 22.4135Z" fill="#00001B"/>
<path d="M52.4684 18.0364C52.757 18.0229 53.044 18.0856 53.3007 18.2182C53.5573 18.3508 53.7745 18.5487 53.9304 18.7919C54.152 19.0897 54.6706 19.7876 54.157 21.1443C54.069 21.3768 54.077 21.6347 54.1792 21.8613C54.2813 22.0879 54.4693 22.2647 54.7018 22.3527C54.9343 22.4407 55.1922 22.4327 55.4188 22.3305C55.6454 22.2284 55.8222 22.0403 55.9102 21.8079C56.2059 21.139 56.3179 20.4034 56.2346 19.6768C56.1512 18.9503 55.8755 18.2591 55.4359 17.6747C55.1065 17.1952 54.6625 16.8058 54.1442 16.5416C53.626 16.2774 53.0499 16.147 52.4684 16.1621C52.2199 16.1621 51.9815 16.2608 51.8057 16.4366C51.63 16.6123 51.5313 16.8507 51.5312 17.0992C51.5313 17.3478 51.63 17.5861 51.8057 17.7619C51.9815 17.9376 52.2198 18.0364 52.4684 18.0364Z" fill="#00001B"/>
<path d="M9.21932 30.677C6.85169 31.6648 4.95866 33.5312 3.93744 35.8847C3.36631 37.2483 3.16836 38.7393 3.36391 40.2047C3.55947 41.6701 4.14149 43.057 5.05021 44.2231C5.84059 45.3928 6.94201 46.3185 8.23029 46.8958C9.51858 47.4731 10.9425 47.679 12.3416 47.4904C15.1287 47.1183 17.6485 45.3227 19.2644 42.6618C20.6066 49.2587 24.4437 54.1661 29.0637 54.7568V55.3097C29.0637 55.5583 29.1625 55.7968 29.3383 55.9726C29.5141 56.1484 29.7525 56.2472 30.0012 56.2472C30.2498 56.2472 30.4882 56.1484 30.664 55.9726C30.8398 55.7968 30.9386 55.5583 30.9386 55.3097V54.7568C35.5586 54.1661 39.3957 49.2587 40.7379 42.6619C42.3538 45.3227 44.8736 47.1183 47.6608 47.4904C47.9973 47.5355 48.3365 47.5582 48.676 47.5583C49.912 47.5415 51.1261 47.2301 52.2176 46.6501C53.3091 46.0701 54.2466 45.2381 54.9521 44.2232C55.8609 43.057 56.4429 41.6701 56.6384 40.2047C56.834 38.7393 56.636 37.2483 56.0649 35.8847C55.044 33.5317 53.1526 31.6647 50.7867 30.6743C54.7654 29.5134 58.0895 26.6402 59.4165 23.1382C59.9353 21.8812 60.1186 20.511 59.9485 19.1618C59.7784 17.8126 59.2606 16.5308 58.446 15.442C57.6836 14.3821 56.6509 13.5458 55.4556 13.0205C54.2602 12.4953 52.9459 12.3002 51.6495 12.4555C47.7088 12.835 43.7045 15.9235 41.685 20.1409C40.6948 22.2097 39.5474 24.3433 38.53 26.2027C38.5205 26.1856 38.5117 26.1675 38.5021 26.1504C38.4618 25.9866 38.374 25.8384 38.2496 25.7244C37.7216 24.8347 37.1018 24.0029 36.4002 23.2426C37.2775 22.7702 38.0122 22.0714 38.5279 21.2188C39.0497 20.3681 39.3415 19.3965 39.3748 18.3992C39.4081 17.4018 39.1817 16.4129 38.7179 15.5293L38.7097 15.5142C38.1128 14.3424 37.2826 13.3049 36.2701 12.4656C35.2576 11.6263 34.0842 11.0028 32.822 10.6335C32.896 6.82819 35.8222 5.61427 35.9632 5.55862C36.1949 5.46939 36.3816 5.29192 36.4826 5.06514C36.5835 4.83836 36.5904 4.5808 36.5016 4.34897C36.4129 4.11715 36.2358 3.93001 36.0092 3.8286C35.7826 3.72719 35.5251 3.71981 35.2931 3.80807C34.0337 4.36893 32.9586 5.27436 32.1917 6.41993C31.4248 7.5655 30.9973 8.90453 30.9586 10.2826C30.643 10.2533 30.3247 10.2332 30.0012 10.2332C29.6775 10.2332 29.359 10.2533 29.0433 10.2826C29.0046 8.90457 28.5771 7.56553 27.8102 6.41995C27.0433 5.27437 25.9681 4.36893 24.7088 3.80807C24.4771 3.7207 24.2202 3.7286 23.9943 3.83004C23.7683 3.93148 23.5918 4.11822 23.5031 4.34945C23.4144 4.58068 23.4209 4.83761 23.5211 5.06409C23.6212 5.29057 23.807 5.4682 24.0377 5.55815C24.1692 5.60988 27.1058 6.82138 27.1798 10.6337C25.9179 11.003 24.7448 11.6263 23.7326 12.4654C22.7203 13.3045 21.8901 14.3416 21.2931 15.5131L21.2844 15.5293C20.8206 16.4129 20.5942 17.4018 20.6275 18.3992C20.6608 19.3965 20.9527 20.3681 21.4744 21.2188C21.9901 22.0714 22.7248 22.7702 23.6021 23.2426C22.8819 24.0231 22.2477 24.8787 21.7102 25.7947C21.5938 25.9017 21.5093 26.0387 21.4658 26.1907C20.45 24.3341 19.3055 22.2053 18.3173 20.1407C16.2978 15.9235 12.2935 12.835 8.35281 12.4555C7.05643 12.3005 5.74222 12.4958 4.54693 13.021C3.35163 13.5463 2.31894 14.3822 1.5563 15.4419C0.741699 16.5308 0.223969 17.8126 0.0538503 19.1618C-0.116268 20.511 0.067061 21.8812 0.585872 23.1382C1.91653 26.65 5.25529 29.5294 9.21932 30.677ZM30.0012 52.9474C27.3368 52.9474 24.9304 51.1015 23.222 48.1479C25.2112 49.4254 27.5192 50.1186 29.8831 50.1485C32.3578 50.1079 34.7714 49.3735 36.8493 48.0286C35.1371 51.0521 32.7014 52.9474 30.0012 52.9474ZM38.3089 44.6356C29.9764 51.8036 23.6082 46.4883 21.8516 44.6833C21.7952 44.6269 21.7319 44.578 21.663 44.5378C21.2212 43.1062 20.9215 41.6344 20.7683 40.144C23.3997 42.1333 26.5958 43.2337 29.8941 43.286C32.6533 43.286 35.8203 42.4687 39.2347 40.1376C39.0785 41.6643 38.7683 43.1713 38.3089 44.6356ZM39.5606 28.2223C40.7182 26.1148 42.1592 23.4921 43.3759 20.9502C45.1222 17.3041 48.5195 14.64 51.8294 14.321C52.8041 14.1975 53.7941 14.3404 54.6941 14.7344C55.5941 15.1284 56.3706 15.7589 56.941 16.5589C57.5669 17.3962 57.9628 18.3828 58.0894 19.4205C58.2161 20.4582 58.069 21.5109 57.6629 22.4742C56.4627 25.6426 53.1303 28.3046 49.3334 29.1073L46.7956 29.7522C46.5888 29.8048 46.4061 29.9264 46.2778 30.0969C46.1495 30.2673 46.0831 30.4765 46.0898 30.6898C46.0965 30.9031 46.1758 31.1077 46.3145 31.2698C46.4532 31.432 46.6432 31.5419 46.8529 31.5814L47.691 31.7386C50.7153 32.1688 53.2608 34.0341 54.3346 36.6065C54.7851 37.6695 54.9404 38.8343 54.7842 39.9781C54.628 41.122 54.166 42.2025 53.4471 43.1057C52.0239 45.0216 50.0603 45.9194 47.9089 45.6325C45.221 45.2738 42.7231 43.0998 41.5454 40.0943C41.4325 39.8061 41.3117 39.5174 41.1937 39.2287C41.2311 38.6549 41.25 38.0735 41.2506 37.4844C41.2725 34.3361 40.6867 31.2131 39.5253 28.2868L39.5606 28.2223ZM23.0765 20.2455C22.7245 19.6713 22.5272 19.0158 22.5037 18.3428C22.4802 17.6697 22.6313 17.002 22.9424 16.4047L22.9501 16.3905C23.6207 15.0995 24.6328 14.0174 25.8762 13.2621C27.1195 12.5068 28.5464 12.1074 30.0012 12.1074C31.4559 12.1074 32.8828 12.5068 34.1261 13.2621C35.3695 14.0174 36.3816 15.0995 37.0522 16.3905L37.0595 16.404C37.3707 17.0014 37.522 17.6692 37.4986 18.3424C37.4751 19.0155 37.2778 19.6712 36.9258 20.2455C36.6068 20.7846 36.1533 21.2316 35.6097 21.5429C35.0662 21.8542 34.4511 22.0191 33.8247 22.0214H26.1777C25.5513 22.0191 24.9362 21.8542 24.3926 21.5429C23.849 21.2316 23.3955 20.7846 23.0765 20.2455ZM36.279 26.0148C31.0739 28.5171 26.6892 27.5827 23.6713 26.0974C24.2075 25.2706 24.8495 24.5174 25.581 23.857C25.779 23.8808 25.9782 23.8937 26.1777 23.8957H33.8247C34.0241 23.8937 34.2233 23.8808 34.4213 23.857C35.1296 24.4945 35.7539 25.2196 36.279 26.0148ZM22.7387 27.7243C24.9469 28.8319 27.3812 29.4139 29.8515 29.425C32.4132 29.4026 34.9353 28.7901 37.2221 27.6353C37.8582 28.9218 38.3492 30.275 38.6861 31.6701C30.454 37.1193 23.873 33.5797 21.3117 31.6901C21.6421 30.3203 22.1206 28.9906 22.7387 27.7243ZM20.9145 33.6973C23.5553 35.4755 26.6593 36.441 29.8428 36.4745C32.5744 36.4745 35.7003 35.7321 39.0789 33.6453C39.2765 34.9155 39.3757 36.199 39.3757 37.4844C39.3757 37.5601 39.3729 37.6347 39.3722 37.7101C28.9352 45.887 21.149 38.1307 20.6283 37.5897C20.6281 37.5544 20.6266 37.5197 20.6266 37.4844C20.6265 36.2166 20.7227 34.9506 20.9145 33.6973ZM3.06134 16.5591C3.56518 15.845 4.23603 15.2648 5.01543 14.8693C5.79483 14.4738 6.65912 14.2749 7.53301 14.2899C7.75591 14.2899 7.97014 14.3016 8.17293 14.321C11.4828 14.64 14.8802 17.3041 16.6264 20.95C17.8431 23.4921 19.2841 26.1148 20.4417 28.2223L20.477 28.2867C19.3156 31.2131 18.7298 34.3361 18.7517 37.4844C18.7517 38.0731 18.7707 38.6545 18.8086 39.2286C18.6906 39.5172 18.5698 39.8059 18.457 40.094C17.2792 43.0998 14.7813 45.2738 12.0935 45.6325C9.94436 45.9199 7.97838 45.0212 6.55528 43.1057C5.8363 42.2025 5.37435 41.122 5.21814 39.9781C5.06193 38.8343 5.21724 37.6695 5.66771 36.6065C6.74156 34.0341 9.28707 32.1688 12.353 31.7318L13.1495 31.5814C13.3592 31.5419 13.5491 31.432 13.6879 31.2698C13.8266 31.1077 13.9059 30.9031 13.9125 30.6898C13.9192 30.4765 13.8529 30.2673 13.7246 30.0969C13.5962 29.9264 13.4135 29.8048 13.2067 29.7522L10.6315 29.0986C6.87204 28.3046 3.5397 25.6426 2.3395 22.4742C1.93335 21.511 1.78629 20.4582 1.91292 19.4206C2.03955 18.3829 2.43547 17.3964 3.06134 16.5591Z" fill="#00001B"/>
<path d="M27.5273 14.9968C28.0451 14.9968 28.4648 14.5771 28.4648 14.0593C28.4648 13.5416 28.0451 13.1218 27.5273 13.1218C27.0096 13.1218 26.5898 13.5416 26.5898 14.0593C26.5898 14.5771 27.0096 14.9968 27.5273 14.9968Z" fill="#00001B"/>
<path d="M32.6836 14.9968C33.2014 14.9968 33.6211 14.5771 33.6211 14.0593C33.6211 13.5416 33.2014 13.1218 32.6836 13.1218C32.1658 13.1218 31.7461 13.5416 31.7461 14.0593C31.7461 14.5771 32.1658 14.9968 32.6836 14.9968Z" fill="#00001B"/>
</g>
<defs>
<clipPath id="clip0_34_2662">
<rect width="60" height="60" fill="white" transform="translate(0 -0.00317383)"/>
</clipPath>
</defs>
</svg>
