<svg width="32" height="32" viewBox="0 0 32 32" fill="none" xmlns="http://www.w3.org/2000/svg">
<path d="M31.9637 17.999C31.8597 16.527 31.2957 15.415 30.2907 14.694C29.0007 13.771 27.2667 13.696 26.0147 13.798C26.9177 13.212 27.8077 12.696 28.5877 12.305C29.9317 11.469 28.8487 9.59698 27.4777 7.22698C27.2397 6.81498 26.9927 6.38598 26.7487 5.94798C26.3037 5.14798 25.8957 4.29898 25.5047 3.47598C24.6177 1.62098 24.0877 0.559979 23.4837 0.325979C22.9577 0.118979 22.1427 0.0499786 21.2587 0.893979C18.8147 3.22698 17.2727 11.544 17.2717 14.974C17.1737 14.93 17.0747 14.895 16.9737 14.872C16.9707 14.87 16.9677 14.869 16.9647 14.868C16.9707 13.96 16.9407 12.382 16.7017 11.298C16.7677 11.252 16.8157 11.176 16.8027 11.075C16.7827 10.926 16.7627 10.776 16.7427 10.627C16.7047 10.344 16.2737 10.447 16.3107 10.729C16.3307 10.878 16.3507 11.028 16.3707 11.177C16.3847 11.281 16.4507 11.331 16.5277 11.341C16.7577 12.388 16.7897 13.933 16.7857 14.838C16.6437 14.825 16.4997 14.844 16.3597 14.91C16.2687 14.953 16.1957 15.01 16.1357 15.076C15.3157 14.598 14.0107 13.76 13.0937 12.784C13.1347 12.71 13.1377 12.616 13.0677 12.534C12.9547 12.403 12.8407 12.272 12.7287 12.142C12.5407 11.925 12.2167 12.227 12.4037 12.443C12.5167 12.573 12.6297 12.704 12.7427 12.835C12.8077 12.91 12.8887 12.921 12.9597 12.897C13.8887 13.888 15.2047 14.736 16.0357 15.222C15.9427 15.394 15.9087 15.603 15.9117 15.823C12.7687 14.448 4.5307 12.527 1.4127 13.83C0.285698 14.302 0.0226975 15.076 0.000697512 15.64C-0.0263025 16.286 0.731697 17.198 2.0757 18.752C2.6717 19.442 3.2877 20.155 3.8417 20.884C4.1457 21.283 4.4387 21.683 4.7207 22.067C6.3427 24.273 7.6227 26.015 8.9287 25.12C9.5987 24.561 10.4287 23.953 11.3277 23.361C10.7317 24.465 10.1047 26.086 10.4337 27.636C10.6907 28.847 11.4827 29.809 12.7897 30.493C17.4137 32.922 20.1477 31.312 21.0457 30.784C21.1077 30.748 21.1597 30.717 21.2027 30.693C21.3177 30.63 21.4057 30.531 21.4727 30.38C21.6557 29.962 21.6737 29.15 21.6677 27.613C21.6637 26.717 21.6607 25.425 21.7877 24.585C22.2037 25.024 22.6417 25.06 22.8097 24.787C23.0207 24.662 23.0957 24.313 22.9237 23.868C23.7447 24.086 24.9397 24.612 25.7617 24.975C27.1657 25.596 27.9187 25.906 28.3747 25.906C28.5397 25.906 28.6667 25.866 28.7707 25.785C28.8097 25.755 28.8577 25.72 28.9167 25.678C29.7647 25.069 32.3347 23.208 31.9637 17.999ZM29.4177 18.11C28.8857 18.952 27.8527 19.144 26.9367 19.26C26.4047 19.321 25.8747 19.408 25.3557 19.496C24.0367 19.943 21.1177 19.776 21.1177 19.643C21.1177 19.51 24.5447 18.61 26.1247 17.768C26.5387 17.545 26.9807 17.414 27.3807 17.176C27.7777 16.941 28.1047 16.674 28.4737 16.407C29.4627 15.672 29.8157 17.49 29.4177 18.11ZM19.1357 17.414C19.1397 15.823 19.9557 13.581 20.1717 12.542C20.5257 11.006 20.4667 9.41098 20.7037 7.87498C20.8807 6.51598 22.2987 5.27498 23.1837 7.04798C23.8887 8.40598 20.9527 16.316 19.8087 18.525C19.5717 18.131 19.3447 17.756 19.1357 17.414ZM25.2527 8.64198C28.3247 9.52798 23.9537 15.023 22.4767 13.959C22.4767 13.96 23.4797 8.16998 25.2527 8.64198ZM26.2577 15.007C26.6117 15.052 27.3357 15.288 27.3807 15.687C27.4837 16.587 26.0517 17.194 25.4017 17.49C24.9737 17.681 24.5307 17.8 24.1177 18.021C23.6747 18.272 23.2617 18.551 22.8037 18.745C22.3757 18.907 20.8987 19.424 20.8687 19.174C20.8687 19.174 22.4037 18.001 22.6267 17.637C22.8477 17.275 23.4537 16.84 23.8217 16.382C24.1757 15.953 24.4867 15.717 24.9887 15.466C25.3997 15.259 25.7847 14.949 26.2577 15.007ZM27.7857 10.518C27.8297 11.161 27.7197 11.448 27.1427 11.826C26.7347 12.085 25.7567 12.596 25.4467 12.757C25.3897 12.802 25.3477 12.828 25.3477 12.808C25.3477 12.808 25.3857 12.789 25.4467 12.757C25.5787 12.653 25.8027 12.441 25.8807 12.379C26.1247 12.18 26.2577 11.958 26.3907 11.692C26.6567 11.182 26.5457 10.585 26.8117 10.119C27.2097 9.36598 27.7637 9.94198 27.7857 10.518ZM26.1027 7.21598C26.3467 7.70298 26.9447 8.40498 27.1667 8.89398C27.3437 9.24798 27.0777 9.52098 26.7017 9.63098C26.5237 9.69698 26.3027 8.67198 25.8587 8.47998C25.4167 8.28798 25.2377 8.30198 25.1277 8.19198C24.9507 7.96998 25.1717 7.66098 25.2827 7.46098C25.5487 6.99598 25.7477 6.53098 26.1027 7.21598ZM25.1037 5.66598C25.0157 6.28698 24.7717 6.95198 24.4837 7.48298C24.2407 7.88098 23.9087 8.98198 23.5327 9.26998C23.5327 9.26998 23.6867 6.78198 23.7987 6.31598C23.8877 5.91798 24.0867 5.06798 24.3747 4.77998C24.9277 4.24798 25.1487 5.28998 25.1037 5.66598ZM22.5577 1.58898C23.3767 1.52298 24.4627 3.11798 24.1087 3.84898C23.8867 4.31498 23.7977 4.63898 23.5987 5.14898C23.5107 5.39298 23.4367 6.64298 23.3487 6.75298L22.0927 3.91498C21.8707 3.33898 21.6927 1.65698 22.5577 1.58898ZM20.4457 4.88698C20.5117 4.68798 21.0187 2.82998 21.2617 2.89698C21.4837 2.94098 22.3787 4.93898 22.1727 5.40798C22.0687 5.64298 21.7427 5.70098 21.4417 5.94698C21.1417 6.19298 20.8667 6.62698 20.7997 6.72598C20.5997 6.57198 20.4457 6.34898 20.3787 6.10598C20.2697 5.70698 20.3357 5.26498 20.4457 4.88698ZM19.2017 8.70598C19.3187 8.17398 19.2617 6.81498 20.0277 6.75698C20.9727 6.69698 20.3817 7.93798 20.2637 8.41098C19.6727 10.773 19.6157 13.196 18.7277 15.44C18.7287 15.44 19.0227 9.88698 19.2017 8.70598ZM17.3937 18.506C17.6237 18.834 17.8777 19.194 18.1427 19.571C15.6577 19.731 7.2397 19.251 6.2777 18.061C5.0097 16.539 6.7147 15.737 8.0297 16.12C9.5317 16.518 10.9687 17.213 12.5187 17.504C13.5577 17.723 15.9357 17.874 17.3937 18.506ZM7.2757 15.053C7.6377 14.373 8.8587 14.972 9.3927 15.077C10.5467 15.389 15.7517 17.344 15.7517 17.344C13.3397 17.256 11.0977 16.339 8.6957 15.934C8.2167 15.852 6.8447 15.896 7.2757 15.053ZM5.3967 14.687C5.7867 14.737 6.2187 14.853 6.5397 15.115C6.7357 15.273 6.8767 15.504 6.9387 15.749C6.8207 15.77 6.3127 15.85 5.9677 16.024C5.6207 16.202 5.4377 16.477 5.1807 16.478C4.6677 16.479 3.1977 14.858 3.2457 14.637C3.2837 14.388 5.1877 14.669 5.3967 14.687ZM2.9787 17.627C2.1667 17.658 1.1407 16.023 1.5307 15.3C1.9377 14.535 3.4097 15.372 3.8477 15.808L5.9427 18.095C5.8057 18.131 4.6307 17.699 4.3727 17.682C3.8267 17.659 3.4947 17.61 2.9787 17.627ZM4.2437 19.268C3.8807 19.157 3.0157 18.537 3.7247 18.243C4.1037 18.095 4.9617 18.253 5.3627 18.331C5.8337 18.416 8.1757 19.272 8.1757 19.272C7.7597 19.501 6.6197 19.365 6.1557 19.427C5.5537 19.478 4.8477 19.435 4.2437 19.268ZM6.3737 22.449C6.0167 22.052 5.6137 21.22 5.2647 20.803C4.7777 20.203 5.2847 20.207 5.8167 20.151C6.0437 20.13 6.4167 20.05 6.5477 20.301C6.6047 20.447 6.5207 20.604 6.5187 21.086C6.5167 21.569 7.3687 22.185 7.2367 22.319C6.9837 22.62 6.6257 22.754 6.3737 22.449ZM10.6017 22.423C10.3297 22.644 9.4697 23.334 9.0687 23.605C8.4927 23.982 8.1847 23.966 7.6137 23.668C7.0937 23.417 6.7887 22.679 7.6387 22.615C8.1717 22.557 8.6757 22.898 9.2487 22.86C9.5457 22.843 9.8017 22.811 10.0817 22.668C10.1687 22.623 10.4547 22.503 10.6017 22.423C10.6547 22.38 10.6877 22.354 10.6877 22.354C10.7067 22.362 10.6657 22.39 10.6017 22.423ZM6.9107 20.595C7.1877 18.783 12.8947 20.184 12.8947 20.184C13.2757 21.963 6.4907 23.766 6.9107 20.595ZM12.3387 24.068C12.4747 23.611 12.9127 23.383 13.2667 23.088C13.6987 22.73 14.0397 22.54 14.5737 22.386C15.1407 22.233 15.7817 21.852 16.2027 21.794C16.6247 21.736 18.3147 20.799 18.3147 20.799C18.5337 20.927 17.4667 22.073 17.1467 22.402C16.7867 22.745 16.3647 23.009 15.9567 23.316C15.5877 23.606 15.3017 23.963 14.9547 24.28C14.4227 24.758 13.2947 25.827 12.5097 25.371C12.1647 25.169 12.2367 24.411 12.3387 24.068ZM12.7357 26.661C13.1277 26.429 13.5017 26.237 13.8777 25.967C14.2537 25.697 14.5537 25.344 14.9227 25.054C16.3267 23.945 18.5267 21.165 18.6477 21.219C18.7697 21.274 17.7517 24.013 16.8137 25.043C16.5247 25.481 16.2307 25.934 15.9627 26.397C15.4867 27.189 14.8977 28.059 13.9127 28.209C13.1857 28.324 11.6637 27.27 12.7357 26.661ZM14.3637 30.157C13.9587 29.872 13.1707 29.719 12.8547 28.969C12.5387 28.219 14.8707 28.709 15.0597 28.708C15.4377 28.707 15.4627 29.948 15.4627 29.948C15.4627 29.948 14.7697 30.442 14.3637 30.157ZM17.4157 29.417C17.2667 29.868 16.8837 30.152 16.3727 30.105C15.4817 30.004 15.6387 28.687 15.8067 28.083C15.9247 27.668 16.1447 27.312 16.3427 26.934C16.5357 26.567 16.6747 26.175 16.8537 25.802C17.0447 25.404 17.3057 25.066 17.5447 24.701C17.7647 24.346 17.9107 23.974 18.1097 23.627C18.4507 23.034 18.5717 21.379 18.8437 21.547C19.1147 21.713 19.1247 22.782 19.0657 23.175C18.9307 23.891 18.7607 24.573 18.5917 25.289C18.3707 26.272 18.1457 27.303 17.8247 28.258C17.6867 28.649 17.5537 29.026 17.4157 29.417ZM20.2187 27.467C20.1047 28.094 20.3937 29.72 19.6297 30.03C18.6947 30.395 18.4747 28.396 18.5187 27.851C18.5937 26.981 18.7477 25.999 19.0837 25.197C19.2997 24.63 19.4337 24.028 19.5547 23.421C19.6407 23.039 19.2817 22.16 19.4957 22.267C20.3217 22.81 20.5507 24.019 20.5837 24.789C20.6317 25.713 20.3927 26.592 20.2187 27.467ZM28.7977 24.077C28.2067 24.652 26.8327 23.737 26.2127 23.59C25.3417 23.399 24.4407 23.266 23.6117 22.853C22.9187 22.511 21.9027 21.819 21.7367 20.842C21.7257 20.605 22.3857 21.286 22.7707 21.361C23.3757 21.494 23.9817 21.612 24.5877 21.641C25.4587 21.656 26.4187 21.908 27.2467 22.188C27.7637 22.364 29.5067 23.368 28.7977 24.077ZM30.1717 21.123C30.0087 21.61 29.5957 21.848 29.1227 21.803C28.7087 21.775 28.3097 21.743 27.8957 21.714C26.8917 21.625 25.8577 21.419 24.8687 21.228C24.1437 21.094 23.4507 20.976 22.7417 20.814C22.3567 20.71 21.3837 20.274 21.3387 19.958C21.2947 19.644 22.8597 20.194 23.5397 20.121C23.9377 20.076 24.3367 20.091 24.7507 20.032C25.1787 19.958 25.5927 19.854 26.0357 19.84C26.4497 19.825 26.8617 19.856 27.2757 19.825C27.7047 19.796 28.1187 19.736 28.5467 19.796C29.1667 19.881 30.4377 20.266 30.1717 21.123ZM30.3927 20.227C30.3927 20.227 29.2667 19.706 29.4177 19.361C29.4947 19.187 29.9797 16.853 30.5407 17.445C31.1017 18.036 30.9257 18.819 31.0227 19.302C31.1227 19.79 30.3927 20.227 30.3927 20.227Z" fill="#00001B"/>
</svg>
