<svg width="60" height="48" viewBox="0 0 60 48" fill="none" xmlns="http://www.w3.org/2000/svg">
<path d="M55.8335 0.825068C51.9971 0.825068 48.3021 1.87073 44.8509 3.9331C42.1164 5.56715 39.5329 7.83882 37.1718 10.6847C34.6334 13.7442 32.9179 16.775 31.9825 18.6314C31.7333 18.4037 31.4446 18.2184 31.1285 18.0865C32.2081 13.9706 34.647 11.4728 34.6732 11.4463C35.0386 11.0793 35.0383 10.4855 34.6718 10.119C34.3049 9.75212 33.7101 9.75212 33.3433 10.119C33.2409 10.2215 31.3278 12.1643 29.9991 15.5097C28.6706 12.1643 26.7574 10.2215 26.655 10.119C26.288 9.75212 25.6932 9.75212 25.3264 10.119C24.9595 10.4859 24.9595 11.0808 25.3264 11.4476C25.3525 11.4737 27.7872 13.9471 28.8701 18.0862C28.5542 18.2178 28.266 18.4029 28.0167 18.6302C27.0811 16.7738 25.3657 13.7434 22.8279 10.6845C20.4668 7.83846 17.8831 5.56692 15.1487 3.93286C11.6977 1.87061 8.00257 0.824951 4.16611 0.824951C1.55753 0.825068 0 2.29998 0 4.77075C0 5.95551 0.444724 7.44554 1.32163 9.19947C2.69389 11.944 2.96518 14.9477 3.20459 17.5977C3.48127 20.6612 3.72045 23.3068 5.64922 24.5927C6.2552 24.9967 7.45718 25.4418 10.8489 25.4418C10.9421 25.4418 11.0381 25.4413 11.1346 25.4405C9.41034 26.6548 7.59042 28.4009 7.04129 30.5978C6.04918 34.5658 9.25682 38.7178 10.0797 39.6996C10.653 42.6475 12.4686 44.0481 13.2321 44.5182C14.3066 46.7505 16.5396 47.0339 17.8558 46.8361C18.3254 47.0328 18.8581 47.1674 19.4364 47.1674C20.7144 47.1674 22.2145 46.5088 23.7443 44.4054C24.4637 43.4163 25.0036 43.2064 25.6288 42.9636C26.2772 42.7115 27.0841 42.398 27.8619 41.3091C28.5159 40.3936 29.361 38.4509 30.0002 36.3142C30.6394 38.4509 31.4846 40.3937 32.1385 41.3091C32.9163 42.3979 33.7232 42.7116 34.3716 42.9636C34.9968 43.2065 35.5367 43.4163 36.2561 44.4056C37.7859 46.5089 39.2858 47.1675 40.564 47.1675C41.1421 47.1675 41.6749 47.0329 42.1446 46.8362C43.4605 47.0339 45.6937 46.7506 46.7682 44.5183C47.5317 44.0481 49.3473 42.6475 49.9206 39.6997C50.7435 38.7179 53.9512 34.5661 52.9591 30.5979C52.4099 28.401 50.5899 26.6548 48.8657 25.4406C48.9623 25.4412 49.0582 25.4419 49.1514 25.4419C52.5425 25.4419 53.7452 24.9967 54.3511 24.5928C56.2799 23.307 56.519 20.6613 56.7958 17.5978C57.0352 14.9477 57.3066 11.944 58.6787 9.19959C59.5557 7.44565 60.0004 5.95562 60.0004 4.77087C59.9996 2.29998 58.4422 0.825068 55.8335 0.825068ZM2.49573 7.24597C2.09471 6.26254 1.87897 5.40614 1.87897 4.77075C1.87897 3.80853 2.13889 2.70404 4.16611 2.70404C4.99427 2.70404 5.81516 2.75959 6.62844 2.86681C6.03383 3.12158 5.47684 3.45251 4.96146 3.86454C3.77787 4.81059 2.98557 6.05418 2.49573 7.24597ZM6.69148 23.0293C5.51083 22.2421 5.30938 20.0116 5.07606 17.4286C4.87849 15.2424 4.6413 12.6198 3.72689 10.0637C3.76334 9.06002 4.37142 6.7416 6.13473 5.33219C7.59371 4.16595 9.5485 3.84661 11.9447 4.38181C12.694 4.71626 13.4336 5.09817 14.1612 5.53188C16.7085 7.04992 19.1271 9.17428 21.3499 11.8459C24.0388 15.0778 25.7914 18.3453 26.602 20.0173C21.1991 17.0741 15.576 13.07 15.5135 13.0255C15.0916 12.724 14.5047 12.8218 14.203 13.2439C13.9015 13.6662 13.9993 14.2528 14.4215 14.5544C14.488 14.6019 20.7442 19.0575 26.4863 22.0872C24.7277 22.3454 21.4884 22.7944 18.1099 23.1274C8.99831 24.0255 7.0666 23.2795 6.69148 23.0293ZM22.166 43.3805C21.5965 44.1599 20.2225 45.9314 18.3938 45.0172C18.1951 44.9178 17.9736 44.8905 17.7578 44.9431C17.5381 44.9934 15.588 45.3804 14.8375 43.5043C14.7483 43.2813 14.5846 43.1044 14.3665 43.0038C14.2847 42.9642 12.3559 42.0003 11.886 39.1293C11.857 38.9516 11.7773 38.7859 11.6567 38.6519C11.6474 38.6416 10.7195 37.6054 9.90522 36.1077C9.18499 34.7829 8.41964 32.8307 8.86389 31.0534C9.30756 29.2787 11.0101 27.8025 12.36 26.8769C13.6618 25.9843 14.9011 25.4167 15.2633 25.2583C16.1847 25.1916 17.1931 25.1056 18.302 24.9963C21.9103 24.6404 25.3611 24.1538 27.0552 23.9022V24.8036C26.9384 32.3366 22.6199 42.3489 22.166 43.3805ZM29.0595 30.9511C29.0595 34.0987 27.266 38.9103 26.3326 40.2172C25.9256 40.7868 25.5839 40.9606 25.1099 41.1489C26.3668 37.8733 28.179 32.5007 28.754 27.4798C28.8529 27.5261 28.955 27.567 29.0595 27.6023V30.9511ZM29.999 25.8777C29.4119 25.8777 28.9342 25.4001 28.9342 24.813V20.8191C28.9342 20.8167 28.9342 20.8142 28.9342 20.8117V20.8046C28.9342 20.2182 29.4106 19.7412 29.9965 19.74C29.997 19.74 29.9975 19.74 29.9979 19.74C29.9982 19.74 29.9985 19.74 29.999 19.74C29.9995 19.74 29.9996 19.74 30.0001 19.74C30.0005 19.74 30.0011 19.74 30.0015 19.74C30.5874 19.7412 31.0639 20.2182 31.0639 20.8046V24.813C31.0638 25.4002 30.5861 25.8777 29.999 25.8777ZM33.6671 40.2172C32.7336 38.9103 30.9401 34.0986 30.9401 30.951V27.6016C31.0445 27.5663 31.1467 27.5254 31.2456 27.479C31.8206 32.5001 33.633 37.8731 34.8898 41.1488C34.4158 40.9606 34.0741 40.7869 33.6671 40.2172ZM51.1356 31.0535C52.0028 34.5225 48.3789 38.6118 48.3428 38.652C48.2223 38.7859 48.1426 38.9516 48.1135 39.1295C47.6438 42.0004 45.7149 42.9642 45.6405 43.0003C45.4224 43.1009 45.2512 43.2814 45.162 43.5043C44.4116 45.3803 42.4616 44.9935 42.2475 44.9445C42.0316 44.8921 41.8043 44.9178 41.6057 45.0172C39.7774 45.9314 38.4032 44.1599 37.8334 43.3809C37.3795 42.3494 33.059 32.3326 32.944 24.7989C32.9439 24.7913 32.9429 24.784 32.9425 24.7764V23.9023C34.636 24.1538 38.0877 24.6406 41.6973 24.9966C42.8075 25.1061 43.8166 25.1923 44.7386 25.2588C46.3787 25.9536 50.4242 28.2085 51.1356 31.0535ZM54.9236 17.4286C54.6903 20.0115 54.4887 22.2421 53.3082 23.0293C52.933 23.2794 51.0012 24.0254 41.8898 23.1274C38.5112 22.7944 35.2719 22.3454 33.5134 22.0872C39.2555 19.0573 45.5118 14.6019 45.5783 14.5544C46.0005 14.2528 46.0982 13.6662 45.7967 13.2439C45.4952 12.8217 44.9083 12.724 44.4862 13.0255C44.4238 13.07 38.8007 17.0741 33.3978 20.0173C34.2085 18.3453 35.9609 15.0779 38.6499 11.8459C40.8727 9.17416 43.2914 7.0498 45.8386 5.53188C46.5662 5.09829 47.3056 4.71637 48.055 4.38181C50.4511 3.84673 52.4059 4.16595 53.865 5.33219C55.6285 6.74171 56.2364 9.06002 56.2729 10.0637C55.3585 12.62 55.1212 15.2426 54.9236 17.4286ZM57.5039 7.24597C57.0143 6.05418 56.2219 4.81059 55.0382 3.86443C54.5227 3.4524 53.9658 3.12134 53.3713 2.8667C54.1844 2.75947 55.0054 2.70392 55.8335 2.70392C56.8984 2.70392 58.1207 2.93888 58.1207 4.77063C58.1207 5.40602 57.9048 6.26254 57.5039 7.24597Z" fill="#00001B"/>
</svg>
