<svg width="23" height="22" viewBox="0 0 23 22" fill="none" xmlns="http://www.w3.org/2000/svg">
<path d="M17.9498 21.1999C17.9895 21.2261 18.0301 21.2525 18.0743 21.2712L18.2247 20.7823C18.2453 20.7958 18.2561 20.8028 18.2651 20.8081C18.2703 20.8112 18.2724 20.8122 18.2718 20.8119C18.2715 20.8118 18.2705 20.8113 18.2688 20.8105C18.2687 20.8105 18.2687 20.8105 18.2686 20.8105C18.2656 20.8092 18.2467 20.8015 18.2147 20.7975L18.1424 20.9074L18.2293 20.9038L18.1424 20.9074L18.042 21.0599L17.9498 21.1999ZM17.9498 21.1999L18.0419 21.0599L17.9498 21.1999ZM9.60556 7.00205L10.2641 7.31034L10.3163 6.58511C10.3375 6.28963 10.374 6.01388 10.4311 5.74257L9.94176 5.63968L10.4311 5.74256C10.7493 4.22916 11.5116 2.96596 12.805 1.98652C15.2073 0.167343 18.5138 0.365538 20.3878 2.34248C20.7327 2.70629 21.0231 3.1013 21.2505 3.53408C21.7707 4.52384 21.9547 5.60256 21.8588 6.76715C21.7772 7.75852 21.4698 8.71926 21.0168 9.66974C20.8222 10.078 20.6206 10.4841 20.4169 10.8945L20.3924 10.9438C20.1809 11.3697 19.9676 11.8 19.7621 12.2343L20.2141 12.4482L19.7621 12.2343C18.9131 14.0287 18.2749 15.8903 17.9966 17.8443C17.8687 18.7417 17.8153 19.6376 17.8321 20.5317C15.74 19.2373 13.4226 18.4515 10.912 18.1124C9.97629 17.986 9.02685 17.9227 8.09726 17.8607C7.8375 17.8433 7.57929 17.8261 7.32337 17.8077C6.29573 17.7335 5.32333 17.5756 4.42146 17.2228L4.42145 17.2228C3.37895 16.815 2.51024 16.2201 1.84495 15.3926L1.84494 15.3926C0.143865 13.2768 0.347621 10.4539 2.13337 8.41734C2.65557 7.82178 3.26788 7.33708 3.973 6.98907L3.97301 6.98906C5.7914 6.09153 7.55578 6.08986 9.29934 6.85891L9.29939 6.85893C9.36159 6.88635 9.41879 6.91356 9.48626 6.94564C9.52231 6.96279 9.5613 6.98133 9.60556 7.00205Z" stroke="#8E56FF"/>
</svg>
