<svg width="66" height="81" viewBox="0 0 66 81" fill="none" xmlns="http://www.w3.org/2000/svg">
<g opacity="0.42">
<path d="M52.6847 0.779409L50.0588 8.16344C49.9463 8.4796 49.7238 8.73023 49.4428 8.85651L42.8826 11.812C41.9558 12.2295 41.9558 13.7064 42.8826 14.1239L49.4428 17.0797C49.7238 17.2063 49.9463 17.4569 50.0588 17.7731L52.6847 25.1571C53.0555 26.2002 54.3678 26.2002 54.7386 25.1571L57.3645 17.7731C57.477 17.4569 57.6995 17.2063 57.9805 17.0797L64.5408 14.1239C65.4675 13.7064 65.4675 12.2298 64.5408 11.812L57.9809 8.85651C57.6999 8.72991 57.4774 8.47928 57.3648 8.16344L54.739 0.779409C54.3678 -0.264035 53.0558 -0.264035 52.6847 0.779409Z" fill="#00001B"/>
<path d="M32.7046 61.3505L30.7567 66.8276C30.6733 67.0623 30.5083 67.248 30.2999 67.342L25.4337 69.5344C24.7461 69.8441 24.7461 70.9394 25.4337 71.2491L30.2999 73.4415C30.5083 73.5355 30.6733 73.7212 30.7567 73.9559L32.7046 79.433C32.9798 80.2066 33.9529 80.2066 34.2282 79.433L36.176 73.9559C36.2594 73.7212 36.4244 73.5355 36.6328 73.4415L41.499 71.2491C42.1863 70.9394 42.1863 69.8441 41.499 69.5344L36.6328 67.342C36.4244 67.248 36.2594 67.0623 36.176 66.8276L34.2282 61.3505C33.9529 60.5769 32.9798 60.5769 32.7046 61.3505Z" fill="#00001B"/>
<path d="M0 14.5903C0 17.7571 2.56705 20.3245 5.73415 20.3245C8.90093 20.3245 11.468 17.7571 11.468 14.5903C11.468 11.4236 8.90093 8.8562 5.73415 8.8562C2.56705 8.8562 0 11.4233 0 14.5903Z" fill="#00001B"/>
<path d="M33.4562 42.3546C34.7804 42.3546 35.8538 41.2811 35.8538 39.9569C35.8538 38.6328 34.7804 37.5593 33.4562 37.5593C32.132 37.5593 31.0586 38.6328 31.0586 39.9569C31.0586 41.2811 32.132 42.3546 33.4562 42.3546Z" fill="#00001B"/>
</g>
</svg>
