<svg width="45" height="43" viewBox="0 0 45 43" fill="none" xmlns="http://www.w3.org/2000/svg">
<path d="M20.0816 14.0424L19.4231 13.7341C19.3415 13.6959 19.2665 13.6603 19.1954 13.6265C19.0558 13.5601 18.9312 13.5009 18.8005 13.4432L18.8005 13.4432C15.1799 11.8463 11.4962 11.8511 7.72472 13.7126L7.7247 13.7126C6.25093 14.44 4.97486 15.4515 3.89079 16.6879C0.176427 20.924 -0.269862 26.8409 3.30021 31.2813L2.91086 31.5943L3.30022 31.2813C4.6938 33.0146 6.50776 34.2518 8.66076 35.094L8.47861 35.5597L8.66077 35.094C10.5298 35.8252 12.53 36.1468 14.6108 36.2969C15.1287 36.3342 15.6491 36.369 16.1712 36.4038C18.0278 36.5276 19.9041 36.6528 21.757 36.9031L21.69 37.3986L21.757 36.9031C27.0277 37.6151 31.8559 39.3218 36.1744 42.165C36.1745 42.165 36.1745 42.165 36.1745 42.1651L20.0816 14.0424ZM20.0816 14.0424L20.1338 13.3172M20.0816 14.0424L20.1338 13.3172M20.1338 13.3172C20.1777 12.7072 20.2534 12.133 20.3728 11.5651L19.8835 11.4622M20.1338 13.3172L19.8835 11.4622M19.8835 11.4622L20.3728 11.5651C21.0331 8.42491 22.6217 5.79171 25.3082 3.7573M19.8835 11.4622L25.3082 3.7573M25.3082 3.7573C30.2928 -0.0173753 37.1959 0.364731 41.1385 4.52383M25.3082 3.7573L41.1385 4.52383M41.1385 4.52383C41.8564 5.28117 42.4652 6.10808 42.9436 7.01842M41.1385 4.52383L42.9436 7.01842M42.9436 7.01842C44.0341 9.09339 44.4144 11.3481 44.2159 13.7582M42.9436 7.01842L44.2159 13.7582M44.2159 13.7582C44.0464 15.8175 43.409 17.7986 42.485 19.7374M44.2159 13.7582L42.485 19.7374M42.485 19.7374C42.0941 20.5576 41.6893 21.3729 41.2824 22.1924M42.485 19.7374L41.2824 22.1924M41.2824 22.1924L41.2326 22.2929M41.2824 22.1924L41.2326 22.2929M41.2326 22.2929C40.8095 23.1449 40.3849 24.0016 39.9762 24.8654M41.2326 22.2929L39.9762 24.8654M39.9762 24.8654C38.2936 28.4214 37.036 32.0959 36.4882 35.9419M39.9762 24.8654L36.4882 35.9419M36.4882 35.9419C36.1999 37.9658 36.1037 39.9859 36.1872 42.0017L36.4882 35.9419ZM36.1939 42.1431C36.1946 42.1561 36.1952 42.168 36.1958 42.179L36.1939 42.1431Z" stroke="#8E56FF"/>
</svg>
