<svg width="43" height="142" viewBox="0 0 43 142" fill="none" xmlns="http://www.w3.org/2000/svg">
<path d="M0.752727 4.27936C0.241475 4.48773 0.0100175 5.06543 0.235755 5.56969L3.91437 13.7872C4.14011 14.2914 4.73756 14.5313 5.24881 14.3229C5.76006 14.1146 5.99152 13.5369 5.76578 13.0326L2.4959 5.72819L9.90155 2.70998C10.4128 2.50161 10.6443 1.92391 10.4185 1.41965C10.1928 0.915382 9.59534 0.675507 9.08408 0.883871L0.752727 4.27936ZM11.9305 66.2998L11.5739 67.2158L11.9305 66.2998ZM9.8792 139.363C9.47507 139.731 9.46039 140.356 9.84642 140.759C10.2325 141.163 10.873 141.192 11.2771 140.825L9.8792 139.363ZM34.2414 39.7531L35.2487 39.6824L34.2414 39.7531ZM12.2872 65.3839C11.0647 64.9059 10.3245 64.2556 9.90234 63.5704C9.47824 62.882 9.32434 62.0758 9.42037 61.2073C9.61624 59.4359 10.849 57.5199 12.6075 56.335L11.4311 54.7002C9.27911 56.1502 7.67519 58.5337 7.40814 60.9488C7.27272 62.1736 7.4808 63.4325 8.17463 64.5587C8.8704 65.6881 10.0041 66.602 11.5739 67.2158L12.2872 65.3839ZM12.6075 56.335C14.1012 55.3285 16.0903 55.0327 18.408 55.3817C20.7249 55.7306 23.2861 56.7145 25.7995 58.1521C30.8488 61.0404 35.4676 65.6194 37.3876 70.0352L39.2478 69.3004C37.105 64.3722 32.1084 59.4949 26.7912 56.4534C24.1212 54.9262 21.3114 53.8269 18.6695 53.4291C16.0285 53.0314 13.4712 53.3255 11.4311 54.7002L12.6075 56.335ZM37.3876 70.0352C44.2249 85.7602 37.5345 102.989 28.8706 116.495C24.5596 123.215 19.8075 128.937 16.1301 132.981C14.2924 135.002 12.7256 136.602 11.6199 137.694C11.0671 138.24 10.6297 138.66 10.3316 138.941C10.1826 139.082 10.0684 139.189 9.99199 139.26C9.95379 139.295 9.92504 139.321 9.90611 139.339C9.89665 139.348 9.88965 139.354 9.88515 139.358C9.8829 139.36 9.88127 139.362 9.88028 139.362C9.87978 139.363 9.87951 139.363 9.87926 139.363C9.87915 139.363 9.8792 139.363 10.5782 140.094C11.2771 140.825 11.2775 140.824 11.278 140.824C11.2784 140.823 11.2791 140.823 11.2799 140.822C11.2814 140.821 11.2836 140.819 11.2864 140.816C11.292 140.811 11.3001 140.803 11.3107 140.794C11.3319 140.774 11.363 140.746 11.4035 140.708C11.4845 140.633 11.6035 140.522 11.7574 140.377C12.0651 140.086 12.5127 139.657 13.0762 139.1C14.203 137.987 15.7941 136.362 17.6578 134.313C21.3832 130.216 26.208 124.408 30.5931 117.572C39.3216 103.966 46.501 85.9822 39.2478 69.3004L37.3876 70.0352ZM1.16146 5.19242C0.795909 6.10482 0.795743 6.10475 0.795695 6.10473C0.795836 6.10479 0.795904 6.10482 0.796186 6.10493C0.796746 6.10516 0.797774 6.10557 0.799264 6.10617C0.802245 6.10738 0.807082 6.10934 0.813741 6.11205C0.827061 6.11747 0.847679 6.12589 0.87537 6.13732C0.930753 6.16017 1.01442 6.195 1.12454 6.24174C1.34481 6.33522 1.67086 6.47628 2.08818 6.66425C2.92297 7.04026 4.12213 7.60363 5.56972 8.34901C8.46709 9.8409 12.3484 12.0562 16.2916 14.9507C24.2197 20.7703 32.1909 29.1809 33.2341 39.8238L35.2487 39.6824C34.1207 28.1744 25.5519 19.3047 17.4829 13.3817C13.4275 10.4049 9.44589 8.13326 6.48003 6.6061C4.996 5.84195 3.76346 5.26275 2.89944 4.87357C2.46737 4.67895 2.12724 4.53176 1.89368 4.43264C1.7769 4.38308 1.68673 4.34553 1.62502 4.32006C1.59416 4.30733 1.57041 4.29762 1.554 4.29094C1.5458 4.28761 1.53943 4.28502 1.53492 4.2832C1.53267 4.28229 1.53088 4.28157 1.52956 4.28104C1.5289 4.28077 1.52826 4.28052 1.52793 4.28038C1.52742 4.28018 1.52702 4.28002 1.16146 5.19242ZM33.2341 39.8238C33.9718 47.3496 31.1363 54.767 26.8368 59.7909C22.4956 64.8636 16.959 67.2104 12.2872 65.3839L11.5739 67.2158C17.4603 69.5171 23.845 66.4046 28.4027 61.079C33.0021 55.7047 36.0429 47.7848 35.2487 39.6824L33.2341 39.8238Z" fill="#FACC15"/>
</svg>
