<svg width="300" height="279" viewBox="0 0 300 279" fill="none" xmlns="http://www.w3.org/2000/svg">
<path d="M6.16821 113.622L6.16441 113.636L6.16821 113.622ZM6.16821 113.622C6.43805 112.618 6.71261 111.622 6.9918 110.636L6.27013 110.431C6.83034 108.451 7.4092 106.506 8.0061 104.594L8.722 104.818C9.32652 102.882 9.94952 100.981 10.5904 99.1153L9.88102 98.8717C10.5529 96.9151 11.2443 94.9962 11.9546 93.1143L12.6563 93.3791C13.3704 91.4869 14.1036 89.6323 14.855 87.8148L14.1619 87.5282C14.9537 85.6132 15.7656 83.7388 16.5969 81.9042L17.2801 82.2138C18.1157 80.3697 18.9709 78.5663 19.8446 76.8026L19.1726 76.4697C20.0909 74.6161 21.0297 72.8061 21.9881 71.0386L22.6474 71.3961C23.6156 69.6105 24.6036 67.8687 25.6105 66.1696L24.9652 65.7872C26.0146 64.0165 27.0843 62.2918 28.1732 60.6119L28.8025 61.0199C29.9121 59.3082 31.0415 57.6436 32.1895 56.0247L31.5777 55.5909C32.7596 53.9243 33.9611 52.3058 35.1809 50.7341L35.7733 51.1939C37.0292 49.5756 38.3045 48.0074 39.5975 46.4877L39.0262 46.0017C40.3467 44.4498 41.6857 42.948 43.0415 41.495L43.5899 42.0067C44.9838 40.5129 46.3955 39.0709 47.8233 37.6791L47.2998 37.1421C48.7668 35.712 50.2508 34.3345 51.7496 33.0078L52.2467 33.5694C53.7623 32.2278 55.2932 30.9386 56.8374 29.6997L56.3681 29.1147C57.969 27.8303 59.5842 26.5996 61.2114 25.4207L61.6514 26.0281C63.298 24.8351 64.957 23.6954 66.6259 22.6068L66.2161 21.9786C67.9232 20.8652 69.6405 19.8049 71.3658 18.7955L71.7445 19.4429C73.4977 18.4171 75.2591 17.4442 77.0261 16.5217L76.6789 15.8568C78.4932 14.9097 80.3131 14.0153 82.136 13.1713L82.4511 13.8519C84.2932 12.9989 86.1384 12.1975 87.9838 11.445L87.7006 10.7505C89.5882 9.98075 91.4757 9.26189 93.3602 8.59106L93.6117 9.29763C95.5268 8.61587 97.4389 7.98393 99.3444 7.39878L99.1243 6.68183C101.083 6.08035 103.035 5.5281 104.976 5.02178L105.165 5.74751C107.137 5.23325 109.098 4.76659 111.044 4.34408L110.885 3.61114C112.887 3.17656 114.874 2.78847 116.841 2.44316L116.971 3.18186C118.98 2.82909 120.969 2.52114 122.933 2.25401L122.832 1.51085C124.867 1.23418 126.874 1.0011 128.851 0.807202L128.924 1.55362C130.966 1.35321 132.975 1.19483 134.945 1.07354L134.899 0.324954C136.968 0.197553 138.994 0.110904 140.97 0.0593348L140.99 0.80908C143.061 0.755034 145.079 0.739685 147.034 0.756454L147.041 0.00648158C149.133 0.0244214 151.155 0.0789633 153.098 0.162114L153.066 0.911428C155.187 1.00217 157.213 1.12712 159.133 1.27581L159.191 0.528047C161.354 0.695589 163.384 0.893142 165.264 1.10584L165.179 1.85109C167.373 2.09937 169.361 2.36834 171.117 2.6341L171.23 1.89255C173.732 2.27132 175.767 2.64381 177.259 2.94169L177.112 3.67717C178.049 3.86415 178.769 4.02126 179.253 4.13129C179.495 4.18631 179.679 4.22955 179.801 4.25886C179.862 4.27351 179.908 4.28469 179.938 4.29211L179.971 4.30039L179.979 4.30236L179.981 4.30279L179.981 4.30285L180.014 4.31126M6.16821 113.622L180.014 4.31126M180.014 4.31126L180.048 4.31659L180.048 4.31662L180.05 4.31689L180.058 4.31812L180.091 4.32342C180.12 4.32823 180.165 4.33562 180.225 4.3457C180.344 4.36586 180.523 4.39679 180.759 4.43948C181.231 4.52486 181.93 4.65722 182.833 4.84434L182.985 4.10993C184.417 4.40646 186.355 4.8389 188.712 5.43755L188.527 6.16445C190.2 6.58961 192.086 7.09917 194.152 7.70411L194.363 6.98433C196.098 7.49232 197.959 8.06719 199.927 8.71537L199.692 9.42774C201.45 10.0064 203.293 10.6439 205.209 11.3446L205.466 10.6403C207.224 11.2833 209.043 11.9795 210.912 12.7323L210.632 13.428C212.381 14.1325 214.174 14.8868 216.003 15.6939L216.306 15.0077C218.05 15.7772 219.826 16.5945 221.627 17.462L221.301 18.1377C223.018 18.9645 224.757 19.837 226.512 20.7575L226.86 20.0933C228.555 20.9825 230.266 21.9162 231.985 22.8966L231.614 23.5481C233.274 24.4947 234.943 25.4847 236.616 26.5201L237.011 25.8825C238.647 26.8953 240.286 27.9514 241.924 29.0524L241.506 29.6749C243.097 30.7448 244.688 31.8573 246.272 33.0137L246.714 32.408C248.273 33.5457 249.825 34.726 251.368 35.9502L250.902 36.5378C252.407 37.732 253.903 38.9681 255.385 40.2475L255.875 39.6798C257.338 40.9429 258.788 42.248 260.221 43.5964L259.707 44.1426C261.108 45.4602 262.492 46.8192 263.856 48.2209L264.394 47.6978C265.741 49.0818 267.069 50.5073 268.374 51.9754L267.814 52.4738C269.089 53.9086 270.344 55.3843 271.573 56.9019L272.156 56.4299C273.371 57.9304 274.562 59.4719 275.727 61.0553L275.122 61.4996C276.259 63.0458 277.37 64.6323 278.452 66.2598L279.076 65.8447C280.145 67.4529 281.186 69.101 282.196 70.7901L281.552 71.175C282.538 72.8227 283.494 74.5096 284.417 76.2366L285.079 75.8829C285.99 77.5877 286.871 79.3313 287.718 81.1146L287.041 81.4364C287.862 83.1646 288.651 84.9304 289.407 86.7344L290.099 86.4447C290.842 88.2188 291.552 90.0296 292.228 91.8779L291.523 92.1354C291.857 93.0482 292.182 93.9703 292.498 94.9016C292.813 95.8333 293.117 96.7715 293.411 97.7159L294.127 97.4935C294.715 99.3889 295.261 101.309 295.762 103.251L295.035 103.439C295.528 105.349 295.978 107.28 296.386 109.231L297.12 109.078C297.525 111.018 297.887 112.976 298.208 114.951L297.467 115.071C297.783 117.018 298.057 118.982 298.29 120.96L299.034 120.872C299.266 122.845 299.457 124.832 299.605 126.83L298.857 126.885C299.004 128.856 299.109 130.837 299.174 132.827L299.924 132.803C299.988 134.787 300.012 136.779 299.995 138.777L299.245 138.771C299.228 140.747 299.171 142.731 299.073 144.718L299.822 144.755C299.725 146.742 299.587 148.733 299.409 150.726L298.661 150.659C298.485 152.628 298.269 154.6 298.014 156.571L298.757 156.667C298.501 158.639 298.206 160.61 297.87 162.579L297.131 162.453C296.798 164.404 296.426 166.354 296.014 168.299L296.747 168.454C296.335 170.401 295.883 172.344 295.391 174.281L294.664 174.096C294.177 176.014 293.65 177.925 293.085 179.829L293.803 180.042C293.236 181.95 292.63 183.849 291.983 185.739L291.274 185.496C290.633 187.37 289.952 189.235 289.232 191.087L289.931 191.359C289.211 193.213 288.451 195.055 287.651 196.884L286.964 196.583C286.171 198.397 285.339 200.196 284.468 201.981L285.142 202.31C284.268 204.099 283.355 205.872 282.403 207.628L281.743 207.27C280.8 209.01 279.818 210.732 278.796 212.435L279.439 212.821C278.416 214.525 277.354 216.212 276.253 217.877L275.628 217.463C274.536 219.113 273.406 220.743 272.237 222.351L272.844 222.792C271.674 224.4 270.466 225.986 269.218 227.548L268.632 227.08C267.4 228.623 266.13 230.142 264.821 231.636L265.385 232.13C264.076 233.624 262.728 235.094 261.341 236.537L260.8 236.017C259.432 237.442 258.025 238.84 256.58 240.21L257.096 240.754C255.659 242.118 254.184 243.453 252.671 244.76L252.181 244.193C250.688 245.483 249.158 246.744 247.59 247.975L248.054 248.565C246.494 249.791 244.898 250.986 243.265 252.151L242.829 251.54C241.229 252.681 239.593 253.792 237.921 254.872L238.328 255.502C236.662 256.578 234.96 257.623 233.222 258.635L232.845 257.987C231.147 258.977 229.414 259.935 227.648 260.86L227.996 261.524C226.246 262.44 224.463 263.325 222.647 264.175L222.328 263.496C220.539 264.334 218.718 265.14 216.863 265.911L217.151 266.604C215.337 267.359 213.491 268.081 211.615 268.771L211.356 268.067C209.507 268.746 207.628 269.392 205.717 270.005L205.947 270.719C204.07 271.321 202.163 271.891 200.227 272.427L200.027 271.705C198.136 272.228 196.217 272.72 194.269 273.179L194.441 273.909C192.515 274.363 190.561 274.784 188.579 275.172L188.435 274.436C186.517 274.812 184.572 275.157 182.6 275.47L182.718 276.211C180.758 276.522 178.772 276.801 176.76 277.048L176.668 276.304C174.733 276.542 172.774 276.749 170.791 276.926L170.857 277.673C168.877 277.849 166.873 277.995 164.844 278.109L164.802 277.361C162.859 277.47 160.893 277.551 158.905 277.602L158.925 278.351C156.937 278.402 154.927 278.424 152.895 278.415L152.898 277.665C150.951 277.657 148.983 277.621 146.995 277.557L146.971 278.306C144.987 278.242 142.983 278.15 140.959 278.029L141.003 277.28C139.054 277.164 137.085 277.021 135.096 276.85L135.032 277.597C133.063 277.428 131.074 277.233 129.067 277.01L129.15 276.265C128.149 276.154 127.144 276.036 126.134 275.911C125.122 275.787 124.118 275.657 123.122 275.523L123.022 276.267C121.025 275.998 119.059 275.711 117.124 275.406L117.241 274.665C115.312 274.361 113.413 274.04 111.545 273.701L111.412 274.439C109.404 274.075 107.432 273.691 105.495 273.288L105.647 272.554C103.71 272.151 101.808 271.729 99.9398 271.288L99.7675 272.018C97.8117 271.557 95.8929 271.075 94.0104 270.573L94.2035 269.848C92.2746 269.335 90.3842 268.8 88.5316 268.245L88.3166 268.964C86.4057 268.392 84.5346 267.799 82.7025 267.185L82.9407 266.474C81.0395 265.837 79.1807 265.179 77.3636 264.499L77.1009 265.201C75.235 264.504 73.4125 263.783 71.6324 263.042L71.9207 262.35C70.0705 261.579 68.2667 260.786 66.5081 259.971L66.1927 260.652C64.3802 259.812 62.6152 258.949 60.8965 258.064L61.2399 257.397C59.4669 256.484 57.7438 255.548 56.0693 254.59L55.6968 255.241C53.9546 254.244 52.2643 253.223 50.6247 252.18L51.0272 251.547C49.3591 250.487 47.7439 249.403 46.1801 248.298L45.7472 248.91C44.1 247.746 42.509 246.558 40.9727 245.348L41.4367 244.759C39.8826 243.535 38.385 242.289 36.9418 241.022L36.4471 241.586C34.9424 240.265 33.4964 238.922 32.1071 237.559L32.6323 237.024C31.2127 235.631 29.8527 234.218 28.5501 232.785L27.9953 233.29C26.657 231.819 25.3786 230.327 24.158 228.819L24.741 228.347C23.4946 226.807 22.3088 225.249 21.181 223.675L20.5714 224.112C19.4076 222.489 18.305 220.849 17.2609 219.196L17.895 218.796C16.8404 217.126 15.8458 215.443 14.9082 213.749L14.252 214.112C13.291 212.376 12.3896 210.629 11.5447 208.874L12.2204 208.548C11.3611 206.764 10.5606 204.971 9.81546 203.173L9.12261 203.46C8.36013 201.62 7.65537 199.776 7.00481 197.93L7.71214 197.681C7.05545 195.818 6.45428 193.954 5.905 192.092L5.18565 192.304C4.62342 190.398 4.11528 188.495 3.65734 186.599L4.38639 186.423C3.92193 184.5 3.50939 182.584 3.14469 180.678L2.40806 180.819C2.03247 178.857 1.70737 176.907 1.42836 174.973L2.17067 174.866C1.88672 172.898 1.65074 170.948 1.45802 169.019L0.711739 169.093C0.512651 167.101 0.359524 165.132 0.247219 163.191L0.995966 163.148C0.880565 161.155 0.808479 159.191 0.77409 157.265L0.0242097 157.278C-0.011743 155.264 -0.00669148 153.289 0.0329879 151.361L0.782829 151.377C0.824313 149.361 0.90383 147.396 1.01403 145.49L0.265284 145.447C0.383168 143.408 0.535994 141.436 0.714838 139.54L1.46152 139.611C1.65468 137.563 1.87834 135.605 2.12114 133.748L1.37747 133.651C1.64932 131.572 1.94506 129.619 2.24891 127.809L2.98856 127.933C3.3482 125.791 3.71918 123.85 4.07508 122.138L3.34078 121.985C3.84012 119.584 4.31013 117.629 4.67864 116.198L180.014 4.31126Z" stroke="#C8C2C8" stroke-width="1.5" stroke-dasharray="6 6"/>
</svg>
