<svg width="262" height="242" viewBox="0 0 262 242" fill="none" xmlns="http://www.w3.org/2000/svg">
<path d="M0.473862 240.51C0.488574 241.338 1.17196 241.998 2.00026 241.983C2.82856 241.968 3.4881 241.285 3.47339 240.457L0.473862 240.51ZM34.8634 193.123L34.6831 191.634L34.8634 193.123ZM86.3484 207.411L87.2374 206.202L86.3484 207.411ZM93.8351 231.214L94.7536 232.4L93.8351 231.214ZM51.246 202.926L52.6625 202.432L51.246 202.926ZM66.0925 123.501L64.9437 122.537L66.0925 123.501ZM163.122 89.1789L162.469 90.5295L163.122 89.1789ZM192.574 169.582L193.736 170.53L192.574 169.582ZM142.037 153.151L140.755 153.93L142.037 153.151ZM162.296 40.5802L163.113 41.838L162.296 40.5802ZM261.335 11.3989C261.852 10.7519 261.747 9.80797 261.1 9.29061L250.556 0.859733C249.909 0.342376 248.965 0.447484 248.448 1.09449C247.931 1.74151 248.036 2.68542 248.683 3.20278L258.055 10.6969L250.561 20.0691C250.043 20.7161 250.149 21.66 250.796 22.1774C251.443 22.6948 252.387 22.5896 252.904 21.9426L261.335 11.3989ZM3.47339 240.457C3.2841 229.798 5.9647 218.918 11.316 210.419C16.6528 201.942 24.6068 195.876 35.0437 194.612L34.6831 191.634C23.1823 193.026 14.4978 199.734 8.77724 208.82C3.07121 217.884 0.275766 229.356 0.473862 240.51L3.47339 240.457ZM35.0437 194.612C51.4165 192.63 72.0133 198.726 85.4595 208.619L87.2374 206.202C73.2432 195.906 51.8933 189.551 34.6831 191.634L35.0437 194.612ZM85.4595 208.619C88.7802 211.062 92.7251 215.078 94.7317 219.226C95.7299 221.289 96.1945 223.273 95.9786 225.057C95.7689 226.79 94.9004 228.492 92.9166 230.028L94.7536 232.4C97.3139 230.417 98.6424 228.016 98.9568 225.418C99.265 222.871 98.5811 220.294 97.4323 217.919C95.1449 213.191 90.8025 208.825 87.2374 206.202L85.4595 208.619ZM92.9166 230.028C87.506 234.219 79.3839 232.544 71.2615 226.774C63.2558 221.087 55.94 211.839 52.6625 202.432L49.8295 203.419C53.3295 213.465 61.0558 223.204 69.5241 229.22C77.8756 235.152 87.6594 237.895 94.7536 232.4L92.9166 230.028ZM52.6625 202.432C42.7792 174.066 49.6622 145.402 67.2412 124.466L64.9437 122.537C46.736 144.221 39.5729 173.981 49.8295 203.419L52.6625 202.432ZM67.2412 124.466C78.2192 111.391 93.5991 98.7688 110.48 91.501C127.349 84.2382 145.583 82.3701 162.469 90.5295L163.775 87.8283C145.876 79.1794 126.694 81.2543 109.294 88.7455C91.9054 96.2318 76.163 109.175 64.9437 122.537L67.2412 124.466ZM162.469 90.5295C178.263 98.161 186.662 109.014 192.604 126.341L195.441 125.368C189.291 107.435 180.421 95.872 163.775 87.8283L162.469 90.5295ZM192.604 126.341C194.99 133.301 197.026 141.066 197.28 148.525C197.534 155.973 196.01 162.995 191.411 168.634L193.736 170.53C198.94 164.148 200.547 156.324 200.278 148.423C200.009 140.532 197.868 132.444 195.441 125.368L192.604 126.341ZM191.411 168.634C187.569 173.345 183.397 175.721 179.182 176.476C174.944 177.234 170.497 176.383 166.086 174.337C157.224 170.226 148.821 161.43 143.319 152.373L140.755 153.93C146.451 163.306 155.25 172.617 164.824 177.058C169.631 179.288 174.71 180.324 179.711 179.429C184.734 178.529 189.512 175.71 193.736 170.53L191.411 168.634ZM143.319 152.373C132.185 134.045 129.018 111.657 132.726 91.1881C136.435 70.7111 146.992 52.3136 163.113 41.838L161.479 39.3224C144.514 50.3462 133.595 69.5577 129.774 90.6533C125.951 111.757 129.197 134.905 140.755 153.93L143.319 152.373ZM163.113 41.838C191.839 23.1722 226.446 15.7259 260.329 11.9529L259.997 8.97135C225.965 12.7609 190.796 20.2722 161.479 39.3224L163.113 41.838Z" fill="black"/>
</svg>
