<svg width="1290" height="946" viewBox="0 0 1290 946" fill="none" xmlns="http://www.w3.org/2000/svg">
<path d="M514.664 873.775C683.787 873.775 820.888 736.674 820.888 567.551C820.888 398.428 683.787 261.327 514.664 261.327C345.541 261.327 208.439 398.428 208.439 567.551C208.439 736.674 345.541 873.775 514.664 873.775Z" fill="#DFF1F4"/>
<path d="M699.142 689.291C868.265 689.291 1005.37 552.19 1005.37 383.067C1005.37 213.944 868.265 76.8423 699.142 76.8423C530.019 76.8423 392.918 213.944 392.918 383.067C392.918 552.19 530.019 689.291 699.142 689.291Z" fill="#DFF1F4"/>
<path d="M647.471 526.641C693.207 470.696 769.765 487.934 833.922 549.829C867.931 582.639 871.592 590.216 871.592 590.216L816.249 684.98L670.186 585.131L647.471 526.641Z" fill="#83A9FF"/>
<path d="M844.125 637.247L741.984 532.192L756.965 644.453L816.249 684.981L844.125 637.247Z" fill="#6F97DD"/>
<path d="M869.544 684.607C898.167 665.722 906.062 627.209 887.178 598.585C868.293 569.961 829.78 562.066 801.156 580.951C772.532 599.836 764.637 638.349 783.522 666.973C802.407 695.596 840.92 703.491 869.544 684.607Z" fill="#6F97DD"/>
<path d="M712.836 509.835C712.836 509.835 780.167 654.288 788.348 665.036C796.529 675.782 840.032 691.96 862.344 688.758C884.653 685.556 885.713 614.098 881.027 605.321C876.342 596.542 754.061 484.883 754.061 484.883C754.061 484.883 708.822 470.073 712.836 509.835Z" fill="#A56F62"/>
<path d="M537.727 538.958C508.021 473.083 449.671 461.124 371.685 504.314C330.345 527.208 324.85 533.579 324.85 533.579L353.793 639.436L537.727 538.958Z" fill="#83A9FF"/>
<path d="M372.614 641.498C404.297 628.374 419.342 592.052 406.218 560.369C393.094 528.686 356.772 513.641 325.089 526.765C293.406 539.889 278.361 576.211 291.485 607.894C304.609 639.577 340.931 654.622 372.614 641.498Z" fill="#6F97DD"/>
<path d="M704.638 860.256C704.698 871.006 698.642 880.924 688.945 885.559C667.476 895.819 636.294 907.054 597.592 909.768C543.114 913.591 499.357 898.738 473.23 886.722C463.387 882.193 457.13 872.302 457.073 861.468C456.55 763.772 456.027 674.244 455.502 577.133C455.199 521.044 500.428 475.315 556.519 475.019L607.693 474.748C660.069 474.47 702.756 516.706 703.034 569.082L704.638 860.256Z" fill="#83A9FF"/>
<path d="M457.074 861.473C457.131 872.306 463.388 882.2 473.231 886.726C499.358 898.743 543.115 913.593 597.593 909.773C636.297 907.057 667.477 895.823 688.946 885.563C698.645 880.929 704.699 871.009 704.639 860.261L704.05 753.27L456.959 840.171C456.997 847.236 457.036 854.327 457.074 861.473Z" fill="#6F97DD"/>
<path d="M537.202 479.996C529.355 499.11 548.89 525.24 580.838 538.358C612.785 551.478 645.046 546.618 652.896 527.504C660.746 508.392 641.21 482.26 609.263 469.142C577.315 456.022 545.052 460.882 537.202 479.996Z" fill="#A56F62"/>
<path d="M662.145 195.803L657.702 194.832C629.211 188.598 598.221 219.623 588.484 264.123L540.215 484.751L647.833 508.296L696.105 287.671C705.839 243.166 690.636 202.038 662.145 195.803Z" fill="#A56F62"/>
<path d="M661.591 203.873L657.149 202.902C628.657 196.667 598.244 225.061 589.215 266.32L556.237 417.056C549.736 446.773 568.556 476.136 598.275 482.637C627.993 489.141 657.354 470.32 663.856 440.602L696.836 289.867C705.86 248.607 690.08 210.107 661.591 203.873Z" fill="#8C5C53"/>
<path d="M640.576 400.721C638.603 405.57 627.615 405.68 616.031 400.966C604.449 396.252 596.659 388.501 598.632 383.65C600.605 378.802 611.595 378.694 623.177 383.406C634.759 388.122 642.549 395.872 640.576 400.721Z" fill="#D88D87"/>
<path d="M648.753 95.7877C640.082 94.852 631.881 83.7909 623.411 84.08C614.729 84.3758 607.316 96.0018 598.943 97.5069C590.422 99.0385 579.427 90.7427 571.33 93.4418C563.142 96.1695 559.322 109.418 551.671 113.251C543.973 117.111 531.078 112.251 524.034 117.146C516.976 122.048 517.024 135.83 510.732 141.683C504.452 147.522 490.707 146.47 485.296 153.168C479.917 159.824 483.832 173.032 479.423 180.449C475.062 187.785 461.576 190.65 458.265 198.648C455.01 206.509 462.505 218.06 460.364 226.479C458.276 234.693 446.147 241.246 445.211 249.917C444.278 258.588 454.732 267.576 455.021 276.046C455.317 284.728 445.534 294.419 447.039 302.792C448.57 311.313 461.136 316.987 463.833 325.086C466.561 333.274 459.92 345.344 463.756 352.995C467.616 360.693 481.268 362.593 486.161 369.637C491.062 376.695 488.076 390.151 493.927 396.443C499.766 402.723 513.401 400.724 520.096 406.135C526.752 411.514 527.664 425.269 535.081 429.681C542.417 434.042 554.926 428.282 562.922 431.592C570.783 434.847 575.547 447.784 583.965 449.925C592.179 452.013 602.547 442.951 611.218 443.887C619.889 444.823 628.087 455.884 636.558 455.595C645.24 455.299 652.653 443.673 661.026 442.17C669.544 440.638 680.539 448.934 688.639 446.235C696.826 443.507 700.649 430.261 708.298 426.424C715.996 422.564 728.888 427.423 735.933 422.531C742.991 417.629 742.942 403.845 749.234 397.994C755.515 392.155 769.259 393.207 774.671 386.509C780.049 379.851 776.134 366.645 780.543 359.225C784.906 351.889 798.393 349.025 801.703 341.029C804.959 333.168 797.464 321.615 799.604 313.198C801.694 304.984 813.824 298.431 814.757 289.76C815.693 281.089 805.239 272.1 804.95 263.63C804.654 254.948 814.437 245.258 812.932 236.885C811.4 228.366 798.834 222.69 796.137 214.593C793.41 206.405 800.048 194.335 796.212 186.684C792.355 178.986 778.701 177.086 773.808 170.042C768.906 162.984 771.892 149.528 766.04 143.234C760.2 136.953 746.566 138.953 739.87 133.541C733.212 128.163 732.302 114.405 724.885 109.996C717.549 105.635 705.04 111.397 697.045 108.085C689.184 104.829 684.419 91.8925 676.002 89.7518C667.792 87.6619 657.424 96.7235 648.753 95.7877Z" fill="#252538"/>
<path d="M732.703 331.814L523.295 309.238L525.617 287.698C531.851 229.873 583.782 188.049 641.608 194.284C699.436 200.518 741.257 252.449 735.022 310.277L732.703 331.814Z" fill="#252538"/>
<path d="M733.27 355.712L517.175 332.413C507.721 331.394 500.884 322.904 501.903 313.449C502.923 303.995 511.413 297.156 520.867 298.175L736.962 321.474C746.417 322.493 753.254 330.983 752.234 340.438C751.214 349.894 742.724 356.731 733.27 355.712Z" fill="#8C5C53"/>
<path d="M510.864 314.424C511.35 309.92 515.395 306.66 519.899 307.146L735.994 330.444C740.498 330.93 743.756 334.975 743.27 339.482C742.785 343.986 738.739 347.243 734.235 346.758L518.141 323.459C513.636 322.974 510.379 318.929 510.864 314.424Z" fill="#AA635F"/>
<path d="M611.26 473.568C558.486 467.878 520.318 420.485 526.009 367.711L535.788 277.002C541.244 226.409 586.68 189.816 637.273 195.269L645.165 196.121C695.761 201.576 732.352 247.012 726.898 297.608L717.12 388.317C711.428 441.089 664.034 479.257 611.26 473.568Z" fill="#A56F62"/>
<path d="M601.414 395.944C611.685 398.087 625.99 401.702 639.329 407.259C648.104 410.914 655.896 401.83 652.498 392.453C649.706 384.751 641.379 378.079 630.506 374.54C618.339 370.578 604.091 375.493 598.567 379.313C590.75 384.722 592.258 394.035 601.414 395.944Z" fill="white"/>
<path d="M654.086 194.085L629.463 191.43C578.437 185.928 532.611 222.833 527.109 273.861L526.354 280.855C526.275 281.587 526.226 282.318 526.206 283.044C525.827 297.009 546.896 297.982 548.395 284.094L548.759 280.724C551.405 256.19 573.439 238.442 597.975 241.088L674.266 249.313C698.803 251.959 716.546 273.993 713.902 298.528L713.538 301.898C712.04 315.786 732.833 319.326 735.44 305.601C735.574 304.888 735.682 304.162 735.762 303.429L736.517 296.435C742.018 245.411 705.112 199.587 654.086 194.085Z" fill="#252538"/>
<path d="M603.348 303.745L582.234 301.469C577.43 300.951 573.113 304.427 572.594 309.233C572.076 314.04 575.552 318.355 580.358 318.873L601.472 321.151C606.278 321.669 610.593 318.194 611.112 313.387C611.63 308.578 608.154 304.263 603.348 303.745Z" fill="#8C5C53"/>
<path d="M698.236 313.979L677.123 311.704C672.318 311.185 668.001 314.661 667.483 319.468C666.964 324.274 670.442 328.589 675.247 329.108L696.36 331.383C701.167 331.902 705.482 328.426 706 323.621C706.517 318.815 703.043 314.498 698.236 313.979Z" fill="#8C5C53"/>
<path d="M597.906 300.648C591.729 299.982 586.183 304.451 585.519 310.626C584.853 316.801 589.319 322.349 595.496 323.015C601.674 323.682 607.22 319.213 607.886 313.038C608.55 306.863 604.084 301.315 597.906 300.648Z" fill="#252538"/>
<path d="M682.641 309.781C676.464 309.114 670.918 313.583 670.251 319.758C669.585 325.933 674.054 331.482 680.229 332.148C686.404 332.815 691.952 328.346 692.618 322.171C693.285 315.996 688.818 310.447 682.641 309.781Z" fill="#252538"/>
<path d="M704.545 292.834L689.062 279.489C685.667 276.562 680.547 276.942 677.623 280.336C674.697 283.73 675.076 288.853 678.471 291.777L693.954 305.122C697.348 308.046 702.469 307.666 705.395 304.274C708.317 300.882 707.937 295.76 704.545 292.834Z" fill="#252538"/>
<path d="M600.436 270.631L581.236 277.647C577.029 279.185 574.864 283.844 576.4 288.05C577.939 292.259 582.597 294.422 586.804 292.884L606.004 285.868C610.21 284.33 612.375 279.673 610.839 275.464C609.301 271.258 604.642 269.095 600.436 270.631Z" fill="#252538"/>
<path d="M637.004 430.653C634.933 435.312 624.234 435.08 613.105 430.137C601.975 425.193 594.631 417.409 596.701 412.751C598.771 408.092 609.47 408.324 620.597 413.267C631.729 418.211 639.071 425.994 637.004 430.653Z" fill="#8C5C53"/>
<path d="M635.982 363.064C627.192 362.115 620.836 354.223 621.783 345.433L624.564 319.625C625.513 310.835 633.404 304.479 642.195 305.426C650.985 306.372 657.341 314.267 656.394 323.057L653.611 348.864C652.664 357.655 644.77 364.013 635.982 363.064Z" fill="#D88D87"/>
<path d="M645.409 354.935C643.087 354.686 641.408 352.6 641.657 350.278L644.879 320.405C645.129 318.082 647.214 316.404 649.536 316.654C651.858 316.903 653.537 318.989 653.288 321.313L650.068 351.185C649.816 353.505 647.731 355.184 645.409 354.935Z" fill="#F79C97"/>
<path d="M498.999 497.012C498.999 497.012 396.589 619.127 385.906 627.392C375.222 635.655 329.014 640.029 308.293 631.164C287.57 622.298 305.033 552.999 311.831 545.734C318.628 538.466 465.633 462.246 465.633 462.246C465.633 462.246 513.165 459.642 498.999 497.012Z" fill="#A56F62"/>
<path d="M515.539 343.418C509.561 344.908 506.945 354.062 504.516 360.601C502.086 367.14 482.471 435.519 482.471 435.519H504.703L515.539 343.418Z" fill="#8C5C53"/>
<path d="M498.998 496.998C515.726 486.149 526.304 475.501 524.658 455.323C523.221 437.718 526.668 362.085 527.571 343.086C527.727 339.777 525.128 336.935 521.815 336.926C518.957 336.919 515.651 338.283 513.296 343.419C508.24 354.436 499.472 405.819 492.185 416.962C484.9 428.105 451.836 474.379 451.836 474.379L498.998 496.998Z" fill="#A56F62"/>
<path d="M517.768 354.708C517.004 358.168 503.227 421.449 503.227 421.449L505.471 421.939C505.471 421.939 519.244 358.665 520.01 355.204C520.37 353.575 522.241 346.443 527.5 344.578C527.525 344.061 527.549 343.545 527.571 343.09C527.586 342.766 527.553 342.45 527.518 342.137C520.535 343.927 518.2 352.748 517.768 354.708Z" fill="#8C5C53"/>
<path d="M734.957 361.449C740.406 364.327 740.753 373.841 741.545 380.771C742.337 387.701 745.01 458.788 745.01 458.788L723.424 453.465L734.957 361.449Z" fill="#8C5C53"/>
<path d="M714.242 514.519C700.599 499.982 692.877 487.109 699.306 467.913C704.916 451.165 719.678 376.907 723.352 358.245C723.992 354.997 727.199 352.858 730.414 353.644C733.191 354.321 736.073 356.438 737.132 361.986C739.403 373.894 735.614 425.881 740.021 438.444C744.426 451.008 765.449 503.853 765.449 503.853L714.242 514.519Z" fill="#A56F62"/>
<path d="M730.089 371.871C730.002 375.414 728.226 440.153 728.226 440.153L725.931 440.089C725.931 440.089 727.707 375.358 727.796 371.816C727.835 370.148 727.727 362.775 723.068 359.705C723.168 359.197 723.269 358.692 723.355 358.246C723.417 357.928 723.525 357.628 723.633 357.332C729.983 360.742 730.137 369.865 730.089 371.871Z" fill="#8C5C53"/>
<path d="M1171.88 877.273H1111.93L1099.78 814.91H1184.04L1171.88 877.273Z" fill="#A94BBC"/>
<path d="M1105.28 843.126L1180.53 832.919L1184.04 814.91H1099.78L1105.28 843.126Z" fill="#843C96"/>
<path d="M1141.37 810.225C1177.48 760.15 1141.83 730.334 1141.37 729.95V729.942L1141.36 729.946L1141.36 729.942V729.95C1140.89 730.332 1105.24 760.148 1141.36 810.225V810.24L1141.36 810.234L1141.37 810.24V810.225Z" fill="#A7E070"/>
<path d="M1138.68 816.42C1139.13 747.904 1181.67 742.978 1217.05 767.608L1138.68 816.42Z" fill="#75B75A"/>
<path d="M1144.5 818.205C1144.5 774.318 1194.21 759.541 1219.74 809.697L1144.5 818.205Z" fill="#A7E070"/>
<path d="M1144.05 816.42C1143.6 747.904 1101.06 742.978 1065.68 767.608L1144.05 816.42Z" fill="#75B75A"/>
<path d="M1138.23 818.205C1138.23 774.318 1088.52 759.541 1063 809.697L1138.23 818.205Z" fill="#A7E070"/>
<path d="M1189.03 812.395H1093.16V826.707H1189.03V812.395Z" fill="#A94BBC"/>
<path d="M1172.72 542.871L1189.37 490.871L1149.47 558.094L1171.78 554.17L1155.54 610.934L1195.03 538.949L1172.72 542.871Z" fill="#EDCB3A"/>
<path d="M1216.81 569.285L1259.75 535.559L1189.02 568.848L1209.7 578.11L1164.42 616.003L1237.49 578.547L1216.81 569.285Z" fill="#EDCB3A"/>
<path d="M1290 612.678L1212.81 600.332L1224.67 619.632L1165.92 625.425L1247.39 635.647L1235.53 616.35L1290 612.678Z" fill="#EDCB3A"/>
<path d="M1077.56 860.608L741.975 860.561L812.053 624.598H1147.29L1077.56 860.608Z" fill="#3C3C5B"/>
<path d="M1077.53 860.528H586.771V877.289H1077.53V860.528Z" fill="#252538"/>
<path d="M1077.54 860.528H741.988V877.289H1077.54V860.528Z" fill="#6D6DA0"/>
<path d="M812.054 624.598H799.314L728.242 861.279L741.989 860.524L812.054 624.598Z" fill="#252538"/>
<path d="M979.116 763.44C973.625 780.303 957.471 790.161 943.033 785.461C928.595 780.76 921.341 763.279 926.832 746.416C932.323 729.553 948.478 719.694 962.915 724.395C977.353 729.096 984.605 746.577 979.116 763.44Z" fill="#6D6DA0"/>
<path d="M1208.95 877.473H0V914.165H1208.95V877.473Z" fill="#EDCB3A"/>
<path d="M1146.83 913.332H62.1328V945.99H1146.83V913.332Z" fill="#EDCB3A"/>
<path d="M62.1328 922.138L1146.83 937.416V913.332H62.1328V922.138Z" fill="#E59F01"/>
<path d="M381.636 213.858C393.474 119.511 326.588 33.4313 232.242 21.5928C137.895 9.75435 51.815 76.6404 39.9765 170.987C28.138 265.334 95.0241 351.414 189.371 363.252C283.717 375.091 369.797 308.205 381.636 213.858Z" fill="#890C25"/>
<path d="M336.84 289.268H403.588L359.465 245.145L336.84 289.268Z" fill="#FF5050"/>
<path d="M162.085 291.339L345.709 173.377L92.6069 101.416L219.158 291.339L240.665 104.724L83.5078 223.121L327.513 124.575L275.404 291.72C275.404 291.72 129.827 243.682 132.309 242.857C134.79 242.03 178.628 48.4807 178.628 48.4807L247.281 320.287" stroke="white" stroke-width="2" stroke-miterlimit="10"/>
<path d="M223.502 720.565H279.044C289.156 720.565 297.352 712.369 297.352 702.257V596.051H205.191V702.257C205.191 712.369 213.39 720.565 223.502 720.565Z" fill="#A94BBC"/>
<path d="M205.447 704.346C206.884 713.531 214.809 720.565 224.396 720.565H278.148C288.754 720.565 297.352 711.967 297.352 701.36V672.856L205.447 704.346Z" fill="#843C96"/>
<path d="M165.732 670.318V634.043C165.732 619.985 177.169 608.551 191.222 608.551H221.126V695.808H191.222C177.169 695.808 165.732 684.372 165.732 670.318ZM207.889 621.786H191.222C184.465 621.786 178.967 627.286 178.967 634.043V670.318C178.967 677.076 184.465 682.571 191.222 682.571H207.889V621.786Z" fill="#A94BBC"/>
<path d="M270.368 585.139C268.45 585.139 266.896 583.583 266.896 581.667C266.896 571.553 272.405 566.437 277.267 561.924C281.641 557.863 285.417 554.359 285.417 547.273C285.417 540.182 281.639 536.67 277.265 532.605C272.405 528.088 266.896 522.97 266.896 512.856C266.896 502.737 272.405 497.619 277.265 493.101C281.636 489.036 285.415 485.527 285.415 478.437C285.415 476.519 286.968 474.965 288.886 474.965C290.804 474.965 292.358 476.521 292.358 478.437C292.358 488.553 286.849 493.671 281.99 498.188C277.615 502.254 273.837 505.763 273.837 512.856C273.837 519.944 277.615 523.455 281.987 527.521C286.847 532.038 292.355 537.156 292.355 547.275C292.355 557.387 286.847 562.502 281.987 567.013C277.613 571.076 273.837 574.583 273.837 581.67C273.839 583.583 272.286 585.139 270.368 585.139Z" fill="white"/>
<path d="M242.014 585.139C240.097 585.139 238.543 583.583 238.543 581.667C238.543 571.553 244.051 566.437 248.913 561.924C253.287 557.863 257.063 554.359 257.063 547.273C257.063 540.182 253.285 536.67 248.911 532.605C244.051 528.088 238.543 522.97 238.543 512.856C238.543 502.737 244.051 497.619 248.911 493.101C253.285 489.036 257.061 485.527 257.061 478.437C257.061 476.519 258.615 474.965 260.533 474.965C262.451 474.965 264.004 476.521 264.004 478.437C264.004 488.553 258.496 493.671 253.636 498.188C249.262 502.254 245.484 505.763 245.484 512.856C245.484 519.944 249.262 523.455 253.634 527.521C258.493 532.038 264.002 537.156 264.002 547.275C264.002 557.387 258.493 562.502 253.634 567.013C249.26 571.076 245.484 574.583 245.484 581.67C245.486 583.583 243.932 585.139 242.014 585.139Z" fill="white"/>
<path d="M213.661 585.139C211.743 585.139 210.189 583.583 210.189 581.667C210.189 571.553 215.698 566.437 220.56 561.924C224.932 557.863 228.71 554.359 228.71 547.273C228.71 540.182 224.932 536.67 220.558 532.605C215.698 528.088 210.192 522.97 210.192 512.856C210.192 502.737 215.7 497.619 220.56 493.101C224.934 489.036 228.71 485.527 228.71 478.437C228.71 476.519 230.264 474.965 232.181 474.965C234.099 474.965 235.653 476.521 235.653 478.437C235.653 488.553 230.144 493.671 225.287 498.188C220.913 502.254 217.135 505.763 217.135 512.856C217.135 519.944 220.913 523.455 225.285 527.521C230.144 532.038 235.653 537.156 235.653 547.275C235.653 557.387 230.144 562.502 225.285 567.013C220.913 571.076 217.135 574.583 217.135 581.67C217.135 583.583 215.579 585.139 213.661 585.139Z" fill="white"/>
<path d="M218.959 877.822H79.0273C65.4084 877.822 54.3672 866.781 54.3672 853.162V850.008C54.3672 836.389 65.4084 825.348 79.0273 825.348H218.959C220.903 825.348 222.479 826.924 222.479 828.868V874.297C222.479 876.246 220.903 877.822 218.959 877.822Z" fill="#A7E070"/>
<path d="M230.584 871.687V831.481H368.014V825.348H196.302C181.812 825.348 170.066 837.095 170.066 851.584C170.066 866.074 181.812 877.82 196.302 877.82H368.014V871.687H230.584Z" fill="#75B75A"/>
<path d="M361.234 871.686V831.481H198.238C187.135 831.481 178.135 840.481 178.135 851.584C178.135 862.687 187.135 871.686 198.238 871.686H361.234Z" fill="white"/>
<path d="M178.135 851.591C178.135 856.354 179.794 860.728 182.562 864.173C183.822 860.728 184.577 856.356 184.577 851.591C184.577 846.829 183.822 842.455 182.562 839.012C179.794 842.455 178.135 846.829 178.135 851.591Z" fill="#DFF1F4"/>
<path opacity="0.94" d="M361.236 848.931V831.481H198.239C191.85 831.481 186.167 834.471 182.486 839.119C197.432 832.849 321.052 836.521 361.236 848.931Z" fill="url(#paint0_linear_34_17874)"/>
<path d="M218.959 772.884H79.0273C65.4084 772.884 54.3672 761.843 54.3672 748.224V745.07C54.3672 731.452 65.4084 720.41 79.0273 720.41H218.959C220.903 720.41 222.479 721.986 222.479 723.93V769.36C222.479 771.308 220.903 772.884 218.959 772.884Z" fill="#83A9FF"/>
<path d="M230.584 766.749V726.543H368.014V720.41H196.302C181.812 720.41 170.066 732.156 170.066 746.646C170.066 761.137 181.812 772.882 196.302 772.882H368.014V766.749H230.584Z" fill="#6F97DD"/>
<path d="M361.234 766.749V726.543H198.238C187.135 726.543 178.135 735.543 178.135 746.646C178.135 757.749 187.135 766.749 198.238 766.749H361.234Z" fill="white"/>
<path d="M178.135 746.654C178.135 751.416 179.794 755.791 182.562 759.236C183.822 755.791 184.577 751.419 184.577 746.654C184.577 741.891 183.822 737.517 182.562 734.074C179.794 737.517 178.135 741.891 178.135 746.654Z" fill="#DFF1F4"/>
<path opacity="0.94" d="M361.236 743.993V726.543H198.239C191.85 726.543 186.167 729.534 182.486 734.181C197.432 727.911 321.052 731.584 361.236 743.993Z" fill="url(#paint1_linear_34_17874)"/>
<path d="M203.422 825.369H343.354C356.973 825.369 368.014 814.327 368.014 800.709V797.555C368.014 783.936 356.973 772.895 343.354 772.895H203.422C201.478 772.895 199.902 774.471 199.902 776.415V821.844C199.9 823.791 201.478 825.369 203.422 825.369Z" fill="#A94BBC"/>
<path d="M191.796 819.233V779.028H54.3672V772.895H226.079C240.569 772.895 252.314 784.64 252.314 799.131C252.314 813.621 240.567 825.366 226.079 825.366H54.3672V819.233H191.796Z" fill="#843C96"/>
<path d="M61.1426 819.233V779.028H224.141C235.244 779.028 244.244 788.027 244.244 799.13C244.244 810.233 235.244 819.233 224.141 819.233H61.1426Z" fill="white"/>
<path d="M244.247 799.136C244.247 803.899 242.587 808.273 239.82 811.718C238.559 808.273 237.805 803.901 237.805 799.138C237.805 794.376 238.559 790.002 239.82 786.559C242.587 790.002 244.247 794.373 244.247 799.136Z" fill="#DFF1F4"/>
<path opacity="0.94" d="M61.1426 796.478V779.028H224.141C230.53 779.028 236.213 782.018 239.894 786.666C224.949 780.396 101.326 784.068 61.1426 796.478Z" fill="url(#paint2_linear_34_17874)"/>
<path d="M1022.92 324.949H870.959V476.913H1022.92V324.949Z" fill="#890C25"/>
<path d="M957.689 446.036L933.783 469.942L957.689 493.847L981.594 469.942L957.689 446.036Z" fill="#FF5050"/>
<path d="M970.951 452.52H885.031V458.463H970.951V452.52Z" fill="white"/>
<path d="M919.903 435.614H885.031V441.557H919.903V435.614Z" fill="white"/>
<path d="M970.951 418.723H885.031V424.666H970.951V418.723Z" fill="white"/>
<path d="M919.903 401.832H885.031V407.775H919.903V401.832Z" fill="white"/>
<path d="M991.91 384.934H885.031V390.877H991.91V384.934Z" fill="white"/>
<path d="M913.381 368.043H885.031V373.987H913.381V368.043Z" fill="white"/>
<path d="M970.951 351.153H885.031V357.096H970.951V351.153Z" fill="white"/>
<path d="M1107.42 490.824H1004.23V594.022H1107.42V490.824Z" fill="#83A9FF"/>
<path d="M1063.12 573.067L1046.89 589.301L1063.12 605.535L1079.35 589.301L1063.12 573.067Z" fill="#83A9FF"/>
<path d="M1080.42 578.543H1015.37V583.043H1080.42V578.543Z" fill="white"/>
<path d="M1041.77 565.754H1015.37V570.254H1041.77V565.754Z" fill="white"/>
<path d="M1080.42 552.965H1015.37V557.465H1080.42V552.965Z" fill="white"/>
<path d="M1041.77 540.176H1015.37V544.676H1041.77V540.176Z" fill="white"/>
<path d="M1096.29 527.379H1015.37V531.879H1096.29V527.379Z" fill="white"/>
<path d="M1036.83 514.59H1015.37V519.09H1036.83V514.59Z" fill="white"/>
<path d="M1080.42 501.801H1015.37V506.301H1080.42V501.801Z" fill="white"/>
<path d="M1155.18 132.621H980.256V307.548H1155.18V132.621Z" fill="#75B75A"/>
<path d="M1080.09 271.994L1052.57 299.512L1080.09 327.03L1107.61 299.512L1080.09 271.994Z" fill="#75B75A"/>
<path d="M1107.17 278.387H1003.21V285.579H1107.17V278.387Z" fill="white"/>
<path d="M1045.4 257.942H1003.21V265.134H1045.4V257.942Z" fill="white"/>
<path d="M1107.17 237.504H1003.21V244.696H1107.17V237.504Z" fill="white"/>
<path d="M1045.4 217.067H1003.21V224.259H1045.4V217.067Z" fill="white"/>
<path d="M1132.53 196.614H1003.21V203.806H1132.53V196.614Z" fill="white"/>
<path d="M1037.51 176.176H1003.21V183.368H1037.51V176.176Z" fill="white"/>
<path d="M1107.17 155.739H1003.21V162.931H1107.17V155.739Z" fill="white"/>
<defs>
<linearGradient id="paint0_linear_34_17874" x1="266.608" y1="881.542" x2="284.584" y2="753.14" gradientUnits="userSpaceOnUse">
<stop stop-color="#9D9DCF" stop-opacity="0"/>
<stop offset="1" stop-color="#9D9DCF"/>
</linearGradient>
<linearGradient id="paint1_linear_34_17874" x1="266.608" y1="776.604" x2="284.584" y2="648.204" gradientUnits="userSpaceOnUse">
<stop stop-color="#9D9DCF" stop-opacity="0"/>
<stop offset="1" stop-color="#9D9DCF"/>
</linearGradient>
<linearGradient id="paint2_linear_34_17874" x1="155.771" y1="829.089" x2="137.795" y2="700.689" gradientUnits="userSpaceOnUse">
<stop stop-color="#9D9DCF" stop-opacity="0"/>
<stop offset="1" stop-color="#9D9DCF"/>
</linearGradient>
</defs>
</svg>
