<svg width="111" height="24" viewBox="0 0 111 24" fill="none" xmlns="http://www.w3.org/2000/svg">
<g opacity="0.4">
<path d="M1 10.9805C1 10.9805 9.78054 24.5621 16.7361 22.633C21.9166 21.1962 26.7151 10.9805 26.7151 10.9805C26.7151 10.9805 29.9965 22.7787 34.7751 22.633C39.4563 22.4903 42.4512 10.9805 42.4512 10.9805C42.4512 10.9805 43.7754 21.401 47.8245 22.633C52.6688 24.107 56.6521 10.9805 56.6521 10.9805C56.6521 10.9805 57.0811 21.2061 60.874 22.633C65.4556 24.3567 68.9339 10.9805 68.9339 10.9805C68.9339 10.9805 68.8249 20.816 72.3882 22.633C76.9143 24.941 80.832 10.9805 80.832 10.9805C80.832 10.9805 81.9497 20.9611 85.8215 22.633C90.8406 24.8004 90.5625 12.0323 95.8005 10.9805C102.205 9.69445 109.618 22.633 109.618 22.633" stroke="white"/>
<path d="M1.76562 2.09257C1.76562 2.09257 10.5152 16.0792 17.4463 14.0926C22.6086 12.6129 27.3902 2.09257 27.3902 2.09257C27.3902 2.09257 30.66 14.2426 35.4218 14.0926C40.0865 13.9456 43.0709 2.09257 43.0709 2.09257C43.0709 2.09257 44.3904 12.8238 48.4253 14.0926C53.2525 15.6105 57.2218 2.09257 57.2218 2.09257C57.2218 2.09257 57.6492 12.6231 61.4288 14.0926C65.9943 15.8676 69.4604 2.09257 69.4604 2.09257C69.4604 2.09257 69.3517 12.2214 72.9025 14.0926C77.4126 16.4694 81.3165 2.09257 81.3165 2.09257C81.3165 2.09257 82.4303 12.3708 86.2884 14.0926C91.2899 16.3246 91.0128 3.17569 96.2323 2.09257C102.615 0.768151 110.001 14.0926 110.001 14.0926" stroke="white"/>
</g>
</svg>
