<svg width="154" height="134" viewBox="0 0 154 134" fill="none" xmlns="http://www.w3.org/2000/svg">
<path d="M33.1538 6.01925C34.8183 6.01925 36.1678 4.6718 36.1678 3.00963C36.1678 1.34746 34.8183 0 33.1538 0C31.4892 0 30.1398 1.34746 30.1398 3.00963C30.1398 4.6718 31.4892 6.01925 33.1538 6.01925Z" fill="#A7A7CA"/>
<path d="M33.1538 31.6727C34.8183 31.6727 36.1678 30.3253 36.1678 28.6631C36.1678 27.0009 34.8183 25.6535 33.1538 25.6535C31.4892 25.6535 30.1398 27.0009 30.1398 28.6631C30.1398 30.3253 31.4892 31.6727 33.1538 31.6727Z" fill="#A7A7CA"/>
<path d="M33.1538 57.4695C34.8183 57.4695 36.1678 56.1221 36.1678 54.4599C36.1678 52.7977 34.8183 51.4503 33.1538 51.4503C31.4892 51.4503 30.1398 52.7977 30.1398 54.4599C30.1398 56.1221 31.4892 57.4695 33.1538 57.4695Z" fill="#A7A7CA"/>
<path d="M33.1538 83.2663C34.8183 83.2663 36.1678 81.9189 36.1678 80.2567C36.1678 78.5945 34.8183 77.2471 33.1538 77.2471C31.4892 77.2471 30.1398 78.5945 30.1398 80.2567C30.1398 81.9189 31.4892 83.2663 33.1538 83.2663Z" fill="#A7A7CA"/>
<path d="M33.1538 108.203C34.8183 108.203 36.1678 106.856 36.1678 105.194C36.1678 103.531 34.8183 102.184 33.1538 102.184C31.4892 102.184 30.1398 103.531 30.1398 105.194C30.1398 106.856 31.4892 108.203 33.1538 108.203Z" fill="#A7A7CA"/>
<path d="M33.1538 134C34.8183 134 36.1678 132.653 36.1678 130.99C36.1678 129.328 34.8183 127.981 33.1538 127.981C31.4892 127.981 30.1398 129.328 30.1398 130.99C30.1398 132.653 31.4892 134 33.1538 134Z" fill="#A7A7CA"/>
<path d="M3.01398 6.01925C4.67855 6.01925 6.02796 4.6718 6.02796 3.00963C6.02796 1.34746 4.67855 0 3.01398 0C1.3494 0 0 1.34746 0 3.00963C0 4.6718 1.3494 6.01925 3.01398 6.01925Z" fill="#A7A7CA"/>
<path d="M3.01398 31.6727C4.67855 31.6727 6.02796 30.3253 6.02796 28.6631C6.02796 27.0009 4.67855 25.6535 3.01398 25.6535C1.3494 25.6535 0 27.0009 0 28.6631C0 30.3253 1.3494 31.6727 3.01398 31.6727Z" fill="#A7A7CA"/>
<path d="M3.01398 57.4695C4.67855 57.4695 6.02796 56.1221 6.02796 54.4599C6.02796 52.7977 4.67855 51.4503 3.01398 51.4503C1.3494 51.4503 0 52.7977 0 54.4599C0 56.1221 1.3494 57.4695 3.01398 57.4695Z" fill="#A7A7CA"/>
<path d="M3.01398 83.2663C4.67855 83.2663 6.02796 81.9189 6.02796 80.2567C6.02796 78.5945 4.67855 77.2471 3.01398 77.2471C1.3494 77.2471 0 78.5945 0 80.2567C0 81.9189 1.3494 83.2663 3.01398 83.2663Z" fill="#A7A7CA"/>
<path d="M3.01398 108.203C4.67855 108.203 6.02796 106.856 6.02796 105.194C6.02796 103.531 4.67855 102.184 3.01398 102.184C1.3494 102.184 0 103.531 0 105.194C0 106.856 1.3494 108.203 3.01398 108.203Z" fill="#A7A7CA"/>
<path d="M3.01398 134C4.67855 134 6.02796 132.653 6.02796 130.99C6.02796 129.328 4.67855 127.981 3.01398 127.981C1.3494 127.981 0 129.328 0 130.99C0 132.653 1.3494 134 3.01398 134Z" fill="#A7A7CA"/>
<path d="M91.9981 6.01925C93.6627 6.01925 95.0121 4.6718 95.0121 3.00963C95.0121 1.34746 93.6627 0 91.9981 0C90.3336 0 88.9842 1.34746 88.9842 3.00963C88.9842 4.6718 90.3336 6.01925 91.9981 6.01925Z" fill="#A7A7CA"/>
<path d="M91.9981 31.6727C93.6627 31.6727 95.0121 30.3253 95.0121 28.6631C95.0121 27.0009 93.6627 25.6535 91.9981 25.6535C90.3336 25.6535 88.9842 27.0009 88.9842 28.6631C88.9842 30.3253 90.3336 31.6727 91.9981 31.6727Z" fill="#A7A7CA"/>
<path d="M91.9981 57.4695C93.6627 57.4695 95.0121 56.1221 95.0121 54.4599C95.0121 52.7977 93.6627 51.4503 91.9981 51.4503C90.3336 51.4503 88.9842 52.7977 88.9842 54.4599C88.9842 56.1221 90.3336 57.4695 91.9981 57.4695Z" fill="#A7A7CA"/>
<path d="M91.9981 83.2663C93.6627 83.2663 95.0121 81.9189 95.0121 80.2567C95.0121 78.5945 93.6627 77.2471 91.9981 77.2471C90.3336 77.2471 88.9842 78.5945 88.9842 80.2567C88.9842 81.9189 90.3336 83.2663 91.9981 83.2663Z" fill="#A7A7CA"/>
<path d="M91.9981 108.203C93.6627 108.203 95.0121 106.856 95.0121 105.194C95.0121 103.531 93.6627 102.184 91.9981 102.184C90.3336 102.184 88.9842 103.531 88.9842 105.194C88.9842 106.856 90.3336 108.203 91.9981 108.203Z" fill="#A7A7CA"/>
<path d="M91.9981 134C93.6627 134 95.0121 132.653 95.0121 130.99C95.0121 129.328 93.6627 127.981 91.9981 127.981C90.3336 127.981 88.9842 129.328 88.9842 130.99C88.9842 132.653 90.3336 134 91.9981 134Z" fill="#A7A7CA"/>
<path d="M61.8583 6.01925C63.5229 6.01925 64.8723 4.6718 64.8723 3.00963C64.8723 1.34746 63.5229 0 61.8583 0C60.1938 0 58.8444 1.34746 58.8444 3.00963C58.8444 4.6718 60.1938 6.01925 61.8583 6.01925Z" fill="#A7A7CA"/>
<path d="M61.8583 31.6727C63.5229 31.6727 64.8723 30.3253 64.8723 28.6631C64.8723 27.0009 63.5229 25.6535 61.8583 25.6535C60.1938 25.6535 58.8444 27.0009 58.8444 28.6631C58.8444 30.3253 60.1938 31.6727 61.8583 31.6727Z" fill="#A7A7CA"/>
<path d="M61.8583 57.4695C63.5229 57.4695 64.8723 56.1221 64.8723 54.4599C64.8723 52.7977 63.5229 51.4503 61.8583 51.4503C60.1938 51.4503 58.8444 52.7977 58.8444 54.4599C58.8444 56.1221 60.1938 57.4695 61.8583 57.4695Z" fill="#A7A7CA"/>
<path d="M61.8583 83.2663C63.5229 83.2663 64.8723 81.9189 64.8723 80.2567C64.8723 78.5945 63.5229 77.2471 61.8583 77.2471C60.1938 77.2471 58.8444 78.5945 58.8444 80.2567C58.8444 81.9189 60.1938 83.2663 61.8583 83.2663Z" fill="#A7A7CA"/>
<path d="M61.8583 108.203C63.5229 108.203 64.8723 106.856 64.8723 105.194C64.8723 103.531 63.5229 102.184 61.8583 102.184C60.1938 102.184 58.8444 103.531 58.8444 105.194C58.8444 106.856 60.1938 108.203 61.8583 108.203Z" fill="#A7A7CA"/>
<path d="M61.8583 134C63.5229 134 64.8723 132.653 64.8723 130.99C64.8723 129.328 63.5229 127.981 61.8583 127.981C60.1938 127.981 58.8444 129.328 58.8444 130.99C58.8444 132.653 60.1938 134 61.8583 134Z" fill="#A7A7CA"/>
<path d="M150.986 6.01925C152.651 6.01925 154 4.6718 154 3.00963C154 1.34746 152.651 0 150.986 0C149.321 0 147.972 1.34746 147.972 3.00963C147.972 4.6718 149.321 6.01925 150.986 6.01925Z" fill="#A7A7CA"/>
<path d="M150.986 31.6727C152.651 31.6727 154 30.3253 154 28.6631C154 27.0009 152.651 25.6535 150.986 25.6535C149.321 25.6535 147.972 27.0009 147.972 28.6631C147.972 30.3253 149.321 31.6727 150.986 31.6727Z" fill="#A7A7CA"/>
<path d="M150.986 57.4695C152.651 57.4695 154 56.1221 154 54.4599C154 52.7977 152.651 51.4503 150.986 51.4503C149.321 51.4503 147.972 52.7977 147.972 54.4599C147.972 56.1221 149.321 57.4695 150.986 57.4695Z" fill="#A7A7CA"/>
<path d="M150.986 83.2663C152.651 83.2663 154 81.9189 154 80.2567C154 78.5945 152.651 77.2471 150.986 77.2471C149.321 77.2471 147.972 78.5945 147.972 80.2567C147.972 81.9189 149.321 83.2663 150.986 83.2663Z" fill="#A7A7CA"/>
<path d="M150.986 108.203C152.651 108.203 154 106.856 154 105.194C154 103.531 152.651 102.184 150.986 102.184C149.321 102.184 147.972 103.531 147.972 105.194C147.972 106.856 149.321 108.203 150.986 108.203Z" fill="#A7A7CA"/>
<path d="M150.986 134C152.651 134 154 132.653 154 130.99C154 129.328 152.651 127.981 150.986 127.981C149.321 127.981 147.972 129.328 147.972 130.99C147.972 132.653 149.321 134 150.986 134Z" fill="#A7A7CA"/>
<path d="M120.846 6.01925C122.511 6.01925 123.86 4.6718 123.86 3.00963C123.86 1.34746 122.511 0 120.846 0C119.182 0 117.832 1.34746 117.832 3.00963C117.832 4.6718 119.182 6.01925 120.846 6.01925Z" fill="#A7A7CA"/>
<path d="M120.846 31.6727C122.511 31.6727 123.86 30.3253 123.86 28.6631C123.86 27.0009 122.511 25.6535 120.846 25.6535C119.182 25.6535 117.832 27.0009 117.832 28.6631C117.832 30.3253 119.182 31.6727 120.846 31.6727Z" fill="#A7A7CA"/>
<path d="M120.846 57.4695C122.511 57.4695 123.86 56.1221 123.86 54.4599C123.86 52.7977 122.511 51.4503 120.846 51.4503C119.182 51.4503 117.832 52.7977 117.832 54.4599C117.832 56.1221 119.182 57.4695 120.846 57.4695Z" fill="#A7A7CA"/>
<path d="M120.846 83.2663C122.511 83.2663 123.86 81.9189 123.86 80.2567C123.86 78.5945 122.511 77.2471 120.846 77.2471C119.182 77.2471 117.832 78.5945 117.832 80.2567C117.832 81.9189 119.182 83.2663 120.846 83.2663Z" fill="#A7A7CA"/>
<path d="M120.846 108.203C122.511 108.203 123.86 106.856 123.86 105.194C123.86 103.531 122.511 102.184 120.846 102.184C119.182 102.184 117.832 103.531 117.832 105.194C117.832 106.856 119.182 108.203 120.846 108.203Z" fill="#A7A7CA"/>
<path d="M120.846 134C122.511 134 123.86 132.653 123.86 130.99C123.86 129.328 122.511 127.981 120.846 127.981C119.182 127.981 117.832 129.328 117.832 130.99C117.832 132.653 119.182 134 120.846 134Z" fill="#A7A7CA"/>
</svg>
