<svg width="58" height="49" viewBox="0 0 58 49" fill="none" xmlns="http://www.w3.org/2000/svg">
<path opacity="0.2" d="M2.00293 46.9086C8.1526 39.6828 13.0054 31.1947 17.3976 22.8314C17.7368 22.1855 24.3135 8.7469 25.3104 7.19042C30.3963 -0.749718 29.5568 15.0972 29.5902 15.9962C29.6595 17.8644 29.7052 28.9991 29.7133 31.6371C29.728 36.4089 29.5584 35.5953 29.9596 31.4832C30.5062 25.8808 31.0928 21.6345 31.9917 15.9346C32.4265 13.1779 32.8759 10.4226 33.408 7.68305C33.7657 5.84148 34.2718 0.65867 35.1322 2.32571C36.2745 4.53885 35.6163 7.28718 35.6864 9.77672C35.8164 14.3916 34.9238 20.0463 35.9328 24.5864C36.2719 26.1124 36.7214 21.5597 37.0412 20.0296C37.0833 19.828 38.2728 9.93996 40.859 14.9493C42.264 17.6706 43.9095 24.5791 44.4922 27.1419C44.7764 28.3918 45.7658 40.064 47.8174 41.0587C48.6253 41.4504 55.6951 24.5153 56.3153 23.0777" stroke="white" stroke-width="3" stroke-linecap="round"/>
</svg>
