<svg width="130" height="40" viewBox="0 0 130 40" fill="none" xmlns="http://www.w3.org/2000/svg">
<mask id="mask0_2352_1372" style="mask-type:alpha" maskUnits="userSpaceOnUse" x="0" y="0" width="130" height="40">
<path d="M110 0H20C8.9543 0 0 8.9543 0 20C0 31.0457 8.9543 40 20 40H110C121.046 40 130 31.0457 130 20C130 8.9543 121.046 0 110 0Z" fill="white"/>
</mask>
<g mask="url(#mask0_2352_1372)">
<path d="M110 0H20C8.9543 0 0 8.9543 0 20C0 31.0457 8.9543 40 20 40H110C121.046 40 130 31.0457 130 20C130 8.9543 121.046 0 110 0Z" fill="white"/>
<path d="M96.4453 16.311V21.916C96.4453 23.508 97.7353 24.798 99.3273 24.798H107.695C108.287 24.798 108.774 24.311 108.774 23.719V18.1C108.774 16.508 107.485 15.219 105.893 15.219H97.5243C96.9323 15.219 96.4453 15.692 96.4453 16.271V16.311Z" fill="#00001B"/>
<path d="M109.732 22.545L112.048 24.572C112.417 24.9 112.995 24.861 113.324 24.493C113.469 24.322 113.548 24.111 113.548 23.9V16.111C113.548 15.611 113.14 15.216 112.653 15.203C112.43 15.203 112.219 15.282 112.061 15.427L109.732 17.466C109.535 17.637 109.43 17.887 109.43 18.15V21.874C109.43 22.124 109.548 22.374 109.732 22.545Z" fill="#00001B"/>
<mask id="mask1_2352_1372" style="mask-type:luminance" maskUnits="userSpaceOnUse" x="50" y="5" width="30" height="30">
<path d="M80 5H50V35H80V5Z" fill="white"/>
</mask>
<g mask="url(#mask1_2352_1372)">
<path d="M65 35C73.284 35 80 28.284 80 20C80 11.716 73.284 5 65 5C56.716 5 50 11.716 50 20C50 28.284 56.716 35 65 35Z" fill="#006766"/>
<path d="M70.333 22.205C69.183 22.205 68.085 21.955 67.073 21.46C66.915 21.384 66.731 21.372 66.563 21.429C66.395 21.488 66.257 21.611 66.18 21.769L65.7 22.763C64.26 21.936 63.065 20.74 62.237 19.3L63.232 18.82C63.392 18.743 63.513 18.605 63.572 18.437C63.629 18.269 63.619 18.085 63.541 17.927C63.045 16.916 62.795 15.819 62.795 14.667C62.795 14.299 62.496 14 62.128 14H59.667C59.299 14 59 14.299 59 14.667C59 20.916 64.084 26 70.333 26C70.701 26 71 25.701 71 25.333V22.872C71 22.504 70.701 22.205 70.333 22.205Z" fill="#FAFAFA"/>
</g>
<mask id="mask2_2352_1372" style="mask-type:luminance" maskUnits="userSpaceOnUse" x="15" y="10" width="20" height="20">
<path d="M35 10H15V30H35V10Z" fill="white"/>
</mask>
<g mask="url(#mask2_2352_1372)">
<path d="M30.3647 21.173C30.3647 20.849 30.1017 20.586 29.7777 20.586C29.4527 20.586 29.1897 20.849 29.1897 21.173C29.1897 23.44 27.2667 25.284 25.0007 25.284C22.7337 25.284 20.8107 23.44 20.8107 21.173C20.8107 20.849 20.5487 20.586 20.2237 20.586C19.8987 20.586 19.6367 20.849 19.6367 21.173C19.6367 23.887 21.7777 26.103 24.4127 26.4V27.634H22.5727C22.2487 27.634 21.9857 27.896 21.9857 28.221C21.9857 28.546 22.2487 28.808 22.5727 28.808H27.4277C27.7527 28.808 28.0157 28.546 28.0157 28.221C28.0157 27.896 27.7527 27.634 27.4277 27.634H25.5877V26.4C28.2237 26.103 30.3647 23.887 30.3647 21.173Z" fill="#00001B"/>
<path d="M24.9994 11.188C23.3804 11.188 21.9844 12.505 21.9844 14.124V21.172C21.9844 22.791 23.3804 24.108 24.9994 24.108C26.6184 24.108 28.0144 22.791 28.0144 21.172V14.124C28.0144 12.505 26.6184 11.188 24.9994 11.188Z" fill="#00001B"/>
<path d="M33.108 12.078C32.879 11.849 32.507 11.849 32.278 12.078C32.048 12.308 32.048 12.679 32.278 12.909C33.276 13.907 33.826 15.234 33.826 16.646C33.826 18.058 33.276 19.386 32.278 20.384C32.048 20.613 32.048 20.985 32.278 21.214C32.507 21.444 32.879 21.444 33.108 21.214C34.329 19.994 35.001 18.372 35.001 16.646C35.001 14.92 34.329 13.298 33.108 12.078Z" fill="#00001B"/>
<path d="M31.4481 13.742C31.2181 13.513 30.8471 13.513 30.6171 13.742C30.3881 13.972 30.3881 14.344 30.6171 14.573C31.1731 15.128 31.4791 15.865 31.4791 16.648C31.4791 17.431 31.1731 18.168 30.6171 18.724C30.3881 18.953 30.3881 19.325 30.6171 19.554C30.8471 19.784 31.2181 19.784 31.4481 19.554C32.2261 18.777 32.6531 17.745 32.6531 16.648C32.6531 15.551 32.2251 14.519 31.4481 13.742Z" fill="#00001B"/>
<path d="M29.784 15.406C29.554 15.177 29.183 15.177 28.953 15.406C28.724 15.636 28.724 16.008 28.953 16.237C29.065 16.348 29.126 16.496 29.126 16.652C29.126 16.808 29.065 16.956 28.953 17.067C28.724 17.296 28.724 17.668 28.953 17.897C29.183 18.127 29.554 18.127 29.784 17.897C30.117 17.564 30.301 17.122 30.301 16.652C30.301 16.182 30.117 15.74 29.784 15.406Z" fill="#00001B"/>
<path d="M16.175 16.646C16.175 15.234 16.725 13.907 17.723 12.909C17.953 12.679 17.953 12.308 17.723 12.078C17.494 11.849 17.122 11.849 16.893 12.078C15.672 13.298 15 14.92 15 16.646C15 18.372 15.672 19.994 16.893 21.214C17.122 21.444 17.494 21.444 17.723 21.214C17.953 20.985 17.953 20.613 17.723 20.384C16.725 19.386 16.175 18.058 16.175 16.646Z" fill="#00001B"/>
<path d="M18.5256 16.648C18.5256 15.865 18.8316 15.128 19.3876 14.573C19.6166 14.344 19.6166 13.972 19.3876 13.742C19.1576 13.513 18.7866 13.513 18.5566 13.742C17.7796 14.519 17.3516 15.551 17.3516 16.648C17.3516 17.745 17.7786 18.777 18.5566 19.554C18.7866 19.783 19.1576 19.783 19.3876 19.554C19.6166 19.325 19.6166 18.953 19.3876 18.724C18.8316 18.168 18.5256 17.431 18.5256 16.648Z" fill="#00001B"/>
<path d="M20.8742 16.652C20.8742 16.496 20.9352 16.348 21.0462 16.237C21.2762 16.008 21.2762 15.636 21.0462 15.406C20.8172 15.177 20.4452 15.177 20.2162 15.406C19.8832 15.74 19.6992 16.182 19.6992 16.652C19.6992 17.122 19.8832 17.564 20.2162 17.897C20.4452 18.127 20.8172 18.127 21.0462 17.897C21.2762 17.668 21.2762 17.296 21.0462 17.067C20.9352 16.956 20.8742 16.808 20.8742 16.652Z" fill="#00001B"/>
</g>
</g>
</svg>
