<svg width="153" height="100" viewBox="0 0 153 100" fill="none" xmlns="http://www.w3.org/2000/svg">
<path fill-rule="evenodd" clip-rule="evenodd" d="M73.3951 25.5406V33.6971C67.7802 34.3213 62.3435 36.7725 58.0653 41.0507C48.024 51.0935 48.024 67.5097 58.0653 77.5378L66.6357 86.1251C51.2321 73.9577 30.8377 69.6197 11.6155 74.7449V1.54806C28.6687 -2.99795 73.3951 1.74144 73.3951 25.5406ZM73.1268 100C56.3272 78.6221 34.0164 74.0614 6.49106 81.4004V7.80208C4.0554 8.0699 1.85661 8.45617 0 8.94672V90.9379C24.4205 80.316 51.8263 83.8075 73.1268 100ZM79.4701 100C96.2697 78.6221 118.58 74.0614 146.106 81.4004V7.80208C148.541 8.0699 150.74 8.45617 152.612 8.94672V90.9379C128.192 80.316 100.756 83.8075 79.4701 100ZM79.2023 25.5406V33.6971C84.8172 34.3213 90.2539 36.7725 94.5472 41.0507C104.573 51.0935 104.573 67.5097 94.5472 77.5378L85.9459 86.1251C101.35 73.9577 121.76 69.6197 140.981 74.7449V1.54806C123.928 -2.99795 79.2023 1.74144 79.2023 25.5406ZM76.098 73.3183C84.2675 73.4378 90.2393 66.9306 90.3131 59.2945C90.2393 51.4053 83.9709 45.255 76.2463 45.2849C68.2848 45.2996 62.3576 51.7323 62.2837 59.2945C62.3576 66.9599 68.3592 73.1993 76.098 73.3183Z" fill="white"/>
</svg>
