<svg width="101" height="100" viewBox="0 0 101 100" fill="none" xmlns="http://www.w3.org/2000/svg">
<path fill-rule="evenodd" clip-rule="evenodd" d="M14.9568 89.8297H14.5731C14.1761 89.8297 13.8672 89.9974 13.646 90.3347C13.5403 90.4944 13.4887 90.855 13.4887 91.4193V95.5586C13.4887 96.5015 13.4138 97.2198 13.2622 97.712C13.0405 98.4024 12.6184 98.9639 11.9897 99.3889C11.3923 99.7959 10.5808 99.9992 9.55562 99.9992C7.56493 99.9992 6.31044 99.2856 5.7879 97.8613C5.62587 97.4211 5.54582 96.5811 5.54582 95.3472V91.3572C5.54582 90.837 5.48943 90.4712 5.37857 90.2651C5.21655 89.9737 4.90246 89.8297 4.43582 89.8297H4.04688V89.5359H8.48211V89.8297H8.0851C7.66015 89.8297 7.35647 89.9637 7.1736 90.2286C7.04711 90.4087 6.98317 90.7877 6.98317 91.3596V95.8159C6.98317 97.0212 7.15324 97.8765 7.49055 98.3792C7.92829 99.0359 8.64696 99.3657 9.6461 99.3657C10.2511 99.3657 10.8125 99.2396 11.3251 98.9895C11.9149 98.7061 12.3195 98.3119 12.5355 97.8049C12.7288 97.3539 12.824 96.5839 12.824 95.4993V91.3596C12.824 90.7209 12.7544 90.3215 12.6127 90.1618C12.4171 89.9401 12.1257 89.8297 11.7396 89.8297H11.3559V89.5359H14.9564L14.9568 89.8297ZM26.07 89.8297H25.7071C25.2741 89.8297 24.9652 89.9609 24.7847 90.221C24.6739 90.3835 24.6175 90.7493 24.6175 91.3212V99.9376H24.3446L17.5866 91.6998V97.985C17.5866 98.6156 17.6534 99.0075 17.7898 99.1572C17.9779 99.3685 18.2717 99.4742 18.6758 99.4742H19.0391V99.7679H15.4851V99.4742H15.8404C16.2781 99.4742 16.5899 99.3429 16.7699 99.0828C16.8807 98.9231 16.9371 98.5573 16.9371 97.9854V90.8915C16.6718 90.5797 16.4733 90.3741 16.3421 90.2736C16.1568 90.1239 15.9067 89.9979 15.5902 89.8974C15.4514 89.8538 15.2297 89.8306 14.9284 89.8306V89.5359H17.7098L23.9685 97.2093V91.3208C23.9685 90.6925 23.8988 90.3006 23.7572 90.1462C23.5691 89.9349 23.2759 89.8297 22.8713 89.8297H22.516V89.5359H26.07V89.8297ZM31.0643 99.767H26.6755V99.4732H27.0388C27.4638 99.4732 27.7703 99.3496 27.9631 99.1051C28.0839 98.9506 28.1436 98.5644 28.1436 97.9461V91.3572C28.1436 90.8394 28.11 90.4996 28.0456 90.3347C27.9939 90.203 27.8911 90.095 27.7338 90.0102C27.5173 89.8894 27.2857 89.8301 27.0384 89.8301H26.675V89.5359H31.0638V89.8297H30.6905C30.2708 89.8297 29.9642 89.9533 29.771 90.1978C29.6449 90.3575 29.5805 90.7441 29.5805 91.3572V97.9461C29.5805 98.464 29.6141 98.8037 29.6786 98.9686C29.8174 99.306 30.1552 99.4737 30.6905 99.4737H31.0638L31.0643 99.767ZM42.4068 89.8297C42.0387 89.8936 41.7653 90.0097 41.5825 90.1774C41.3224 90.4115 41.0855 90.7877 40.8742 91.3056L37.2993 99.9992H37.0212L33.1943 91.1923C32.9986 90.7365 32.8593 90.4608 32.7797 90.3655C32.5301 90.0538 32.1283 89.8761 31.5745 89.8297V89.5359H35.7468V89.8297C34.995 89.8988 34.6188 90.1286 34.6188 90.5148C34.6188 90.7645 34.7344 91.1563 34.9666 91.6894L37.5674 97.6732L39.9807 91.7643C40.2176 91.1871 40.336 90.783 40.336 90.5513C40.336 90.1902 40.0191 89.9585 39.3828 89.8533L39.254 89.8301V89.5359H42.4063V89.8297H42.4068ZM51.6809 97.2018L50.8002 99.767H42.9194V99.4732H43.2823C43.5191 99.4732 43.7484 99.4168 43.9701 99.3008C44.1786 99.1951 44.3075 98.997 44.3563 98.7061C44.3766 98.6005 44.3871 98.3508 44.3871 97.9542V91.3264C44.3871 90.6749 44.3226 90.2755 44.1914 90.1315C44.0137 89.9301 43.7124 89.8301 43.2823 89.8301H42.9194V89.5359H50.7954L50.9087 91.777H50.6149C50.5301 91.3392 50.4449 91.0303 50.3572 90.8474C50.2132 90.5409 49.9915 90.3272 49.6954 90.2059C49.5078 90.131 49.1549 90.0926 48.6318 90.0926H45.8244V94.1419H48.078C48.6626 94.1419 49.0516 94.0542 49.2501 93.8794C49.5125 93.6472 49.657 93.2407 49.6878 92.6584H49.9816V96.2134H49.6878C49.6182 95.7083 49.5457 95.3866 49.4765 95.2501C49.2832 94.8711 48.8176 94.6834 48.078 94.6834H45.8244V98.0632C45.8244 98.4161 45.8272 98.6095 45.832 98.6455C45.8628 98.8824 45.9504 99.0397 46.0949 99.1221C46.1953 99.1814 46.3886 99.2122 46.6691 99.2122H48.4025C48.8995 99.2122 49.26 99.1866 49.487 99.1373C49.8399 99.0548 50.1488 98.8819 50.4141 98.6142C50.7206 98.3076 51.0399 97.8362 51.372 97.2027H51.6809V97.2018ZM62.48 99.767H59.737L56.2753 94.9758C56.0176 94.9862 55.8091 94.9914 55.6466 94.9914C55.5102 94.9914 55.3633 94.9862 55.2013 94.9758V97.9433C55.2013 98.582 55.271 98.9814 55.4126 99.1411C55.6087 99.3623 55.8944 99.4737 56.2701 99.4737H56.6695V99.7675H52.2963V99.4737H52.68C53.1126 99.4737 53.4219 99.332 53.6071 99.0515C53.7128 98.8919 53.7644 98.5232 53.7644 97.9466V91.3577C53.7644 90.7162 53.6948 90.3172 53.5532 90.1628C53.3575 89.941 53.0661 89.8306 52.68 89.8306H52.2963V89.5359H56.0204C56.9295 89.5359 57.5966 89.5823 58.0244 89.6728C58.7483 89.8273 59.3172 90.1519 59.7346 90.6441C60.0928 91.0692 60.2704 91.5766 60.2704 92.1637C60.2704 93.534 59.431 94.4048 57.7515 94.7753L59.8635 97.7092C60.2908 98.3067 60.6541 98.7137 60.9526 98.9302C61.3491 99.2264 61.8565 99.4093 62.48 99.4737V99.767ZM58.5858 92.2665C58.5858 91.6169 58.3849 91.0948 57.9803 90.7005C57.5757 90.3063 57.0456 90.1078 56.3914 90.1078C56.0976 90.1078 55.7011 90.1542 55.2013 90.2471V94.5129H55.4126C55.5107 94.5129 55.5803 94.5129 55.6263 94.5129C56.4477 94.5129 57.1228 94.348 57.6482 94.0182C58.2745 93.6264 58.5858 93.0417 58.5858 92.2665ZM70.0983 97.1549C70.0983 98.0049 69.771 98.7004 69.1144 99.2439C68.4961 99.7461 67.7542 99.9987 66.8892 99.9987C66.5983 99.9987 66.3202 99.9755 66.0549 99.9319C65.9028 99.9058 65.5783 99.8082 65.0761 99.6381C64.636 99.4912 64.329 99.4192 64.1594 99.4192C63.9093 99.4192 63.7548 99.6125 63.7008 99.9987H63.4076V96.4905H63.7013C63.8169 97.1501 63.9638 97.6471 64.1466 97.985C64.3811 98.4332 64.7469 98.7886 65.2438 99.0487C65.6972 99.2908 66.1942 99.4121 66.7352 99.4121C67.2786 99.4121 67.7419 99.2704 68.1285 98.9895C68.5563 98.6829 68.77 98.2655 68.77 97.7376C68.77 97.1837 68.4866 96.6919 67.9177 96.2593C67.5699 95.9912 66.9953 95.641 66.1946 95.2056C65.3912 94.7725 64.8089 94.4096 64.4456 94.1238C63.6909 93.5311 63.3152 92.8232 63.3152 91.9964C63.3152 91.2028 63.6189 90.5489 64.2267 90.0363C64.8037 89.5492 65.4963 89.3047 66.3027 89.3047C66.8513 89.3047 67.4254 89.4388 68.0257 89.7036C68.3142 89.8297 68.5099 89.8917 68.6207 89.8917C68.8837 89.8917 69.0556 89.6961 69.1409 89.3047H69.4346V92.8436H69.1409C68.9708 91.5709 68.4762 90.711 67.66 90.2627C67.2298 90.0253 66.7845 89.9074 66.3235 89.9074C65.8573 89.9074 65.4476 90.0491 65.0922 90.33C64.7113 90.6366 64.5204 91.018 64.5204 91.4762C64.5204 91.7827 64.6284 92.0661 64.8449 92.3286C65.159 92.7048 65.8981 93.2094 67.0626 93.8381C67.8689 94.2684 68.3838 94.5645 68.6103 94.719C69.1873 95.1103 69.5914 95.533 69.8207 95.9859C70.0055 96.3593 70.0983 96.7483 70.0983 97.1549ZM75.7099 99.767H71.3216V99.4732H71.6849C72.1099 99.4732 72.4164 99.3496 72.6092 99.1051C72.7305 98.9506 72.7892 98.5644 72.7892 97.9461V91.3572C72.7892 90.8394 72.7556 90.4996 72.6912 90.3347C72.64 90.203 72.5367 90.095 72.3794 90.0102C72.1634 89.8894 71.9313 89.8301 71.684 89.8301H71.3211V89.5359H75.7094V89.8297H75.3361C74.9164 89.8297 74.6094 89.9533 74.4166 90.1978C74.2906 90.3575 74.2261 90.7441 74.2261 91.3572V97.9461C74.2261 98.464 74.2593 98.8037 74.3237 98.9686C74.463 99.306 74.7998 99.4737 75.3356 99.4737H75.7089V99.767H75.7099ZM85.1417 91.931H84.8585C84.8016 91.5084 84.7272 91.2047 84.6315 91.0246C84.3279 90.4556 83.7793 90.1694 82.9805 90.1694H81.5356V97.9798C81.5356 98.6132 81.6047 99.0075 81.7416 99.1567C81.9297 99.368 82.2258 99.4737 82.6304 99.4737H82.9886V99.7675H78.631V99.4737H78.9991C79.4369 99.4737 79.7462 99.3425 79.9315 99.0823C80.0423 98.9198 80.0987 98.554 80.0987 97.9798V90.1694H78.865C78.3809 90.1694 78.0407 90.2059 77.8451 90.275C77.2401 90.4916 76.9028 91.045 76.8384 91.9315H76.5475L76.6683 89.5359H85.028L85.1417 91.931ZM96.4454 89.8297H96.2493C95.8376 89.8297 95.4174 90.0538 94.9901 90.4992C94.81 90.6896 94.5547 91.0403 94.2278 91.5529L91.7633 95.4268V97.9845C91.7633 98.6104 91.8325 99.0018 91.9741 99.1567C92.1674 99.368 92.4688 99.4737 92.8833 99.4737H93.2154V99.7675H88.873V99.4737H89.2364C89.6689 99.4737 89.9783 99.3425 90.1583 99.0823C90.2692 98.9227 90.326 98.5569 90.326 97.985V95.569L87.5214 91.298C87.2149 90.8289 87.0221 90.5513 86.942 90.4608C86.762 90.2703 86.4834 90.0851 86.1125 89.9045C86.0068 89.8557 85.8599 89.8297 85.6747 89.8297V89.5359H90.0328V89.8297H89.8058C89.5661 89.8297 89.3576 89.8785 89.1824 89.9789C88.9663 90.0997 88.8579 90.2698 88.8579 90.4911C88.8583 90.6716 89.0123 90.9986 89.3193 91.47L91.4568 94.7592L93.4608 91.614C93.7616 91.1402 93.9113 90.7901 93.9113 90.5579C93.9113 90.2618 93.772 90.0505 93.4939 89.9192C93.3598 89.86 93.159 89.8292 92.8913 89.8292V89.5359H96.4454V89.8297Z" fill="white"/>
<path fill-rule="evenodd" clip-rule="evenodd" d="M23.8125 82.7126L28.9006 82.3875L33.9881 82.0625V82.7126V83.3626L28.9006 83.0376L23.8125 82.7126Z" fill="white"/>
<path fill-rule="evenodd" clip-rule="evenodd" d="M76.6757 82.7126L71.5876 82.3875L66.5 82.0625V82.7126V83.3626L71.5876 83.0376L76.6757 82.7126Z" fill="white"/>
<path d="M40.0781 83.1778C39.7488 83.8236 39.3764 84.1652 38.78 84.1652C37.8548 84.1652 37.1901 83.3829 37.1901 82.215C37.1901 81.2711 37.724 80.4017 38.7241 80.4017C39.3139 80.4017 39.7673 80.6438 39.9535 81.3645L40.1709 81.3209C40.1335 80.9423 40.0904 80.6628 40.0278 80.3088C39.8601 80.2775 39.3944 80.1411 38.8728 80.1411C37.3763 80.1411 36.3516 81.0295 36.3516 82.3396C36.3516 83.3455 37.0593 84.4329 38.7236 84.4329C39.1708 84.4329 39.7483 84.3083 39.916 84.2652C40.0278 84.0538 40.1956 83.5696 40.2823 83.2654L40.0781 83.1778ZM42.9594 80.1406C41.5495 80.1406 40.7361 81.2029 40.7361 82.3083C40.7361 83.5256 41.649 84.4324 42.8845 84.4324C44.0831 84.4324 45.0766 83.5999 45.0766 82.2401C45.0766 80.9854 44.1016 80.1406 42.9651 80.1406H42.9594ZM42.8414 80.3951C43.6302 80.3951 44.2323 81.1219 44.2323 82.4074C44.2323 83.5938 43.6672 84.1837 43.0091 84.1837C42.146 84.1837 41.5808 83.2953 41.5808 82.1714C41.5808 81.0286 42.1583 80.3951 42.8353 80.3951H42.8414ZM48.5113 83.2398C48.3933 83.5502 48.2815 83.7554 48.1635 83.8857C48.0205 84.0472 47.7907 84.0842 47.4804 84.0842C47.2568 84.0842 47.0644 84.078 46.9526 84.0221C46.8285 83.96 46.7972 83.8482 46.7972 83.5317V81.0598C46.7972 80.5135 46.8593 80.4822 47.3501 80.4448V80.2335H45.5181V80.4448C46.0212 80.4822 46.0771 80.5192 46.0771 81.0598V83.5132C46.0771 84.0534 46.0151 84.0908 45.4622 84.1406V84.3391H48.4866C48.5425 84.159 48.6728 83.5379 48.7164 83.2958L48.5113 83.2398ZM51.9886 83.2398C51.8706 83.5502 51.7588 83.7554 51.6408 83.8857C51.4982 84.0472 51.2685 84.0842 50.9577 84.0842C50.7341 84.0842 50.5417 84.078 50.4299 84.0221C50.3058 83.96 50.2746 83.8482 50.2746 83.5317V81.0598C50.2746 80.5135 50.3366 80.4822 50.8274 80.4448V80.2335H48.9954V80.4448C49.4985 80.4822 49.5544 80.5192 49.5544 81.0598V83.5132C49.5544 84.0534 49.4924 84.0908 48.9395 84.1406V84.3391H51.9639C52.0198 84.159 52.1501 83.5379 52.1937 83.2958L51.9886 83.2398ZM55.609 83.2645C55.5033 83.5379 55.3792 83.7487 55.2674 83.8795C55.1182 84.0411 54.9073 84.0847 54.516 84.0847C54.2493 84.0847 54.0195 84.0785 53.9077 84.0164C53.7836 83.9482 53.7523 83.7989 53.7523 83.5009V82.3704H54.2555C54.8017 82.3704 54.8704 82.4012 54.9509 82.8546H55.1622V81.6061H54.9509C54.8704 82.042 54.8083 82.0842 54.2555 82.0842H53.7523V80.7002C53.7523 80.5064 53.7708 80.4879 53.9883 80.4879H54.3796C54.777 80.4879 54.9448 80.5315 55.0504 80.6566C55.1499 80.7869 55.2243 80.9622 55.2863 81.2062L55.4976 81.1754C55.473 80.8068 55.4479 80.3699 55.4417 80.2335H52.4983V80.4386C52.9702 80.4822 53.0261 80.5069 53.0261 81.0693V83.5194C53.0261 84.0472 52.9702 84.0908 52.405 84.1406V84.3391H55.5966C55.6464 84.1467 55.7767 83.563 55.8202 83.3081L55.609 83.2645ZM60.4028 82.4012H58.6083V82.6063C59.2663 82.6623 59.3037 82.7058 59.3037 83.1593V83.7184C59.3037 83.9359 59.2417 84.0287 59.1299 84.0908C59.0181 84.159 58.8442 84.1903 58.6826 84.1903C57.54 84.1903 57.0307 83.1593 57.0307 82.2278C57.0307 81.0849 57.72 80.3955 58.5832 80.3955C59.1981 80.3955 59.6884 80.6561 59.8376 81.3953L60.0551 81.3517C60.0054 80.8798 59.9746 80.5382 59.9556 80.3207C59.732 80.2709 59.2289 80.1406 58.7011 80.1406C57.3907 80.1406 56.1921 80.8798 56.1921 82.3207C56.1921 83.5876 57.1486 84.4324 58.6078 84.4324C59.1294 84.4324 59.6756 84.2955 60.0669 84.2026C60.0295 84.0349 60.0234 83.8297 60.0234 83.6061V83.0968C60.0234 82.6931 60.0603 82.6618 60.4023 82.6059L60.4028 82.4012ZM63.9304 83.2645C63.8247 83.5379 63.7006 83.7487 63.5888 83.8795C63.4396 84.0411 63.2287 84.0847 62.8374 84.0847C62.5702 84.0847 62.3405 84.0785 62.2291 84.0164C62.105 83.9482 62.0737 83.7989 62.0737 83.5009V82.3704H62.5769C63.1231 82.3704 63.1918 82.4012 63.2723 82.8546H63.4836V81.6061H63.2723C63.1913 82.042 63.1293 82.0842 62.5769 82.0842H62.0737V80.7002C62.0737 80.5064 62.0922 80.4879 62.3097 80.4879H62.701C63.0984 80.4879 63.2662 80.5315 63.3718 80.6566C63.4713 80.7869 63.5457 80.9622 63.6077 81.2062L63.819 81.1754C63.7944 80.8068 63.7693 80.3699 63.7631 80.2335H60.8197V80.4386C61.2916 80.4822 61.3475 80.5069 61.3475 81.0693V83.5194C61.3475 84.0472 61.2916 84.0908 60.7264 84.1406V84.3391H63.918C63.9678 84.1467 64.0981 83.563 64.1416 83.3081L63.9304 83.2645Z" fill="white"/>
<path fill-rule="evenodd" clip-rule="evenodd" d="M50.2477 67.0938C51.5971 67.0938 52.6907 68.1873 52.6907 69.5367C52.6907 70.8862 51.5966 71.9797 50.2477 71.9797C48.8983 71.9797 47.8047 70.8862 47.8047 69.5367C47.8047 68.1873 48.8983 67.0938 50.2477 67.0938Z" fill="white"/>
<path fill-rule="evenodd" clip-rule="evenodd" d="M67.18 58.2109C67.5259 65.503 67.0294 65.5973 62.638 67.9038C61.3076 63.8143 61.7601 62.6639 67.18 58.2109Z" fill="white"/>
<path fill-rule="evenodd" clip-rule="evenodd" d="M72.6548 71.3891C68.3588 66.642 67.9921 66.8907 63.8359 68.1743C65.5381 71.5389 66.5311 71.9743 72.6548 71.3891Z" fill="white"/>
<path fill-rule="evenodd" clip-rule="evenodd" d="M73.5834 56.9609C73.6137 63.2812 73.1806 63.3442 69.2973 65.1774C68.297 61.5906 68.7306 60.6122 73.5834 56.9609Z" fill="white"/>
<path fill-rule="evenodd" clip-rule="evenodd" d="M79.8388 68.4047C75.5424 63.658 75.1757 63.9062 71.0195 65.1898C72.7227 68.5548 73.7156 68.9903 79.8388 68.4047Z" fill="white"/>
<path fill-rule="evenodd" clip-rule="evenodd" d="M78.6148 53.7344C79.8695 59.929 79.4568 60.075 76.0027 62.626C74.3258 59.3017 74.5618 58.2579 78.6148 53.7344Z" fill="white"/>
<path fill-rule="evenodd" clip-rule="evenodd" d="M86.8068 63.7478C81.6718 59.9237 81.3601 60.2388 77.5312 62.3041C79.855 65.275 80.9133 65.51 86.8068 63.7478Z" fill="white"/>
<path fill-rule="evenodd" clip-rule="evenodd" d="M82.4984 50.0156C85.0584 55.473 84.7092 55.7009 82.0833 58.8442C79.7801 56.1416 79.7631 55.121 82.4984 50.0156Z" fill="white"/>
<path fill-rule="evenodd" clip-rule="evenodd" d="M92.3313 57.5345C86.7103 55.1494 86.4924 55.5114 83.4102 58.2889C86.2328 60.5182 87.2665 60.4964 92.3313 57.5345Z" fill="white"/>
<path fill-rule="evenodd" clip-rule="evenodd" d="M86.166 45.4375C89.2382 50.3566 88.9307 50.6149 86.7834 53.9193C84.2731 51.6023 84.1395 50.6291 86.166 45.4375Z" fill="white"/>
<path fill-rule="evenodd" clip-rule="evenodd" d="M96.1226 51.8025C90.4793 50.1697 90.313 50.5408 87.6875 53.5476C90.6399 55.3533 91.6249 55.214 96.1226 51.8025Z" fill="white"/>
<path fill-rule="evenodd" clip-rule="evenodd" d="M88.9967 41.6016C92.3304 45.6432 92.086 45.9109 90.5536 49.1243C88.0315 47.3461 87.7965 46.4909 88.9967 41.6016Z" fill="white"/>
<path fill-rule="evenodd" clip-rule="evenodd" d="M98.7228 46.1777C93.4756 45.3831 93.3704 45.7356 91.375 48.7396C94.2327 50.0066 95.0987 49.7659 98.7228 46.1777Z" fill="white"/>
<path fill-rule="evenodd" clip-rule="evenodd" d="M91.4535 37.5156C94.5229 41.237 94.2969 41.4833 92.8868 44.4418C90.5642 42.8053 90.3476 42.0173 91.4535 37.5156Z" fill="white"/>
<path fill-rule="evenodd" clip-rule="evenodd" d="M100.407 41.7269C95.5748 40.9953 95.4776 41.3198 93.6406 44.0855C96.2722 45.2525 97.0692 45.0303 100.407 41.7269Z" fill="white"/>
<path fill-rule="evenodd" clip-rule="evenodd" d="M97.4027 34.5312C98.0713 39.3083 97.75 39.4006 95 41.1836C93.8771 38.5734 94.105 37.7892 97.4027 34.5312Z" fill="white"/>
<path fill-rule="evenodd" clip-rule="evenodd" d="M61.4605 59.9844C59.9087 67.1181 59.4051 67.0807 54.566 68.1728C54.3386 63.8787 55.073 62.8846 61.4605 59.9844Z" fill="white"/>
<path fill-rule="evenodd" clip-rule="evenodd" d="M64.3972 74.5874C61.2658 68.4832 60.8176 68.6391 56.1602 68.8154C56.9902 72.7703 57.8974 73.4962 64.3972 74.5874Z" fill="white"/>
<path fill-rule="evenodd" clip-rule="evenodd" d="M33.3115 58.2109C32.9656 65.503 33.4621 65.5973 37.8539 67.9038C39.1844 63.8143 38.7319 62.6639 33.3115 58.2109Z" fill="white"/>
<path fill-rule="evenodd" clip-rule="evenodd" d="M27.832 71.3891C32.1285 66.642 32.4951 66.8907 36.6513 68.1743C34.9487 71.5389 33.9557 71.9743 27.832 71.3891Z" fill="white"/>
<path fill-rule="evenodd" clip-rule="evenodd" d="M26.9076 56.9609C26.8778 63.2812 27.3103 63.3442 31.1937 65.1774C32.1939 61.5906 31.7599 60.6122 26.9076 56.9609Z" fill="white"/>
<path fill-rule="evenodd" clip-rule="evenodd" d="M20.6562 68.4047C24.9522 63.658 25.3194 63.9062 29.4756 65.1898C27.7724 68.5548 26.7795 68.9903 20.6562 68.4047Z" fill="white"/>
<path fill-rule="evenodd" clip-rule="evenodd" d="M21.8669 53.7344C20.6122 59.929 21.0244 60.075 24.479 62.626C26.1554 59.3017 25.9194 58.2579 21.8669 53.7344Z" fill="white"/>
<path fill-rule="evenodd" clip-rule="evenodd" d="M13.6758 63.7478C18.8107 59.9237 19.1225 60.2388 22.9508 62.3041C20.628 65.275 19.5697 65.51 13.6758 63.7478Z" fill="white"/>
<path fill-rule="evenodd" clip-rule="evenodd" d="M17.9821 50.0156C15.4221 55.473 15.7713 55.7009 18.3971 58.8442C20.7004 56.1416 20.7174 55.121 17.9821 50.0156Z" fill="white"/>
<path fill-rule="evenodd" clip-rule="evenodd" d="M8.15625 57.5345C13.7773 55.1494 13.9952 55.5114 17.0774 58.2889C14.2548 60.5182 13.2206 60.4964 8.15625 57.5345Z" fill="white"/>
<path fill-rule="evenodd" clip-rule="evenodd" d="M14.3228 45.4375C11.2501 50.3566 11.5576 50.6149 13.7054 53.9193C16.2157 51.6023 16.3493 50.6291 14.3228 45.4375Z" fill="white"/>
<path fill-rule="evenodd" clip-rule="evenodd" d="M4.36719 51.8025C10.0105 50.1697 10.1768 50.5408 12.8023 53.5476C9.84988 55.3533 8.86496 55.214 4.36719 51.8025Z" fill="white"/>
<path fill-rule="evenodd" clip-rule="evenodd" d="M11.4886 41.6016C8.15479 45.6432 8.39974 45.9109 9.93159 49.1243C12.4542 47.3461 12.6887 46.4909 11.4886 41.6016Z" fill="white"/>
<path fill-rule="evenodd" clip-rule="evenodd" d="M1.76562 46.1777C7.01287 45.3831 7.11801 45.7356 9.11344 48.7396C6.25532 50.0066 5.3898 49.7659 1.76562 46.1777Z" fill="white"/>
<path fill-rule="evenodd" clip-rule="evenodd" d="M9.0372 37.5156C5.96783 41.237 6.19335 41.4833 7.6039 44.4418C9.92607 42.8053 10.1421 42.0173 9.0372 37.5156Z" fill="white"/>
<path fill-rule="evenodd" clip-rule="evenodd" d="M0.0820312 41.7269C4.914 40.9953 5.01067 41.3198 6.84813 44.0855C4.21656 45.2525 3.41911 45.0303 0.0820312 41.7269Z" fill="white"/>
<path fill-rule="evenodd" clip-rule="evenodd" d="M3.08635 34.5312C2.4178 39.3083 2.73857 39.4006 5.4886 41.1836C6.61154 38.5734 6.38363 37.7892 3.08635 34.5312Z" fill="white"/>
<path fill-rule="evenodd" clip-rule="evenodd" d="M39.0312 59.9844C40.583 67.1181 41.0866 67.0807 45.9257 68.1728C46.1532 63.8787 45.4183 62.8846 39.0312 59.9844Z" fill="white"/>
<path fill-rule="evenodd" clip-rule="evenodd" d="M36.0938 74.5874C39.2252 68.4832 39.6739 68.6391 44.3313 68.8154C43.5013 72.7703 42.5941 73.4962 36.0938 74.5874Z" fill="white"/>
<path fill-rule="evenodd" clip-rule="evenodd" d="M45.2779 56.4821H44.7113V52.874C44.5749 53.0048 44.3958 53.1347 44.1746 53.2645C43.9533 53.3943 43.7539 53.4919 43.5781 53.5563V53.0091C43.8946 52.8608 44.1717 52.6807 44.4086 52.4685C44.646 52.2571 44.8141 52.052 44.9131 51.8525H45.2779V56.4821ZM46.8181 55.4132L47.3591 55.3682C47.4055 55.6236 47.4932 55.8084 47.623 55.923C47.7528 56.0377 47.9191 56.096 48.1233 56.096C48.2971 56.096 48.4497 56.0562 48.5814 55.9756C48.7135 55.896 48.8206 55.7899 48.9035 55.6558C48.986 55.5227 49.0561 55.3426 49.1129 55.1161C49.1698 54.8896 49.1977 54.6589 49.1977 54.4239C49.1977 54.3992 49.1968 54.3604 49.1944 54.3102C49.0821 54.4902 48.9272 54.6376 48.732 54.7494C48.5368 54.8622 48.3241 54.9176 48.0967 54.9176C47.7158 54.9176 47.3937 54.7793 47.1298 54.5021C46.8669 54.2263 46.7347 53.8615 46.7347 53.4085C46.7347 52.9404 46.8721 52.5651 47.1478 52.2794C47.4226 51.9951 47.767 51.8525 48.1825 51.8525C48.4809 51.8525 48.7543 51.933 49.0035 52.0951C49.2512 52.2562 49.4389 52.486 49.5677 52.785C49.6966 53.0835 49.761 53.5161 49.761 54.0818C49.761 54.6712 49.6975 55.1398 49.5701 55.489C49.4422 55.8387 49.2513 56.104 48.9992 56.2865C48.7467 56.4689 48.452 56.5603 48.1128 56.5603C47.7523 56.5603 47.4581 56.4603 47.2298 56.2599C47.0014 56.0585 46.864 55.7762 46.8181 55.4132ZM49.1295 53.3791C49.1295 53.0546 49.0438 52.7973 48.8718 52.6073C48.7012 52.4173 48.4933 52.3216 48.2483 52.3216C47.9949 52.3216 47.776 52.4234 47.5917 52.6286C47.406 52.8338 47.3136 53.0996 47.3136 53.426C47.3136 53.7189 47.4018 53.9572 47.5766 54.1396C47.7528 54.323 47.9717 54.4144 48.2322 54.4144C48.4937 54.4144 48.7083 54.3234 48.877 54.1396C49.0461 53.9577 49.1295 53.7037 49.1295 53.3791ZM51.1879 53.9823C50.953 53.8965 50.7791 53.7733 50.6649 53.6141C50.5522 53.454 50.4953 53.263 50.4953 53.0408C50.4953 52.7049 50.6152 52.4239 50.8559 52.1951C51.0975 51.9662 51.4172 51.8516 51.8175 51.8516C52.2188 51.8516 52.5429 51.9686 52.7878 52.2026C53.0323 52.4367 53.1549 52.721 53.1549 53.057C53.1549 53.2706 53.0991 53.4573 52.9877 53.6151C52.8759 53.7738 52.7068 53.8965 52.478 53.9823C52.7603 54.0747 52.974 54.2225 53.1208 54.4286C53.2682 54.6333 53.3421 54.8783 53.3421 55.164C53.3421 55.5577 53.2028 55.8885 52.9247 56.1566C52.6457 56.4248 52.2795 56.5594 51.8256 56.5594C51.3718 56.5594 51.0056 56.4253 50.7265 56.1557C50.4489 55.8861 50.3092 55.5501 50.3092 55.1479C50.3092 54.8484 50.3854 54.5973 50.5375 54.3955C50.69 54.1927 50.9065 54.0553 51.1879 53.9823ZM51.0752 53.0205C51.0752 53.2394 51.1448 53.4175 51.2832 53.5559C51.4224 53.6942 51.6053 53.7643 51.8313 53.7643C52.0516 53.7643 52.2292 53.6956 52.368 53.5582C52.5064 53.4208 52.5751 53.2526 52.5751 53.0527C52.5751 52.8442 52.5045 52.6694 52.3614 52.5277C52.2198 52.3856 52.0407 52.3149 51.8247 52.3149C51.6067 52.3149 51.4276 52.3846 51.286 52.523C51.1462 52.6623 51.0752 52.8276 51.0752 53.0205ZM50.8885 55.1522C50.8885 55.3142 50.926 55.4701 51.0013 55.6212C51.0766 55.7714 51.1903 55.8885 51.3424 55.9709C51.4935 56.0533 51.657 56.0955 51.8294 56.0955C52.1018 56.0955 52.3254 56.0083 52.5002 55.8345C52.6751 55.6606 52.7622 55.4398 52.7622 55.1711C52.7622 54.8987 52.6722 54.6731 52.4931 54.495C52.3126 54.3168 52.0852 54.2277 51.8114 54.2277C51.5428 54.2277 51.3229 54.3159 51.1491 54.4916C50.9757 54.6684 50.8885 54.8882 50.8885 55.1522ZM53.8964 55.2583L54.463 55.1811C54.5288 55.5028 54.6378 55.7349 54.7937 55.8766C54.9495 56.0183 55.1404 56.0889 55.3669 56.0889C55.635 56.0889 55.8615 55.9969 56.0439 55.8122C56.2263 55.6274 56.3172 55.399 56.3172 55.1266C56.3172 54.8669 56.2324 54.6523 56.0619 54.4826C55.8927 54.314 55.6767 54.2292 55.4138 54.2292C55.3067 54.2292 55.1736 54.2505 55.0135 54.2926L55.0769 53.7966C55.1144 53.8008 55.1456 53.8032 55.1679 53.8032C55.4105 53.8032 55.6274 53.7397 55.8212 53.6141C56.0145 53.4886 56.1111 53.2953 56.1111 53.0347C56.1111 52.8276 56.0401 52.6556 55.8998 52.5196C55.7591 52.3836 55.5782 52.3159 55.356 52.3159C55.1347 52.3159 54.9514 52.3856 54.8045 52.5253C54.6577 52.6651 54.5629 52.874 54.5212 53.1531L53.9546 53.0503C54.0243 52.6703 54.1811 52.3751 54.427 52.1657C54.6714 51.9563 54.9775 51.8525 55.3422 51.8525C55.5933 51.8525 55.825 51.906 56.0363 52.0146C56.249 52.1216 56.411 52.2685 56.5224 52.4547C56.6351 52.6414 56.6905 52.839 56.6905 53.0484C56.6905 53.2469 56.637 53.4275 56.5309 53.5905C56.4233 53.7534 56.2646 53.8833 56.0552 53.9799C56.3281 54.042 56.5394 54.1732 56.6905 54.3718C56.8412 54.5694 56.916 54.8181 56.916 55.1157C56.916 55.5179 56.7692 55.8605 56.4759 56.1405C56.1822 56.4206 55.8108 56.5603 55.3621 56.5603C54.9576 56.5603 54.6217 56.439 54.3545 56.1974C54.0868 55.9548 53.9343 55.643 53.8964 55.2583Z" fill="white"/>
<path fill-rule="evenodd" clip-rule="evenodd" d="M36.7305 54.53L39.3312 54.1087L41.932 53.6875V54.53V55.3719L39.3312 54.9507L36.7305 54.53Z" fill="white"/>
<path fill-rule="evenodd" clip-rule="evenodd" d="M63.7558 54.53L61.1555 54.1087L58.5547 53.6875V54.53V55.3719L61.1555 54.9507L63.7558 54.53Z" fill="white"/>
<path fill-rule="evenodd" clip-rule="evenodd" d="M70.2313 25.7031V39.3301L50.2443 49.3247L30.2578 39.3301V25.7031L50.2443 35.6978L70.2313 25.7031Z" fill="white"/>
<path fill-rule="evenodd" clip-rule="evenodd" d="M50.2437 0L84.4327 17.0972L50.2437 34.1938L16.0547 17.0972L50.2437 0Z" fill="white"/>
<path fill-rule="evenodd" clip-rule="evenodd" d="M50.491 16.7969H25.7699C24.5945 16.7969 23.6328 17.7587 23.6328 18.9342V20.8812L24.4794 21.3048V18.9342C24.4794 18.2245 25.0602 17.6436 25.7699 17.6436H50.4948C51.2666 17.6436 51.2694 16.7969 50.491 16.7969Z" fill="white"/>
<path fill-rule="evenodd" clip-rule="evenodd" d="M50.1845 16.3516H25.4634C24.288 16.3516 23.3263 17.3134 23.3263 18.4889V31.4516C22.5996 31.6416 22.0638 32.3021 22.0638 33.0886C22.0638 33.5217 22.2268 33.9168 22.4944 34.2163H22.4807L21.9141 39.1127C23.0061 39.6277 24.5059 39.6277 25.5979 39.1127L25.0313 34.2163H25.0171C25.2848 33.9168 25.4478 33.5221 25.4478 33.0891C25.4478 32.2988 24.9058 31.6349 24.1734 31.4492V18.4894C24.1734 17.7796 24.7542 17.1992 25.4639 17.1992H50.1883C50.9596 17.1983 50.9629 16.3516 50.1845 16.3516Z" fill="white"/>
</svg>
