<svg width="82" height="100" viewBox="0 0 82 100" fill="none" xmlns="http://www.w3.org/2000/svg">
<path fill-rule="evenodd" clip-rule="evenodd" d="M41.0592 95.7345L58.6688 78.1224C63.5122 73.2876 65.9248 66.8986 65.9248 60.5186C65.9248 56.958 65.1745 53.3977 63.6748 50.1084C63.4128 50.271 63.1412 50.4246 62.8617 50.569L61.4697 51.3373V56.5334C62.0574 56.9854 62.446 57.6992 62.446 58.5035C62.446 59.8772 61.3348 60.9885 59.9614 60.9885C58.5879 60.9885 57.4767 59.8772 57.4767 58.5035C57.4767 57.6995 57.8557 56.9854 58.4521 56.5334V52.9731L55.7236 54.4548C56.5278 56.3886 56.9253 58.449 56.9253 60.5186C56.9253 64.567 55.3714 68.6335 52.2811 71.7239C49.1819 74.8328 45.1255 76.378 41.0595 76.378V95.7345H41.0592ZM41.0592 56.8225V50L58.4521 40.5478V49.5483L49.6877 54.3197C46.6067 55.9911 43.824 56.8225 41.0592 56.8225ZM41.0678 41.0805V26.0707L39.4597 25.1943C37.8328 24.3087 37.2371 22.2754 38.1226 20.6486C38.7275 19.5281 39.8757 18.9045 41.0678 18.8956V3.4248L75.7006 22.248L59.961 30.815L41.7818 20.9288C41.0589 20.5313 40.1371 20.8023 39.7399 21.5342C39.3421 22.2573 39.6133 23.17 40.3449 23.5672L56.8076 32.5227L41.0678 41.0805ZM66.1234 48.2285C68.0031 52.0871 68.9517 56.3073 68.9517 60.5186C68.9517 67.6669 66.2318 74.8235 60.8019 80.2548L41.0592 100L21.3261 80.2548C15.8955 74.8235 13.1756 67.6669 13.1756 60.5186C13.1756 56.2987 14.1246 52.0875 16.0039 48.2285C15.4617 47.6776 15.0011 47.0904 14.6126 46.4397C13.6276 44.768 13.1938 42.816 13.1938 40.3125V31.4296L15.4257 32.6407L41.0595 46.5752L58.4524 37.1319V35.0533L41.0595 44.5056L0.128906 22.248L2.55937 20.9288L41.0595 0L81.9991 22.248L61.4703 33.4087V35.4872L68.9341 31.4299V40.3128C68.9341 42.8163 68.5003 44.7683 67.5154 46.44C67.1262 47.0904 66.6656 47.6776 66.1234 48.2285ZM53.0582 55.9101L51.1247 56.958C47.5824 58.8832 44.3302 59.8409 41.0592 59.8409C37.7971 59.8409 34.5446 58.8832 31.0023 56.958L29.0688 55.9009C28.4998 57.3829 28.2197 58.9463 28.2197 60.5186C28.2197 63.8079 29.4758 67.0883 31.9787 69.6004C34.4907 72.1039 37.7789 73.3596 41.0592 73.3596C44.348 73.3596 47.6372 72.1039 50.1487 69.6004C52.6515 67.0969 53.9077 63.8079 53.9077 60.5186C53.9077 58.9552 53.6179 57.3919 53.0582 55.9101ZM61.4697 38.9117V47.9122C63.1052 47.0084 64.2351 46.0689 64.9217 44.9031C65.6172 43.7373 65.9153 42.2645 65.9153 40.3125V36.4901L61.4697 38.9117Z" fill="white"/>
</svg>
