<svg width="125" height="100" viewBox="0 0 125 100" fill="none" xmlns="http://www.w3.org/2000/svg">
<path d="M123.129 13.0306L123.422 13.0234C123.207 13.2806 122.6 13.4663 122.293 13.6163L119.779 14.9236C114.437 17.7952 109.373 21.6954 105.13 26.0314C105.002 26.1671 104.409 26.7529 104.38 26.9172C104.366 26.9814 104.494 27.36 104.523 27.4458C104.694 28.0887 104.923 28.7673 104.93 29.4316C104.773 29.6316 104.63 29.7673 104.394 29.8816C103.716 30.2316 102.945 30.4531 102.238 30.7388C100.995 31.246 99.7948 31.8103 98.6164 32.4532L98.2807 29.9316C92.9097 32.5746 87.7529 35.7606 83.089 39.5036L81.082 41.1537C81.132 40.768 81.1392 40.2966 81.2534 39.9251C81.4534 39.2893 82.132 38.5036 82.5176 37.9607C85.4746 33.7533 88.9957 30.0888 93.0097 26.8814C94.4524 25.7314 95.9737 24.7313 97.5093 23.717C103.473 19.7667 110.008 16.6237 116.872 14.5807C118.915 13.9735 121.036 13.3949 123.129 13.0306Z" fill="white"/>
<path d="M55.5458 0.487573C57.1099 0.137551 58.8455 0.0875505 60.4382 0.0304041C66.702 -0.198181 72.7087 0.866169 78.5582 3.08774C81.1509 4.07351 83.7793 5.28787 86.1219 6.77368C90.5216 9.56671 94.4141 12.774 97.7139 16.8243C98.3853 17.6529 99.0923 18.4744 99.6423 19.3959L94.2499 22.7247C92.35 20.0745 90.2216 17.5815 87.7575 15.4385C82.5294 10.8668 75.687 7.73802 68.8447 6.62367C65.5093 6.08078 62.1881 6.0022 58.8241 6.24507C53.8388 6.55224 48.6106 8.12376 44.1324 10.3239C37.1544 13.7527 31.3262 19.2173 27.3908 25.9249C26.2695 27.8464 25.2124 29.9323 24.4982 32.0467L18.7344 29.5179C20.27 25.5677 22.3698 21.9103 24.9267 18.5316C32.1762 8.96667 43.6396 2.13053 55.5458 0.487573Z" fill="white"/>
<path d="M45.3349 24.609L42.5994 23.3161L42.5565 23.6447C42.3851 26.4734 42.5137 29.3951 42.5137 32.2309V34.0311C42.5137 34.2239 42.4708 34.5311 42.5351 34.7025C42.6065 34.8882 42.9065 35.1383 43.0494 35.2811L44.1207 36.4526C43.4993 37.2955 42.5708 38.0599 41.7995 38.7671C41.3495 38.5599 40.9138 38.0742 40.5424 37.7384C40.1282 37.367 39.6425 36.9884 39.2782 36.5741C39.2568 36.5526 39.1568 36.4241 39.1568 36.4098C39.164 36.3812 39.4211 36.1455 39.4496 36.1169L40.7138 34.8311C40.7781 34.7668 41.0424 34.5454 41.0638 34.4739C41.1138 34.3025 41.071 33.9096 41.0781 33.7168L41.071 22.7161C40.7495 22.3803 39.921 22.1375 39.4782 21.9446C37.9998 21.316 36.4213 20.7588 35 20.0016L62.0693 8.34375C64.1763 9.00808 66.2833 10.0653 68.326 10.9368L81.125 16.5157L85.3032 18.3229C86.146 18.6801 87.1173 18.9801 87.8887 19.473C88.1244 19.623 88.2672 19.7945 88.3172 20.0659C87.6387 20.5302 86.7102 20.8302 85.9603 21.1874L79.1465 24.4233L66.3118 30.4951L63.7477 31.7309C63.2121 31.9952 62.6907 32.3024 62.1193 32.4953L45.3349 24.609Z" fill="white"/>
<path d="M45.3364 24.6089L62.1208 32.5094C62.6922 32.3166 63.2136 32.0094 63.7492 31.7451L66.3133 30.5093L79.148 24.4375V27.1591L79.0409 43.2029C71.7558 50.0177 66.0062 58.3325 63.9778 68.2474C63.4993 70.5761 63.2993 72.9834 63.2136 75.3621C63.1564 76.9622 63.1921 78.5837 63.4636 80.1624C63.6421 78.5123 63.7278 76.8693 64.0706 75.2406C65.0277 70.7047 66.9847 66.3972 69.3845 62.447C69.8559 61.6684 70.3344 60.804 70.913 60.0969L70.9272 60.0397C71.1772 59.5182 71.6343 58.9896 71.97 58.511L74.7626 54.7108C79.3909 48.7604 85.2618 43.5744 91.5971 39.4956C97.568 35.6453 104.053 32.638 110.667 30.095L116.952 27.8234C118.252 27.3805 119.552 26.8948 120.888 26.5519L124.144 25.5161C123.966 25.8519 122.53 27.8091 122.28 27.9377C120.809 30.1164 118.981 32.1666 117.216 34.1167C114.681 36.924 112.053 39.6384 109.139 42.0457C107.067 43.7601 104.796 45.2959 102.518 46.7246C100.211 48.1747 97.8251 49.5605 95.361 50.7391L82.4906 56.1323L110.874 34.6238C110.174 34.7881 109.496 35.2739 108.867 35.6168L106.453 36.874L94.5968 43.2815L87.1117 48.0104C84.4333 49.7819 81.8335 51.5392 79.348 53.5822C77.7267 54.9108 76.1483 56.3109 74.6769 57.8039L72.82 59.8683C72.5985 60.1254 72.2914 60.6469 72.0343 60.8112C68.806 65.1543 66.5633 69.8475 65.192 75.0906C64.8991 76.2121 64.5706 77.3765 64.4778 78.5337C64.4635 78.7337 64.4492 78.9194 64.4706 79.1195C64.5277 78.7623 64.5706 78.4051 64.6706 78.0551C65.0277 76.8622 65.3634 75.7192 65.8776 74.5835C68.3346 69.1831 72.6414 65.0329 77.7981 62.197C80.7408 60.5826 83.8405 59.5254 86.9331 58.2753C89.9615 57.0538 92.9398 55.6609 95.8324 54.1465C97.318 53.3679 98.9036 52.6035 100.196 51.5177C98.6251 62.9613 91.9042 73.3262 82.762 80.2267L76.9339 83.934C78.1267 83.684 79.448 82.9554 80.5551 82.4411C87.0403 79.4338 92.4756 74.8692 96.411 68.8903C99.3322 64.4543 101.546 59.1111 102.56 53.8893C102.682 53.2679 103.01 50.1748 103.232 49.8676C103.31 49.7605 103.675 49.5819 103.789 49.5033L105.782 48.1818C107.167 47.2461 108.446 46.2317 109.703 45.1316C110.096 56.9967 105.367 69.7975 97.2538 78.4694C94.154 81.7839 90.7186 84.7269 86.8403 87.0985C84.7976 88.3557 82.5049 89.3487 80.3622 90.4273L71.3558 95.1133L65.5277 98.1778C64.4278 98.7707 63.2064 99.5993 62.0351 99.9993L58.114 97.6706L44.3365 90.5702C41.3939 89.0629 38.3727 87.6414 35.5943 85.8484C25.8736 79.5695 19.1242 69.526 16.3173 58.361C15.2459 54.1108 14.7102 49.6533 14.8102 45.2674L21.4169 49.9677C22.3311 60.1254 27.2735 70.5118 35.1515 77.0908C38.0298 79.4909 41.0939 81.4339 44.5293 82.9483C46.2578 83.7126 47.9505 84.3769 49.8075 84.7841C49.2147 84.4984 48.5862 84.3126 47.9862 84.0555C46.7077 83.5126 45.4293 82.8911 44.2365 82.1911C35.8372 77.2836 29.6519 69.1046 26.4879 60.004C25.5594 57.3395 25.0594 54.5037 24.5309 51.7463L35.3943 57.1395L42.7652 60.3111C48.2933 62.9113 53.2858 66.2758 56.7784 71.3761C57.714 72.7405 58.5496 74.2406 59.1496 75.7907C59.3996 76.4407 59.5567 77.2693 59.8853 77.8694C59.9638 77.4836 59.7138 76.7765 59.6138 76.3979C58.9068 73.6263 57.8854 70.7047 56.6284 68.1259L55.3499 65.6401C55.1999 65.3758 54.7142 64.7043 54.6928 64.4614C53.9929 63.6828 53.4715 62.5827 52.8572 61.7184C51.6788 60.0683 50.3503 58.561 48.979 57.0752C48.929 57.0752 48.9647 57.0752 48.9004 57.0181L44.7722 53.3964C42.2366 51.3677 39.5654 49.5605 36.8228 47.8175L17.4529 36.8383L15.0245 35.4953C14.6674 35.2953 14.1889 34.9596 13.7817 34.9239C14.0674 35.2025 14.496 35.4239 14.8245 35.6668L17.2458 37.4383L27.7806 45.2602L37.187 52.4321L41.8581 56.0823C41.2582 55.8895 40.6725 55.5466 40.094 55.2894L37.4227 54.1893C31.8375 51.9964 26.3665 49.7105 21.2383 46.546C18.4599 44.8316 15.8673 42.8172 13.4246 40.6456C12.2604 39.6099 11.0034 38.5669 9.96775 37.4026C8.96069 36.624 8.01791 35.5239 7.16083 34.5738C4.63246 31.7594 2.18265 28.702 0.132812 25.5304C0.461358 25.559 0.861327 25.759 1.16845 25.859L3.21114 26.5376L18.3671 32.2523C20.7098 33.1738 22.9739 34.2667 25.2166 35.3953C30.6733 38.1384 35.8372 41.3171 40.4868 45.2959C42.4652 46.9889 44.2508 48.8104 46.0363 50.6963L49.1575 54.2465C49.5861 54.7822 50.1003 55.368 50.4503 55.9609L50.4717 56.0109L54.0143 61.0541C54.5785 61.9255 55.2356 62.8756 55.6499 63.8185L55.657 63.8257C57.964 67.7616 59.8353 72.1476 60.5995 76.6622C60.7566 77.5979 60.7923 78.5766 60.8566 79.5266L60.9495 79.5338L61.0995 76.4336C61.1137 69.5689 59.2425 62.5899 55.9356 56.5681C53.2929 51.7535 49.8289 47.5032 45.9649 43.6173C45.7864 43.4315 45.3293 43.0601 45.2293 42.8315C45.1793 42.7243 45.2221 42.3672 45.2221 42.2243L45.215 40.0242L45.2293 27.1377L45.3364 24.6089Z" fill="white"/>
<path d="M45.3389 24.6089L62.1233 32.5094C62.6947 32.3166 63.2161 32.0094 63.7518 31.7451L66.3159 30.5093L79.1506 24.4375V27.1591C78.4863 27.6091 77.715 27.9306 76.9936 28.2806L73.8224 29.8307L62.1019 35.6168L45.3889 27.1948L45.2461 27.1377L45.3389 24.6089Z" fill="white"/>
</svg>
