<svg width="76" height="100" viewBox="0 0 76 100" fill="none" xmlns="http://www.w3.org/2000/svg">
<path d="M14.358 72.8065L37.7654 85.5264L63.21 71.6953V86.1705L37.7654 100.002L12.3203 86.1705V71.6953L14.358 72.8065ZM37.113 88.2959L15.081 76.3173V84.5384L37.7654 96.8699L60.4586 84.5384V76.3173L37.7654 88.6578L37.113 88.2959Z" fill="white"/>
<path d="M2.61371 60.8752L24.6102 48.9141L26.6295 50.943L6.14169 62.0836L37.7688 79.2757L69.3959 62.0836L48.9075 50.943L50.9275 48.9228L75.1458 62.0836C62.6838 68.8493 50.2215 75.6237 37.7685 82.3984L0.390625 62.0836L2.61371 60.8752Z" fill="white"/>
<path d="M37.1129 63.2777C36.4427 62.9161 36.1953 62.0871 36.5569 61.4168C36.9274 60.755 37.7563 60.5082 38.4268 60.8698L56.3925 70.6434V94.3893C57.1511 94.848 57.6626 95.6857 57.6626 96.6385C57.6626 98.1026 56.4715 99.2848 55.0166 99.2848C53.5611 99.2848 52.3791 98.1026 52.3791 96.6385C52.3791 95.6854 52.8822 94.8477 53.6408 94.3893V72.2662L37.1129 63.2777Z" fill="white"/>
<path fill-rule="evenodd" clip-rule="evenodd" d="M20.723 7.03215C11.3475 16.409 11.3475 31.7571 20.723 41.1339L37.7718 58.1847L54.82 41.1339C64.1955 31.7571 64.1955 16.409 54.82 7.03215C45.4445 -2.34405 30.0985 -2.34405 20.723 7.03215ZM28.5111 14.8213C23.3864 19.9375 23.3864 28.2379 28.5111 33.354C33.6259 38.4702 41.9252 38.4702 47.0409 33.354C52.1563 28.2382 52.1563 19.9375 47.0409 14.8213C41.9252 9.69617 33.6262 9.69617 28.5111 14.8213Z" fill="white"/>
</svg>
