<svg width="99" height="100" viewBox="0 0 99 100" fill="none" xmlns="http://www.w3.org/2000/svg">
<path fill-rule="evenodd" clip-rule="evenodd" d="M13.3906 59.5619C15.271 64.3212 18.1228 68.7718 21.9549 72.6041L49.3432 99.996L76.7309 72.6041C80.5629 68.7715 83.4232 64.3212 85.3041 59.5619C80.262 56.4093 73.8351 54.9611 67.7072 55.5262C66.7806 57.1688 65.6238 58.7052 64.2287 60.1005C56.0087 68.3217 42.6771 68.3217 34.457 60.1005C33.0619 58.7052 31.9058 57.1691 30.9869 55.5262C24.8506 54.9608 18.4321 56.409 13.3906 59.5619Z" fill="white"/>
<path fill-rule="evenodd" clip-rule="evenodd" d="M52.681 57.3785C62.384 49.7047 77.5788 49.8993 87.9004 56.725C87.3176 40.6448 90.8223 24.6797 98.0979 10.33C94.3366 9.2441 90.4074 8.9438 86.5669 9.42946C86.3907 10.2858 86.2134 11.1512 86.0546 12.0166C87.8206 11.9727 89.5867 12.0695 91.3437 12.3082C86.823 24.4236 84.6069 37.2892 84.8361 50.2345C73.985 46.9941 60.574 49.2723 52.681 57.3785ZM49.3436 17.0591C48.3637 32.0975 48.3637 40.742 49.3436 55.7804C50.3322 40.742 50.3322 32.0975 49.3436 17.0591ZM46.0062 57.3785C36.3026 49.7047 21.1078 49.8993 10.7868 56.725C11.378 40.6448 7.86429 24.6797 0.597656 10.33C4.35899 9.2441 8.27917 8.9438 12.1286 9.42946C12.3049 10.2858 12.4728 11.1512 12.6404 12.0166C10.875 11.9727 9.10052 12.0695 7.35192 12.3082C11.8726 24.4236 14.0797 37.2892 13.8589 50.2345C24.7012 46.9941 38.1129 49.2723 46.0062 57.3785ZM48.1955 59.604C41.6266 49.1134 29.0718 44.036 17.0552 47.0029C18.1855 31.4704 16.6755 15.8585 12.579 0.837856C24.5866 -2.1287 37.1507 2.94837 43.7193 13.439C37.0439 6.56008 27.6944 2.9571 18.1326 3.56673C21.0813 16.1323 22.4231 29.0157 22.1235 41.9258C33.433 42.4996 43.4811 49.3075 48.1955 59.604ZM22.1232 9.69454C30.5547 7.26628 39.5693 10.7453 44.1781 18.207C38.4218 12.282 30.3694 9.17369 22.1232 9.69454ZM24.9837 39.1527C33.4152 36.7244 42.4305 40.2034 47.039 47.6652C41.2824 41.7398 33.2302 38.6318 24.9837 39.1527ZM24.2689 31.7885C32.7004 29.3599 41.715 32.8392 46.3239 40.3006C40.5669 34.3756 32.5148 31.2673 24.2689 31.7885ZM23.5534 24.4236C31.985 21.995 40.9996 25.4744 45.6084 32.9361C39.8521 27.0111 31.7996 23.9025 23.5534 24.4236ZM22.838 17.0591C31.2701 14.6308 40.2847 18.1101 44.8936 25.5716C39.1367 19.6465 31.0848 16.5382 22.838 17.0591ZM50.4907 59.604C57.0597 49.1134 69.6238 44.036 81.6314 47.0029C80.501 31.4704 82.0201 15.8585 86.1165 0.837856C74.1 -2.1287 61.5449 2.94837 54.9759 13.439C61.6508 6.56008 70.9918 2.9571 80.5537 3.56673C77.6134 16.1323 76.2716 29.0157 76.5628 41.9258C65.262 42.4996 55.2145 49.3075 50.4907 59.604ZM76.5724 9.69454C68.1409 7.26628 59.1257 10.7453 54.5084 18.207C60.265 12.282 68.3256 9.17369 76.5724 9.69454ZM73.7119 39.1527C65.2797 36.7244 56.2651 40.2034 51.6478 47.6652C57.4042 41.7398 65.465 38.6318 73.7119 39.1527ZM74.4267 31.7885C65.9952 29.3599 56.9806 32.8392 52.3627 40.3006C58.1196 34.3756 66.1805 31.2673 74.4267 31.7885ZM75.1422 24.4236C66.71 21.995 57.6954 25.4744 53.0781 32.9361C58.8341 27.0111 66.8953 23.9025 75.1422 24.4236ZM75.857 17.0591C67.4255 14.6308 58.4108 18.1101 53.793 25.5716C59.5496 19.6465 67.6108 16.5382 75.857 17.0591Z" fill="white"/>
</svg>
