<svg width="251" height="251" viewBox="0 0 251 251" fill="none" xmlns="http://www.w3.org/2000/svg">
<g opacity="0.3">
<mask id="path-1-inside-1_34_16108" fill="white">
<path d="M77.3803 240.848C103.223 251.619 131.934 253.402 158.912 245.912C185.889 238.421 209.57 222.091 226.161 199.537C242.751 176.984 251.289 149.514 250.407 121.53C249.525 93.5465 239.274 66.6688 221.296 45.2052C203.318 23.7416 178.656 8.93482 151.26 3.15807C123.865 -2.61869 95.323 0.969028 70.2096 13.3462C45.0961 25.7234 24.865 46.1734 12.7587 71.4186C0.652507 96.6638 -2.62789 125.242 3.4433 152.574L4.86526 152.258C-1.1352 125.245 2.10698 96.9994 14.0721 72.0484C26.0373 47.0974 46.0327 26.8857 70.8535 14.6528C95.6743 2.41981 123.883 -1.12611 150.96 4.58334C178.036 10.2928 202.411 24.927 220.179 46.1405C237.947 67.354 248.079 93.9184 248.951 121.576C249.823 149.234 241.384 176.384 224.987 198.674C208.59 220.965 185.185 237.105 158.522 244.508C131.859 251.912 103.483 250.149 77.9407 239.504L77.3803 240.848Z"/>
</mask>
<path d="M77.3803 240.848C103.223 251.619 131.934 253.402 158.912 245.912C185.889 238.421 209.57 222.091 226.161 199.537C242.751 176.984 251.289 149.514 250.407 121.53C249.525 93.5465 239.274 66.6688 221.296 45.2052C203.318 23.7416 178.656 8.93482 151.26 3.15807C123.865 -2.61869 95.323 0.969028 70.2096 13.3462C45.0961 25.7234 24.865 46.1734 12.7587 71.4186C0.652507 96.6638 -2.62789 125.242 3.4433 152.574L4.86526 152.258C-1.1352 125.245 2.10698 96.9994 14.0721 72.0484C26.0373 47.0974 46.0327 26.8857 70.8535 14.6528C95.6743 2.41981 123.883 -1.12611 150.96 4.58334C178.036 10.2928 202.411 24.927 220.179 46.1405C237.947 67.354 248.079 93.9184 248.951 121.576C249.823 149.234 241.384 176.384 224.987 198.674C208.59 220.965 185.185 237.105 158.522 244.508C131.859 251.912 103.483 250.149 77.9407 239.504L77.3803 240.848Z" stroke="white" stroke-width="2" mask="url(#path-1-inside-1_34_16108)"/>
</g>
</svg>
