<svg width="251" height="251" viewBox="0 0 251 251" fill="none" xmlns="http://www.w3.org/2000/svg">
<g opacity="0.3">
<mask id="path-1-inside-1_34_16109" fill="white">
<path d="M122.16 0.268934C148.519 -0.378853 174.408 7.32501 196.124 22.2788C217.84 37.2326 234.272 58.6704 243.069 83.5264C251.866 108.383 252.578 135.384 245.103 160.669C237.628 185.954 222.348 208.228 201.45 224.305C180.552 240.382 155.105 249.44 128.749 250.182C102.393 250.924 76.4765 243.313 54.7069 228.436C32.9373 213.56 16.4292 192.182 7.54338 167.357C-1.34244 142.533 -2.15088 115.534 5.23369 90.2225L6.63201 90.6304C-0.666506 115.647 0.132511 142.331 8.91479 166.866C17.6971 191.401 34.0128 212.531 55.5287 227.234C77.0446 241.937 102.659 249.459 128.708 248.726C154.757 247.992 179.908 239.041 200.562 223.151C221.217 207.261 236.318 185.246 243.706 160.256C251.094 135.265 250.39 108.579 241.696 84.0124C233.001 59.446 216.761 38.258 195.298 23.4785C173.835 8.69895 148.248 1.08487 122.196 1.7251L122.16 0.268934Z"/>
</mask>
<path d="M122.16 0.268934C148.519 -0.378853 174.408 7.32501 196.124 22.2788C217.84 37.2326 234.272 58.6704 243.069 83.5264C251.866 108.383 252.578 135.384 245.103 160.669C237.628 185.954 222.348 208.228 201.45 224.305C180.552 240.382 155.105 249.44 128.749 250.182C102.393 250.924 76.4765 243.313 54.7069 228.436C32.9373 213.56 16.4292 192.182 7.54338 167.357C-1.34244 142.533 -2.15088 115.534 5.23369 90.2225L6.63201 90.6304C-0.666506 115.647 0.132511 142.331 8.91479 166.866C17.6971 191.401 34.0128 212.531 55.5287 227.234C77.0446 241.937 102.659 249.459 128.708 248.726C154.757 247.992 179.908 239.041 200.562 223.151C221.217 207.261 236.318 185.246 243.706 160.256C251.094 135.265 250.39 108.579 241.696 84.0124C233.001 59.446 216.761 38.258 195.298 23.4785C173.835 8.69895 148.248 1.08487 122.196 1.7251L122.16 0.268934Z" stroke="white" stroke-width="2" mask="url(#path-1-inside-1_34_16109)"/>
</g>
</svg>
