<svg width="40" height="40" viewBox="0 0 40 40" fill="none" xmlns="http://www.w3.org/2000/svg">
<g clip-path="url(#clip0_34_14996)">
<path d="M32.4254 4.34375L22 11.9183L39.4684 24.6099C39.8179 23.1316 40.0038 21.5907 40.0038 20.0071C40.0038 13.6689 37.0396 8.01063 32.4254 4.34375Z" fill="#00001B"/>
<path d="M30.3859 2.92398C27.356 1.07453 23.7985 0.0078125 19.9965 0.0078125C15.9104 0.0078125 12.1073 1.24047 8.9375 3.35211L12.9216 15.6127L30.3859 2.92398Z" fill="#00001B"/>
<path d="M6.96414 4.85156C2.70273 8.52211 0 13.9547 0 20.007C0 21.8668 0.256094 23.6677 0.733203 25.3773H13.6339L6.96414 4.85156Z" fill="#00001B"/>
<path d="M1.54688 27.7188C4.46883 34.6819 11.2215 39.6541 19.1535 39.9856L23.1392 27.7188H1.54688Z" fill="#00001B"/>
<path d="M21.6328 39.9371C29.4959 39.298 36.0868 34.0911 38.7419 26.9805L28.3062 19.3984L21.6328 39.9371Z" fill="#00001B"/>
</g>
<defs>
<clipPath id="clip0_34_14996">
<rect width="40" height="40" fill="white"/>
</clipPath>
</defs>
</svg>
