<svg width="40" height="40" viewBox="0 0 40 40" fill="none" xmlns="http://www.w3.org/2000/svg">
<path d="M31.1104 31.7595C25.3959 27.2913 29.4289 8.91252 29.4289 8.91252C29.4289 8.91252 35.6843 8.91252 36.4132 8.91252C37.1422 8.91252 39.9999 8.45419 39.9999 5.03214C39.9999 0.82256 36.5077 1.08122 36.5077 1.08122C36.5077 1.08122 17.365 1.08122 10.7923 1.08122C6.57122 1.08122 2.76139 5.91416 0.574509 9.37084C-0.589688 11.217 0.0687266 11.7343 2.06791 10.8642C9.07619 7.79535 11.0514 8.90054 11.0514 8.90054C11.5452 11.264 11.7098 21.929 9.91118 26.1382C8.08856 30.1011 4.72594 35.1217 9.66406 38.073C13.5209 40.2599 17.5655 35.7682 17.1657 28.125C16.9776 24.08 16.6599 8.91209 16.6599 8.91209H23.1039C22.9033 11.2755 21.8105 23.3395 22.9512 30.4889C24.1385 42.4237 37.108 40.1073 39.53 33.347C40.1294 31.4773 39.9888 30.0425 39.5416 28.9604C38.7181 26.9501 37.3423 26.8445 37.4958 27.7847C37.5903 28.3841 37.5313 28.9719 37.4368 29.5017C37.1542 31.1362 33.8151 33.6988 31.1104 31.7595Z" fill="#00001B"/>
</svg>
