<svg width="40" height="40" viewBox="0 0 40 40" fill="none" xmlns="http://www.w3.org/2000/svg">
<path d="M36.25 26.5977V13.4023C36.9936 12.9684 37.5 12.1709 37.5 11.25C37.5 9.87183 36.3788 8.75 35 8.75C34.4318 8.75 33.9135 8.94783 33.4933 9.26826L22.467 4.674C22.3052 3.45078 21.2671 2.5 20 2.5C18.7329 2.5 17.6948 3.45078 17.533 4.674L6.50673 9.26826C6.0865 8.94783 5.56816 8.75 5 8.75C3.62122 8.75 2.5 9.87183 2.5 11.25C2.5 12.1709 3.00636 12.9684 3.75 13.4023V26.5977C3.00636 27.0316 2.5 27.8291 2.5 28.75C2.5 30.1282 3.62122 31.25 5 31.25C5.56816 31.25 6.0865 31.0522 6.50673 30.7317L17.533 35.326C17.6948 36.5492 18.7329 37.5 20 37.5C21.2671 37.5 22.3052 36.5492 22.467 35.326L33.4933 30.7317C33.9135 31.0522 34.4318 31.25 35 31.25C36.3788 31.25 37.5 30.1282 37.5 28.75C37.5 27.8291 36.9936 27.0316 36.25 26.5977ZM32.533 28.4234L21.5068 33.0183C21.0865 32.6978 20.5682 32.5 20 32.5C19.4318 32.5 18.9135 32.6978 18.4932 33.0183L7.46696 28.4234C7.36351 27.6421 6.90331 26.9789 6.25 26.5977V13.4023C6.90331 13.0211 7.36351 12.3579 7.46696 11.5766L18.4932 6.98166C18.9135 7.30217 19.4318 7.5 20 7.5C20.5682 7.5 21.0865 7.30217 21.5068 6.98166L32.533 11.5766C32.6365 12.3579 33.0967 13.0211 33.75 13.4023V26.5977C33.0967 26.9789 32.6365 27.6421 32.533 28.4234Z" fill="#00001B"/>
<path d="M20.625 19.1582V30.0019L29.2419 26.1506C29.7021 25.954 30 25.5018 30 25.0019V15.0019C30 14.9985 29.9986 14.9955 29.9986 14.9922L20.625 19.1582Z" fill="#00001B"/>
<path d="M20.4911 10.1016C20.1786 9.96613 19.8198 9.96613 19.5073 10.1016C19.5073 10.1016 10.6913 13.8946 10.6562 13.9137L19.9992 18.0661L29.3422 13.9137C29.3071 13.8946 20.4911 10.1016 20.4911 10.1016Z" fill="#00001B"/>
<path d="M10 15.0019V25.0019C10 25.5018 10.2979 25.954 10.7581 26.1506L19.375 30.0019V19.1582L10.0014 14.9922C10.0014 14.9955 10 14.9985 10 15.0019Z" fill="#00001B"/>
</svg>
