<svg width="40" height="40" viewBox="0 0 40 40" fill="none" xmlns="http://www.w3.org/2000/svg">
<path fill-rule="evenodd" clip-rule="evenodd" d="M12.3727 10.0391V4.50156L7.69844 6.29219V11.8297L12.3727 10.0391ZM32.2555 12.8336V28.8273H28.6063V29.7648H32.7242C32.9828 29.7648 33.193 29.5547 33.193 29.2961V12.8336H32.2555ZM7.69844 12.8336H6.76094V29.2961C6.76094 29.5547 6.97031 29.7648 7.22969 29.7648H11.3469V28.8273H7.69844V12.8336ZM28.9891 35.743H10.9648V36.832C10.9648 37.432 11.4531 37.9203 12.0531 37.9203H27.9008C28.5008 37.9203 28.9891 37.432 28.9891 36.832V35.743ZM27.1117 24.7852H12.8414C12.5344 24.7852 12.2844 25.0352 12.2844 25.3422V34.8055H27.6688V25.3422C27.6688 25.0352 27.4195 24.7852 27.1117 24.7852ZM24.5008 29.4641C24.6836 29.6469 24.6836 29.9437 24.5008 30.1266L22.2508 32.3766C22.1594 32.468 22.0391 32.5141 21.9195 32.5141C21.7992 32.5141 21.6797 32.468 21.5883 32.3766C21.4047 32.1938 21.4047 31.8969 21.5883 31.7141L23.5063 29.7953L21.5883 27.8766C21.4047 27.6937 21.4047 27.3969 21.5883 27.2141C21.7711 27.0312 22.068 27.0312 22.2508 27.2141L24.5008 29.4641ZM20.9375 27.0984L19.8672 32.6687C19.8242 32.8937 19.6281 33.0492 19.4078 33.0492C19.3781 33.0492 19.3484 33.0469 19.3188 33.0406C19.0648 32.9922 18.8977 32.7469 18.9469 32.4922L20.0164 26.9211C20.0656 26.6672 20.3117 26.5008 20.5656 26.5492C20.8195 26.5984 20.9859 26.8438 20.9375 27.0984ZM18.3656 27.8766L16.4469 29.7953L18.3656 31.7141C18.5484 31.8969 18.5484 32.1938 18.3656 32.3766C18.2742 32.468 18.1539 32.5141 18.0344 32.5141C17.9141 32.5141 17.7945 32.468 17.7031 32.3766L15.4531 30.1266C15.2695 29.9437 15.2695 29.6469 15.4531 29.4641L17.7031 27.2141C17.8859 27.0312 18.1828 27.0312 18.3656 27.2141C18.5477 27.3969 18.5477 27.6937 18.3656 27.8766ZM19.9766 18.5883C21.5484 18.5883 22.8273 17.3094 22.8273 15.7375C22.8273 14.1656 21.5484 12.8867 19.9766 12.8867C18.4047 12.8867 17.1258 14.1656 17.1258 15.7375C17.125 17.3094 18.4047 18.5883 19.9766 18.5883ZM24.8195 23.8477C24.1539 22.1016 22.3891 21.0781 19.9766 21.0781C17.5641 21.0781 15.7992 22.1016 15.1336 23.8477H24.8195ZM28.4227 3.82031L32.7242 5.46797L37.025 3.82031L32.7242 2.17188L28.4227 3.82031ZM32.2555 11.8297L27.5805 10.0391V4.50156L32.2555 6.29219V11.8297ZM33.193 6.29219L37.8672 4.50156V10.0391L33.193 11.8297V6.29219ZM2.92813 3.82031L7.22969 2.17188L11.5312 3.82031L7.22969 5.46797L2.92813 3.82031ZM6.76094 11.8297V6.29219L2.08594 4.50156V10.0391L6.76094 11.8297Z" fill="#00001B"/>
</svg>
