<svg width="40" height="40" viewBox="0 0 40 40" fill="none" xmlns="http://www.w3.org/2000/svg">
<path d="M36.053 3.71875H3.94184C2.66406 3.71875 1.66406 4.71875 1.66406 5.94097V26.7743C1.66406 27.9965 2.66406 29.0521 3.94184 29.0521H36.1085C37.3307 29.0521 38.3863 28.0521 38.3863 26.7743V5.94097C38.3307 4.71875 37.3307 3.71875 36.053 3.71875ZM19.9974 25.5521C14.9418 25.5521 10.7752 21.441 10.7752 16.3299C10.7752 11.2743 14.8863 7.10764 19.9974 7.10764C25.053 7.10764 29.2196 11.2188 29.2196 16.3299C29.2196 21.441 25.053 25.5521 19.9974 25.5521Z" fill="#00001B"/>
<path d="M24.1615 16.3828C24.1615 16.9384 23.8837 17.4384 23.3837 17.7717L18.7726 20.5495C18.4948 20.7161 18.217 20.7717 17.9392 20.7717C17.6615 20.7717 17.3837 20.7161 17.1615 20.5495C16.6615 20.2717 16.3281 19.7161 16.3281 19.1606V13.605C16.3281 13.0495 16.6059 12.4939 17.1615 12.2161C17.6615 11.9384 18.2726 11.9384 18.7726 12.2161L23.3837 14.9939C23.8837 15.2717 24.1615 15.7717 24.1615 16.3828Z" fill="#00001B"/>
<path d="M38.3307 34.1667C38.3307 34.4444 38.1085 34.7222 37.7752 34.7222H11.1641C10.8307 35.6667 9.83073 36.3333 8.55295 36.3333C7.33073 36.3333 6.27517 35.6667 5.94184 34.7222H2.71962C2.38628 34.7222 2.16406 34.4444 2.16406 34.1667C2.16406 33.8333 2.38628 33.6111 2.71962 33.6111H5.94184C6.21962 32.6667 7.27517 32 8.55295 32C9.83073 32 10.8307 32.6667 11.1641 33.6111H37.7752C38.1085 33.6111 38.3307 33.8333 38.3307 34.1667Z" fill="#00001B"/>
</svg>
