<svg width="39" height="39" viewBox="0 0 39 39" fill="none" xmlns="http://www.w3.org/2000/svg">
<g clip-path="url(#clip0_34_15211)" filter="url(#filter0_d_34_15211)">
<path d="M21.0402 32.1114L20.3566 32.6241L21.0402 33.1368V33.3351C21.0402 34.113 20.4093 34.7433 19.632 34.7433H15.3691C14.5919 34.7433 13.9609 34.113 13.9609 33.3351V33.1368L14.6445 32.6241L13.9609 32.1114V29.8125H21.0402V32.1114Z" fill="#D8ECFE"/>
<path d="M17.3967 34.7439H15.3691C14.5919 34.7439 13.9609 34.1137 13.9609 33.3357V33.1375L14.6445 32.6248L13.9609 32.1121V29.8125H16.0124V33.3357C16.0124 34.1055 16.6304 34.7316 17.3967 34.7439Z" fill="#B3DAFE"/>
<path d="M19.2714 20.9459C19.2714 21.9236 18.4796 22.7161 17.5019 22.7161V28.5495H13.9622V26.8294C13.9622 26.1511 13.5752 25.5289 12.9619 25.2383C9.36884 23.5358 6.88281 19.8772 6.88281 15.6373V15.625H10.4225V15.6366C10.4225 16.6137 11.215 17.4068 12.192 17.4068C13.1698 17.4068 13.9622 16.6137 13.9622 15.6366V15.625H17.5019V19.1763C18.4796 19.1764 19.2714 19.9688 19.2714 20.9459Z" fill="#AEE69C"/>
<path d="M15.3296 26.8294V28.5495H13.9622V26.8294C13.9622 26.1511 13.5752 25.5289 12.9619 25.2383C9.36884 23.5358 6.88281 19.8772 6.88281 15.6373V15.625H8.25027V15.6373C8.25027 19.8772 10.7364 23.5358 14.3293 25.2383C14.9427 25.5289 15.3296 26.1511 15.3296 26.8294Z" fill="#89DAA4"/>
<path d="M28.1191 15.6335V15.6451C28.1191 19.8836 25.6357 23.5416 22.0441 25.2447C21.4294 25.536 21.0397 26.1575 21.0397 26.8379V28.558H17.5V22.7245C18.4777 22.7245 19.2695 21.9321 19.2695 20.9544C19.2695 19.9773 18.4777 19.1849 17.5 19.1849V15.6335H21.0397C21.0459 14.6613 21.8362 13.875 22.8099 13.875C23.7828 13.875 24.5732 14.6613 24.5794 15.6335H28.1191V15.6335Z" fill="#8AC9FE"/>
<path d="M28.119 15.6309H24.5793C24.5732 14.6586 23.7828 13.8724 22.8098 13.8724C21.8362 13.8724 21.0458 14.6586 21.0397 15.6309H17.5V12.1028C16.5222 12.1028 15.7305 11.3104 15.7305 10.3326C15.7305 9.35489 16.5222 8.56315 17.5 8.56315V5.02344C23.3609 5.02344 28.1129 9.77134 28.119 15.6309Z" fill="#FFB930"/>
<path d="M15.7324 10.3326C15.7324 11.3104 16.5242 12.1028 17.5019 12.1028V15.6309H13.9622V15.6425C13.9622 16.6196 13.1698 17.4127 12.192 17.4127C11.215 17.4127 10.4225 16.6196 10.4225 15.6425V15.6309H6.88281C6.88896 9.75493 11.6259 5.02344 17.5019 5.02344V8.56315C16.5242 8.56315 15.7324 9.35496 15.7324 10.3326Z" fill="#FE646F"/>
<path d="M17.5019 5.02344V5.11025C12.2754 5.77689 8.25574 10.2184 8.25027 15.6309H6.88281C6.88896 9.75493 11.6259 5.02344 17.5019 5.02344Z" fill="#FD4755"/>
<path d="M13.9609 32.1172H21.0402V33.1426H13.9609V32.1172Z" fill="#EAF6FF"/>
<path d="M13.9609 32.1172H16.0124V33.1426H13.9609V32.1172Z" fill="#D8ECFE"/>
<path d="M17.4972 3.39945C17.214 3.39945 16.9844 3.16983 16.9844 2.88662V0.762832C16.9844 0.479619 17.2139 0.25 17.4972 0.25C17.7805 0.25 18.01 0.479619 18.01 0.762832V2.88669C18.01 3.16983 17.7804 3.39945 17.4972 3.39945Z" fill="#FFB930"/>
<path d="M24.9304 5.39639C24.8434 5.39639 24.7553 5.37424 24.6745 5.32755C24.4292 5.18598 24.3452 4.87235 24.4867 4.62707L25.5486 2.7878C25.6902 2.54252 26.0037 2.45837 26.2491 2.60008C26.4944 2.74165 26.5784 3.05529 26.4368 3.30056L25.3749 5.13984C25.28 5.30445 25.1076 5.39639 24.9304 5.39639Z" fill="#FFB930"/>
<path d="M30.3727 10.8298C30.1955 10.8298 30.0231 10.7379 29.9282 10.5733C29.7865 10.3281 29.8706 10.0144 30.1159 9.87287L31.9552 8.81097C32.2003 8.6694 32.5141 8.75334 32.6556 8.99869C32.7973 9.24396 32.7132 9.55759 32.4679 9.69917L30.6287 10.7611C30.5479 10.8076 30.4597 10.8298 30.3727 10.8298Z" fill="#FFB930"/>
<path d="M2.78678 26.7595C2.60959 26.7595 2.43726 26.6676 2.34224 26.503C2.2006 26.2578 2.28468 25.9441 2.52995 25.8026L4.36923 24.7407C4.61437 24.5991 4.92807 24.683 5.06971 24.9284C5.21135 25.1736 5.12727 25.4873 4.88199 25.6289L3.04272 26.6907C2.96198 26.7373 2.8738 26.7595 2.78678 26.7595Z" fill="#FFB930"/>
<path d="M10.0674 5.39634C9.89024 5.39634 9.71783 5.30439 9.62288 5.13985L8.56099 3.30057C8.41935 3.0553 8.50343 2.74167 8.7487 2.6001C8.99384 2.45839 9.30761 2.54247 9.44918 2.78781L10.5111 4.62709C10.6527 4.87236 10.5686 5.18599 10.3234 5.32757C10.2426 5.37419 10.1544 5.39634 10.0674 5.39634Z" fill="#FFB930"/>
<path d="M4.62514 10.8299C4.53812 10.8299 4.45 10.8078 4.3692 10.7611L2.52992 9.6992C2.28465 9.55762 2.20063 9.24399 2.34221 8.99872C2.48378 8.75338 2.79728 8.66936 3.04269 8.811L4.88196 9.8729C5.12724 10.0145 5.21125 10.3281 5.06968 10.5734C4.97473 10.7379 4.80232 10.8299 4.62514 10.8299Z" fill="#FFB930"/>
<path d="M32.2111 26.7596C32.1241 26.7596 32.0359 26.7374 31.9551 26.6907L30.1159 25.6289C29.8706 25.4872 29.7866 25.1736 29.9281 24.9284C30.0697 24.683 30.3835 24.5991 30.6286 24.7407L32.4679 25.8026C32.7132 25.9442 32.7972 26.2578 32.6556 26.503C32.5607 26.6676 32.3883 26.7596 32.2111 26.7596Z" fill="#FFB930"/>
<path d="M2.63662 18.26H0.512832C0.229619 18.26 0 18.0304 0 17.7472C0 17.464 0.229551 17.2344 0.512832 17.2344H2.63662C2.91983 17.2344 3.14945 17.464 3.14945 17.7472C3.14945 18.0304 2.9199 18.26 2.63662 18.26Z" fill="#FFB930"/>
<path d="M34.4882 18.26H32.3644C32.0812 18.26 31.8516 18.0304 31.8516 17.7472C31.8516 17.464 32.0811 17.2344 32.3644 17.2344H34.4883C34.7715 17.2344 35.0011 17.464 35.0011 17.7472C35.0011 18.0304 34.7715 18.26 34.4882 18.26Z" fill="#FFB930"/>
<path d="M21.7486 30.4988H13.2533C12.6668 30.4988 12.1914 30.0233 12.1914 29.4369C12.1914 28.8504 12.6668 28.375 13.2533 28.375H21.7487C22.3351 28.375 22.8106 28.8504 22.8106 29.4369C22.8106 30.0233 22.3351 30.4988 21.7486 30.4988Z" fill="#EAF6FF"/>
<path d="M15.3012 30.4987H13.25C12.6633 30.4987 12.1875 30.0235 12.1875 29.4368C12.1875 29.1435 12.3064 28.8782 12.4986 28.6861C12.6908 28.494 12.9567 28.375 13.25 28.375H15.3012C15.0079 28.375 14.7419 28.4939 14.5498 28.6861C14.3577 28.8783 14.2387 29.1435 14.2387 29.4368C14.2387 30.0235 14.7146 30.4987 15.3012 30.4987Z" fill="#D8ECFE"/>
</g>
<defs>
<filter id="filter0_d_34_15211" x="0" y="0" width="39" height="39" filterUnits="userSpaceOnUse" color-interpolation-filters="sRGB">
<feFlood flood-opacity="0" result="BackgroundImageFix"/>
<feColorMatrix in="SourceAlpha" type="matrix" values="0 0 0 0 0 0 0 0 0 0 0 0 0 0 0 0 0 0 127 0" result="hardAlpha"/>
<feOffset dx="4" dy="4"/>
<feComposite in2="hardAlpha" operator="out"/>
<feColorMatrix type="matrix" values="0 0 0 0 1 0 0 0 0 1 0 0 0 0 1 0 0 0 0.1 0"/>
<feBlend mode="normal" in2="BackgroundImageFix" result="effect1_dropShadow_34_15211"/>
<feBlend mode="normal" in="SourceGraphic" in2="effect1_dropShadow_34_15211" result="shape"/>
</filter>
<clipPath id="clip0_34_15211">
<rect width="35" height="35" fill="white"/>
</clipPath>
</defs>
</svg>
