<svg width="30" height="30" viewBox="0 0 30 30" fill="none" xmlns="http://www.w3.org/2000/svg">
<g clip-path="url(#clip0_34_15195)">
<path d="M18.3974 12.2176L13.8898 16.475L11.7266 14.2494C11.4867 14.0025 11.0918 13.9969 10.8452 14.2367C10.5983 14.4768 10.5927 14.8715 10.8325 15.1184L13.427 17.7818C13.6681 18.0243 14.0576 18.0326 14.3087 17.8004L19.2665 13.1241C19.3869 13.0105 19.4573 12.8537 19.4619 12.6884C19.4665 12.5231 19.4052 12.3626 19.2914 12.2425C19.0501 11.9917 18.6523 11.9807 18.3974 12.2176Z" fill="#00001B"/>
<path d="M15.0513 5.65625C9.89975 5.65625 5.71094 9.84506 5.71094 14.9966C5.71094 20.1483 9.89975 24.3371 15.0513 24.3371C20.203 24.3371 24.3918 20.1483 24.3918 14.9966C24.3918 9.84506 20.203 5.65625 15.0513 5.65625ZM15.0513 23.0867C10.5875 23.0867 6.96133 19.4543 6.96133 14.9966C6.96133 10.5389 10.5875 6.90664 15.0513 6.90664C19.5195 6.90664 23.1414 10.5286 23.1414 14.9966C23.1414 19.4645 19.5195 23.0867 15.0513 23.0867Z" fill="#00001B"/>
<path d="M27.9001 11.563L28.1065 7.85554C28.1209 7.60669 27.9856 7.37297 27.7626 7.26161L24.4615 5.59239L22.7923 2.2913C22.6788 2.07029 22.4465 1.93572 22.1984 1.94745L18.4846 2.14771L15.3899 0.103121C15.1813 -0.0343735 14.911 -0.0343735 14.7021 0.103121L11.6074 2.14771L7.90022 1.94134C7.65112 1.92669 7.41765 2.06199 7.30628 2.2852L5.63682 5.58628L2.33598 7.2555C2.11472 7.36882 1.9804 7.60107 1.99212 7.84944L2.19824 11.5569L0.153902 14.6516C0.0164077 14.8602 0.0164077 15.1305 0.153902 15.3393L2.19214 18.4402L1.98577 22.1476C1.97136 22.3965 2.10642 22.6302 2.32963 22.7415L5.63071 24.4108L7.29993 27.7118C7.41325 27.9331 7.6455 28.0674 7.89387 28.0557L11.6013 27.8493L14.696 29.8937C14.9034 30.0356 15.1764 30.0356 15.3838 29.8937L18.4785 27.8493L22.1859 28.0557C22.4348 28.0701 22.6683 27.9348 22.7799 27.7118L24.4491 24.4108L27.7502 22.7415C27.9712 22.628 28.1058 22.396 28.094 22.1476L27.8877 18.4402L29.932 15.3454C30.0695 15.1369 30.0695 14.8663 29.932 14.6577L27.9001 11.563ZM26.7372 17.9275C26.661 18.0394 26.6256 18.174 26.6373 18.309L26.8309 21.8162L23.7113 23.3917C23.5924 23.4512 23.4959 23.5479 23.4363 23.6669L21.8606 26.7865L18.3534 26.5928C18.2191 26.588 18.0865 26.6226 17.972 26.6927L15.046 28.6247L12.1203 26.6927C12.0187 26.6241 11.899 26.587 11.7764 26.5865H11.7452L8.23773 26.7804L6.66228 23.6605C6.60269 23.5416 6.50623 23.4451 6.38705 23.3855L3.26107 21.8162L3.45498 18.309C3.45987 18.1747 3.42494 18.0421 3.35485 17.9275L1.4231 15.0016L3.35485 12.0756C3.43129 11.964 3.4667 11.8292 3.45498 11.6944L3.26107 8.18695L6.38095 6.6115C6.49988 6.55191 6.59634 6.45545 6.65593 6.33651L8.23138 3.21664L11.7388 3.41055C11.8729 3.41519 12.0055 3.38051 12.1203 3.31042L15.046 1.37867L17.972 3.31042C18.0838 3.38686 18.2186 3.42227 18.3534 3.41055L21.8606 3.21664L23.4363 6.33651C23.4959 6.45545 23.5924 6.55191 23.7113 6.6115L26.8309 8.18695L26.6373 11.6944C26.6324 11.8285 26.6673 11.9611 26.7372 12.0756L28.6692 15.0016L26.7372 17.9275Z" fill="#00001B"/>
</g>
<defs>
<clipPath id="clip0_34_15195">
<rect width="30" height="30" fill="white"/>
</clipPath>
</defs>
</svg>
