<svg width="30" height="30" viewBox="0 0 30 30" fill="none" xmlns="http://www.w3.org/2000/svg">
<path d="M3.75254 7.03125C2.12358 7.03125 1.27761 7.88417 0.870145 8.6991C0.462681 9.51402 0.468755 10.315 0.468755 10.315L0.468755 19.2183C0.468755 19.2183 0.462682 20.0193 0.870145 20.8342C1.27761 21.6492 2.12877 22.5021 3.75254 22.5021H7.7526V21.5643H3.75254C2.56723 21.5643 2.00665 21.0069 1.71099 20.4155C1.41533 19.8242 1.40649 19.2183 1.40649 19.2183L1.40649 10.315C1.40649 10.315 1.41533 9.70911 1.71099 9.11779C2.00665 8.52647 2.57396 7.96898 3.75254 7.96898H14.0641C15.2511 7.96898 15.81 8.52647 16.1057 9.11779C16.4013 9.70911 16.4067 10.315 16.4067 10.315V11.2528H17.3444V10.315C17.3444 10.315 17.3505 9.51402 16.9431 8.6991C16.5356 7.88417 15.6916 7.03125 14.0641 7.03125H3.75254Z" fill="#00001B"/>
<path d="M8.9136 0.460937C6.08407 0.460938 3.76231 2.78804 3.76127 5.61673L3.75781 7.49219H4.69554L4.699 5.61673C4.69985 3.30086 6.59733 1.39867 8.9136 1.39867C11.23 1.39867 13.1325 3.29991 13.1317 5.61673V7.49219H14.0694V5.61673C14.0704 2.7865 11.743 0.460939 8.9136 0.460937Z" fill="#00001B"/>
<path d="M8.909 3.27344C7.5406 3.27344 6.56689 4.30665 6.56641 5.61949V7.49496H7.50414V5.61949C7.50445 4.76155 8.11184 4.21117 8.909 4.21117C9.69918 4.21117 10.3176 4.76345 10.3173 5.61949L10.3139 7.49496H11.2516L11.2551 5.61949C11.2555 4.30723 10.2786 3.27344 8.909 3.27344Z" fill="#00001B"/>
<path d="M14.0627 10.7813C13.9542 10.7811 13.849 10.8187 13.7651 10.8875C13.6812 10.9562 13.6237 11.052 13.6025 11.1584L13.4226 12.0512C12.6394 12.2551 11.8944 12.5679 11.2011 12.9854L10.426 12.4733C10.3358 12.4132 10.2275 12.3862 10.1196 12.3969C10.0117 12.4076 9.9109 12.4554 9.83429 12.5321L7.84464 14.5218C7.76878 14.5982 7.72153 14.6984 7.71082 14.8055C7.70011 14.9126 7.72659 15.0201 7.78582 15.11L8.29448 15.8713C7.87982 16.5705 7.57261 17.3218 7.37405 18.1101L6.47092 18.29C6.3645 18.3112 6.26874 18.3687 6.19996 18.4526C6.13118 18.5365 6.09364 18.6417 6.09375 18.7502V21.56C6.09364 21.6685 6.13118 21.7737 6.19996 21.8576C6.26874 21.9415 6.3645 21.999 6.47092 22.0202L7.36367 22.1967C7.56766 22.9813 7.8831 23.7306 8.3014 24.4251L7.78582 25.2002C7.72569 25.2904 7.69869 25.3986 7.70941 25.5065C7.72014 25.6144 7.76793 25.7153 7.84464 25.7919L9.83429 27.7781C9.9109 27.8548 10.0117 27.9026 10.1196 27.9133C10.2275 27.924 10.3358 27.897 10.426 27.8369L11.1838 27.3317C11.8829 27.7462 12.6379 28.0536 13.426 28.2521L13.6025 29.1518C13.6237 29.2582 13.6812 29.354 13.7651 29.4227C13.849 29.4915 13.9542 29.5291 14.0627 29.5289H16.8759C16.9844 29.5291 17.0896 29.4915 17.1735 29.4227C17.2575 29.354 17.3149 29.2582 17.3361 29.1518L17.5126 28.2625C18.3077 28.0666 19.0665 27.761 19.7722 27.3455L20.5127 27.8369C20.6029 27.897 20.7111 27.924 20.819 27.9133C20.9269 27.9026 21.0277 27.8548 21.1044 27.7781L23.094 25.7919C23.1707 25.7153 23.2185 25.6144 23.2292 25.5065C23.24 25.3986 23.213 25.2904 23.1528 25.2002L22.658 24.4562C23.0734 23.75 23.3829 22.9923 23.5784 22.1967L24.4677 22.0202C24.5741 21.999 24.6699 21.9415 24.7387 21.8576C24.8075 21.7737 24.845 21.6685 24.8449 21.56V18.7502C24.845 18.6417 24.8075 18.5365 24.7387 18.4526C24.6699 18.3687 24.5741 18.3112 24.4677 18.29L23.5957 18.117C23.3901 17.3251 23.0714 16.5711 22.6476 15.8713L23.1528 15.11C23.2121 15.0201 23.2385 14.9126 23.2278 14.8055C23.2171 14.6984 23.1699 14.5982 23.094 14.5218L21.1044 12.5321C21.0277 12.4554 20.9269 12.4076 20.819 12.3969C20.7111 12.3862 20.6029 12.4132 20.5127 12.4733L19.7618 12.9751C19.0592 12.5596 18.3046 12.2486 17.5126 12.0512L17.3361 11.1584C17.3149 11.052 17.2575 10.9562 17.1735 10.8875C17.0896 10.8187 16.9844 10.7811 16.8759 10.7813H14.0627ZM14.4468 11.719H16.4918L16.6441 12.4733C16.6621 12.5633 16.7061 12.646 16.7707 12.7112C16.8353 12.7764 16.9176 12.8212 17.0074 12.8401C17.9182 13.0283 18.7874 13.3865 19.568 13.892C19.6445 13.9412 19.7336 13.967 19.8246 13.9664C19.9155 13.9658 20.0043 13.9388 20.0801 13.8886L20.7134 13.4664L22.1597 14.9128L21.7307 15.553C21.6795 15.6299 21.6523 15.7201 21.6523 15.8125C21.6523 15.9048 21.6795 15.9951 21.7307 16.072C22.2464 16.8493 22.6124 17.714 22.8103 18.6257C22.8297 18.7148 22.8748 18.7964 22.94 18.8603C23.0051 18.9243 23.0875 18.9678 23.1771 18.9855L23.9072 19.1343V21.1759L23.1563 21.3281C23.0658 21.3464 22.9828 21.3909 22.9175 21.4562C22.8523 21.5214 22.8078 21.6045 22.7895 21.6949C22.6037 22.61 22.2471 23.4812 21.741 24.2659C21.6919 24.3424 21.6661 24.4315 21.6667 24.5225C21.6673 24.6134 21.6944 24.7022 21.7446 24.778L22.1598 25.3974L20.7134 26.8438L20.094 26.432C20.0179 26.3811 19.9284 26.3536 19.8368 26.353C19.7452 26.3524 19.6553 26.3786 19.5785 26.4285C18.7937 26.9345 17.9226 27.2876 17.0075 27.4735C16.9166 27.492 16.8332 27.537 16.7679 27.6029C16.7026 27.6688 16.6583 27.7526 16.6407 27.8437L16.4919 28.5911H14.4468L14.2946 27.8334C14.2766 27.7434 14.2325 27.6607 14.1679 27.5955C14.1034 27.5303 14.0211 27.4855 13.9312 27.4666C13.0234 27.2769 12.1589 26.9198 11.381 26.4147C11.3041 26.3648 11.2143 26.3386 11.1227 26.3392C11.0311 26.3399 10.9416 26.3673 10.8654 26.4183L10.2253 26.8438L8.77891 25.3974L9.21491 24.7434C9.26654 24.6668 9.29441 24.5767 9.29502 24.4844C9.29564 24.3921 9.26897 24.3016 9.21836 24.2244C8.70826 23.4515 8.34582 22.5929 8.14915 21.688C8.12968 21.5988 8.0846 21.5173 8.01945 21.4533C7.95429 21.3894 7.87189 21.3459 7.78236 21.3281L7.03148 21.1759V19.1343L7.79274 18.9821C7.88273 18.9641 7.96545 18.92 8.03065 18.8554C8.09585 18.7909 8.14066 18.7086 8.15953 18.6187C8.34922 17.7109 8.70634 16.8464 9.21145 16.0685C9.26132 15.9917 9.28757 15.9019 9.28696 15.8102C9.28634 15.7186 9.25889 15.6291 9.20798 15.553L8.77891 14.9128L10.2253 13.4664L10.8793 13.9024C10.9562 13.9535 11.0465 13.9808 11.1388 13.9808C11.2311 13.9808 11.3214 13.9535 11.3983 13.9024C12.1712 13.3923 13.0332 13.0299 13.9382 12.8332C14.0273 12.8137 14.1089 12.7686 14.1728 12.7035C14.2368 12.6383 14.2803 12.5559 14.298 12.4664L14.4468 11.719Z" fill="#00001B"/>
<path d="M15.4685 14.0625C12.1086 14.0625 9.375 16.7961 9.375 20.156C9.375 23.5159 12.1086 26.2495 15.4685 26.2495C18.8284 26.2495 21.562 23.5159 21.562 20.156C21.562 16.7961 18.8284 14.0625 15.4685 14.0625ZM15.4685 15.0002C18.3218 15.0002 20.6278 17.3028 20.6278 20.156C20.6278 23.0093 18.3218 25.3118 15.4685 25.3118C12.6153 25.3118 10.3127 23.0093 10.3127 20.156C10.3127 17.3028 12.6153 15.0002 15.4685 15.0002Z" fill="#00001B"/>
<path d="M15.4676 15.9375C14.1787 15.9375 13.125 16.9912 13.125 18.2801C13.125 19.569 14.1787 20.6262 15.4676 20.6262C16.7565 20.6262 17.8137 19.569 17.8137 18.2801C17.8137 16.9912 16.7565 15.9375 15.4676 15.9375ZM15.4676 16.8752C16.2498 16.8752 16.8759 17.4979 16.8759 18.2801C16.8759 19.0623 16.2498 19.6884 15.4676 19.6884C14.6854 19.6884 14.0627 19.0623 14.0627 18.2801C14.0627 17.4979 14.6854 16.8752 15.4676 16.8752Z" fill="#00001B"/>
<path d="M15.4662 21.0938C13.4523 21.0938 11.7908 22.6971 11.7188 24.7097L12.6565 24.7443C12.7109 23.2262 13.9471 22.0315 15.4662 22.0315C16.9862 22.0315 18.2263 23.2252 18.2794 24.7443L19.2137 24.7132C19.1432 22.6993 17.4813 21.0938 15.4662 21.0938Z" fill="#00001B"/>
</svg>
