<svg width="30" height="30" viewBox="0 0 30 30" fill="none" xmlns="http://www.w3.org/2000/svg">
<path d="M23.8337 21.2205C24.1167 21.3903 24.3998 21.3903 24.6828 21.2205C24.796 21.1073 24.9658 20.9941 25.079 20.7677C24.9658 20.5413 24.796 20.4281 24.6828 20.3149C24.3998 20.145 24.1167 20.145 23.8337 20.3149C23.7205 20.4281 23.5507 20.5413 23.4375 20.7677C23.6073 20.9941 23.7205 21.1639 23.8337 21.2205Z" fill="#00001B"/>
<path d="M20.8867 20.7677C20.9999 20.9941 21.1697 21.1073 21.2829 21.2205C21.566 21.3903 21.849 21.3903 22.132 21.2205C22.2452 21.1073 22.415 20.9941 22.5282 20.7677C22.415 20.5413 22.2452 20.4281 22.132 20.3149C21.849 20.145 21.566 20.145 21.2829 20.3149C21.1697 20.4281 20.9999 20.5413 20.8867 20.7677Z" fill="#00001B"/>
<path d="M19.5851 20.3149C19.3021 20.145 19.0191 20.145 18.7361 20.3149C18.6229 20.4281 18.4531 20.5413 18.3398 20.7677C18.4531 20.9941 18.6229 21.1073 18.7361 21.2205C19.0191 21.3903 19.3021 21.3903 19.5851 21.2205C19.6983 21.1073 19.8681 20.9941 19.9814 20.7677C19.8681 20.5413 19.6983 20.4281 19.5851 20.3149Z" fill="#00001B"/>
<path d="M27.9064 10.5837L27.8498 8.60259C27.8498 8.31958 27.7932 7.01769 27.7932 7.1309C27.7932 6.96108 27.7932 6.79127 27.7366 6.62146C27.5668 5.94222 27.0573 5.37618 26.4347 5.09316C26.0951 4.97995 25.7554 4.92335 25.4158 4.92335H24.7932C24.7932 4.81014 24.7366 4.64033 24.5668 4.64033L19.812 2.82901C18.2271 2.26297 16.6422 1.69693 15.0007 1.1875C16.529 1.86675 18.1139 2.54599 19.6422 3.22524L23.5479 4.86675C23.3215 4.97995 23.0385 5.03656 22.812 5.14976C21.5102 5.03656 20.2083 4.92335 18.9064 4.86675C17.9441 4.81014 16.9819 4.81014 15.963 4.86675C15.963 4.86675 15.963 4.86675 15.963 4.81014V4.86675C15.6234 4.86675 15.3403 4.86674 15.0007 4.92335C15.2837 4.97995 15.5102 5.03656 15.7932 5.09316C15.68 5.14976 15.6234 5.20637 15.5102 5.20637C15.3403 5.26297 15.1139 5.26297 14.9441 5.20637C14.7743 5.14976 14.6045 5.09316 14.4347 5.03656C14.3215 4.92335 14.2649 4.86675 14.2649 4.81014C14.2649 4.75354 14.3215 4.69693 14.4347 4.58373C14.5479 4.52712 14.7177 4.47052 14.9441 4.41392C15.1139 4.41392 15.3403 4.35731 15.5102 4.41392C15.68 4.47052 15.9064 4.58373 16.0196 4.81014C16.1328 4.58373 15.963 4.2441 15.7366 4.07429C15.5102 3.90448 15.2271 3.79127 14.9441 3.73467C14.6611 3.67807 14.3215 3.73467 14.0385 3.90448C13.7554 4.01769 13.4158 4.35731 13.4158 4.81014C13.4158 5.26297 13.7554 5.60259 14.0385 5.7158C14.3215 5.88561 14.6611 5.88561 14.9441 5.88561C15.2271 5.82901 15.5102 5.77241 15.7366 5.54599C15.8498 5.43278 15.963 5.26297 15.963 5.09316C16.9252 5.26297 17.8875 5.43278 18.8498 5.54599C19.5856 5.6592 20.3215 5.7158 21.0007 5.77241C20.5479 5.94222 20.0385 6.11203 19.5856 6.33844L15.0007 8.09316L10.4158 6.33844C9.11393 5.82901 7.75544 5.31958 6.45355 4.86675L10.3592 3.22524C11.8875 2.54599 13.4724 1.86675 15.0007 1.1875C13.3592 1.75354 11.7743 2.31958 10.1894 2.82901L5.43468 4.58373C5.32147 4.64033 5.20827 4.75354 5.20827 4.86675H4.58563C4.246 4.86675 3.90638 4.86674 3.56676 5.03656C2.94412 5.31958 2.43468 5.88561 2.26487 6.56486C2.20827 6.73467 2.20827 6.90448 2.20827 7.07429C2.20827 7.1875 2.15166 8.6592 2.15166 8.54599L2.09506 10.5271C1.92525 16.3573 1.92525 17.829 1.86864 20.4894C1.81204 21.2818 2.20827 22.1309 2.83091 22.6403C3.17053 22.8667 3.51015 23.0932 3.90638 23.1498C4.1894 23.1498 4.41581 23.2064 4.58563 23.2064C4.64223 23.2064 7.246 23.2064 7.07619 23.2064H11.7743C11.8309 23.6026 11.8309 23.9988 11.7177 24.395C11.6045 24.7913 11.4347 25.1309 11.2083 25.4705H10.3026C9.90638 25.4705 9.51015 25.4705 9.05732 25.5271C8.60449 25.5837 8.15166 25.7535 7.75544 26.0366C6.96298 26.546 6.39695 27.3384 6.22713 28.2441C6.17053 28.5271 6.39695 28.7535 6.62336 28.7535C9.45355 28.6403 12.2271 28.5271 15.0573 28.3007C12.4535 28.0743 9.84978 27.9611 7.246 27.9045C7.64223 27.1686 8.32148 26.6592 9.17053 26.546C9.45355 26.4894 9.90638 26.546 10.3026 26.546L15.0573 26.6026L19.812 26.546C20.2083 26.546 20.6045 26.4894 20.9441 26.546C21.7932 26.6592 22.4724 27.1686 22.8686 27.9045C20.5479 27.9611 17.3781 28.1309 15.0573 28.3007C17.4913 28.5271 21.2837 28.6403 23.4913 28.6969C23.7743 28.6969 23.9441 28.4705 23.8875 28.1875C23.7177 27.2818 23.1517 26.4894 22.3592 25.98C21.963 25.7535 21.5102 25.5837 21.0573 25.4705C20.5479 25.4139 20.2083 25.4139 19.812 25.4139H18.9064C18.68 25.0743 18.5102 24.6781 18.3969 24.3384C18.2837 23.9422 18.2837 23.4894 18.3403 23.1498H23.0385C23.0951 23.1498 25.5856 23.1498 25.529 23.1498C25.6988 23.1498 25.9252 23.1498 26.1517 23.0932C26.5479 22.98 26.9441 22.8101 27.2271 22.5837C27.8498 22.0743 28.246 21.2252 28.1894 20.4894L28.1328 18.5083C28.0196 15.8479 27.963 13.1875 27.9064 10.5837ZM14.8309 8.99882C14.9441 9.05542 15.0573 9.05542 15.1139 8.99882C19.4158 7.30071 19.0762 7.41391 20.6611 6.79127L20.6045 9.16863V9.96108C20.3781 10.1875 20.0951 10.3007 19.8686 10.4139C19.3592 10.6403 18.8498 10.6969 18.2837 10.8101C17.2083 10.98 16.1328 11.0366 15.0007 11.0366C13.9252 11.0366 12.7932 10.98 11.7177 10.8101C11.2083 10.6969 10.6422 10.6403 10.1328 10.4139C9.84978 10.3007 9.56676 10.1875 9.39695 9.96108V9.16863L9.34034 6.79127C10.9252 7.41391 10.3026 7.1875 14.8309 8.99882ZM20.6045 10.3007V10.6403C20.6045 10.6969 20.6045 11.263 20.6045 11.2064V11.3196C20.6045 11.4894 20.4913 11.6026 20.3215 11.7158C20.0385 11.9988 19.6422 12.1686 19.1894 12.3384C18.7366 12.5083 18.2837 12.6215 17.8309 12.6781C16.9252 12.8479 15.963 12.9045 15.0007 12.9045C14.0385 12.9045 13.0762 12.8479 12.1705 12.6781C11.7177 12.6215 11.2649 12.5083 10.812 12.3384C10.3592 12.1686 9.96298 11.9988 9.67997 11.7158C9.51015 11.6026 9.45355 11.4328 9.39695 11.3196V11.2064C9.39695 11.1498 9.39695 10.5837 9.39695 10.6403V10.3007C9.56676 10.4705 9.73657 10.6403 9.96298 10.7535C10.4724 11.0932 11.0385 11.263 11.6045 11.4328C12.7366 11.7724 13.8686 11.829 15.0007 11.8856C16.1328 11.8856 17.3215 11.7724 18.3969 11.4328C18.963 11.263 19.529 11.0932 20.0385 10.7535C20.2649 10.6403 20.4347 10.4705 20.6045 10.3007ZM18.4535 25.5271H15.0007H11.5479C12.2271 24.9045 12.5668 24.112 12.5668 23.2064H15.0007H17.3781C17.4347 24.112 17.7743 24.9045 18.4535 25.5271ZM27.1705 20.4894C27.1705 21.2818 26.6045 22.0177 25.812 22.1309C25.6988 22.1309 25.5856 22.1875 25.4158 22.1309C25.3592 22.1309 22.7554 22.1309 22.9252 22.1309C22.8686 22.1309 14.8875 22.0743 15.0007 22.0743C14.9441 22.0743 7.1328 22.1309 7.07619 22.1309C7.01959 22.1309 4.52902 22.1309 4.58563 22.1309C4.41581 22.1309 4.30261 22.1309 4.1894 22.0743C3.39695 21.9611 2.83091 21.2818 2.83091 20.4894V18.9611C4.81204 19.1875 6.73657 19.3007 8.7177 19.3573C10.812 19.4705 12.9064 19.4705 15.0573 19.4705C17.1517 19.4705 19.246 19.4139 21.3969 19.3573C23.3781 19.3007 25.3026 19.1875 27.2837 18.9611L27.1705 20.4894ZM27.4536 7.58373C27.4536 7.69693 27.3403 10.7535 27.3403 10.5837C27.2271 16.0177 27.1705 18.0554 27.1705 18.9045C25.1894 18.6781 23.2649 18.5649 21.2837 18.5083C19.1894 18.395 17.0951 18.395 14.9441 18.395C12.8498 18.395 10.7554 18.4517 8.60449 18.5083C6.62336 18.5649 4.69883 18.6781 2.7177 18.9045C2.7177 18.1686 2.6611 16.1309 2.54789 10.5837C2.54789 10.4705 2.43468 7.41391 2.43468 7.58373C2.43468 7.2441 2.37808 6.90448 2.43468 6.62146C2.54789 5.99882 2.94412 5.48939 3.51015 5.20637C3.96298 4.97995 4.52902 4.97995 5.03846 4.97995C5.03846 5.09316 5.09506 5.20637 5.20827 5.26297C5.54789 5.43278 5.7743 5.48939 8.60449 6.62146L8.54789 9.22523V10.6969C8.54789 10.7535 8.54789 11.3196 8.54789 11.263V11.4894C8.60449 11.829 8.7743 12.112 9.00072 12.3384C9.45355 12.7347 9.90638 12.9611 10.4158 13.1309C10.9252 13.3007 11.3781 13.4139 11.8875 13.5271C12.8498 13.6969 13.8686 13.7535 14.8875 13.8101C15.9064 13.8101 16.8686 13.7535 17.8875 13.5271C18.3969 13.4139 18.8498 13.3007 19.3592 13.1309C19.8686 12.9611 20.3215 12.7347 20.7743 12.3384C21.0007 12.112 21.1705 11.829 21.2271 11.4894C21.2271 11.4328 21.2271 11.3196 21.2271 11.263C21.2271 11.2064 21.2271 10.6403 21.2271 10.6969V9.22523L21.1705 6.62146C21.5668 6.45165 21.9064 6.33844 22.3026 6.16863C22.3026 6.96108 22.3592 7.69693 22.4158 8.48939C22.4724 9.45165 22.5856 10.4139 22.6988 11.3762C22.9819 9.73467 23.0951 7.52712 23.0951 5.82901C23.5479 5.6592 24.0573 5.43278 24.5102 5.26297C24.5668 5.20637 24.68 5.14976 24.68 5.09316V5.03656C25.246 5.03656 25.7554 5.03656 26.2083 5.26297C26.7743 5.54599 27.1705 6.11203 27.2837 6.67807C27.5102 6.90448 27.4536 7.2441 27.4536 7.58373Z" fill="#00001B"/>
</svg>
