<svg width="30" height="30" viewBox="0 0 30 30" fill="none" xmlns="http://www.w3.org/2000/svg">
<path d="M4.75651 23.1688C4.67946 23.0979 4.67448 22.9779 4.74549 22.9008C5.01889 22.6038 5.32721 22.3334 5.66196 22.0972C5.74756 22.0368 5.86598 22.0573 5.92639 22.1429C5.9868 22.2285 5.96635 22.3469 5.88075 22.4073C5.56791 22.628 5.27987 22.8804 5.02457 23.1578C4.95356 23.235 4.8335 23.2397 4.75651 23.1688Z" fill="#00001B"/>
<path d="M6.4552 21.8318C6.40276 21.7411 6.43376 21.625 6.5244 21.5726C6.68067 21.4822 6.8353 21.3964 6.98999 21.3122C7.08209 21.2621 7.19735 21.2962 7.24733 21.388C7.29743 21.48 7.2635 21.5953 7.17151 21.6453C7.01958 21.7281 6.8677 21.8123 6.71436 21.901C6.62313 21.9537 6.50735 21.922 6.4552 21.8318Z" fill="#00001B"/>
<path d="M26.6049 22.2244C26.5464 22.1374 26.4283 22.1144 26.3416 22.1731C26.2546 22.2316 26.2317 22.3495 26.2902 22.4364C26.3953 22.5925 26.4827 22.7323 26.5572 22.864C26.6088 22.9552 26.7245 22.9873 26.8158 22.9357C26.9069 22.8841 26.939 22.7684 26.8874 22.6771C26.808 22.5368 26.7156 22.3887 26.6049 22.2244Z" fill="#00001B"/>
<path d="M27.688 26.5331C27.7934 26.5331 27.8784 26.4472 27.877 26.3418C27.8729 26.0234 27.8644 25.4226 27.8617 25.4065C27.7592 24.7833 27.5813 24.1703 27.3332 23.5846C27.2923 23.488 27.1808 23.4429 27.0845 23.4839C26.9881 23.5247 26.9429 23.6361 26.9838 23.7326C27.2184 24.2863 27.387 24.8654 27.485 25.4543C27.4761 25.4426 27.4896 26.0356 27.4989 26.3503C27.502 26.4524 27.5857 26.5331 27.688 26.5331Z" fill="#00001B"/>
<path d="M26.6651 25.5994C26.3418 23.637 25.1701 21.9083 23.4475 20.8566C21.18 19.4755 18.7806 18.5451 18.2281 18.3372V16.8893C19.4393 15.8026 20.2087 14.2075 20.2467 12.4242C21.0799 12.4333 21.7613 11.7549 21.7613 10.9202C21.7613 10.3389 21.4305 9.83655 20.9478 9.58612C20.9918 9.29778 21.0465 9.017 21.0996 8.74231C21.3303 7.57366 21.5686 6.36557 20.8188 4.80844C20.6185 4.27266 20.2845 4.00254 19.7989 3.98127C19.717 3.97676 19.6487 3.90235 19.6274 3.79612C19.3042 2.16305 18.2311 0.976234 16.4357 0.265961C16.4296 0.264437 16.4236 0.26139 16.416 0.259926C14.9332 -0.139215 13.4716 0.144555 11.8219 1.15084C11.1374 1.54694 10.0902 1.79889 8.62556 1.92182C8.48593 1.95217 7.98508 1.8262 7.64511 2.35131C7.44478 2.6594 7.40834 3.0692 7.54949 3.41825C7.72099 3.84627 7.92285 4.27424 8.19754 4.69008C8.16109 4.82666 7.52218 6.17133 7.59349 8.2476L7.64511 9.71215C7.2748 9.98537 7.03345 10.4239 7.03345 10.9202C7.03345 11.7534 7.71033 12.4318 8.54359 12.4243C8.56638 12.5336 8.40701 15.0271 10.5637 16.9167V18.3372C10.0142 18.5436 7.61324 19.474 5.34431 20.8566C3.62324 21.9083 2.45007 23.637 2.12828 25.5994C2.12218 25.6267 2.12675 25.437 2.12523 28.7987C2.12523 29.4119 2.62304 29.9097 3.23465 29.9097H25.557C26.1687 29.9097 26.6664 29.4119 26.6664 28.7987C26.6666 25.4097 26.6696 25.6267 26.6651 25.5994ZM20.2497 9.89426C20.3681 9.92766 20.6944 9.99293 20.8067 9.94283C21.1482 10.1356 21.382 10.4998 21.382 10.9202C21.382 11.544 20.8735 12.054 20.2497 12.0449V9.89426ZM8.54371 12.0448C7.91084 12.0509 7.41302 11.5379 7.41302 10.9202C7.41302 10.5089 7.63463 10.1522 7.96246 9.9549C8.16431 9.94278 8.36007 9.8942 8.54377 9.81375L8.54371 12.0448ZM8.92316 12.4515V9.59069C9.30713 9.29778 9.59095 8.85159 9.69261 8.32494L10.0599 6.40354C10.4454 6.62514 10.887 6.82998 11.4016 7.01215C13.7388 7.815 16.2172 7.84383 18.77 7.09559C18.7958 7.08803 18.8216 7.13655 18.8246 7.17452L18.946 8.35073C19.0083 8.95782 19.368 9.46623 19.8703 9.7394V12.2891C19.8703 15.3412 17.5816 17.8363 14.6615 17.9714C11.5291 18.1217 8.92316 15.613 8.92316 12.4515ZM12.3425 22.2225C12.1892 22.3454 11.9616 22.2711 11.9115 22.0814L11.0631 18.8942L14.0727 20.8308L12.3425 22.2225ZM14.7208 20.8308L17.7289 18.8927L16.8805 22.0814C16.8304 22.2711 16.6028 22.3454 16.4495 22.2225L14.7208 20.8308ZM14.396 20.588L10.9432 18.3645V17.2217C11.9859 17.9942 13.279 18.4177 14.6783 18.3509C15.8651 18.2963 16.9548 17.8774 17.8488 17.2004V18.3645L14.396 20.588ZM3.23482 29.5303C2.83263 29.5303 2.5048 29.2024 2.5048 28.7987V25.6449C2.81289 23.7979 3.91931 22.1709 5.54172 21.1798C7.70295 19.8625 9.98101 18.964 10.6245 18.7197L11.5442 22.1785C11.6656 22.6323 12.2136 22.8144 12.5808 22.5185L12.81 22.3333L13.2364 23.0497C13.288 23.1346 13.3108 23.2394 13.2986 23.3411L12.6278 29.5303H3.23482ZM26.2872 28.7987C26.2872 29.2024 25.9594 29.5303 25.5572 29.5303H16.1641L15.4933 23.3411C15.4827 23.2394 15.5039 23.1346 15.5555 23.0481L15.9835 22.3333L16.2126 22.5185C16.5754 22.8114 17.1263 22.6368 17.2477 22.1785L18.1674 18.7197C18.814 18.964 21.0905 19.864 23.2502 21.1798C24.8726 22.1709 25.979 23.7979 26.2871 25.6449V28.7987H26.2872Z" fill="#00001B"/>
<path d="M6.49163 4.04523C6.45068 3.94808 6.4962 3.83728 6.59183 3.79632C6.68898 3.75536 6.79978 3.80089 6.84073 3.89652C6.96823 4.19857 7.09421 4.46112 7.2247 4.69784C7.27632 4.7889 7.24292 4.90427 7.15034 4.95437C7.06081 5.00599 6.94392 4.97259 6.89388 4.88001C6.75571 4.63257 6.62523 4.35941 6.49163 4.04523Z" fill="#00001B"/>
<path d="M6.43332 2.89749C6.54142 2.90927 6.63201 2.83216 6.64384 2.73114C6.73449 1.95794 7.28984 1.25786 8.08906 1.11876C8.1923 1.10083 8.26138 1.00257 8.24339 0.899325C8.22552 0.796142 8.12796 0.727177 8.02396 0.744989C7.05962 0.912743 6.37748 1.74518 6.26691 2.68702C6.25484 2.79097 6.32919 2.88524 6.43332 2.89749Z" fill="#00001B"/>
</svg>
