<svg width="53" height="53" viewBox="0 0 53 53" fill="none" xmlns="http://www.w3.org/2000/svg">
<g filter="url(#filter0_d_34_14963)">
<path d="M18.125 7.49769C16.217 7.49591 14.344 8.01029 12.7045 8.98634C12.5627 9.07157 12.4605 9.20954 12.4203 9.37001C12.3801 9.53047 12.4051 9.70033 12.49 9.84236C12.5748 9.98438 12.7125 10.087 12.8728 10.1276C13.0332 10.1683 13.2031 10.1438 13.3454 10.0593C14.6106 9.31395 16.0343 8.87882 17.5 8.78957V11.8727C17.5 11.9548 17.5161 12.0361 17.5475 12.1119C17.5789 12.1878 17.6249 12.2567 17.683 12.3147C17.741 12.3728 17.8099 12.4188 17.8858 12.4502C17.9616 12.4816 18.0429 12.4977 18.125 12.4977H19.375C19.5408 12.4977 19.6998 12.5635 19.817 12.6807C19.9342 12.798 20 12.9569 20 13.1227C20 13.2884 19.9342 13.4474 19.817 13.5646C19.6998 13.6818 19.5408 13.7477 19.375 13.7477H18.125C18.0429 13.7476 17.9616 13.7638 17.8858 13.7952C17.8099 13.8266 17.741 13.8726 17.683 13.9306C17.6249 13.9887 17.5789 14.0576 17.5475 14.1335C17.5161 14.2093 17.5 14.2906 17.5 14.3727V17.4977H15V16.8727C15 16.3754 14.8025 15.8985 14.4509 15.5469C14.0992 15.1952 13.6223 14.9977 13.125 14.9977C12.6277 14.9977 12.1508 15.1952 11.7992 15.5469C11.4476 15.8985 11.25 16.3754 11.25 16.8727V17.4983L8.79184 17.4997C8.88077 16.0333 9.31594 14.6088 10.0617 13.343C10.1461 13.2008 10.1707 13.0308 10.13 12.8705C10.0893 12.7101 9.98673 12.5724 9.8447 12.4876C9.70268 12.4028 9.53282 12.3777 9.37235 12.418C9.21189 12.4582 9.07391 12.5604 8.98868 12.7021C7.57099 15.0879 7.14464 17.9342 7.80106 20.6306C8.45747 23.327 10.1444 25.6588 12.5 27.126V28.1227C12.5 28.2048 12.5161 28.2861 12.5475 28.3619C12.5789 28.4378 12.6249 28.5067 12.683 28.5647C12.741 28.6228 12.8099 28.6688 12.8858 28.7002C12.9616 28.7316 13.0429 28.7477 13.125 28.7477H13.75V30.0002H13.125C12.9593 30.0002 12.8003 30.066 12.6831 30.1832C12.5659 30.3005 12.5 30.4594 12.5 30.6252C12.5 30.7909 12.5659 30.9499 12.6831 31.0671C12.8003 31.1843 12.9593 31.2502 13.125 31.2502H13.75V33.1252C13.75 33.2073 13.7661 33.2886 13.7975 33.3644C13.8289 33.4403 13.8749 33.5092 13.933 33.5672C13.991 33.6253 14.0599 33.6713 14.1358 33.7027C14.2116 33.7341 14.2929 33.7502 14.375 33.7502H15.0633C15.2073 34.4559 15.5907 35.0902 16.1487 35.5458C16.7066 36.0014 17.4047 36.2502 18.125 36.2502C18.8453 36.2502 19.5435 36.0014 20.1014 35.5458C20.6593 35.0902 21.0427 34.4559 21.1868 33.7502H21.875C21.9571 33.7502 22.0384 33.7341 22.1143 33.7027C22.1901 33.6713 22.259 33.6253 22.3171 33.5672C22.3751 33.5092 22.4212 33.4403 22.4526 33.3644C22.4839 33.2886 22.5001 33.2073 22.5 33.1252V31.2502H23.125C23.2908 31.2502 23.4498 31.1843 23.567 31.0671C23.6842 30.9499 23.75 30.7909 23.75 30.6252C23.75 30.4594 23.6842 30.3005 23.567 30.1832C23.4498 30.066 23.2908 30.0002 23.125 30.0002H22.5V28.7477H23.125C23.2071 28.7477 23.2884 28.7316 23.3643 28.7002C23.4401 28.6688 23.509 28.6228 23.5671 28.5647C23.6251 28.5067 23.6712 28.4378 23.7026 28.3619C23.7339 28.2861 23.7501 28.2048 23.75 28.1227V27.126C25.7078 25.9052 27.2147 24.0801 28.0427 21.9266C28.8707 19.7731 28.9747 17.4086 28.3392 15.1907C27.7036 12.9728 26.3629 11.0223 24.52 9.63427C22.6771 8.24623 20.4322 7.49621 18.125 7.49769ZM18.125 35.0002C17.7374 34.9997 17.3593 34.8793 17.0428 34.6555C16.7262 34.4317 16.4866 34.1155 16.3568 33.7502H19.8932C19.7635 34.1155 19.5239 34.4317 19.2073 34.6555C18.8907 34.8793 18.5127 34.9997 18.125 35.0002ZM21.25 32.5002H15V31.2502H21.25V32.5002ZM15 30.0002V28.7502H21.25V30.0002H15ZM18.75 14.9977H19.375C19.8723 14.9977 20.3492 14.8001 20.7009 14.4485C21.0525 14.0969 21.25 13.62 21.25 13.1227C21.25 12.6254 21.0525 12.1485 20.7009 11.7969C20.3492 11.4452 19.8723 11.2477 19.375 11.2477H18.75V8.77935C21.0121 8.93267 23.142 9.9007 24.745 11.5041C26.3481 13.1075 27.3156 15.2375 27.4684 17.4997L24.3756 17.4977C24.2099 17.4977 24.0503 17.5636 23.9331 17.6808C23.8159 17.798 23.7501 17.9569 23.75 18.1227V19.3727C23.75 19.5384 23.6842 19.6974 23.567 19.8146C23.4498 19.9318 23.2908 19.9977 23.125 19.9977C22.9593 19.9977 22.8003 19.9318 22.6831 19.8146C22.5659 19.6974 22.5 19.5384 22.5 19.3727V18.1227C22.5001 18.0406 22.4839 17.9593 22.4526 17.8835C22.4212 17.8076 22.3751 17.7387 22.3171 17.6806C22.259 17.6226 22.1901 17.5766 22.1143 17.5452C22.0384 17.5138 21.9571 17.4976 21.875 17.4977H18.75V14.9977ZM8.79207 18.7497L11.8756 18.7477C12.0413 18.7476 12.2001 18.6816 12.3172 18.5644C12.4343 18.4472 12.5001 18.2883 12.5 18.1227V16.8727C12.5 16.7069 12.5659 16.548 12.6831 16.4307C12.8003 16.3135 12.9593 16.2477 13.125 16.2477C13.2908 16.2477 13.4498 16.3135 13.567 16.4307C13.6842 16.548 13.75 16.7069 13.75 16.8727V18.1227C13.75 18.2048 13.7661 18.2861 13.7975 18.3619C13.8289 18.4378 13.8749 18.5067 13.933 18.5647C13.991 18.6228 14.0599 18.6688 14.1358 18.7002C14.2116 18.7316 14.2929 18.7477 14.375 18.7477H17.5V21.2477H16.875C16.3778 21.2477 15.9008 21.4452 15.5492 21.7969C15.1976 22.1485 15 22.6254 15 23.1227C15 23.62 15.1976 24.0969 15.5492 24.4485C15.9008 24.8001 16.3778 24.9977 16.875 24.9977H17.5V27.4977H13.75V26.7726C13.7501 26.6629 13.7212 26.555 13.6663 26.46C13.6115 26.365 13.5326 26.2861 13.4375 26.2312C12.1101 25.4596 10.9923 24.3739 10.1823 23.0694C9.37237 21.765 8.89498 20.2817 8.79207 18.7497ZM22.8125 26.2312C22.7175 26.2861 22.6386 26.365 22.5837 26.46C22.5289 26.555 22.5 26.6629 22.5 26.7726V27.4977H18.75V24.3727C18.7501 24.2906 18.7339 24.2093 18.7026 24.1335C18.6712 24.0576 18.6251 23.9887 18.5671 23.9306C18.509 23.8726 18.4401 23.8266 18.3643 23.7952C18.2884 23.7638 18.2071 23.7476 18.125 23.7477H16.875C16.7093 23.7477 16.5503 23.6818 16.4331 23.5646C16.3159 23.4474 16.25 23.2884 16.25 23.1227C16.25 22.9569 16.3159 22.798 16.4331 22.6807C16.5503 22.5635 16.7093 22.4977 16.875 22.4977H18.125C18.2071 22.4977 18.2884 22.4816 18.3643 22.4502C18.4401 22.4188 18.509 22.3728 18.5671 22.3147C18.6251 22.2567 18.6712 22.1878 18.7026 22.1119C18.7339 22.0361 18.7501 21.9548 18.75 21.8727V18.7477H21.25V19.3727C21.25 19.87 21.4476 20.3469 21.7992 20.6985C22.1508 21.0501 22.6278 21.2477 23.125 21.2477C23.6223 21.2477 24.0992 21.0501 24.4509 20.6985C24.8025 20.3469 25 19.87 25 19.3727V18.7483L27.458 18.7497C27.3551 20.2817 26.8777 21.765 26.0677 23.0695C25.2577 24.3739 24.14 25.4596 22.8125 26.2312Z" fill="#00001B"/>
<path d="M5 18.1227C5.00005 18.0406 4.98391 17.9593 4.95252 17.8834C4.92113 17.8076 4.87509 17.7387 4.81705 17.6806C4.759 17.6226 4.69008 17.5766 4.61423 17.5452C4.53838 17.5138 4.45709 17.4976 4.375 17.4977H0.625C0.45924 17.4977 0.300268 17.5635 0.183058 17.6807C0.065848 17.7979 0 17.9569 0 18.1227C0 18.2884 0.065848 18.4474 0.183058 18.5646C0.300268 18.6818 0.45924 18.7477 0.625 18.7477H4.375C4.45709 18.7477 4.53838 18.7316 4.61423 18.7002C4.69008 18.6688 4.759 18.6228 4.81705 18.5647C4.87509 18.5067 4.92113 18.4378 4.95252 18.3619C4.98391 18.2861 5.00005 18.2048 5 18.1227Z" fill="#00001B"/>
<path d="M6.52903 10.7064L3.28136 8.8314C3.21026 8.79036 3.13178 8.76373 3.05039 8.75302C2.969 8.74231 2.8863 8.74774 2.80701 8.769C2.72772 8.79025 2.65339 8.82691 2.58827 8.87689C2.52315 8.92687 2.46851 8.98919 2.42747 9.06029C2.38643 9.13138 2.3598 9.20987 2.34909 9.29125C2.33838 9.37264 2.34381 9.45534 2.36507 9.53463C2.38632 9.61392 2.42298 9.68825 2.47296 9.75337C2.52294 9.8185 2.58526 9.87314 2.65636 9.91417L5.90403 11.7892C6.04762 11.8721 6.21824 11.8945 6.37838 11.8516C6.53851 11.8087 6.67504 11.7039 6.75792 11.5603C6.8408 11.4167 6.86324 11.2461 6.82032 11.0859C6.7774 10.9258 6.67262 10.7893 6.52903 10.7064Z" fill="#00001B"/>
<path d="M10.7087 6.52671C10.7498 6.59781 10.8044 6.66012 10.8695 6.7101C10.9346 6.76008 11.009 6.79675 11.0883 6.818C11.1675 6.83925 11.2502 6.84468 11.3316 6.83398C11.413 6.82327 11.4915 6.79664 11.5626 6.7556C11.6337 6.71456 11.696 6.65992 11.746 6.5948C11.796 6.52968 11.8326 6.45535 11.8539 6.37606C11.8751 6.29677 11.8806 6.21407 11.8699 6.13268C11.8592 6.05129 11.8325 5.97281 11.7915 5.90171L9.91649 2.65404C9.87546 2.58294 9.82082 2.52062 9.75569 2.47064C9.69057 2.42066 9.61624 2.384 9.53695 2.36275C9.45766 2.34149 9.37496 2.33606 9.29357 2.34677C9.21218 2.35748 9.1337 2.38411 9.06261 2.42515C8.99151 2.46619 8.92919 2.52083 8.87921 2.58595C8.82923 2.65107 8.79257 2.7254 8.77132 2.80469C8.75006 2.88398 8.74463 2.96668 8.75534 3.04807C8.76605 3.12946 8.79268 3.20794 8.83372 3.27904L10.7087 6.52671Z" fill="#00001B"/>
<path d="M18.125 4.99768C18.2071 4.99773 18.2884 4.9816 18.3642 4.9502C18.4401 4.91881 18.509 4.87278 18.567 4.81473C18.6251 4.75668 18.6711 4.68776 18.7025 4.61191C18.7339 4.53606 18.75 4.45477 18.75 4.37268V0.622681C18.75 0.45692 18.6842 0.297949 18.5669 0.180739C18.4497 0.0635287 18.2908 -0.00231934 18.125 -0.00231934C17.9592 -0.00231934 17.8003 0.0635287 17.6831 0.180739C17.5658 0.297949 17.5 0.45692 17.5 0.622681V4.37268C17.5 4.45477 17.5161 4.53606 17.5475 4.61191C17.5789 4.68776 17.6249 4.75668 17.683 4.81473C17.741 4.87278 17.8099 4.91881 17.8858 4.9502C17.9616 4.9816 18.0429 4.99773 18.125 4.99768Z" fill="#00001B"/>
<path d="M24.6876 6.7556C24.8312 6.8384 25.0018 6.86081 25.162 6.81789C25.3221 6.77497 25.4586 6.67024 25.5415 6.52671L27.4165 3.27904C27.4994 3.13545 27.5219 2.96482 27.4789 2.80469C27.436 2.64455 27.3312 2.50803 27.1876 2.42515C27.0441 2.34227 26.8734 2.31982 26.7133 2.36275C26.5532 2.40567 26.4166 2.51045 26.3338 2.65404L24.4588 5.90171C24.4177 5.97281 24.3911 6.05129 24.3803 6.13268C24.3696 6.21407 24.3751 6.29678 24.3963 6.37607C24.4176 6.45537 24.4542 6.5297 24.5042 6.59482C24.5542 6.65994 24.6165 6.71457 24.6876 6.7556Z" fill="#00001B"/>
<path d="M30.0321 11.8728C30.1416 11.8729 30.2492 11.844 30.344 11.7892L33.5916 9.91418C33.7352 9.83129 33.84 9.69477 33.8829 9.53464C33.9259 9.3745 33.9034 9.20387 33.8205 9.06029C33.7376 8.9167 33.6011 8.81192 33.441 8.769C33.2808 8.72607 33.1102 8.74852 32.9666 8.8314L29.719 10.7064C29.5997 10.7752 29.5065 10.8814 29.4538 11.0086C29.4011 11.1358 29.3919 11.2769 29.4276 11.4098C29.4633 11.5428 29.5419 11.6603 29.6512 11.744C29.7605 11.8277 29.8944 11.873 30.0321 11.8728Z" fill="#00001B"/>
<path d="M35.625 17.4977H31.875C31.7092 17.4977 31.5503 17.5635 31.4331 17.6807C31.3158 17.7979 31.25 17.9569 31.25 18.1227C31.25 18.2884 31.3158 18.4474 31.4331 18.5646C31.5503 18.6818 31.7092 18.7477 31.875 18.7477H35.625C35.7908 18.7477 35.9497 18.6818 36.0669 18.5646C36.1842 18.4474 36.25 18.2884 36.25 18.1227C36.25 17.9569 36.1842 17.7979 36.0669 17.6807C35.9497 17.5635 35.7908 17.4977 35.625 17.4977Z" fill="#00001B"/>
<path d="M33.5915 26.3314L30.3439 24.4564C30.2728 24.4154 30.1943 24.3887 30.1129 24.378C30.0315 24.3673 29.9488 24.3727 29.8695 24.394C29.7094 24.4369 29.5728 24.5417 29.49 24.6853C29.4071 24.8289 29.3846 24.9995 29.4276 25.1596C29.4705 25.3198 29.5753 25.4563 29.7189 25.5392L32.9665 27.4142C33.1101 27.4971 33.2807 27.5195 33.4409 27.4766C33.601 27.4337 33.7375 27.3289 33.8204 27.1853C33.9033 27.0417 33.9257 26.8711 33.8828 26.7109C33.8399 26.5508 33.7351 26.4143 33.5915 26.3314Z" fill="#00001B"/>
<path d="M5.90403 24.4564L2.65636 26.3314C2.51277 26.4143 2.40799 26.5508 2.36507 26.7109C2.32214 26.8711 2.34459 27.0417 2.42747 27.1853C2.51035 27.3289 2.64687 27.4337 2.80701 27.4766C2.96714 27.5195 3.13777 27.4971 3.28136 27.4142L6.52903 25.5392C6.60013 25.4981 6.66244 25.4435 6.71242 25.3784C6.7624 25.3133 6.79907 25.2389 6.82032 25.1596C6.84158 25.0803 6.847 24.9976 6.8363 24.9163C6.82559 24.8349 6.79896 24.7564 6.75792 24.6853C6.71688 24.6142 6.66224 24.5519 6.59712 24.5019C6.532 24.4519 6.45767 24.4152 6.37838 24.394C6.29909 24.3727 6.21639 24.3673 6.135 24.378C6.05361 24.3887 5.97513 24.4154 5.90403 24.4564Z" fill="#00001B"/>
<path d="M10.6127 10.6105C10.5253 10.6979 10.4658 10.8092 10.4417 10.9305C10.4176 11.0517 10.43 11.1774 10.4773 11.2916C10.5246 11.4058 10.6047 11.5034 10.7075 11.572C10.8102 11.6407 10.9311 11.6774 11.0547 11.6774C11.1783 11.6774 11.2991 11.6407 11.4019 11.572C11.5047 11.5034 11.5848 11.4058 11.6321 11.2916C11.6794 11.1774 11.6918 11.0517 11.6677 10.9305C11.6436 10.8092 11.5841 10.6979 11.4967 10.6105C11.4386 10.5524 11.3697 10.5064 11.2939 10.475C11.2181 10.4435 11.1368 10.4274 11.0547 10.4274C10.9726 10.4274 10.8913 10.4435 10.8155 10.475C10.7397 10.5064 10.6708 10.5524 10.6127 10.6105Z" fill="#00001B"/>
</g>
<defs>
<filter id="filter0_d_34_14963" x="0" y="-0.00231934" width="52.25" height="52.2526" filterUnits="userSpaceOnUse" color-interpolation-filters="sRGB">
<feFlood flood-opacity="0" result="BackgroundImageFix"/>
<feColorMatrix in="SourceAlpha" type="matrix" values="0 0 0 0 0 0 0 0 0 0 0 0 0 0 0 0 0 0 127 0" result="hardAlpha"/>
<feOffset dx="16" dy="16"/>
<feComposite in2="hardAlpha" operator="out"/>
<feColorMatrix type="matrix" values="0 0 0 0 0 0 0 0 0 0 0 0 0 0 0 0 0 0 0.25 0"/>
<feBlend mode="normal" in2="BackgroundImageFix" result="effect1_dropShadow_34_14963"/>
<feBlend mode="normal" in="SourceGraphic" in2="effect1_dropShadow_34_14963" result="shape"/>
</filter>
</defs>
</svg>
