<svg width="112" height="52" viewBox="0 0 112 52" fill="none" xmlns="http://www.w3.org/2000/svg">
<g opacity="0.8" filter="url(#filter0_d_34_14975)">
<path d="M1.03645 38.7C1.03645 38.7 14.5862 48.1119 20.1753 43.5568C24.338 40.1642 24.5913 28.6109 24.5913 28.6109C24.5913 28.6109 32.3808 38.4921 36.6988 36.4794C40.9289 34.5077 39.0054 22.437 39.0054 22.437C39.0054 22.437 44.4435 31.7819 48.652 31.3596C53.687 30.8544 52.0133 16.8655 52.0133 16.8655C52.0133 16.8655 56.5523 26.3771 60.6052 26.2398C65.5008 26.074 63.2634 12.0468 63.2634 12.0468C63.2634 12.0468 67.1515 21.4003 71.1521 21.7223C76.2338 22.1314 74.1619 7.37878 74.1619 7.37878C74.1619 7.37878 79.2325 16.3883 83.4569 16.4519C88.9332 16.5345 83.5014 4.55674 87.8729 1.50606C93.2182 -2.22428 105.254 7.11582 105.254 7.11582" stroke="#6440FB"/>
</g>
<defs>
<filter id="filter0_d_34_14975" x="0.751953" y="0.126465" width="110.809" height="51.175" filterUnits="userSpaceOnUse" color-interpolation-filters="sRGB">
<feFlood flood-opacity="0" result="BackgroundImageFix"/>
<feColorMatrix in="SourceAlpha" type="matrix" values="0 0 0 0 0 0 0 0 0 0 0 0 0 0 0 0 0 0 127 0" result="hardAlpha"/>
<feOffset dx="6" dy="6"/>
<feComposite in2="hardAlpha" operator="out"/>
<feColorMatrix type="matrix" values="0 0 0 0 0 0 0 0 0 0 0 0 0 0 0 0 0 0 0.25 0"/>
<feBlend mode="normal" in2="BackgroundImageFix" result="effect1_dropShadow_34_14975"/>
<feBlend mode="normal" in="SourceGraphic" in2="effect1_dropShadow_34_14975" result="shape"/>
</filter>
</defs>
</svg>
