<svg width="128" height="128" viewBox="0 0 128 128" fill="none" xmlns="http://www.w3.org/2000/svg">
<g opacity="0.53" clip-path="url(#clip0_34_15812)">
<path d="M63.7756 16.265C65.1661 16.265 66.2933 15.1377 66.2933 13.7472V2.51775C66.2933 1.12725 65.1661 0 63.7756 0C62.3851 0 61.2578 1.12725 61.2578 2.51775V13.7472C61.2581 15.1377 62.3853 16.265 63.7756 16.265Z" fill="#EBECED"/>
<path d="M125.319 86.497L120.871 82.0617C119.289 80.4815 117.18 79.611 114.933 79.611C113.497 79.611 112.117 79.9685 110.895 80.6382L102.514 72.2667L102.922 71.859C106.322 68.452 106.321 62.9157 102.922 59.5202C101.707 58.3032 100.191 57.4917 98.5389 57.1502C98.7664 56.365 98.8862 55.5425 98.8862 54.7007C98.8862 52.362 97.9777 50.169 96.3332 48.5312C95.1182 47.3142 93.6027 46.5027 91.9504 46.1612C92.1779 45.376 92.2977 44.5537 92.2977 43.7117C92.2977 41.3727 91.3892 39.18 89.7419 37.5397C88.4979 36.2972 86.9687 35.5107 85.3629 35.176C86.2219 32.2142 85.4879 28.882 83.1579 26.548C81.2184 24.6167 78.5866 23.7867 76.0504 24.0557L59.4417 20.912C56.9087 20.4315 53.7454 20.1137 51.7487 21.935C51.6227 22.05 51.4942 22.1822 51.3677 22.3295C48.2717 21.201 44.6607 21.873 42.1814 24.3495C40.5367 25.9922 39.6307 28.1842 39.6307 30.5217C39.6307 31.3637 39.7499 32.186 39.9772 32.9715C38.3267 33.3127 36.8129 34.1232 35.6022 35.3362C33.9542 36.9775 33.0454 39.167 33.0437 41.5017C33.0429 42.3457 33.1627 43.1707 33.3912 43.9582C31.7399 44.2987 30.2252 45.1077 29.0107 46.3207C27.3627 47.967 26.4552 50.1602 26.4552 52.4965C26.4552 54.286 26.9894 55.9907 27.9794 57.4307C26.7294 57.8545 25.5844 58.5597 24.6257 59.5175C21.2232 62.9157 21.2219 68.4522 24.6279 71.8642L25.0347 72.2692L16.6522 80.6365C13.5369 79.1697 9.69866 79.7192 7.12791 82.2867L2.67741 86.7247C1.09441 88.3057 0.222906 90.4147 0.222656 92.663C0.222656 94.9115 1.09441 97.0207 2.67741 98.602L8.23166 104.149C9.21541 105.132 10.8097 105.131 11.7922 104.147C12.7749 103.164 12.7739 101.569 11.7902 100.587L6.23591 95.0395C5.60541 94.4097 5.25816 93.5657 5.25816 92.6632C5.25816 91.761 5.60541 90.9172 6.23441 90.289L10.6852 85.8507C11.7972 84.74 13.4992 84.5745 14.7917 85.3472C14.8827 85.484 14.9879 85.614 15.1084 85.7347C15.3242 85.951 15.5704 86.1167 15.8319 86.238L41.3552 111.724C41.4764 111.988 41.6429 112.237 41.8602 112.454C42.0717 112.666 42.3129 112.83 42.5689 112.95C43.1087 113.56 43.4069 114.34 43.4069 115.171C43.4069 116.074 43.0597 116.918 42.4292 117.547L37.9829 121.988C36.6692 123.296 34.5322 123.296 33.2224 121.992L27.6682 116.438C26.6849 115.454 25.0909 115.454 24.1077 116.438C23.1244 117.421 23.1244 119.015 24.1077 119.998L29.6659 125.557C31.3019 127.186 33.4504 128 35.5999 128C37.7499 128 39.9009 127.185 41.5389 125.554L45.9879 121.11C47.5709 119.529 48.4427 117.42 48.4427 115.171C48.4427 113.567 47.9964 112.034 47.1667 110.713L56.6007 101.29C56.6107 101.28 56.6207 101.27 56.6309 101.259C57.7112 100.143 60.7194 100.352 63.6287 100.554C65.6957 100.697 68.0002 100.857 70.2517 100.598L80.5827 110.916C79.9134 112.137 79.5562 113.514 79.5562 114.949C79.5562 117.195 80.4279 119.303 82.0109 120.884L86.4602 125.328C88.0422 126.908 90.1509 127.778 92.3979 127.778C94.6447 127.778 96.7534 126.908 98.3357 125.328L125.321 98.3752C126.904 96.7942 127.776 94.6852 127.776 92.4367C127.775 90.1885 126.904 88.0795 125.319 86.497ZM58.5042 25.8595L69.4259 27.9267L62.8887 34.4615C61.8774 33.9755 60.4914 33.069 58.9709 31.6145C56.8897 29.6235 55.4009 27.3247 55.2654 25.891C55.2652 25.8902 55.2652 25.8895 55.2652 25.8887C55.2652 25.8885 55.2649 25.8882 55.2649 25.888C55.2552 25.785 55.2527 25.7027 55.2539 25.64C55.5832 25.56 56.4577 25.4712 58.5042 25.8595ZM45.7397 27.9122C47.0152 26.638 48.9967 26.491 50.4379 27.467C51.2547 30.8915 54.1759 33.9952 55.4902 35.2527C56.4642 36.1847 59.5894 38.979 62.7439 39.747C63.1707 40.3587 63.4029 41.088 63.4029 41.8575C63.4029 42.8487 63.0217 43.7755 62.3269 44.4695C61.6342 45.1635 60.7059 45.5455 59.7129 45.5455C58.7197 45.5455 57.7914 45.1635 57.0954 44.4662L57.0952 44.466L57.0939 44.4647L45.7394 33.1307C45.0472 32.4395 44.6659 31.5127 44.6659 30.5217C44.6662 29.5305 45.0474 28.6037 45.7397 27.9122ZM39.1607 38.899C39.8534 38.2052 40.7807 37.823 41.7722 37.823C42.7649 37.823 43.6952 38.206 44.3924 38.9025L53.5354 48.0272C54.9752 49.4692 54.9752 51.8157 53.5404 53.2527C52.8439 53.9465 51.9124 54.3285 50.9177 54.3285C49.9229 54.3285 48.9914 53.9465 48.2979 53.2557L48.2977 53.2555L41.3614 46.3207C41.3507 46.31 41.3389 46.3 41.3279 46.289L39.1579 44.12C38.4617 43.4245 38.0784 42.496 38.0792 41.5055C38.0802 40.5182 38.4622 39.5945 39.1607 38.899ZM32.5692 49.8835C33.2624 49.1912 34.1917 48.81 35.1862 48.81C36.1724 48.81 37.0937 49.1857 37.7839 49.866L44.7414 56.8202C45.4352 57.5112 45.8174 58.437 45.8174 59.427C45.8174 60.4167 45.4352 61.3425 44.7387 62.0362C44.0457 62.7282 43.1174 63.1095 42.1247 63.1095C41.1304 63.1095 40.1992 62.7272 39.5052 62.0362L36.9829 59.517C36.9824 59.5162 36.9817 59.5157 36.9812 59.5152L32.5694 55.1087C31.8739 54.414 31.4909 53.486 31.4909 52.496C31.4909 51.5062 31.8739 50.578 32.5692 49.8835ZM28.1842 63.08C28.8804 62.3845 29.8109 62.0015 30.8042 62.0015C31.7972 62.0015 32.7274 62.3842 33.4234 63.0792L35.9492 65.602C36.6432 66.293 37.0252 67.2187 37.0252 68.2087C37.0252 69.1987 36.6429 70.1242 35.9439 70.8207C35.2512 71.5145 34.3229 71.8967 33.3299 71.8967C32.3367 71.8967 31.4084 71.5147 30.7107 70.8157L30.3944 70.5007C30.3902 70.4965 30.3869 70.492 30.3829 70.488C30.3782 70.4835 30.3732 70.4795 30.3684 70.475L28.1867 68.3017C26.7469 66.859 26.7457 64.5167 28.1842 63.08ZM79.4927 91.6945C78.5099 90.7105 76.9156 90.7097 75.9322 91.6922L73.6922 93.9295C71.5637 96.058 67.7069 95.79 63.9772 95.5312C59.9269 95.2497 55.7387 94.9592 53.0284 97.7417L43.7547 107.004L20.5639 83.8475L28.7709 75.6552C30.1274 76.4867 31.6927 76.9325 33.3304 76.9325C35.6702 76.9325 37.8642 76.0255 39.5029 74.3837C41.1527 72.7407 42.0614 70.548 42.0614 68.209C42.0614 68.1872 42.0599 68.1657 42.0599 68.144C42.0817 68.1442 42.1034 68.1455 42.1252 68.1455C44.4617 68.1455 46.6539 67.2412 48.2949 65.6022C49.9447 63.9592 50.8534 61.7662 50.8534 59.4275C50.8534 59.4057 50.8519 59.3842 50.8519 59.3625C50.8739 59.3625 50.8959 59.364 50.9182 59.364C53.2539 59.364 55.4474 58.4607 57.0994 56.8155C58.8144 55.0977 59.6627 52.8362 59.6464 50.5795C59.6689 50.5797 59.6914 50.581 59.7139 50.581C62.0537 50.5807 64.2474 49.674 65.8887 48.0297C67.5334 46.387 68.4394 44.195 68.4394 41.8575C68.4394 40.2227 67.9949 38.66 67.1662 37.3062L74.3594 30.116C74.8954 29.5822 75.5564 29.2472 76.2492 29.109C76.3242 29.101 76.3982 29.089 76.4714 29.0745C77.5829 28.9212 78.7502 29.2642 79.6002 30.1107C81.0399 31.553 81.0399 33.8995 79.6054 35.3365L77.4146 37.5182C77.4074 37.5255 77.3997 37.532 77.3924 37.5392L74.8692 40.0582C73.8852 41.0407 73.8842 42.635 74.8669 43.6187C75.8499 44.6027 77.4439 44.6035 78.4274 43.621L80.6269 41.4245C80.6274 41.424 80.6279 41.4235 80.6284 41.423L80.9609 41.0917C82.4046 39.6612 84.7437 39.6642 86.1859 41.1045C86.8799 41.7955 87.2622 42.7212 87.2622 43.7112C87.2622 44.701 86.8799 45.6267 86.1804 46.3232L83.9771 48.531C83.9769 48.5312 83.9767 48.5315 83.9764 48.532L81.4534 51.0447C80.4681 52.026 80.4649 53.6202 81.4462 54.6052C82.4274 55.5905 84.0214 55.5935 85.0067 54.6125L87.5412 52.0882C88.2339 51.3942 89.1622 51.0122 90.1552 51.0122C91.1484 51.0122 92.0769 51.3942 92.7747 52.0932C93.4687 52.7845 93.8507 53.7102 93.8507 54.7002C93.8507 55.69 93.4687 56.6157 92.7707 57.3107L88.3782 61.705C87.3951 62.6885 87.3954 64.2825 88.3787 65.2655C88.8704 65.757 89.5144 66.0025 90.1587 66.0025C90.8032 66.0025 91.4477 65.7565 91.9392 65.2647L94.0919 63.1112C94.1042 63.0995 94.1174 63.0892 94.1297 63.077C94.8224 62.383 95.7507 62.001 96.7437 62.001C97.7369 62.001 98.6652 62.383 99.3604 63.0795C100.799 64.5162 100.797 66.8587 99.3604 68.2982L97.1717 70.4845C97.1709 70.4852 97.1699 70.486 97.1692 70.4867C97.1684 70.4875 97.1676 70.4885 97.1669 70.4892L93.6929 73.959C92.7092 74.9417 92.7082 76.536 93.6907 77.5197C94.1824 78.012 94.8274 78.2582 95.4722 78.2582C96.1159 78.2582 96.7599 78.0127 97.2514 77.522L98.9507 75.8247L107.095 83.9595L83.9062 107.12L75.5977 98.8215C76.1769 98.449 76.7312 98.011 77.2514 97.4907L79.4902 95.2547C80.4744 94.2725 80.4754 92.6782 79.4927 91.6945ZM121.762 94.8125L94.7769 121.765C94.1457 122.395 93.3007 122.743 92.3977 122.743C91.4947 122.743 90.6497 122.395 90.0182 121.765L85.5689 117.321C84.9384 116.691 84.5912 115.849 84.5912 114.949C84.5912 114.049 84.9384 113.206 85.5689 112.576L112.554 85.624C113.186 84.9932 114.03 84.646 114.934 84.646C115.837 84.646 116.682 84.9932 117.315 85.6255L121.762 90.0607C122.393 90.6905 122.74 91.534 122.74 92.4365C122.74 93.3392 122.393 94.183 121.762 94.8125Z" fill="#EBECED"/>
<path d="M30.3434 14.1438C30.8349 14.6343 31.4784 14.8793 32.1219 14.8793C32.7669 14.8793 33.4121 14.6328 33.9039 14.14C34.8861 13.1558 34.8846 11.5618 33.9004 10.5795L24.7259 1.42328C23.7419 0.441032 22.1476 0.442282 21.1654 1.42678C20.1831 2.41103 20.1846 4.00503 21.1689 4.98728L30.3434 14.1438Z" fill="#EBECED"/>
<path d="M95.4317 14.8792C96.0755 14.8792 96.7195 14.6337 97.211 14.1429L106.379 4.98644C107.362 4.00394 107.363 2.40969 106.381 1.42594C105.398 0.442188 103.804 0.441188 102.82 1.42394L93.6525 10.5804C92.6688 11.5629 92.6677 13.1572 93.6505 14.1409C94.1422 14.6332 94.787 14.8792 95.4317 14.8792Z" fill="#EBECED"/>
<path d="M15.7067 108.3C14.7319 109.291 14.7454 110.885 15.7372 111.86L15.7444 111.867C16.2337 112.348 16.8689 112.588 17.5039 112.588C18.1557 112.588 18.8074 112.335 19.3012 111.833C20.2759 110.842 20.2587 109.244 19.2672 108.269C18.2759 107.294 16.6819 107.308 15.7067 108.3Z" fill="#EBECED"/>
<path d="M85.6491 88.0685C86.0321 88.0685 86.4206 87.9813 86.7854 87.7975C88.0269 87.1713 88.5256 85.6573 87.8996 84.4158C87.2734 83.1743 85.7591 82.6753 84.5179 83.3015L84.5039 83.3085C83.2624 83.9348 82.7706 85.4453 83.3966 86.6868C83.8386 87.5638 84.7276 88.0685 85.6491 88.0685Z" fill="#EBECED"/>
</g>
<defs>
<clipPath id="clip0_34_15812">
<rect width="128" height="128" fill="white"/>
</clipPath>
</defs>
</svg>
