<svg width="172" height="173" viewBox="0 0 172 173" fill="none" xmlns="http://www.w3.org/2000/svg">
<g opacity="0.53" clip-path="url(#clip0_34_15810)">
<path d="M129.849 69.6796C131.425 66.9298 132.078 63.7471 131.711 60.5988C131.345 57.4506 129.98 54.5026 127.815 52.1877C125.65 49.8728 122.8 48.313 119.683 47.7372C116.566 47.1614 113.347 47.6 110.498 48.9885C107.649 50.3771 105.32 52.6425 103.853 55.4521C102.386 58.2618 101.859 61.4676 102.348 64.5991C102.838 67.7306 104.318 70.6226 106.572 72.8507C108.827 75.0788 111.736 76.5255 114.873 76.9785C112.861 79.0096 111.212 81.3709 109.998 83.9595C105.104 82.6372 99.9818 82.3899 94.983 83.2345C97.5685 79.538 98.8532 75.0876 98.6354 70.5819C98.4176 66.0762 96.7097 61.7704 93.7797 58.3405C90.8497 54.9107 86.8636 52.551 82.4472 51.6319C78.0309 50.7129 73.4344 51.2866 69.3794 53.2628C65.3244 55.2391 62.0405 58.5061 60.0433 62.5508C58.0462 66.5956 57.4488 71.1891 58.3451 75.6101C59.2414 80.0312 61.5805 84.0294 64.9952 86.977C68.4099 89.9246 72.7068 91.6548 77.2113 91.8958C73.4662 95.3127 70.5049 99.4997 68.531 104.169C65.7443 103.53 62.8687 103.374 60.0292 103.707C61.6078 100.956 62.2625 97.7705 61.8972 94.6194C61.5319 91.4684 60.1658 88.5174 57.9995 86.2001C55.8333 83.8827 52.9811 82.3211 49.8617 81.7444C46.7424 81.1677 43.5203 81.6065 40.6688 82.9963C37.8172 84.386 35.4864 86.6535 34.0187 89.4657C32.551 92.278 32.0237 95.4867 32.5143 98.6207C33.0049 101.755 34.4874 104.649 36.7443 106.878C39.0011 109.107 41.9133 110.554 45.0532 111.006C41.3951 114.712 38.9744 119.46 38.1238 124.598C37.2732 129.735 38.0344 135.01 40.3027 139.697C40.5351 140.174 40.9474 140.539 41.4489 140.712C41.9504 140.885 42.5 140.851 42.9768 140.619C43.4536 140.386 43.8186 139.974 43.9914 139.473C44.1643 138.971 44.1308 138.422 43.8984 137.945C42.1761 134.393 41.4809 130.431 41.8914 126.506C42.3018 122.58 43.8015 118.847 46.2212 115.729C48.6409 112.611 51.8842 110.231 55.5849 108.858C59.2856 107.486 63.2963 107.175 67.1642 107.961C64.6592 116.376 65.4085 125.426 69.2635 133.314C69.4959 133.791 69.9082 134.156 70.4097 134.329C70.9112 134.502 71.4608 134.468 71.9376 134.236C72.4144 134.003 72.7794 133.591 72.9522 133.09C73.1251 132.588 73.0916 132.039 72.8592 131.562C69.412 124.155 69.0108 115.69 71.7421 107.99C74.4734 100.29 80.1188 93.97 87.4631 90.3906C94.8074 86.8113 103.263 86.2586 111.011 88.8515C118.759 91.4444 125.179 96.9757 128.889 104.255C129.122 104.732 129.534 105.096 130.035 105.269C130.537 105.442 131.086 105.409 131.563 105.176C132.04 104.944 132.405 104.532 132.578 104.03C132.751 103.529 132.717 102.979 132.485 102.502C128.647 94.6056 121.981 88.4399 113.809 85.2281C115.572 81.6945 118.287 78.7243 121.649 76.653C125.011 74.5817 128.885 73.492 132.834 73.507C136.783 73.522 140.649 74.6411 143.995 76.7378C147.341 78.8346 150.034 81.8254 151.769 85.3722C152.002 85.8491 152.414 86.214 152.915 86.3869C153.417 86.5597 153.967 86.5263 154.443 86.2939C154.92 86.0615 155.285 85.6492 155.458 85.1477C155.631 84.6462 155.597 84.0966 155.365 83.6198C153.072 78.9459 149.388 75.0966 144.819 72.6005C140.25 70.1045 135.021 69.0841 129.849 69.6796ZM37.4215 101.054C36.489 99.1266 36.1485 96.9666 36.4429 94.8462C36.7374 92.7259 37.6536 90.7404 39.0759 89.1404C40.4981 87.5405 42.3626 86.398 44.4339 85.8572C46.5051 85.3163 48.6902 85.4015 50.7131 86.1018C52.736 86.8022 54.506 88.0863 55.7994 89.792C57.0929 91.4977 57.8519 93.5485 57.9804 95.6854C58.109 97.8222 57.6014 99.9492 56.5218 101.798C55.4422 103.646 53.839 105.133 51.9147 106.071C50.6337 106.694 49.2426 107.058 47.8207 107.143C46.3989 107.228 44.9742 107.032 43.6283 106.566C42.2823 106.1 41.0413 105.373 39.9763 104.427C38.9113 103.482 38.0432 102.335 37.4215 101.054ZM63.5792 78.7159C62.1695 75.8054 61.6541 72.5423 62.098 69.3389C62.5419 66.1355 63.9253 63.1355 66.0733 60.718C68.2214 58.3004 71.0378 56.5737 74.1667 55.7561C77.2956 54.9384 80.5967 55.0664 83.6529 56.1239C86.7091 57.1815 89.3833 59.121 91.3377 61.6977C93.2921 64.2743 94.439 67.3724 94.6335 70.6005C94.828 73.8287 94.0614 77.0421 92.4305 79.8347C90.7997 82.6274 88.3777 84.874 85.4706 86.2909C81.5693 88.1863 77.0756 88.4571 72.975 87.0438C68.8744 85.6305 65.5017 82.6485 63.5968 78.7519L63.5792 78.7159ZM107.232 67.0303C106.294 65.1049 105.947 62.9444 106.237 60.822C106.526 58.6997 107.438 56.7109 108.858 55.1071C110.278 53.5033 112.142 52.3565 114.213 51.8117C116.285 51.267 118.471 51.3488 120.496 52.0467C122.521 52.7447 124.294 54.0275 125.59 55.7329C126.886 57.4383 127.647 59.4897 127.777 61.6277C127.907 63.7657 127.401 65.8943 126.321 67.7443C125.241 69.5943 123.637 71.0826 121.712 72.021C119.13 73.2766 116.154 73.4563 113.44 72.5207C110.725 71.585 108.492 69.6104 107.232 67.0303Z" fill="#EBECED"/>
</g>
<defs>
<clipPath id="clip0_34_15810">
<rect width="128" height="128" fill="white" transform="translate(0 56.999) rotate(-25.983)"/>
</clipPath>
</defs>
</svg>
