<svg width="60" height="60" viewBox="0 0 60 60" fill="none" xmlns="http://www.w3.org/2000/svg">
<g opacity="0.8">
<path d="M55.8558 23.8283C55.4372 22.5462 54.3558 21.5834 53.0329 21.3153L39.8639 18.6584L33.2681 6.95703C32.6048 5.77859 31.3528 5.04688 30.0004 5.04688C28.6481 5.04688 27.3965 5.77859 26.7337 6.95563L20.137 18.6584L6.9656 21.3162C5.64466 21.5834 4.56279 22.5486 4.14279 23.8358C3.72701 25.1187 4.03591 26.5344 4.94951 27.53L14.0414 37.4202L12.4992 50.7692C12.3459 52.1094 12.929 53.4359 14.0222 54.2314C15.089 55.0048 16.5726 55.1558 17.7853 54.6069L30.0004 49.0142L42.2203 54.6078C42.6454 54.8014 43.0959 54.913 43.5797 54.9402L43.8051 54.9458L43.8694 54.9448C45.8911 54.8998 47.535 53.218 47.535 51.1958C47.535 50.9642 47.5134 50.7308 47.4703 50.5025L45.959 37.4202L55.0533 27.5272C55.9659 26.533 56.2729 25.1169 55.8558 23.8283ZM54.0183 26.5752L44.4886 36.9416L46.0772 50.6886L46.0856 50.7425C46.1151 50.8916 46.1297 51.0439 46.1297 51.1953C46.1297 52.4591 45.1022 53.51 43.8426 53.5381L43.7944 53.5391L43.6397 53.5348C43.3509 53.5189 43.0692 53.4486 42.8044 53.3281L30.0004 47.4678L17.2017 53.3258C16.447 53.6684 15.5123 53.5742 14.8481 53.0928C14.1647 52.5955 13.8 51.7662 13.8956 50.9286L15.5119 36.9416L5.98545 26.5784C5.41404 25.9559 5.22091 25.0709 5.48013 24.2703C5.7431 23.465 6.41951 22.8612 7.24498 22.6944L21.0464 19.91L27.959 7.64563C28.3734 6.91016 29.1558 6.45312 30.0004 6.45312C30.8451 6.45312 31.6279 6.91063 32.0423 7.64703L38.9545 19.91L52.7536 22.6934C53.5809 22.8608 54.2569 23.4636 54.5184 24.2633C54.779 25.0686 54.5873 25.955 54.0183 26.5752Z" fill="#EBECED"/>
<path d="M30.0006 11.6562L23.4705 23.2414L10.4336 25.872L19.4341 35.6633L17.9078 48.8745L30.0006 43.3395L42.0934 48.8745L40.5672 35.6633L49.5677 25.872L36.5308 23.2414L30.0006 11.6562Z" fill="#EBECED"/>
</g>
</svg>
