<svg width="30" height="30" viewBox="0 0 30 30" fill="none" xmlns="http://www.w3.org/2000/svg">
<g opacity="0.8">
<path d="M27.9279 11.9141C27.7186 11.2731 27.1779 10.7917 26.5165 10.6577L19.9319 9.32922L16.6341 3.47852C16.3024 2.8893 15.6764 2.52344 15.0002 2.52344C14.3241 2.52344 13.6983 2.8893 13.3669 3.47781L10.0685 9.32922L3.4828 10.6581C2.82233 10.7917 2.28139 11.2743 2.07139 11.9179C1.8635 12.5594 2.01796 13.2672 2.47475 13.765L7.02069 18.7101L6.2496 25.3846C6.17296 26.0547 6.46452 26.718 7.01108 27.1157C7.54452 27.5024 8.28632 27.5779 8.89264 27.3034L15.0002 24.5071L21.1101 27.3039C21.3227 27.4007 21.548 27.4565 21.7898 27.4701L21.9026 27.4729L21.9347 27.4724C22.9455 27.4499 23.7675 26.609 23.7675 25.5979C23.7675 25.4821 23.7567 25.3654 23.7351 25.2512L22.9795 18.7101L27.5266 13.7636C27.983 13.2665 28.1365 12.5584 27.9279 11.9141ZM27.0091 13.2876L22.2443 18.4708L23.0386 25.3443L23.0428 25.3712C23.0576 25.4458 23.0648 25.522 23.0648 25.5977C23.0648 26.2295 22.5511 26.755 21.9213 26.7691L21.8972 26.7695L21.8198 26.7674C21.6755 26.7595 21.5346 26.7243 21.4022 26.6641L15.0002 23.7339L8.60085 26.6629C8.2235 26.8342 7.75616 26.7871 7.42405 26.5464C7.08233 26.2977 6.89999 25.8831 6.9478 25.4643L7.75593 18.4708L2.99272 13.2892C2.70702 12.978 2.61046 12.5355 2.74007 12.1352C2.87155 11.7325 3.20975 11.4306 3.62249 11.3472L10.5232 9.955L13.9795 3.82281C14.1867 3.45508 14.5779 3.22656 15.0002 3.22656C15.4226 3.22656 15.814 3.45531 16.0212 3.82352L19.4773 9.955L26.3768 11.3467C26.7905 11.4304 27.1284 11.7318 27.2592 12.1316C27.3895 12.5343 27.2937 12.9775 27.0091 13.2876Z" fill="#EBECED"/>
<path d="M15.0023 5.82812L11.7372 11.6207L5.21875 12.936L9.71898 17.8316L8.95586 24.4373L15.0023 21.6698L21.0487 24.4373L20.2855 17.8316L24.7858 12.936L18.2673 11.6207L15.0023 5.82812Z" fill="#EBECED"/>
</g>
</svg>
