<svg width="87" height="113" viewBox="0 0 87 113" fill="none" xmlns="http://www.w3.org/2000/svg">
<path d="M25.691 111.917C25.691 111.917 -7.02966 93.8525 2.38905 82.7066C11.2077 72.271 35.8654 92.8719 35.8654 92.8719C35.8654 92.8719 5.83058 76.9964 14.5061 67.298C22.5942 58.2562 43.8593 77.4658 43.8593 77.4658C43.8593 77.4658 16.9095 60.7077 25.7747 52.6174C34.0664 45.0504 51.6127 65.2129 51.6127 65.2129C51.6127 65.2129 29.1149 45.8206 38.378 39.1487C46.5941 33.2309 54.6422 57.4625 61.7897 50.2905C69.1571 42.8978 40.5552 34.9852 47.8295 27.501C54.9741 20.1502 62.8767 44.3479 71.3628 39.1278C79.849 33.9077 52.6662 22.2808 60.3126 15.6088C67.8059 9.07036 73.47 32.2249 82.5125 28.0853C93.6341 22.994 71.5868 9.86166 66.4881 1.17403" stroke="#6440FB"/>
</svg>
