<svg width="241" height="64" viewBox="0 0 241 64" fill="none" xmlns="http://www.w3.org/2000/svg">
<path d="M77.6 50V15.92H99.2V23.216H85.232V29.312H96.32V36.608H85.232V42.704H99.2V50H77.6ZM113.297 50.528C110.193 50.528 107.553 49.296 105.377 46.832C103.233 44.368 102.161 41.424 102.161 38C102.161 34.576 103.233 31.632 105.377 29.168C107.553 26.704 110.193 25.472 113.297 25.472C116.049 25.472 118.225 26.448 119.825 28.4V14H127.073V50H119.825V47.6C118.225 49.552 116.049 50.528 113.297 50.528ZM110.945 42.272C111.969 43.392 113.297 43.952 114.929 43.952C116.561 43.952 117.873 43.392 118.865 42.272C119.889 41.152 120.401 39.728 120.401 38C120.401 36.272 119.889 34.848 118.865 33.728C117.873 32.608 116.561 32.048 114.929 32.048C113.297 32.048 111.969 32.608 110.945 33.728C109.953 34.848 109.457 36.272 109.457 38C109.457 39.728 109.953 41.152 110.945 42.272ZM141.823 50.528C138.911 50.528 136.671 49.552 135.103 47.6C133.535 45.648 132.751 43.008 132.751 39.68V26H139.999V38.432C139.999 42.112 141.231 43.952 143.695 43.952C146.703 43.952 148.207 41.856 148.207 37.664V26H155.455V50H148.207V47.552C146.831 49.536 144.703 50.528 141.823 50.528ZM172.582 50.528C168.966 50.528 165.958 49.328 163.558 46.928C161.158 44.496 159.958 41.52 159.958 38C159.958 34.48 161.158 31.52 163.558 29.12C165.958 26.688 168.966 25.472 172.582 25.472C175.878 25.472 178.598 26.384 180.742 28.208C182.886 30.032 184.294 32.416 184.966 35.36H177.478C176.422 33.12 174.79 32 172.582 32C171.014 32 169.734 32.544 168.742 33.632C167.75 34.688 167.254 36.144 167.254 38C167.254 39.856 167.75 41.328 168.742 42.416C169.734 43.472 171.014 44 172.582 44C174.79 44 176.422 42.88 177.478 40.64H184.966C184.294 43.584 182.886 45.968 180.742 47.792C178.598 49.616 175.878 50.528 172.582 50.528ZM196.027 50L185.514 26H193.531L199.339 40.592L205.195 26H213.259L202.747 50H196.027ZM226.631 50.528C222.919 50.528 219.863 49.344 217.463 46.976C215.095 44.608 213.911 41.6 213.911 37.952C213.911 34.368 215.111 31.392 217.511 29.024C219.943 26.656 222.983 25.472 226.631 25.472C228.391 25.472 230.039 25.776 231.575 26.384C233.143 26.992 234.519 27.872 235.703 29.024C236.919 30.176 237.863 31.664 238.535 33.488C239.207 35.312 239.511 37.376 239.447 39.68H220.967C221.095 40.992 221.671 42.096 222.695 42.992C223.719 43.856 225.159 44.288 227.015 44.288C228.071 44.288 229.031 44.08 229.895 43.664C230.759 43.216 231.335 42.672 231.623 42.032H239.207C238.439 44.56 236.903 46.608 234.599 48.176C232.295 49.744 229.639 50.528 226.631 50.528ZM226.439 31.232C225.063 31.232 223.911 31.584 222.983 32.288C222.087 32.992 221.479 33.92 221.159 35.072H231.431C231.079 33.76 230.423 32.8 229.463 32.192C228.535 31.552 227.527 31.232 226.439 31.232Z" fill="white"/>
<circle cx="32" cy="32" r="32" fill="#FF9B24"/>
<g clip-path="url(#clip0_34_3768)">
<path fill-rule="evenodd" clip-rule="evenodd" d="M22.6447 30.6362C23.4213 32.1771 24.1958 33.7196 24.938 35.2772L26.6067 38.7796C25.1352 38.829 23.6623 38.8411 22.1928 38.9278C21.632 38.9608 21.0743 39.0436 20.5205 39.1384C19.7292 39.2737 18.9088 39.4938 18.1514 39.8052C17.1629 40.2116 15.7982 41.11 15.8269 42.3512C15.8506 43.5695 16.7184 44.439 17.555 45.2174C18.293 45.9043 19.3647 46.3833 20.2747 46.8324C22.1408 47.7531 24.0927 48.5362 26.0412 49.2636C27.39 49.7671 28.7438 50.1554 30.1526 50.4526C30.8104 50.5914 31.8595 50.6249 32.1941 49.8797C32.4365 49.334 32.2429 48.7265 32.0268 48.2075C31.7507 47.5445 31.4553 46.8876 31.1603 46.2327L29.9494 43.5443C31.8124 43.5775 33.6753 43.6355 35.5386 43.6437C37.0226 43.6507 38.49 43.5657 39.9591 43.3539C41.3387 43.1548 42.98 42.5735 43.6995 41.284C44.5483 39.7624 43.7137 37.8325 42.8993 36.4802C42.5247 35.8582 42.1985 35.2039 41.7752 34.614L38.9231 30.6386C39.4294 29.9206 39.9572 29.217 40.4424 28.4841C41.1623 27.3965 41.8701 26.2998 42.5373 25.1788C43.0015 24.3985 43.4329 23.5979 43.8345 22.7836C44.6009 21.2305 45.8997 18.6773 44.3146 17.1842C43.3473 16.273 41.8281 16.204 40.5785 16.3805C39.2678 16.5658 37.9598 16.7754 36.6576 17.0135C33.2564 17.6357 29.8439 18.7599 26.5258 19.7768C25.3395 20.1403 24.1823 20.5934 23.0184 21.022C22.2345 21.3107 21.4637 21.7238 20.7182 22.1252C20.2723 22.3651 19.8285 22.7055 19.5604 23.142C19.401 23.4015 19.4517 23.782 19.5055 24.0661C19.6106 24.6203 19.8453 25.1408 20.0785 25.6505L22.6447 30.6362ZM34.1904 21.8822C35.4085 21.6481 36.6272 21.4169 37.849 21.2037C38.2356 21.1363 39.2004 20.9071 39.4215 21.3702C39.7314 22.0198 38.8833 23.125 38.586 23.6671C38.3317 24.1308 38.0619 24.5862 37.7984 25.0446L36.3958 27.4862L34.2571 25.0989L32.1516 23.027L31.6059 22.5761L31.4219 22.4386C32.3447 22.2531 33.266 22.0597 34.1904 21.8822ZM30.3659 23.9321C30.3904 23.93 30.414 23.9533 30.4291 23.9712L30.5 24.0598C30.6348 24.2605 30.7574 24.4662 30.8843 24.6717C31.451 25.5905 32.0173 26.5098 32.5847 27.4281C32.9605 28.0365 33.3383 28.6438 33.714 29.2525L34.4564 30.4554L34.5208 30.5644C33.9856 31.4446 33.4639 32.3331 32.9152 33.205C32.4868 33.8859 32.0372 34.5539 31.5899 35.2225C31.3971 35.5097 31.0887 35.9124 30.6939 35.864C29.9299 35.7702 29.6808 34.5739 29.5963 33.9643C29.551 33.6377 29.5104 33.31 29.4871 32.981C29.4449 32.3871 29.3854 31.7919 29.3998 31.1965C29.4198 30.3764 29.4248 29.5559 29.4593 28.7363C29.4801 28.2467 29.4936 27.7545 29.5656 27.2696C29.6648 26.6004 29.7639 25.9312 29.8631 25.2619C29.9052 24.9771 29.9955 24.6997 30.0805 24.4251C30.1254 24.3064 30.174 24.1919 30.2291 24.0777C30.2291 24.0777 30.301 23.9376 30.3659 23.9321ZM29.2502 44.7198C29.6367 45.6594 30.0405 46.6197 30.3006 47.6138C30.334 47.7414 30.358 47.8717 30.3753 48.0024C30.3894 48.1095 30.3912 48.2182 30.3947 48.3261C30.3961 48.3557 30.3533 48.3853 30.3273 48.3888C30.2737 48.3961 30.2198 48.3655 30.1758 48.3387C29.0418 47.6599 27.9118 46.9738 26.7755 46.2991L22.3356 43.6635L22.1988 43.5784L22.305 43.5564L22.7349 43.5091C23.5663 43.488 24.3974 43.4301 25.229 43.4453L28.7506 43.5094C28.9172 43.9128 29.0842 44.316 29.2502 44.7198ZM38.3308 38.7219C38.1531 38.8779 37.8706 38.9193 37.6441 38.9483C37.3556 38.985 37.0657 39.0271 36.7749 39.0278C35.7716 39.03 34.7681 39.049 33.7651 39.0343C33.0741 39.0242 32.3835 38.9838 31.6933 38.9537L27.6771 38.7799C27.4441 38.2797 27.2113 37.779 26.9776 37.2792L23.9899 30.8886C23.3361 29.416 22.667 27.95 22.0285 26.4707C21.9083 26.1919 21.815 25.9019 21.7147 25.6155C21.6142 25.3284 21.4754 24.9356 21.6259 24.6399C21.7576 24.385 22.0687 24.2738 22.3259 24.1936C22.4584 24.1523 22.594 24.1197 22.7306 24.094C23.8464 23.8843 24.9655 23.6915 26.0824 23.4871L29.0951 22.9356L28.9749 23.2825L28.8302 23.9403L28.8228 23.9818C28.7199 25.1116 28.5768 26.2381 28.5139 27.3708C28.4417 28.6723 28.4288 29.9771 28.4175 31.2805C28.4121 31.8913 28.4258 32.503 28.4636 33.1125C28.4967 33.6433 28.5429 34.1754 28.6301 34.7002C28.7066 35.1618 28.8242 35.6168 28.9538 36.0666C29.1459 36.7337 29.506 37.392 30.0822 37.8008C30.2804 37.9415 30.5055 38.0454 30.7428 38.0985C31.4937 38.2671 32.2875 37.8879 32.8754 37.4501C33.499 36.9857 34.1706 36.4561 34.6934 35.8574L36.4592 33.8344C36.8069 34.4408 37.182 35.0325 37.5023 35.6538C37.8153 36.2606 38.0785 36.8921 38.3571 37.5156C38.499 37.8332 38.6369 38.3505 38.3915 38.6584C38.3733 38.6814 38.3529 38.7025 38.3308 38.7219Z" fill="white"/>
</g>
<defs>
<clipPath id="clip0_34_3768">
<rect width="38.4" height="38.4" fill="white" transform="translate(27.25 5.12012) rotate(35.1898)"/>
</clipPath>
</defs>
</svg>
