<svg width="171" height="50" viewBox="0 0 171 50" fill="none" xmlns="http://www.w3.org/2000/svg">
<path d="M61.4 37V14.28H75.8V19.144H66.488V23.208H73.88V28.072H66.488V32.136H75.8V37H61.4ZM85.198 37.352C83.1287 37.352 81.3687 36.5307 79.918 34.888C78.4887 33.2453 77.774 31.2827 77.774 29C77.774 26.7173 78.4887 24.7547 79.918 23.112C81.3687 21.4693 83.1287 20.648 85.198 20.648C87.0327 20.648 88.4833 21.2987 89.55 22.6V13H94.382V37H89.55V35.4C88.4833 36.7013 87.0327 37.352 85.198 37.352ZM83.63 31.848C84.3127 32.5947 85.198 32.968 86.286 32.968C87.374 32.968 88.2487 32.5947 88.91 31.848C89.5927 31.1013 89.934 30.152 89.934 29C89.934 27.848 89.5927 26.8987 88.91 26.152C88.2487 25.4053 87.374 25.032 86.286 25.032C85.198 25.032 84.3127 25.4053 83.63 26.152C82.9687 26.8987 82.638 27.848 82.638 29C82.638 30.152 82.9687 31.1013 83.63 31.848ZM104.215 37.352C102.274 37.352 100.78 36.7013 99.735 35.4C98.6897 34.0987 98.167 32.3387 98.167 30.12V21H102.999V29.288C102.999 31.7413 103.82 32.968 105.463 32.968C107.468 32.968 108.471 31.5707 108.471 28.776V21H113.303V37H108.471V35.368C107.554 36.6907 106.135 37.352 104.215 37.352ZM124.721 37.352C122.311 37.352 120.305 36.552 118.705 34.952C117.105 33.3307 116.305 31.3467 116.305 29C116.305 26.6533 117.105 24.68 118.705 23.08C120.305 21.4587 122.311 20.648 124.721 20.648C126.919 20.648 128.732 21.256 130.161 22.472C131.591 23.688 132.529 25.2773 132.977 27.24H127.985C127.281 25.7467 126.193 25 124.721 25C123.676 25 122.823 25.3627 122.161 26.088C121.5 26.792 121.169 27.7627 121.169 29C121.169 30.2373 121.5 31.2187 122.161 31.944C122.823 32.648 123.676 33 124.721 33C126.193 33 127.281 32.2533 127.985 30.76H132.977C132.529 32.7227 131.591 34.312 130.161 35.528C128.732 36.744 126.919 37.352 124.721 37.352ZM140.351 37L133.343 21H138.687L142.559 30.728L146.463 21H151.839L144.831 37H140.351ZM160.754 37.352C158.279 37.352 156.242 36.5627 154.642 34.984C153.063 33.4053 152.274 31.4 152.274 28.968C152.274 26.5787 153.074 24.5947 154.674 23.016C156.295 21.4373 158.322 20.648 160.754 20.648C161.927 20.648 163.026 20.8507 164.05 21.256C165.095 21.6613 166.013 22.248 166.802 23.016C167.613 23.784 168.242 24.776 168.69 25.992C169.138 27.208 169.341 28.584 169.298 30.12H156.978C157.063 30.9947 157.447 31.7307 158.13 32.328C158.813 32.904 159.773 33.192 161.01 33.192C161.714 33.192 162.354 33.0533 162.93 32.776C163.506 32.4773 163.89 32.1147 164.082 31.688H169.138C168.626 33.3733 167.602 34.7387 166.066 35.784C164.53 36.8293 162.759 37.352 160.754 37.352ZM160.626 24.488C159.709 24.488 158.941 24.7227 158.322 25.192C157.725 25.6613 157.319 26.28 157.106 27.048H163.954C163.719 26.1733 163.282 25.5333 162.642 25.128C162.023 24.7013 161.351 24.488 160.626 24.488Z" fill="#00001B"/>
<circle cx="25" cy="25" r="25" fill="#6440FB"/>
<g clip-path="url(#clip0_34_198)">
<path fill-rule="evenodd" clip-rule="evenodd" d="M17.6915 23.9346C18.2982 25.1384 18.9033 26.3434 19.4831 27.5603L20.7868 30.2966C19.6372 30.3352 18.4865 30.3446 17.3384 30.4123C16.9003 30.4381 16.4646 30.5029 16.032 30.5769C15.4137 30.6826 14.7728 30.8545 14.1811 31.0978C13.4088 31.4153 12.3426 32.1172 12.3651 33.0869C12.3836 34.0387 13.0616 34.718 13.7151 35.3261C14.2917 35.8627 15.129 36.237 15.8399 36.5878C17.2978 37.3071 18.8228 37.9189 20.345 38.4872C21.3987 38.8805 22.4564 39.1839 23.557 39.4161C24.0709 39.5246 24.8905 39.5507 25.1519 38.9685C25.3414 38.5422 25.1901 38.0676 25.0213 37.6621C24.8056 37.1442 24.5748 36.6309 24.3443 36.1193L23.3983 34.019C24.8537 34.0449 26.3091 34.0903 27.7648 34.0967C28.9242 34.1021 30.0706 34.0357 31.2184 33.8702C32.2961 33.7147 33.5785 33.2606 34.1405 32.2531C34.8037 31.0644 34.1516 29.5566 33.5154 28.5002C33.2227 28.0142 32.9679 27.5031 32.6372 27.0422L30.409 23.9364C30.8045 23.3755 31.2169 22.8258 31.5959 22.2532C32.1584 21.4035 32.7113 20.5467 33.2326 19.6709C33.5952 19.0613 33.9323 18.4358 34.246 17.7997C34.8447 16.5863 35.8595 14.5917 34.6211 13.4251C33.8654 12.7133 32.6785 12.6594 31.7023 12.7973C30.6783 12.942 29.6564 13.1058 28.6391 13.2918C25.9819 13.7779 23.3159 14.6562 20.7236 15.4506C19.7968 15.7346 18.8928 16.0886 17.9834 16.4235C17.371 16.649 16.7688 16.9717 16.1864 17.2853C15.8381 17.4728 15.4914 17.7387 15.2819 18.0797C15.1573 18.2824 15.197 18.5797 15.239 18.8016C15.3211 19.2346 15.5045 19.6413 15.6866 20.0395L17.6915 23.9346ZM26.7116 17.0955C27.6632 16.9126 28.6153 16.7319 29.5699 16.5654C29.8718 16.5128 30.6256 16.3337 30.7984 16.6955C31.0405 17.203 30.3779 18.0664 30.1456 18.4899C29.9469 18.8522 29.7362 19.208 29.5303 19.5661L28.4345 21.4736L26.7637 19.6085L25.1187 17.9898L24.6924 17.6376L24.5487 17.5302C25.2696 17.3853 25.9894 17.2342 26.7116 17.0955ZM23.7236 18.6969C23.7428 18.6953 23.7613 18.7135 23.773 18.7275L23.8285 18.7967C23.9337 18.9536 24.0295 19.1142 24.1286 19.2748C24.5714 19.9926 25.0138 20.7108 25.4571 21.4282C25.7507 21.9035 26.0458 22.378 26.3394 22.8535L26.9193 23.7933L26.9697 23.8784C26.5516 24.5661 26.144 25.2603 25.7153 25.9414C25.3806 26.4734 25.0294 26.9952 24.6799 27.5176C24.5293 27.742 24.2884 28.0566 23.9799 28.0188C23.3831 27.9455 23.1885 27.0109 23.1224 26.5346C23.087 26.2795 23.0553 26.0234 23.0371 25.7664C23.0041 25.3024 22.9577 24.8374 22.9689 24.3723C22.9845 23.7316 22.9884 23.0906 23.0154 22.4503C23.0316 22.0677 23.0422 21.6832 23.0984 21.3044C23.1759 20.7816 23.2533 20.2587 23.3308 19.7359C23.3638 19.5134 23.4343 19.2967 23.5007 19.0821C23.5358 18.9894 23.5737 18.9 23.6168 18.8107C23.6168 18.8107 23.673 18.7013 23.7236 18.6969ZM22.852 34.9373C23.154 35.6715 23.4694 36.4216 23.6726 37.1983C23.6987 37.298 23.7175 37.3998 23.731 37.5019C23.742 37.5856 23.7434 37.6705 23.7461 37.7548C23.7473 37.7779 23.7138 37.801 23.6935 37.8038C23.6516 37.8094 23.6096 37.7856 23.5751 37.7646C22.6892 37.2343 21.8064 36.6983 20.9187 36.1712L17.45 34.1121L17.3431 34.0457L17.4261 34.0284L17.7619 33.9915C18.4115 33.975 19.0608 33.9298 19.7104 33.9416L22.4617 33.9917C22.5919 34.3069 22.7223 34.6219 22.852 34.9373ZM29.9463 30.2515C29.8074 30.3733 29.5867 30.4057 29.4098 30.4284C29.1844 30.4571 28.9579 30.4899 28.7307 30.4905C27.9469 30.4922 27.1629 30.507 26.3793 30.4955C25.8394 30.4877 25.2999 30.4561 24.7607 30.4326L21.623 30.2968C21.441 29.906 21.2591 29.5149 21.0766 29.1244L18.7424 24.1318C18.2316 22.9813 17.7089 21.8359 17.2101 20.6802C17.1162 20.4624 17.0433 20.2359 16.9649 20.0121C16.8864 19.7879 16.778 19.4809 16.8955 19.25C16.9985 19.0508 17.2415 18.9639 17.4424 18.9013C17.5459 18.869 17.6518 18.8435 17.7586 18.8235C18.6303 18.6596 19.5046 18.509 20.3772 18.3493L22.7308 17.9184L22.637 18.1895L22.5239 18.7034L22.5181 18.7358C22.4377 19.6185 22.3259 20.4986 22.2768 21.3834C22.2204 22.4003 22.2103 23.4196 22.2014 24.4379C22.1973 24.9151 22.208 25.393 22.2375 25.8692C22.2634 26.2839 22.2995 26.6996 22.3676 27.1095C22.4273 27.4702 22.5192 27.8257 22.6205 28.1771C22.7706 28.6982 23.0519 29.2125 23.502 29.5319C23.6568 29.6418 23.8327 29.723 24.0181 29.7645C24.6048 29.8962 25.2249 29.5999 25.6842 29.2579C26.1714 28.8951 26.6961 28.4813 27.1045 28.0136L28.4841 26.4332C28.7557 26.9069 29.0488 27.3692 29.299 27.8546C29.5435 28.3286 29.7491 28.822 29.9668 29.3091C30.0777 29.5572 30.1854 29.9613 29.9936 30.2019C29.9794 30.2199 29.9635 30.2363 29.9463 30.2515Z" fill="white"/>
</g>
<defs>
<clipPath id="clip0_34_198">
<rect width="30" height="30" fill="white" transform="translate(21.2891 4) rotate(35.1898)"/>
</clipPath>
</defs>
</svg>
