<svg width="155" height="120" viewBox="0 0 155 120" fill="none" xmlns="http://www.w3.org/2000/svg">
<g opacity="0.1">
<path d="M125.174 77.884C124.601 77.905 124.491 78.3351 124.439 78.7713C124.376 79.2943 124.046 79.9169 124.679 80.2804C125.03 80.4819 125.476 80.4231 125.702 79.9783C125.812 79.763 125.855 79.5126 125.881 79.4292C126.117 78.2722 125.895 77.8577 125.174 77.884Z" fill="white"/>
<path d="M93.472 111.43C93.0158 111.444 92.8187 111.948 92.6843 112.332C92.5587 112.689 92.9568 112.635 93.1167 112.698C93.6616 112.859 93.9746 112.562 94.0408 112.158C94.094 111.833 93.7497 111.421 93.472 111.43Z" fill="white"/>
<path d="M148.321 76.9326C147.693 76.4351 147.005 76.0241 146.254 75.7214C143.488 74.6057 140.712 74.6429 137.984 75.7669C134.783 77.0861 131.454 77.7066 128.02 77.859C127.034 77.9028 126.724 78.2358 126.769 79.2397C126.814 80.2224 127.021 80.3881 128.127 80.316C128.401 80.2981 128.676 80.2812 128.949 80.2488C131.541 79.9412 134.048 79.3331 136.538 78.5049C139.004 77.6847 141.605 77.3047 144.226 77.7249C145.551 77.9373 146.947 78.1302 147.978 79.0898C149.059 80.0963 150.06 81.2023 151.008 82.3389C151.846 83.3426 152.434 84.5098 152.658 85.8301C152.789 86.6055 152.62 87.2835 152.115 87.9066C150.336 90.1024 147.874 90.6306 145.271 90.6796C143.782 90.7077 142.276 90.6398 141.068 89.4396C140.535 88.9107 139.906 89.1255 139.563 89.8196C138.691 91.5797 137.532 93.1453 136.299 94.6441C134.094 97.3233 131.473 99.492 128.307 100.952C127.736 101.216 127.479 101.191 127.269 100.514C126.853 99.1711 126.155 97.9504 125.255 96.8773C124.132 95.5393 122.85 94.3891 121.158 93.811C116.904 92.358 112.55 94.8914 110.257 97.1866C109.735 97.7096 110.33 97.9217 110.555 98.2283C110.837 98.6128 111.087 98.6108 111.431 98.2362C112.399 97.182 113.507 96.2875 114.81 95.6925C117.178 94.6111 119.572 94.2301 121.962 95.6533C124.129 96.9437 125.384 98.9894 126.446 101.194C126.629 101.575 126.426 101.723 126.12 101.775C125.844 101.822 125.497 102.236 125.295 101.663C124.617 99.7487 123.084 98.6368 121.468 97.6627C118.867 96.0956 116.247 96.2479 113.72 97.8669C112.079 98.9182 110.956 100.405 110.423 102.305C110.233 102.982 109.813 102.991 109.297 102.812C108.629 102.58 109.167 102.221 109.243 101.935C109.321 101.639 109.471 101.361 109.604 101.082C110.176 99.8747 110.178 99.8756 108.993 99.0479C108.419 99.8644 108.042 100.776 107.785 101.725C107.62 102.333 107.37 102.513 106.75 102.366C105.045 101.958 103.304 101.686 101.617 101.218C97.0755 99.9598 92.5705 98.5907 88.589 95.9153C87.7941 95.3811 87.7761 95.3819 88.4633 94.7539C90.2434 93.127 91.8939 91.374 93.4013 89.4895C96.1447 86.0596 98.3868 82.3491 99.5757 78.0582C100.023 76.4453 100.247 74.7896 100.476 73.1731C100.794 73.0831 100.948 73.2888 101.121 73.3898C107.706 77.2348 114.854 79.3019 122.347 80.2883C122.68 80.3321 123.08 80.4441 123.242 80.0614C123.385 79.7197 122.909 79.6941 122.706 79.4809C123.204 79.4211 123.691 79.4392 123.746 78.8465C123.793 78.3487 123.518 78.0353 123.063 77.8682C122.776 77.7628 122.5 77.6164 122.206 77.5448C120.891 77.2252 119.575 76.9101 118.252 76.6268C117.681 76.5045 117.438 76.3204 117.562 75.6357C118.028 73.0451 117.934 70.4455 117.379 67.877C117.226 67.1663 117.321 66.929 118.085 66.8566C119.62 66.711 120.932 66.0509 121.749 64.6669C122.872 62.765 122.301 60.3284 120.408 58.8794C119.118 57.8925 117.634 57.2938 116.106 56.7928C110.647 55.0025 105.482 57.5467 103.573 62.9904C102.842 65.0728 102.424 67.2349 102.054 69.4074C102.01 69.6631 102.051 69.9579 101.848 70.1645C100.841 69.8766 100.238 69.3332 100.23 68.21C100.225 67.6318 100.02 67.0545 99.9025 66.4772C99.8403 66.1716 99.7848 65.8678 99.8872 65.5592C101.376 61.0734 103.169 56.7472 106.053 52.9497C107.629 50.8746 109.625 49.4886 112.103 48.7778C112.395 48.6938 112.705 48.6575 112.96 48.4597C113.261 48.2276 113.427 47.939 113.246 47.5786C113.085 47.2588 112.787 47.2095 112.45 47.3051C109.926 48.0228 107.594 49.0868 105.809 51.1081C103.43 53.8012 101.723 56.9075 100.376 60.2279C99.9644 61.2428 99.598 62.2764 99.1661 63.4197C98.8076 62.7727 98.6459 62.2767 98.8293 61.6393C99.4032 59.6456 100.086 57.6944 101.033 55.8538C102.667 52.6758 104.507 49.5905 107.351 47.3819C112.916 43.0608 118.929 42.2685 125.303 45.569C126.916 46.4044 128.517 47.2514 130.26 47.8069C134.993 49.3148 139.358 48.7965 143.26 45.5429C143.922 44.9909 144.56 44.4098 145.226 43.8631C145.491 43.6453 145.828 43.4827 146.164 43.6616C146.548 43.8666 146.417 44.2572 146.36 44.58C146.285 45.0053 146.161 45.4137 145.95 45.8043C144.842 47.8554 143.342 49.5993 141.445 50.8794C138.228 53.0496 134.723 53.2256 131.137 51.8467C128.806 50.9504 126.63 49.7147 124.407 48.5847C122.244 47.485 120.03 46.6205 117.568 46.5602C117.129 46.5495 116.826 46.5984 116.803 47.0966C116.783 47.5307 116.893 47.9032 117.397 47.9952C117.518 48.0173 117.641 48.0243 117.763 48.0376C119.675 48.2453 121.479 48.7823 123.209 49.6588C125.406 50.7719 127.538 52.0177 129.803 52.9926C131.626 53.7766 133.497 54.4724 135.491 54.432C141.146 54.3175 145.352 51.5775 148.401 46.8946C148.957 46.0404 149.34 45.0804 149.492 44.0506C149.677 42.807 149.307 41.8419 148.47 41.3632C147.588 40.8589 146.305 40.9935 145.487 41.8374C144.27 43.0927 142.858 44.0863 141.419 45.0252C138.807 46.7294 135.96 47.5085 132.817 46.945C130.606 46.5487 128.571 45.7094 126.623 44.6238C119.959 40.9114 113.451 41.4183 107.167 45.4793C103.927 47.5731 101.331 50.4015 99.1455 53.586C98.1728 55.0029 97.3395 56.5176 96.382 58.0877C95.1701 56.2659 93.6818 54.7731 92.0944 53.2993C93.8501 52.4061 95.3877 51.4378 96.8955 50.424C98.755 49.1737 100.357 47.6588 101.562 45.7334C103.842 42.0906 105.103 38.1174 105.362 33.8237C105.788 26.7652 103.898 20.5677 98.6302 15.6465C96.671 13.8163 94.5425 12.3786 91.7246 12.3351C88.8282 12.2903 86.9024 14.0829 86.9522 16.8948C87.0051 19.8863 88.9463 22.036 90.3416 24.4157C90.5268 24.7315 91.1843 24.6363 91.5828 24.3422C92.0351 24.0083 91.5995 23.7435 91.4616 23.5081C91.0238 22.7603 90.5551 22.0293 90.0672 21.3135C89.0342 19.7979 88.872 18.1416 89.3617 16.4319C89.6629 15.3807 90.4251 14.5383 91.525 14.5538C93.2127 14.5776 94.9729 14.8109 96.271 16.0281C99.2651 18.836 101.724 22.0277 102.58 26.1973C102.977 28.1342 103.241 30.0899 103.146 32.2335C101.744 31.1677 100.285 30.568 98.697 30.2654C97.0891 29.9591 95.4864 30.0481 93.8627 30.3311C93.8209 30.0346 93.7894 29.8215 93.7615 29.6078C93.7334 29.3926 93.7279 29.1724 93.6787 28.9624C93.5974 28.6151 93.7215 28.1065 93.3296 27.9783C92.9811 27.8643 92.6854 28.2708 92.3617 28.4379C91.8816 28.6857 92.0492 29.1289 92.0522 29.5113C92.0906 34.61 90.259 38.8829 86.497 42.2875C84.377 44.2059 81.6893 44.8333 79.0354 45.5178C78.6886 45.6072 78.3802 45.4284 78.0618 45.3091C75.9494 44.5171 73.8023 43.8849 71.5238 43.8267C71.1411 43.8168 70.73 43.94 70.3654 43.7133C70.2988 43.3957 70.473 43.1547 70.5733 42.9075C72.1789 38.9522 72.9433 34.8369 72.938 30.5631C72.9176 13.9653 59.1029 1.73773 42.8397 3.95908C36.6621 4.80286 31.2785 7.43593 26.5789 11.5217C26.0794 11.9559 25.7373 12.0554 25.1715 11.6209C24.5161 11.1176 23.7664 10.7323 23.0358 10.337C18.6858 7.98308 14.0668 6.2748 9.43088 4.61629C8.28243 4.20552 7.34796 3.82883 6.94823 2.41063C6.55178 1.00415 5.33991 0.0811333 3.83401 0.00489731C2.51577 -0.0619285 1.39706 0.557646 0.644924 1.71019C-0.497524 3.46089 -0.0699761 6.40777 1.51543 7.77047C2.57796 8.6838 4.10963 8.98765 5.20216 8.26047C6.03176 7.70827 6.67343 7.83743 7.46893 8.21084C10.5241 9.64527 13.503 11.2326 16.5207 12.742C18.4037 13.684 20.2498 14.6878 22.065 15.7932C20.8597 17.2395 20.1557 18.9028 19.2601 20.4442C16.088 25.9034 14.5905 31.8074 14.8731 38.1515C15.4883 51.9636 25.6023 62.5031 39.2064 63.5051C39.8687 63.5539 40.5343 63.5572 41.3113 63.5858C41.0822 64.0852 40.9101 64.4765 40.7248 64.8614C39.8947 66.5875 39.5534 68.4417 39.2761 70.3202C39.166 71.0655 39.5843 71.2162 40.139 71.3474C40.8691 71.5199 40.7681 70.9482 40.8391 70.5642C41.155 68.8573 41.3863 67.1314 41.9283 65.4758C42.15 64.7982 42.2492 64.0532 42.8265 63.5363C41.8466 66.6324 40.7628 69.6957 40.6764 73.1182C40.4108 72.641 40.0383 72.6316 39.7324 72.5116C39.5122 72.4251 39.2255 72.3058 39.0868 72.6147C38.8936 73.0449 38.8528 73.5171 38.9429 73.9793C38.9975 74.2588 39.2739 74.2535 39.4752 74.2035C40.4646 73.9577 40.7099 74.4218 40.5553 75.3071C40.5302 75.4508 40.548 75.6023 40.5458 75.7538C38.7246 75.581 38.7371 75.5813 38.689 77.3904C38.6502 78.8461 38.5491 80.2954 38.3866 81.7466C37.5862 88.8968 35.2213 95.4122 30.9227 101.195C29.4307 103.202 28.0784 105.316 26.868 107.514C26.2681 108.603 25.7692 109.733 25.5988 110.984C25.3026 113.157 26.452 114.741 28.5698 115.168C29.8052 115.416 30.9523 115.216 32.0631 114.679C37.1456 112.223 40.9834 108.385 44.0337 103.679C44.8319 102.448 45.4586 101.118 46.0762 99.7184C46.5058 100.083 46.8522 100.387 47.2089 100.678C48.1702 101.461 48.1433 101.428 48.7692 100.351C49.2154 99.5823 49.1025 99.1405 48.3855 98.6001C47.098 97.6295 46.0854 96.3704 45.1738 95.0297C43.1499 92.0525 42.093 88.6984 41.3469 85.2176C40.7345 82.3609 40.4158 79.4773 40.5086 76.5541C40.569 76.746 40.6127 76.9401 40.6273 77.1362C40.673 77.7514 40.703 78.3678 40.7474 78.9832C41.1759 84.9203 42.9084 90.375 46.4477 95.2221C48.0217 97.3777 49.8818 99.1948 51.9655 100.811C51.9875 100.821 52.0094 100.83 52.0312 100.839C52.0476 100.861 52.063 100.884 52.0807 100.906C52.094 100.922 52.1105 100.935 52.1255 100.949C52.0884 100.916 52.0513 100.883 52.0142 100.849C51.9978 100.837 51.9819 100.824 51.9655 100.811C51.5587 100.635 51.1339 100.326 50.7579 100.377C50.2985 100.44 50.3018 101.125 50.0191 101.48C49.507 102.123 49.7514 102.461 50.4056 102.8C54.5739 104.964 58.9823 106.035 63.6656 105.713C64.7978 105.636 65.694 105.896 66.5432 106.592C69.6506 109.138 73.0277 111.301 76.3145 113.593C79.2329 115.629 82.2711 117.416 85.603 118.698C92.7465 121.446 102.315 119.865 107.598 113.764C109.632 111.416 111.502 108.968 112.337 105.89C112.464 105.423 112.753 105.451 113.107 105.461C115.569 105.531 118.023 105.399 120.467 105.111C128.102 104.213 134.351 100.931 138.667 94.3296C139.336 93.3072 140.073 92.329 140.53 91.2094C140.633 91.2284 140.671 91.2237 140.691 91.2408C140.924 91.4414 141.155 91.6442 141.385 91.8488C143.103 93.3778 145.089 94.1114 147.393 93.9911C151.406 93.7815 154.017 91.5404 154.391 87.8407C154.58 85.9749 154.159 84.1896 153.229 82.5609C151.97 80.3572 150.301 78.4998 148.321 76.9326ZM140.39 76.8934L140.408 76.8507L140.451 76.8901L140.39 76.8934ZM142.515 76.8003C142.502 76.8049 142.49 76.8074 142.477 76.8127C142.469 76.8104 142.46 76.8079 142.451 76.8055C142.173 76.9699 141.88 76.767 141.597 76.8204C141.582 76.8304 141.568 76.8405 141.553 76.8521C141.542 76.8479 141.53 76.8432 141.519 76.8386C141.373 76.863 141.22 76.962 141.081 76.7962C141.244 76.7144 141.381 76.784 141.519 76.8386C141.526 76.8374 141.533 76.8354 141.54 76.8348C141.559 76.8288 141.578 76.824 141.597 76.8204C141.874 76.6313 142.163 76.7265 142.451 76.8055C142.457 76.8022 142.462 76.7999 142.468 76.7963C142.483 76.7977 142.499 76.799 142.515 76.8003C142.868 76.6707 143.203 76.7798 143.562 76.8859C143.198 76.8562 142.856 76.8281 142.515 76.8003ZM120.445 62.0889C120.691 62.8746 120.481 63.525 119.936 64.0862C120.197 63.4365 120.24 62.7384 120.445 62.0889ZM115.145 58.4187C116.218 58.6699 117.229 59.1478 118.228 59.6419C119.101 60.0735 119.502 60.7535 119.632 61.6711C119.876 63.3855 118.765 64.9739 117.096 65.2882C115.704 65.5505 115.233 66.1997 115.503 67.6768C115.811 69.3548 116.181 71.0222 116.21 72.736C116.225 73.6342 116.181 74.5332 116.173 75.4318C116.17 75.8384 116.037 75.9675 115.609 75.8537C111.88 74.8588 108.303 73.4689 104.858 71.7195C104.475 71.5249 104.407 71.2762 104.499 70.896C104.586 70.535 104.635 70.1645 104.74 69.5776C105.352 66.9932 106.149 64.2346 107.514 61.6914C109.503 57.9851 111.439 57.5517 115.145 58.4187ZM103.397 70.2167C104.026 67.9889 104.602 65.7437 105.303 63.539C105.718 62.2327 106.309 60.9778 107.522 60.1793C107.527 60.1667 107.533 60.1542 107.539 60.1414C107.55 60.1402 107.558 60.1367 107.568 60.1343C107.643 60.0228 107.718 59.9114 107.794 59.7998C107.805 59.802 107.812 59.8054 107.82 59.8087C107.824 59.8084 107.829 59.8081 107.834 59.8077C107.833 59.8107 107.832 59.8121 107.831 59.8148C107.789 59.8928 107.872 59.8459 107.831 59.8148C107.828 59.8125 107.824 59.8107 107.82 59.8087C107.809 59.8093 107.798 59.8099 107.787 59.8106C107.714 59.9183 107.733 60.0966 107.568 60.1343C107.563 60.1422 107.557 60.1503 107.552 60.1582C107.542 60.165 107.532 60.1724 107.522 60.1793C106.95 61.4876 106.178 62.6959 105.683 64.0457C104.928 66.1066 104.315 68.201 103.968 70.3744C103.929 70.6198 104.063 71.1274 103.571 71.0335C103.045 70.9328 103.309 70.5274 103.397 70.2167ZM100.614 71.363C106.992 75.5858 114.146 77.6753 121.496 79.2698C114.279 78.6445 107.629 76.1702 101.275 72.758C100.772 72.4882 100.27 72.2344 100.614 71.363ZM147.649 42.628C148.091 42.9518 148.024 43.5274 147.864 44.0033C147.384 45.4297 146.753 46.7725 145.602 47.7924C145.596 47.8073 145.59 47.8218 145.584 47.8368C145.573 47.8385 145.566 47.8423 145.556 47.8448C145.497 47.9392 145.437 48.0335 145.377 48.1279C145.373 48.1489 145.369 48.1698 145.363 48.1897C145.278 48.2369 145.193 48.2841 145.108 48.3313C145.048 48.406 144.988 48.4807 144.928 48.5553C144.908 48.5849 144.888 48.6147 144.868 48.6443C144.864 48.6448 144.86 48.6455 144.857 48.646C144.856 48.7153 144.84 48.7182 144.808 48.6541C144.824 48.6513 144.841 48.6488 144.857 48.646C144.857 48.6456 144.857 48.6455 144.857 48.6451C144.881 48.6152 144.905 48.5852 144.928 48.5553C144.984 48.4743 145.039 48.3932 145.095 48.3122C145.18 48.2654 145.265 48.2186 145.349 48.1717C145.359 48.1571 145.368 48.1425 145.377 48.1279C145.4 48.0098 145.41 47.8843 145.556 47.8448C145.561 47.8368 145.566 47.8286 145.571 47.8204C145.582 47.8111 145.592 47.8014 145.602 47.7922C145.97 46.8704 146.659 46.1024 146.858 45.0984C147.011 44.3268 147.194 43.5568 146.3 43.0047C146.804 42.7199 147.205 42.3026 147.649 42.628ZM91.05 13.9651C91.0323 13.9659 91.0153 13.9677 90.9977 13.9688C89.4263 14.7229 88.5556 15.9712 88.4971 17.9503C87.7338 15.7095 88.8387 14.097 90.9977 13.9688C91.0114 13.9622 91.0241 13.955 91.0379 13.9486C91.0553 13.949 91.0729 13.9493 91.0906 13.9497C91.1675 13.9128 91.2434 13.8444 91.3592 13.9551C91.2558 13.9531 91.1716 13.9513 91.0906 13.9497C91.0771 13.9561 91.0638 13.9618 91.05 13.9651ZM92.322 13.9184C92.3393 13.9201 92.357 13.9197 92.3738 13.9239C92.3846 13.9266 92.3937 13.9359 92.4035 13.9422C92.3764 13.9341 92.3493 13.9263 92.322 13.9184ZM5.43183 4.8169C5.32014 5.38342 5.06715 5.87016 4.59787 6.21343C3.96916 6.6733 3.22535 6.58301 2.83503 5.92853C2.16391 4.80326 1.97599 3.61445 2.63838 2.4034C3.00947 1.72478 3.48161 1.59876 4.17087 1.96344C5.13794 2.47514 5.65767 3.65249 5.43183 4.8169ZM39.2168 85.9079C39.4246 86.5883 39.2342 87.2108 39.1349 87.8382C39.0291 88.5072 38.8537 89.1546 38.6639 89.8058C38.4753 90.4529 38.2054 91.0653 37.9834 91.7013C38.514 89.8078 38.9076 87.886 39.2168 85.9079ZM37.6686 92.4882C37.6715 92.4731 37.6959 92.4621 37.7103 92.4492C37.7073 92.502 37.7043 92.5547 37.7013 92.6074C37.6841 92.6196 37.6683 92.6317 37.6525 92.6438C37.6574 92.5919 37.6592 92.5394 37.6686 92.4882ZM33.4957 100.766C33.5152 100.777 33.5345 100.789 33.554 100.8C33.5348 100.819 33.5156 100.838 33.4963 100.857C33.4963 100.859 33.4963 100.86 33.4963 100.862C33.4928 100.864 33.4893 100.866 33.4857 100.867C33.4846 100.868 33.4835 100.87 33.4824 100.871C33.4672 100.902 33.452 100.933 33.4367 100.964C33.4245 100.946 33.4123 100.927 33.4002 100.909C33.4287 100.895 33.4572 100.881 33.4857 100.867C33.4893 100.864 33.4928 100.86 33.4963 100.857C33.4961 100.827 33.4959 100.796 33.4957 100.766ZM27.8943 109.788C29.1179 107.001 30.8206 104.51 32.6567 102.107C32.6695 102.08 32.683 102.052 32.6955 102.024C32.7014 102.024 32.7055 102.022 32.7109 102.022C32.7338 101.88 32.8083 101.787 32.9477 101.757C32.9546 101.748 32.9612 101.739 32.9695 101.731C32.9792 101.72 32.9892 101.708 32.9991 101.697C33.0145 101.651 33.0299 101.606 33.0452 101.561C33.0524 101.579 33.0707 101.604 33.0648 101.613C33.0452 101.642 33.0222 101.67 32.9991 101.697C32.9931 101.714 32.987 101.732 32.981 101.75C32.9692 101.752 32.9586 101.754 32.9477 101.757C32.8743 101.851 32.869 102.009 32.7111 102.022C32.7101 102.028 32.7085 102.034 32.7077 102.04C32.6906 102.062 32.6737 102.085 32.6567 102.107C31.8556 103.844 30.7217 105.386 29.8066 107.056C28.9387 108.641 27.9919 110.186 27.6154 112.001C27.4066 111.223 27.5928 110.475 27.8943 109.788ZM40.6692 105.533C37.9004 108.559 34.8922 111.267 31.0917 112.934C30.4633 113.209 29.8207 113.4 29.134 113.268C28.4762 113.252 28.4054 112.83 28.4483 112.309C28.5624 110.918 29.1047 109.68 29.7945 108.504C31.4445 105.691 33.1194 102.892 34.7692 100.078C35.0209 99.6488 35.2256 99.5366 35.6818 99.8538C37.5696 101.166 39.194 102.758 40.6957 104.492C41.0297 104.878 40.9964 105.175 40.6692 105.533ZM42.9814 102.279C42.5152 102.959 42.0986 103.674 41.4614 104.412C40.0828 102.031 38.2425 100.283 36.1054 98.843C35.7146 98.5795 35.7571 98.3276 35.9257 97.9967C36.1204 97.6143 36.3178 97.2333 36.5099 96.8495C36.9485 95.9731 36.9676 95.9444 37.8069 96.5521C39.6798 97.9082 41.42 99.4148 42.8915 101.222C43.1883 101.587 43.2648 101.866 42.9814 102.279ZM40.3424 89.5287C41.1764 92.4867 42.4852 95.2187 44.3534 97.644C44.908 98.3641 44.9564 98.9127 44.4567 99.6011C44.2272 99.9174 44.156 100.343 43.7611 100.629C42.5053 98.7851 40.8851 97.3286 39.184 95.9471C38.662 95.5231 37.7774 95.3733 37.6211 94.7579C37.4668 94.1497 38.0741 93.5239 38.3123 92.891C38.9173 91.2839 39.4809 89.6652 39.8923 87.9539C40.0424 88.4787 40.1942 89.0031 40.3424 89.5287ZM91.5926 100.246C91.627 100.27 91.6364 100.33 91.652 100.382C91.6603 100.386 91.6685 100.39 91.6768 100.394C91.6802 100.399 91.6843 100.402 91.6877 100.407C91.8988 100.403 92.0921 100.437 92.2028 100.648C92.2129 100.652 92.2233 100.655 92.2332 100.659C92.2373 100.666 92.2425 100.67 92.2467 100.676C92.4906 100.71 92.7307 100.753 92.9021 100.957C92.9127 100.96 92.9234 100.963 92.9337 100.966C92.956 100.979 92.9788 100.992 93.0012 101.005C95.1862 101.734 97.3126 102.637 99.5373 103.25C99.9797 103.371 100.417 103.512 100.845 103.678C98.0908 103.208 95.4398 102.427 93.0012 101.005C92.974 100.996 92.9472 100.986 92.92 100.977C92.9144 100.97 92.908 100.964 92.9021 100.957C92.6733 100.888 92.4029 100.915 92.2467 100.676C92.2366 100.675 92.2265 100.674 92.2164 100.672C92.2123 100.663 92.2072 100.657 92.2028 100.648C92.0225 100.586 91.8167 100.579 91.6877 100.407C91.6784 100.407 91.6693 100.407 91.66 100.407C91.6569 100.399 91.6546 100.391 91.652 100.382C89.6597 99.4516 87.8497 98.2115 85.9636 96.9841C86.1904 96.6684 86.3553 96.2816 86.789 96.6905C88.2511 98.0693 89.9456 99.1244 91.5926 100.246ZM94.6008 83.3514C93.9144 84.4762 93.3229 85.6817 92.3103 86.5732C92.2968 86.596 92.2831 86.6186 92.2695 86.6414C92.2647 86.6494 92.2601 86.6576 92.2553 86.6658C92.2512 86.8117 92.2035 86.9316 92.0633 86.9962C92.0562 87.0085 92.049 87.0209 92.0417 87.0333C92.0211 87.0478 91.9995 87.0613 91.9801 87.0774C91.9666 87.0886 91.9562 87.1034 91.9444 87.1167C91.972 87.0819 91.9997 87.0471 92.0274 87.0123C92.0405 87.0077 92.0514 87.0018 92.0631 86.9964C92.1271 86.8862 92.1912 86.776 92.2552 86.6659C92.2556 86.6515 92.2561 86.6372 92.2558 86.6222C92.2744 86.6062 92.2919 86.5894 92.3101 86.5733C93.8439 84.0071 95.3916 81.4481 96.4667 78.6367C96.8176 77.7191 97.1591 76.7978 97.4889 75.9212C97.3563 77.5775 96.1118 80.8753 94.6008 83.3514ZM98.1307 60.7403C99.094 57.0179 100.769 53.6792 103.383 50.8515C103.432 50.7992 103.511 50.776 103.583 50.7456C103.59 50.7349 103.597 50.7243 103.604 50.7137C103.61 50.7127 103.615 50.7105 103.621 50.7094C103.631 50.5637 103.705 50.46 103.829 50.3895C103.829 50.3799 103.83 50.3703 103.831 50.3607C103.845 50.354 103.859 50.3475 103.873 50.3408C103.921 50.2819 103.979 50.2429 104.059 50.2534C104.067 50.2494 104.076 50.2455 104.084 50.2415C104.096 50.2249 104.108 50.2084 104.119 50.1917C104.149 50.0787 104.17 49.9599 104.313 49.9194C104.315 49.9163 104.317 49.9131 104.32 49.91L104.341 49.8843L104.313 49.9193C104.313 49.9193 104.313 49.9194 104.313 49.9195C104.248 50.0104 104.184 50.1011 104.119 50.1919C104.113 50.2158 104.107 50.2395 104.098 50.262C104.085 50.2578 104.071 50.2552 104.059 50.2534C103.997 50.2826 103.935 50.3116 103.873 50.3408C103.863 50.3529 103.853 50.3658 103.844 50.3794C103.838 50.3824 103.834 50.3865 103.829 50.3895C103.819 50.5353 103.799 50.674 103.621 50.7094C103.62 50.7168 103.618 50.7228 103.618 50.7304C103.607 50.736 103.595 50.7405 103.583 50.7456C102.401 52.5311 101.198 54.3004 100.269 56.2445C99.6152 57.6126 99.0586 59.0118 98.646 60.4706C98.5705 60.7378 98.5345 61.0207 98.2927 61.2085C98.0783 61.1066 98.085 60.9173 98.1307 60.7403ZM95.1585 31.3902C97.356 31.1498 99.515 31.3522 101.529 32.388C102.606 32.9422 103.375 33.6353 103.11 35.0684C102.943 35.9761 102.871 36.9065 102.636 37.9737C101.821 37.1959 101.208 36.4237 100.397 35.8553C98.6252 34.6134 96.6316 34.061 94.5262 33.8621C93.9629 33.8089 93.7135 33.6502 93.7466 33.041C93.8409 31.3125 93.4194 31.5805 95.1585 31.3902ZM93.2454 35.5426C93.3392 35.2739 93.5418 35.288 93.7642 35.2869C96.9757 35.2712 99.672 36.4596 101.871 38.8157C102.111 39.0737 102.28 39.3493 102.128 39.7319C101.858 40.4147 101.606 41.1045 101.306 41.8973C98.8019 39.4648 95.9467 38.0214 92.3731 37.986C92.6925 37.0938 92.9737 36.3199 93.2454 35.5426ZM90.1807 41.491C90.268 41.3642 90.3951 41.2547 90.4476 41.1156C91.0306 39.5714 92.1673 39.3203 93.6663 39.5056C96.1387 39.8113 98.3872 40.5495 100.311 42.2091C100.842 42.6674 100.864 43.0297 100.544 43.62C99.2023 46.0934 97.4137 48.1271 95.0103 49.592C93.7481 50.3611 92.4899 51.1371 91.2385 51.9239C90.9225 52.1226 90.6568 52.2024 90.3202 51.9483C88.1045 50.2759 85.7373 48.8394 83.2374 47.4104C85.8797 45.6841 88.4196 44.0507 90.1807 41.491ZM85.3731 44.788C85.8361 44.541 86.2185 44.1068 86.7907 44.0848C86.7993 44.0788 86.8081 44.0728 86.8166 44.0667C86.8229 44.0588 86.8293 44.0507 86.8356 44.0428C86.8758 43.8471 87.0275 43.7418 87.1666 43.6265C87.1894 43.5978 87.2121 43.5692 87.2349 43.5404C87.309 43.494 87.383 43.4478 87.4571 43.4014C87.5247 43.3627 87.5924 43.3238 87.6601 43.2851C87.6717 43.2771 87.6832 43.269 87.6948 43.261C87.6987 43.2601 87.7027 43.2593 87.7067 43.2585C87.7068 43.2584 87.7069 43.2584 87.7071 43.2582C87.7214 43.2554 87.7357 43.2524 87.75 43.2495C87.7356 43.2525 87.7211 43.2555 87.7067 43.2585C87.6911 43.2674 87.6757 43.2762 87.6601 43.2851C87.5965 43.3296 87.5328 43.3741 87.4691 43.4186C87.395 43.4643 87.3208 43.5098 87.2468 43.5555C87.2213 43.5802 87.1941 43.6034 87.1666 43.6263C87.0563 43.7652 86.9459 43.9041 86.8356 44.0428C86.8329 44.0563 86.8285 44.0683 86.8269 44.0826C86.8145 44.0828 86.8029 44.0841 86.7907 44.0846C85.6192 44.9039 84.4404 45.7132 83.2794 46.5474C82.6113 47.0276 82.0083 46.9986 81.3062 46.3354C82.7666 45.9354 84.1081 45.4628 85.3731 44.788ZM79.7881 48.5945C79.7967 48.5968 79.8053 48.5991 79.8138 48.6014C79.8282 48.6099 79.8426 48.6182 79.8569 48.6267C80.0767 48.6816 80.3096 48.7112 80.5046 48.814C85.0102 51.1898 89.4002 53.7406 92.8916 57.5714C93.8481 58.6208 94.815 59.6832 95.3099 61.0649C95.3227 61.0824 95.3362 61.0993 95.3491 61.1169C95.4096 61.1954 95.4702 61.2736 95.5307 61.3521C95.5813 61.4227 95.6319 61.4934 95.6827 61.564C95.7296 61.6353 95.7765 61.7067 95.8234 61.7778C95.8902 61.8012 95.8899 61.822 95.8224 61.8403C95.8204 61.82 95.8185 61.7998 95.8164 61.7795C95.6571 61.7871 95.6514 61.6865 95.6702 61.5686C95.5429 61.5573 95.536 61.4546 95.5161 61.3619C95.4549 61.2829 95.3937 61.2041 95.3323 61.1251C95.3252 61.1047 95.3172 61.085 95.3099 61.0649C92.2662 56.8941 88.3028 53.7785 83.991 51.0717C82.6351 50.2205 81.2365 49.4391 79.8568 48.6268C79.8378 48.622 79.8189 48.6175 79.8003 48.6123C79.7965 48.6058 79.792 48.6006 79.7881 48.5945C79.6454 48.5557 79.4983 48.5159 79.2689 48.4537C79.5521 48.3809 79.6892 48.4457 79.7881 48.5945ZM78.6295 48.087C78.6548 48.0885 78.6794 48.0975 78.7044 48.1041C78.6988 48.1197 78.6927 48.1491 78.6878 48.1489C78.6625 48.1477 78.6376 48.139 78.6125 48.1328C78.6183 48.1167 78.6248 48.0867 78.6295 48.087ZM77.0782 47.4239C77.098 47.4363 77.1178 47.4487 77.1374 47.4613C77.1144 47.4648 77.0902 47.4747 77.0688 47.4702C77.0475 47.4658 77.0293 47.4471 77.0098 47.4347C77.0325 47.431 77.0553 47.4275 77.0782 47.4239ZM76.1936 47.1213C73.9359 46.4892 71.6661 45.9341 69.2398 46.046C69.2886 45.6316 69.3923 45.4164 69.8155 45.5064C71.961 45.9632 74.1815 46.1109 76.1936 47.1213ZM70.1722 32.526C70.1084 32.2938 70.0348 32.0637 69.9823 31.8288C68.5512 25.4339 64.9781 20.617 59.4363 17.2468C59.1887 17.0962 58.8921 17.01 58.7225 16.7468C58.7105 16.7422 58.6988 16.737 58.6868 16.7323C58.6848 16.7263 58.6822 16.7214 58.68 16.7158C58.4824 16.6985 58.3009 16.6494 58.1856 16.4702C58.1724 16.465 58.1594 16.4593 58.147 16.4525C58.1424 16.445 58.1373 16.4382 58.1326 16.4308C58.0053 16.3993 57.8743 16.367 57.6915 16.3218C57.9343 16.1982 58.0424 16.2933 58.1326 16.4308C58.1433 16.4334 58.1542 16.4361 58.1649 16.4389C58.1713 16.4503 58.1787 16.4596 58.1855 16.4702C58.3576 16.5377 58.5905 16.4855 58.6798 16.7158C58.6873 16.7165 58.6947 16.7175 58.7024 16.718C58.7084 16.7285 58.7159 16.7368 58.7223 16.7468C60.7985 17.5524 62.5425 18.8815 64.1889 20.3468C66.9448 22.7999 68.7686 25.8903 70.0982 29.3057C70.5088 30.3599 70.2212 31.4429 70.1722 32.526ZM33.8632 44.3861C34.2305 44.7595 34.6074 45.1238 34.9627 45.5083C35.5452 46.1387 36.1102 46.7854 36.6886 47.4196C38.15 49.0222 40.7658 49.0561 42.7198 47.4842C43.6288 46.7531 44.3114 45.8535 44.5917 44.5947C45.0512 44.8622 45.2068 45.3114 45.4539 45.6646C46.5665 47.2552 47.9429 48.4852 49.8389 49.0294C50.4361 49.2008 51.0425 49.3219 51.6509 49.1111C51.9874 48.9945 52.1698 49.077 52.2658 49.4241C52.495 50.2527 52.5692 51.0767 52.1744 51.873C51.4638 53.3064 50.1987 53.5287 49.0342 52.44C48.8862 52.3015 48.7928 52.0627 48.4117 52.1552C48.4143 53.0878 49.0532 53.5296 49.7534 53.9037C50.5799 54.3454 51.3751 54.241 52.0301 53.585C52.7058 52.9084 53.1109 52.0801 53.149 51.1067C53.1679 50.6204 53.1225 50.1315 53.1058 49.6323C55.6438 50.7799 57.3371 50.4291 58.5808 48.5137C59.3862 47.2736 59.4332 45.2869 58.6108 44.5234C58.5897 45.3395 58.5514 46.1041 58.3632 46.8464C58.1221 47.7976 57.6659 48.6374 56.655 48.8391C55.5714 49.0554 54.7099 48.4709 53.9516 47.733C53.7297 47.5171 53.7672 47.2929 53.8606 47.0545C54.8792 44.4559 54.112 42.2737 52.3201 40.3276C52.2804 40.2845 52.2617 40.2218 52.2162 40.136C52.4243 39.921 52.719 39.9892 52.965 39.9386C55.8254 39.3504 57.2664 36.861 56.3714 34.0461C55.9977 32.8706 56.157 31.6558 56.1457 30.4558C56.1334 29.1523 56.2378 27.8606 56.5283 26.5827C56.6621 25.994 56.9049 25.9152 57.4242 26.1409C62.4166 28.3109 65.999 31.8257 67.7541 37.0996C67.9145 37.5814 67.9205 38.0702 67.8725 38.5686C66.7768 49.9269 57.7646 58.2332 46.5086 58.2474C44.7472 58.2496 43.0173 57.9699 41.3122 57.536C40.7748 57.3993 40.2553 57.2034 39.8305 56.8179C36.1928 53.5165 34.204 49.3918 33.8632 44.3861ZM38.8158 56.6235L38.79 56.5814C38.3259 56.5151 37.8953 56.3565 37.6004 55.9771C36.7734 54.9129 36.0342 53.795 35.6273 52.4895C35.6134 52.4696 35.5997 52.4494 35.5857 52.4296C35.5731 52.4091 35.5607 52.3888 35.5482 52.3684C35.5667 52.3845 35.5854 52.4007 35.6039 52.4168C35.6113 52.4412 35.6196 52.465 35.6271 52.4895C36.6189 53.9085 37.545 55.3791 38.8011 56.5902L38.8158 56.6235ZM35.356 51.8331L35.3301 51.7942C35.3297 51.7759 35.3294 51.7578 35.329 51.7395C35.3311 51.7563 35.3331 51.7731 35.3351 51.7897L35.356 51.8331ZM37.9011 33.196C37.5248 32.592 37.1694 31.9748 36.7874 31.3746C36.607 31.0912 36.5216 30.843 36.7393 30.5304C38.524 27.9673 40.8507 26.1567 43.8766 25.1835C44.5601 27.6431 45.1039 30.0558 45.9463 32.3794C46.5481 34.0393 47.1397 35.705 48.0908 37.2052C48.2854 37.512 48.333 37.7117 48.0143 37.9765C46.9005 38.902 45.8028 39.8478 44.7154 40.8048C44.328 41.1457 44.0421 41.1456 43.7611 40.6913C43.6659 40.5373 43.5294 40.3791 43.3733 40.2983C41.3917 39.272 40.5206 37.3068 39.3987 35.5517C39.2739 35.3566 39.2131 35.0307 38.9118 35.0678C38.6224 35.1034 38.4397 35.3679 38.3236 35.614C38.1782 35.9221 38.448 36.1369 38.6084 36.3463C39.3023 37.2521 40.0135 38.1447 40.7707 39.1086C37.8972 39.7109 35.7593 40.998 35.7552 44.4305C34.3558 43.4919 33.3747 42.6443 33.5328 40.8123C33.7811 37.9351 34.2935 35.1696 35.5934 32.5819C35.6764 32.4169 35.7291 32.2331 35.9797 32.1122C36.2803 32.668 36.5702 33.2386 36.8956 33.7879C37.0141 33.9879 37.091 34.4353 37.4651 34.1405C37.7387 33.9248 38.2403 33.7405 37.9011 33.196ZM44.9065 25.4771C45.3144 27.7027 46.0326 29.8427 46.6599 32.008C46.8007 32.494 47.0988 32.9433 47.0434 33.4804C47.0488 33.4882 47.053 33.4963 47.0583 33.5041C47.0583 33.5141 47.0593 33.5235 47.0594 33.5334C47.3454 33.7919 47.4378 34.1246 47.4239 34.4983C47.4295 34.5043 47.4342 34.5107 47.4398 34.5167C47.4392 34.5248 47.4399 34.5324 47.4396 34.5403C47.636 34.6878 47.709 34.8829 47.6672 35.1225C47.6727 35.1288 47.6775 35.1352 47.6831 35.1413C47.7484 35.2104 47.8137 35.2794 47.8789 35.3485C47.9006 35.4839 47.9223 35.6194 47.9439 35.7547C48.0033 35.8317 48.0627 35.9088 48.1221 35.9858L48.1407 36.0338L48.103 35.999C48.0434 35.9217 47.9836 35.8442 47.924 35.7668C47.9021 35.6319 47.8801 35.4969 47.8582 35.362C47.7928 35.2929 47.7275 35.2236 47.6622 35.1544C47.6645 35.1434 47.6653 35.1332 47.6671 35.1223C47.5229 34.9553 47.4325 34.7669 47.4395 34.5401C47.4338 34.5358 47.4291 34.5312 47.4232 34.527C47.4238 34.5171 47.4233 34.5077 47.4237 34.4981C47.1734 34.2256 47.0644 33.8992 47.0591 33.5332C47.0524 33.527 47.047 33.5205 47.04 33.5145C47.0415 33.5029 47.0419 33.4917 47.0432 33.4803C46.5586 32.7647 46.3449 31.9293 46.0985 31.1235C45.5389 29.2938 45.0518 27.4417 44.5437 25.5963C44.4844 25.3811 44.2903 25.0573 44.6587 24.9811C45.1409 24.8814 44.873 25.294 44.9065 25.4771ZM55.5798 25.327C54.0648 27.2344 54.3904 29.4857 54.4382 31.7826C52.4781 30.8659 50.0656 31.1257 48.4355 33.6704C48.1375 33.4493 48.0986 33.0895 47.9986 32.7814C47.2166 30.3696 46.4584 27.9498 45.6835 25.5355C45.5108 24.9979 45.584 24.6793 46.213 24.5349C48.6003 23.987 53.177 24.3348 55.5798 25.327ZM47.3609 20.2052C47.9926 20.4247 48.3246 20.9286 48.7497 21.3016C49.1603 21.6619 49.5347 22.0644 50.0661 22.5872C48.9647 22.6313 48.0586 22.6676 47.0758 22.7068C47.0137 21.8423 47.2286 21.0576 47.3609 20.2052ZM52.0841 41.8793C53.0943 42.999 53.549 44.2978 53.2846 45.8151C52.8859 48.1163 51.3364 48.8541 49.3188 47.7293C47.3653 46.6402 46.1345 44.8454 44.8555 43.104C44.6272 42.793 44.3962 42.3324 44.9531 41.9919C46.3038 41.1667 47.4067 40.0344 48.5551 38.9624C48.9132 38.6282 49.1022 38.548 49.474 38.9991C50.297 39.9984 51.216 40.917 52.0841 41.8793ZM49.8954 34.3293C49.8939 35.9663 50.1851 37.4467 51.7248 38.3714C50.1522 37.9459 49.5881 36.6995 49.8954 34.3293ZM50.9585 36.8809C50.5002 36.0408 50.4169 35.1213 50.5191 34.189C50.551 33.3362 51.0552 32.9921 51.8205 32.8886C52.9598 32.7344 53.8957 33.109 54.5757 34.0237C55.2687 34.956 55.3289 35.9658 54.716 36.9776C54.3149 37.6395 53.784 38.1731 52.9667 38.1598C52.0697 38.1454 51.3872 37.6671 50.9585 36.8809ZM45.5536 22.8745C45.6475 22.49 45.7413 22.1056 45.835 21.7212C45.8552 22.1245 45.9191 22.5529 45.5536 22.8745ZM38.3094 46.0222C37.6922 45.2239 37.503 43.9254 37.6986 42.8326C37.9933 41.1861 39.2855 40.1628 40.8135 40.3663C42.3037 40.5647 43.6044 42.1277 43.5178 43.6333C43.4392 44.9964 42.8041 46.0451 41.6816 46.7836C40.3454 47.6626 39.4126 47.4489 38.3094 46.0222ZM38.6983 47.2214C37.2817 46.7025 36.7606 45.6059 37.026 43.6971C37.2446 45.1319 37.5705 46.3077 38.6983 47.2214ZM53.3908 48.0536C53.7942 48.2205 54.1545 48.4445 54.3538 48.879C54.363 48.8829 54.372 48.8874 54.3813 48.8914C54.41 48.8855 54.4331 48.8998 54.4552 48.9188C54.5141 48.9321 54.5731 48.9456 54.632 48.959C54.5496 49.0343 54.5061 48.9627 54.4552 48.9188C54.4247 48.9118 54.3941 48.9049 54.3636 48.8979C54.3606 48.8912 54.3568 48.8855 54.3538 48.879C53.9546 48.7081 53.6102 48.4636 53.3908 48.0536ZM55.6165 31.8456C55.6155 31.8548 55.6146 31.8639 55.6136 31.873C55.7784 32.0157 55.6618 32.1718 55.5664 32.3205C55.5821 32.1713 55.598 32.0222 55.6136 31.873C55.6076 31.8678 55.604 31.8624 55.5971 31.8572C55.6009 31.8291 55.604 31.801 55.6076 31.7729C55.3491 29.7489 55.3311 27.7502 56.2283 25.8474C55.7757 27.796 55.8632 29.8029 55.6076 31.7729C55.6106 31.7972 55.6134 31.8213 55.6165 31.8456ZM66.3681 32.5147C66.3765 32.5322 66.385 32.5497 66.3934 32.5672C67.2488 33.3946 68.0676 34.2399 67.855 35.5925C67.8587 35.6001 67.8624 35.6078 67.8661 35.6154C67.8789 35.6415 67.8916 35.6674 67.9044 35.6934C67.8865 35.6708 67.8688 35.6481 67.8509 35.6256C67.8528 35.6143 67.8533 35.6037 67.855 35.5925C67.3679 34.5841 66.8807 33.5757 66.3934 32.5673C66.3793 32.5537 66.3652 32.5399 66.351 32.5261C66.3531 32.5156 66.3538 32.5064 66.3546 32.4968C66.3123 32.4406 66.2702 32.3846 66.2279 32.3284C66.2179 32.3259 66.208 32.3236 66.1971 32.322C66.148 32.2417 66.0989 32.1615 66.0498 32.0811C66.0001 32.0071 65.9505 31.9329 65.9008 31.8588L65.8807 31.8117L65.9194 31.8455C65.9693 31.9195 66.0192 31.9936 66.0693 32.0676C66.1176 32.1485 66.1657 32.2293 66.214 32.3101C66.2186 32.3163 66.2233 32.3225 66.2279 32.3287C66.3156 32.3499 66.3636 32.4016 66.3546 32.4971C66.3591 32.5027 66.3636 32.5087 66.3681 32.5147ZM16.5826 9.89567C16.5987 9.89867 16.6151 9.90167 16.631 9.90453C16.6371 9.91544 16.6447 9.92348 16.6511 9.93357C16.8511 10.0299 17.0513 10.1261 17.2514 10.2224C17.2702 10.2253 17.2892 10.2283 17.308 10.2313C17.3121 10.238 17.3156 10.2457 17.3195 10.2531C19.7201 11.1989 22.0054 12.3857 24.3134 13.5411C24.1549 13.8359 24.0224 13.898 23.8157 13.7673C21.765 12.4708 19.572 11.4487 17.4032 10.3797C17.3642 10.3604 17.3443 10.3015 17.3195 10.2531C17.3106 10.2496 17.3021 10.2459 17.2933 10.2423C17.2794 10.2357 17.2655 10.229 17.2515 10.2223C17.0227 10.1867 16.7929 10.1531 16.6512 9.93344C16.6388 9.92744 16.6264 9.92144 16.614 9.91558C16.6033 9.90971 16.593 9.90248 16.5826 9.89567C16.4443 9.8703 16.3003 9.84384 16.0978 9.80661C16.3471 9.69055 16.4603 9.81493 16.5826 9.89567ZM15.0133 9.23068C15.0292 9.23354 15.0456 9.23654 15.0614 9.23954C15.0654 9.24731 15.0699 9.25427 15.074 9.26191C15.1996 9.31073 15.3265 9.3601 15.4722 9.4167C15.2634 9.50453 15.1559 9.41138 15.074 9.26191C15.0642 9.25809 15.0542 9.25427 15.0444 9.25045C15.0339 9.24445 15.0236 9.23736 15.0133 9.23068C14.8747 9.20517 14.7303 9.17872 14.5242 9.1408C14.7783 9.02379 14.8907 9.15076 15.0133 9.23068ZM11.7006 7.87111C11.7126 7.87329 11.7246 7.87548 11.7366 7.8778C11.745 7.88871 11.7545 7.89661 11.7631 7.90671C12.0294 8.00817 12.2958 8.1095 12.5623 8.21097C12.5834 8.21342 12.6046 8.21561 12.6257 8.21834C12.6328 8.23061 12.6408 8.24138 12.6486 8.25256C12.8787 8.37899 13.1859 8.35581 13.3553 8.60006C13.3688 8.60797 13.3822 8.61629 13.3951 8.62543C13.42 8.62788 13.4433 8.63688 13.4659 8.64875C13.5866 8.67098 13.7099 8.69362 13.8467 8.71871C13.6755 8.84718 13.5784 8.7078 13.4659 8.64875C13.4362 8.64329 13.4066 8.63784 13.377 8.63239C13.3702 8.62079 13.3627 8.61056 13.3553 8.59992C13.1288 8.46668 12.8183 8.49518 12.6486 8.25256C12.6348 8.24493 12.6212 8.23702 12.6081 8.22829C12.5928 8.22256 12.5777 8.2167 12.5624 8.21084C12.2704 8.17756 11.9743 8.15533 11.7632 7.90657C11.7486 7.90098 11.7339 7.89539 11.7193 7.8898C11.713 7.88339 11.7068 7.87739 11.7006 7.87111C11.5651 7.84616 11.4186 7.81929 11.1383 7.76774C11.4602 7.68018 11.5895 7.75642 11.7006 7.87111ZM10.0719 7.25672C10.0517 7.245 10.0316 7.23327 10.0114 7.22154C9.16439 6.94019 8.31775 6.65789 7.47015 6.37831C7.2529 6.30657 7.04915 6.22992 7.17421 5.93316C7.31168 5.60694 7.51925 5.77428 7.6964 5.87588C8.47076 6.3198 9.24022 6.77203 10.0114 7.22154C10.0375 7.23013 10.0637 7.23886 10.0897 7.24745C10.1064 7.25386 10.1225 7.26246 10.1381 7.27214C10.2607 7.30078 10.3843 7.32956 10.5186 7.36092C10.3467 7.47166 10.2497 7.34115 10.1381 7.27214C10.116 7.26709 10.0937 7.26191 10.0719 7.25672ZM11.336 9.39406C11.3185 9.38506 11.3084 9.36174 11.2978 9.33951C11.2878 9.33637 11.278 9.33283 11.268 9.32969C11.263 9.32151 11.2564 9.31619 11.2511 9.30869C11.0234 9.25154 10.7645 9.25932 10.6328 9.00292C10.6253 8.99829 10.6171 8.99488 10.6097 8.9897C10.5233 8.95629 10.4369 8.92273 10.3505 8.88932C10.4425 8.92396 10.5346 8.9586 10.6268 8.99338C10.6286 8.99706 10.631 8.99938 10.6328 9.00292C10.8285 9.12526 11.1 9.09798 11.2511 9.30869C11.2627 9.31155 11.2745 9.31387 11.2858 9.31714C11.2901 9.32396 11.294 9.33174 11.2978 9.33951C13.5495 10.0601 15.6427 11.1603 17.7887 12.1311C19.4414 12.8785 21.0657 13.6901 22.7017 14.4751C22.9301 14.5848 23.3171 14.6149 23.0567 15.0258C22.9064 15.2629 22.737 15.4567 22.3848 15.2391C18.8305 13.0437 15.0341 11.3136 11.336 9.39406ZM26.4346 55.482C26.4224 55.4743 26.4101 55.4666 26.3978 55.459C26.3873 55.4426 26.3776 55.4256 26.3674 55.4088C24.4555 53.9703 23.0132 52.1065 21.7721 50.0871C18.0502 44.0314 17.2504 37.4758 18.5417 30.58C18.1541 36.2119 19.0734 41.6371 21.1682 46.8645C22.3524 49.8194 23.9756 52.5147 26.0532 54.9252C26.1774 55.0693 26.2669 55.2439 26.3675 55.4087C26.3838 55.4209 26.3994 55.4338 26.4158 55.4459C26.4211 55.4594 26.4279 55.4704 26.4346 55.482C26.5306 55.5422 26.6267 55.6023 26.7227 55.6625C26.7368 55.6675 26.7512 55.6726 26.7651 55.678L26.7671 55.6903C26.7685 55.6911 26.7697 55.6919 26.7711 55.6927L26.7738 55.7297L26.7671 55.6903C26.7523 55.681 26.7375 55.6717 26.7227 55.6625C26.6127 55.6237 26.498 55.5922 26.4346 55.482ZM40.9009 61.0538C37.9595 60.9556 35.1133 60.3624 32.3756 59.2229C30.3148 58.3652 28.8372 56.7542 27.3636 55.2145C23.2541 50.92 20.9387 45.6971 19.8502 39.8534C19.1468 36.0772 18.9495 32.3011 19.5135 28.5165C19.8462 26.2845 20.423 24.0768 21.5397 22.0892C26.9066 12.5369 34.861 6.8019 45.8629 6.21875C58.2317 5.56304 67.99 14.0275 69.9853 26.4635C70.008 26.6055 69.9935 26.7535 69.9929 26.8991C69.9985 26.9045 70.003 26.9103 70.0087 26.9155C70.0076 26.9294 70.0052 26.9435 70.0035 26.9575C70.0158 26.9919 70.0282 27.0264 70.0405 27.0608C70.0275 27.0412 70.0074 27.0231 70.0035 27.002C70.001 26.9876 70.0018 26.9726 70.0035 26.9575C69.9999 26.9471 69.9962 26.9368 69.9924 26.9264C69.9922 26.9173 69.9928 26.9081 69.9928 26.899C69.4687 26.408 69.2556 25.718 68.9107 25.1179C66.1748 20.3578 62.162 17.1574 57.101 15.2556C52.6475 13.5821 48.0811 13.2743 43.4376 14.2849C42.085 14.5793 40.7924 15.0692 39.5051 15.579C38.9544 15.7971 38.9458 16.0735 39.1234 16.5695C39.3309 17.1495 39.6288 17.0133 40.0454 16.8584C51.1643 12.724 63.546 18.9413 66.9855 30.3785C67.02 30.4933 67.0358 30.6138 67.0987 30.9148C66.8188 30.6573 66.6436 30.5186 66.4944 30.3555C63.5678 27.1547 59.9967 24.9695 55.9217 23.6271C54.7891 23.254 53.5858 23.08 52.403 22.8911C51.754 22.7875 51.2701 22.5448 50.8597 22.017C50.1375 21.0879 49.3062 20.2527 48.3985 19.5053C47.3894 18.6745 46.8045 18.7847 46.0595 19.8886C45.5184 20.6902 45.1517 21.5836 44.9113 22.5031C44.76 23.0815 44.4693 23.2904 43.9579 23.4438C40.6159 24.4465 37.8096 26.2778 35.7527 29.1389C34.0172 31.5529 32.9496 34.2962 32.2751 37.1873C32.1417 37.759 31.9111 37.97 31.3666 37.9363C30.4862 37.8818 29.6802 38.2268 28.8554 38.4515C27.9464 38.6994 27.6689 39.2637 28.0395 40.1375C28.5045 41.2333 29.1491 42.2419 30.0342 43.0201C31.3994 44.2202 32.0867 45.6488 32.2711 47.4864C32.4755 49.5239 33.2134 51.4617 33.9442 53.3769C33.9945 53.5088 33.9959 53.6597 34.016 53.8033C34.023 53.8072 34.0299 53.8114 34.037 53.8152L34.0521 53.8644L34.0189 53.8269C34.0177 53.8192 34.017 53.8111 34.016 53.8033C32.758 53.1152 31.789 52.0758 30.8865 51.0023C26.8129 46.1571 25.1508 40.5456 26.2181 34.2953C27.2327 28.3527 30.1919 23.4884 35.0048 19.8357C35.7391 19.2784 35.8227 18.5317 35.221 17.8659C34.8892 17.4989 34.6561 17.8756 34.4389 18.0177C32.1742 19.4993 30.2534 21.3511 28.6428 23.5371C20.1065 35.1225 24.4022 52.5112 37.2967 58.5125C39.5137 59.5444 41.8284 60.2601 44.2725 60.4986C44.7459 60.5448 45.2157 60.6301 45.6869 60.6992C45.6982 60.6955 45.7096 60.6925 45.721 60.6888C45.735 60.6882 45.7497 60.6917 45.7647 60.6962C45.8339 60.6774 45.9032 60.6586 45.9723 60.6397C45.9279 60.7868 45.8421 60.7197 45.7647 60.6962C45.753 60.6994 45.7414 60.7026 45.7297 60.7058C45.7154 60.7037 45.7012 60.7014 45.6869 60.6992C44.1215 61.2042 42.5012 61.1071 40.9009 61.0538ZM57.1217 15.9692C57.0933 15.9754 57.0634 15.9906 57.037 15.9857C57.0104 15.9806 56.9875 15.9557 56.9628 15.9393C56.9913 15.933 57.0215 15.9179 57.0479 15.9229C57.0745 15.9278 57.0973 15.9529 57.1217 15.9692ZM31.1148 38.6361C31.3676 38.5946 31.6089 38.3917 31.9819 38.6421C31.6183 38.8781 31.3711 38.6744 31.1148 38.6361ZM31.7346 43.0242C31.0238 41.9404 30.298 40.834 29.5941 39.7608C29.536 39.7654 29.6271 39.7518 29.7182 39.7518C31.6715 39.7533 31.7371 39.8168 31.7357 41.6993C31.7354 42.1593 31.7349 42.6192 31.7346 43.0242ZM64.343 103.167C57.0417 103.926 51.6296 100.843 47.3429 95.2007C43.4088 90.0221 41.8001 84.0622 41.3926 77.638C41.0924 72.905 41.961 68.4145 43.4707 63.9913C43.6245 63.5405 43.8455 63.3542 44.2992 63.2818C49.088 62.5172 53.5905 60.9531 57.6942 58.3149C58.169 58.0097 58.3915 58.115 58.5837 58.6009C58.7429 59.0033 58.9628 59.3808 59.1396 59.7769C59.2768 60.0843 59.444 60.2108 59.7774 60.0236C60.0855 59.8505 60.0265 59.6506 59.8882 59.4113C59.6404 58.9823 59.4217 58.5341 59.1457 58.1249C58.8876 57.7422 58.9049 57.5041 59.3076 57.223C63.0807 54.5897 66.1041 51.2505 68.4166 47.2569C68.6545 46.8461 68.9992 46.7561 69.4102 46.7178C70.8368 46.5844 72.2382 46.7764 73.5982 47.1716C80.9395 49.3047 87.0653 53.4762 92.4671 58.8087C94.44 60.7564 95.8848 63.0848 97.0417 65.6284C98.0765 67.9039 98.0597 70.2047 97.5471 72.533C96.6629 76.5485 95.0688 80.2841 92.9867 83.8179C91.4991 86.3429 89.9441 88.8204 88.2407 91.2029C87.7165 91.936 87.0756 92.5527 86.4259 93.1708C85.9584 93.6155 85.6356 93.5707 85.2038 93.1359C84.0941 92.0184 82.9413 90.9446 81.8267 89.832C81.4816 89.4875 81.2185 89.4321 80.8128 89.7551C80.3989 90.0844 80.3261 90.3036 80.7603 90.6766C81.9535 91.7015 83.0548 92.8353 84.3592 93.7275C84.5808 93.8792 84.8559 93.9832 84.981 94.3403C83.9506 95.1911 82.8776 96.0094 81.739 96.7351C76.4005 100.138 70.7163 102.505 64.343 103.167ZM71.001 107.185L71.0006 107.145C70.9848 107.136 70.9692 107.126 70.9536 107.116C69.8201 106.765 68.9755 105.923 67.9963 105.31C69.3795 105.242 69.9725 106.506 70.9536 107.116C70.9694 107.121 70.9845 107.127 71.0005 107.132L71.0006 107.145C71.0024 107.146 71.004 107.147 71.0058 107.149L71.001 107.185ZM94.7389 117.56C94.5466 116.903 94.668 116.307 95.0995 115.549C94.9538 116.362 94.8464 116.961 94.7389 117.56ZM95.3397 117.656C95.4803 116.872 95.5915 116.296 95.6858 115.718C96.0787 113.308 97.5336 111.934 99.8504 111.489C101.938 111.088 103.995 111.192 106.053 112.225C103.184 115.434 99.5977 116.988 95.3397 117.656ZM108.082 110.007C107.837 110.315 107.651 110.328 107.343 110.044C103.708 106.703 98.2245 107.474 95.0324 109.78C94.7235 110.003 94.5009 110.194 94.8209 110.588C95.0793 110.907 95.2542 111.255 95.7693 110.928C97.11 110.077 98.5757 109.527 100.139 109.265C102.392 108.888 104.484 109.255 106.31 110.725C106.524 110.897 106.876 111.016 106.814 111.429C106.447 111.633 106.242 111.314 106.01 111.17C102.234 108.822 94.9165 110.653 93.3703 116.294C93.2971 116.561 93.2698 116.841 93.2201 117.116C93.1744 117.367 93.2899 117.759 92.8558 117.722C92.4412 117.686 92.581 117.286 92.565 117.049C92.517 116.339 92.4936 115.623 92.6878 114.924C92.7862 114.569 92.8206 114.261 92.3433 114.135C91.843 114.003 91.6764 114.285 91.5641 114.68C91.3761 115.34 91.269 116.012 91.3266 116.701C91.3859 117.411 91.1745 117.674 90.3896 117.553C87.762 117.151 85.3866 116.073 83.0505 114.882C79.8454 113.249 71.495 107.088 69.629 105.01C69.7429 104.781 69.9809 104.81 70.1731 104.757C75.3909 103.339 80.1976 101.037 84.5821 97.8618C85.2502 97.378 85.6878 97.3887 86.3371 97.8575C89.2136 99.934 92.2962 101.641 95.6108 102.903C97.9766 103.803 100.403 104.416 102.936 104.618C104.771 104.764 106.555 105.347 108.411 105.364C109.195 105.371 109.979 105.34 110.894 105.324C110.038 107.039 109.198 108.604 108.082 110.007ZM111.898 102.798C111.813 102.978 111.732 103.145 111.504 103.033C111.37 102.968 111.4 102.838 111.466 102.723C111.937 101.896 112.243 100.954 113.066 100.374C113.073 100.36 113.08 100.346 113.087 100.332C113.093 100.331 113.097 100.329 113.102 100.327C113.113 100.179 113.179 100.068 113.318 100.006C113.318 99.9981 113.319 99.9903 113.319 99.9824C113.33 99.9776 113.34 99.9729 113.351 99.9681C113.4 99.8977 113.463 99.8601 113.55 99.8786C113.558 99.8752 113.565 99.8718 113.573 99.8685C113.578 99.8579 113.584 99.8471 113.59 99.8363C113.601 99.7161 113.649 99.616 113.747 99.5431C113.755 99.5284 113.763 99.5137 113.771 99.4988C113.852 99.4624 113.933 99.426 114.013 99.3897C114.015 99.3887 114.017 99.3878 114.019 99.3868C114.02 99.3864 114.021 99.386 114.023 99.3856C114.026 99.3841 114.029 99.3825 114.033 99.381C114.043 99.3783 114.053 99.3755 114.064 99.3728C114.05 99.377 114.036 99.3814 114.023 99.3856C114.02 99.387 114.017 99.3882 114.013 99.3897C113.937 99.4323 113.861 99.4751 113.785 99.5176C113.771 99.5257 113.759 99.5344 113.747 99.5433C113.695 99.641 113.642 99.7387 113.59 99.8365C113.588 99.8537 113.587 99.8713 113.587 99.8891C113.574 99.8843 113.562 99.8812 113.55 99.8788C113.484 99.9086 113.417 99.9384 113.351 99.9682C113.344 99.9782 113.337 99.9885 113.331 99.9997C113.326 100.002 113.322 100.004 113.317 100.006C113.308 100.156 113.274 100.288 113.102 100.328C113.102 100.335 113.101 100.341 113.1 100.349C113.089 100.357 113.078 100.366 113.066 100.374C112.676 101.181 112.282 101.987 111.898 102.798ZM115.217 103.322C114.48 103.322 113.744 103.281 113.007 103.268C112.48 103.259 112.389 103.047 112.589 102.564C113.36 100.696 114.572 99.2539 116.365 98.297C117.876 97.4902 119.28 97.8283 120.648 98.6047C122.213 99.492 123.6 100.599 124.704 102.199C121.536 103.134 118.388 103.326 115.217 103.322ZM143.61 91.2488C145.359 91.5107 146.968 91.3437 148.562 90.9151C150.169 90.4829 151.563 89.7255 152.565 88.3239C151.926 91.4838 146.733 93.199 143.61 91.2488Z" fill="white"/>
<path d="M33.4961 100.766C33.4964 100.796 33.4965 100.826 33.4968 100.857C33.516 100.838 33.5352 100.819 33.5545 100.8C33.535 100.789 33.5156 100.777 33.4961 100.766Z" fill="white"/>
<path d="M33.0006 101.695C32.9907 101.707 32.9809 101.718 32.971 101.73C32.9627 101.738 32.9562 101.747 32.9492 101.756C32.9601 101.753 32.9706 101.75 32.9824 101.749C32.9885 101.731 32.9945 101.713 33.0006 101.695Z" fill="white"/>
<path d="M33.439 100.964C33.4543 100.933 33.4694 100.902 33.4847 100.87C33.4858 100.869 33.4869 100.868 33.488 100.867C33.4595 100.881 33.4308 100.895 33.4023 100.909C33.4146 100.927 33.4268 100.946 33.439 100.964Z" fill="white"/>
<path d="M52.1248 100.951C52.1098 100.936 52.0933 100.923 52.0801 100.907C52.0622 100.886 52.0469 100.863 52.0306 100.84C52.0088 100.831 51.9868 100.822 51.9648 100.812C51.9812 100.825 51.9973 100.838 52.0137 100.851C52.0506 100.884 52.0877 100.917 52.1248 100.951Z" fill="white"/>
<path d="M141.52 76.8385C141.531 76.843 141.543 76.8477 141.554 76.852C141.568 76.8404 141.583 76.8303 141.598 76.8203C141.579 76.8239 141.56 76.8286 141.541 76.8346C141.534 76.8353 141.527 76.8372 141.52 76.8385Z" fill="white"/>
<path d="M32.7105 102.023C32.7051 102.024 32.701 102.026 32.6951 102.026C32.6824 102.054 32.6691 102.081 32.6562 102.109C32.6733 102.087 32.6902 102.064 32.7073 102.042C32.7079 102.035 32.7094 102.03 32.7105 102.023Z" fill="white"/>
<path d="M114.012 99.3906C113.931 99.427 113.851 99.4635 113.77 99.4997C113.762 99.5145 113.754 99.5292 113.746 99.5441C113.758 99.5352 113.77 99.5265 113.783 99.5184C113.86 99.4759 113.936 99.4333 114.012 99.3906Z" fill="white"/>
<path d="M54.4569 48.9226C54.4348 48.9037 54.4117 48.8894 54.383 48.8952C54.3736 48.8913 54.3647 48.8868 54.3555 48.8828C54.3585 48.8895 54.3623 48.8951 54.3653 48.9018C54.3958 48.9087 54.4264 48.9157 54.4569 48.9226Z" fill="white"/>
<path d="M113.591 99.8359C113.585 99.8467 113.579 99.8573 113.573 99.8681C113.566 99.8715 113.558 99.8749 113.551 99.8782C113.563 99.8808 113.575 99.8839 113.588 99.8886C113.588 99.8706 113.589 99.8531 113.591 99.8359Z" fill="white"/>
<path d="M145.096 48.3093C145.041 48.3903 144.985 48.4714 144.93 48.5524C144.989 48.4777 145.049 48.4029 145.109 48.3283C145.194 48.2811 145.279 48.234 145.364 48.1868C145.37 48.1669 145.374 48.146 145.378 48.125C145.369 48.1396 145.36 48.1543 145.351 48.1689C145.266 48.2157 145.181 48.2625 145.096 48.3093Z" fill="white"/>
<path d="M107.57 60.1328C107.56 60.135 107.552 60.1387 107.541 60.1399C107.535 60.1527 107.529 60.1651 107.523 60.1778C107.534 60.171 107.543 60.1635 107.554 60.1567C107.559 60.1488 107.564 60.1407 107.57 60.1328Z" fill="white"/>
<path d="M45.7654 60.6949C45.7504 60.6904 45.7356 60.687 45.7216 60.6876C45.7103 60.6912 45.6988 60.6942 45.6875 60.6979C45.7018 60.7 45.716 60.7023 45.7303 60.7045C45.7421 60.7013 45.7538 60.6982 45.7654 60.6949Z" fill="white"/>
<path d="M114.034 99.3754C114.03 99.3769 114.027 99.3785 114.023 99.38C114.037 99.3758 114.051 99.3714 114.065 99.3672C114.054 99.3699 114.044 99.3727 114.034 99.3754Z" fill="white"/>
<path d="M142.449 76.8059C142.458 76.8083 142.467 76.8107 142.475 76.8131C142.488 76.8079 142.5 76.8053 142.513 76.8007C142.497 76.7995 142.481 76.7981 142.466 76.7969C142.46 76.8003 142.455 76.8027 142.449 76.8059Z" fill="white"/>
<path d="M145.555 47.8492C145.564 47.8466 145.572 47.843 145.583 47.8412C145.588 47.8263 145.595 47.8117 145.601 47.7969C145.59 47.8061 145.581 47.8158 145.57 47.8251C145.565 47.8331 145.56 47.8412 145.555 47.8492Z" fill="white"/>
<path d="M91 13.9733C91.0176 13.9722 91.0346 13.9704 91.0522 13.9696C91.066 13.9662 91.0794 13.9606 91.0927 13.9542C91.0752 13.9538 91.0575 13.9535 91.04 13.9531C91.0263 13.9597 91.0136 13.9668 91 13.9733Z" fill="white"/>
<path d="M70.9531 107.117C70.9688 107.127 70.9844 107.137 71.0002 107.146L71 107.132C70.9841 107.128 70.9688 107.122 70.9531 107.117Z" fill="white"/>
<path d="M113.102 100.328C113.097 100.329 113.092 100.332 113.087 100.333C113.08 100.347 113.073 100.361 113.066 100.374C113.078 100.366 113.089 100.357 113.101 100.349C113.101 100.342 113.102 100.335 113.102 100.328Z" fill="white"/>
<path d="M113.35 99.9688C113.339 99.9735 113.329 99.9783 113.318 99.9831C113.318 99.9911 113.317 99.9987 113.316 100.007C113.321 100.005 113.325 100.002 113.33 100C113.336 99.9889 113.343 99.9786 113.35 99.9688Z" fill="white"/>
<path d="M107.835 59.8047C107.83 59.805 107.825 59.8052 107.82 59.8056C107.825 59.8077 107.829 59.8096 107.832 59.8119C107.833 59.809 107.833 59.8077 107.835 59.8047Z" fill="white"/>
<path d="M144.857 48.6484C144.841 48.651 144.825 48.6538 144.809 48.6565C144.841 48.7207 144.856 48.7179 144.857 48.6484Z" fill="white"/>
<path d="M16.6505 9.93634C16.6439 9.92625 16.6366 9.91821 16.6304 9.9073C16.6145 9.90444 16.5981 9.9013 16.582 9.89844C16.5924 9.90526 16.6028 9.91248 16.6133 9.91848C16.6257 9.92448 16.6381 9.93048 16.6505 9.93634Z" fill="white"/>
<path d="M58.6797 16.7188C58.6819 16.7243 58.6845 16.7292 58.6865 16.7352C58.6985 16.7399 58.7102 16.7451 58.7222 16.7497C58.7158 16.7398 58.7083 16.7314 58.7023 16.7209C58.6946 16.7204 58.6872 16.7194 58.6797 16.7188Z" fill="white"/>
<path d="M35.5469 52.3672C35.5594 52.3876 35.5718 52.408 35.5844 52.4284C35.5983 52.4483 35.6119 52.4684 35.626 52.4883C35.6183 52.464 35.6102 52.44 35.6028 52.4156C35.584 52.3995 35.5654 52.3834 35.5469 52.3672Z" fill="white"/>
<path d="M58.1328 16.4297C58.1376 16.4369 58.1425 16.4439 58.1473 16.4514C58.1597 16.4582 58.1726 16.4639 58.1859 16.4691C58.179 16.4585 58.1715 16.4493 58.1653 16.4377C58.1545 16.435 58.1436 16.4323 58.1328 16.4297Z" fill="white"/>
<path d="M93.0014 101.008C92.9789 100.995 92.9562 100.983 92.9339 100.97C92.9236 100.966 92.9128 100.964 92.9023 100.961C92.9081 100.968 92.9146 100.973 92.9202 100.981C92.9474 100.99 92.9742 100.999 93.0014 101.008Z" fill="white"/>
<path d="M12.6488 8.25253C12.6411 8.24135 12.6331 8.23057 12.6259 8.2183C12.6049 8.2157 12.5836 8.21339 12.5625 8.21094C12.5778 8.2168 12.5929 8.22253 12.6082 8.22839C12.6216 8.23712 12.6352 8.24489 12.6488 8.25253Z" fill="white"/>
<path d="M95.5187 61.3595C95.5386 61.4524 95.5454 61.555 95.6728 61.5663C95.654 61.6842 95.6597 61.7848 95.819 61.7771C95.8211 61.7974 95.823 61.8176 95.825 61.838C95.8925 61.8197 95.8928 61.7988 95.826 61.7755C95.7791 61.7042 95.7321 61.6328 95.6852 61.5617C95.6346 61.491 95.5839 61.4204 95.5333 61.3497C95.4727 61.2713 95.4122 61.193 95.3516 61.1146C95.3388 61.097 95.3253 61.0801 95.3125 61.0625C95.3197 61.0828 95.3279 61.1025 95.335 61.1228C95.3962 61.2016 95.4575 61.2806 95.5187 61.3595Z" fill="white"/>
<path d="M13.4661 8.65025C13.4433 8.63825 13.42 8.62938 13.3953 8.62693C13.3825 8.61765 13.369 8.60947 13.3555 8.60156C13.3628 8.6122 13.3703 8.62229 13.3772 8.63402C13.4067 8.63934 13.4363 8.64479 13.4661 8.65025Z" fill="white"/>
<path d="M79.8579 48.6259C79.8436 48.6175 79.8292 48.6092 79.8148 48.6007C79.8062 48.5984 79.7977 48.5961 79.7891 48.5938C79.7932 48.5998 79.7975 48.6051 79.8015 48.6115C79.82 48.6167 79.839 48.6212 79.8579 48.6259Z" fill="white"/>
<path d="M47.8599 35.3645C47.8819 35.4994 47.9038 35.6344 47.9258 35.7693C47.9854 35.8467 48.0451 35.924 48.1047 36.0015L48.1425 36.0363L48.1238 35.9883C48.0645 35.9112 48.005 35.8342 47.9457 35.7571C47.924 35.6217 47.9023 35.4863 47.8806 35.351C47.8153 35.282 47.75 35.213 47.6848 35.1438C47.6792 35.1377 47.6744 35.1311 47.669 35.125C47.6671 35.1358 47.6664 35.1461 47.6641 35.1572C47.7293 35.2262 47.7946 35.2953 47.8599 35.3645Z" fill="white"/>
<path d="M67.905 35.6947C67.8922 35.6686 67.8795 35.6427 67.8667 35.6167C67.863 35.609 67.8593 35.6014 67.8557 35.5938C67.8539 35.6049 67.8535 35.6156 67.8516 35.6268C67.8693 35.6494 67.8872 35.672 67.905 35.6947Z" fill="white"/>
<path d="M17.322 10.2572C17.3181 10.2499 17.3146 10.2421 17.3105 10.2354C17.2917 10.2323 17.2729 10.2294 17.2539 10.2266C17.2678 10.2332 17.2817 10.2399 17.2956 10.2466C17.3045 10.25 17.3131 10.2538 17.322 10.2572Z" fill="white"/>
<path d="M66.0675 32.0685C66.0176 31.9944 65.9677 31.9204 65.9176 31.8463L65.8789 31.8125L65.8991 31.8597C65.9487 31.9339 65.9984 32.0079 66.048 32.082C66.0971 32.1623 66.1462 32.2425 66.1953 32.3228C66.2062 32.3245 66.2162 32.3269 66.2261 32.3292C66.2215 32.3231 66.2168 32.3168 66.2122 32.3107C66.1639 32.2302 66.1158 32.1494 66.0675 32.0685Z" fill="white"/>
<path d="M55.6142 31.8735C55.6151 31.8644 55.6161 31.8553 55.617 31.8461C55.6139 31.8219 55.6112 31.7977 55.6082 31.7734C55.6045 31.8015 55.6015 31.8296 55.5977 31.8577C55.6045 31.8629 55.6082 31.8682 55.6142 31.8735Z" fill="white"/>
<path d="M66.394 32.5704C66.3855 32.5529 66.3771 32.5353 66.3686 32.5179C66.3641 32.5119 66.3596 32.506 66.3551 32.5C66.3542 32.5095 66.3536 32.5188 66.3516 32.5293C66.3657 32.543 66.3798 32.5567 66.394 32.5704Z" fill="white"/>
<path d="M47.0582 33.5296C47.058 33.5198 47.0571 33.5102 47.0571 33.5003C47.0517 33.4925 47.0474 33.4843 47.0422 33.4766C47.041 33.488 47.0407 33.4993 47.0391 33.5108C47.046 33.5169 47.0513 33.5236 47.0582 33.5296Z" fill="white"/>
<path d="M11.7617 7.90278C11.7531 7.89255 11.7435 7.88478 11.7352 7.87387C11.7234 7.87169 11.7112 7.86951 11.6992 7.86719C11.7054 7.87346 11.7116 7.87946 11.7178 7.88601C11.7325 7.89174 11.7471 7.89719 11.7617 7.90278Z" fill="white"/>
<path d="M47.438 34.542C47.4382 34.5341 47.4376 34.5265 47.4381 34.5184C47.4324 34.5124 47.4277 34.506 47.4223 34.5C47.4219 34.5097 47.4224 34.5191 47.4219 34.5289C47.4276 34.5331 47.4322 34.5378 47.438 34.542Z" fill="white"/>
<path d="M15.0763 9.25779C15.0722 9.25029 15.0677 9.24334 15.0638 9.23543C15.0478 9.23256 15.0316 9.22956 15.0156 9.22656C15.026 9.23325 15.0362 9.24033 15.0467 9.2462C15.0565 9.25002 15.0664 9.25384 15.0763 9.25779Z" fill="white"/>
<path d="M104.34 49.8828L104.319 49.9085C104.317 49.9116 104.315 49.9147 104.312 49.9179C104.312 49.9179 104.313 49.9177 104.313 49.9176L104.34 49.8828Z" fill="white"/>
<path d="M26.7651 55.6796C26.7512 55.6742 26.737 55.6691 26.7227 55.6641C26.7375 55.6733 26.7522 55.6826 26.7671 55.6919L26.7651 55.6796Z" fill="white"/>
<path d="M92.2539 86.6629C92.2587 86.6547 92.2633 86.6467 92.2681 86.6385C92.2817 86.6157 92.2952 86.5931 92.3089 86.5703C92.2906 86.5864 92.2731 86.6032 92.2546 86.6191C92.255 86.634 92.2543 86.6485 92.2539 86.6629Z" fill="white"/>
<path d="M26.3672 55.4062C26.3774 55.4229 26.3871 55.4399 26.3976 55.4564C26.4099 55.4641 26.4221 55.4718 26.4344 55.4795C26.4277 55.468 26.4209 55.4568 26.4156 55.4435C26.3992 55.4312 26.3834 55.4185 26.3672 55.4062Z" fill="white"/>
<path d="M91.9453 87.1126C91.957 87.0994 91.9675 87.0845 91.981 87.0733C92.0004 87.0572 92.0221 87.0439 92.0427 87.0293C92.0499 87.0169 92.057 87.0046 92.0642 86.9922C92.0525 86.9976 92.0416 87.0035 92.0285 87.0082C92.0007 87.0431 91.973 87.0778 91.9453 87.1126Z" fill="white"/>
<path d="M34.0518 53.8658L34.0366 53.8165C34.0295 53.8127 34.0227 53.8085 34.0156 53.8047C34.0167 53.8126 34.0174 53.8205 34.0186 53.8283L34.0518 53.8658Z" fill="white"/>
<path d="M92.247 100.677C92.2428 100.67 92.2376 100.665 92.2335 100.659C92.2236 100.655 92.2132 100.652 92.2031 100.648C92.2075 100.657 92.2127 100.663 92.2168 100.672C92.2269 100.674 92.2368 100.675 92.247 100.677Z" fill="white"/>
<path d="M91.6881 100.408C91.6845 100.403 91.6804 100.4 91.6772 100.395C91.6688 100.391 91.6607 100.387 91.6523 100.383C91.6549 100.391 91.6572 100.4 91.6604 100.408C91.6697 100.408 91.6788 100.408 91.6881 100.408Z" fill="white"/>
<path d="M70.0033 26.9568C70.0049 26.9428 70.0072 26.9287 70.0084 26.9148C70.0027 26.9096 69.9982 26.9036 69.9926 26.8984C69.9926 26.9076 69.9921 26.9167 69.9922 26.9258C69.9958 26.9362 69.9994 26.9466 70.0033 26.9568Z" fill="white"/>
<path d="M10.0117 7.22656C10.0319 7.23829 10.0519 7.25002 10.0721 7.26175C10.094 7.26679 10.1163 7.27212 10.1383 7.27716C10.1225 7.26748 10.1065 7.25888 10.0899 7.25247C10.0638 7.24388 10.0378 7.23515 10.0117 7.22656Z" fill="white"/>
<path d="M86.8378 44.0469C86.8314 44.0548 86.8252 44.0628 86.8189 44.0707C86.8103 44.0767 86.8016 44.0827 86.793 44.0889C86.8051 44.0885 86.8168 44.087 86.8291 44.087C86.8307 44.0725 86.8351 44.0602 86.8378 44.0469Z" fill="white"/>
<path d="M87.7074 43.2587L87.707 43.259C87.7215 43.256 87.7359 43.253 87.7504 43.25C87.7361 43.2529 87.7218 43.2557 87.7074 43.2587Z" fill="white"/>
<path d="M87.4705 43.4148C87.5341 43.3703 87.5978 43.3257 87.6615 43.2812C87.5939 43.32 87.5262 43.3588 87.4585 43.3976C87.3844 43.4439 87.3104 43.4902 87.2363 43.5366C87.2135 43.5652 87.1907 43.5938 87.168 43.6226C87.1955 43.5997 87.2228 43.5765 87.2482 43.5518C87.3224 43.5061 87.3964 43.4605 87.4705 43.4148Z" fill="white"/>
<path d="M10.3516 8.89062C10.438 8.92404 10.5244 8.95745 10.6108 8.991C10.618 8.99619 10.6264 8.99946 10.6339 9.00423C10.6321 9.00068 10.6296 8.99836 10.6279 8.99468C10.5357 8.96004 10.4436 8.9254 10.3516 8.89062Z" fill="white"/>
<path d="M103.872 50.3359C103.858 50.3426 103.844 50.3492 103.83 50.3558C103.829 50.3655 103.829 50.3751 103.828 50.3846C103.834 50.3815 103.838 50.3775 103.843 50.3745C103.853 50.3609 103.862 50.3481 103.872 50.3359Z" fill="white"/>
<path d="M11.2539 9.3125C11.2594 9.32 11.2658 9.32532 11.2708 9.3335C11.2808 9.33664 11.2906 9.34019 11.3006 9.34332C11.2967 9.33555 11.2929 9.32778 11.2886 9.32096C11.2772 9.31768 11.2654 9.3155 11.2539 9.3125Z" fill="white"/>
<path d="M104.119 50.1953C104.108 50.2118 104.096 50.2285 104.084 50.2451C104.075 50.249 104.067 50.253 104.059 50.257C104.071 50.2586 104.084 50.2612 104.098 50.2655C104.106 50.2428 104.113 50.2192 104.119 50.1953Z" fill="white"/>
<path d="M103.62 50.7109C103.614 50.7122 103.61 50.7142 103.603 50.7152C103.596 50.7258 103.589 50.7364 103.582 50.7471C103.594 50.7422 103.606 50.7374 103.617 50.7318C103.617 50.7244 103.62 50.7183 103.62 50.7109Z" fill="white"/>
<path d="M115.206 46.7217C114.74 46.6514 114.397 46.7676 114.337 47.2956C114.288 47.7268 114.358 48.1658 114.859 48.2113C115.29 48.2506 115.731 48.0945 115.827 47.5533C115.915 47.0596 115.669 46.7983 115.206 46.7217Z" fill="white"/>
<path d="M92.3389 25.766C92.2714 25.753 91.2411 26.1118 91.254 26.2418C91.2816 26.5173 91.3395 26.8089 91.631 26.9324C91.8076 27.0073 92.8205 26.3532 92.8117 26.183C92.8014 25.9862 92.7152 25.828 92.3389 25.766Z" fill="white"/>
<path d="M79.6235 60.231C79.0264 59.3288 78.3325 58.4984 77.5081 57.7841C76.9068 57.2632 76.2025 57.0557 75.4572 57.1582C73.7507 57.3931 72.0796 57.7728 70.509 58.5383C68.0959 59.7143 65.8508 61.1817 63.5491 62.5509C62.1422 63.388 62.1458 63.3943 61.3302 62.0203C61.2828 61.9405 61.2326 61.8617 61.1919 61.7785C61.043 61.4734 60.8357 61.3816 60.5226 61.5547C60.1751 61.7467 60.2682 61.9945 60.4082 62.2599C60.5961 62.616 60.749 62.9964 60.9762 63.3245C61.323 63.8253 61.1771 64.1089 60.7118 64.4386C59.4549 65.329 58.2237 66.2574 57.0035 67.1987C54.9047 68.8177 52.7876 70.4186 51.0452 72.4495C50.0423 73.6184 49.7665 74.8832 50.2674 76.4133C51.2236 79.3338 52.3292 82.1913 53.5281 85.0146C54.0248 86.1842 54.5621 87.3377 55.3053 88.3762C57.139 90.9389 59.7855 91.839 62.7759 90.9223C63.8421 90.5955 64.8087 90.0511 65.7812 89.5192C68.514 88.0242 70.9651 86.0802 73.6451 84.4987C74.1919 84.1762 74.5211 84.1108 74.938 84.6741C75.4144 85.3178 76.0309 85.8546 76.5219 86.4889C76.9465 87.0375 77.2239 86.7934 77.6325 86.4757C78.1196 86.0968 77.9319 85.8476 77.6134 85.5199C77.118 85.0107 76.6793 84.4412 76.1559 83.9652C75.5536 83.4176 75.733 83.113 76.3373 82.7488C78.9126 81.197 81.1921 79.2679 83.2623 77.0858C84.1634 76.1362 84.9293 75.0951 85.169 73.7189C85.2955 72.6648 85.2908 71.5839 84.897 70.5422C83.5223 66.9067 81.765 63.4669 79.6235 60.231ZM82.539 76.1359C81.0138 77.6259 79.4865 79.1205 77.6766 80.2573C73.4561 82.9081 69.2252 85.5425 64.9714 88.1385C63.5239 89.022 62.0039 89.7969 60.2241 89.7213C60.0097 89.7122 59.7954 89.7028 59.5689 89.693C58.136 89.2626 56.9803 88.4555 56.1665 87.1601C54.7907 84.9703 53.9033 82.5463 52.8723 80.1925C52.201 78.6602 51.621 77.0872 50.9492 75.555C50.5942 74.7453 50.6969 74.0366 51.2169 73.3841C51.62 72.8784 52.0558 72.391 52.5275 71.9505C57.9779 66.8609 64.1568 62.8256 70.6508 59.2502C71.6296 58.7113 72.6884 58.385 73.7822 58.1781C74.9986 57.948 76.0207 58.2735 76.842 59.2416C79.408 62.2659 81.4048 65.6279 82.7727 69.3635C83.0704 70.1764 83.3161 71.0086 83.6026 71.826C84.1911 73.504 83.7853 74.9185 82.539 76.1359Z" fill="white"/>
<path d="M79.3243 87.4342C78.9027 87.3857 78.4438 87.7329 78.3743 88.139C78.3062 88.5355 78.743 88.8953 79.1082 88.9418C79.5363 88.9962 79.8381 88.5967 80.1706 88.2544C79.9258 87.9011 79.693 87.4768 79.3243 87.4342Z" fill="white"/>
<path d="M37.0147 16.5801C36.7673 16.7008 36.4856 16.7965 36.6143 17.1716C36.7033 17.4312 36.7932 17.6912 36.8984 17.9446C36.9812 18.1442 37.0848 18.3676 37.3597 18.2338C37.5957 18.119 37.8784 18.0369 37.9488 17.6887C37.8459 17.425 37.7209 17.1463 37.629 16.8572C37.5212 16.5186 37.3306 16.4258 37.0147 16.5801Z" fill="white"/>
<path d="M43.9498 49.4919C42.7455 50.4433 41.5403 51.3937 40.3538 52.3673C39.9759 52.6773 39.6482 53.051 39.3085 53.4063C39.1094 53.6145 38.9339 53.8803 39.1769 54.1361C39.3906 54.361 39.6389 54.1857 39.8315 54.0311C40.2385 53.7046 40.652 53.3827 41.0293 53.0232C42.2655 51.8459 43.4868 50.6529 44.7939 49.3882C44.3207 49.1584 44.1305 49.3491 43.9498 49.4919Z" fill="white"/>
<path d="M63.4904 36.5862C62.3497 37.6109 61.2283 38.6578 60.1008 39.6974C59.9882 39.8013 59.8714 39.9031 59.7737 40.0204C59.6179 40.2068 59.408 40.4097 59.6115 40.6662C59.8352 40.9483 60.1049 40.8289 60.3452 40.666C60.4966 40.5633 60.6465 40.4508 60.7729 40.3192C61.9204 39.1237 63.0652 37.9256 64.2028 36.7205C64.3422 36.573 64.5224 36.4202 64.4366 36.0794C63.9687 36.0097 63.7461 36.3564 63.4904 36.5862Z" fill="white"/>
<path d="M62.8661 34.9218C61.5798 36.1091 60.299 37.3026 59.0314 38.5102C58.8257 38.7061 58.4677 38.9802 58.747 39.2795C59.0851 39.6422 59.357 39.2255 59.5698 39.0102C60.8226 37.7428 62.0571 36.457 63.2953 35.1752C63.3997 35.067 63.5143 34.95 63.4109 34.7659C63.1703 34.5854 63.0055 34.7931 62.8661 34.9218Z" fill="white"/>
<path d="M44.7061 51.0078C43.7318 51.8055 42.7553 52.6014 41.807 53.4301C41.5198 53.681 41.1376 54.0554 41.5209 54.4472C41.9134 54.8483 42.2716 54.4483 42.5185 54.1562C43.3344 53.1915 44.2128 52.2895 45.0981 51.3923C45.2154 51.2734 45.396 51.1427 45.2677 50.9126C45.0455 50.7127 44.8608 50.8811 44.7061 51.0078Z" fill="white"/>
<path d="M45.9521 52.1183C45.7765 51.9757 45.5808 52.0706 45.45 52.1944C44.6001 52.9995 43.7399 53.7959 42.9321 54.6427C42.6614 54.9265 42.6227 55.329 43.0695 55.5184C43.3551 55.5789 43.5647 55.5034 43.7065 55.3326C44.4556 54.4309 45.1945 53.5203 45.9306 52.6076C46.049 52.4609 46.1428 52.2732 45.9521 52.1183Z" fill="white"/>
<path d="M57.9148 37.7034C57.7902 37.8541 57.7228 38.0495 57.8836 38.2028C58.1306 38.4382 58.3514 38.2475 58.518 38.0782C59.4432 37.1391 60.3643 36.1954 61.2673 35.2347C61.5679 34.9148 61.9762 34.6597 61.9831 34.0859C60.5138 35.1662 59.0858 36.2878 57.9148 37.7034Z" fill="white"/>
<path d="M40.6825 40.9448C40.0977 40.8259 39.6563 41.049 39.5193 41.6713C39.3895 42.2614 39.6695 42.6044 40.3094 42.7412C40.8194 42.7893 41.28 42.6259 41.4199 42.0009C41.5534 41.4037 41.2286 41.0559 40.6825 40.9448Z" fill="white"/>
<path d="M52.7816 33.3703C52.2425 33.2459 51.8727 33.4587 51.7691 34.0192C51.6708 34.552 51.8868 34.9472 52.4219 35.0653C52.9529 35.1826 53.2971 34.9118 53.4679 34.4058C53.5295 33.8595 53.3164 33.4936 52.7816 33.3703Z" fill="white"/>
<path d="M76.2656 61.9869L76.3056 62.0248L76.2851 61.9737C76.2373 61.8891 76.1895 61.8046 76.1417 61.7202C76.128 61.715 76.1151 61.7086 76.1016 61.7031C76.1085 61.7138 76.1157 61.7241 76.1227 61.7348C76.1704 61.8188 76.218 61.9029 76.2656 61.9869Z" fill="white"/>
<path d="M76.626 60.4727C75.9061 59.5353 74.978 59.1664 73.7924 59.3784C72.3822 59.6306 71.0893 60.1794 69.8178 60.8065C65.0796 63.1433 60.6725 66.0061 56.5817 69.3572C55.1326 70.5441 53.567 71.6072 52.4212 73.1435C52.1154 73.5534 51.8861 73.9675 51.8396 74.4801C51.5654 75.468 51.8975 76.375 52.2444 77.2708C52.7914 78.6835 53.3416 80.0957 53.9288 81.4916C54.7569 83.4603 55.5849 85.4301 57.0385 87.0498C57.8752 87.9821 58.848 88.4717 60.1278 88.3695C61.5562 88.2556 62.9425 87.9576 64.2016 87.2989C68.5912 85.0019 72.9097 82.5704 76.9219 79.6417C78.2594 78.6653 79.5407 77.5932 80.7313 76.4215C82.2152 74.961 82.6495 73.2351 82.105 71.2423C81.0201 67.2704 79.1181 63.7175 76.626 60.4727ZM76.1019 61.7041C76.1154 61.7097 76.1284 61.716 76.142 61.7212C76.1899 61.8057 76.2376 61.8903 76.2855 61.9747L76.3059 62.0258L76.266 61.9879C76.2184 61.9038 76.1708 61.8198 76.1232 61.7357C76.1159 61.725 76.1088 61.7146 76.1019 61.7041C75.4141 61.421 74.9517 60.7718 74.2231 60.5554C75.1321 60.488 75.6582 61.0304 76.1019 61.7041ZM81.1052 73.7491C81.015 74.648 80.4585 75.2865 79.7364 75.81C76.189 78.3818 72.4677 80.6796 68.7112 82.9218C67.6799 83.5375 66.6148 84.0987 65.6088 84.753C63.8305 85.9098 61.8816 86.631 59.8537 87.1649C58.9881 87.3928 58.2855 87.062 57.7225 86.4026C56.9706 85.5223 56.4539 84.4883 55.9967 83.4415C54.9184 80.9718 53.9148 78.4691 52.861 75.9882C52.5223 75.1908 52.6405 74.5104 53.1659 73.8413C53.8585 72.9595 54.6804 72.2252 55.5426 71.5215C60.2658 67.6662 65.261 64.2444 70.7969 61.6666C72.9011 60.6867 73.6332 60.4505 75.8526 62.5816C76.8943 63.5818 77.6164 64.8155 78.2916 66.0666C79.2914 67.9191 80.1511 69.8424 80.928 71.8029C81.1756 72.4276 81.2862 73.0503 81.1052 73.7491Z" fill="white"/>
<path d="M57.5032 72.3008C56.3103 72.3807 55.2675 72.9107 54.586 73.9837C54.418 74.2481 54.2739 74.5265 54.3411 74.8519C54.5229 75.7306 54.716 76.6064 55.2497 77.357C55.4702 77.6673 55.7238 77.9249 56.1196 77.9841C56.4677 78.0695 56.8086 78.0206 57.0814 77.8014C57.8223 77.2055 58.5719 76.6151 59.2625 75.963C59.8062 75.4496 59.7912 74.7497 59.4234 74.1688C58.9378 73.4009 58.7025 72.2204 57.5032 72.3008ZM55.6393 75.2287C55.2213 74.6449 54.8243 74.1588 55.9011 73.7685C55.807 74.2936 55.7314 74.7154 55.6393 75.2287ZM56.8866 76.6614C56.6413 76.6918 56.5416 76.5839 56.4761 76.4056C56.2625 75.8239 56.0394 75.2406 56.2024 74.6056C56.2304 74.2098 56.4407 73.9004 56.6624 73.6051C57.1669 72.9334 57.544 72.948 57.9906 73.6427C58.0908 73.7986 58.1844 73.9597 58.2702 74.1242C58.8913 75.3147 58.2387 76.4935 56.8866 76.6614Z" fill="white"/>
<path d="M75.5382 66.1866C74.8234 66.5414 74.0852 66.8652 73.4186 67.299C69.9127 69.5802 66.4256 71.8912 62.9336 74.1941C62.7802 74.2953 62.635 74.412 62.4984 74.5353C62.3315 74.6859 62.1881 74.8721 62.3448 75.0973C62.5056 75.3282 62.7433 75.2394 62.924 75.1321C63.3729 74.8653 63.8056 74.571 64.243 74.2849C67.9747 71.843 71.7069 69.4018 75.4353 66.9549C75.6614 66.8066 75.9298 66.6961 76.071 66.3944C76.017 66.0426 75.7666 66.0731 75.5382 66.1866Z" fill="white"/>
<path d="M76.5051 69.7924C72.6727 71.8314 69.0121 74.1704 65.2666 76.3616C64.9651 76.538 64.4846 76.7601 64.6971 77.1817C64.968 77.719 65.3825 77.2588 65.7276 77.147C65.8723 77.1001 66.0093 77.0226 66.1415 76.9444C69.8233 74.7637 73.4683 72.523 77.0222 70.1345C77.2104 70.008 77.4787 69.9103 77.4237 69.568C77.0551 69.3723 76.7792 69.6466 76.5051 69.7924Z" fill="white"/>
<path d="M78.9364 73.7082C78.6184 73.8151 78.3076 73.9542 78.0101 74.1112C75.4218 75.4769 73.0604 77.2051 70.6346 78.8293C69.5111 79.5816 68.3689 80.3119 67.3509 81.2119C67.1584 81.3819 66.7995 81.568 67.0009 81.8702C67.2109 82.1855 67.4981 81.8954 67.714 81.7664C68.1884 81.4829 68.6552 81.1837 69.1051 80.8622C71.2589 79.3236 73.4908 77.9088 75.7487 76.5322C76.7978 75.8925 77.8147 75.1985 78.842 74.5229C79.044 74.3901 79.2719 74.2743 79.3586 74.0143C79.3609 73.7114 79.1734 73.6285 78.9364 73.7082Z" fill="white"/>
<path d="M73.2886 64.8896C69.4157 66.9865 65.9575 69.726 62.284 72.132C62.1821 72.1987 62.0896 72.2839 62.005 72.3723C61.8511 72.5329 61.7036 72.7172 61.8834 72.9368C62.0555 73.1468 62.2714 73.0636 62.4655 72.9533C62.5985 72.8776 62.7223 72.7851 62.8483 72.6973C66.4787 70.1661 70.1671 67.7229 73.8731 65.3059C74.1359 65.1345 74.5098 65.043 74.5434 64.6245C73.9763 64.5327 73.9699 64.5207 73.2886 64.8896Z" fill="white"/>
<path d="M62.1461 80.1292C61.9307 79.7229 61.6078 79.4608 61.1354 79.405C59.994 79.2404 59.1154 79.7704 58.3726 80.5533C58.1139 80.8261 57.5864 80.9992 57.6787 81.4599C57.8839 82.4846 58.0755 83.5394 58.8215 84.3476C59.238 84.7987 59.7942 84.9285 60.3386 84.6826C61.0621 84.356 61.759 83.9611 62.4382 83.5469C62.7959 83.3285 62.9672 82.9478 62.888 82.5048C62.7407 81.6819 62.5405 80.8736 62.1461 80.1292ZM62.0749 82.4456C61.9883 82.946 60.3214 83.8315 59.6814 83.7171C59.1887 83.629 58.403 82.251 58.4593 81.5736C58.5034 81.0432 60.2605 80.0883 60.9966 80.1947C61.5224 80.2706 62.2047 81.6951 62.0749 82.4456Z" fill="white"/>
<path d="M77.8335 72.1334C73.5927 74.3023 69.4071 76.5689 65.4933 79.3091C65.2401 79.4866 64.9047 79.634 64.969 80.3059C69.6243 77.5579 74.1548 74.8835 78.7713 72.1582C78.2965 71.797 78.054 72.0208 77.8335 72.1334Z" fill="white"/>
<path d="M61.1669 70.6616C60.8452 70.8715 60.1673 71.0921 60.464 71.5522C60.7624 72.0147 61.2321 71.4731 61.5538 71.2639C64.5471 69.3172 67.5304 67.3549 70.5015 65.3741C71.3379 64.8164 72.125 64.1836 73.0055 63.533C72.6327 63.5131 72.4333 63.6703 72.2225 63.7909C68.4542 65.9451 64.802 68.29 61.1669 70.6616Z" fill="white"/>
</g>
</svg>
