<svg width="241" height="64" viewBox="0 0 241 64" fill="none" xmlns="http://www.w3.org/2000/svg">
<path d="M77.6 50V15.92H99.2V23.216H85.232V29.312H96.32V36.608H85.232V42.704H99.2V50H77.6ZM113.297 50.528C110.193 50.528 107.553 49.296 105.377 46.832C103.233 44.368 102.161 41.424 102.161 38C102.161 34.576 103.233 31.632 105.377 29.168C107.553 26.704 110.193 25.472 113.297 25.472C116.049 25.472 118.225 26.448 119.825 28.4V14H127.073V50H119.825V47.6C118.225 49.552 116.049 50.528 113.297 50.528ZM110.945 42.272C111.969 43.392 113.297 43.952 114.929 43.952C116.561 43.952 117.873 43.392 118.865 42.272C119.889 41.152 120.401 39.728 120.401 38C120.401 36.272 119.889 34.848 118.865 33.728C117.873 32.608 116.561 32.048 114.929 32.048C113.297 32.048 111.969 32.608 110.945 33.728C109.953 34.848 109.457 36.272 109.457 38C109.457 39.728 109.953 41.152 110.945 42.272ZM141.823 50.528C138.911 50.528 136.671 49.552 135.103 47.6C133.535 45.648 132.751 43.008 132.751 39.68V26H139.999V38.432C139.999 42.112 141.231 43.952 143.695 43.952C146.703 43.952 148.207 41.856 148.207 37.664V26H155.455V50H148.207V47.552C146.831 49.536 144.703 50.528 141.823 50.528ZM172.582 50.528C168.966 50.528 165.958 49.328 163.558 46.928C161.158 44.496 159.958 41.52 159.958 38C159.958 34.48 161.158 31.52 163.558 29.12C165.958 26.688 168.966 25.472 172.582 25.472C175.878 25.472 178.598 26.384 180.742 28.208C182.886 30.032 184.294 32.416 184.966 35.36H177.478C176.422 33.12 174.79 32 172.582 32C171.014 32 169.734 32.544 168.742 33.632C167.75 34.688 167.254 36.144 167.254 38C167.254 39.856 167.75 41.328 168.742 42.416C169.734 43.472 171.014 44 172.582 44C174.79 44 176.422 42.88 177.478 40.64H184.966C184.294 43.584 182.886 45.968 180.742 47.792C178.598 49.616 175.878 50.528 172.582 50.528ZM196.027 50L185.514 26H193.531L199.339 40.592L205.195 26H213.259L202.747 50H196.027ZM226.631 50.528C222.919 50.528 219.863 49.344 217.463 46.976C215.095 44.608 213.911 41.6 213.911 37.952C213.911 34.368 215.111 31.392 217.511 29.024C219.943 26.656 222.983 25.472 226.631 25.472C228.391 25.472 230.039 25.776 231.575 26.384C233.143 26.992 234.519 27.872 235.703 29.024C236.919 30.176 237.863 31.664 238.535 33.488C239.207 35.312 239.511 37.376 239.447 39.68H220.967C221.095 40.992 221.671 42.096 222.695 42.992C223.719 43.856 225.159 44.288 227.015 44.288C228.071 44.288 229.031 44.08 229.895 43.664C230.759 43.216 231.335 42.672 231.623 42.032H239.207C238.439 44.56 236.903 46.608 234.599 48.176C232.295 49.744 229.639 50.528 226.631 50.528ZM226.439 31.232C225.063 31.232 223.911 31.584 222.983 32.288C222.087 32.992 221.479 33.92 221.159 35.072H231.431C231.079 33.76 230.423 32.8 229.463 32.192C228.535 31.552 227.527 31.232 226.439 31.232Z" fill="white"/>
<circle cx="32" cy="32" r="32" fill="#6440FB"/>
<g clip-path="url(#clip0_34_16080)">
<path fill-rule="evenodd" clip-rule="evenodd" d="M22.6447 30.6367C23.4213 32.1776 24.1958 33.7201 24.938 35.2776L26.6067 38.7801C25.1352 38.8295 23.6623 38.8416 22.1928 38.9282C21.632 38.9613 21.0743 39.0441 20.5205 39.1389C19.7292 39.2742 18.9088 39.4943 18.1514 39.8057C17.1629 40.2121 15.7982 41.1105 15.8269 42.3517C15.8506 43.57 16.7184 44.4395 17.555 45.2179C18.293 45.9048 19.3647 46.3838 20.2747 46.8329C22.1408 47.7536 24.0927 48.5366 26.0412 49.264C27.39 49.7676 28.7438 50.1559 30.1526 50.4531C30.8104 50.5919 31.8595 50.6254 32.1941 49.8801C32.4365 49.3345 32.2429 48.7269 32.0268 48.208C31.7507 47.545 31.4553 46.8881 31.1603 46.2332L29.9494 43.5448C31.8124 43.578 33.6753 43.636 35.5386 43.6442C37.0226 43.6512 38.49 43.5662 39.9591 43.3544C41.3387 43.1553 42.98 42.574 43.6995 41.2845C44.5483 39.7629 43.7137 37.833 42.8993 36.4807C42.5247 35.8587 42.1985 35.2044 41.7752 34.6144L38.9231 30.6391C39.4294 29.9211 39.9572 29.2175 40.4424 28.4846C41.1623 27.397 41.8701 26.3003 42.5373 25.1792C43.0015 24.399 43.4329 23.5984 43.8345 22.7841C44.6009 21.2309 45.8997 18.6778 44.3146 17.1847C43.3473 16.2735 41.8281 16.2044 40.5785 16.381C39.2678 16.5662 37.9598 16.7758 36.6576 17.014C33.2564 17.6362 29.8439 18.7604 26.5258 19.7773C25.3395 20.1408 24.1823 20.5939 23.0184 21.0225C22.2345 21.3112 21.4637 21.7242 20.7182 22.1257C20.2723 22.3656 19.8285 22.706 19.5604 23.1425C19.401 23.402 19.4517 23.7825 19.5055 24.0666C19.6106 24.6208 19.8453 25.1413 20.0785 25.651L22.6447 30.6367ZM34.1904 21.8827C35.4085 21.6486 36.6272 21.4173 37.849 21.2042C38.2356 21.1368 39.2004 20.9076 39.4215 21.3706C39.7314 22.0203 38.8833 23.1255 38.586 23.6675C38.3317 24.1313 38.0619 24.5867 37.7984 25.0451L36.3958 27.4867L34.2571 25.0994L32.1516 23.0275L31.6059 22.5765L31.4219 22.4391C32.3447 22.2536 33.266 22.0602 34.1904 21.8827ZM30.3659 23.9325C30.3904 23.9305 30.414 23.9538 30.4291 23.9717L30.5 24.0603C30.6348 24.261 30.7574 24.4667 30.8843 24.6722C31.451 25.591 32.0173 26.5103 32.5847 27.4286C32.9605 28.0369 33.3383 28.6443 33.714 29.2529L34.4564 30.4559L34.5208 30.5648C33.9856 31.4451 33.4639 32.3336 32.9152 33.2055C32.4868 33.8864 32.0372 34.5544 31.5899 35.223C31.3971 35.5102 31.0887 35.9129 30.6939 35.8645C29.9299 35.7707 29.6808 34.5744 29.5963 33.9648C29.551 33.6382 29.5104 33.3104 29.4871 32.9815C29.4449 32.3876 29.3854 31.7924 29.3998 31.197C29.4198 30.3769 29.4248 29.5564 29.4593 28.7368C29.4801 28.2471 29.4936 27.755 29.5656 27.2701C29.6648 26.6009 29.7639 25.9316 29.8631 25.2624C29.9052 24.9776 29.9955 24.7002 30.0805 24.4256C30.1254 24.3069 30.174 24.1924 30.2291 24.0782C30.2291 24.0782 30.301 23.9381 30.3659 23.9325ZM29.2502 44.7203C29.6367 45.6599 30.0405 46.6202 30.3006 47.6143C30.334 47.7419 30.358 47.8722 30.3753 48.0029C30.3894 48.11 30.3912 48.2187 30.3947 48.3266C30.3961 48.3562 30.3533 48.3858 30.3273 48.3893C30.2737 48.3966 30.2198 48.366 30.1758 48.3391C29.0418 47.6604 27.9118 46.9743 26.7755 46.2996L22.3356 43.664L22.1988 43.5789L22.305 43.5569L22.7349 43.5096C23.5663 43.4885 24.3974 43.4306 25.229 43.4458L28.7506 43.5099C28.9172 43.9133 29.0842 44.3165 29.2502 44.7203ZM38.3308 38.7224C38.1531 38.8783 37.8706 38.9198 37.6441 38.9488C37.3556 38.9855 37.0657 39.0276 36.7749 39.0283C35.7716 39.0305 34.7681 39.0494 33.7651 39.0347C33.0741 39.0247 32.3835 38.9842 31.6933 38.9542L27.6771 38.7804C27.4441 38.2802 27.2113 37.7795 26.9776 37.2797L23.9899 30.8891C23.3361 29.4165 22.667 27.9505 22.0285 26.4712C21.9083 26.1923 21.815 25.9024 21.7147 25.6159C21.6142 25.3289 21.4754 24.9361 21.6259 24.6404C21.7576 24.3855 22.0687 24.2743 22.3259 24.1941C22.4584 24.1528 22.594 24.1201 22.7306 24.0945C23.8464 23.8848 24.9655 23.692 26.0824 23.4876L29.0951 22.9361L28.9749 23.283L28.8302 23.9408L28.8228 23.9823C28.7199 25.1121 28.5768 26.2386 28.5139 27.3712C28.4417 28.6728 28.4288 29.9775 28.4175 31.281C28.4121 31.8918 28.4258 32.5035 28.4636 33.113C28.4967 33.6438 28.5429 34.1759 28.6301 34.7007C28.7066 35.1623 28.8242 35.6173 28.9538 36.0671C29.1459 36.7342 29.506 37.3925 30.0822 37.8013C30.2804 37.942 30.5055 38.0459 30.7428 38.099C31.4937 38.2676 32.2875 37.8884 32.8754 37.4506C33.499 36.9862 34.1706 36.4566 34.6934 35.8579L36.4592 33.8349C36.8069 34.4413 37.182 35.033 37.5023 35.6543C37.8153 36.2611 38.0785 36.8926 38.3571 37.5161C38.499 37.8337 38.6369 38.3509 38.3915 38.6589C38.3733 38.6819 38.3529 38.703 38.3308 38.7224Z" fill="white"/>
</g>
<defs>
<clipPath id="clip0_34_16080">
<rect width="38.4" height="38.4" fill="white" transform="translate(27.25 5.12012) rotate(35.1898)"/>
</clipPath>
</defs>
</svg>
