<svg width="123" height="120" viewBox="0 0 123 120" fill="none" xmlns="http://www.w3.org/2000/svg">
<g opacity="0.04">
<path d="M15.5952 34.2812C15.5424 34.3357 15.4891 34.3901 15.4363 34.4446C15.4279 34.4811 15.4235 34.5201 15.418 34.5582C15.445 34.5419 15.4685 34.5236 15.4979 34.5085C15.5304 34.4326 15.563 34.3571 15.5952 34.2812Z" fill="url(#paint0_linear_34_9520)"/>
<path d="M29.5 103.843C29.5155 103.858 29.5302 103.873 29.5457 103.888C29.7419 104.145 29.9377 104.402 30.1339 104.659C29.9568 104.38 29.7796 104.1 29.6025 103.82C29.5675 103.83 29.5342 103.835 29.5 103.843Z" fill="url(#paint1_linear_34_9520)"/>
<path d="M14.8498 35.9062C14.8288 35.9138 14.8145 35.9245 14.7922 35.9309C14.7839 35.977 14.774 36.0227 14.7656 36.0688C14.7942 36.0402 14.8248 36.0127 14.8522 35.9837C14.8502 35.9575 14.851 35.9325 14.8498 35.9062Z" fill="url(#paint2_linear_34_9520)"/>
<path d="M64.1966 0C39.9371 1.17676 21.1102 11.2259 8.64998 32.1609C-9.84412 63.2343 2.44295 101.693 34.7904 115.294C64.288 127.696 99.7682 114.783 115.286 85.9962C126.644 64.9266 124.654 39.7909 109.871 22.0546C97.7102 7.46365 81.5434 1.55524 64.1966 0ZM30.191 104.779C30.1763 104.756 30.1616 104.732 30.147 104.709C29.9508 104.452 29.7549 104.195 29.5587 103.938C29.5433 103.923 29.5286 103.908 29.5131 103.893C28.4884 104.116 27.8693 103.304 27.1655 102.791C7.4057 88.3819 1.38055 58.4891 13.8995 36.9771C14.106 36.6224 14.4495 36.3532 14.7486 36.0561C14.7573 36.01 14.7669 35.9644 14.7752 35.9183C14.7979 35.9119 14.8122 35.9012 14.8328 35.8937C14.8102 35.3516 14.952 34.8932 15.4285 34.6057C15.4345 34.5676 15.4385 34.5291 15.4468 34.4921C15.4996 34.4377 15.5529 34.3833 15.6057 34.3289C15.5731 34.4043 15.541 34.4802 15.5084 34.5557C15.479 34.5708 15.4555 34.589 15.4285 34.6053C15.3535 35.097 15.4504 35.676 14.8328 35.8937C14.834 35.9199 14.8332 35.9445 14.8348 35.9707C14.8074 35.9997 14.7768 36.0271 14.7482 36.0557C13.7958 41.1611 12.0655 46.0599 11.6735 51.3357C10.1659 71.6174 14.6775 89.6095 29.5131 103.892C29.5472 103.885 29.5806 103.879 29.6156 103.87C29.7927 104.149 29.9698 104.429 30.147 104.708C30.1597 104.725 30.1724 104.742 30.1851 104.758L30.3237 104.88L30.191 104.779ZM95.1204 101.86C82.2118 111.402 67.9123 115.207 52.1717 113.223C48.2891 112.734 44.7156 111.233 41.4256 109.169C26.144 99.5827 17.2789 85.6403 14.8543 67.2435C13.4106 56.2885 14.0433 45.6254 18.3083 35.4084C25.0165 19.3381 37.4092 10.731 53.5046 7.08675C57.9657 6.0768 62.4746 5.63556 67.0311 5.6026C94.3463 4.65301 113.303 25.6984 117.314 46.1322C121.304 66.4588 112.572 88.9605 95.1204 101.86Z" fill="url(#paint3_linear_34_9520)"/>
<path d="M100.802 27.8699C99.5044 28.3985 99.149 29.6245 99.5422 30.8735C100.008 32.3525 100.7 33.7624 101.372 35.1624C101.833 36.1223 102.371 37.3177 103.639 36.9666C104.888 36.6207 104.729 35.2906 104.841 34.2279C104.495 32.5849 104.797 30.8295 103.981 29.2738C103.277 27.9318 102.225 27.2908 100.802 27.8699Z" fill="url(#paint4_linear_34_9520)"/>
<path d="M89.7783 35.3684C87.9248 35.1277 87.1873 36.6897 87.1127 38.4173C87.0142 40.6985 89.1417 43.3137 90.9431 43.2415C92.5516 43.1771 92.7701 42.0921 92.6128 40.5146C92.1311 38.6858 92.8614 35.7687 89.7783 35.3684Z" fill="url(#paint5_linear_34_9520)"/>
<path d="M63.8824 94.4473C62.3251 94.5148 61.6639 95.5041 61.6115 97.0232C61.5324 99.3147 63.7151 102.543 65.3113 102.422C66.7728 102.312 67.1549 101.228 67.1879 100.429C67.2589 96.8643 65.7629 94.3655 63.8824 94.4473Z" fill="url(#paint6_linear_34_9520)"/>
<path d="M20.324 68.4763C18.6004 68.352 17.8434 69.7865 18.154 71.3826C18.5941 73.646 19.5615 75.8553 21.9706 76.3665C23.5306 76.6973 23.6096 75.1357 23.61 73.8724C22.9861 71.7623 23.6168 68.7138 20.324 68.4763Z" fill="url(#paint7_linear_34_9520)"/>
<path d="M36.9882 26.1899C35.5533 26.2618 34.7169 27.2638 35.0243 28.5947C35.5497 30.8684 35.7777 33.6083 38.3366 34.5027C39.6245 34.9531 39.9343 33.5066 39.9565 32.3462C40.0459 28.6562 38.8326 26.0974 36.9882 26.1899Z" fill="url(#paint8_linear_34_9520)"/>
<path d="M31.8775 71.6595C30.4184 71.5857 29.472 72.764 29.5923 74.2644C29.7722 76.508 30.5721 78.5994 32.9935 79.0875C34.4447 79.3802 35.0095 78.255 34.9181 76.9274C34.3784 74.78 35.1572 71.8256 31.8775 71.6595Z" fill="url(#paint9_linear_34_9520)"/>
<path d="M81.4178 70.0735C79.724 69.9964 78.8983 71.3305 79.1386 72.9393C79.4336 74.9179 79.8653 77.2202 82.3138 77.3799C84.2948 77.5089 84.0771 75.6431 84.1335 74.1216C84.0362 72.2697 83.923 70.1875 81.4178 70.0735Z" fill="url(#paint10_linear_34_9520)"/>
<path d="M42.8358 56.0862C41.1054 55.9631 40.35 57.2665 40.5351 58.9131C40.775 61.0478 41.7162 62.9557 43.9236 63.3088C45.7147 63.5955 45.733 61.941 45.7691 60.4675C45.4689 58.6045 45.5042 56.276 42.8358 56.0862Z" fill="url(#paint11_linear_34_9520)"/>
<path d="M50.104 85.1684C48.7386 84.9905 48.0261 86.0215 47.9427 87.4155C47.8219 89.4318 49.8415 92.5447 51.1771 92.3481C52.7665 92.1146 52.6684 90.7917 52.7049 89.4441C52.4487 87.7157 52.5973 85.4937 50.104 85.1684Z" fill="url(#paint12_linear_34_9520)"/>
<path d="M76.7642 30.4093C75.2328 30.2218 74.4377 31.4733 74.6037 32.965C74.8142 34.8606 75.1847 37.0183 77.4727 37.2351C78.9306 37.3733 79.0161 35.7943 79.1241 34.5059C78.7643 32.9169 79.1006 30.6952 76.7642 30.4093Z" fill="url(#paint13_linear_34_9520)"/>
<path d="M26.5445 32.0498C25.1394 31.9842 24.3764 33.0454 24.5523 34.4156C24.797 36.3227 25.2557 38.5217 27.4769 38.7088C29.3634 38.8676 28.7685 36.8851 28.9838 35.7826C28.9158 33.9362 28.751 32.1526 26.5445 32.0498Z" fill="url(#paint14_linear_34_9520)"/>
<path d="M40.9201 95.3029C39.5575 95.1694 38.6059 96.0114 38.6754 97.4261C38.7763 99.4694 40.054 100.713 41.9452 101.053C43.1708 101.273 43.8801 100.495 43.9548 99.1521C43.4536 97.4451 43.1192 95.5181 40.9201 95.3029Z" fill="url(#paint15_linear_34_9520)"/>
<path d="M56.6499 13.6747C55.5693 13.5071 54.885 14.5091 55.0689 15.5762C55.3882 17.4309 55.53 19.742 57.592 20.3162C59.038 20.7185 58.7794 18.9727 58.9498 17.8567C58.4629 16.3531 59.0622 14.0488 56.6499 13.6747Z" fill="url(#paint16_linear_34_9520)"/>
<path d="M95.0543 58.5939C93.6992 58.578 92.974 59.6484 93.0527 60.9959C93.1655 62.9248 93.9578 64.5984 96.0436 64.6751C97.5544 64.7307 97.662 63.295 97.6806 62.0551C97.6096 60.2393 97.1548 58.6185 95.0543 58.5939Z" fill="url(#paint17_linear_34_9520)"/>
<path d="M21.8305 46.2151C20.3857 45.9939 19.6621 47.1349 19.8333 48.4812C20.047 50.1604 20.6197 51.9241 22.4751 52.2859C23.8795 52.5596 24.0784 51.2827 24.0812 50.0305C23.8806 48.4697 23.947 46.5388 21.8305 46.2151Z" fill="url(#paint18_linear_34_9520)"/>
<path d="M49.8768 46.945C48.6007 46.8398 47.868 47.8513 48.0733 49.0622C48.3704 50.8141 48.7675 52.8761 50.8414 53.1616C52.2831 53.3598 52.0666 51.7581 52.2418 50.7787C52.0277 49.0817 52.1322 47.1309 49.8768 46.945Z" fill="url(#paint19_linear_34_9520)"/>
<path d="M102.443 74.2509C100.85 74.2136 100.096 75.3288 100.292 76.8562C100.491 78.4031 100.882 80.2034 102.863 80.0862C104.603 79.9834 104.395 78.2935 104.529 77.0548C104.505 75.5385 104.071 74.289 102.443 74.2509Z" fill="url(#paint20_linear_34_9520)"/>
<path d="M32.5211 50.848C31.131 50.7149 30.3367 51.7007 30.4384 53.0585C30.5567 54.6392 31.143 56.2321 32.898 56.4541C34.5779 56.6666 34.4703 55.1614 34.5481 54.0605C34.5565 52.4612 34.2959 51.0179 32.5211 50.848Z" fill="url(#paint21_linear_34_9520)"/>
<path d="M108.878 53.9535C107.455 53.8471 106.662 54.7883 106.762 56.1879C106.878 57.7995 107.441 59.4834 109.274 59.5299C110.81 59.5688 110.77 58.0132 110.845 56.8114C110.846 55.369 110.529 54.0766 108.878 53.9535Z" fill="url(#paint22_linear_34_9520)"/>
<path d="M72.6041 90.3054C71.2137 90.2756 70.442 91.2085 70.5584 92.6263C70.7041 94.3984 71.9722 95.0271 73.4834 95.0509C74.6784 95.0696 75.4342 94.4 75.3957 93.033C75.014 91.5159 74.2304 90.3403 72.6041 90.3054Z" fill="url(#paint23_linear_34_9520)"/>
<path d="M64.6625 73.8223C63.4044 73.7687 62.8309 74.7838 62.9048 75.9725C63.0036 77.5583 63.4492 79.274 65.1808 79.4841C66.8131 79.6827 66.5784 78.0139 66.7369 76.9344C66.7059 75.3827 66.4966 73.9006 64.6625 73.8223Z" fill="url(#paint24_linear_34_9520)"/>
<path d="M55.0462 65.4688C53.8861 65.7412 53.1244 66.4449 53.4004 67.7111C53.7475 69.302 54.6371 70.6003 56.3608 70.6996C57.6217 70.7723 57.7893 69.7214 57.6368 68.7C57.4005 67.1197 56.9744 65.6495 55.0462 65.4688Z" fill="url(#paint25_linear_34_9520)"/>
<path d="M89.5785 87.6172C88.4244 87.9027 87.7643 88.7181 87.9108 89.9274C88.0856 91.3707 88.5054 92.999 90.2211 93.0212C91.7354 93.0407 91.8443 91.5899 91.8081 90.3452C91.7656 88.8734 91.1917 87.817 89.5785 87.6172Z" fill="url(#paint26_linear_34_9520)"/>
<path d="M83.1945 18.6754C81.9101 18.476 81.1948 19.4062 81.42 20.6687C81.6607 22.0182 81.7417 23.8042 83.4423 24.0457C84.9558 24.2605 84.7509 22.7593 84.8919 21.8046C84.88 20.3832 84.8331 18.93 83.1945 18.6754Z" fill="url(#paint27_linear_34_9520)"/>
<path d="M75.1527 45.4721C73.8854 45.4073 73.2313 46.295 73.3699 47.5277C73.5438 49.0738 74.4036 50.2331 76.0021 50.2685C77.2623 50.2963 77.2377 49.1433 77.2802 48.1997C77.1733 46.7684 76.7309 45.5527 75.1527 45.4721Z" fill="url(#paint28_linear_34_9520)"/>
<path d="M47.5457 27.4297C46.5115 27.7597 46.0941 28.5846 46.3086 29.6251C46.5818 30.952 47.1315 32.3393 48.707 32.1943C49.9251 32.0823 49.854 30.842 49.6689 29.894C49.4385 28.7133 49.1184 27.5087 47.5457 27.4297Z" fill="url(#paint29_linear_34_9520)"/>
<path d="M69.7109 16.6342C68.9102 16.9051 68.6461 17.6228 68.913 18.3396C69.5036 19.927 69.8614 21.7511 71.9834 22.5867C72.543 20.5084 71.7479 18.902 71.1513 17.3074C70.9548 16.7812 70.3523 16.417 69.7109 16.6342Z" fill="url(#paint30_linear_34_9520)"/>
<path d="M62.7387 36.2282C61.7876 36.2651 61.5437 37.2211 61.6724 38.1095C61.8309 39.2032 62.2546 40.3506 63.4397 40.3593C64.4417 40.3669 64.3945 39.2493 64.4425 38.2421C64.3186 37.3128 64.035 36.1777 62.7387 36.2282Z" fill="url(#paint31_linear_34_9520)"/>
<path d="M84.6961 55.5734C83.9229 55.6731 83.5118 56.245 83.5003 57.0337C83.484 58.1636 84.1492 58.8121 85.156 58.8701C86.1648 58.9285 86.4364 58.1013 86.5003 57.2069C86.3121 56.1703 85.8387 55.4256 84.6961 55.5734Z" fill="url(#paint32_linear_34_9520)"/>
<path d="M44.4755 75.9397C43.6566 75.8968 43.2141 76.487 43.2523 77.3174C43.2948 78.2475 43.8293 78.9294 44.68 79.1157C45.4715 79.2889 45.9692 78.7897 46.07 77.8822C45.9048 76.9461 45.6244 76.0001 44.4755 75.9397Z" fill="url(#paint33_linear_34_9520)"/>
</g>
<defs>
<linearGradient id="paint0_linear_34_9520" x1="15.418" y1="34.4112" x2="15.588" y2="34.411" gradientUnits="userSpaceOnUse">
<stop stop-color="#FFF0D5"/>
<stop offset="1" stop-color="#D6FFF7"/>
</linearGradient>
<linearGradient id="paint1_linear_34_9520" x1="29.5" y1="104.214" x2="30.108" y2="104.213" gradientUnits="userSpaceOnUse">
<stop stop-color="#FFF0D5"/>
<stop offset="1" stop-color="#D6FFF7"/>
</linearGradient>
<linearGradient id="paint2_linear_34_9520" x1="14.7656" y1="35.9825" x2="14.8487" y2="35.9824" gradientUnits="userSpaceOnUse">
<stop stop-color="#FFF0D5"/>
<stop offset="1" stop-color="#D6FFF7"/>
</linearGradient>
<linearGradient id="paint3_linear_34_9520" x1="5.7513e-09" y1="56.2864" x2="117.567" y2="56.1325" gradientUnits="userSpaceOnUse">
<stop stop-color="#FFF0D5"/>
<stop offset="1" stop-color="#D6FFF7"/>
</linearGradient>
<linearGradient id="paint4_linear_34_9520" x1="99.3906" y1="32.0527" x2="104.618" y2="32.0488" gradientUnits="userSpaceOnUse">
<stop stop-color="#FFF0D5"/>
<stop offset="1" stop-color="#D6FFF7"/>
</linearGradient>
<linearGradient id="paint5_linear_34_9520" x1="87.1094" y1="39.0489" x2="92.4287" y2="39.0441" gradientUnits="userSpaceOnUse">
<stop stop-color="#FFF0D5"/>
<stop offset="1" stop-color="#D6FFF7"/>
</linearGradient>
<linearGradient id="paint6_linear_34_9520" x1="61.6094" y1="98.1885" x2="66.9622" y2="98.1837" gradientUnits="userSpaceOnUse">
<stop stop-color="#FFF0D5"/>
<stop offset="1" stop-color="#D6FFF7"/>
</linearGradient>
<linearGradient id="paint7_linear_34_9520" x1="18.0859" y1="72.1943" x2="23.3842" y2="72.1896" gradientUnits="userSpaceOnUse">
<stop stop-color="#FFF0D5"/>
<stop offset="1" stop-color="#D6FFF7"/>
</linearGradient>
<linearGradient id="paint8_linear_34_9520" x1="34.9609" y1="30.1273" x2="39.7568" y2="30.1236" gradientUnits="userSpaceOnUse">
<stop stop-color="#FFF0D5"/>
<stop offset="1" stop-color="#D6FFF7"/>
</linearGradient>
<linearGradient id="paint9_linear_34_9520" x1="29.582" y1="75.1638" x2="34.7091" y2="75.1591" gradientUnits="userSpaceOnUse">
<stop stop-color="#FFF0D5"/>
<stop offset="1" stop-color="#D6FFF7"/>
</linearGradient>
<linearGradient id="paint10_linear_34_9520" x1="79.0977" y1="73.5019" x2="83.9277" y2="73.4976" gradientUnits="userSpaceOnUse">
<stop stop-color="#FFF0D5"/>
<stop offset="1" stop-color="#D6FFF7"/>
</linearGradient>
<linearGradient id="paint11_linear_34_9520" x1="40.5078" y1="59.485" x2="45.5541" y2="59.4803" gradientUnits="userSpaceOnUse">
<stop stop-color="#FFF0D5"/>
<stop offset="1" stop-color="#D6FFF7"/>
</linearGradient>
<linearGradient id="paint12_linear_34_9520" x1="47.9375" y1="88.5296" x2="52.51" y2="88.5258" gradientUnits="userSpaceOnUse">
<stop stop-color="#FFF0D5"/>
<stop offset="1" stop-color="#D6FFF7"/>
</linearGradient>
<linearGradient id="paint13_linear_34_9520" x1="74.582" y1="33.605" x2="78.9384" y2="33.6013" gradientUnits="userSpaceOnUse">
<stop stop-color="#FFF0D5"/>
<stop offset="1" stop-color="#D6FFF7"/>
</linearGradient>
<linearGradient id="paint14_linear_34_9520" x1="24.5273" y1="35.1759" x2="28.8016" y2="35.1722" gradientUnits="userSpaceOnUse">
<stop stop-color="#FFF0D5"/>
<stop offset="1" stop-color="#D6FFF7"/>
</linearGradient>
<linearGradient id="paint15_linear_34_9520" x1="38.6719" y1="98.01" x2="43.7388" y2="98.0041" gradientUnits="userSpaceOnUse">
<stop stop-color="#FFF0D5"/>
<stop offset="1" stop-color="#D6FFF7"/>
</linearGradient>
<linearGradient id="paint16_linear_34_9520" x1="55.0391" y1="16.8078" x2="58.7899" y2="16.805" gradientUnits="userSpaceOnUse">
<stop stop-color="#FFF0D5"/>
<stop offset="1" stop-color="#D6FFF7"/>
</linearGradient>
<linearGradient id="paint17_linear_34_9520" x1="93.0469" y1="61.447" x2="97.4912" y2="61.4426" gradientUnits="userSpaceOnUse">
<stop stop-color="#FFF0D5"/>
<stop offset="1" stop-color="#D6FFF7"/>
</linearGradient>
<linearGradient id="paint18_linear_34_9520" x1="19.8086" y1="49.0655" x2="23.9065" y2="49.0619" gradientUnits="userSpaceOnUse">
<stop stop-color="#FFF0D5"/>
<stop offset="1" stop-color="#D6FFF7"/>
</linearGradient>
<linearGradient id="paint19_linear_34_9520" x1="48.0391" y1="49.8648" x2="52.07" y2="49.8614" gradientUnits="userSpaceOnUse">
<stop stop-color="#FFF0D5"/>
<stop offset="1" stop-color="#D6FFF7"/>
</linearGradient>
<linearGradient id="paint20_linear_34_9520" x1="100.262" y1="76.9901" x2="104.354" y2="76.9862" gradientUnits="userSpaceOnUse">
<stop stop-color="#FFF0D5"/>
<stop offset="1" stop-color="#D6FFF7"/>
</linearGradient>
<linearGradient id="paint21_linear_34_9520" x1="30.4297" y1="53.4807" x2="34.3799" y2="53.477" gradientUnits="userSpaceOnUse">
<stop stop-color="#FFF0D5"/>
<stop offset="1" stop-color="#D6FFF7"/>
</linearGradient>
<linearGradient id="paint22_linear_34_9520" x1="106.754" y1="56.5651" x2="110.678" y2="56.5614" gradientUnits="userSpaceOnUse">
<stop stop-color="#FFF0D5"/>
<stop offset="1" stop-color="#D6FFF7"/>
</linearGradient>
<linearGradient id="paint23_linear_34_9520" x1="70.5469" y1="92.5311" x2="75.1988" y2="92.525" gradientUnits="userSpaceOnUse">
<stop stop-color="#FFF0D5"/>
<stop offset="1" stop-color="#D6FFF7"/>
</linearGradient>
<linearGradient id="paint24_linear_34_9520" x1="62.8984" y1="76.4845" x2="66.58" y2="76.4814" gradientUnits="userSpaceOnUse">
<stop stop-color="#FFF0D5"/>
<stop offset="1" stop-color="#D6FFF7"/>
</linearGradient>
<linearGradient id="paint25_linear_34_9520" x1="53.3438" y1="67.924" x2="57.5064" y2="67.9196" gradientUnits="userSpaceOnUse">
<stop stop-color="#FFF0D5"/>
<stop offset="1" stop-color="#D6FFF7"/>
</linearGradient>
<linearGradient id="paint26_linear_34_9520" x1="87.8906" y1="90.1521" x2="91.6531" y2="90.1486" gradientUnits="userSpaceOnUse">
<stop stop-color="#FFF0D5"/>
<stop offset="1" stop-color="#D6FFF7"/>
</linearGradient>
<linearGradient id="paint27_linear_34_9520" x1="81.3789" y1="21.1898" x2="84.7483" y2="21.187" gradientUnits="userSpaceOnUse">
<stop stop-color="#FFF0D5"/>
<stop offset="1" stop-color="#D6FFF7"/>
</linearGradient>
<linearGradient id="paint28_linear_34_9520" x1="73.3516" y1="47.7203" x2="77.1196" y2="47.7163" gradientUnits="userSpaceOnUse">
<stop stop-color="#FFF0D5"/>
<stop offset="1" stop-color="#D6FFF7"/>
</linearGradient>
<linearGradient id="paint29_linear_34_9520" x1="46.2539" y1="29.6695" x2="49.6293" y2="29.6663" gradientUnits="userSpaceOnUse">
<stop stop-color="#FFF0D5"/>
<stop offset="1" stop-color="#D6FFF7"/>
</linearGradient>
<linearGradient id="paint30_linear_34_9520" x1="68.8125" y1="19.3923" x2="72.0363" y2="19.39" gradientUnits="userSpaceOnUse">
<stop stop-color="#FFF0D5"/>
<stop offset="1" stop-color="#D6FFF7"/>
</linearGradient>
<linearGradient id="paint31_linear_34_9520" x1="61.6406" y1="38.1651" x2="64.328" y2="38.1627" gradientUnits="userSpaceOnUse">
<stop stop-color="#FFF0D5"/>
<stop offset="1" stop-color="#D6FFF7"/>
</linearGradient>
<linearGradient id="paint32_linear_34_9520" x1="83.5" y1="57.1112" x2="86.3777" y2="57.1078" gradientUnits="userSpaceOnUse">
<stop stop-color="#FFF0D5"/>
<stop offset="1" stop-color="#D6FFF7"/>
</linearGradient>
<linearGradient id="paint33_linear_34_9520" x1="43.25" y1="77.4442" x2="45.9548" y2="77.4412" gradientUnits="userSpaceOnUse">
<stop stop-color="#FFF0D5"/>
<stop offset="1" stop-color="#D6FFF7"/>
</linearGradient>
</defs>
</svg>
