<svg width="134" height="40" viewBox="0 0 134 40" fill="none" xmlns="http://www.w3.org/2000/svg">
<path d="M51.896 29V11.96H62.504V15.272H55.376V18.776H61.064V22.088H55.376V25.688H62.504V29H51.896ZM69.6982 29.264C68.1142 29.264 66.7782 28.648 65.6902 27.416C64.6022 26.184 64.0582 24.712 64.0582 23C64.0582 21.288 64.6022 19.816 65.6902 18.584C66.7782 17.352 68.1142 16.736 69.6982 16.736C70.4662 16.736 71.1542 16.896 71.7622 17.216C72.3702 17.536 72.8342 17.912 73.1542 18.344V11H76.4422V29H73.1542V27.656C72.8342 28.088 72.3702 28.464 71.7622 28.784C71.1542 29.104 70.4662 29.264 69.6982 29.264ZM68.1862 25.352C68.7462 25.96 69.4822 26.264 70.3942 26.264C71.3062 26.264 72.0342 25.96 72.5782 25.352C73.1382 24.744 73.4182 23.96 73.4182 23C73.4182 22.04 73.1382 21.256 72.5782 20.648C72.0342 20.04 71.3062 19.736 70.3942 19.736C69.4822 19.736 68.7462 20.04 68.1862 20.648C67.6422 21.256 67.3702 22.04 67.3702 23C67.3702 23.96 67.6422 24.744 68.1862 25.352ZM84.0067 29.264C82.5827 29.264 81.4707 28.784 80.6707 27.824C79.8867 26.864 79.4947 25.576 79.4947 23.96V17H82.7827V23.408C82.7827 25.312 83.4627 26.264 84.8227 26.264C85.5907 26.264 86.1907 25.976 86.6227 25.4C87.0707 24.824 87.2947 23.976 87.2947 22.856V17H90.5827V29H87.2947V27.632C86.5587 28.72 85.4627 29.264 84.0067 29.264ZM99.2921 29.264C97.4841 29.264 95.9801 28.664 94.7801 27.464C93.5801 26.248 92.9801 24.76 92.9801 23C92.9801 21.24 93.5801 19.76 94.7801 18.56C95.9801 17.344 97.4841 16.736 99.2921 16.736C100.892 16.736 102.228 17.184 103.3 18.08C104.388 18.976 105.1 20.144 105.436 21.584H102.028C101.5 20.336 100.588 19.712 99.2921 19.712C98.4121 19.712 97.6921 20.016 97.1321 20.624C96.5721 21.216 96.2921 22.008 96.2921 23C96.2921 23.992 96.5721 24.792 97.1321 25.4C97.6921 25.992 98.4121 26.288 99.2921 26.288C100.588 26.288 101.5 25.664 102.028 24.416H105.436C105.1 25.856 104.388 27.024 103.3 27.92C102.228 28.816 100.892 29.264 99.2921 29.264ZM111.156 29L105.852 17H109.476L112.644 24.68L115.812 17H119.484L114.156 29H111.156ZM126.245 29.264C124.405 29.264 122.893 28.672 121.709 27.488C120.541 26.304 119.957 24.8 119.957 22.976C119.957 21.184 120.549 19.696 121.733 18.512C122.933 17.328 124.445 16.736 126.269 16.736C128.109 16.736 129.637 17.368 130.853 18.632C132.069 19.88 132.629 21.592 132.533 23.768H123.173C123.237 24.52 123.549 25.152 124.109 25.664C124.669 26.16 125.437 26.408 126.413 26.408C127.005 26.408 127.525 26.296 127.973 26.072C128.437 25.832 128.765 25.504 128.957 25.088H132.389C132.037 26.32 131.301 27.328 130.181 28.112C129.061 28.88 127.749 29.264 126.245 29.264ZM126.173 19.4C125.421 19.4 124.789 19.6 124.277 20C123.781 20.384 123.453 20.92 123.293 21.608H128.933C128.757 20.856 128.405 20.304 127.877 19.952C127.365 19.584 126.797 19.4 126.173 19.4Z" fill="#00001B"/>
<circle cx="20" cy="20" r="20" fill="#21225F"/>
<g clip-path="url(#clip0_34_7930)">
<path fill-rule="evenodd" clip-rule="evenodd" d="M14.1532 19.1523C14.6386 20.1154 15.1226 21.0794 15.5865 22.0529L16.6294 24.2419C15.7098 24.2728 14.7892 24.2804 13.8708 24.3345C13.5202 24.3552 13.1717 24.407 12.8256 24.4662C12.331 24.5508 11.8183 24.6883 11.3448 24.8829C10.7271 25.1369 9.8741 25.6984 9.89204 26.4742C9.90686 27.2356 10.4492 27.7791 10.9721 28.2656C11.4334 28.6949 12.1032 28.9943 12.6719 29.275C13.8382 29.8504 15.0582 30.3398 16.276 30.7944C17.119 31.1091 17.9651 31.3518 18.8456 31.5376C19.2567 31.6244 19.9124 31.6452 20.1215 31.1795C20.2731 30.8384 20.152 30.4587 20.017 30.1344C19.8445 29.72 19.6598 29.3094 19.4754 28.9002L18.7186 27.2199C19.883 27.2406 21.0473 27.2769 22.2118 27.282C23.1393 27.2864 24.0565 27.2333 24.9747 27.1009C25.8369 26.9765 26.8628 26.6132 27.3124 25.8072C27.8429 24.8562 27.3213 23.65 26.8123 22.8048C26.5782 22.4161 26.3743 22.0071 26.1098 21.6384L24.3272 19.1538C24.6436 18.7051 24.9735 18.2653 25.2768 17.8072C25.7267 17.1275 26.1691 16.4421 26.5861 15.7414C26.8762 15.2538 27.1458 14.7534 27.3968 14.2444C27.8758 13.2737 28.6876 11.678 27.6969 10.7448C27.0923 10.1753 26.1428 10.1322 25.3618 10.2425C24.5426 10.3583 23.7251 10.4893 22.9113 10.6382C20.7855 11.027 18.6527 11.7296 16.5789 12.3652C15.8374 12.5924 15.1142 12.8756 14.3868 13.1435C13.8968 13.3239 13.4151 13.5821 12.9491 13.833C12.6705 13.9829 12.3931 14.1957 12.2255 14.4685C12.1259 14.6306 12.1576 14.8685 12.1912 15.046C12.2568 15.3924 12.4036 15.7177 12.5493 16.0362L14.1532 19.1523ZM21.3692 13.6811C22.1305 13.5348 22.8922 13.3902 23.6559 13.257C23.8975 13.2149 24.5005 13.0716 24.6387 13.361C24.8324 13.7671 24.3023 14.4578 24.1165 14.7966C23.9575 15.0864 23.7889 15.3711 23.6242 15.6576L22.7476 17.1836L21.4109 15.6915L20.095 14.3966L19.7539 14.1147L19.6389 14.0288C20.2157 13.9129 20.7915 13.792 21.3692 13.6811ZM18.9789 14.9622C18.9942 14.9609 19.009 14.9755 19.0184 14.9867L19.0628 15.0421C19.147 15.1675 19.2236 15.2961 19.3029 15.4245C19.6571 15.9987 20.0111 16.5733 20.3657 17.1472C20.6005 17.5275 20.8367 17.9071 21.0715 18.2875L21.5355 19.0393L21.5758 19.1074C21.2413 19.6576 20.9152 20.2129 20.5722 20.7578C20.3045 21.1834 20.0235 21.6009 19.7439 22.0188C19.6234 22.1983 19.4307 22.45 19.1839 22.4197C18.7065 22.3611 18.5508 21.6134 18.4979 21.2324C18.4696 21.0283 18.4443 20.8234 18.4297 20.6178C18.4033 20.2466 18.3661 19.8746 18.3751 19.5025C18.3876 18.9899 18.3907 18.4772 18.4123 17.9649C18.4253 17.6589 18.4337 17.3512 18.4787 17.0482C18.5407 16.6299 18.6027 16.2117 18.6647 15.7934C18.691 15.6154 18.7475 15.442 18.8006 15.2704C18.8286 15.1962 18.859 15.1247 18.8934 15.0533C18.8934 15.0533 18.9384 14.9657 18.9789 14.9622ZM18.2816 27.9546C18.5232 28.5418 18.7755 29.142 18.9381 29.7633C18.959 29.8431 18.974 29.9245 18.9848 30.0062C18.9936 30.0732 18.9948 30.1411 18.9969 30.2085C18.9978 30.227 18.9711 30.2455 18.9548 30.2477C18.9213 30.2522 18.8876 30.2332 18.8601 30.2164C18.1514 29.7921 17.4451 29.3633 16.735 28.9416L13.96 27.2944L13.8745 27.2412L13.9408 27.2274L14.2095 27.1979C14.7292 27.1847 15.2486 27.1485 15.7684 27.158L17.9694 27.1981C18.0735 27.4502 18.1778 27.7022 18.2816 27.9546ZM23.957 24.2059C23.8459 24.3034 23.6694 24.3293 23.5278 24.3474C23.3475 24.3703 23.1663 24.3966 22.9846 24.3971C22.3575 24.3985 21.7303 24.4103 21.1034 24.4011C20.6715 24.3949 20.2399 24.3696 19.8085 24.3508L17.2984 24.2422C17.1528 23.9295 17.0073 23.6166 16.8612 23.3042L14.9939 19.3101C14.5853 18.3897 14.1671 17.4734 13.7681 16.5489C13.6929 16.3746 13.6346 16.1934 13.5719 16.0144C13.5091 15.835 13.4224 15.5894 13.5164 15.4047C13.5988 15.2453 13.7932 15.1758 13.9539 15.1257C14.0367 15.0999 14.1215 15.0795 14.2068 15.0635C14.9043 14.9324 15.6037 14.8119 16.3018 14.6841L18.1847 14.3394L18.1096 14.5563L18.0191 14.9674L18.0145 14.9934C17.9502 15.6995 17.8607 16.4035 17.8214 17.1114C17.7763 17.9249 17.7683 18.7404 17.7612 19.555C17.7578 19.9368 17.7664 20.3191 17.79 20.7C17.8107 21.0318 17.8396 21.3643 17.8941 21.6923C17.9419 21.9808 18.0154 22.2652 18.0964 22.5463C18.2165 22.9633 18.4415 23.3747 18.8016 23.6302C18.9255 23.7182 19.0662 23.7831 19.2145 23.8163C19.6838 23.9217 20.1799 23.6846 20.5474 23.411C20.9371 23.1208 21.3569 22.7898 21.6836 22.4156L22.7873 21.1512C23.0046 21.5302 23.239 21.9 23.4392 22.2883C23.6348 22.6676 23.7993 23.0623 23.9734 23.4519C24.0621 23.6504 24.1483 23.9737 23.9949 24.1662C23.9836 24.1806 23.9708 24.1938 23.957 24.2059Z" fill="white"/>
</g>
<defs>
<clipPath id="clip0_34_7930">
<rect width="24" height="24" fill="white" transform="translate(17.0312 3.20312) rotate(35.1898)"/>
</clipPath>
</defs>
</svg>
