<svg width="106" height="30" viewBox="0 0 106 30" fill="none" xmlns="http://www.w3.org/2000/svg">
<path d="M37.58 22V7.8H46.42V10.56H40.48V13.48H45.22V16.24H40.48V19.24H46.42V22H37.58ZM52.4152 22.22C51.0952 22.22 49.9818 21.7067 49.0752 20.68C48.1685 19.6533 47.7152 18.4267 47.7152 17C47.7152 15.5733 48.1685 14.3467 49.0752 13.32C49.9818 12.2933 51.0952 11.78 52.4152 11.78C53.0552 11.78 53.6285 11.9133 54.1352 12.18C54.6418 12.4467 55.0285 12.76 55.2952 13.12V7H58.0352V22H55.2952V20.88C55.0285 21.24 54.6418 21.5533 54.1352 21.82C53.6285 22.0867 53.0552 22.22 52.4152 22.22ZM51.1552 18.96C51.6218 19.4667 52.2352 19.72 52.9952 19.72C53.7552 19.72 54.3618 19.4667 54.8152 18.96C55.2818 18.4533 55.5152 17.8 55.5152 17C55.5152 16.2 55.2818 15.5467 54.8152 15.04C54.3618 14.5333 53.7552 14.28 52.9952 14.28C52.2352 14.28 51.6218 14.5333 51.1552 15.04C50.7018 15.5467 50.4752 16.2 50.4752 17C50.4752 17.8 50.7018 18.4533 51.1552 18.96ZM64.3389 22.22C63.1522 22.22 62.2256 21.82 61.5589 21.02C60.9056 20.22 60.5789 19.1467 60.5789 17.8V12H63.3189V17.34C63.3189 18.9267 63.8856 19.72 65.0189 19.72C65.6589 19.72 66.1589 19.48 66.5189 19C66.8922 18.52 67.0789 17.8133 67.0789 16.88V12H69.8189V22H67.0789V20.86C66.4656 21.7667 65.5522 22.22 64.3389 22.22ZM77.0767 22.22C75.5701 22.22 74.3167 21.72 73.3167 20.72C72.3167 19.7067 71.8167 18.4667 71.8167 17C71.8167 15.5333 72.3167 14.3 73.3167 13.3C74.3167 12.2867 75.5701 11.78 77.0767 11.78C78.4101 11.78 79.5234 12.1533 80.4167 12.9C81.3234 13.6467 81.9167 14.62 82.1967 15.82H79.3567C78.9167 14.78 78.1567 14.26 77.0767 14.26C76.3434 14.26 75.7434 14.5133 75.2767 15.02C74.8101 15.5133 74.5767 16.1733 74.5767 17C74.5767 17.8267 74.8101 18.4933 75.2767 19C75.7434 19.4933 76.3434 19.74 77.0767 19.74C78.1567 19.74 78.9167 19.22 79.3567 18.18H82.1967C81.9167 19.38 81.3234 20.3533 80.4167 21.1C79.5234 21.8467 78.4101 22.22 77.0767 22.22ZM86.9634 22L82.5434 12H85.5634L88.2034 18.4L90.8434 12H93.9034L89.4634 22H86.9634ZM99.5372 22.22C98.0039 22.22 96.7439 21.7267 95.7572 20.74C94.7839 19.7533 94.2972 18.5 94.2972 16.98C94.2972 15.4867 94.7905 14.2467 95.7772 13.26C96.7772 12.2733 98.0372 11.78 99.5572 11.78C101.091 11.78 102.364 12.3067 103.377 13.36C104.391 14.4 104.857 15.8267 104.777 17.64H96.9772C97.0305 18.2667 97.2905 18.7933 97.7572 19.22C98.2239 19.6333 98.8639 19.84 99.6772 19.84C100.171 19.84 100.604 19.7467 100.977 19.56C101.364 19.36 101.637 19.0867 101.797 18.74H104.657C104.364 19.7667 103.751 20.6067 102.817 21.26C101.884 21.9 100.791 22.22 99.5372 22.22ZM99.4772 14C98.8505 14 98.3239 14.1667 97.8972 14.5C97.4839 14.82 97.2105 15.2667 97.0772 15.84H101.777C101.631 15.2133 101.337 14.7533 100.897 14.46C100.471 14.1533 99.9972 14 99.4772 14Z" fill="white"/>
<circle cx="15" cy="15" r="15" fill="white"/>
<g clip-path="url(#clip0_2099_478)">
<path fill-rule="evenodd" clip-rule="evenodd" d="M11.5404 14.5352C11.8316 15.113 12.122 15.6914 12.4003 16.2755L13.0261 17.5889C12.4743 17.6074 11.9219 17.612 11.3709 17.6445C11.1606 17.6569 10.9514 17.6879 10.7438 17.7235C10.447 17.7742 10.1394 17.8567 9.85534 17.9735C9.48467 18.1259 8.9729 18.4628 8.98366 18.9283C8.99255 19.3851 9.31798 19.7112 9.6317 20.0031C9.90848 20.2607 10.3103 20.4403 10.6516 20.6087C11.3514 20.954 12.0834 21.2476 12.814 21.5204C13.3198 21.7092 13.8275 21.8548 14.3558 21.9663C14.6025 22.0184 14.9959 22.0309 15.1214 21.7514C15.2123 21.5468 15.1397 21.319 15.0586 21.1244C14.9551 20.8758 14.8443 20.6294 14.7337 20.3838L14.2796 19.3757C14.9782 19.3881 15.6768 19.4099 16.3755 19.413C16.932 19.4156 17.4823 19.3837 18.0333 19.3043C18.5506 19.2296 19.1661 19.0116 19.4359 18.5281C19.7542 17.9575 19.4412 17.2337 19.1358 16.7266C18.9954 16.4934 18.873 16.248 18.7143 16.0268L17.6448 14.536C17.8346 14.2668 18.0325 14.0029 18.2145 13.7281C18.4845 13.3203 18.7499 12.909 19.0001 12.4886C19.1741 12.196 19.3359 11.8958 19.4865 11.5904C19.7739 11.008 20.261 10.0506 19.6666 9.49063C19.3038 9.14894 18.7341 9.12305 18.2655 9.18927C17.774 9.25873 17.2835 9.33733 16.7952 9.42665C15.5197 9.65996 14.2401 10.0815 12.9958 10.4629C12.5509 10.5992 12.117 10.7691 11.6805 10.9298C11.3865 11.0381 11.0975 11.193 10.8179 11.3435C10.6507 11.4335 10.4843 11.5611 10.3837 11.7248C10.324 11.8221 10.343 11.9648 10.3632 12.0714C10.4025 12.2792 10.4906 12.4744 10.578 12.6655L11.5404 14.5352ZM15.87 11.2524C16.3268 11.1646 16.7838 11.0779 17.242 10.998C17.3869 10.9727 17.7487 10.8867 17.8316 11.0604C17.9479 11.304 17.6298 11.7184 17.5183 11.9217C17.423 12.0956 17.3218 12.2664 17.223 12.4383L16.697 13.3539L15.895 12.4587L15.1054 11.6817L14.9008 11.5126L14.8318 11.461C15.1778 11.3915 15.5233 11.319 15.87 11.2524ZM14.4358 12.0211C14.445 12.0203 14.4538 12.029 14.4595 12.0358L14.4861 12.069C14.5366 12.1443 14.5826 12.2214 14.6302 12.2985C14.8427 12.643 15.0551 12.9877 15.2678 13.3321C15.4088 13.5602 15.5504 13.788 15.6913 14.0162L15.9697 14.4674L15.9939 14.5082C15.7932 14.8383 15.5975 15.1715 15.3918 15.4984C15.2311 15.7538 15.0625 16.0043 14.8948 16.255C14.8225 16.3627 14.7069 16.5137 14.5588 16.4956C14.2723 16.4604 14.1789 16.0118 14.1472 15.7832C14.1302 15.6607 14.115 15.5378 14.1063 15.4144C14.0904 15.1917 14.0681 14.9685 14.0735 14.7453C14.081 14.4377 14.0829 14.13 14.0958 13.8227C14.1036 13.6391 14.1087 13.4545 14.1357 13.2727C14.1729 13.0217 14.21 12.7708 14.2472 12.5198C14.263 12.413 14.2969 12.309 14.3288 12.206C14.3456 12.1615 14.3638 12.1186 14.3845 12.0757C14.3845 12.0757 14.4115 12.0232 14.4358 12.0211ZM14.0174 19.8165C14.1624 20.1689 14.3138 20.529 14.4113 20.9017C14.4238 20.9496 14.4329 20.9985 14.4393 21.0475C14.4446 21.0876 14.4453 21.1284 14.4466 21.1689C14.4471 21.18 14.4311 21.1911 14.4213 21.1924C14.4012 21.1951 14.381 21.1836 14.3645 21.1736C13.9393 20.919 13.5155 20.6618 13.0894 20.4087L11.4244 19.4204L11.3731 19.3885L11.4129 19.3802L11.5742 19.3625C11.886 19.3546 12.1976 19.3329 12.5095 19.3385L13.8301 19.3626C13.8925 19.5139 13.9551 19.6651 14.0174 19.8165ZM17.4227 17.5673C17.356 17.6258 17.2501 17.6413 17.1651 17.6522C17.0569 17.666 16.9482 17.6817 16.8392 17.682C16.4629 17.6828 16.0866 17.6899 15.7105 17.6844C15.4514 17.6807 15.1924 17.6655 14.9336 17.6542L13.4275 17.589C13.3401 17.4015 13.2528 17.2137 13.1652 17.0263L12.0448 14.6298C11.7996 14.0776 11.5487 13.5278 11.3093 12.9731C11.2642 12.8685 11.2292 12.7598 11.1916 12.6524C11.1539 12.5447 11.1019 12.3974 11.1583 12.2865C11.2077 12.1909 11.3243 12.1492 11.4208 12.1192C11.4705 12.1037 11.5213 12.0914 11.5725 12.0818C11.991 12.0032 12.4106 11.9309 12.8295 11.8542L13.9592 11.6474L13.9142 11.7775L13.8599 12.0242L13.8571 12.0398C13.8186 12.4634 13.7649 12.8859 13.7413 13.3106C13.7142 13.7987 13.7094 14.288 13.7051 14.7768C13.7031 15.0058 13.7083 15.2352 13.7224 15.4638C13.7348 15.6628 13.7522 15.8624 13.7849 16.0591C13.8136 16.2322 13.8577 16.4029 13.9063 16.5716C13.9783 16.8217 14.1133 17.0686 14.3294 17.2219C14.4037 17.2746 14.4881 17.3136 14.5771 17.3335C14.8587 17.3967 15.1564 17.2545 15.3769 17.0904C15.6107 16.9162 15.8626 16.7176 16.0586 16.4931L16.7208 15.7345C16.8512 15.9619 16.9918 16.1838 17.1119 16.4168C17.2293 16.6443 17.328 16.8811 17.4325 17.1149C17.4857 17.234 17.5374 17.428 17.4454 17.5435C17.4386 17.5521 17.4309 17.56 17.4227 17.5673Z" fill="#00001B"/>
</g>
<defs>
<clipPath id="clip0_2099_478">
<rect width="14.4" height="14.4" fill="white" transform="translate(13.2656 4.96875) rotate(35.1898)"/>
</clipPath>
</defs>
</svg>
