<svg width="76" height="95" viewBox="0 0 76 95" fill="none" xmlns="http://www.w3.org/2000/svg">
<g opacity="0.56">
<path d="M12.522 94.4099C13.8897 94.5155 15.2507 94.4352 16.6068 94.2526C18.7113 93.9693 20.7692 93.474 22.7997 92.8615C30.9811 90.3938 38.5159 86.5809 45.5958 81.8411C48.0998 80.1648 50.4825 78.3194 52.7865 76.3736C56.1411 73.5407 59.235 70.456 61.9134 66.97C64.1916 64.0048 66.0927 60.8217 67.3732 57.2922C69.419 51.6534 69.5969 45.9604 67.727 40.2533C65.5753 33.6864 61.5877 28.4314 56.339 24.1062C56.3528 24.076 56.3718 24.0441 56.3984 24.0101C56.5415 24.0609 56.6774 24.093 56.7984 24.1545C57.9039 24.7168 58.8068 25.5407 59.6831 26.3988C60.6912 27.3858 61.6714 28.4038 62.7188 29.3471C63.9841 30.4865 65.5043 31.0782 67.2073 31.183C67.63 31.209 68.0535 31.2372 68.4766 31.2363C70.312 31.2323 72.1476 31.222 73.983 31.2033C74.3105 31.2 74.6446 31.1787 74.9631 31.1086C75.5529 30.9788 75.815 30.4466 75.5382 29.9229C75.3643 29.5937 75.1435 29.2782 74.8933 29.0022C72.9329 26.8396 70.926 24.7232 68.6317 22.9033C65.9587 20.783 62.9591 19.3993 59.5711 18.8936C59.2919 18.852 59.0104 18.817 58.7368 18.7506C58.6174 18.7216 58.5153 18.6211 58.3307 18.5071C58.491 18.3408 58.5933 18.1914 58.7328 18.0967C60.2271 17.0817 61.4831 15.8115 62.6116 14.4178C63.8253 12.9188 65.004 11.3911 66.1744 9.85787C66.5149 9.4118 66.821 8.92615 67.0622 8.42021C67.6323 7.22491 67.4237 6.20776 66.382 5.40771C65.7538 4.92531 65.0499 4.51409 64.3264 4.19083C63.5593 3.84801 62.7451 3.56229 61.9221 3.40301C60.4665 3.1213 59.5671 3.66208 59.0452 5.03628C58.8288 5.60606 58.711 6.21251 58.5259 6.79513C58.1132 8.09465 57.7403 9.41037 57.252 10.6814C56.6206 12.3249 55.6416 13.7698 54.3801 15.0013C52.7485 16.594 50.7681 17.5043 48.5284 17.8696C48.4915 17.8756 48.4474 17.8368 48.3294 17.785C48.454 17.4943 48.6065 17.2083 48.7011 16.9044C48.938 16.1435 49.2445 15.3877 49.3527 14.6064C49.748 11.7508 48.798 9.32356 46.823 7.27499C45.5702 5.97548 44.0719 5.001 42.5184 4.10331C40.4409 2.90282 38.3692 1.69213 36.2943 0.487284C36.0911 0.369321 35.8898 0.242868 35.6744 0.151986C34.8637 -0.189873 34.3128 0.0444781 33.9855 0.860012C33.9331 0.990534 33.883 1.12584 33.8598 1.26365C33.5115 3.33101 33.4304 5.38135 34.2544 7.3744C34.3766 7.6701 34.469 7.97812 34.6315 8.44082C34.2235 8.29985 33.9574 8.23514 33.7152 8.1202C30.8783 6.77318 27.8882 6.33737 24.7757 6.5734C22.4298 6.75132 20.0813 6.89603 17.7348 7.06826C17.3632 7.09553 16.9766 7.13642 16.6316 7.26435C15.8593 7.55056 15.6876 8.37616 16.2415 8.97523C16.305 9.04397 16.3774 9.10542 16.4498 9.16519C17.4401 9.98197 18.5051 10.6549 19.7803 10.9424C20.7445 11.1597 21.708 11.3822 22.6646 11.6298C24.0994 12.0012 25.409 12.6391 26.4938 13.6577C26.5364 13.6978 26.578 13.7391 26.62 13.7799C22.8428 14.1321 19.2949 15.2084 16.0441 17.2233C13.0317 19.0905 10.63 21.5789 8.67521 24.5165C6.86305 27.2398 5.52945 30.192 4.4847 33.2822C3.54794 36.0531 2.85934 38.8884 2.32608 41.7608C1.19879 47.8327 0.494695 53.9569 0.161991 60.1219C-0.153265 65.9632 -0.0432028 71.7924 0.802769 77.5927C1.18398 80.2065 1.74753 82.7784 2.61071 85.2785C3.19665 86.9756 3.95441 88.5846 4.96681 90.0797C6.78534 92.7648 9.31827 94.1623 12.522 94.4099ZM55.0294 16.9825C56.6805 15.6594 57.8294 13.9666 58.6873 12.0556C59.3252 10.6346 59.7338 9.14256 60.0865 7.63099C60.2357 6.99176 60.3952 6.35195 60.6045 5.73073C60.7722 5.23319 61.1016 5.05617 61.5922 5.17447C62.8411 5.47558 63.9587 6.06871 64.9981 6.8088C65.31 7.03082 65.3612 7.33338 65.1976 7.68334C65.0987 7.89501 64.9886 8.10745 64.8482 8.29276C63.0342 10.6863 61.2727 13.1253 59.107 15.2259C58.0183 16.2819 56.7853 17.1297 55.3416 17.6381C55.1662 17.6999 54.9809 17.7403 54.7967 17.7676C54.7114 17.7802 54.6178 17.7374 54.3186 17.6785C54.6393 17.3621 54.818 17.1519 55.0294 16.9825ZM62.8017 21.2173C63.4215 21.4417 64.0261 21.7073 64.6132 22.007C66.8865 23.1676 68.8649 24.8214 70.6911 26.5869C71.154 27.0344 71.6083 27.4908 72.0578 27.9518C72.3467 28.2481 73.2587 28.9107 73.3173 29.3212C73.3256 29.3795 73.3216 29.4299 73.3074 29.4732C73.174 29.8794 72.1384 29.6745 71.8258 29.6511C71.1706 29.6019 70.5188 29.5141 69.8634 29.4671C68.5391 29.3722 67.1812 29.4376 65.9152 29.0374C63.5591 28.2927 61.999 26.1205 60.0572 24.5924C57.7131 22.7475 54.788 21.8381 51.9353 20.9657C51.5745 20.8554 51.0351 20.847 50.9776 21.2198C53.2266 22.657 55.0919 24.7036 56.2585 27.1042C57.425 29.5048 57.8813 32.2549 57.4905 34.8952C57.3598 35.7782 57.121 36.6793 56.5522 37.3672C55.9228 36.9649 55.6205 36.2207 55.3303 35.5323C54.4636 33.4763 53.3716 31.5013 51.9426 29.7878C50.7801 28.3937 49.4028 27.1815 48.3284 25.7185C47.2539 24.2554 46.4857 22.4356 46.7963 20.6472C46.837 20.4127 46.9147 20.1554 47.1229 20.0401C47.2714 19.9579 47.4517 19.9684 47.6211 19.98C52.7109 20.3272 58.0048 19.4806 62.8017 21.2173ZM36.1657 8.09297C35.4532 5.91628 34.8717 3.6142 35.2341 1.35281C35.2343 1.3519 35.2344 1.35099 35.2346 1.35008C37.4228 2.70596 39.6112 4.06185 41.7995 5.41773C43.0978 6.22214 44.4065 7.03456 45.5114 8.08909C48.2793 10.7309 48.8492 15.0241 46.3247 18.0588C46.1779 18.2352 46.005 18.4145 45.7789 18.4529C45.4425 18.5098 45.1478 18.2395 44.9171 17.9882C42.7874 15.6676 40.9257 13.0613 38.4284 11.1419C37.9313 10.7598 37.4042 10.4001 37.017 9.90705C36.6024 9.37882 36.3747 8.7312 36.1657 8.09297ZM20.3162 9.68694C20.07 9.64021 19.7716 9.54678 19.7276 9.29997C19.6699 8.97671 20.0898 8.80257 20.4142 8.75191C23.4801 8.27296 26.6122 7.79411 29.6693 8.32626C32.9824 8.90294 36.0037 10.6463 38.5662 12.824C39.8866 13.946 41.1004 15.1866 42.2566 16.4755C43.1696 17.4933 44.8844 18.9286 45.3447 20.2102C45.3472 20.2172 45.3497 20.2241 45.3521 20.2311C43.2862 21.212 40.1605 20.7231 38.0599 20.0898C35.6572 19.3655 33.4562 18.0497 31.5485 16.4193C29.6011 14.755 27.9157 12.7417 25.692 11.4699C24.0454 10.5283 22.1798 10.0403 20.3162 9.68694ZM6.46487 86.1784C5.48416 84.0745 4.96129 81.8237 4.54883 79.5497C3.90859 76.0199 3.63312 72.4539 3.5999 68.8716C3.51152 59.3256 4.50867 49.8837 6.42551 40.5381C7.03153 37.5834 7.85133 34.6835 8.96994 31.8759C9.96705 29.3733 11.1944 26.9944 12.8021 24.8233C15.7812 20.7999 19.6957 18.1899 24.5997 17.1496C26.0696 16.8378 27.582 16.7268 29.076 16.5262C29.3701 16.8715 29.6673 17.2139 29.9812 17.5403C32.8403 20.5126 36.2127 22.368 40.4607 22.2803C40.8369 22.2725 41.2145 22.3058 41.5898 22.2875C42.8055 22.2282 44.0204 22.1538 45.3959 22.0761C45.4528 22.4444 45.4984 22.7676 45.5532 23.0893C45.8199 24.6539 46.4731 26.0513 47.4376 27.2988C47.9551 27.9681 48.5041 28.6178 49.085 29.2329C50.9029 31.1582 52.5536 33.1998 53.7217 35.5977C54.01 36.1896 54.3077 36.7798 54.6474 37.3428C54.9119 37.7813 55.1995 38.227 55.5642 38.579C56.1091 39.1051 56.7792 39.1333 57.3576 38.6644C57.7139 38.3756 58.0724 38.0113 58.2546 37.6028C58.6158 36.7925 58.9899 35.9488 59.1225 35.0828C59.3225 33.7762 59.3822 32.5003 59.2746 31.2635C60.9557 33.3391 62.409 35.5679 63.5335 38.0113C65.5091 42.3034 66.3213 46.7816 65.5787 51.4908C65.1115 54.4538 64.0829 57.2215 62.6556 59.8478C61.3466 62.2565 59.747 64.4637 57.9769 66.5514C54.2377 70.9613 49.8619 74.6657 45.1756 78.0123C40.9523 81.0284 36.4634 83.6066 31.7753 85.8287C28.2414 87.5037 24.6168 88.9558 20.8481 90.0253C18.9891 90.5529 17.1118 90.9934 15.1826 91.1751C13.9594 91.2903 12.7383 91.3126 11.527 91.0558C10.0892 90.751 8.87207 90.0595 8.02969 88.8481C7.44203 88.0029 6.89909 87.1099 6.46487 86.1784Z" fill="#006766"/>
<path d="M47.1996 41.3981C46.6261 44.425 45.6321 47.3098 44.1448 50.007C43.1692 51.7764 42.1554 53.5295 41.0644 55.2294C38.9292 58.556 36.576 61.7309 34.0767 64.7922C30.1181 69.6409 25.796 74.1593 21.4386 78.6473C19.7537 80.3828 17.8954 81.8707 15.8626 83.1606C15.4657 83.4124 15.0746 83.6751 14.6962 83.9536C14.5611 84.053 14.3788 84.1692 14.5393 84.5702C14.7412 84.5116 14.9306 84.4899 15.0865 84.4057C15.9139 83.9589 16.7371 83.5039 17.554 83.0382C20.3992 81.4162 22.7974 79.2304 25.1515 76.9914C27.9483 74.3314 30.5043 71.4444 33.0845 68.5792C38.5954 62.4594 43.1828 55.7148 46.7961 48.3159C47.5169 46.8399 48.1623 45.3183 48.7205 43.7736C49.7881 40.819 50.2011 37.7518 49.9997 34.6134C49.9517 33.8654 49.8447 33.1155 49.6931 32.3813C49.5327 31.6052 49.2148 31.2306 48.9322 31.3617C48.4515 31.5847 48.5454 32.0743 48.519 32.4696C48.3179 35.4818 47.76 38.4401 47.1996 41.3981Z" fill="#006766"/>
<path d="M27.835 35.9802C25.478 39.3735 23.7922 43.0969 22.6185 47.0401C21.3571 51.2776 20.1202 55.5262 19.0318 59.8104C17.6999 65.053 16.5324 70.3373 15.2957 75.604C14.7687 77.8481 14.2399 80.0919 13.7276 82.3393C13.6392 82.7271 13.4308 83.1353 13.7855 83.6457C14.3008 83.1718 14.343 82.6328 14.4801 82.1454C16.7736 73.994 19.0922 65.8495 21.1336 57.6296C21.8821 54.6154 22.7054 51.6222 23.7576 48.6962C25.6024 43.5662 28.0957 38.7937 31.5494 34.551C32.7094 33.1259 33.9516 31.7832 35.4095 30.6478C37.0539 29.3673 38.8392 28.3412 40.754 27.5243C41.2675 27.3052 41.748 27.0042 42.2275 26.7139C42.3126 26.6623 42.3745 26.4607 42.3436 26.3603C42.3126 26.2595 42.1476 26.1268 42.0492 26.133C41.678 26.1564 41.2952 26.1833 40.9433 26.2936C38.6449 27.0139 36.4441 27.9603 34.4235 29.2827C31.7446 31.0359 29.6466 33.3722 27.835 35.9802Z" fill="#006766"/>
<path d="M7.83176 45.2197C7.95015 45.0966 7.98975 44.92 8.02483 44.7528C8.88011 40.6787 9.94015 36.6215 11.6717 32.8359C13.4033 29.0502 15.8397 25.527 19.1074 22.948C19.9854 22.255 20.9176 21.635 21.8663 21.0438C22.0815 20.9097 23.1477 20.4422 23.1253 20.1691C23.1241 20.1552 23.1222 20.142 23.1196 20.1296C23.0435 19.7731 22.3646 19.9866 22.1416 20.0636C20.6684 20.5715 19.3456 21.4453 18.1412 22.4341C14.8546 25.1323 12.3658 28.7231 10.6379 32.6084C8.90982 36.4937 7.91818 40.6741 7.32942 44.8853C7.31202 45.0097 7.29927 45.1505 7.37927 45.2473C7.48798 45.3789 7.71341 45.3428 7.83176 45.2197Z" fill="#006766"/>
<path d="M24.8125 72.5141C24.8162 72.5127 24.8199 72.5114 24.8237 72.51C25.5102 72.2539 26.0376 71.7012 26.5389 71.1662C28.0258 69.5792 29.5128 67.9922 30.9998 66.4052C32.7349 64.5534 34.472 62.6992 36.0565 60.717C36.6505 59.974 37.229 59.2026 37.5933 58.3239C37.7524 57.9404 38.2737 56.4538 37.3096 56.6698C37.0816 56.7209 36.9021 56.8917 36.7386 57.0588C35.2856 58.5437 34.1107 60.2722 32.8781 61.9448C30.6186 65.0107 28.1456 67.9119 25.6838 70.8178C25.2642 71.3131 24.8226 71.865 24.8125 72.5141Z" fill="#006766"/>
<path d="M39.2735 29.9565C36.0634 31.9321 33.3984 34.721 31.3006 37.8525C29.2028 40.9841 27.6547 44.4569 26.4195 48.0181C26.1875 48.6868 25.9652 49.3636 25.8633 50.064C26.3116 49.9478 26.5753 49.4962 26.7843 49.0829C28.4287 45.8302 29.7425 42.402 31.661 39.303C33.7345 35.9537 36.5005 33.0352 39.7341 30.7854C40.2273 30.4422 41.4054 29.7866 41.445 29.116C40.7816 28.9646 39.8141 29.6238 39.2735 29.9565Z" fill="#006766"/>
<path d="M23.116 57.2684C22.9819 57.4065 22.9082 57.5909 22.8394 57.7707C22.7994 57.8752 22.7605 57.9801 22.7225 58.0853C21.7727 60.7137 21.1705 63.4957 20.4893 66.2024C20.1241 67.6535 19.7589 69.1046 19.3937 70.5557C19.211 71.2812 19.0285 72.0068 18.8458 72.7323C18.7509 73.1096 18.6559 73.4869 18.561 73.8642C18.5255 74.0049 18.2486 74.718 18.3199 74.8219C18.1805 75.3759 18.0504 76.0004 18.3484 76.4879C18.8201 76.2242 19.0173 75.659 19.1762 75.1425C20.0487 72.3069 20.913 69.4687 21.769 66.628C22.2926 64.8907 22.8131 63.1519 23.2572 61.3926C23.5445 60.2539 23.8002 59.1039 23.9211 57.9357C23.953 57.6276 23.9276 57.2355 23.64 57.1203C23.4613 57.0486 23.2503 57.1303 23.116 57.2684Z" fill="#006766"/>
<path d="M49.2689 58.9984C48.6514 58.5358 48.0157 58.0938 47.3353 57.7301C47.0607 57.5833 46.7705 57.4471 46.46 57.4247C46.1494 57.4022 45.8119 57.5153 45.6423 57.7764C45.485 58.0187 45.5012 58.3431 45.618 58.6072C45.6616 58.7057 45.7172 58.7974 45.7808 58.8839C45.8877 59.0294 46.0168 59.1604 46.1481 59.285C46.7447 59.8513 47.4327 60.344 48.0975 60.8015C49.4796 61.7526 50.8979 62.6512 52.3481 63.4948C52.6735 63.6841 53.003 63.8718 53.3592 63.9935C53.5628 64.0631 53.7911 64.1094 53.9892 64.0255C55.0143 63.5916 52.3707 61.511 52.0079 61.2076C51.1081 60.455 50.2078 59.7019 49.2689 58.9984Z" fill="#006766"/>
<path d="M31.6763 27.4305C32.2775 27.7305 32.8786 27.2737 32.74 26.6278C32.6443 26.1818 32.4502 25.7326 32.2027 25.3474C30.9266 23.3614 29.304 21.6586 27.6941 19.9486C27.506 19.7487 27.2569 19.5848 27.0052 19.4744C26.8614 19.4113 26.6096 19.4305 26.4901 19.5219C26.3693 19.6142 26.2799 19.8533 26.305 20.0071C26.349 20.2765 26.4601 20.5477 26.5974 20.7869C27.194 21.8262 27.8044 22.8148 28.4586 23.773C29.113 24.7315 29.8113 25.6596 30.5834 26.5772C30.8761 26.9251 31.2692 27.2274 31.6763 27.4305Z" fill="#006766"/>
<path d="M53.4263 40.8451C53.0176 40.9259 52.6221 41.2103 52.534 41.6174C52.4614 41.9532 52.6116 42.3066 52.8492 42.5558C52.8548 42.5617 52.8605 42.5676 52.8662 42.5734C53.1136 42.8234 53.4386 42.9798 53.7627 43.1165C55.7429 43.9519 57.9099 44.2209 60.0488 44.4326C60.283 44.4558 60.5282 44.4769 60.746 44.3876C61.9586 43.8901 59.7704 42.7655 59.3755 42.5791C57.8686 41.8681 56.2857 41.3182 54.6625 40.9418C54.2566 40.8478 53.835 40.7643 53.4263 40.8451Z" fill="#006766"/>
<path d="M42.229 48.1124C42.1875 48.267 42.1461 48.4291 42.1811 48.5853C42.2162 48.7415 42.3545 48.887 42.5138 48.8724C42.5961 48.8648 42.6694 48.8172 42.7312 48.7624C42.9562 48.5631 43.0665 48.2678 43.1685 47.985C43.7127 46.4761 44.257 44.9672 44.8013 43.4582C45.3656 41.8938 45.93 40.3291 46.4537 38.7505C46.7317 37.9124 46.9991 37.068 47.1794 36.2027C47.225 35.9836 47.5883 34.5103 47.1156 34.4185C47.0516 34.4061 46.9722 34.419 46.8746 34.4638C46.6815 34.5526 46.5873 34.7686 46.5103 34.9667C44.8389 39.2638 43.4231 43.659 42.229 48.1124Z" fill="#006766"/>
<path d="M50.8285 49.6148C50.443 49.5429 50.0675 49.6487 49.865 50.0306C49.6725 50.3936 49.735 50.7552 50.0871 51.2652C50.3821 51.4671 50.8074 51.8587 51.3079 52.0822C52.888 52.788 54.4953 53.4333 56.0952 54.0947C56.266 54.1654 56.4545 54.2057 56.6387 54.2288C56.9281 54.2651 57.2127 54.2327 57.3531 53.9268C57.4911 53.6263 57.3382 53.3877 57.1383 53.175C57.0746 53.1072 57.0018 53.0465 56.9266 52.9915C55.3749 51.857 53.7808 50.7889 52.0291 49.9832C51.6514 49.8094 51.238 49.6912 50.8285 49.6148Z" fill="#006766"/>
<path d="M10.4185 45.5992C10.1791 45.5889 9.9295 45.5829 9.7114 45.6823C9.49331 45.7817 9.31892 46.0198 9.37332 46.2533C9.40726 46.3988 9.52043 46.5129 9.64189 46.5999C9.93443 46.8096 10.2911 46.905 10.6393 46.9962C11.871 47.3187 13.1038 47.6373 14.3376 47.952C15.1069 48.1483 15.8818 48.3439 16.6741 48.3964C17.0292 48.42 17.4055 48.4093 17.7139 48.2349C17.7238 48.2292 17.7337 48.2234 17.7435 48.2175C18.9988 47.4525 17.3588 46.5834 16.6606 46.4269C14.6099 45.9671 12.5182 45.6898 10.4185 45.5992Z" fill="#006766"/>
<path d="M25.2541 32.1009C27.2065 31.7808 24.7094 29.8956 24.1428 29.5957C22.7446 28.8557 21.3463 28.1157 19.948 27.3757C19.6725 27.2299 19.3799 27.0801 19.0685 27.0947C18.7572 27.1094 18.4341 27.3578 18.4583 27.6686C18.464 27.742 18.4873 27.81 18.5219 27.8733C18.5912 28 18.7058 28.1084 18.8162 28.2059C20.3838 29.5914 22.1188 30.7874 23.9714 31.7595C24.3704 31.9689 24.8093 32.1738 25.2541 32.1009Z" fill="#006766"/>
<path d="M41.2864 64.5702C41.0465 64.505 40.752 64.5755 40.6318 64.7931C40.5525 64.9366 40.5623 65.1122 40.5923 65.2734C40.6659 65.6685 40.8453 66.0361 41.0491 66.3825C41.7187 67.5216 42.6567 68.4736 43.5033 69.4881C44.1618 70.2771 44.7755 71.1161 45.5662 71.7726C45.7586 71.9325 46.0095 72.0888 46.2433 72.0001C46.4579 71.9187 46.5533 71.6576 46.5344 71.4289C46.5091 71.1233 46.3339 70.8535 46.164 70.5982C45.867 70.152 45.5699 69.7057 45.2728 69.2595C45.1231 69.0346 44.9724 68.8089 44.8199 68.5837C43.9535 67.3041 43.0294 66.0362 41.9033 64.9751C41.7224 64.8047 41.5263 64.6354 41.2864 64.5702Z" fill="#006766"/>
<path d="M34.8702 70.1337C34.6103 70.1752 34.3851 70.384 34.3241 70.6401C34.2644 70.8911 34.3527 71.1515 34.4486 71.3911C34.8223 72.3247 35.3241 73.1922 35.8971 74.0175C36.617 75.0542 37.4492 76.0243 38.281 76.9751C38.4597 77.1793 38.679 77.401 38.9498 77.3846C39.2295 77.3676 39.434 77.0825 39.4537 76.8029C39.4808 76.4197 39.2589 76.0683 39.0815 75.7463C38.8532 75.3324 38.6238 74.919 38.3913 74.5074C37.9265 73.6843 37.4493 72.868 36.9426 72.0698C36.6186 71.5593 36.2802 71.0534 35.8628 70.6158C35.5984 70.3385 35.2486 70.0733 34.8702 70.1337Z" fill="#006766"/>
<path d="M62.3164 51.4039C62.2775 51.5844 62.2371 51.7747 62.2935 51.9505C62.3499 52.1262 62.5424 52.2727 62.7159 52.2096C62.717 52.2093 62.718 52.2089 62.7191 52.2085C62.8641 52.1537 62.9284 51.9869 62.9756 51.8385C63.4999 50.1869 64.0083 48.5202 64.2377 46.8026C64.3312 46.102 64.5071 40.4275 63.0114 40.9299C62.6787 41.0418 62.6667 41.501 62.7121 41.8489C63.1268 45.0253 62.9924 48.2727 62.3164 51.4039Z" fill="#006766"/>
<path d="M28.9099 75.6139C28.5192 75.8618 28.5824 76.4478 28.7392 76.8831C29.0358 77.7067 29.5189 78.5376 30.0777 79.3204C30.6483 80.1199 31.2978 80.8691 31.9081 81.509C32.1481 81.7607 32.4883 82.0247 32.8087 81.8894C33.0212 81.7996 33.1328 81.5533 33.1327 81.3227C33.1326 81.092 33.0428 80.8719 32.9531 80.6595C32.2456 78.9825 31.4324 77.3049 30.1477 76.0155C29.8156 75.6823 29.3071 75.3618 28.9099 75.6139Z" fill="#006766"/>
<path d="M19.7968 39.2942C20.057 39.3306 20.3307 39.339 20.5733 39.2383C20.6031 39.2259 20.6323 39.2116 20.6606 39.1955C20.8627 39.08 21.0185 38.8725 21.0149 38.6421C21.009 38.2529 20.5989 38.0124 20.2412 37.859C18.358 37.0517 16.3211 36.3838 14.2951 36.0519C14.05 36.0117 13.7362 36.0105 13.6268 36.2335C13.5794 36.3299 13.5879 36.4456 13.6214 36.5477C13.7449 36.9244 14.149 37.1204 14.5142 37.2748C15.6412 37.7512 16.7712 38.2205 17.9012 38.6898C18.5155 38.9449 19.138 39.2023 19.7968 39.2942Z" fill="#006766"/>
<path d="M7.72527 72.6906C9.14461 72.6321 10.5673 72.5734 11.9719 72.3613C12.2998 72.3118 12.6396 72.2486 12.9069 72.0524C13.5684 71.567 13.1771 70.8321 12.4805 70.701C12.1856 70.6456 11.8819 70.6796 11.5843 70.7176C10.231 70.8905 8.88809 71.1446 7.56508 71.4778C7.414 71.5159 7.26013 71.5564 7.12194 71.6261C7.07515 71.6497 7.03019 71.6766 6.98772 71.7079C6.81986 71.8316 6.69821 72.0408 6.73809 72.2455C6.77586 72.4395 6.94952 72.5842 7.13747 72.6452C7.32546 72.7062 7.52783 72.6988 7.72527 72.6906Z" fill="#006766"/>
<path d="M9.39933 55.4958C11.3053 55.6565 13.2333 55.7685 15.1234 55.4749C15.3098 55.446 15.5044 55.4092 15.6514 55.291C16.528 54.5859 14.5987 54.2978 14.2467 54.3048C12.5971 54.3377 10.9491 54.4418 9.30845 54.6167C9.05024 54.6442 8.72975 54.7291 8.68752 54.9853C8.67688 55.0499 8.68844 55.114 8.71528 55.1728C8.75617 55.2623 8.83247 55.3395 8.92 55.3871C9.0649 55.4661 9.23478 55.482 9.39933 55.4958Z" fill="#006766"/>
<path d="M7.63269 80.6979C9.00626 80.7128 10.3821 80.4845 11.6772 80.0267C12.0232 79.9044 12.4105 79.7121 12.4812 79.3521C12.5418 79.0434 12.3203 78.7309 12.0342 78.6002C11.7481 78.4694 11.4166 78.4853 11.1073 78.5426C10.0953 78.9196 8.96471 79.118 7.92825 79.4796C7.7669 79.5358 7.59999 79.596 7.45524 79.6845C7.36268 79.741 7.27913 79.8092 7.21188 79.8953C7.03947 80.1161 7.03841 80.4937 7.28182 80.6324C7.38641 80.6919 7.51238 80.6966 7.63269 80.6979Z" fill="#006766"/>
<path d="M9.10959 63.7957C10.6572 63.9024 12.2932 63.9026 13.8079 63.5292C13.955 63.4929 14.1108 63.4461 14.2071 63.3289C14.3931 63.1023 14.237 62.7325 13.9777 62.5957C13.7183 62.459 13.4067 62.4865 13.1151 62.5175C11.8322 62.654 10.5492 62.7905 9.26624 62.927C9.0852 62.9462 8.89678 62.9679 8.7433 63.0659C8.58981 63.1639 8.48421 63.3627 8.55237 63.5316C8.55812 63.5458 8.56479 63.5593 8.57226 63.5721C8.67014 63.7397 8.90808 63.7818 9.10959 63.7957Z" fill="#006766"/>
<path d="M24.1933 80.9543C24.0252 80.8636 23.8009 80.849 23.6534 80.9704C23.4139 81.1673 23.5129 81.5501 23.6448 81.8307C24.2481 83.1137 25.1261 84.2805 26.145 85.2623C26.2194 85.334 26.3019 85.4083 26.4044 85.4216C26.6364 85.4517 26.7797 85.1616 26.7708 84.9278C26.7596 84.6343 26.6314 84.359 26.4946 84.0991C26.2739 83.6798 26.0252 83.2768 25.7587 82.8852C25.3984 82.3558 25.0055 81.8472 24.6054 81.3469C24.4861 81.1977 24.3614 81.0452 24.1933 80.9543Z" fill="#006766"/>
<path d="M17.2266 85.9171C16.6793 86.6417 16.7419 88.0173 16.8356 88.8629C16.8544 89.0331 16.8812 89.2075 16.9685 89.3548C16.9785 89.3717 16.9894 89.3881 17.0012 89.4039C17.0928 89.5267 17.2367 89.6155 17.3877 89.6019C17.6112 89.5817 17.7559 89.362 17.8547 89.1605C18.247 88.3601 18.4542 87.4697 18.4557 86.5783C18.4564 86.2225 18.3843 85.8032 18.0649 85.6464C17.779 85.5061 17.4186 85.6629 17.2266 85.9171Z" fill="#006766"/>
<path d="M50.8336 55.7048C50.2629 55.4067 49.6496 55.0998 49.009 55.1651C48.9422 55.3626 49.1477 55.538 49.326 55.6459C51.259 56.8164 53.3135 57.7448 55.3463 58.7302C55.5994 58.8529 55.9177 58.971 56.1428 58.8024C56.0668 58.4616 55.7249 58.2595 55.4154 58.0979C53.8881 57.3002 52.3609 56.5025 50.8336 55.7048Z" fill="#006766"/>
<path d="M61.1701 56.8716C61.018 56.918 60.9058 57.045 60.8103 57.1722C60.5694 57.4931 60.381 57.8498 60.1962 58.206C59.6236 59.3099 59.0742 60.4259 58.5487 61.553C58.4529 61.7585 58.3773 62.0466 58.5638 62.1754C58.6082 62.2061 58.6601 62.2197 58.7133 62.2198C58.7932 62.22 58.876 62.1898 58.9407 62.1413C59.0486 62.0606 59.1178 61.9396 59.1839 61.8222C59.8227 60.6872 60.4615 59.5523 61.1003 58.4173C61.2222 58.2008 62.0102 56.6157 61.1701 56.8716Z" fill="#006766"/>
<path d="M44.415 62.1797C44.2817 62.312 44.2625 62.5274 44.3188 62.7066C44.375 62.8858 44.4938 63.0375 44.6102 63.1849C45.5503 64.3749 46.4937 65.5687 47.5788 66.6281C47.6272 66.6754 47.6866 66.726 47.7535 66.7157C47.7995 66.7087 47.8361 66.6736 47.8635 66.636C48.3201 66.0091 45.8126 63.4381 45.3817 62.8787C45.1306 62.5528 44.8259 62.1977 44.415 62.1797Z" fill="#006766"/>
<path d="M33.0195 75.0378C32.7901 74.7616 32.5575 74.4824 32.2675 74.2709C32.1949 74.2179 32.1009 74.1709 32.0144 74.1647C31.9575 74.1607 31.9037 74.1744 31.8614 74.2157C31.7668 74.3082 31.807 74.467 31.8634 74.5867C32.0701 75.0251 32.4031 75.3893 32.7311 75.7462C33.6543 76.7507 34.5775 77.7553 35.5007 78.7598C35.6314 78.9021 35.8879 79.0351 35.9814 78.8661C35.7715 78.123 35.099 77.5419 34.6115 76.9548C34.0807 76.3157 33.5501 75.6768 33.0195 75.0378Z" fill="#006766"/>
<path d="M10.1259 88.2412C10.2771 88.2156 10.411 88.1307 10.5372 88.0438C10.6109 87.993 10.6837 87.9408 10.7555 87.8873C11.1515 87.5921 11.5172 87.2563 11.8449 86.8867C12.1404 86.5532 12.6244 85.4644 11.6959 85.6065C11.4689 85.6412 11.2778 85.7906 11.1064 85.9435C10.6001 86.395 10.1629 86.9239 9.81476 87.5062C9.70831 87.6844 9.61015 87.9128 9.72006 88.0888C9.80121 88.2189 9.97476 88.2667 10.1259 88.2412Z" fill="#006766"/>
<path d="M14.5422 43.289C14.4224 43.3483 14.3527 43.5226 14.4446 43.6197C14.4855 43.6629 14.5462 43.6799 14.6038 43.6949C16.2303 44.1199 17.8854 44.4352 19.5542 44.6381C19.6692 44.652 19.7933 44.6638 19.8938 44.6062C19.9168 44.593 19.9368 44.5797 19.954 44.5664C20.2853 44.3094 19.5677 44.036 19.402 44.0087C17.9133 43.763 16.4246 43.5174 14.9359 43.2718C14.8041 43.2501 14.662 43.2297 14.5422 43.289Z" fill="#006766"/>
<path d="M39.7665 52.7893C40.1245 52.0724 40.4826 51.3556 40.8407 50.6387C40.9324 50.4551 41.399 49.125 40.8219 49.3955C40.8014 49.4051 40.7796 49.4168 40.7564 49.4305C40.6434 49.4976 40.5687 49.6126 40.4997 49.7244C39.9444 50.6238 39.4897 51.5852 39.1467 52.585C39.0533 52.8573 38.9676 53.152 39.0469 53.4288C39.3872 53.4455 39.6142 53.0941 39.7665 52.7893Z" fill="#006766"/>
<path d="M17.2268 51.7516C17.3464 51.7587 17.4702 51.7651 17.5824 51.723C17.6946 51.681 17.7926 51.5765 17.7878 51.4568C16.1872 51.0856 14.5213 50.9979 12.8906 51.1989C12.8898 51.7948 16.664 51.7184 17.2268 51.7516Z" fill="#006766"/>
<path d="M55.4686 48.7751C55.0904 48.2124 54.2166 47.855 53.5758 47.6842C53.3749 47.6306 53.0885 47.6395 53.044 47.8425C53.0075 48.0093 53.1792 48.1412 53.3278 48.2254C53.877 48.5366 54.8375 49.1145 55.4686 48.7751Z" fill="#006766"/>
<path d="M34.9392 50.8642C34.6358 51.0854 34.5757 51.5659 34.816 51.8496C35.0221 52.0931 35.4463 52.1528 35.701 51.9742C36.0058 51.7604 36.059 51.2899 35.8124 50.9882C35.5999 50.7284 35.2029 50.672 34.9392 50.8642Z" fill="#006766"/>
<path d="M29.3357 55.7336C29.1874 55.4308 28.7768 55.3192 28.4908 55.5039C28.1533 55.7219 28.062 56.1355 28.2735 56.4887C28.4268 56.7445 28.748 56.8336 29.0056 56.6917C29.3743 56.4886 29.5111 56.0917 29.3357 55.7336Z" fill="#006766"/>
<path d="M38.5587 47.2708C38.3598 46.9962 37.967 46.9415 37.6966 47.1508C37.4209 47.3643 37.3639 47.7422 37.5663 48.0152C37.7677 48.2869 38.1566 48.3418 38.4314 48.1375C38.7047 47.9343 38.7611 47.5503 38.5587 47.2708Z" fill="#006766"/>
<path d="M40.3032 38.9214C40.5013 39.1797 40.9168 39.2342 41.1795 39.0363C41.4491 38.8332 41.5107 38.4269 41.3121 38.163C41.1193 37.9072 40.6932 37.8512 40.4341 38.0477C40.1681 38.2495 40.106 38.6641 40.3032 38.9214Z" fill="#006766"/>
<path d="M39.6941 35.4303C39.8841 35.2482 39.915 34.8805 39.7587 34.6614C39.5629 34.3867 39.152 34.3218 38.8982 34.5255C38.6336 34.7379 38.6001 35.1309 38.8245 35.3896C39.0485 35.6477 39.448 35.6665 39.6941 35.4303Z" fill="#006766"/>
<path d="M36.5116 39.5466C36.3837 39.7376 36.3764 40.0092 36.2852 40.364C36.6536 40.3794 36.9216 40.459 37.1337 40.3829C37.4312 40.2761 37.4602 39.8126 37.2333 39.5718C37.0426 39.3695 36.6611 39.3232 36.5116 39.5466Z" fill="#006766"/>
<path d="M34.8796 46.1517C35.1315 46.0059 35.2196 45.6871 35.0732 45.4514C34.923 45.2097 34.5684 45.0897 34.373 45.2849C34.2144 45.4434 34.1701 45.7162 34.1055 45.8673C34.3115 46.2208 34.6274 46.2977 34.8796 46.1517Z" fill="#006766"/>
<path d="M46.0531 32.4606C46.008 32.1952 45.6206 32.0494 45.37 32.1483C45.1182 32.2477 44.9909 32.6159 45.1236 32.8613C45.2559 33.1059 45.6018 33.201 45.9645 32.9992C45.9886 32.8727 46.0863 32.6555 46.0531 32.4606Z" fill="#006766"/>
<path d="M31.4568 48.8438C31.1429 49.0699 31.0832 49.4411 31.3035 49.6262C31.4516 49.7506 31.712 49.8403 31.893 49.8033C32.1696 49.7467 32.2299 49.2089 31.972 48.9978C31.8262 48.8784 31.5831 48.878 31.4568 48.8438Z" fill="#006766"/>
<path d="M38.2659 68.8542C38.2845 69.0258 38.4863 69.3393 38.6173 69.4476C38.6451 69.4704 39.2147 69.8092 39.1775 69.5791C39.094 69.0621 38.8076 68.6804 38.4175 68.3371C38.3193 68.2512 38.2612 68.8112 38.2659 68.8542Z" fill="#006766"/>
<path d="M31.2863 51.55C31.1718 51.6976 31.1826 51.9425 31.1133 52.2534C31.441 52.2478 31.6706 52.3007 31.848 52.2274C32.1026 52.1224 32.1196 51.7022 31.9016 51.5299C31.698 51.369 31.4379 51.3544 31.2863 51.55Z" fill="#006766"/>
<path d="M43.2522 35.3849C43.415 35.4834 43.6501 35.4623 43.7855 35.484C44.0716 35.2201 44.0717 34.8668 43.8459 34.6859C43.6539 34.532 43.4318 34.4962 43.2272 34.6724C43.018 34.8527 43.0099 35.2383 43.2522 35.3849Z" fill="#006766"/>
<path d="M42.6277 32.1756C42.5223 31.9166 42.1398 31.8348 41.9243 32.064C41.7905 32.2063 41.761 32.4467 41.6367 32.7663C41.9787 32.7664 42.2091 32.8205 42.3955 32.753C42.6339 32.6664 42.733 32.4345 42.6277 32.1756Z" fill="#006766"/>
<path d="M39.3281 44.0281C39.667 43.9804 39.9001 44.0068 40.0436 43.9059C40.1346 43.842 40.1621 43.5484 40.0938 43.4286C39.9761 43.2222 39.7101 43.1313 39.5271 43.3275C39.41 43.453 39.4157 43.6931 39.3281 44.0281Z" fill="#006766"/>
<path d="M48.7489 22.4449C48.6621 22.2394 48.523 22.056 48.3182 21.7109C47.9114 22.3332 48.1254 22.7379 48.2593 23.1117C48.6598 24.2289 49.269 25.2333 50.0326 26.1412C50.5775 26.7891 51.1281 27.4323 51.6861 28.069C52.4919 28.9884 53.3023 29.9039 54.1232 30.8097C54.2269 30.9242 54.3664 31.121 54.6532 30.8815C54.6142 30.7504 54.6078 30.5562 54.5114 30.4318C53.4747 29.0933 52.447 27.7467 51.3702 26.4408C50.3484 25.2016 49.3792 23.9379 48.7489 22.4449Z" fill="#006766"/>
<path d="M62.0984 23.5157C63.448 24.0611 64.7627 24.6701 65.9275 25.5634C66.1096 25.7031 66.32 25.8218 66.5362 25.8935C66.628 25.9239 66.7854 25.8287 66.8796 25.7504C66.9299 25.7087 66.9501 25.5556 66.9133 25.4972C66.7656 25.2629 66.6327 24.9859 66.4174 24.8336C65.7325 24.349 65.0619 23.7934 64.2974 23.4826C62.5209 22.7605 60.6946 22.1602 58.883 21.5265C58.6856 21.4574 58.4518 21.4925 58.1914 21.4766C58.2059 21.9219 58.4565 22.0405 58.712 22.1445C59.8397 22.6041 60.9692 23.0594 62.0984 23.5157Z" fill="#006766"/>
<path d="M64.4198 25.703C64.216 25.5956 63.9924 25.5195 63.77 25.4571C63.7 25.4375 63.5447 25.4943 63.5324 25.5426C63.5033 25.6567 63.5303 25.7876 63.5486 25.9096C63.5545 25.9488 63.5987 25.9891 63.635 26.0157C64.8842 26.9267 66.1503 27.8127 67.5779 28.4295C68.4123 28.79 69.2941 28.8852 70.1922 28.7853C70.3481 28.7679 70.4908 28.6318 70.8149 28.4547C70.4009 28.2806 70.1723 28.1261 69.9265 28.0907C68.6029 27.9002 67.4158 27.3651 66.2679 26.7139C65.6573 26.3674 65.041 26.0302 64.4198 25.703Z" fill="#006766"/>
<path d="M38.6751 18.6933C39.0039 18.7632 39.1301 18.7177 39.1387 18.6159C39.1575 18.3937 38.6164 17.9033 38.397 17.7578C37.8647 17.4049 37.2571 17.1797 36.6772 16.9199C33.8133 15.6367 31.454 13.4753 29.0544 11.4528C28.4998 10.9853 27.848 10.4948 27.1289 10.5901C28.7592 12.3379 30.4118 14.0804 32.3006 15.545C34.1894 17.0096 36.3372 18.1962 38.6751 18.6933Z" fill="#006766"/>
<path d="M35.3729 14.7264C35.2242 14.1239 34.4013 13.5962 33.8686 13.3641C33.7324 13.3048 33.5837 13.2532 33.4379 13.2813C33.292 13.3095 33.1575 13.4457 33.1828 13.592C33.1964 13.6712 33.2514 13.7361 33.3066 13.7944C33.7673 14.2817 34.6718 14.8562 35.3729 14.7264Z" fill="#006766"/>
<path d="M33.643 12.4193C33.3343 11.8225 32.8729 11.4714 32.0977 11.4375C32.4097 12.1955 33.0092 12.3348 33.643 12.4193Z" fill="#006766"/>
<path d="M45.3886 14.6631C45.4606 14.8582 45.6163 15.0868 45.8171 15.0327C46.0185 14.9784 46.0375 14.7036 46.0139 14.4964C45.8749 13.2794 45.8576 12.0025 45.3836 10.859C44.9113 9.71971 44.1214 8.72951 43.2134 7.90549C42.0563 6.85537 40.7019 6.05072 39.3555 5.25781C39.5111 6.33046 40.5529 6.99999 41.4269 7.64105C42.9076 8.72702 44.1935 10.1757 44.7247 11.9333C44.9958 12.8305 45.0643 13.7837 45.3886 14.6631Z" fill="#006766"/>
<path d="M43.5427 13.3948C43.6133 13.4103 43.695 13.3924 43.7449 13.3432C43.7587 13.3296 43.7701 13.3136 43.778 13.2952C43.795 13.256 43.7951 13.2119 43.7939 13.1692C43.7754 12.4713 43.4829 11.8002 43.0201 11.2809C42.9303 11.1801 42.816 11.0778 42.6813 11.0864C42.5396 11.0955 42.4321 11.2319 42.409 11.372C42.3858 11.5121 42.4273 11.6542 42.4721 11.789C42.6509 12.3274 42.8989 12.8596 43.3106 13.25C43.3776 13.3135 43.4525 13.3749 43.5427 13.3948Z" fill="#006766"/>
<path d="M61.6364 10.8786C61.9354 10.4551 62.1998 10.0083 62.4639 9.56216C62.7003 9.16274 62.9367 8.76331 63.1731 8.36388C63.263 8.21213 63.3545 8.05577 63.3827 7.88168C63.3942 7.8104 63.3935 7.73251 63.3544 7.67178C63.2929 7.57639 63.1543 7.55717 63.0489 7.59916C62.9435 7.6411 62.8642 7.72901 62.7908 7.81558C62.0776 8.65771 61.5497 9.67572 61.0917 10.6738C60.9813 10.9142 60.8854 11.2246 61.0641 11.4197C61.3092 11.3161 61.4829 11.096 61.6364 10.8786Z" fill="#006766"/>
</g>
</svg>
