<svg width="50" height="120" viewBox="0 0 50 120" fill="none" xmlns="http://www.w3.org/2000/svg">
<g opacity="0.5">
<path d="M38.9018 113.597C36.9735 114.57 34.9639 115.335 32.7732 115.669C32.3961 115.727 32.1287 115.911 31.8604 116.134C30.5457 117.222 29.2932 118.378 27.6848 119.143C26.8115 119.558 25.9182 119.898 24.9261 119.982C22.1538 120.218 20.1491 118.077 20.8038 115.55C21.2307 113.901 22.2783 112.539 23.4263 111.241C23.7067 110.924 23.8478 110.614 23.9019 110.208C24.1338 108.471 24.9613 106.925 25.9323 105.437C26.2433 104.961 26.6032 104.51 26.9412 104.048C26.9428 104.048 26.9443 104.048 26.946 104.048L26.9556 104.018L26.9493 104.037C26.9467 104.041 26.9438 104.044 26.9412 104.048C26.731 104.026 26.5895 104.155 26.4323 104.243C24.1587 105.521 21.7986 106.632 19.2038 107.295C19.0223 107.341 18.8669 107.417 18.7318 107.56C17.0511 109.34 15.011 110.684 12.6286 111.612C11.6325 112 10.6183 112.153 9.56709 111.827C7.94925 111.325 7.02684 109.885 7.31058 108.219C7.60405 106.496 8.39062 104.981 9.84086 103.785C10.0239 103.634 10.1449 103.476 10.2087 103.255C10.7549 101.364 11.7649 99.6691 12.9272 98.0347C15.2733 94.7353 18.0909 91.7593 20.8091 88.7154C22.3927 86.9421 24.0042 85.1889 25.5949 83.4207C25.7351 83.2649 25.9497 83.1388 25.9672 82.8381C25.4774 83.0236 25.0165 83.1811 24.5715 83.3693C22.0874 84.4208 19.4097 84.7127 16.7297 84.9921C15.83 85.0859 14.925 85.1386 14.0247 85.2285C13.6373 85.2672 13.4509 85.2109 13.5025 84.7955C13.5987 84.0213 13.663 84.0037 14.753 83.892C17.1655 83.6445 19.6053 83.5386 21.9479 82.8847C23.6141 82.4194 25.2273 81.8308 26.794 81.1445C27.5527 80.8123 28.1966 80.3349 28.6892 79.7062C29.165 79.099 29.6459 78.4951 30.0863 77.8501C27.6107 79.464 24.7957 80.3403 21.8985 81.0326C19.8909 81.5123 17.8334 81.6825 15.7614 81.7761C13.6911 81.8698 11.6103 81.7986 9.55059 82.0312C7.95097 82.2119 6.53805 82.8122 5.36331 83.8194C4.13536 84.8724 3.20926 86.125 2.61407 87.5436C2.16949 88.6033 2.28353 89.7456 2.34092 90.8549C2.40558 92.1032 2.75496 93.3032 3.3664 94.4321C3.47933 94.6406 3.63845 94.8289 3.80975 95.0747C4.25347 94.6442 4.23105 94.1506 4.24952 93.6791C4.29829 92.4368 4.2132 91.1943 4.36615 89.9504C4.66947 87.4826 6.09495 85.8341 8.67437 84.9772C8.89801 84.9029 9.12227 84.8296 9.34837 84.7616C10.1317 84.5259 10.1623 84.5574 10.3325 85.267C10.4203 85.6329 10.2507 85.7588 9.90416 85.8578C9.13113 86.0788 8.37893 86.3394 7.70134 86.763C5.9606 87.8513 5.55185 89.4535 5.50629 91.2156C5.47698 92.3498 5.62624 93.4921 5.34841 94.6162C5.292 94.8444 5.22119 95.0763 5.109 95.2857C4.48142 96.4566 3.16086 96.6867 2.10989 95.7946C0.931326 94.7942 0.421601 93.5133 0.401034 92.0916C0.365197 89.6184 1.26359 87.3826 2.63722 85.2687C4.58019 82.2788 7.64211 80.8632 11.2638 80.1635C13.8004 79.6733 16.3748 79.6316 18.9455 79.5137C22.0694 79.3703 25.105 78.8896 27.9288 77.6055C28.4838 77.3531 29.0255 77.0757 29.4673 76.6763C29.6338 76.5257 29.963 76.4176 29.8157 76.1164C29.6879 75.8549 29.4098 75.8635 29.1392 75.8654C28.4472 75.8704 27.7541 75.8861 27.0631 75.8604C24.8899 75.7797 22.8853 75.1925 21.0882 74.1014C18.5531 72.5626 17.4409 70.2777 17.0152 67.6462C16.6793 65.5708 16.9094 63.551 17.5721 61.544C18.7245 58.0539 20.2026 54.6954 22.3225 51.5809C23.4118 49.9806 24.7021 48.5197 26.1794 47.1999C28.6232 45.0166 31.445 44.3734 34.6883 45.6121C35.6068 45.9629 36.5889 46.2031 37.3563 46.8215C37.5696 46.9934 37.6935 46.8591 37.8309 46.7348C38.2345 46.3695 38.6182 45.9835 39.0494 45.6465C39.4747 45.3139 39.5167 45.1278 38.9753 44.8249C36.1106 43.2216 33.7915 41.1201 32.0678 38.5054C27.7208 31.9118 28.4089 23.5705 33.8128 17.2402C34.8926 15.9754 36.1069 14.8234 37.5004 13.8385C37.9416 13.5266 37.8979 13.3353 37.5673 12.9884C35.5802 10.9033 33.5891 8.81977 31.7575 6.62033C31.5139 6.32779 31.3 6.40674 31.0258 6.49819C30.1349 6.79516 29.2448 6.77279 28.3717 6.44881C27.2768 6.04245 26.5516 5.33901 26.4133 4.25579C26.2403 2.90128 26.6932 1.72926 27.7584 0.737046C28.8712 -0.299454 30.7487 -0.10701 32.1021 0.484041C33.3283 1.01951 33.9386 2.3006 33.6528 3.67182C33.5676 4.08084 33.6717 4.33518 33.9487 4.64521C35.9506 6.8864 37.9406 9.13667 39.9 11.4081C40.2753 11.8433 40.5484 11.9437 41.0778 11.6147C43.7606 9.94695 46.8908 9.48346 50 9.06215V9.79149C46.9201 10.2012 44.2073 11.459 41.682 13.225C44.1982 11.5616 47.0199 10.7333 50 10.2171V10.7888C49.9083 10.8041 49.8165 10.8196 49.7246 10.8346C47.1642 11.2535 44.8238 12.1806 42.6136 13.3958C42.2579 13.5914 42.0231 13.7604 42.2426 14.2026C42.41 14.5401 42.3269 14.9206 42.0039 15.2144C41.4125 15.7523 40.3936 15.8076 39.7545 15.3185C39.556 15.1665 39.3704 14.9923 39.2176 14.8029C39.0115 14.5476 38.831 14.5917 38.5634 14.7364C37.9946 15.0439 37.6277 15.5255 37.1873 15.9433C35.433 17.6077 34.0059 19.4721 32.9599 21.5678C32.7642 21.96 32.6196 22.3626 32.5376 22.7883C32.1702 24.6945 32.044 26.5999 32.2237 28.5398C32.4968 31.4887 33.2516 34.323 34.5677 37.0196C36.8448 41.6853 40.5144 44.9377 46.2418 45.9998C46.8707 46.1164 47.4936 46.2817 48.2685 46.2949C48.0735 46.197 47.9951 46.1491 47.9095 46.1158C42.4095 43.9768 38.9101 40.2445 37.1713 35.1421C36.3788 32.8167 36.1658 30.4314 36.5528 28.015C36.6463 27.4313 36.9323 27.3159 37.9141 27.4242C38.5789 27.4974 38.199 27.9046 38.1771 28.1605C38.0776 29.3219 37.8904 30.4812 38.1601 31.7247C39.0006 30.9191 39.9561 30.3945 40.9269 29.9024C41.3072 29.7097 41.4419 29.4786 41.5258 29.1147C42.122 26.5265 43.5382 24.368 45.8056 22.6749C47.0646 21.735 48.4828 21.119 50 20.7068V21.915C49.9637 21.9217 49.9271 21.9281 49.8916 21.9373C48.3069 22.3504 46.924 23.0843 45.6902 24.0607C45.4585 24.2439 45.4968 24.3837 45.6504 24.6026C46.9288 26.4244 48.3548 28.1343 50 29.685V30.7968C48.0923 29.0801 46.2175 27.3324 44.4103 25.4868C44.211 25.7502 44.0698 25.9224 43.9461 26.1043C43.8095 26.3053 43.6856 26.5135 43.5625 26.7216C42.1708 29.0733 42.3714 31.4997 43.0652 33.9798C43.996 37.3065 46.0365 40.0848 48.2703 42.7796C48.8014 43.4201 49.3787 43.9394 50 44.345V48.0452C46.8671 47.8679 43.8959 47.1631 41.0852 45.8876C40.7209 45.7223 40.4662 45.6959 40.1443 45.9786C39.5136 46.5326 38.8145 47.023 38.1771 47.571C36.6006 48.926 35.1649 50.3869 34.2792 52.2077C33.0604 54.7135 31.7116 57.1671 30.7253 59.7655C29.3848 63.297 28.7393 66.8888 29.2501 70.6159C29.5287 72.65 30.3465 74.4355 32.0385 75.8832C33.9423 77.5122 36.215 78.5046 38.6966 79.1385C42.4113 80.0875 46.1774 80.6485 50 80.7577V82.301C48.0168 82.2658 46.0394 82.1175 44.0706 81.8558C40.3078 81.3557 36.5954 80.6559 33.3009 78.801C33.0287 78.6478 32.8287 78.6752 32.5967 78.8449C31.6721 79.5211 30.7371 80.1838 29.837 80.8891C27.839 82.4545 26.3146 84.3818 24.6875 86.2288C21.414 89.9447 17.9556 93.5356 15.0062 97.4728C13.3724 99.6538 12.5349 102.082 12.7726 104.756C12.9003 106.193 13.2083 106.568 14.7848 106.739C16.6686 106.943 18.4841 106.562 20.2514 106.004C23.1374 105.093 25.6953 103.634 28.2071 102.102C28.6217 101.849 29.0497 101.606 29.3815 101.263C31.8622 98.7058 34.6552 96.417 37.2008 93.9155C39.0156 92.1323 41.0155 90.4844 42.235 88.2695C42.4022 87.966 42.6659 87.7024 42.9928 87.5096C43.2275 87.3712 43.4699 87.3148 43.7173 87.4879C43.9467 87.6483 43.936 87.8652 43.8482 88.0728C43.7215 88.3726 43.5898 88.6754 43.4132 88.9527C42.5948 90.2371 41.7557 91.5096 40.7204 92.6685C38.3529 95.3184 35.7906 97.8056 32.8872 99.9835C31.3125 101.165 30.0339 102.554 28.7723 103.988C27.7067 105.199 27.0769 106.453 27.1699 108.039C27.2804 109.921 27.2477 111.805 28.0937 113.589C28.2868 113.996 28.5518 114.189 29.0248 114.253C30.4589 114.449 31.8744 114.411 33.2829 114.087C36.2938 113.395 38.934 112.015 41.4336 110.427C44.678 108.367 47.442 105.866 50 103.166V105.272C46.7868 108.561 43.1813 111.437 38.9018 113.597ZM3.57281 95.3713C2.22959 93.6755 1.89536 91.8554 1.83649 89.8273C1.07763 92.3586 1.84043 94.9057 3.57281 95.3713ZM11.0372 81.4483C14.7444 81.3006 18.4802 81.4358 22.0957 80.5053C18.4179 80.9768 14.6518 80.4914 11.0372 81.4483ZM29.5345 1.27872C29.5343 1.27894 29.5342 1.27905 29.5339 1.27927C29.5305 1.28104 29.5271 1.2827 29.5237 1.28447C28.2751 1.80942 27.6015 3.26734 28.0838 4.40471C28.1678 4.60291 28.245 4.80964 28.5223 4.85813L28.5389 4.89024L28.532 4.86743C27.889 3.55334 28.202 2.43258 29.5339 1.27927C29.5416 1.27539 29.5493 1.27141 29.5569 1.26742C29.5494 1.2713 29.542 1.27506 29.5345 1.27872ZM32.0344 1.66016C31.6617 1.32622 31.2603 0.918416 30.6218 1.14108C29.5826 1.50349 28.6966 2.65879 28.6801 3.64746C28.664 4.61387 29.4797 5.44431 30.3494 5.34665C31.4982 5.21766 32.5905 4.12103 32.6078 2.98687C32.5532 2.56169 32.4547 2.03674 32.0344 1.66016ZM40.1314 14.7242C40.4789 15.2331 40.722 14.7686 40.9809 14.6427C41.3278 14.4739 41.196 14.3074 40.9644 14.1077C40.4657 13.6776 39.9666 13.2421 39.5235 12.7669C37.3624 10.4491 35.2713 8.08124 33.3075 5.62402C33.2045 5.49502 33.1464 5.30181 32.8804 5.30502C32.6963 5.48085 32.5025 5.66576 32.2761 5.8819C34.1496 7.5306 35.707 9.32058 37.2361 11.1311C38.231 12.3089 39.2682 13.4603 40.1314 14.7242ZM36.693 41.1925C36.6426 41.1515 36.5924 41.1103 36.542 41.0691C36.4844 41.0257 36.4266 40.9821 36.369 40.9387C36.3655 40.9353 36.3623 40.9319 36.3589 40.9285C36.3945 40.7681 36.2696 40.6599 36.1847 40.5432C33.0013 36.1659 31.6266 31.329 31.652 26.1359C31.6525 26.0287 31.6647 25.9202 31.6502 25.8147C31.636 25.7117 31.7169 25.5864 31.5376 25.4753C30.4616 31.3285 31.9034 36.5069 36.3589 40.9285C36.3574 40.9351 36.3574 40.9413 36.3554 40.948C36.4138 40.9921 36.4722 41.0361 36.5304 41.08C36.5809 41.1207 36.6314 41.1612 36.6819 41.2018L36.7154 41.2239L36.693 41.1925ZM46.2516 26.229C46.2555 26.2379 46.2601 26.2461 46.2639 26.2549C46.27 26.2594 46.276 26.2639 46.2821 26.2684C46.3 26.3277 46.3439 26.3575 46.4091 26.3631C46.4157 26.368 46.4222 26.3728 46.4288 26.3777L46.45 26.401L46.4429 26.3657C46.4304 26.3662 46.4204 26.364 46.4091 26.3631C46.3668 26.3315 46.3244 26.3 46.2821 26.2684C46.2797 26.2606 46.2758 26.2546 46.2743 26.2457C46.2664 26.2402 46.2593 26.2344 46.2516 26.229C46.0002 25.6489 45.5534 25.1934 45.0598 24.7682C45.2659 25.3786 45.7013 25.841 46.2516 26.229ZM41.1948 30.5682C40.7581 30.8882 40.2836 31.164 39.8777 31.5954C41.4044 31.2203 41.5576 31.1043 41.1948 30.5682ZM41.3134 31.5559C40.562 31.8511 39.9011 32.1108 39.1704 32.398C39.9606 33.2405 41.0012 33.7471 41.7886 34.5004C41.7894 34.5046 41.79 34.5088 41.7907 34.513L41.8018 34.5126C41.8028 34.5136 41.8039 34.5145 41.8049 34.5155L41.8312 34.5116L41.8018 34.5126C41.7975 34.5085 41.7929 34.5045 41.7886 34.5004C41.6343 33.544 41.4799 32.5872 41.3134 31.5559ZM47.8687 44.028C45.7754 41.7085 43.8401 39.2998 42.6119 36.4936C42.4832 36.1995 42.2825 35.9575 42.0004 35.8012C41.0564 35.2777 40.3239 34.537 39.5014 33.8886C39.1447 33.6073 38.8122 33.2896 38.3008 33.0671C38.8503 35.7607 40.0094 38.1066 41.844 40.1685C43.5672 42.1051 45.6663 43.6128 48.2493 44.5379C48.2496 44.5422 48.2512 44.546 48.2515 44.5504L48.2626 44.5429C48.2581 44.5413 48.2538 44.5394 48.2493 44.5379C48.2271 44.3062 48.0121 44.1869 47.8687 44.028ZM19.3833 60.9849C19.3833 61.0973 19.3833 61.1852 19.3833 61.2698C19.3792 61.2803 19.3755 61.2907 19.3729 61.3014C19.3721 61.3094 19.3712 61.3176 19.3703 61.3257C19.024 61.6707 19.0113 62.1296 18.8802 62.5434C18.0568 65.1432 18.2357 67.6965 19.3987 70.1856C19.7923 71.028 20.318 71.8 21.1953 72.3215C21.1986 72.3294 21.2022 72.3371 21.2055 72.345L21.2281 72.3671L21.2174 72.3351C21.2099 72.3307 21.2027 72.3259 21.1952 72.3215C20.7617 71.3165 20.2783 70.326 19.9075 69.3027C18.9612 66.6908 19.0719 64.0108 19.3702 61.3256C19.3746 61.3212 19.3786 61.3165 19.3831 61.3121C19.3831 61.298 19.3831 61.2839 19.3831 61.2697C19.415 61.1879 19.4803 61.1065 19.3833 60.9849ZM30.2449 46.4721C30.2425 46.4731 30.2401 46.4742 30.2377 46.4752C30.237 46.4755 30.2363 46.4758 30.2354 46.476C30.1371 46.504 30.0014 46.4714 29.9626 46.5954C29.9563 46.598 29.9502 46.6008 29.9439 46.6036C29.9322 46.6111 29.921 46.6192 29.9093 46.6268C28.8428 46.8586 28.0033 47.4487 27.2914 48.1418C24.0783 51.27 21.6374 54.807 20.4349 58.9681C19.8659 60.9368 19.5514 63.8388 19.7583 65.2857C19.8903 64.4203 19.9628 63.6988 20.1145 62.991C20.8453 59.5823 22.3597 56.429 24.0208 53.3206C25.428 50.6872 27.2439 48.3573 29.9094 46.6269C29.9249 46.6235 29.9401 46.6195 29.9557 46.6163C29.9572 46.6082 29.9604 46.6026 29.9626 46.5956C30.0544 46.5555 30.1461 46.5155 30.2377 46.4755C30.2493 46.4715 30.2609 46.4675 30.2725 46.4636C30.2632 46.4663 30.254 46.4693 30.2449 46.4721ZM36.0887 48.4744C36.3304 48.2296 36.6124 48.0031 36.7845 47.6398C35.3105 47.1948 33.9429 46.635 32.4798 46.3103C31.984 46.2002 31.575 46.2745 31.1319 46.5151C29.1374 47.5984 27.452 48.9926 26.2264 50.7569C23.241 55.0549 21.0319 59.6271 20.3336 64.722C19.9411 67.5855 20.4054 70.259 22.1082 72.7311C22.3114 73.0261 22.5117 73.2969 22.8802 73.4593C24.7001 74.2616 26.6485 74.6138 28.7844 74.8765C28.1822 73.9175 27.7109 73.0567 27.3508 72.1489C26.0763 68.9364 26.3789 65.7245 27.4462 62.5457C29.2057 57.3061 32.0323 52.5817 36.0887 48.4744ZM31.6845 56.027C31.6856 56.0148 31.687 56.0028 31.6886 55.9909C31.7356 55.9145 31.7825 55.8382 31.8296 55.7618C31.8287 55.7603 31.8277 55.759 31.8269 55.7577C31.833 55.7374 31.8392 55.7171 31.8453 55.697C31.8313 55.7039 31.8048 55.7123 31.8057 55.7171C31.8079 55.7313 31.8184 55.7444 31.8269 55.7577C31.8255 55.7621 31.8242 55.7665 31.8228 55.771C31.7312 55.8238 31.7006 55.9033 31.6886 55.9907C31.6835 55.9989 31.6785 56.0071 31.6734 56.0153C31.6555 56.0343 31.6375 56.0533 31.6195 56.0722C31.6412 56.0573 31.6628 56.0421 31.6845 56.027ZM29.2365 62.5663C29.655 60.8683 30.3455 59.2384 30.9556 57.5895C30.9637 57.5846 30.9722 57.5799 30.9795 57.5747C30.9774 57.5667 30.9764 57.5589 30.9747 57.551C31.0699 57.4427 31.0592 57.3111 31.0732 57.185C31.0792 57.1778 31.0848 57.1705 31.0913 57.1634C31.0922 57.1578 31.0934 57.1524 31.0944 57.1468C31.2061 57.1183 31.1998 57.0166 31.2399 56.9438C31.2477 56.9403 31.255 56.9367 31.2635 56.9337C31.2652 56.8937 31.2669 56.8538 31.2686 56.8139C31.2635 56.85 31.2584 56.886 31.2532 56.9221C31.2479 56.9287 31.244 56.9363 31.2399 56.9438C31.1473 56.9847 31.1101 57.0592 31.0944 57.1467C31.0885 57.1483 31.0839 57.1506 31.0773 57.1517C31.0755 57.1627 31.0744 57.1738 31.0732 57.185C30.9814 57.2941 30.946 57.4154 30.9747 57.551C30.9715 57.5546 30.9692 57.5585 30.9658 57.5621C30.9625 57.5712 30.9589 57.5803 30.9556 57.5895C30.9057 57.6197 30.8459 57.6462 30.8264 57.6878C29.3725 60.8051 28.2256 63.991 28.2199 67.4201C28.2184 68.3126 28.2482 69.2078 28.5843 70.0654C28.6143 69.852 28.6352 69.6392 28.6111 69.4305C28.3438 67.107 28.6802 64.8236 29.2365 62.5663ZM29.9408 80.2051C29.942 80.2049 29.9434 80.2046 29.9446 80.2044C29.9572 80.1934 29.9699 80.1823 29.9824 80.1714C30.0258 80.1398 30.0693 80.1083 30.1126 80.0767C30.1186 80.0648 30.126 80.0537 30.1322 80.0418C30.8455 79.4171 31.7115 78.9574 32.468 78.314C32.1567 78.2948 32.0138 77.7209 31.7135 78.0663C31.1594 78.7032 30.5207 79.2952 30.1322 80.0418C30.122 80.0508 30.1111 80.0591 30.1009 80.0681C30.0614 80.1025 30.022 80.1369 29.9824 80.1714C29.9686 80.1815 29.9548 80.1914 29.9411 80.2015C29.9412 80.203 29.9408 80.2037 29.9408 80.2051C29.9246 80.2085 29.9083 80.2119 29.892 80.2152C29.9242 80.2632 29.9403 80.2592 29.9408 80.2051ZM12.1433 105.709C12.1432 105.713 12.1437 105.718 12.1435 105.722L12.1532 105.721C12.1545 105.722 12.1557 105.724 12.1572 105.726L12.1884 105.716L12.1533 105.721C12.1497 105.717 12.1468 105.713 12.1433 105.709C12.1571 104.887 11.6067 104.177 11.6394 103.351C11.2218 104.277 11.3367 104.744 12.1433 105.709ZM12.6381 100.961C12.6354 100.991 12.6326 101.021 12.6299 101.051C12.6249 101.055 12.6201 101.059 12.6152 101.062C12.6136 101.073 12.6116 101.083 12.61 101.093C11.7905 102.008 12.0804 103.028 12.2834 104.039C12.1784 103.038 12.4511 102.071 12.61 101.093C12.6164 101.086 12.6215 101.079 12.628 101.072C12.6286 101.065 12.6293 101.058 12.6299 101.051C12.6555 101.032 12.6812 101.012 12.7068 100.993C12.6838 100.982 12.661 100.971 12.6381 100.961ZM10.1422 104.784C9.19419 105.999 8.62868 107.265 8.52892 108.659C8.43397 109.987 9.50638 110.896 10.9875 110.812C12.1929 110.743 13.2249 110.223 14.1969 109.644C14.9654 109.187 15.5853 108.561 16.2228 107.767C13.4471 107.839 11.2073 107.296 10.1422 104.784ZM16.2199 108.54C16.6067 108.279 16.9934 108.018 17.4865 107.686C16.5848 107.536 16.4926 108.137 16.2199 108.54ZM22.252 117.574C22.3959 115.705 23.2836 114.024 23.9113 112.273C22.9117 113.928 21.4658 115.48 22.252 117.574ZM25.8436 108.753C25.648 109.163 25.4772 109.568 25.4149 109.985C25.2183 111.302 25.2516 112.569 26.6451 113.434L26.6689 113.445L26.6384 113.426C25.9082 111.937 25.6285 110.385 25.8436 108.753ZM26.7733 107.361C25.8043 109.696 26.3321 113.274 27.898 113.954C26.7263 111.837 26.7676 109.644 26.7733 107.361ZM24.1486 112.835C23.5486 114.305 22.9289 115.646 22.7969 117.105C22.6747 118.455 23.1382 118.846 24.6595 118.782C24.778 118.777 24.8986 118.771 25.014 118.748C27.2148 118.304 28.9499 117.117 30.8699 115.843C28.0591 115.692 25.5731 115.295 24.1486 112.835Z" fill="#00001B"/>
<path d="M36.7795 65.4066C36.3568 64.5304 36.4454 64.3307 37.485 63.9093C37.5904 64.1232 37.6968 64.3368 37.8008 64.5513C38.2875 65.5548 38.8061 66.5432 39.483 67.4578C39.6306 67.6573 39.7397 67.8457 40.0937 67.6845C41.7929 66.9105 43.3131 65.9342 44.5838 64.6465C44.8612 64.3654 44.7679 64.1767 44.5807 63.921C43.6251 62.6155 43.1815 61.1614 43.0754 59.614C43.0315 58.9724 43.0008 58.33 42.947 57.6891C42.8227 56.208 42.0955 54.9882 40.9211 53.9677C40.6386 53.7222 40.3034 53.5856 39.9083 53.5353C38.3151 53.3327 36.3345 54.7332 36.1831 56.2638C36.0695 57.4145 36.0272 58.5769 36.2339 59.7303C36.4065 60.6936 36.3316 60.8027 35.251 61.23C35.0892 61.1071 35.0964 60.9261 35.0531 60.762C34.673 59.3248 34.6586 57.8624 34.8068 56.4092C34.9626 54.8811 35.33 53.3964 36.5693 52.2174C37.733 51.1102 39.2086 50.8908 40.646 51.6874C42.2981 52.6032 43.2403 54.0144 43.715 55.6495C44.0882 56.9356 44.0281 58.2874 44.1504 59.6104C44.3097 61.3317 44.9614 62.8664 46.1952 64.1884C46.774 64.8086 47.4819 65.2842 48.3451 65.5898C48.4274 65.3332 48.3299 65.175 48.299 65.0089C47.9448 63.1082 47.4584 61.2265 47.5054 59.2757C47.5409 57.8035 48.0771 56.5552 49.2434 55.5228C49.4877 55.3065 49.74 55.1 50 54.9032V56.5418C49.6664 57.1235 49.475 57.7821 49.4142 58.513C49.2514 60.4678 49.5273 62.3726 50 64.2575V67.3029C49.769 67.3184 49.7202 67.5007 49.6427 67.6795C49.0739 68.9932 48.2935 70.1861 47.1636 71.1775C46.8946 71.4135 46.6114 71.6363 46.2707 71.9179C47.52 72.3442 48.7127 72.5396 49.9203 72.6344C49.9469 72.6365 49.9734 72.6381 50 72.6401V73.8544C43.9315 73.3388 39.3527 70.7395 36.7795 65.4066ZM36.581 54.6407C37.8134 53.4714 37.9714 53.3955 39.6756 53.1163C38.5529 52.3802 37.0548 53.0831 36.581 54.6407ZM42.1076 54.5843C42.1044 54.5827 42.1027 54.5804 42.0996 54.5786C42.1025 54.4774 42.1041 54.3766 41.9785 54.3232C41.5719 53.1341 40.6437 52.4156 39.351 52.1002C38.7147 51.945 38.0948 52.071 37.718 52.6481C37.7093 52.6513 37.701 52.6536 37.6925 52.6569L37.6534 52.6717L37.7042 52.6681C37.7086 52.6612 37.7135 52.655 37.718 52.6481C38.9175 52.1989 39.9237 52.5198 40.8117 53.2952C41.202 53.6361 41.583 53.9858 41.9685 54.3311C41.964 54.4351 41.999 54.5213 42.0996 54.5786C42.0995 54.5807 42.0996 54.5828 42.0996 54.5849L42.1256 54.5991L42.1076 54.5843ZM49.7155 65.6264C49.7538 65.7802 49.7063 65.9797 49.9509 66.0528C50.0252 65.8731 49.9388 65.7177 49.8922 65.5536C49.3984 63.8145 49.048 62.057 48.9765 60.2566C48.9294 59.0723 49.1019 57.9173 49.4107 56.7725C49.411 56.7723 49.4111 56.7721 49.4113 56.7718L49.4409 56.7492L49.4166 56.7651C49.4148 56.7673 49.4132 56.7695 49.4113 56.7718L49.4108 56.7723C49.4108 56.7724 49.4108 56.7725 49.4107 56.7726C48.4216 57.9705 48.2669 59.3501 48.5299 60.7437C48.8395 62.3843 49.3105 64.0004 49.7155 65.6264ZM44.6285 71.3625C44.8717 71.468 45.0728 71.4541 45.2883 71.3051C46.8259 70.2422 48.0088 68.9185 48.9049 67.3779C49.0597 67.1118 48.9576 66.9917 48.6778 66.9027C47.9601 66.6748 47.3006 66.335 46.5791 65.9667C45.6488 67.7246 44.2696 69.0993 42.3864 70.1287C43.1336 70.6232 43.8556 71.0276 44.6285 71.3625ZM42.1831 68.9408C43.5517 68.1677 44.5732 67.0763 45.5339 65.923C45.9032 65.4797 45.8399 65.2193 45.2626 64.9067C44.1691 66.6537 42.4204 67.7013 40.5619 68.6335C41.2549 69.3892 41.3246 69.4257 42.1831 68.9408Z" fill="#00001B"/>
<path d="M46.1875 37.644C45.0564 36.7739 44.436 35.6166 44.7285 34.2645C45.2063 32.0549 47.7934 30.8616 50 31.4993V32.5667C49.9984 32.5654 49.9972 32.5641 49.9956 32.5628C49.7639 32.3743 49.4861 32.2458 49.1548 32.2668C47.5562 32.3686 46.2755 32.8131 46.3885 34.6396C46.4015 35.2835 46.4676 35.9143 46.8249 36.4956C47.3308 37.3185 47.9526 37.571 48.9557 37.3256C49.3432 37.2308 49.6959 37.0989 50 36.9221V37.9724C49.9798 37.9813 49.9606 37.991 49.94 37.9997C48.6129 38.5682 47.3105 38.5079 46.1875 37.644ZM45.995 35.6563C45.9941 35.6519 45.9933 35.6475 45.9924 35.643C45.9877 35.6376 45.9839 35.6321 45.9795 35.6265C45.9795 35.1353 45.9795 34.6439 45.9795 34.1526C45.6503 34.6561 45.5853 35.1505 45.9795 35.6265C45.9795 35.6351 45.9795 35.6436 45.9795 35.6521C45.9854 35.6532 45.9897 35.655 45.995 35.6563C46.0083 35.7243 46.0215 35.7922 46.0348 35.8602C46.0525 35.8501 46.0841 35.8416 46.0856 35.8297C46.096 35.7539 46.0944 35.6806 45.995 35.6563Z" fill="#00001B"/>
<path d="M36.6245 61.7344C37.1514 62.7096 37.143 62.7328 36.0509 63.4278C35.3616 62.6278 35.4298 62.4144 36.6245 61.7344Z" fill="#00001B"/>
<path d="M48.9301 32.9298C49.421 32.9371 49.6492 33.2345 49.6561 33.6382C49.6629 34.0353 49.4237 34.2704 48.8317 34.2507C48.4878 34.213 48.1986 34.0064 48.2176 33.565C48.2346 33.1688 48.4795 32.9232 48.9301 32.9298Z" fill="#00001B"/>
</g>
</svg>
