<svg width="47" height="40" viewBox="0 0 47 40" fill="none" xmlns="http://www.w3.org/2000/svg">
<g opacity="0.08">
<path d="M4.35979 24.673C6.76395 24.673 8.71979 22.7171 8.71979 20.3131C8.71979 17.909 6.76395 15.9531 4.35979 15.9531C1.95584 15.9531 0 17.909 0 20.3131C0 22.7171 1.95577 24.673 4.35979 24.673ZM4.35979 16.4943C6.46554 16.4943 8.17865 18.2074 8.17865 20.3131C8.17865 22.4187 6.46554 24.1318 4.35979 24.1318C2.25425 24.1318 0.541142 22.4187 0.541142 20.3131C0.541075 18.2074 2.25418 16.4943 4.35979 16.4943Z" fill="#97A2FB"/>
<path d="M28.2094 0C26.444 0 25.0078 1.43616 25.0078 3.20152C25.0078 4.96674 26.444 6.40297 28.2094 6.40297C29.9746 6.40297 31.4109 4.9668 31.4109 3.20152C31.4109 1.43616 29.9747 0 28.2094 0ZM28.2094 5.86175C26.7424 5.86175 25.549 4.66833 25.549 3.20145C25.549 1.7345 26.7424 0.541077 28.2094 0.541077C29.6762 0.541077 30.8697 1.7345 30.8697 3.20145C30.8697 4.66833 29.6763 5.86175 28.2094 5.86175Z" fill="#97A2FB"/>
<path d="M33.8983 31.9375C35.0141 31.9375 35.9218 31.0298 35.9218 29.914C35.9218 28.7983 35.0141 27.8906 33.8983 27.8906C32.7827 27.8906 31.875 28.7983 31.875 29.914C31.875 31.0298 32.7828 31.9375 33.8983 31.9375ZM33.8983 28.4318C34.7157 28.4318 35.3806 29.0967 35.3806 29.914C35.3806 30.7314 34.7157 31.3964 33.8983 31.3964C33.0811 31.3964 32.4162 30.7314 32.4162 29.914C32.4162 29.0966 33.0812 28.4318 33.8983 28.4318Z" fill="#97A2FB"/>
<path d="M28.8227 23.614C30.3531 23.614 31.5984 22.3688 31.5984 20.8383C31.5984 19.3077 30.3532 18.0625 28.8227 18.0625C27.2921 18.0625 26.0469 19.3077 26.0469 20.8383C26.0469 22.3688 27.2921 23.614 28.8227 23.614ZM28.8227 18.6036C30.0549 18.6036 31.0573 19.606 31.0573 20.8383C31.0573 22.0704 30.0549 23.0728 28.8227 23.0728C27.5906 23.0728 26.588 22.0704 26.588 20.8383C26.588 19.6061 27.5905 18.6036 28.8227 18.6036Z" fill="#97A2FB"/>
<path d="M24.075 25.1907C24.0711 25.1998 24.0679 25.2089 24.0652 25.2183C24.0628 25.2263 24.0608 25.2343 24.0591 25.2424C24.0573 25.2512 24.0561 25.2601 24.0553 25.269C24.0544 25.2778 24.0539 25.2863 24.0539 25.295C24.0539 25.3036 24.0545 25.3122 24.0553 25.3209C24.0561 25.3299 24.0573 25.3387 24.0591 25.3475C24.0607 25.3556 24.0628 25.3636 24.0652 25.3717C24.0679 25.381 24.0712 25.3902 24.075 25.3992C24.0766 25.4031 24.0774 25.4073 24.0793 25.4111C24.0809 25.4145 24.0833 25.4173 24.085 25.4207C24.0897 25.4294 24.0948 25.4378 24.1004 25.446C24.105 25.4529 24.1096 25.4595 24.1148 25.4657C24.1206 25.4727 24.1269 25.4793 24.1334 25.4859C24.1396 25.4921 24.1458 25.498 24.1525 25.5035C24.1591 25.5089 24.1661 25.5139 24.1733 25.5187C24.1812 25.524 24.1892 25.5289 24.1976 25.5334C24.201 25.5351 24.204 25.5377 24.2075 25.5393C24.2112 25.5411 24.2151 25.5416 24.2188 25.5432C24.2295 25.5478 24.2404 25.5515 24.2516 25.5546C24.259 25.5566 24.2663 25.5587 24.2738 25.5601C24.2849 25.5622 24.2962 25.5632 24.3076 25.5638C24.3129 25.5642 24.3181 25.5656 24.3234 25.5656C24.325 25.5656 24.3265 25.565 24.328 25.565C24.3502 25.5646 24.3722 25.5616 24.3941 25.5557C24.3987 25.5545 24.4029 25.5524 24.4074 25.551C24.4182 25.5473 24.4291 25.5443 24.4397 25.5393C24.9333 25.305 25.5548 25.3415 26.0625 25.6347C26.5471 25.9145 26.8641 26.4158 26.9105 26.9756C26.9107 26.978 26.9121 26.9799 26.9124 26.9823C26.9155 27.0119 26.9235 27.0405 26.9362 27.0676C26.9382 27.0718 26.9402 27.0758 26.9424 27.0799C26.9557 27.105 26.9727 27.128 26.994 27.1483C26.9974 27.1516 27.0009 27.1542 27.0045 27.1572C27.0117 27.1634 27.0181 27.1702 27.0261 27.1757C27.0428 27.1873 27.0604 27.1963 27.0785 27.2036C27.081 27.2047 27.0837 27.2051 27.0862 27.2061C27.1163 27.2173 27.1476 27.2236 27.1788 27.2237C27.1792 27.2237 27.1794 27.224 27.1798 27.224C27.1874 27.224 27.195 27.2237 27.2026 27.2231C27.2068 27.2227 27.2107 27.2213 27.2149 27.2208C27.2242 27.2196 27.2334 27.2179 27.2425 27.2157C27.251 27.2137 27.2593 27.2115 27.2674 27.2087C27.2756 27.2059 27.2835 27.2025 27.2914 27.1989C27.2996 27.1952 27.3075 27.1913 27.3153 27.1869C27.3226 27.1827 27.3295 27.1779 27.3364 27.173C27.3439 27.1676 27.3511 27.1622 27.358 27.1561C27.3641 27.1508 27.3697 27.1451 27.3754 27.139C27.3823 27.1318 27.3887 27.1243 27.3948 27.1164C27.3972 27.1132 27.4002 27.1107 27.4024 27.1074C27.7216 26.647 28.2496 26.372 28.8145 26.372C29.3771 26.372 29.9037 26.6493 30.2233 27.1137C30.2252 27.1165 30.2279 27.1184 30.2298 27.1211C30.239 27.1334 30.2492 27.1447 30.2604 27.1554C30.2644 27.1592 30.2681 27.1634 30.2722 27.1669C30.2875 27.1798 30.3038 27.1912 30.3218 27.2006C30.3234 27.2014 30.3252 27.2018 30.3268 27.2026C30.3428 27.2105 30.3597 27.2167 30.3774 27.2214C30.384 27.2231 30.3908 27.2239 30.3976 27.2251C30.4064 27.2268 30.4148 27.2292 30.4238 27.23C30.4313 27.2307 30.4388 27.2309 30.4463 27.2309H30.4464C30.4467 27.2309 30.4469 27.2309 30.4472 27.2309C30.4773 27.2308 30.5072 27.2242 30.5364 27.2139C30.5465 27.2103 30.5552 27.2049 30.5648 27.2001C30.5764 27.1944 30.5886 27.1909 30.5996 27.1833C30.608 27.1776 30.6148 27.1706 30.6224 27.1641C30.6256 27.1612 30.629 27.1587 30.6321 27.1557C30.6536 27.1353 30.6708 27.1121 30.6841 27.0868C30.6862 27.0829 30.6882 27.0791 30.6901 27.075C30.7028 27.0478 30.7108 27.0191 30.714 26.9895C30.7143 26.9871 30.7157 26.9852 30.7159 26.9828C30.7612 26.436 31.0957 25.9194 31.5891 25.6347C32.0755 25.3538 32.6699 25.3306 33.1788 25.5725C33.1892 25.5774 33.1999 25.5803 33.2106 25.5838C33.2154 25.5854 33.2198 25.5875 33.2246 25.5888C33.2464 25.5947 33.2684 25.5976 33.2902 25.598C33.2918 25.5981 33.2934 25.5987 33.295 25.5987C33.3004 25.5987 33.3059 25.5972 33.3112 25.597C33.3226 25.5963 33.3337 25.5954 33.3448 25.5933C33.3521 25.5919 33.3594 25.5898 33.3668 25.5877C33.3781 25.5846 33.3891 25.5809 33.4 25.5762C33.4036 25.5746 33.4074 25.5741 33.411 25.5725C33.4145 25.5708 33.4173 25.5683 33.4208 25.5666C33.4293 25.562 33.4375 25.557 33.4456 25.5515C33.4526 25.5468 33.4594 25.542 33.4658 25.5367C33.4727 25.5311 33.479 25.5251 33.4853 25.5188C33.4917 25.5123 33.498 25.5058 33.5037 25.4988C33.5088 25.4925 33.5134 25.4859 33.518 25.479C33.5236 25.4707 33.5288 25.4624 33.5334 25.4537C33.5352 25.4503 33.5375 25.4475 33.5391 25.4442C33.541 25.4403 33.5418 25.4363 33.5434 25.4323C33.5472 25.4232 33.5505 25.4141 33.5533 25.4045C33.5556 25.3966 33.5577 25.3887 33.5593 25.3807C33.5611 25.3717 33.5623 25.3628 33.5632 25.3537C33.564 25.3452 33.5646 25.3368 33.5646 25.3282C33.5646 25.3193 33.564 25.3105 33.5631 25.3015C33.5623 25.2929 33.5611 25.2844 33.5595 25.2759C33.5578 25.2674 33.5556 25.2591 33.5531 25.2508C33.5504 25.2417 33.5473 25.233 33.5436 25.2243C33.542 25.2201 33.5412 25.2159 33.5392 25.2118C33.3049 24.7187 33.3414 24.0969 33.6345 23.5892C33.9143 23.1046 34.4156 22.7875 34.9756 22.7411C34.9846 22.7405 34.9929 22.738 35.0015 22.7364C35.0084 22.735 35.0152 22.7344 35.0219 22.7326C35.039 22.7281 35.0552 22.722 35.0707 22.7146C35.0729 22.7135 35.0752 22.713 35.0774 22.7118C35.0952 22.7026 35.1115 22.6913 35.1267 22.6786C35.131 22.6749 35.1349 22.6704 35.1392 22.6664C35.1498 22.6561 35.1598 22.6454 35.1686 22.6335C35.1708 22.6307 35.1736 22.6287 35.1757 22.6256C35.1781 22.6221 35.1795 22.6181 35.1818 22.6146C35.1867 22.6067 35.1911 22.5986 35.1952 22.5903C35.1991 22.5824 35.2027 22.5746 35.2056 22.5665C35.2087 22.5584 35.2112 22.5502 35.2135 22.5417C35.2158 22.5329 35.2179 22.5241 35.2194 22.5152C35.2207 22.507 35.2215 22.4988 35.2221 22.4904C35.2227 22.4808 35.223 22.4712 35.2226 22.4616C35.2225 22.4575 35.2232 22.4535 35.2228 22.4494C35.2225 22.4452 35.2211 22.4415 35.2206 22.4373C35.2193 22.4274 35.2174 22.4177 35.2151 22.4081C35.2132 22.4007 35.2113 22.3932 35.2088 22.3861C35.2054 22.376 35.2013 22.3662 35.1967 22.3565C35.194 22.3508 35.1914 22.3453 35.1883 22.3398C35.1824 22.3294 35.1756 22.3193 35.1683 22.3097C35.1653 22.3057 35.1624 22.3018 35.1592 22.2981C35.1511 22.2885 35.1422 22.2795 35.1326 22.271C35.1289 22.2677 35.1251 22.2644 35.1211 22.2612C35.1164 22.2573 35.1124 22.253 35.1073 22.2494C34.6468 21.9303 34.3718 21.4026 34.3718 20.8375C34.3718 20.275 34.6491 19.7484 35.1136 19.4287C35.1219 19.423 35.1287 19.416 35.1361 19.4096C35.1396 19.4067 35.143 19.4041 35.1462 19.401C35.1676 19.3807 35.1847 19.3575 35.1981 19.3324C35.2002 19.3283 35.2022 19.3245 35.2042 19.3204C35.2168 19.2931 35.2247 19.2644 35.228 19.2348C35.2283 19.2325 35.2297 19.2305 35.2299 19.2281C35.2303 19.2239 35.2296 19.22 35.2297 19.2158C35.23 19.2065 35.2298 19.1974 35.2292 19.1882C35.2286 19.1794 35.2279 19.1707 35.2265 19.1621C35.2251 19.1536 35.2231 19.1454 35.2209 19.1371C35.2186 19.1279 35.216 19.1191 35.2126 19.1104C35.2098 19.1029 35.2065 19.0957 35.2029 19.0885C35.1986 19.0794 35.1939 19.0707 35.1885 19.0623C35.1865 19.0591 35.1852 19.0556 35.1831 19.0523C35.1807 19.0488 35.1775 19.0462 35.175 19.0428C35.1692 19.0351 35.163 19.0278 35.1563 19.0207C35.1505 19.0145 35.1445 19.0085 35.1381 19.003C35.1314 18.9971 35.1246 18.9918 35.1174 18.9867C35.1103 18.9816 35.103 18.9766 35.0954 18.9723C35.088 18.968 35.0802 18.9641 35.0723 18.9605C35.0642 18.9568 35.0561 18.9535 35.0477 18.9506C35.0397 18.9478 35.0315 18.9456 35.0231 18.9435C35.0139 18.9415 35.0047 18.9397 34.9954 18.9384C34.9911 18.9379 34.987 18.9365 34.9827 18.9362C34.4359 18.8908 33.9194 18.5562 33.6346 18.0629C33.3538 17.5766 33.3305 16.9823 33.5724 16.4733C33.5744 16.4693 33.5752 16.4651 33.5768 16.4609C33.5805 16.4522 33.5836 16.4434 33.5863 16.4344C33.5888 16.426 33.591 16.4177 33.5926 16.4092C33.5943 16.4007 33.5954 16.3922 33.5962 16.3836C33.5971 16.3747 33.5977 16.3659 33.5977 16.3569C33.5977 16.3484 33.5972 16.34 33.5963 16.3315C33.5955 16.3225 33.5943 16.3135 33.5925 16.3046C33.5909 16.2965 33.5888 16.2886 33.5865 16.2807C33.5837 16.2712 33.5803 16.2619 33.5766 16.2529C33.5749 16.2489 33.5742 16.2449 33.5723 16.241C33.5707 16.2376 33.5684 16.2349 33.5666 16.2316C33.562 16.2227 33.5568 16.2144 33.5512 16.206C33.5466 16.1993 33.542 16.1927 33.537 16.1865C33.5312 16.1794 33.5249 16.1728 33.5183 16.1663C33.5121 16.1601 33.5059 16.1541 33.4992 16.1486C33.4926 16.1432 33.4856 16.1383 33.4784 16.1335C33.4705 16.1282 33.4625 16.1233 33.4542 16.1188C33.4507 16.117 33.4477 16.1144 33.4441 16.1127C33.44 16.1108 33.4357 16.11 33.4316 16.1082C33.4228 16.1046 33.4141 16.1015 33.405 16.0987C33.3967 16.0962 33.3885 16.0942 33.3802 16.0925C33.3715 16.0908 33.3628 16.0897 33.354 16.0888C33.3452 16.0879 33.3366 16.0874 33.328 16.0874C33.3193 16.0874 33.3106 16.0879 33.3018 16.0888C33.293 16.0897 33.2844 16.0908 33.2758 16.0925C33.2674 16.0942 33.2592 16.0963 33.2509 16.0987C33.2418 16.1015 33.233 16.1046 33.2243 16.1082C33.2202 16.11 33.2159 16.1108 33.2119 16.1127C32.7186 16.347 32.0968 16.3107 31.5891 16.0174C31.1003 15.7353 30.7808 15.2333 30.7346 14.6746C30.7343 14.6704 30.7329 14.6666 30.7323 14.6624C30.7311 14.6526 30.7292 14.6429 30.7268 14.6333C30.725 14.6259 30.7232 14.6188 30.7207 14.6117C30.7172 14.6011 30.7128 14.5909 30.7079 14.5806C30.7056 14.5756 30.7032 14.5708 30.7006 14.566C30.6941 14.5542 30.6865 14.5432 30.6782 14.5325C30.6762 14.53 30.6744 14.5274 30.6723 14.5249C30.6631 14.5139 30.6528 14.5035 30.6416 14.4938C30.6394 14.4919 30.6373 14.49 30.6351 14.4882C30.6296 14.4837 30.625 14.4786 30.6191 14.4745C30.613 14.4703 30.6063 14.4676 30.5999 14.4639C30.5966 14.4619 30.5934 14.4602 30.5901 14.4585C30.5784 14.4523 30.5664 14.4469 30.5541 14.4426C30.549 14.4407 30.5439 14.4393 30.5387 14.4378C30.5278 14.4347 30.5171 14.4322 30.5061 14.4305C30.4987 14.4293 30.4913 14.4285 30.4838 14.428C30.4741 14.4274 30.4646 14.4271 30.455 14.4275C30.4508 14.4277 30.4468 14.4269 30.4426 14.4272C30.4383 14.4275 30.4343 14.4289 30.4301 14.4295C30.4209 14.4307 30.4118 14.4324 30.4027 14.4346C30.3942 14.4366 30.3859 14.4389 30.3777 14.4416C30.3695 14.4444 30.3616 14.4478 30.3536 14.4514C30.3455 14.4551 30.3376 14.4589 30.33 14.4633C30.3225 14.4676 30.3154 14.4723 30.3084 14.4774C30.3011 14.4827 30.294 14.488 30.2872 14.4939C30.281 14.4994 30.2752 14.5052 30.2694 14.5113C30.2626 14.5186 30.2563 14.5259 30.2503 14.5337C30.2479 14.537 30.2449 14.5394 30.2426 14.5428C29.9226 15.0044 29.3973 15.28 28.8371 15.28C28.2746 15.28 27.7477 15.0026 27.428 14.5382C27.4256 14.5346 27.4224 14.532 27.4199 14.5286C27.4141 14.521 27.408 14.5137 27.4014 14.5067C27.3954 14.5003 27.3894 14.4943 27.383 14.4888C27.3765 14.4829 27.3696 14.4777 27.3625 14.4725C27.3553 14.4674 27.3481 14.4625 27.3404 14.4581C27.3329 14.4537 27.3253 14.45 27.3174 14.4464C27.3093 14.4427 27.3012 14.4393 27.2928 14.4365C27.2847 14.4336 27.2765 14.4314 27.2681 14.4294C27.259 14.4272 27.2499 14.4255 27.2405 14.4243C27.2361 14.4238 27.2322 14.4223 27.2277 14.422C27.2235 14.4216 27.2196 14.4223 27.2155 14.4222C27.2061 14.4219 27.1967 14.422 27.1872 14.4227C27.1786 14.4233 27.1701 14.4241 27.1617 14.4255C27.1532 14.4269 27.1448 14.4289 27.1364 14.4311C27.1273 14.4334 27.1185 14.436 27.1099 14.4393C27.1025 14.4421 27.0953 14.4454 27.088 14.4489C27.0789 14.4534 27.07 14.4581 27.0615 14.4635C27.0584 14.4654 27.0549 14.4666 27.0518 14.4688C27.0484 14.4711 27.0458 14.4742 27.0426 14.4766C27.0346 14.4827 27.027 14.4892 27.0197 14.4961C27.0138 14.5017 27.0082 14.5073 27.0029 14.5133C26.9967 14.5202 26.991 14.5276 26.9856 14.5353C26.9808 14.542 26.9762 14.5487 26.9721 14.5558C26.9675 14.5637 26.9635 14.5718 26.9597 14.5803C26.9562 14.588 26.953 14.5957 26.9503 14.6037C26.9474 14.6121 26.9452 14.6204 26.9431 14.6292C26.9409 14.6381 26.9393 14.647 26.938 14.6562C26.9374 14.6607 26.936 14.6648 26.9356 14.6693C26.8904 15.216 26.5559 15.7327 26.0626 16.0174C25.5759 16.2982 24.9821 16.3215 24.473 16.0796C24.4688 16.0777 24.4645 16.0768 24.4602 16.075C24.4517 16.0716 24.4431 16.0685 24.4342 16.0658C24.4258 16.0632 24.4173 16.061 24.4088 16.0593C24.4003 16.0577 24.3917 16.0565 24.383 16.0557C24.3743 16.0549 24.3656 16.0543 24.3569 16.0543C24.3481 16.0543 24.3393 16.0549 24.3304 16.0557C24.3218 16.0565 24.3134 16.0577 24.3049 16.0593C24.2964 16.061 24.2879 16.0632 24.2795 16.0658C24.2705 16.0684 24.2618 16.0716 24.2532 16.0751C24.2491 16.0769 24.2448 16.0777 24.2407 16.0796C24.2372 16.0813 24.2343 16.0838 24.2308 16.0856C24.2223 16.0901 24.2143 16.095 24.2063 16.1004C24.1992 16.1052 24.1923 16.1101 24.1857 16.1154C24.179 16.1209 24.1727 16.1269 24.1665 16.1331C24.16 16.1396 24.1537 16.1461 24.1479 16.1532C24.1429 16.1594 24.1382 16.1661 24.1337 16.1729C24.1281 16.1811 24.1229 16.1895 24.1183 16.1983C24.1166 16.2015 24.1141 16.2044 24.1125 16.2078C24.1107 16.2117 24.1099 16.2158 24.1082 16.2198C24.1045 16.2288 24.1012 16.238 24.0985 16.2473C24.0961 16.2554 24.094 16.2633 24.0923 16.2715C24.0906 16.2803 24.0894 16.2891 24.0885 16.2981C24.0877 16.3067 24.0872 16.3153 24.0872 16.324C24.0872 16.3326 24.0877 16.3411 24.0885 16.3498C24.0894 16.3588 24.0906 16.3676 24.0923 16.3765C24.094 16.3846 24.096 16.3926 24.0985 16.4006C24.1012 16.41 24.1045 16.4191 24.1082 16.4281C24.1099 16.4321 24.1107 16.4362 24.1125 16.4401C24.3468 16.9332 24.3103 17.555 24.0172 18.0627C23.7373 18.5474 23.236 18.8645 22.6762 18.9108C22.6719 18.9113 22.6679 18.9126 22.6637 18.9132C22.6545 18.9143 22.6455 18.916 22.6365 18.9182C22.6279 18.9202 22.6195 18.9225 22.6112 18.9253C22.6031 18.9281 22.5953 18.9314 22.5874 18.9349C22.5792 18.9386 22.5712 18.9425 22.5635 18.947C22.5561 18.9512 22.5492 18.956 22.5422 18.9609C22.5348 18.9662 22.5277 18.9716 22.5209 18.9777C22.5147 18.9831 22.5089 18.9889 22.5032 18.9949C22.4964 19.002 22.49 19.0095 22.484 19.0174C22.4816 19.0205 22.4786 19.023 22.4764 19.0264C22.4741 19.0297 22.4729 19.0332 22.4707 19.0365C22.4654 19.045 22.4606 19.0537 22.4562 19.0627C22.4526 19.07 22.4493 19.0774 22.4465 19.0849C22.4432 19.0935 22.4405 19.1023 22.4381 19.1113C22.4359 19.1197 22.4339 19.1281 22.4326 19.1364C22.4312 19.145 22.4304 19.1535 22.4297 19.1623C22.4291 19.1717 22.4289 19.1809 22.4292 19.1902C22.4294 19.1945 22.4287 19.1986 22.429 19.2028C22.4292 19.2052 22.4306 19.2071 22.4309 19.2094C22.434 19.2389 22.442 19.2676 22.4547 19.2948C22.4567 19.299 22.4587 19.303 22.4609 19.3071C22.4742 19.3322 22.4913 19.3552 22.5125 19.3755C22.5159 19.3786 22.5194 19.3813 22.523 19.3844C22.5302 19.3906 22.5367 19.3974 22.5446 19.4029C23.0051 19.7221 23.2799 20.2499 23.2799 20.8149C23.2799 21.3774 23.0026 21.9041 22.5381 22.2237C22.5344 22.2263 22.5315 22.2296 22.5279 22.2324C22.5207 22.2378 22.5139 22.2437 22.5073 22.2498C22.5006 22.2561 22.4943 22.2624 22.4884 22.2692C22.4829 22.2754 22.4779 22.2821 22.4729 22.2889C22.4676 22.2964 22.4625 22.3038 22.458 22.3117C22.4537 22.319 22.4501 22.3265 22.4465 22.3342C22.4428 22.3424 22.4393 22.3506 22.4365 22.3592C22.4337 22.3671 22.4314 22.3755 22.4294 22.3838C22.4273 22.3929 22.4255 22.4021 22.4244 22.4113C22.4238 22.4158 22.4223 22.4199 22.422 22.4243C22.4216 22.4285 22.4223 22.4324 22.4222 22.4365C22.4218 22.4457 22.4221 22.4549 22.4226 22.4641C22.4232 22.473 22.424 22.4818 22.4255 22.4905C22.4268 22.4987 22.4287 22.5069 22.4309 22.515C22.4332 22.5243 22.4359 22.5333 22.4393 22.5421C22.442 22.5494 22.4453 22.5565 22.4488 22.5637C22.4532 22.5729 22.458 22.5816 22.4634 22.5902C22.4654 22.5934 22.4666 22.5969 22.4687 22.6C22.4706 22.6028 22.4733 22.6046 22.4752 22.6073C22.4843 22.6197 22.4946 22.631 22.5058 22.6416C22.5098 22.6455 22.5135 22.6496 22.5176 22.6531C22.5328 22.666 22.5492 22.6776 22.5672 22.6869C22.5688 22.6877 22.5706 22.688 22.5722 22.6888C22.5882 22.6967 22.6051 22.703 22.6228 22.7077C22.6294 22.7094 22.6362 22.7101 22.643 22.7114C22.6518 22.713 22.6601 22.7155 22.6692 22.7163C23.216 22.7615 23.7325 23.096 24.0175 23.5893C24.2983 24.0758 24.3215 24.67 24.0797 25.179C24.0774 25.1827 24.0766 25.1868 24.075 25.1907ZM23.2631 22.2958C23.6181 21.89 23.8206 21.3657 23.8206 20.8147C23.8206 20.2634 23.6204 19.7394 23.2694 19.3338C23.7768 19.1589 24.2117 18.8075 24.4856 18.3331C24.7678 17.8443 24.8641 17.2706 24.7696 16.7411C24.9149 16.7701 25.0619 16.7868 25.2091 16.7868C25.5984 16.7868 25.9865 16.686 26.333 16.4859C26.8182 16.2057 27.1774 15.7687 27.3558 15.2633C27.7617 15.6183 28.2861 15.821 28.837 15.821C29.3849 15.821 29.907 15.6201 30.3121 15.2681C30.4879 15.775 30.8415 16.2105 31.3185 16.4859C31.6863 16.6982 32.1022 16.8059 32.5112 16.8059C32.6455 16.8059 32.7783 16.7914 32.909 16.7682C32.8032 17.2984 32.8898 17.8552 33.1658 18.3332C33.4458 18.8183 33.8828 19.1775 34.3882 19.356C34.0331 19.7619 33.8306 20.2862 33.8306 20.8371C33.8306 21.3884 34.0309 21.9125 34.3818 22.3181C33.8744 22.493 33.4395 22.8446 33.1659 23.3186C32.8839 23.8069 32.7877 24.3798 32.8817 24.9089C32.3522 24.8036 31.796 24.8902 31.3186 25.166C30.8334 25.446 30.4741 25.8831 30.2956 26.3884C29.8898 26.0334 29.3655 25.8308 28.8145 25.8308C28.2633 25.8308 27.7392 26.0311 27.3336 26.3821C27.1588 25.8747 26.8073 25.4398 26.3331 25.166C25.8446 24.884 25.2716 24.7879 24.7428 24.8817C24.8481 24.3522 24.7613 23.7961 24.4857 23.3186C24.2054 22.8334 23.7684 22.4742 23.2631 22.2958Z" fill="#97A2FB"/>
<path d="M36.7727 27.6629C36.8232 27.705 36.8845 27.7255 36.9454 27.7255C37.0231 27.7255 37.1001 27.6923 37.1536 27.6279C39.4887 24.8202 40.2474 21.0627 39.1828 17.5763C37.807 13.0707 33.5723 9.9375 28.8702 9.9375C28.8488 9.9375 28.8274 9.93756 28.806 9.93777C27.7631 9.944 26.7239 10.1031 25.717 10.4106C23.7044 11.0251 21.9311 12.2005 20.5889 13.8098C18.2461 16.619 17.4844 20.3821 18.5513 23.8762C19.9426 28.4327 24.1812 31.5153 28.8643 31.5149C29.205 31.5149 29.5487 31.4986 29.8932 31.4652C30.0419 31.4509 30.1508 31.3187 30.1365 31.17C30.1221 31.021 29.9917 30.9122 29.8411 30.9266C25.0178 31.3927 20.4867 28.361 19.0689 23.7181C18.0555 20.3994 18.7791 16.8249 21.0047 14.1564C22.2791 12.6281 23.9634 11.5118 25.8752 10.9281C26.8317 10.6361 27.8188 10.4849 28.8092 10.4789C28.8282 10.4786 28.8495 10.4786 28.8701 10.4786C33.3358 10.4786 37.3584 13.4549 38.6651 17.7344C39.6762 21.0458 38.9556 24.6149 36.7374 27.2818C36.6421 27.3968 36.6578 27.5673 36.7727 27.6629Z" fill="#97A2FB"/>
<path d="M28.8667 38.5217C38.6795 38.5217 46.6629 30.5384 46.6629 20.7256C46.6629 16.8021 45.4108 13.0821 43.0418 9.96778C40.7497 6.95427 37.4964 4.71115 33.8814 3.65161C33.7389 3.60962 33.5876 3.69172 33.5457 3.83505C33.5035 3.97852 33.5858 4.12876 33.7292 4.17088C41.0257 6.3095 46.1217 13.117 46.1217 20.7256C46.1217 30.24 38.3811 37.9806 28.8666 37.9806C19.3521 37.9806 11.6115 30.24 11.6115 20.7256C11.6115 13.6263 16.0646 7.14965 22.6923 4.6092C22.8319 4.55575 22.9016 4.39927 22.8481 4.25969C22.7946 4.12011 22.6383 4.05042 22.4986 4.10388C19.1722 5.37886 16.3298 7.60132 14.2785 10.531C12.1796 13.5283 11.0703 17.0535 11.0703 20.7256C11.0705 30.5384 19.0538 38.5217 28.8667 38.5217Z" fill="#97A2FB"/>
<path d="M13.1722 39.9439C13.2225 39.985 13.283 40.005 13.3433 40.005C13.4217 40.005 13.4994 39.9712 13.5529 39.9057C13.6475 39.7901 13.6304 39.6196 13.5147 39.525C9.55662 36.2878 6.76371 31.9828 5.43815 27.0751C5.39925 26.9308 5.25088 26.8454 5.10628 26.8845C4.962 26.9234 4.87676 27.0719 4.91566 27.2161C6.271 32.2336 9.12595 36.6348 13.1722 39.9439Z" fill="#97A2FB"/>
<path d="M5.29404 13.8855C5.32013 13.8933 5.34655 13.897 5.37244 13.897C5.48855 13.897 5.596 13.8216 5.63142 13.7046C6.3383 11.3607 7.3963 9.14205 8.77598 7.11002C8.85983 6.98647 8.82777 6.81811 8.70409 6.73421C8.58027 6.65036 8.41219 6.68243 8.32821 6.80611C6.91794 8.88362 5.83612 11.152 5.11321 13.5483C5.06995 13.6914 5.15097 13.8424 5.29404 13.8855Z" fill="#97A2FB"/>
</g>
</svg>
