<svg width="111" height="269" viewBox="0 0 111 269" fill="none" xmlns="http://www.w3.org/2000/svg">
<g opacity="0.5">
<path d="M86.1633 254.219C81.848 256.397 77.3507 258.108 72.448 258.857C71.6041 258.985 71.0058 259.398 70.4053 259.896C67.4632 262.332 64.6601 264.92 61.0607 266.63C59.1064 267.559 57.1072 268.32 54.887 268.509C48.6829 269.036 44.1967 264.246 45.6618 258.589C46.617 254.9 48.9616 251.852 51.5307 248.946C52.1583 248.236 52.4738 247.543 52.5951 246.635C53.114 242.747 54.9658 239.288 57.1389 235.958C57.8348 234.892 58.6401 233.883 59.3967 232.849C59.4002 232.849 59.4035 232.849 59.4074 232.849L59.4289 232.782L59.4148 232.825C59.4091 232.833 59.4024 232.841 59.3967 232.849C58.9262 232.801 58.6095 233.088 58.2579 233.286C53.1697 236.145 47.8881 238.631 42.0812 240.115C41.6749 240.219 41.3271 240.39 41.0248 240.71C37.2636 244.692 32.698 247.7 27.3665 249.777C25.1372 250.646 22.8676 250.987 20.5151 250.258C16.8945 249.135 14.8302 245.911 15.4652 242.183C16.122 238.328 17.8822 234.938 21.1277 232.261C21.5373 231.923 21.8082 231.568 21.9509 231.075C23.1732 226.844 25.4335 223.05 28.0346 219.392C33.2851 212.008 39.5905 205.349 45.6736 198.536C49.2176 194.568 52.8238 190.645 56.3838 186.688C56.6974 186.339 57.1778 186.057 57.2169 185.384C56.1209 185.799 55.0893 186.151 54.0935 186.573C48.5344 188.926 42.542 189.579 36.5443 190.204C34.5308 190.414 32.5057 190.532 30.4907 190.733C29.6237 190.82 29.2067 190.694 29.3222 189.764C29.5374 188.032 29.6813 187.992 32.1206 187.742C37.5197 187.188 42.9796 186.951 48.2221 185.488C51.951 184.447 55.5611 183.129 59.0673 181.594C60.765 180.85 62.2061 179.782 63.3085 178.375C64.3732 177.016 65.4494 175.664 66.435 174.221C60.8948 177.833 54.5951 179.794 48.1116 181.343C43.6187 182.417 39.0143 182.797 34.3773 183.007C29.7441 183.217 25.0876 183.057 20.4781 183.578C16.8983 183.982 13.7364 185.326 11.1074 187.58C8.35938 189.936 6.28686 192.739 4.95488 195.914C3.95996 198.286 4.21517 200.842 4.3436 203.325C4.48829 206.118 5.27017 208.803 6.63853 211.33C6.89126 211.797 7.24733 212.218 7.6307 212.768C8.62369 211.805 8.57352 210.7 8.61486 209.645C8.724 206.865 8.53357 204.084 8.87587 201.3C9.55467 195.778 12.7448 192.088 18.5172 190.171C19.0177 190.004 19.5196 189.84 20.0256 189.688C21.7787 189.161 21.847 189.231 22.2279 190.819C22.4244 191.638 22.0449 191.92 21.2694 192.141C19.5394 192.636 17.8561 193.219 16.3397 194.167C12.4441 196.603 11.5294 200.188 11.4274 204.132C11.3618 206.67 11.6958 209.226 11.0741 211.742C10.9478 212.253 10.7894 212.772 10.5383 213.24C9.13382 215.861 6.17855 216.376 3.82657 214.379C1.18906 212.14 0.0483431 209.274 0.00231761 206.092C-0.0778824 200.557 1.93264 195.554 5.0067 190.823C9.35486 184.132 16.2071 180.964 24.312 179.398C29.9889 178.301 35.75 178.208 41.5029 177.944C48.4941 177.623 55.2874 176.547 61.6067 173.674C62.8488 173.109 64.0612 172.488 65.0498 171.594C65.4224 171.257 66.1591 171.015 65.8295 170.341C65.5434 169.756 64.9211 169.775 64.3156 169.779C62.767 169.791 61.2159 169.826 59.6695 169.768C54.806 169.588 50.32 168.274 46.2981 165.832C40.6249 162.388 38.1359 157.275 37.1832 151.386C36.4316 146.741 36.9464 142.221 38.4294 137.729C41.0085 129.919 44.3163 122.403 49.0605 115.433C51.4982 111.852 54.3857 108.582 57.6918 105.629C63.1608 100.743 69.4757 99.3035 76.7339 102.076C78.7893 102.861 80.9873 103.398 82.7045 104.782C83.1819 105.167 83.4591 104.866 83.7667 104.588C84.6699 103.77 85.5286 102.907 86.4935 102.152C87.4454 101.408 87.5394 100.992 86.3279 100.314C79.9168 96.7257 74.727 92.0228 70.8694 86.1715C61.1412 71.4154 62.6813 52.7485 74.7747 38.5819C77.1911 35.7514 79.9086 33.1734 83.027 30.9692C84.0145 30.2712 83.9166 29.843 83.1769 29.0667C78.7298 24.4005 74.2739 19.7378 70.1751 14.8157C69.63 14.161 69.1513 14.3377 68.5375 14.5423C66.5438 15.2069 64.5518 15.1569 62.598 14.4318C60.1477 13.5224 58.5246 11.9482 58.2151 9.52404C57.8282 6.49279 58.8416 3.86991 61.2255 1.64944C63.7159 -0.670149 67.9174 -0.239478 70.9463 1.08324C73.6904 2.28156 75.0561 5.14852 74.4167 8.21718C74.2259 9.13252 74.4588 9.70171 75.0787 10.3955C79.5588 15.4111 84.0123 20.447 88.3971 25.5302C89.2371 26.5043 89.8481 26.7288 91.0329 25.9926C97.0369 22.2603 104.042 21.2231 111 20.2802V21.9124C104.107 22.8293 98.0365 25.6442 92.385 29.5962C98.0161 25.8736 104.331 24.0202 111 22.8649V24.1443C110.795 24.1785 110.589 24.2132 110.384 24.2469C104.654 25.1843 99.4162 27.259 94.47 29.9786C93.674 30.4162 93.1485 30.7945 93.6396 31.784C94.0144 32.5393 93.8284 33.3909 93.1055 34.0483C91.782 35.2521 89.5017 35.376 88.0716 34.2812C87.6273 33.9413 87.212 33.5512 86.87 33.1275C86.4089 32.5561 86.0049 32.6547 85.406 32.9786C84.133 33.6667 83.312 34.7446 82.3264 35.6795C78.4005 39.4043 75.2068 43.5767 72.8658 48.2666C72.4279 49.1443 72.1044 50.0453 71.9208 50.9981C71.0987 55.2638 70.8162 59.5281 71.2183 63.8694C71.8296 70.4686 73.5187 76.8116 76.4641 82.8463C81.56 93.2876 89.7721 100.566 102.589 102.943C103.997 103.204 105.391 103.574 107.125 103.603C106.689 103.384 106.513 103.277 106.322 103.203C94.0133 98.4159 86.1818 90.0633 82.2906 78.6445C80.5171 73.4406 80.0403 68.1024 80.9065 62.6949C81.1157 61.3885 81.7556 61.1303 83.953 61.3726C85.4407 61.5364 84.5905 62.4478 84.5414 63.0205C84.3187 65.6196 83.8998 68.2139 84.5034 70.9969C86.3844 69.194 88.5228 68.0199 90.6953 66.9187C91.5464 66.4873 91.8479 65.9702 92.0356 65.1559C93.3698 59.3638 96.5392 54.5333 101.613 50.7443C104.431 48.6408 107.605 47.2623 111 46.3398V49.0437C110.919 49.0586 110.837 49.073 110.757 49.0935C107.211 50.018 104.116 51.6604 101.355 53.8455C100.837 54.2556 100.922 54.5683 101.266 55.0581C104.127 59.1353 107.318 62.9617 111 66.4321V68.9202C106.731 65.0784 102.535 61.1672 98.4907 57.037C98.0448 57.6265 97.7287 58.0118 97.452 58.419C97.1463 58.8687 96.8691 59.3345 96.5935 59.8004C93.4789 65.0633 93.9279 70.4934 95.4806 76.0434C97.5636 83.4884 102.13 89.706 107.129 95.7365C108.318 97.17 109.61 98.3321 111 99.2398V107.521C103.989 107.124 97.3395 105.546 91.0495 102.692C90.2343 102.322 89.6643 102.263 88.9439 102.896C87.5325 104.135 85.9679 105.233 84.5414 106.459C81.0135 109.492 77.8005 112.761 75.8184 116.836C73.0907 122.444 70.0724 127.934 67.8651 133.749C64.8651 141.652 63.4207 149.691 64.5636 158.032C65.1873 162.584 67.0173 166.579 70.8038 169.819C75.0643 173.465 80.1505 175.686 85.7042 177.104C94.0172 179.228 102.445 180.484 111 180.728V184.182C106.562 184.103 102.137 183.771 97.7306 183.185C89.3099 182.066 81.0019 180.5 73.629 176.349C73.0199 176.006 72.5723 176.067 72.0531 176.447C69.9839 177.961 67.8915 179.444 65.8771 181.022C61.4058 184.525 57.9944 188.838 54.3531 192.972C47.0274 201.287 39.2877 209.324 32.6873 218.135C29.0309 223.016 27.1568 228.449 27.6887 234.433C27.9745 237.649 28.6638 238.489 32.1917 238.872C36.4076 239.329 40.4705 238.476 44.4254 237.227C50.8841 235.188 56.6084 231.923 62.2296 228.495C63.1575 227.929 64.1152 227.383 64.8577 226.618C70.4094 220.894 76.6598 215.772 82.3567 210.174C86.418 206.183 90.8935 202.495 93.6228 197.539C93.9968 196.859 94.5871 196.269 95.3186 195.838C95.8438 195.528 96.3862 195.402 96.9399 195.789C97.4534 196.148 97.4294 196.634 97.2329 197.099C96.9493 197.769 96.6547 198.447 96.2595 199.067C94.4278 201.942 92.5501 204.79 90.2332 207.383C84.935 213.313 79.2008 218.879 72.7032 223.753C69.1791 226.397 66.3178 229.505 63.4946 232.714C61.1098 235.425 59.7004 238.232 59.9084 241.78C60.1557 245.993 60.0826 250.209 61.9757 254.2C62.4079 255.112 63.001 255.543 64.0595 255.688C67.2689 256.125 70.4367 256.04 73.5887 255.316C80.3269 253.767 86.2353 250.678 91.8292 247.126C99.0899 242.515 105.275 236.917 111 230.875V235.588C103.809 242.95 95.7405 249.385 86.1633 254.219ZM7.10044 213.432C4.09445 209.637 3.34647 205.564 3.21473 201.025C1.51647 206.69 3.22355 212.39 7.10044 213.432ZM23.8049 182.273C32.1013 181.943 40.4617 182.245 48.5528 180.163C40.3223 181.218 31.8941 180.132 23.8049 182.273ZM65.2003 2.86165C65.1997 2.86214 65.1994 2.86238 65.1989 2.86288C65.1912 2.86684 65.1837 2.87056 65.176 2.87452C62.3817 4.04931 60.8744 7.312 61.9537 9.85732C62.1416 10.3009 62.3144 10.7635 62.9351 10.872L62.972 10.9439L62.9566 10.8928C61.5177 7.95204 62.2183 5.44388 65.1989 2.86288C65.216 2.85421 65.2333 2.84529 65.2504 2.83637C65.2336 2.84504 65.2171 2.85347 65.2003 2.86165ZM70.7947 3.71528C69.9607 2.96794 69.0623 2.05533 67.6336 2.55364C65.3077 3.36466 63.3251 5.95012 63.2881 8.16266C63.252 10.3254 65.0776 12.1838 67.0239 11.9653C69.5947 11.6766 72.0393 9.22247 72.0779 6.68433C71.9558 5.73281 71.7353 4.55803 70.7947 3.71528ZM88.9149 32.9513C89.6927 34.0902 90.2367 33.0507 90.816 32.769C91.5924 32.3911 91.2975 32.0186 90.7791 31.5716C89.6632 30.6092 88.5462 29.6346 87.5546 28.5711C82.7183 23.3841 78.0386 18.085 73.6439 12.586C73.4132 12.2973 73.2834 11.8649 72.6881 11.8721C72.2761 12.2656 71.8423 12.6794 71.3357 13.1631C75.5284 16.8528 79.0137 20.8586 82.4356 24.9102C84.6621 27.5462 86.9833 30.1228 88.9149 32.9513ZM81.2202 92.1849C81.1074 92.093 80.995 92.0008 80.8823 91.9086C80.7533 91.8115 80.624 91.7141 80.495 91.6169C80.4873 91.6093 80.4802 91.6016 80.4724 91.5939C80.5521 91.2351 80.2726 90.993 80.0827 90.7318C72.9584 80.9359 69.8822 70.1113 69.939 58.4896C69.9401 58.2497 69.9673 58.0069 69.9348 57.7707C69.9031 57.5403 70.0842 57.2598 69.6829 57.0113C67.275 70.1101 70.5015 81.6988 80.4724 91.5939C80.4691 91.6088 80.4691 91.6227 80.4647 91.6378C80.5954 91.7364 80.726 91.8348 80.8564 91.9331C80.9694 92.0241 81.0824 92.1148 81.1954 92.2057L81.2703 92.255L81.2202 92.1849ZM102.612 58.698C102.62 58.7178 102.631 58.7361 102.639 58.7559C102.653 58.7661 102.666 58.776 102.68 58.7862C102.72 58.9187 102.818 58.9856 102.964 58.998C102.979 59.0089 102.993 59.0198 103.008 59.0308L103.056 59.0828L103.04 59.004C103.012 59.005 102.989 59 102.964 58.998C102.869 58.9274 102.774 58.8568 102.68 58.7862C102.674 58.7686 102.666 58.7552 102.662 58.7354C102.645 58.723 102.629 58.7101 102.612 58.698C102.049 57.3998 101.049 56.3804 99.9442 55.4288C100.406 56.7949 101.38 57.8297 102.612 58.698ZM91.2948 68.4087C90.3175 69.1248 89.2556 69.7421 88.3472 70.7075C91.7638 69.868 92.1067 69.6085 91.2948 68.4087ZM91.5602 70.619C89.8787 71.2796 88.3996 71.861 86.7644 72.5035C88.5327 74.3889 90.8615 75.5228 92.6237 77.2086C92.6254 77.218 92.6267 77.2274 92.6284 77.2368L92.6532 77.2358C92.6554 77.238 92.6579 77.24 92.6601 77.2423L92.7191 77.2336L92.6532 77.2358C92.6436 77.2266 92.6334 77.2177 92.6237 77.2086C92.2784 75.0681 91.9328 72.927 91.5602 70.619ZM106.23 98.5304C101.546 93.3396 97.2147 87.9491 94.4661 81.6691C94.1781 81.0109 93.7289 80.4695 93.0978 80.1196C90.985 78.9481 89.3457 77.2906 87.5052 75.8395C86.7068 75.2099 85.9627 74.499 84.8184 74.0009C86.0481 80.0289 88.6421 85.2789 92.7477 89.8933C96.604 94.2272 101.302 97.6011 107.082 99.6714C107.083 99.6811 107.086 99.6895 107.087 99.6995L107.112 99.6826C107.102 99.6791 107.092 99.6749 107.082 99.6714C107.032 99.1531 106.551 98.8859 106.23 98.5304ZM42.4827 136.478C42.4827 136.73 42.4827 136.927 42.4827 137.116C42.4736 137.139 42.4653 137.163 42.4596 137.187C42.4576 137.205 42.4557 137.223 42.4538 137.241C41.6788 138.013 41.6504 139.04 41.3569 139.966C39.5142 145.784 39.9147 151.498 42.5172 157.069C43.398 158.954 44.5745 160.681 46.5379 161.849C46.5454 161.866 46.5533 161.883 46.5608 161.901L46.6112 161.951L46.5872 161.879C46.5704 161.869 46.5544 161.858 46.5376 161.849C45.5675 159.599 44.4858 157.383 43.6559 155.093C41.5382 149.248 41.786 143.25 42.4535 137.241C42.4634 137.231 42.4722 137.22 42.4824 137.211C42.4824 137.179 42.4824 137.147 42.4824 137.116C42.5538 136.933 42.6999 136.75 42.4827 136.478ZM66.7899 104C66.7847 104.002 66.7792 104.005 66.774 104.007C66.7723 104.008 66.7706 104.008 66.7687 104.009C66.5488 104.072 66.2451 103.998 66.1583 104.276C66.1442 104.282 66.1304 104.288 66.1164 104.294C66.0902 104.311 66.0651 104.329 66.0389 104.346C63.6522 104.865 61.7734 106.186 60.1805 107.737C52.9897 114.737 47.5273 122.653 44.8361 131.965C43.5628 136.371 42.8589 142.865 43.3219 146.103C43.6174 144.166 43.7797 142.552 44.1192 140.968C45.7547 133.34 49.1437 126.283 52.861 119.326C56.0103 113.433 60.0741 108.219 66.0392 104.347C66.0739 104.339 66.1078 104.33 66.1428 104.323C66.1461 104.305 66.1533 104.292 66.1583 104.276C66.3636 104.187 66.5689 104.097 66.774 104.008C66.7999 103.999 66.8258 103.99 66.8517 103.981C66.831 103.987 66.8103 103.994 66.7899 104ZM79.8678 108.481C80.4088 107.933 81.0399 107.426 81.4249 106.613C78.1263 105.617 75.0657 104.365 71.7916 103.638C70.682 103.392 69.7667 103.558 68.7751 104.096C64.3114 106.521 60.5398 109.641 57.7971 113.589C51.1159 123.208 46.1722 133.44 44.6095 144.842C43.7312 151.25 44.7702 157.233 48.5809 162.765C49.0357 163.425 49.4838 164.031 50.3084 164.395C54.3813 166.19 58.7415 166.979 63.5216 167.566C62.1739 165.42 61.1192 163.494 60.3133 161.462C57.4611 154.273 58.1383 147.085 60.5269 139.971C64.4644 128.245 70.79 117.673 79.8678 108.481ZM70.0117 125.383C70.0142 125.356 70.0172 125.329 70.0208 125.302C70.1261 125.131 70.2311 124.96 70.3364 124.789C70.3344 124.786 70.3322 124.783 70.3303 124.78C70.3441 124.735 70.3579 124.69 70.3717 124.644C70.3402 124.66 70.281 124.679 70.2829 124.69C70.2879 124.721 70.3113 124.751 70.3303 124.78C70.3273 124.79 70.3242 124.8 70.3212 124.81C70.1162 124.928 70.0478 125.106 70.0208 125.302C70.0095 125.32 69.9982 125.339 69.9869 125.357C69.9467 125.399 69.9064 125.442 69.8662 125.484C69.9147 125.451 69.9632 125.417 70.0117 125.383ZM64.5333 140.017C65.4698 136.217 67.0151 132.57 68.3804 128.88C68.3986 128.869 68.4176 128.858 68.4339 128.847C68.4292 128.829 68.427 128.811 68.4232 128.794C68.6362 128.551 68.6122 128.257 68.6436 127.975C68.6571 127.958 68.6695 127.942 68.6841 127.926C68.6861 127.914 68.6888 127.901 68.691 127.889C68.941 127.825 68.927 127.598 69.0168 127.435C69.0342 127.427 69.0504 127.419 69.0694 127.412C69.0733 127.323 69.0772 127.233 69.081 127.144C69.0694 127.225 69.0581 127.305 69.0466 127.386C69.0347 127.401 69.0259 127.418 69.0168 127.435C68.8095 127.526 68.7263 127.693 68.691 127.889C68.6778 127.892 68.6676 127.898 68.6527 127.9C68.6489 127.925 68.6464 127.95 68.6436 127.975C68.4383 128.219 68.3589 128.49 68.4232 128.794C68.416 128.802 68.411 128.81 68.4033 128.818C68.3959 128.839 68.3879 128.859 68.3804 128.88C68.2688 128.947 68.1349 129.007 68.0913 129.1C64.8376 136.076 62.2709 143.206 62.2582 150.88C62.2549 152.877 62.3216 154.88 63.0737 156.8C63.141 156.322 63.1875 155.846 63.1338 155.379C62.5355 150.179 63.2884 145.069 64.5333 140.017ZM66.1095 179.491C66.1122 179.491 66.1153 179.49 66.118 179.49C66.1461 179.465 66.1745 179.44 66.2026 179.416C66.2996 179.345 66.3969 179.275 66.4939 179.204C66.5074 179.177 66.524 179.152 66.5378 179.126C68.134 177.728 70.0721 176.699 71.7651 175.259C71.0684 175.216 70.7487 173.932 70.0765 174.705C68.8366 176.13 67.4073 177.455 66.5378 179.126C66.5149 179.146 66.4906 179.165 66.4678 179.185C66.3793 179.262 66.2911 179.339 66.2026 179.416C66.1718 179.438 66.1409 179.461 66.11 179.483C66.1103 179.487 66.1095 179.488 66.1095 179.491C66.0731 179.499 66.0367 179.506 66.0003 179.514C66.0723 179.621 66.1084 179.612 66.1095 179.491ZM26.2804 236.566C26.2801 236.576 26.2812 236.586 26.2809 236.596L26.3024 236.593C26.3055 236.597 26.3082 236.6 26.3115 236.604L26.3812 236.582L26.3027 236.593C26.2947 236.584 26.2881 236.575 26.2804 236.566C26.3112 234.726 25.0796 233.139 25.1526 231.29C24.218 233.361 24.4752 234.408 26.2804 236.566ZM27.3877 225.94C27.3817 226.008 27.3753 226.075 27.3693 226.143C27.3583 226.151 27.3475 226.16 27.3365 226.168C27.3329 226.191 27.3285 226.214 27.3249 226.237C25.4908 228.284 26.1395 230.566 26.594 232.83C26.3589 230.589 26.9691 228.425 27.3249 226.237C27.3392 226.222 27.3505 226.205 27.3651 226.189C27.3665 226.174 27.3679 226.158 27.3693 226.143C27.4266 226.099 27.4842 226.056 27.5415 226.012C27.49 225.988 27.439 225.964 27.3877 225.94ZM21.8021 234.496C19.6805 237.216 18.415 240.049 18.1917 243.168C17.9793 246.14 20.3792 248.175 23.6939 247.986C26.3914 247.832 28.701 246.669 30.876 245.373C32.5961 244.349 33.9832 242.95 35.4099 241.173C29.1982 241.334 24.1858 240.119 21.8021 234.496ZM35.4033 242.902C36.269 242.318 37.1344 241.734 38.2379 240.99C36.2199 240.655 36.0138 242.001 35.4033 242.902ZM48.9026 263.119C49.2248 258.936 51.2113 255.175 52.616 251.256C50.379 254.96 47.1431 258.434 48.9026 263.119ZM56.9402 243.378C56.5026 244.297 56.1203 245.202 55.9808 246.136C55.541 249.083 55.6154 251.918 58.7341 253.855L58.7873 253.879L58.7189 253.836C57.0849 250.505 56.459 247.032 56.9402 243.378ZM59.021 240.262C56.8523 245.49 58.0335 253.495 61.5378 255.017C58.9157 250.281 59.0081 245.372 59.021 240.262ZM53.1471 252.513C51.8044 255.805 50.4176 258.805 50.1221 262.07C49.8487 265.092 50.8858 265.966 54.2903 265.823C54.5557 265.812 54.8255 265.798 55.0838 265.746C60.009 264.753 63.892 262.097 68.1886 259.246C61.8983 258.906 56.335 258.018 53.1471 252.513Z" fill="#006766"/>
<path d="M81.4139 146.37C80.4678 144.409 80.6662 143.962 82.9925 143.019C83.2285 143.498 83.4666 143.976 83.6995 144.456C84.7886 146.702 85.9492 148.914 87.4639 150.961C87.7944 151.407 88.0385 151.829 88.8306 151.468C92.6334 149.736 96.0354 147.551 98.879 144.669C99.5 144.04 99.2911 143.618 98.8722 143.046C96.7335 140.124 95.7408 136.87 95.5035 133.407C95.4051 131.971 95.3365 130.533 95.216 129.099C94.9379 125.785 93.3105 123.055 90.6824 120.771C90.0501 120.222 89.3 119.916 88.4158 119.803C84.8504 119.35 80.4179 122.484 80.0792 125.91C79.8248 128.485 79.7303 131.086 80.1927 133.667C80.5791 135.823 80.4115 136.067 77.9931 137.023C77.631 136.748 77.6473 136.343 77.5502 135.976C76.6997 132.76 76.6675 129.487 76.999 126.235C77.3477 122.815 78.1701 119.492 80.9434 116.854C83.5476 114.376 86.8499 113.885 90.0667 115.668C93.7639 117.718 95.8725 120.876 96.9347 124.535C97.77 127.413 97.6355 130.438 97.9092 133.399C98.2656 137.251 99.724 140.685 102.485 143.644C103.781 145.032 105.365 146.096 107.296 146.78C107.481 146.206 107.263 145.852 107.193 145.48C106.401 141.227 105.312 137.016 105.417 132.65C105.497 129.355 106.697 126.562 109.307 124.251C109.853 123.767 110.418 123.305 111 122.865V126.532C110.253 127.833 109.825 129.307 109.689 130.943C109.325 135.318 109.942 139.581 111 143.799V150.614C110.483 150.649 110.374 151.057 110.2 151.457C108.927 154.397 107.181 157.066 104.652 159.285C104.05 159.813 103.417 160.312 102.654 160.942C105.45 161.896 108.119 162.333 110.822 162.545C110.881 162.55 110.94 162.554 111 162.558V165.276C97.4192 164.122 87.1723 158.305 81.4139 146.37ZM80.9696 122.277C83.7276 119.66 84.0812 119.49 87.8949 118.866C85.3826 117.218 82.0299 118.791 80.9696 122.277ZM93.3375 122.151C93.3304 122.147 93.3265 122.142 93.3196 122.138C93.3262 121.912 93.3298 121.686 93.0487 121.567C92.1387 118.905 90.0614 117.298 87.1685 116.592C85.7447 116.244 84.3573 116.526 83.514 117.818C83.4947 117.825 83.476 117.83 83.4569 117.838L83.3696 117.871L83.4831 117.863C83.493 117.847 83.5041 117.833 83.514 117.818C86.1983 116.813 88.4503 117.531 90.4374 119.266C91.311 120.029 92.1635 120.811 93.0264 121.584C93.0162 121.817 93.0944 122.01 93.3196 122.138C93.3193 122.143 93.3196 122.148 93.3196 122.152L93.3778 122.184L93.3375 122.151ZM110.363 146.862C110.449 147.206 110.343 147.653 110.89 147.816C111.056 147.414 110.863 147.066 110.759 146.699C109.654 142.807 108.87 138.874 108.709 134.845C108.604 132.195 108.99 129.61 109.681 127.048C109.682 127.047 109.682 127.047 109.683 127.046L109.749 126.996L109.694 127.031C109.69 127.036 109.687 127.041 109.683 127.046L109.682 127.047C109.682 127.048 109.682 127.048 109.681 127.048C107.468 129.729 107.121 132.816 107.71 135.935C108.403 139.607 109.457 143.223 110.363 146.862ZM98.9791 159.699C99.5234 159.935 99.9735 159.904 100.456 159.57C103.897 157.192 106.544 154.23 108.549 150.782C108.896 150.186 108.667 149.917 108.041 149.718C106.435 149.208 104.959 148.448 103.344 147.624C101.262 151.558 98.176 154.634 93.9615 156.938C95.6336 158.045 97.2494 158.949 98.9791 159.699ZM93.5065 154.279C96.5692 152.549 98.8553 150.107 101.005 147.526C101.832 146.534 101.69 145.951 100.398 145.251C97.9511 149.161 94.0376 151.506 89.8784 153.592C91.4293 155.283 91.5853 155.365 93.5065 154.279Z" fill="#006766"/>
<path d="M102.468 84.2514C99.9368 82.3043 98.5483 79.7143 99.2029 76.6885C100.272 71.7436 106.062 69.0731 111 70.5002V72.8889C110.996 72.8862 110.994 72.8832 110.99 72.8802C110.472 72.4585 109.85 72.1708 109.109 72.2179C105.531 72.4456 102.665 73.4405 102.918 77.5281C102.947 78.969 103.095 80.3807 103.894 81.6816C105.027 83.5232 106.418 84.0881 108.663 83.539C109.53 83.3269 110.32 83.0315 111 82.6361V84.9864C110.955 85.0064 110.912 85.028 110.866 85.0476C107.896 86.3197 104.981 86.1849 102.468 84.2514ZM102.037 79.8033C102.035 79.7934 102.033 79.7835 102.031 79.7736C102.021 79.7614 102.012 79.749 102.002 79.7366C102.002 78.6372 102.002 77.5375 102.002 76.438C101.266 77.565 101.12 78.6714 102.002 79.7366C102.002 79.7557 102.002 79.7748 102.002 79.7939C102.016 79.7963 102.025 79.8003 102.037 79.8033C102.067 79.9554 102.096 80.1073 102.126 80.2595C102.166 80.2369 102.237 80.2178 102.24 80.1913C102.263 80.0216 102.26 79.8576 102.037 79.8033Z" fill="#006766"/>
<path d="M81.0704 138.156C82.2495 140.339 82.2307 140.391 79.7867 141.946C78.2441 140.156 78.3968 139.678 81.0704 138.156Z" fill="#006766"/>
<path d="M108.605 73.6878C109.704 73.7041 110.215 74.3697 110.23 75.2732C110.245 76.1618 109.71 76.6878 108.385 76.6437C107.616 76.5595 106.968 76.0971 107.011 75.1094C107.049 74.2225 107.597 73.6729 108.605 73.6878Z" fill="#006766"/>
</g>
</svg>
