<svg width="205" height="148" viewBox="0 0 205 148" fill="none" xmlns="http://www.w3.org/2000/svg">
<g opacity="0.3">
<path d="M78.7337 100.262C78.7784 100.288 78.8235 100.306 78.8684 100.346C78.9128 100.311 78.9575 100.289 79.0016 100.262C78.9574 100.262 78.9125 100.263 78.8683 100.264C78.8232 100.263 78.7787 100.262 78.7337 100.262Z" fill="#006766"/>
<path d="M76.9451 100.307C76.6229 100.306 76.3001 100.306 75.9777 100.306C75.6551 100.317 75.3326 100.326 75.01 100.336C74.6898 100.34 74.3691 100.343 74.0489 100.347C73.728 100.363 73.4067 100.377 73.0861 100.391C72.7665 100.4 72.4478 100.408 72.1288 100.416L71.9323 100.451L72.1283 100.481C72.4473 100.474 72.7659 100.467 73.0849 100.46C73.4065 100.449 73.7279 100.439 74.0495 100.428C74.37 100.425 74.6901 100.421 75.0107 100.418C75.3333 100.41 75.6561 100.402 75.9788 100.394C76.3012 100.394 76.6236 100.393 76.9456 100.392C77.2691 100.372 77.5932 100.353 77.9168 100.332C77.9701 100.298 78.0233 100.275 78.0766 100.25C78.0237 100.25 77.9703 100.248 77.9173 100.248C77.5918 100.268 77.2686 100.287 76.9451 100.307Z" fill="#006766"/>
<path d="M16.1073 55.747C21.4641 59.4782 26.8611 63.1577 32.5883 66.3207C33.308 66.7182 34.2692 66.921 34.4386 68.2547C29.066 69.1455 23.7299 69.9924 18.4094 70.9287C15.8536 71.3782 13.2543 71.8035 10.9463 73.086C8.01363 74.7154 7.87095 77.7293 10.6203 79.5712C11.4495 80.1267 12.4367 80.4542 13.3641 80.8562C18.9129 83.2614 24.4655 85.658 30.0174 88.0569C29.9564 88.3369 29.8957 88.6177 29.8346 88.8977C28.6667 89.2789 27.4938 89.6464 26.3312 90.0447C22.2685 91.4354 18.1261 92.6322 14.3159 94.6636C13.0123 95.3588 11.7863 96.34 12.1237 98.1236C12.4309 99.7458 13.8057 100.109 15.1447 100.41C16.0227 100.608 16.9222 100.733 17.8188 100.824C24.7805 101.525 31.7569 102.103 38.705 102.918C63.5779 105.833 88.4782 106.066 113.428 103.572C120.922 102.823 128.434 102.255 136.01 100.943C135.907 103.147 135.724 104.938 135.765 106.723C135.81 108.708 136.353 110.606 138.25 111.607C140.292 112.685 141.89 111.529 143.447 110.264C151.174 103.987 158.711 97.474 166.7 91.5206C168.551 90.1409 170.382 89.2211 172.827 89.1652C178.468 89.0371 184.111 88.6582 189.71 87.8196C191.761 87.5125 193.96 87.3297 194.399 84.7582C194.838 82.1893 193.116 80.8023 191.091 79.8351C188.453 78.5741 185.763 77.4149 183.07 76.2721C179.061 74.5706 179.03 74.5791 181.372 71.0601C184.14 66.8993 186.401 62.4677 188.429 57.9176C189.6 55.2915 188.7 53.2328 186.23 52.6426C184.858 52.315 183.538 52.6889 182.24 53.1097C178.246 54.4056 174.466 56.222 170.773 58.1817C168.724 59.2689 167.891 58.7632 167.071 56.7324C165.204 52.1045 164.081 47.2864 162.962 42.4502C161.89 37.8199 158.301 36.7235 154.669 39.8485C152.565 41.6591 151.194 44.0323 149.875 46.3903C148.931 48.0777 147.88 48.7865 145.865 48.6828C111.52 46.911 77.4922 42.9877 44.0906 34.6375C40.9242 33.8462 37.7098 33.1962 34.4835 32.6988C32.1896 32.3448 29.8125 32.5258 28.6075 34.9846C27.309 37.6345 29.2437 39.1387 30.9153 40.6999C33.7489 43.3454 36.5447 46.0317 39.3559 48.7011C37.6491 49.1106 36.1361 48.9608 34.6343 48.7366C29.266 47.935 23.8781 47.4286 18.4376 47.7094C16.2188 47.8243 13.9885 48.1889 13.1678 50.6259C12.2749 53.2716 14.4009 54.5581 16.1073 55.747ZM34.6015 97.7402C30.2846 97.4063 25.9495 97.2846 21.6229 97.067C23.3993 95.4435 25.4024 95.7133 27.3719 95.7864C58.6833 96.9427 89.8089 94.9253 120.735 89.695C127.289 88.5868 133.717 86.8474 140.183 85.0717C139.572 90.3232 139.452 90.2302 134.539 91.2299C109.114 96.4014 83.3833 98.2795 57.5377 99.0557C49.8414 99.2867 42.2385 98.3307 34.6015 97.7402ZM135.567 96.7234C117.784 98.1774 100.021 99.9276 82.1748 100.373C81.7562 100.384 81.3359 100.293 80.9164 100.24C80.8931 100.264 80.8673 100.282 80.8448 100.309C80.8076 100.274 80.77 100.258 80.7331 100.232C80.4726 100.235 80.2125 100.239 79.9519 100.243C79.9132 100.272 79.8742 100.29 79.8351 100.327C79.7943 100.289 79.7543 100.273 79.7135 100.246C79.4774 100.25 79.2411 100.255 79.005 100.259C78.9609 100.286 78.9163 100.308 78.8719 100.343C78.827 100.304 78.7818 100.285 78.7371 100.259C78.5166 100.256 78.297 100.252 78.0765 100.249C78.0233 100.275 77.97 100.297 77.9167 100.332C77.5931 100.352 77.2691 100.371 76.9455 100.391C76.6231 100.392 76.3007 100.392 75.9787 100.393C75.656 100.402 75.3333 100.41 75.0106 100.418C74.69 100.421 74.3694 100.424 74.0494 100.427C73.7278 100.438 73.4064 100.449 73.0848 100.46C72.7658 100.466 72.4472 100.474 72.1282 100.48L71.9323 100.451L72.1288 100.416C72.4477 100.407 72.7671 100.399 73.086 100.391C73.4067 100.376 73.7281 100.361 74.0488 100.347C74.3689 100.343 74.689 100.339 75.0099 100.335C75.3325 100.325 75.655 100.316 75.9776 100.306C76.2998 100.306 76.6228 100.306 76.9451 100.306C77.2685 100.286 77.5925 100.267 77.9167 100.247C77.9694 100.248 78.0229 100.249 78.0759 100.249C78.2981 100.143 78.519 100.132 78.7371 100.259C78.7821 100.26 78.8266 100.26 78.8711 100.261C78.9153 100.26 78.9602 100.259 79.005 100.259C79.2393 100.114 79.4753 100.09 79.7135 100.246C79.7544 100.246 79.7943 100.244 79.8352 100.244C79.8741 100.243 79.913 100.243 79.9515 100.242C80.2098 100.052 80.4701 100.043 80.7327 100.231C80.7691 100.23 80.8048 100.23 80.8412 100.229C80.8663 100.232 80.8916 100.236 80.9165 100.239C81.5992 99.5273 82.5314 99.6538 83.3697 99.6216C101.116 98.946 118.664 96.5962 136.088 93.1653C136.62 93.0608 137.172 93.0622 138.035 92.9859C137.638 94.7243 138.181 96.5094 135.567 96.7234ZM151.097 97.49C154.632 93.3157 158.074 89.0283 163.662 87.3736C159.474 90.7458 155.286 94.1179 151.097 97.49ZM157.031 48.5715C158.305 49.9101 158.217 50.8941 157.291 51.9829C153.628 56.2904 150.166 60.7763 145.893 64.5271C148.514 58.4992 153.24 54.041 157.031 48.5715ZM146.001 67.0566C148.041 66.5992 149.4 65.4936 150.604 63.8997C153.115 60.5755 155.717 57.3189 158.574 53.6593C159.661 56.4879 160.535 58.9789 161.567 61.4008C163.588 66.1439 166.305 67.1032 170.975 64.9088C173.499 63.7226 176.065 62.6283 179.321 61.1766C177.789 65.0556 175.541 67.5741 173.841 70.3975C170.522 75.9087 171.119 77.7668 176.979 79.9303C178.85 80.6208 180.82 81.114 182.425 82.3937C182.442 82.3916 182.459 82.3894 182.477 82.3873L182.48 82.4336C182.462 82.4194 182.443 82.4081 182.425 82.3939C176.751 83.0833 171.087 83.8714 165.401 84.4214C162.069 84.7434 159.366 86.099 157.1 88.4568C152.286 93.4663 147.167 98.1722 142.723 103.546C142.485 103.429 142.247 103.311 142.008 103.194C143.303 97.4196 144.553 91.6351 145.907 85.8741C147.029 81.0984 146.406 79.5588 142.04 77.1165C138.873 75.3444 135.336 74.5305 131.962 73.2939C130.492 72.7552 129.064 72.1013 127.616 71.4994C127.563 71.4742 127.51 71.4498 127.456 71.4246C127.495 71.4423 127.534 71.46 127.573 71.4772C133.713 69.9908 139.839 68.4381 146.001 67.0566ZM40.65 40.4273C40.6221 40.4342 40.5952 40.438 40.5662 40.4464C40.5239 40.4517 40.4805 40.4248 40.4364 40.3894C40.3061 40.417 40.1762 40.4454 40.0459 40.473C40.1592 40.0865 40.2997 40.2805 40.4364 40.3894C40.4799 40.38 40.5234 40.3706 40.5675 40.3614C40.5949 40.3829 40.622 40.4056 40.65 40.4273C41.2141 40.2873 41.655 40.4856 42.0086 40.9246C42.0267 40.9182 42.0425 40.9169 42.0613 40.9101C42.0799 40.9265 42.0998 40.9381 42.1188 40.9533C43.1154 40.4305 44.0649 40.9529 44.9924 41.1647C77.419 48.558 110.323 52.4363 143.533 54.071C143.749 54.0813 143.96 54.1891 144.48 54.3404C143.408 55.4968 142.163 55.0793 141.105 55.0768C124.929 55.038 108.933 52.8531 92.895 51.1968C76.8383 49.5391 60.9427 47.0085 45.4834 42.2531C44.3354 41.8998 43.0901 41.7641 42.1188 40.9533C42.0981 40.9641 42.0775 40.9685 42.0559 40.9804C42.041 40.9605 42.0245 40.9434 42.0088 40.924C41.4178 41.13 41.0471 40.743 40.65 40.4273ZM31.1294 54.2768C35.0624 54.6159 38.9928 54.986 42.9231 55.3522C44.932 55.5395 46.8385 55.3497 47.9691 53.3979C49.1881 51.2926 48.2577 49.4827 46.9447 47.8163C46.1121 46.759 45.2131 45.7543 43.7667 44.0434C60.242 49.0401 76.4669 51.6228 92.8127 53.4484C109.265 55.2855 125.698 57.4761 142.612 57.104C141.421 61.5618 139.14 63.8738 134.714 64.2032C131.136 64.4699 127.593 65.4062 124.069 66.2022C122.66 66.5206 121.238 67.0864 120.006 67.842C117.039 69.6615 117.051 72.447 120.067 74.1858C124.564 76.7787 129.43 78.5884 134.279 80.4098C136.062 81.0791 137.854 81.7208 139.744 82.4121C130.146 88.7851 66.3987 95.4779 29.8574 93.5943C31.3386 93.1078 32.8345 92.6624 34.2965 92.1237C35.7231 91.5981 36.9897 90.8164 37.2222 89.1364C37.4703 87.349 36.5235 86.1071 35.1338 85.1899C31.1561 82.5644 26.608 81.1429 22.2991 79.2161C21.101 78.6806 19.7455 78.425 18.3584 77.0542C21.3213 76.5356 23.9321 76.1311 26.5204 75.614C31.0603 74.7072 35.587 73.7318 40.1194 72.784C41.8603 72.4199 43.3912 71.7757 43.8301 69.8009C44.2561 67.8818 43.2346 66.5025 41.9459 65.3686C39.1406 62.9003 35.7942 61.2316 32.6142 59.3194C29.9506 57.7172 27.306 56.0837 23.8796 53.9919C26.9645 53.5948 29.0451 54.0974 31.1294 54.2768Z" fill="#006766"/>
<path d="M42.1178 40.9576C42.099 40.9418 42.0791 40.9302 42.0603 40.9144C42.042 40.9221 42.0255 40.9231 42.0076 40.9289C42.0228 40.9482 42.0394 40.9647 42.0547 40.9853C42.0763 40.9734 42.0971 40.9685 42.1178 40.9576Z" fill="#006766"/>
<path d="M80.7312 100.229C80.7687 100.257 80.8057 100.272 80.8429 100.306C80.8654 100.28 80.8913 100.262 80.9145 100.238C80.8896 100.235 80.8643 100.23 80.8392 100.228C80.8034 100.228 80.7676 100.229 80.7312 100.229Z" fill="#006766"/>
<path d="M40.4367 40.3917C40.4808 40.4271 40.5244 40.4533 40.5665 40.4487C40.5955 40.4403 40.6225 40.4364 40.6503 40.4296C40.6225 40.4073 40.5953 40.3852 40.5671 40.3641C40.5238 40.3729 40.4802 40.3823 40.4367 40.3917Z" fill="#006766"/>
<path d="M79.7149 100.246C79.7557 100.273 79.7959 100.289 79.8365 100.327C79.875 100.29 79.9142 100.271 79.9534 100.243C79.9144 100.243 79.8755 100.244 79.837 100.245C79.7961 100.245 79.7558 100.246 79.7149 100.246Z" fill="#006766"/>
<path d="M182.478 82.3836C182.46 82.3856 182.443 82.3879 182.426 82.3899C182.444 82.4042 182.463 82.4156 182.48 82.4297L182.478 82.3836Z" fill="#006766"/>
</g>
</svg>
