<svg width="310" height="305" viewBox="0 0 310 305" fill="none" xmlns="http://www.w3.org/2000/svg">
<g opacity="0.05">
<path d="M127.248 301.471L182.044 297.595L294.241 97.2971L270.259 100.37L127.248 301.471Z" stroke="white" stroke-width="5.1477" stroke-miterlimit="10" stroke-linecap="round" stroke-linejoin="round"/>
<path d="M291.703 13.1502C269.716 -2.6378 224.398 28.7681 224.398 28.7681L196.84 28.3322C227.836 -2.61079 277.124 -2.0368 291.703 13.1502Z" stroke="white" stroke-width="5.1477" stroke-miterlimit="10" stroke-linecap="round" stroke-linejoin="round"/>
<path d="M3 179.553L127.248 301.471L270.259 100.37L196.84 28.3271L3 179.553Z" stroke="white" stroke-width="5.1477" stroke-miterlimit="10" stroke-linecap="round" stroke-linejoin="round"/>
<path d="M270.254 100.37L196.84 28.3331L224.398 28.769L278.937 82.2852C274.152 92.8882 270.254 100.37 270.254 100.37Z" stroke="white" stroke-width="5.1477" stroke-miterlimit="10" stroke-linecap="round" stroke-linejoin="round"/>
<path d="M294.236 97.2971L270.254 100.369C270.254 100.369 274.153 92.8881 278.937 82.2841C288.176 61.7351 300.719 29.4471 294.509 17.0511C293.808 15.6651 292.872 14.3641 291.711 13.1581C323.635 36.0881 294.236 97.2971 294.236 97.2971Z" stroke="white" stroke-width="5.1477" stroke-miterlimit="10" stroke-linecap="round" stroke-linejoin="round"/>
<path d="M184.674 76.877C179.757 81.888 174.571 84.7711 173.089 83.3171C171.608 81.8631 174.392 76.623 179.309 71.612C184.226 66.602 189.413 63.7181 190.894 65.1721C192.375 66.6261 189.591 71.866 184.674 76.877Z" stroke="white" stroke-width="3.6034" stroke-miterlimit="10" stroke-linecap="round" stroke-linejoin="round"/>
<path d="M216.041 104.355C211.124 109.366 205.938 112.249 204.456 110.795C202.975 109.341 205.759 104.101 210.676 99.0901C215.593 94.0791 220.779 91.1962 222.261 92.6502C223.743 94.1042 220.958 99.3441 216.041 104.355Z" stroke="white" stroke-width="3.6034" stroke-miterlimit="10" stroke-linecap="round" stroke-linejoin="round"/>
<path d="M209.252 145.914C204.335 150.925 199.149 153.808 197.667 152.354C196.186 150.9 198.97 145.66 203.887 140.649C208.804 135.638 213.991 132.755 215.472 134.209C216.953 135.663 214.169 140.904 209.252 145.914Z" stroke="white" stroke-width="3.6034" stroke-miterlimit="10" stroke-linecap="round" stroke-linejoin="round"/>
<path d="M170.186 122.321C165.269 127.332 160.083 130.215 158.601 128.761C157.12 127.307 159.904 122.067 164.821 117.056C169.738 112.045 174.924 109.162 176.406 110.616C177.887 112.07 175.102 117.31 170.186 122.321Z" stroke="white" stroke-width="3.6034" stroke-miterlimit="10" stroke-linecap="round" stroke-linejoin="round"/>
<path d="M130.653 116.29C125.736 121.301 120.55 124.184 119.068 122.73C117.587 121.276 120.371 116.036 125.287 111.025C130.204 106.014 135.391 103.131 136.872 104.585C138.355 106.039 135.57 111.279 130.653 116.29Z" stroke="white" stroke-width="3.6034" stroke-miterlimit="10" stroke-linecap="round" stroke-linejoin="round"/>
<path d="M160.667 163.548C155.75 168.559 150.564 171.442 149.082 169.988C147.6 168.534 150.385 163.294 155.302 158.283C160.219 153.273 165.405 150.389 166.887 151.843C168.368 153.297 165.583 158.537 160.667 163.548Z" stroke="white" stroke-width="3.6034" stroke-miterlimit="10" stroke-linecap="round" stroke-linejoin="round"/>
<path d="M180.102 197.616C175.185 202.626 169.999 205.51 168.517 204.056C167.035 202.602 169.82 197.362 174.736 192.351C179.653 187.34 184.839 184.457 186.321 185.911C187.804 187.365 185.019 192.605 180.102 197.616Z" stroke="white" stroke-width="3.6034" stroke-miterlimit="10" stroke-linecap="round" stroke-linejoin="round"/>
<path d="M120.837 157.269C115.92 162.279 110.734 165.163 109.252 163.709C107.77 162.255 110.555 157.015 115.471 152.004C120.388 146.993 125.575 144.11 127.056 145.564C128.538 147.018 125.753 152.258 120.837 157.269Z" stroke="white" stroke-width="3.6034" stroke-miterlimit="10" stroke-linecap="round" stroke-linejoin="round"/>
<path d="M82.4924 153.068C77.5754 158.079 72.3894 160.962 70.9074 159.508C69.4264 158.054 72.2104 152.814 77.1274 147.803C82.0444 142.793 87.2304 139.909 88.7124 141.363C90.1934 142.817 87.4094 148.057 82.4924 153.068Z" stroke="white" stroke-width="3.6034" stroke-miterlimit="10" stroke-linecap="round" stroke-linejoin="round"/>
<path d="M122.073 200.121C117.156 205.131 111.97 208.015 110.488 206.561C109.006 205.107 111.791 199.867 116.707 194.856C121.624 189.845 126.811 186.962 128.292 188.416C129.774 189.87 126.99 195.111 122.073 200.121Z" stroke="white" stroke-width="3.6034" stroke-miterlimit="10" stroke-linecap="round" stroke-linejoin="round"/>
<path d="M142.906 230.157C137.989 235.167 132.803 238.051 131.321 236.597C129.84 235.143 132.624 229.903 137.541 224.892C142.458 219.881 147.645 216.998 149.127 218.452C150.609 219.906 147.823 225.146 142.906 230.157Z" stroke="white" stroke-width="3.6034" stroke-miterlimit="10" stroke-linecap="round" stroke-linejoin="round"/>
<path d="M104.645 241.79C99.7281 246.801 94.5411 249.684 93.0601 248.23C91.5781 246.776 94.3631 241.536 99.2801 236.525C104.197 231.514 109.383 228.631 110.865 230.085C112.346 231.539 109.562 236.779 104.645 241.79Z" stroke="white" stroke-width="3.6034" stroke-miterlimit="10" stroke-linecap="round" stroke-linejoin="round"/>
<path d="M82.215 196.627C77.298 201.638 72.1111 204.521 70.6301 203.067C69.1491 201.613 71.9331 196.373 76.8501 191.362C81.7671 186.352 86.953 183.468 88.435 184.922C89.916 186.376 87.132 191.617 82.215 196.627Z" stroke="white" stroke-width="3.6034" stroke-miterlimit="10" stroke-linecap="round" stroke-linejoin="round"/>
<path d="M48.3619 193.216C43.4449 198.227 38.2589 201.11 36.7769 199.656C35.2949 198.202 38.0799 192.962 42.9969 187.951C47.9139 182.94 53.0999 180.057 54.5819 181.511C56.0639 182.965 53.2789 188.206 48.3619 193.216Z" stroke="white" stroke-width="3.6034" stroke-miterlimit="10" stroke-linecap="round" stroke-linejoin="round"/>
<path d="M267.14 122.756C265.879 124.74 264.355 126.031 263.738 125.638C263.12 125.246 263.642 123.319 264.903 121.335C266.164 119.351 267.688 118.06 268.305 118.453C268.922 118.845 268.401 120.771 267.14 122.756Z" stroke="white" stroke-width="2.5739" stroke-miterlimit="10" stroke-linecap="round" stroke-linejoin="round"/>
<path d="M250.003 164.246C248.742 166.23 247.219 167.521 246.602 167.128C245.984 166.735 246.506 164.809 247.767 162.825C249.028 160.841 250.551 159.55 251.168 159.943C251.785 160.334 251.263 162.261 250.003 164.246Z" stroke="white" stroke-width="2.5739" stroke-miterlimit="10" stroke-linecap="round" stroke-linejoin="round"/>
<path d="M248.61 147.887C247.349 149.871 245.827 151.162 245.209 150.769C244.591 150.377 245.113 148.45 246.374 146.466C247.635 144.482 249.158 143.191 249.775 143.584C250.392 143.976 249.871 145.903 248.61 147.887Z" stroke="white" stroke-width="2.5739" stroke-miterlimit="10" stroke-linecap="round" stroke-linejoin="round"/>
<path d="M262.054 142.079C260.793 144.063 259.27 145.354 258.652 144.961C258.034 144.569 258.556 142.642 259.817 140.658C261.078 138.674 262.601 137.383 263.218 137.776C263.835 138.168 263.315 140.095 262.054 142.079Z" stroke="white" stroke-width="2.5739" stroke-miterlimit="10" stroke-linecap="round" stroke-linejoin="round"/>
<path d="M224.424 197.166C223.163 199.15 221.642 200.441 221.024 200.048C220.406 199.656 220.928 197.729 222.189 195.745C223.45 193.761 224.972 192.47 225.589 192.863C226.206 193.255 225.685 195.181 224.424 197.166Z" stroke="white" stroke-width="2.5739" stroke-miterlimit="10" stroke-linecap="round" stroke-linejoin="round"/>
<path d="M224.138 180.719C222.877 182.703 221.353 183.994 220.736 183.601C220.118 183.209 220.64 181.282 221.901 179.297C223.162 177.313 224.685 176.022 225.302 176.415C225.919 176.808 225.399 178.735 224.138 180.719Z" stroke="white" stroke-width="2.5739" stroke-miterlimit="10" stroke-linecap="round" stroke-linejoin="round"/>
<path d="M238.35 182.974C237.089 184.958 235.566 186.249 234.949 185.856C234.331 185.464 234.853 183.537 236.114 181.553C237.375 179.569 238.898 178.278 239.515 178.671C240.133 179.063 239.611 180.99 238.35 182.974Z" stroke="white" stroke-width="2.5739" stroke-miterlimit="10" stroke-linecap="round" stroke-linejoin="round"/>
<path d="M238.084 166.505C236.823 168.489 235.301 169.78 234.683 169.387C234.066 168.995 234.587 167.068 235.848 165.084C237.109 163.1 238.631 161.809 239.249 162.202C239.867 162.595 239.345 164.521 238.084 166.505Z" stroke="white" stroke-width="2.5739" stroke-miterlimit="10" stroke-linecap="round" stroke-linejoin="round"/>
<path d="M224.424 197.166C223.163 199.15 221.642 200.441 221.024 200.048C220.406 199.656 220.928 197.729 222.189 195.745C223.45 193.761 224.972 192.47 225.589 192.863C226.206 193.255 225.685 195.181 224.424 197.166Z" stroke="white" stroke-width="2.5739" stroke-miterlimit="10" stroke-linecap="round" stroke-linejoin="round"/>
<path d="M215.95 217.408C214.689 219.392 213.166 220.683 212.549 220.29C211.932 219.897 212.453 217.971 213.714 215.987C214.975 214.003 216.496 212.712 217.114 213.105C217.731 213.497 217.211 215.424 215.95 217.408Z" stroke="white" stroke-width="2.5739" stroke-miterlimit="10" stroke-linecap="round" stroke-linejoin="round"/>
<path d="M211.049 203.942C209.788 205.926 208.266 207.217 207.648 206.824C207.031 206.432 207.552 204.505 208.813 202.521C210.074 200.537 211.597 199.246 212.214 199.639C212.832 200.031 212.31 201.958 211.049 203.942Z" stroke="white" stroke-width="2.5739" stroke-miterlimit="10" stroke-linecap="round" stroke-linejoin="round"/>
<path d="M190.174 241.433C188.913 243.417 187.391 244.708 186.774 244.315C186.156 243.923 186.678 241.996 187.939 240.012C189.2 238.028 190.722 236.737 191.339 237.13C191.956 237.522 191.435 239.449 190.174 241.433Z" stroke="white" stroke-width="2.5739" stroke-miterlimit="10" stroke-linecap="round" stroke-linejoin="round"/>
<path d="M205.097 233.716C203.836 235.7 202.313 236.991 201.695 236.598C201.077 236.206 201.599 234.279 202.86 232.295C204.121 230.311 205.643 229.02 206.261 229.413C206.879 229.806 206.358 231.732 205.097 233.716Z" stroke="white" stroke-width="2.5739" stroke-miterlimit="10" stroke-linecap="round" stroke-linejoin="round"/>
<path d="M197.204 222.666C195.943 224.65 194.42 225.941 193.803 225.548C193.185 225.156 193.707 223.229 194.968 221.245C196.229 219.261 197.752 217.97 198.369 218.363C198.986 218.755 198.465 220.682 197.204 222.666Z" stroke="white" stroke-width="2.5739" stroke-miterlimit="10" stroke-linecap="round" stroke-linejoin="round"/>
<path d="M181.727 262.017C180.466 264.001 178.943 265.292 178.326 264.899C177.709 264.507 178.23 262.58 179.491 260.596C180.752 258.612 182.274 257.321 182.892 257.714C183.51 258.107 182.988 260.032 181.727 262.017Z" stroke="white" stroke-width="2.5739" stroke-miterlimit="10" stroke-linecap="round" stroke-linejoin="round"/>
<path d="M196.905 255.356C195.644 257.34 194.121 258.631 193.504 258.238C192.886 257.846 193.408 255.919 194.669 253.935C195.93 251.951 197.453 250.66 198.07 251.053C198.687 251.445 198.165 253.371 196.905 255.356Z" stroke="white" stroke-width="2.5739" stroke-miterlimit="10" stroke-linecap="round" stroke-linejoin="round"/>
<path d="M174.054 250.741C172.793 252.725 171.27 254.016 170.652 253.623C170.034 253.23 170.556 251.304 171.817 249.32C173.078 247.336 174.601 246.045 175.218 246.438C175.835 246.83 175.315 248.757 174.054 250.741Z" stroke="white" stroke-width="2.5739" stroke-miterlimit="10" stroke-linecap="round" stroke-linejoin="round"/>
<path d="M165.54 271.024C164.279 273.008 162.757 274.299 162.139 273.906C161.521 273.514 162.043 271.587 163.304 269.603C164.565 267.619 166.088 266.328 166.705 266.721C167.322 267.113 166.801 269.04 165.54 271.024Z" stroke="white" stroke-width="2.5739" stroke-miterlimit="10" stroke-linecap="round" stroke-linejoin="round"/>
<path d="M186.957 275.095C185.696 277.079 184.174 278.37 183.556 277.977C182.939 277.585 183.46 275.658 184.721 273.674C185.982 271.69 187.505 270.399 188.122 270.792C188.739 271.185 188.218 273.111 186.957 275.095Z" stroke="white" stroke-width="2.5739" stroke-miterlimit="10" stroke-linecap="round" stroke-linejoin="round"/>
<path d="M152.669 286.384C151.408 288.368 149.886 289.659 149.268 289.266C148.65 288.873 149.172 286.947 150.433 284.963C151.694 282.979 153.217 281.688 153.834 282.081C154.451 282.473 153.93 284.4 152.669 286.384Z" stroke="white" stroke-width="2.5739" stroke-miterlimit="10" stroke-linecap="round" stroke-linejoin="round"/>
<path d="M172.504 282.466C171.243 284.45 169.72 285.741 169.103 285.348C168.486 284.956 169.007 283.029 170.268 281.045C171.529 279.061 173.051 277.77 173.669 278.163C174.286 278.555 173.764 280.481 172.504 282.466Z" stroke="white" stroke-width="2.5739" stroke-miterlimit="10" stroke-linecap="round" stroke-linejoin="round"/>
</g>
</svg>
