<svg width="181" height="150" viewBox="0 0 181 150" fill="none" xmlns="http://www.w3.org/2000/svg">
<g opacity="0.25">
<path d="M107.878 130.673L100.475 133.059L50.876 107.639L48.5506 100.422C48.3389 99.7647 47.6321 99.4035 46.9767 99.6153C46.3198 99.827 45.9583 100.532 46.1698 101.189L48.6539 108.899C48.7556 109.215 48.9788 109.477 49.2736 109.628L99.7947 135.522C99.9729 135.613 100.169 135.659 100.365 135.659C100.495 135.659 100.624 135.639 100.749 135.599L108.645 133.054C109.303 132.842 109.663 132.138 109.452 131.48C109.24 130.823 108.533 130.462 107.878 130.673Z" fill="#006766"/>
<path d="M64.5113 24.8333C65.0715 25.2326 65.8546 25.1015 66.2545 24.5379C81.2698 3.39891 110.023 -3.61041 133.136 8.23632C156.238 20.0772 167.342 47.5003 158.963 72.0252C158.74 72.6791 159.09 73.3899 159.742 73.6128C159.877 73.6587 160.013 73.6804 160.147 73.6804C160.667 73.6804 161.153 73.3536 161.331 72.8338C170.107 47.1417 158.477 18.4139 134.277 6.01012C110.065 -6.39834 79.9448 0.943004 64.2155 23.0898C63.8153 23.6528 63.948 24.4334 64.5113 24.8333Z" fill="#006766"/>
<path d="M168.978 129.349C168.277 129.286 167.681 129.793 167.618 130.481C167.084 136.331 165.561 141.901 163.087 147.06L148.318 139.49C147.702 139.175 146.949 139.418 146.634 140.033C146.319 140.647 146.562 141.401 147.176 141.716L163.073 149.864C163.252 149.955 163.448 150.002 163.644 150.002C163.774 150.002 163.903 149.982 164.028 149.942C164.343 149.84 164.606 149.617 164.757 149.322C167.706 143.567 169.507 137.305 170.11 130.709C170.172 130.021 169.665 129.412 168.978 129.349Z" fill="#006766"/>
<path d="M132.723 131.494L2.94859 64.9809C19.8218 34.089 68.3865 27.0465 112.028 49.415C129.346 58.2909 143.821 70.6656 153.887 85.2023C154.28 85.7702 155.061 85.9116 155.627 85.5182C156.196 85.1251 156.337 84.346 155.944 83.7784C149.12 73.9244 140.315 65.0541 130.014 57.5481C130.975 54.1514 131.026 50.6947 130.266 47.4554L137.872 45.0039C138.486 46.1153 139.415 47.0199 140.57 47.612C141.494 48.0854 142.496 48.3253 143.505 48.3253C144.17 48.3253 144.839 48.2212 145.491 48.011C147.13 47.4827 148.466 46.3472 149.251 44.8142C150.037 43.2812 150.179 41.5339 149.65 39.894C149.122 38.2543 147.987 36.9185 146.454 36.1329C143.291 34.511 139.396 35.7653 137.772 38.9305C137.181 40.0859 136.955 41.3625 137.105 42.6233L129.538 45.0628C127.841 40.4985 124.495 36.5626 119.839 34.1768C115.184 31.7909 110.035 31.3727 105.339 32.6599L102.895 25.0786C103.977 24.4797 104.903 23.5747 105.508 22.3945C106.294 20.8615 106.435 19.1143 105.907 17.4741C105.379 15.8347 104.244 14.4986 102.71 13.713C101.177 12.9274 99.4296 12.7858 97.7897 13.314C96.15 13.8423 94.8148 14.9779 94.029 16.5109C93.2434 18.0439 93.1017 19.7911 93.63 21.431C94.1585 23.0707 95.2935 24.4065 96.8265 25.1921C97.7652 25.6738 98.7684 25.9017 99.7576 25.9017C100.012 25.9017 100.265 25.8797 100.516 25.8499L102.971 33.4659C99.8944 34.7413 97.1157 36.8041 94.9187 39.5722C54.9249 26.4885 14.8316 36.2783 0.137725 64.9462C-0.0135602 65.2413 -0.0414612 65.5845 0.0602222 65.9001C0.161906 66.2157 0.38512 66.4783 0.67994 66.6293L131.582 133.72C131.766 133.814 131.96 133.858 132.152 133.858C132.607 133.858 133.044 133.61 133.266 133.177C133.581 132.563 133.338 131.809 132.723 131.494ZM139.998 40.0713C140.991 38.1341 143.373 37.3646 145.313 38.3582C146.251 38.8393 146.946 39.6571 147.271 40.6607C147.594 41.6645 147.507 42.7343 147.026 43.673C146.544 44.6114 145.727 45.3068 144.723 45.6298C143.717 45.9535 142.648 45.8663 141.711 45.3855C140.773 44.9044 140.077 44.0869 139.754 43.0831C139.43 42.0796 139.517 41.0097 139.998 40.0713ZM97.9667 22.9662C97.0286 22.4851 96.3336 21.6672 96.0093 20.6637C95.686 19.6599 95.7731 18.5901 96.2545 17.6514C96.7356 16.713 97.5531 16.0176 98.557 15.6946C98.9559 15.5659 99.3645 15.5021 99.7716 15.5021C100.389 15.5021 101.004 15.649 101.568 15.9389C102.507 16.4197 103.202 17.2375 103.526 18.2413C103.85 19.2451 103.763 20.315 103.282 21.2534C102.288 23.19 99.9052 23.9595 97.9667 22.9662ZM104.792 35.4472C104.833 35.4382 104.875 35.4407 104.917 35.4277C105.007 35.3985 105.09 35.3585 105.169 35.312C109.498 33.8916 114.345 34.1715 118.697 36.4017C123.051 38.6332 126.109 42.406 127.484 46.7502C127.492 46.8407 127.508 46.9309 127.537 47.0208C127.55 47.0608 127.576 47.0912 127.592 47.1287C128.415 49.9479 128.539 52.9904 127.846 56.003C123.223 52.7855 118.324 49.8308 113.17 47.1895C107.976 44.5274 102.713 42.2795 97.4394 40.4266C99.4796 38.1034 102.022 36.4265 104.792 35.4472Z" fill="#006766"/>
<path d="M54.3895 50.9599C52.393 49.9369 50.1191 49.7521 47.9825 50.4403C45.8478 51.1282 44.1077 52.607 43.0853 54.6028C42.0619 56.5993 41.8772 58.8745 42.5651 61.0098C43.2539 63.1445 44.7317 64.884 46.7279 65.907C47.9509 66.5339 49.2566 66.8303 50.5447 66.8303C53.5971 66.8303 56.5468 65.1621 58.0327 62.2638C60.1451 58.1431 58.5101 53.072 54.3895 50.9599ZM55.8072 61.1233V61.123C54.3244 64.0169 50.7599 65.1636 47.8697 63.6812C46.4675 62.9632 45.4296 61.7417 44.9459 60.2425C44.4633 58.7433 44.5925 57.1458 45.3114 55.7437C46.0294 54.3421 47.2509 53.3039 48.7498 52.8206C49.3456 52.629 49.9563 52.5335 50.5655 52.5335C51.4881 52.5335 52.4039 52.7524 53.2483 53.1852C56.1426 54.6689 57.2896 58.2293 55.8072 61.1233Z" fill="#006766"/>
<path d="M93.0394 73.5339C90.9046 74.2221 89.1645 75.7005 88.1421 77.6967C86.03 81.8176 87.665 86.8888 91.7847 89.0009C92.9882 89.6175 94.2924 89.9294 95.6065 89.9294C96.4727 89.9294 97.3438 89.7939 98.1923 89.5202C100.327 88.8323 102.067 87.3535 103.09 85.3573C105.202 81.2367 103.567 76.1655 99.447 74.0531C97.4508 73.0307 95.175 72.846 93.0394 73.5339ZM100.864 84.2168C100.146 85.6187 98.9243 86.6569 97.4245 87.1396C95.9256 87.6232 94.3265 87.493 92.9262 86.7747C90.0326 85.2916 88.8855 81.7308 90.368 78.8372C91.086 77.4357 92.3074 76.3974 93.8073 75.9141C94.4025 75.7219 95.0138 75.6267 95.6221 75.6267C96.5453 75.6267 97.4613 75.8462 98.3055 76.279C101.199 77.7627 102.346 81.3232 100.864 84.2168Z" fill="#006766"/>
<path d="M179.468 123.312C165.801 116.307 160.381 99.4883 167.385 85.8212C167.479 85.6383 167.523 85.4439 167.523 85.252C167.523 84.7978 167.274 84.3592 166.843 84.1378C166.226 83.8232 165.474 84.0653 165.159 84.6804C161.765 91.3009 155.998 96.2044 148.917 98.4867C141.837 100.768 134.29 100.157 127.669 96.7633C127.053 96.4483 126.3 96.6908 125.985 97.3055C125.892 97.4878 125.848 97.6828 125.848 97.8747C125.848 98.3292 126.096 98.7675 126.528 98.9889C140.195 105.994 145.615 122.812 138.611 136.48C138.517 136.663 138.473 136.857 138.473 137.049C138.473 137.504 138.721 137.942 139.153 138.163C139.336 138.257 139.531 138.301 139.723 138.301C140.178 138.301 140.615 138.053 140.837 137.621C144.231 131 149.998 126.097 157.08 123.815C164.161 121.532 171.707 122.144 178.327 125.538C178.944 125.853 179.695 125.61 180.01 124.995C180.104 124.813 180.148 124.618 180.148 124.426C180.148 123.972 179.9 123.533 179.468 123.312ZM156.312 121.434C151.424 123.009 147.111 125.729 143.665 129.347C145.535 119.302 142.179 108.89 134.796 101.828C139.705 102.752 144.796 102.442 149.683 100.867C154.571 99.2914 158.885 96.5708 162.33 92.9542C160.46 102.998 163.816 113.41 171.199 120.472C166.288 119.549 161.199 119.859 156.312 121.434Z" fill="#006766"/>
</g>
</svg>
