<svg width="185" height="120" viewBox="0 0 185 120" fill="none" xmlns="http://www.w3.org/2000/svg">
<g opacity="0.7">
<path d="M120.987 119.957C122.355 120.062 123.716 119.982 125.072 119.8C127.176 119.516 129.234 119.021 131.265 118.408C139.446 115.941 146.981 112.128 154.061 107.388C156.565 105.712 158.947 103.866 161.251 101.921C164.606 99.0876 167.7 96.0029 170.378 92.5169C172.656 89.5517 174.558 86.3686 175.838 82.8391C177.884 77.2003 178.062 71.5073 176.192 65.8002C174.04 59.2332 170.053 53.9783 164.804 49.6531C164.818 49.6229 164.837 49.591 164.863 49.5569C165.006 49.6078 165.142 49.6399 165.263 49.7014C166.369 50.2637 167.272 51.0876 168.148 51.9457C169.156 52.9327 170.136 53.9506 171.184 54.894C172.449 56.0334 173.969 56.6251 175.672 56.7298C176.095 56.7559 176.518 56.7841 176.941 56.7832C178.777 56.7792 180.612 56.7689 182.448 56.7502C182.775 56.7469 183.109 56.7256 183.428 56.6555C184.018 56.5257 184.28 55.9935 184.003 55.4697C183.829 55.1406 183.608 54.825 183.358 54.549C181.398 52.3865 179.391 50.2701 177.097 48.4502C174.424 46.3299 171.424 44.9462 168.036 44.4405C167.757 44.3989 167.475 44.3639 167.202 44.2974C167.082 44.2684 166.98 44.168 166.796 44.0539C166.956 43.8877 167.058 43.7383 167.198 43.6435C168.692 42.6286 169.948 41.3584 171.076 39.9647C172.29 38.4657 173.469 36.9379 174.639 35.4047C174.98 34.9587 175.286 34.473 175.527 33.9671C176.097 32.7718 175.889 31.7546 174.847 30.9546C174.219 30.4722 173.515 30.061 172.791 29.7377C172.024 29.3949 171.21 29.1092 170.387 28.9499C168.931 28.6682 168.032 29.209 167.51 30.5832C167.294 31.1529 167.176 31.7594 166.991 32.342C166.578 33.6415 166.205 34.9572 165.717 36.2283C165.085 37.8718 164.106 39.3167 162.845 40.5482C161.213 42.1409 159.233 43.0512 156.993 43.4165C156.956 43.4225 156.912 43.3837 156.794 43.3319C156.919 43.0412 157.071 42.7552 157.166 42.4513C157.403 41.6904 157.709 40.9346 157.818 40.1532C158.213 37.2977 157.263 34.8704 155.288 32.8219C154.035 31.5224 152.537 30.5479 150.983 29.6502C148.906 28.4497 146.834 27.239 144.759 26.0342C144.556 25.9162 144.355 25.7897 144.139 25.6989C143.329 25.357 142.778 25.5914 142.45 26.4069C142.398 26.5374 142.348 26.6727 142.325 26.8105C141.976 28.8779 141.895 30.9282 142.719 32.9213C142.841 33.217 142.934 33.525 143.096 33.9877C142.688 33.8467 142.422 33.782 142.18 33.6671C139.343 32.3201 136.353 31.8842 133.241 32.1203C130.895 32.2982 128.546 32.4429 126.2 32.6151C125.828 32.6424 125.441 32.6833 125.096 32.8112C124.324 33.0974 124.152 33.923 124.706 34.5221C124.77 34.5908 124.842 34.6523 124.915 34.7121C125.905 35.5288 126.97 36.2018 128.245 36.4893C129.209 36.7066 130.173 36.9291 131.129 37.1767C132.564 37.5481 133.874 38.186 134.959 39.2046C135.001 39.2447 135.043 39.286 135.085 39.3268C131.308 39.6789 127.76 40.7552 124.509 42.7702C121.497 44.6373 119.095 47.1257 117.14 50.0634C115.328 52.7866 113.994 55.7388 112.95 58.8291C112.013 61.6 111.324 64.4352 110.791 67.3077C109.664 73.3796 108.96 79.5038 108.627 85.6688C108.312 91.5101 108.422 97.3393 109.268 103.14C109.649 105.753 110.212 108.325 111.076 110.825C111.661 112.522 112.419 114.132 113.432 115.627C115.25 118.312 117.783 119.709 120.987 119.957ZM163.494 42.5294C165.145 41.2062 166.294 39.5135 167.152 37.6024C167.79 36.1815 168.199 34.6894 168.551 33.1779C168.701 32.5386 168.86 31.8988 169.069 31.2776C169.237 30.7801 169.566 30.603 170.057 30.7213C171.306 31.0225 172.424 31.6156 173.463 32.3557C173.775 32.5777 173.826 32.8803 173.662 33.2302C173.564 33.4419 173.453 33.6543 173.313 33.8396C171.499 36.2332 169.738 38.6722 167.572 40.7728C166.483 41.8287 165.25 42.6766 163.806 43.185C163.631 43.2468 163.446 43.2872 163.262 43.3145C163.176 43.3271 163.083 43.2843 162.783 43.2254C163.104 42.909 163.283 42.6988 163.494 42.5294ZM171.267 46.7642C171.886 46.9886 172.491 47.2541 173.078 47.5539C175.351 48.7144 177.33 50.3683 179.156 52.1337C179.619 52.5813 180.073 53.0377 180.523 53.4987C180.812 53.795 181.724 54.4576 181.782 54.8681C181.79 54.9264 181.786 54.9767 181.772 55.0201C181.639 55.4263 180.603 55.2214 180.291 55.198C179.635 55.1488 178.984 55.061 178.328 55.014C177.004 54.919 175.646 54.9845 174.38 54.5843C172.024 53.8396 170.464 51.6674 168.522 50.1392C166.178 48.2943 163.253 47.385 160.4 46.5126C160.039 46.4022 159.5 46.3938 159.442 46.7667C161.691 48.2039 163.557 50.2505 164.723 52.6511C165.89 55.0517 166.346 57.8018 165.955 60.4421C165.825 61.3251 165.586 62.2261 165.017 62.914C164.388 62.5118 164.085 61.7676 163.795 61.0792C162.928 59.0232 161.836 57.0482 160.407 55.3347C159.245 53.9406 157.868 52.7284 156.793 51.2653C155.719 49.8023 154.95 47.9825 155.261 46.1941C155.302 45.9596 155.38 45.7023 155.588 45.587C155.736 45.5047 155.917 45.5153 156.086 45.5269C161.176 45.8741 166.47 45.0275 171.267 46.7642ZM144.631 33.6398C143.918 31.4632 143.337 29.1611 143.699 26.8997C143.699 26.8988 143.699 26.8979 143.699 26.897C145.888 28.2528 148.076 29.6087 150.264 30.9646C151.563 31.769 152.871 32.5814 153.976 33.636C156.744 36.2778 157.314 40.571 154.789 43.6057C154.643 43.7821 154.47 43.9614 154.244 43.9997C153.907 44.0567 153.613 43.7864 153.382 43.5351C151.252 41.2145 149.39 38.6082 146.893 36.6887C146.396 36.3067 145.869 35.947 145.482 35.4539C145.067 34.9257 144.84 34.2781 144.631 33.6398ZM128.781 35.2338C128.535 35.1871 128.236 35.0937 128.192 34.8468C128.135 34.5236 128.555 34.3494 128.879 34.2988C131.945 33.8198 135.077 33.341 138.134 33.8731C141.447 34.4498 144.469 36.1931 147.031 38.3708C148.351 39.4929 149.565 40.7335 150.721 42.0223C151.634 43.0402 153.349 44.4755 153.81 45.7571C153.812 45.764 153.815 45.771 153.817 45.7779C151.751 46.7589 148.625 46.2699 146.525 45.6367C144.122 44.9124 141.921 43.5966 140.013 41.9662C138.066 40.3018 136.38 38.2886 134.157 37.0168C132.51 36.0751 130.645 35.5872 128.781 35.2338ZM114.93 111.725C113.949 109.621 113.426 107.371 113.014 105.097C112.373 101.567 112.098 98.0008 112.065 94.4185C111.976 84.8725 112.974 75.4306 114.89 66.085C115.496 63.1303 116.316 60.2304 117.435 57.4228C118.432 54.9202 119.659 52.5413 121.267 50.3701C124.246 46.3468 128.161 43.7368 133.065 42.6965C134.534 42.3847 136.047 42.2737 137.541 42.0731C137.835 42.4184 138.132 42.7608 138.446 43.0872C141.305 46.0595 144.678 47.9149 148.926 47.8272C149.302 47.8194 149.679 47.8527 150.055 47.8344C151.27 47.7751 152.485 47.7006 153.861 47.623C153.918 47.9913 153.963 48.3145 154.018 48.6362C154.285 50.2008 154.938 51.5982 155.902 52.8456C156.42 53.515 156.969 54.1647 157.55 54.7798C159.368 56.7051 161.018 58.7467 162.187 61.1446C162.475 61.7365 162.773 62.3267 163.112 62.8897C163.377 63.3282 163.664 63.7739 164.029 64.1259C164.574 64.652 165.244 64.6802 165.822 64.2113C166.179 63.9225 166.537 63.5582 166.719 63.1496C167.081 62.3394 167.455 61.4956 167.587 60.6296C167.787 59.323 167.847 58.0472 167.739 56.8103C169.421 58.886 170.874 61.1148 171.998 63.5582C173.974 67.8502 174.786 72.3284 174.044 77.0377C173.576 80.0007 172.548 82.7684 171.12 85.3947C169.811 87.8033 168.212 90.0106 166.442 92.0983C162.703 96.5081 158.327 100.213 153.64 103.559C149.417 106.575 144.928 109.153 140.24 111.376C136.706 113.051 133.082 114.503 129.313 115.572C127.454 116.1 125.577 116.54 123.647 116.722C122.424 116.837 121.203 116.859 119.992 116.603C118.554 116.298 117.337 115.606 116.495 114.395C115.907 113.55 115.364 112.657 114.93 111.725Z" fill="#006766"/>
<path d="M155.664 66.945C155.091 69.9719 154.097 72.8566 152.61 75.5539C151.634 77.3232 150.62 79.0764 149.529 80.7762C147.394 84.1029 145.041 87.2778 142.542 90.339C138.583 95.1878 134.261 99.7062 129.903 104.194C128.219 105.93 126.36 107.418 124.327 108.707C123.931 108.959 123.539 109.222 123.161 109.501C123.026 109.6 122.844 109.716 123.004 110.117C123.206 110.058 123.395 110.037 123.551 109.953C124.379 109.506 125.202 109.051 126.019 108.585C128.864 106.963 131.262 104.777 133.616 102.538C136.413 99.8783 138.969 96.9913 141.549 94.1261C147.06 88.0063 151.648 81.2617 155.261 73.8628C155.982 72.3868 156.627 70.8651 157.185 69.3204C158.253 66.3658 158.666 63.2987 158.465 60.1603C158.417 59.4123 158.31 58.6624 158.158 57.9282C157.998 57.152 157.68 56.7774 157.397 56.9085C156.916 57.1316 157.01 57.6212 156.984 58.0165C156.783 61.0287 156.225 63.987 155.664 66.945Z" fill="#006766"/>
<path d="M136.3 61.5271C133.943 64.9204 132.257 68.6438 131.083 72.587C129.822 76.8245 128.585 81.0731 127.497 85.3573C126.165 90.5999 124.997 95.8841 123.761 101.151C123.234 103.395 122.705 105.639 122.192 107.886C122.104 108.274 121.896 108.682 122.25 109.193C122.766 108.719 122.808 108.18 122.945 107.692C125.238 99.5409 127.557 91.3964 129.598 83.1765C130.347 80.1623 131.17 77.1691 132.222 74.2431C134.067 69.113 136.561 64.3406 140.014 60.0979C141.174 58.6728 142.416 57.3301 143.874 56.1947C145.519 54.9141 147.304 53.888 149.219 53.0712C149.732 52.8521 150.213 52.551 150.692 52.2607C150.777 52.2092 150.839 52.0076 150.808 51.9071C150.777 51.8064 150.612 51.6737 150.514 51.6799C150.143 51.7033 149.76 51.7302 149.408 51.8404C147.11 52.5608 144.909 53.5072 142.888 54.8295C140.209 56.5827 138.111 58.919 136.3 61.5271Z" fill="#006766"/>
<path d="M116.297 70.7666C116.415 70.6435 116.455 70.4668 116.49 70.2997C117.345 66.2256 118.405 62.1684 120.137 58.3828C121.868 54.5971 124.305 51.0739 127.572 48.4949C128.45 47.8019 129.382 47.1818 130.331 46.5907C130.546 46.4566 131.613 45.9891 131.59 45.716C131.589 45.7021 131.587 45.6889 131.584 45.6765C131.508 45.3199 130.829 45.5335 130.606 45.6105C129.133 46.1184 127.81 46.9922 126.606 47.981C123.319 50.6791 120.831 54.27 119.103 58.1553C117.375 62.0406 116.383 66.2209 115.794 70.4322C115.777 70.5566 115.764 70.6974 115.844 70.7942C115.953 70.9258 116.178 70.8897 116.297 70.7666Z" fill="#006766"/>
<path d="M133.277 98.061C133.281 98.0596 133.285 98.0582 133.289 98.0569C133.975 97.8008 134.502 97.2481 135.004 96.7131C136.491 95.126 137.978 93.5391 139.465 91.952C141.2 90.1002 142.937 88.2461 144.521 86.2639C145.115 85.5209 145.694 84.7495 146.058 83.8708C146.217 83.4873 146.739 82.0007 145.774 82.2166C145.546 82.2677 145.367 82.4386 145.203 82.6057C143.75 84.0906 142.576 85.8191 141.343 87.4917C139.083 90.5576 136.61 93.4588 134.149 96.3647C133.729 96.86 133.287 97.4119 133.277 98.061Z" fill="#006766"/>
<path d="M147.738 55.5034C144.528 57.479 141.863 60.2678 139.765 63.3994C137.668 66.531 136.12 70.0038 134.884 73.5649C134.652 74.2337 134.43 74.9104 134.328 75.6109C134.776 75.4947 135.04 75.0431 135.249 74.6298C136.894 71.377 138.207 67.9489 140.126 64.8499C142.199 61.5005 144.965 58.5821 148.199 56.3322C148.692 55.989 149.87 55.3335 149.91 54.6629C149.246 54.5114 148.279 55.1707 147.738 55.5034Z" fill="#006766"/>
<path d="M131.581 82.8153C131.447 82.9534 131.373 83.1377 131.304 83.3176C131.264 83.4221 131.225 83.527 131.187 83.6322C130.238 86.2605 129.635 89.0425 128.954 91.7493C128.589 93.2003 128.224 94.6515 127.859 96.1025C127.676 96.8281 127.493 97.5536 127.311 98.2792C127.216 98.6565 127.121 99.0338 127.026 99.411C126.99 99.5517 126.713 100.265 126.785 100.369C126.645 100.923 126.515 101.547 126.813 102.035C127.285 101.771 127.482 101.206 127.641 100.689C128.514 97.8538 129.378 95.0156 130.234 92.1749C130.757 90.4376 131.278 88.6988 131.722 86.9395C132.009 85.8008 132.265 84.6508 132.386 83.4826C132.418 83.1745 132.392 82.7824 132.105 82.6671C131.926 82.5955 131.715 82.6772 131.581 82.8153Z" fill="#006766"/>
<path d="M157.734 84.5453C157.116 84.0826 156.481 83.6406 155.8 83.277C155.526 83.1302 155.235 82.994 154.925 82.9715C154.614 82.9491 154.277 83.0622 154.107 83.3233C153.95 83.5655 153.966 83.8899 154.083 84.154C154.126 84.2526 154.182 84.3443 154.246 84.4308C154.352 84.5762 154.482 84.7072 154.613 84.8319C155.21 85.3982 155.898 85.8909 156.562 86.3484C157.944 87.2995 159.363 88.1981 160.813 89.0417C161.138 89.231 161.468 89.4186 161.824 89.5404C162.028 89.61 162.256 89.6563 162.454 89.5724C163.479 89.1385 160.836 87.0579 160.473 86.7545C159.573 86.0019 158.673 85.2487 157.734 84.5453Z" fill="#006766"/>
<path d="M140.141 52.9774C140.742 53.2774 141.343 52.8206 141.205 52.1747C141.109 51.7287 140.915 51.2795 140.668 50.8943C139.391 48.9082 137.769 47.2055 136.159 45.4955C135.971 45.2956 135.722 45.1316 135.47 45.0212C135.326 44.9582 135.074 44.9773 134.955 45.0688C134.834 45.1611 134.745 45.4002 134.77 45.554C134.814 45.8234 134.925 46.0946 135.062 46.3337C135.659 47.373 136.269 48.3617 136.923 49.3198C137.578 50.2784 138.276 51.2064 139.048 52.1241C139.341 52.472 139.734 52.7742 140.141 52.9774Z" fill="#006766"/>
<path d="M161.891 66.392C161.482 66.4728 161.087 66.7572 160.999 67.1643C160.926 67.5001 161.076 67.8534 161.314 68.1027C161.32 68.1086 161.325 68.1145 161.331 68.1203C161.578 68.3703 161.903 68.5267 162.228 68.6634C164.208 69.4988 166.375 69.7678 168.514 69.9795C168.748 70.0027 168.993 70.0238 169.211 69.9344C170.423 69.4369 168.235 68.3123 167.84 68.126C166.333 67.4149 164.751 66.865 163.127 66.4887C162.721 66.3947 162.3 66.3112 161.891 66.392Z" fill="#006766"/>
<path d="M150.694 73.6593C150.652 73.8139 150.611 73.976 150.646 74.1322C150.681 74.2883 150.819 74.4339 150.979 74.4193C151.061 74.4117 151.134 74.364 151.196 74.3092C151.421 74.1099 151.531 73.8147 151.633 73.5319C152.178 72.023 152.722 70.5141 153.266 69.0051C153.83 67.4406 154.395 65.8759 154.919 64.2974C155.197 63.4593 155.464 62.6149 155.644 61.7496C155.69 61.5304 156.053 60.0572 155.58 59.9654C155.516 59.953 155.437 59.9659 155.339 60.0107C155.146 60.0994 155.052 60.3155 154.975 60.5136C153.304 64.8106 151.888 69.2059 150.694 73.6593Z" fill="#006766"/>
<path d="M159.293 75.1617C158.908 75.0898 158.532 75.1955 158.33 75.5775C158.137 75.9405 158.2 76.3021 158.552 76.8121C158.847 77.014 159.272 77.4055 159.773 77.629C161.353 78.3349 162.96 78.9802 164.56 79.6416C164.731 79.7123 164.919 79.7525 165.104 79.7756C165.393 79.8119 165.677 79.7796 165.818 79.4737C165.956 79.1732 165.803 78.9346 165.603 78.7218C165.539 78.6541 165.467 78.5933 165.391 78.5384C163.84 77.4039 162.246 76.3358 160.494 75.5301C160.116 75.3563 159.703 75.2381 159.293 75.1617Z" fill="#006766"/>
<path d="M118.883 71.1461C118.644 71.1357 118.394 71.1297 118.176 71.2291C117.958 71.3286 117.784 71.5667 117.838 71.8001C117.872 71.9457 117.985 72.0598 118.107 72.1468C118.399 72.3564 118.756 72.4519 119.104 72.543C120.336 72.8655 121.569 73.1841 122.802 73.4989C123.572 73.6952 124.347 73.8908 125.139 73.9433C125.494 73.9668 125.87 73.9562 126.179 73.7817C126.189 73.7761 126.199 73.7703 126.208 73.7643C127.464 72.9994 125.824 72.1303 125.125 71.9737C123.075 71.514 120.983 71.2367 118.883 71.1461Z" fill="#006766"/>
<path d="M133.719 57.6478C135.671 57.3277 133.174 55.4424 132.608 55.1426C131.209 54.4026 129.811 53.6626 128.413 52.9226C128.137 52.7768 127.845 52.627 127.533 52.6416C127.222 52.6563 126.899 52.9047 126.923 53.2155C126.929 53.2889 126.952 53.3568 126.987 53.4201C127.056 53.5468 127.171 53.6553 127.281 53.7528C128.849 55.1383 130.584 56.3342 132.436 57.3064C132.835 57.5158 133.274 57.7207 133.719 57.6478Z" fill="#006766"/>
<path d="M149.751 90.1171C149.511 90.0519 149.217 90.1224 149.097 90.3399C149.017 90.4834 149.027 90.6591 149.057 90.8203C149.131 91.2153 149.31 91.5829 149.514 91.9294C150.184 93.0684 151.122 94.0205 151.968 95.0349C152.627 95.824 153.24 96.663 154.031 97.3195C154.223 97.4793 154.474 97.6357 154.708 97.547C154.923 97.4656 155.018 97.2044 154.999 96.9757C154.974 96.6702 154.799 96.4004 154.629 96.1451C154.332 95.6989 154.035 95.2526 153.738 94.8063C153.588 94.5814 153.437 94.3558 153.285 94.1306C152.418 92.851 151.494 91.583 150.368 90.522C150.187 90.3515 149.991 90.1823 149.751 90.1171Z" fill="#006766"/>
<path d="M143.335 95.6805C143.075 95.7221 142.85 95.9309 142.789 96.187C142.729 96.4379 142.818 96.6984 142.913 96.9379C143.287 97.8716 143.789 98.7391 144.362 99.5644C145.082 100.601 145.914 101.571 146.746 102.522C146.925 102.726 147.144 102.948 147.415 102.931C147.694 102.915 147.899 102.629 147.919 102.35C147.946 101.967 147.724 101.615 147.546 101.293C147.318 100.879 147.089 100.466 146.856 100.054C146.391 99.2312 145.914 98.4148 145.407 97.6167C145.083 97.1062 144.745 96.6003 144.328 96.1627C144.063 95.8854 143.713 95.6201 143.335 95.6805Z" fill="#006766"/>
<path d="M170.781 76.9508C170.742 77.1312 170.702 77.3216 170.758 77.4973C170.815 77.6731 171.007 77.8196 171.181 77.7565C171.182 77.7561 171.183 77.7558 171.184 77.7554C171.329 77.7006 171.393 77.5337 171.44 77.3854C171.965 75.7338 172.473 74.0671 172.703 72.3495C172.796 71.6488 172.972 65.9744 171.476 66.4768C171.144 66.5887 171.132 67.0478 171.177 67.3958C171.592 70.5722 171.457 73.8196 170.781 76.9508Z" fill="#006766"/>
<path d="M137.375 101.161C136.984 101.409 137.047 101.995 137.204 102.43C137.501 103.254 137.984 104.084 138.543 104.867C139.113 105.667 139.763 106.416 140.373 107.056C140.613 107.308 140.953 107.572 141.274 107.436C141.486 107.347 141.598 107.1 141.598 106.87C141.597 106.639 141.508 106.419 141.418 106.206C140.71 104.529 139.897 102.852 138.613 101.562C138.28 101.229 137.772 100.909 137.375 101.161Z" fill="#006766"/>
<path d="M128.262 64.8411C128.522 64.8775 128.796 64.8858 129.038 64.7852C129.068 64.7728 129.097 64.7585 129.125 64.7423C129.328 64.6269 129.483 64.4194 129.48 64.189C129.474 63.7998 129.064 63.5593 128.706 63.4059C126.823 62.5985 124.786 61.9307 122.76 61.5987C122.515 61.5586 122.201 61.5574 122.092 61.7804C122.044 61.8768 122.053 61.9925 122.086 62.0946C122.21 62.4713 122.614 62.6673 122.979 62.8217C124.106 63.2981 125.236 63.7673 126.366 64.2366C126.98 64.4917 127.603 64.7491 128.262 64.8411Z" fill="#006766"/>
<path d="M116.19 98.2375C117.609 98.179 119.032 98.1202 120.437 97.9082C120.765 97.8587 121.104 97.7954 121.372 97.5993C122.033 97.1139 121.642 96.379 120.945 96.2479C120.65 96.1925 120.347 96.2264 120.049 96.2644C118.696 96.4374 117.353 96.6914 116.03 97.0247C115.879 97.0628 115.725 97.1033 115.587 97.173C115.54 97.1966 115.495 97.2235 115.453 97.2548C115.285 97.3785 115.163 97.5877 115.203 97.7924C115.241 97.9863 115.414 98.1311 115.602 98.1921C115.79 98.2531 115.993 98.2456 116.19 98.2375Z" fill="#006766"/>
<path d="M117.864 81.0427C119.77 81.2034 121.698 81.3154 123.588 81.0218C123.775 80.9928 123.969 80.9561 124.116 80.8379C124.993 80.1328 123.064 79.8446 122.712 79.8517C121.062 79.8846 119.414 79.9886 117.773 80.1635C117.515 80.1911 117.195 80.2759 117.152 80.5322C117.142 80.5968 117.153 80.6609 117.18 80.7197C117.221 80.8092 117.297 80.8863 117.385 80.934C117.53 81.013 117.7 81.0288 117.864 81.0427Z" fill="#006766"/>
<path d="M116.098 106.245C117.471 106.26 118.847 106.031 120.142 105.574C120.488 105.451 120.875 105.259 120.946 104.899C121.007 104.59 120.785 104.278 120.499 104.147C120.213 104.016 119.881 104.032 119.572 104.089C118.56 104.466 117.43 104.665 116.393 105.026C116.232 105.083 116.065 105.143 115.92 105.231C115.828 105.288 115.744 105.356 115.677 105.442C115.504 105.663 115.503 106.041 115.747 106.179C115.851 106.239 115.977 106.243 116.098 106.245Z" fill="#006766"/>
<path d="M117.574 89.3426C119.122 89.4493 120.758 89.4495 122.273 89.0761C122.42 89.0398 122.576 88.993 122.672 88.8758C122.858 88.6492 122.702 88.2794 122.443 88.1426C122.183 88.0059 121.872 88.0333 121.58 88.0644C120.297 88.2009 119.014 88.3374 117.731 88.4738C117.55 88.4931 117.362 88.5148 117.208 88.6128C117.055 88.7108 116.949 88.9096 117.017 89.0784C117.023 89.0927 117.03 89.1062 117.037 89.119C117.135 89.2865 117.373 89.3287 117.574 89.3426Z" fill="#006766"/>
<path d="M132.658 106.501C132.49 106.41 132.266 106.396 132.118 106.517C131.879 106.714 131.978 107.097 132.11 107.378C132.713 108.661 133.591 109.827 134.61 110.809C134.684 110.881 134.767 110.955 134.869 110.968C135.101 110.999 135.245 110.708 135.236 110.475C135.224 110.181 135.096 109.906 134.959 109.646C134.739 109.227 134.49 108.824 134.224 108.432C133.863 107.903 133.47 107.394 133.07 106.894C132.951 106.745 132.826 106.592 132.658 106.501Z" fill="#006766"/>
<path d="M125.691 111.464C125.144 112.189 125.207 113.564 125.3 114.41C125.319 114.58 125.346 114.754 125.433 114.902C125.443 114.919 125.454 114.935 125.466 114.951C125.558 115.074 125.702 115.162 125.853 115.149C126.076 115.129 126.221 114.909 126.32 114.707C126.712 113.907 126.919 113.017 126.921 112.125C126.921 111.769 126.849 111.35 126.53 111.193C126.244 111.053 125.883 111.21 125.691 111.464Z" fill="#006766"/>
<path d="M159.298 81.2517C158.728 80.9536 158.114 80.6467 157.474 80.712C157.407 80.9094 157.613 81.0849 157.791 81.1928C159.724 82.3632 161.778 83.2917 163.811 84.2771C164.064 84.3998 164.383 84.5179 164.608 84.3493C164.532 84.0085 164.19 83.8064 163.88 83.6447C162.353 82.8471 160.826 82.0494 159.298 81.2517Z" fill="#006766"/>
<path d="M169.635 82.4185C169.483 82.4648 169.371 82.5919 169.275 82.719C169.034 83.0399 168.846 83.3967 168.661 83.7529C168.088 84.8568 167.539 85.9728 167.014 87.0999C166.918 87.3054 166.842 87.5935 167.029 87.7223C167.073 87.7529 167.125 87.7665 167.178 87.7666C167.258 87.7668 167.341 87.7367 167.406 87.6882C167.513 87.6075 167.583 87.4865 167.649 87.3691C168.288 86.2341 168.926 85.0992 169.565 83.9642C169.687 83.7476 170.475 82.1626 169.635 82.4185Z" fill="#006766"/>
<path d="M152.88 87.7266C152.747 87.8589 152.727 88.0743 152.784 88.2535C152.84 88.4327 152.959 88.5844 153.075 88.7318C154.015 89.9218 154.959 91.1155 156.044 92.1749C156.092 92.2223 156.151 92.2729 156.218 92.2626C156.264 92.2555 156.301 92.2204 156.328 92.1829C156.785 91.556 154.277 88.9849 153.847 88.4256C153.595 88.0997 153.291 87.7446 152.88 87.7266Z" fill="#006766"/>
<path d="M141.484 100.585C141.255 100.309 141.022 100.029 140.732 99.8177C140.66 99.7648 140.566 99.7177 140.479 99.7116C140.422 99.7076 140.369 99.7212 140.326 99.7626C140.232 99.8551 140.272 100.014 140.328 100.134C140.535 100.572 140.868 100.936 141.196 101.293C142.119 102.298 143.042 103.302 143.966 104.307C144.096 104.449 144.353 104.582 144.446 104.413C144.236 103.67 143.564 103.089 143.076 102.502C142.546 101.863 142.015 101.224 141.484 100.585Z" fill="#006766"/>
<path d="M118.591 113.788C118.742 113.763 118.876 113.678 119.002 113.591C119.076 113.54 119.149 113.488 119.22 113.434C119.616 113.139 119.982 112.803 120.31 112.434C120.605 112.1 121.089 111.011 120.161 111.153C119.934 111.188 119.743 111.337 119.571 111.49C119.065 111.942 118.628 112.471 118.28 113.053C118.173 113.231 118.075 113.46 118.185 113.636C118.266 113.766 118.44 113.814 118.591 113.788Z" fill="#006766"/>
<path d="M123.007 68.8359C122.887 68.8952 122.818 69.0695 122.909 69.1666C122.95 69.2097 123.011 69.2268 123.069 69.2418C124.695 69.6668 126.35 69.9821 128.019 70.1849C128.134 70.1989 128.258 70.2106 128.359 70.1531C128.382 70.1398 128.402 70.1266 128.419 70.1132C128.75 69.8563 128.032 69.5829 127.867 69.5555C126.378 69.3099 124.889 69.0643 123.401 68.8187C123.269 68.7969 123.127 68.7766 123.007 68.8359Z" fill="#006766"/>
<path d="M148.231 78.3362C148.589 77.6193 148.947 76.9024 149.306 76.1855C149.397 76.002 149.864 74.6719 149.287 74.9424C149.266 74.952 149.244 74.9636 149.221 74.9774C149.108 75.0445 149.034 75.1594 148.965 75.2713C148.409 76.1707 147.955 77.1321 147.612 78.1319C147.518 78.4042 147.432 78.6989 147.512 78.9756C147.852 78.9924 148.079 78.641 148.231 78.3362Z" fill="#006766"/>
<path d="M125.692 77.2985C125.811 77.3055 125.935 77.312 126.047 77.2699C126.159 77.2278 126.257 77.1234 126.253 77.0037C124.652 76.6325 122.986 76.5448 121.355 76.7458C121.355 77.3417 125.129 77.2653 125.692 77.2985Z" fill="#006766"/>
<path d="M163.933 74.322C163.555 73.7593 162.681 73.4019 162.041 73.231C161.84 73.1775 161.553 73.1864 161.509 73.3894C161.472 73.5562 161.644 73.688 161.793 73.7722C162.342 74.0834 163.302 74.6614 163.933 74.322Z" fill="#006766"/>
<path d="M143.404 76.4111C143.101 76.6323 143.041 77.1127 143.281 77.3965C143.487 77.64 143.911 77.6997 144.166 77.521C144.471 77.3073 144.524 76.8367 144.277 76.5351C144.065 76.2753 143.668 76.2189 143.404 76.4111Z" fill="#006766"/>
<path d="M137.801 81.2805C137.652 80.9777 137.242 80.8661 136.956 81.0507C136.618 81.2687 136.527 81.6824 136.738 82.0355C136.892 82.2914 137.213 82.3805 137.47 82.2386C137.839 82.0355 137.976 81.6386 137.801 81.2805Z" fill="#006766"/>
<path d="M147.024 72.8177C146.825 72.543 146.432 72.4883 146.161 72.6977C145.886 72.9112 145.829 73.2891 146.031 73.562C146.233 73.8337 146.621 73.8887 146.896 73.6844C147.17 73.4811 147.226 73.0972 147.024 72.8177Z" fill="#006766"/>
<path d="M148.768 64.4683C148.966 64.7266 149.382 64.7811 149.644 64.5832C149.914 64.3801 149.976 63.9738 149.777 63.7099C149.584 63.454 149.158 63.3981 148.899 63.5946C148.633 63.7963 148.571 64.211 148.768 64.4683Z" fill="#006766"/>
<path d="M148.159 60.9772C148.349 60.795 148.38 60.4274 148.224 60.2083C148.028 59.9336 147.617 59.8687 147.363 60.0724C147.098 60.2847 147.065 60.6778 147.289 60.9364C147.513 61.1946 147.913 61.2133 148.159 60.9772Z" fill="#006766"/>
<path d="M144.976 65.0935C144.849 65.2845 144.841 65.5561 144.75 65.9109C145.118 65.9262 145.386 66.0059 145.599 65.9298C145.896 65.823 145.925 65.3594 145.698 65.1187C145.507 64.9163 145.126 64.8701 144.976 65.0935Z" fill="#006766"/>
<path d="M143.344 71.6986C143.596 71.5528 143.684 71.2339 143.538 70.9982C143.388 70.7566 143.033 70.6366 142.838 70.8318C142.679 70.9903 142.635 71.2631 142.57 71.4142C142.776 71.7677 143.092 71.8446 143.344 71.6986Z" fill="#006766"/>
<path d="M154.518 58.0075C154.473 57.7421 154.085 57.5962 153.835 57.6952C153.583 57.7946 153.456 58.1628 153.588 58.4081C153.721 58.6528 154.067 58.7478 154.429 58.5461C154.453 58.4196 154.551 58.2024 154.518 58.0075Z" fill="#006766"/>
<path d="M139.922 74.3906C139.608 74.6168 139.548 74.988 139.768 75.1731C139.916 75.2975 140.177 75.3872 140.358 75.3501C140.634 75.2935 140.695 74.7558 140.437 74.5446C140.291 74.4253 140.048 74.4248 139.922 74.3906Z" fill="#006766"/>
<path d="M146.731 94.401C146.749 94.5727 146.951 94.8862 147.082 94.9945C147.11 95.0173 147.68 95.3561 147.642 95.126C147.559 94.609 147.272 94.2272 146.882 93.8839C146.784 93.798 146.726 94.3581 146.731 94.401Z" fill="#006766"/>
<path d="M139.751 77.0969C139.637 77.2445 139.647 77.4893 139.578 77.8003C139.906 77.7947 140.135 77.8475 140.313 77.7743C140.567 77.6692 140.584 77.249 140.366 77.0768C140.163 76.9159 139.903 76.9013 139.751 77.0969Z" fill="#006766"/>
<path d="M151.717 60.9318C151.88 61.0303 152.115 61.0092 152.25 61.0308C152.536 60.767 152.537 60.4137 152.311 60.2328C152.119 60.0789 151.897 60.0431 151.692 60.2193C151.483 60.3996 151.475 60.7852 151.717 60.9318Z" fill="#006766"/>
<path d="M151.093 57.7225C150.987 57.4635 150.605 57.3817 150.389 57.6108C150.255 57.7532 150.226 57.9935 150.102 58.3132C150.444 58.3133 150.674 58.3674 150.86 58.2998C151.099 58.2133 151.198 57.9814 151.093 57.7225Z" fill="#006766"/>
<path d="M147.793 69.575C148.132 69.5273 148.365 69.5537 148.508 69.4528C148.599 69.3889 148.627 69.0952 148.559 68.9754C148.441 68.769 148.175 68.6782 147.992 68.8744C147.875 68.9999 147.881 69.2399 147.793 69.575Z" fill="#006766"/>
<path d="M157.214 47.9918C157.127 47.7863 156.988 47.6029 156.783 47.2578C156.376 47.8801 156.59 48.2847 156.724 48.6586C157.125 49.7757 157.734 50.7801 158.497 51.688C159.042 52.3359 159.593 52.9792 160.151 53.6159C160.957 54.5353 161.767 55.4508 162.588 56.3566C162.692 56.4711 162.831 56.6679 163.118 56.4284C163.079 56.2972 163.073 56.1031 162.976 55.9787C161.94 54.6402 160.912 53.2936 159.835 51.9877C158.813 50.7484 157.844 49.4848 157.214 47.9918Z" fill="#006766"/>
<path d="M170.563 49.0626C171.913 49.608 173.228 50.2169 174.392 51.1103C174.574 51.2499 174.785 51.3687 175.001 51.4404C175.093 51.4708 175.25 51.3756 175.344 51.2973C175.395 51.2556 175.415 51.1025 175.378 51.0441C175.23 50.8098 175.098 50.5328 174.882 50.3804C174.197 49.8958 173.527 49.3402 172.762 49.0295C170.986 48.3073 169.159 47.7071 167.348 47.0733C167.15 47.0043 166.917 47.0394 166.656 47.0234C166.671 47.4688 166.921 47.5873 167.177 47.6914C168.305 48.151 169.434 48.6063 170.563 49.0626Z" fill="#006766"/>
<path d="M172.885 51.2499C172.681 51.1425 172.457 51.0663 172.235 51.004C172.165 50.9844 172.01 51.0412 171.997 51.0895C171.968 51.2036 171.995 51.3345 172.013 51.4565C172.019 51.4956 172.064 51.536 172.1 51.5625C173.349 52.4736 174.615 53.3595 176.043 53.9764C176.877 54.3369 177.759 54.4321 178.657 54.3322C178.813 54.3148 178.956 54.1786 179.28 54.0016C178.866 53.8274 178.637 53.6729 178.391 53.6376C177.068 53.4471 175.881 52.912 174.733 52.2608C174.122 51.9143 173.506 51.5771 172.885 51.2499Z" fill="#006766"/>
<path d="M147.14 44.2402C147.469 44.3101 147.595 44.2646 147.604 44.1628C147.622 43.9406 147.081 43.4501 146.862 43.3047C146.33 42.9518 145.722 42.7265 145.142 42.4667C142.278 41.1836 139.919 39.0222 137.519 36.9996C136.965 36.5321 136.313 36.0417 135.594 36.137C137.224 37.8848 138.877 39.6273 140.765 41.0919C142.654 42.5565 144.802 43.7431 147.14 44.2402Z" fill="#006766"/>
<path d="M143.838 40.2733C143.689 39.6708 142.866 39.1431 142.333 38.911C142.197 38.8516 142.049 38.8001 141.903 38.8282C141.757 38.8563 141.622 38.9926 141.648 39.1389C141.661 39.218 141.716 39.2829 141.771 39.3413C142.232 39.8286 143.137 40.403 143.838 40.2733Z" fill="#006766"/>
<path d="M142.108 37.9662C141.799 37.3693 141.338 37.0183 140.562 36.9844C140.875 37.7424 141.474 37.8817 142.108 37.9662Z" fill="#006766"/>
<path d="M153.853 40.2099C153.925 40.4051 154.081 40.6337 154.282 40.5795C154.483 40.5253 154.502 40.2504 154.479 40.0433C154.34 38.8262 154.322 37.5494 153.848 36.4059C153.376 35.2666 152.586 34.2764 151.678 33.4524C150.521 32.4022 149.167 31.5976 147.82 30.8047C147.976 31.8773 149.018 32.5469 149.892 33.1879C151.372 34.2739 152.658 35.7225 153.19 37.4802C153.461 38.3774 153.529 39.3305 153.853 40.2099Z" fill="#006766"/>
<path d="M152.008 38.9416C152.078 38.9572 152.16 38.9393 152.21 38.8901C152.224 38.8765 152.235 38.8604 152.243 38.8421C152.26 38.8029 152.26 38.7587 152.259 38.7161C152.24 38.0182 151.948 37.347 151.485 36.8278C151.395 36.727 151.281 36.6247 151.146 36.6333C151.004 36.6424 150.897 36.7788 150.874 36.9189C150.851 37.059 150.892 37.201 150.937 37.3358C151.116 37.8743 151.364 38.4065 151.775 38.7969C151.842 38.8604 151.917 38.9217 152.008 38.9416Z" fill="#006766"/>
<path d="M170.101 36.4255C170.4 36.0019 170.665 35.5552 170.929 35.109C171.165 34.7096 171.402 34.3102 171.638 33.9108C171.728 33.759 171.819 33.6026 171.848 33.4286C171.859 33.3573 171.858 33.2794 171.819 33.2187C171.758 33.1233 171.619 33.104 171.514 33.146C171.408 33.188 171.329 33.2759 171.256 33.3625C170.542 34.2046 170.015 35.2226 169.557 36.2207C169.446 36.4611 169.35 36.7715 169.529 36.9665C169.774 36.863 169.948 36.6429 170.101 36.4255Z" fill="#006766"/>
<path d="M67.0517 88.4786C64.964 87.5867 62.837 86.787 60.679 86.0824C59.6 85.73 58.5132 85.4015 57.4198 85.097C56.9379 84.9628 56.2678 84.6454 55.7695 84.6565C55.7988 84.6559 54.6644 84.7553 54.9762 84.9863C54.9824 84.9909 54.9892 84.9956 54.9966 85.0003C56.0139 85.6488 57.1714 86.037 58.3169 86.4159C61.1364 87.3486 63.9622 88.2626 66.7939 89.1578C67.0423 89.2364 67.3955 89.2677 67.4839 89.0226C67.5709 88.781 67.2878 88.5794 67.0517 88.4786Z" fill="#006766"/>
<path d="M80.4649 86.6971C79.6758 86.0704 77.4489 85.7135 77.9791 87.4363C78.1424 87.9669 78.6075 88.3445 79.0775 88.6401C79.5101 88.9124 79.968 89.1446 80.4434 89.3327C80.7031 89.4355 80.9775 89.5265 81.256 89.504C81.5345 89.4814 81.8186 89.3191 81.906 89.0537C81.9147 89.0271 81.9214 89.0004 81.9261 88.9736C81.972 88.7132 81.837 88.4426 81.6981 88.2093C81.3635 87.6473 80.9771 87.104 80.4649 86.6971Z" fill="#006766"/>
<path d="M67.5625 81.7518C66.7734 81.1251 64.5465 80.7682 65.0768 82.491C65.2401 83.0216 65.7052 83.3992 66.1751 83.6949C66.6078 83.9671 67.0657 84.1993 67.541 84.3874C67.8008 84.4903 68.0753 84.5812 68.3536 84.5587C68.6321 84.5361 68.9162 84.3738 69.0037 84.1085C69.0124 84.0819 69.0191 84.0552 69.0238 84.0283C69.0696 83.7679 68.9346 83.4973 68.7958 83.264C68.4612 82.702 68.0747 82.1586 67.5625 81.7518Z" fill="#006766"/>
<path d="M94.046 91.4455C93.8474 91.1175 93.6107 90.8049 93.2999 90.5805C92.5346 90.0278 91.4279 90.3453 91.3915 91.3916C91.3746 91.8784 91.6081 92.3407 91.8959 92.7336C92.2991 93.2841 92.8213 93.7469 93.4162 94.0811C93.6887 94.2342 94.0166 94.3622 94.3064 94.2455C94.5465 94.1488 94.6992 93.8988 94.7413 93.6434C94.7539 93.5675 94.7581 93.491 94.756 93.4144C94.7511 93.2337 94.7111 93.0526 94.6628 92.8773C94.5243 92.3747 94.3161 91.8914 94.046 91.4455Z" fill="#006766"/>
<path d="M76.8333 92.2044C75.0113 91.4179 73.1852 90.6402 71.3515 89.8814C71.1223 89.7866 70.8444 89.7945 70.5884 89.7891C70.5088 89.7875 70.3705 89.8893 70.358 89.961C70.3342 90.0971 70.3332 90.2857 70.4109 90.38C70.5383 90.5348 70.7194 90.6747 70.9065 90.7466C72.7103 91.4399 74.5172 92.126 76.3323 92.7893C76.5491 92.8685 76.8199 92.8001 77.3204 92.8001C77.0235 92.4292 76.9544 92.2567 76.8333 92.2044Z" fill="#006766"/>
<path d="M100.576 49.2745C100.898 48.0845 100.913 45.4384 100.652 44.4111C100.595 44.1864 100.546 43.8914 100.149 43.8828C100.084 43.9891 99.9371 44.1152 99.9457 44.2298C100.057 45.7316 100.187 47.2322 100.326 48.7318C100.339 48.8715 100.447 49.0022 100.576 49.2745Z" fill="#006766"/>
<path d="M100.124 52.9808C99.9286 54.344 100 56.5877 100.246 57.4317C100.7 56.8496 100.7 56.8496 100.764 55.4604C100.868 53.1794 100.868 53.1794 100.384 52.4297C100.277 52.6496 100.149 52.8077 100.124 52.9808Z" fill="#006766"/>
<path d="M104.232 41.9179C103.356 37.2878 101.779 32.9196 99.2241 28.9341C96.5201 24.7169 92.927 21.542 88.3283 19.4903C86.9195 18.8618 85.4886 18.3188 84.0358 17.8559C80.9415 16.6273 77.6685 15.8088 74.3836 15.4075C78.9276 10.6625 84.968 7.37207 91.4189 6.12763C91.1966 5.98508 91.5868 5.81175 90.1717 4.92398C88.788 4.05596 87.1063 3.78303 85.4861 3.57572C83.656 3.34152 81.7698 3.34775 79.9971 3.8591C78.4933 4.29285 77.1642 5.07219 75.8823 5.94779C74.868 6.64066 73.8694 7.35659 72.8877 8.0949C72.0272 8.742 71.2571 9.38574 70.1755 9.60182C68.935 9.84964 67.6765 9.98678 66.4359 10.2318C64.3396 10.646 62.0302 11.9459 61.4565 13.8307C61.3217 13.5433 61.1814 13.2579 61.0381 12.9735C60.7077 12.3182 60.3792 11.6617 60.0671 10.9976C59.2519 9.2626 58.8276 7.44129 58.8683 5.51649C58.8861 4.67785 58.9018 3.83768 58.8686 3.00014C58.8523 2.58945 58.7733 2.16438 58.6315 1.77943C58.5943 1.67848 58.5432 1.5909 58.4827 1.51642C58.4832 1.36375 58.4165 1.22427 58.2494 1.15227C58.0422 1.06297 57.6756 1.03244 57.5362 1.15433C57.1085 1.5284 56.7036 1.95261 56.3831 2.42111C54.628 4.98591 52.5821 7.2926 50.3618 9.46215C49.051 10.743 47.7882 12.0816 46.5962 13.4735C45.5415 14.7051 44.693 16.0306 44.1094 17.4682C43.6793 15.6803 42.9334 14.003 41.8004 12.4723C40.9599 11.3369 40.0883 10.1992 39.0775 9.2209C37.6484 7.83779 36.1089 6.56243 34.5586 5.31286C32.9229 3.99451 31.2817 2.69006 29.8411 1.15251C29.5909 0.885522 29.3223 0.627881 29.0289 0.411079C28.3188 -0.113548 27.7104 -0.156735 27.0119 0.401685C26.1949 1.05482 25.4114 1.76347 24.6945 2.5244C23.9645 3.2992 23.9536 4.08587 24.6137 4.93875C25.0279 5.47382 25.5105 5.97348 26.0321 6.40469C27.4874 7.60785 28.9765 8.77042 30.4572 9.94272C32.1025 11.2454 33.7888 12.4989 35.3943 13.8487C37.6866 15.776 39.6173 17.9788 41.0963 20.5197C40.2496 19.8018 39.3195 19.1944 38.3175 18.6956C36.9595 18.0196 35.5651 17.4046 34.149 16.8611C32.6334 16.2793 31.0709 15.8206 29.5338 15.2938C26.9234 14.3993 24.2972 13.2129 22.1381 11.4145C21.6387 10.9986 20.4754 9.23523 20.0904 10.2798C19.8466 10.9416 20.1187 11.9427 20.1883 12.627C20.3631 14.3467 20.4574 16.0857 20.7904 17.7763C21.9968 23.9022 25.3088 28.6414 30.5028 32.0709C30.6214 32.1492 30.7412 32.2248 30.8616 32.2992C28.9779 32.1667 27.0917 32.1373 25.2124 32.3873C23.8616 32.567 22.5128 32.7808 21.1765 33.0466C17.8423 33.7098 14.5078 33.7684 11.1721 33.111C9.00122 32.6832 6.89844 32.8211 4.84743 33.6798C3.82641 34.1073 2.76033 34.3689 1.6558 34.4885C1.29861 34.5272 0.939635 34.6407 0.605733 34.7787C0.247769 34.9267 0.0121777 35.2232 0.000434105 35.6273C-0.0115012 36.0383 0.223659 36.3143 0.584643 36.4803C0.774314 36.5676 0.970265 36.6541 1.17269 36.6987C3.25586 37.1571 5.09424 38.1566 6.88646 39.2622C8.27024 40.1159 9.65071 40.9752 11.0457 41.8101C12.6246 42.7552 14.2753 43.556 16.0183 44.1541C18.1199 44.8752 20.2813 45.2837 22.5061 45.1968C23.6388 45.1525 24.7772 45.0753 25.9223 44.7269C25.9387 45.0237 25.9674 45.3227 26.0117 45.6246C26.2269 47.0925 26.6408 48.4838 27.2278 49.8374C27.3348 50.0842 27.6386 50.3456 27.3166 50.67C27.1969 50.7905 26.6228 50.2179 26.5202 50.1575C26.3544 50.0598 26.1608 49.9984 25.9699 50.0218C25.9455 50.0249 25.92 50.0298 25.9011 50.0456C25.8824 50.0614 25.8732 50.0855 25.8657 50.1088C25.7844 50.3607 25.8136 50.6378 25.8977 50.8888C26.1915 51.7659 26.8264 52.642 27.4385 53.3249C27.9665 53.9139 28.5837 54.4212 29.2684 54.8163C29.2159 55.2529 29.2408 55.9736 29.2672 56.2651C29.3713 57.4122 29.4497 58.5706 29.679 59.6958C31.4804 68.5359 35.8238 75.9145 42.6089 81.8375C47.0749 85.736 52.0878 88.7809 57.6336 90.8784C61.2609 92.2504 64.938 93.5001 68.6296 94.6903C73.0733 96.123 77.4926 97.6087 81.8307 99.3433C83.5284 100.022 85.3217 100.463 87.0742 101.003C87.3228 101.08 87.5899 101.15 87.8438 101.137C87.8512 101.136 87.8585 101.134 87.8659 101.133C89.767 101.777 91.7038 102.071 93.6332 101.555C96.5226 100.782 98.6902 98.2696 99.8166 95.4989C100.943 92.7282 101.19 89.6914 101.424 86.7097C101.431 86.6143 101.439 86.519 101.446 86.4237C102.055 81.8265 102.395 77.2035 102.716 72.5782C102.876 70.2772 103.109 67.9792 103.384 65.6888C103.777 62.41 104.293 59.1455 104.659 55.8639C105.178 51.2011 105.107 46.541 104.232 41.9179ZM73.5494 20.5948C72.3331 19.6839 70.9782 18.9711 69.5124 18.5861C67.1794 17.9734 64.5496 18.2682 62.5963 19.6834C62.6227 18.9575 63.3048 18.4253 63.9862 18.1737C67.2182 16.9803 70.6562 16.3805 74.0386 17.3881C76.6264 18.1589 78.9737 19.8758 80.2518 22.2542C81.2869 24.1806 81.5833 26.4068 82.2874 28.4773C82.7316 29.7835 83.3385 31.0275 83.9437 32.2675C82.2963 32.8486 80.443 32.3776 78.9085 31.5424C76.955 30.4792 75.3625 28.8718 73.8154 27.274C72.2683 25.6761 70.71 24.0434 68.7965 22.9097C66.883 21.776 64.5299 21.187 62.4061 21.8475C62.1433 21.2722 62.723 20.6725 63.273 20.3602C64.214 19.826 65.267 19.4904 66.3435 19.3816C69.1221 19.1006 71.8797 20.343 74.0198 22.1375C76.16 23.9319 77.787 26.2476 79.4161 28.5161C79.5235 28.4371 79.631 28.3581 79.7385 28.2791C78.5157 26.1998 77.2161 24.1437 75.5568 22.3929C74.94 21.742 74.269 21.1338 73.5494 20.5948ZM65.6875 11.9952C67.5787 11.3539 69.6426 11.342 71.5206 10.6631C74.0574 9.74601 76.0166 7.70784 78.3903 6.4264C79.1477 6.01748 79.9481 5.69254 80.7732 5.45053C82.0339 5.22088 83.3384 5.22328 84.6182 5.34316C85.7825 5.45225 86.9348 5.65506 88.0868 5.85926C83.5515 6.43522 79.2074 8.46159 75.8628 11.5803C74.5196 12.8327 73.2962 14.2812 71.6469 15.0887C71.3472 15.2354 71.0367 15.3582 70.7192 15.4652C68.6509 15.4218 66.6209 15.8786 64.639 16.7904C64.0716 17.0515 63.5103 17.3257 62.7976 17.6645C62.6637 17.3188 62.5575 17.1339 62.5209 16.9361C62.3693 16.1152 62.1077 15.3363 61.7897 14.5786C62.8393 13.4032 64.1948 12.5014 65.6875 11.9952ZM45.7352 18.6378C45.7942 18.5297 45.855 18.4227 45.9173 18.3169C46.7549 16.8969 47.8743 15.6674 48.9894 14.4531C51.4532 11.7699 53.9526 9.08736 55.9771 6.04658C56.2054 5.70366 57.0187 3.87909 57.3605 3.80427C57.7675 3.71516 57.679 5.76842 57.714 6.14517C57.8866 7.99985 58.3204 9.83631 59.0723 11.5436C59.9657 13.5719 61.3143 15.4664 61.5719 17.6678C61.7684 19.3475 61.3006 21.0366 60.675 22.6079C60.5062 23.0319 60.3211 23.4587 60.0235 23.8047C59.7254 24.1512 59.3292 24.3992 58.9204 24.6038C57.2553 25.4374 55.3422 25.6156 53.4801 25.6378C54.5411 23.5085 55.0141 21.1245 55.1509 18.7493C55.2878 16.3742 55.0995 13.9935 54.8987 11.623C54.4707 12.0333 54.3961 12.68 54.3469 13.271C54.2016 15.0165 54.0562 16.762 53.9109 18.5075C53.792 19.936 53.6698 21.3808 53.2137 22.7398C52.7575 24.0987 51.9267 25.3846 50.6859 26.1025C49.9956 26.5018 49.2136 26.7085 48.4422 26.9109C47.8132 27.0759 47.1841 27.2409 46.5551 27.4059C46.4822 27.425 46.4061 27.4443 46.3324 27.4285C46.1881 27.3976 46.1059 27.2488 46.0425 27.1155C45.4209 25.8083 44.7909 24.4645 44.6707 23.0221C44.5442 21.5016 45.0023 19.9815 45.7352 18.6378ZM44.4662 27.8187C44.4991 27.6297 44.5702 27.4474 44.6632 27.1239C44.9263 27.3505 45.1258 27.5449 45.3234 27.7049C45.4126 27.8177 45.5089 27.9266 45.6108 28.0302C45.0847 28.3568 44.5892 28.7324 44.1345 29.1525C44.2734 28.7298 44.385 28.285 44.4662 27.8187ZM38.1924 14.9375C37.4987 14.2267 36.7704 13.5489 36.0238 12.9016C33.0719 10.3422 29.7969 8.18104 26.7821 5.69604C26.3484 5.33851 25.9162 4.97024 25.5781 4.52115C25.4132 4.3022 25.2665 4.04235 25.2968 3.76999C25.3211 3.55199 25.4549 3.36328 25.5926 3.19259C25.9873 2.70329 26.4515 2.27041 26.9661 1.90957C27.1798 1.75977 27.4887 1.49279 27.7529 1.4508C28.0694 1.40052 28.2589 1.70537 28.4615 1.90842C29.4974 2.94641 30.5706 3.94701 31.6784 4.90778C33.6014 6.57552 35.6289 8.12362 37.486 9.8644C39.3431 11.6052 41.0428 13.5631 42.1544 15.8529C43.1021 17.8048 43.5994 20.0731 43.0076 22.1606C41.989 19.425 40.242 17.0374 38.1924 14.9375ZM22.8297 20.675C22.2988 19.5392 21.8681 18.3566 21.5491 17.1441C21.2974 16.1875 21.1154 15.2124 21.0098 14.2289C20.957 13.7373 20.9232 13.2437 20.9093 12.7495C20.8995 12.4012 20.739 11.6269 21.2687 11.9223C22.1014 12.3867 22.8648 13.0036 23.6936 13.4854C24.5259 13.9693 25.379 14.4171 26.2461 14.8352C28.0028 15.6823 29.8162 16.4071 31.6506 17.0673C33.6893 17.801 35.7685 18.4627 37.6692 19.5029C39.57 20.5431 41.3106 22.0108 42.2571 23.9599C43.2035 25.9091 43.2283 28.3877 41.954 30.1402C35.429 27.5915 29.6646 23.1297 25.5615 17.4519C24.9278 16.5749 24.3293 15.6656 23.5828 14.8824C23.4585 14.7519 23.2788 14.6147 23.116 14.6921C22.8964 14.7965 22.9862 15.127 23.1105 15.336C25.1549 18.7748 27.9035 21.7535 30.9114 24.3914C33.9192 27.0292 37.1935 29.3433 40.4608 31.6519C39.1939 32.5777 37.5034 32.7859 35.9622 32.4907C34.4211 32.1957 33.0048 31.4435 31.6882 30.5897C28.5154 28.5322 25.7554 25.8031 23.8234 22.5522C23.4615 21.9436 23.1296 21.3168 22.8297 20.675ZM32.5472 33.6589C32.8233 33.6043 33.1021 33.5629 33.3807 33.5207C33.9911 33.7421 34.62 33.9205 35.2666 34.055C36.1832 34.2457 37.0662 34.2974 37.8996 34.2224C37.5103 34.6009 37.1325 34.9913 36.7706 35.3962C36.4852 35.7154 36.2044 36.0464 35.8506 36.2875C35.4317 36.5728 34.9355 36.7158 34.4627 36.8981C33.4387 37.2932 32.5041 37.8844 31.577 38.4718C31.2067 38.7064 30.8256 39.2706 31.204 39.492C32.4466 38.8591 33.676 38.2003 34.891 37.5162C34.7687 37.7396 34.6464 37.9629 34.524 38.1864C33.3595 39.3298 32.0794 40.3477 30.6743 41.2309C29.9268 39.9957 29.5503 38.6348 29.6027 37.1387C29.6729 35.134 30.5715 34.0497 32.5472 33.6589ZM32.6525 41.6039C32.4261 42.0173 32.1997 42.4306 31.9734 42.844C31.957 42.8738 31.9409 42.9046 31.9249 42.9357C31.7824 42.7586 31.6414 42.5805 31.5023 42.401C31.8949 42.1452 32.279 41.8802 32.6525 41.6039ZM25.9567 43.2353C25.5983 43.2801 25.27 43.322 24.9453 43.3806C23.0146 43.7297 21.09 43.7061 19.1551 43.3891C16.956 43.0287 14.8869 42.2958 12.9377 41.2436C11.5084 40.4721 10.1201 39.6219 8.73428 38.7728C6.94417 37.676 5.16187 36.5707 3.17993 35.8373C3.00804 35.7738 2.75333 35.715 2.89487 35.3248C3.93229 34.9938 5.00906 34.5794 6.12197 34.3198C6.87596 34.1439 7.68234 34.126 8.46235 34.1471C9.19118 34.1667 9.91995 34.3089 10.642 34.4355C12.9267 34.836 15.2221 35.0437 17.5313 34.7331C18.8811 34.5516 20.228 34.3212 21.5594 34.0351C24.2885 33.4486 27.0398 33.128 29.8323 33.1461C30.136 33.1481 30.4399 33.139 30.7438 33.1241C29.4473 33.8387 28.3866 35.0308 28.1128 36.4156C28.107 36.4452 28.1004 36.4746 28.0943 36.5042C25.2624 37.5054 22.2297 37.8577 19.2261 37.8148C17.1954 37.7858 15.1713 37.5797 13.1627 37.2882C12.1787 37.1453 8.77728 36.059 8.9703 38.1299C8.98564 38.2947 9.06478 38.4824 9.22722 38.514C9.46468 38.5602 9.59923 38.263 9.76316 38.0851C9.8946 37.9425 10.0696 37.8711 10.2606 37.8401C10.4749 37.8053 10.7095 37.8213 10.9257 37.8448C13.8881 38.1663 16.8361 38.6659 19.814 38.7726C22.5147 38.8693 25.2745 38.6277 27.7934 37.6732C27.5205 38.5599 27.1642 39.4082 26.7787 40.2574C26.3391 41.2258 26.0634 42.2167 25.9567 43.2353ZM26.9265 44.3456C26.9201 44.1414 26.9192 43.937 26.9247 43.7326C26.9526 42.6773 27.1416 40.6742 28.0527 40.0066C29.2467 42.1048 30.2511 44.1401 31.8868 45.9653C32.499 46.6483 33.1622 47.3044 33.5932 48.1141C34.0242 48.9237 34.1897 49.9407 33.761 50.7516C33.2656 51.6885 32.123 52.1004 31.0641 52.1444C30.625 52.1627 30.17 52.1285 29.778 51.9299C29.3132 51.6944 28.9876 51.255 28.7214 50.8072C28.143 49.8344 27.7638 48.7558 27.4651 47.6642C27.1698 46.5843 26.9621 45.4674 26.9265 44.3456ZM29.2407 53.8292C28.8256 53.5629 28.4478 53.2386 28.1216 52.8686C28.0151 52.7478 27.7244 52.354 27.82 52.2939C27.8477 52.2766 27.9076 52.2871 28.0136 52.3401C28.3324 52.4998 28.6547 52.6415 28.9963 52.7457C29.6469 52.9443 30.3339 53.025 31.0127 52.9772C31.8396 52.919 32.6414 52.6771 33.459 52.5405C33.0515 53.3989 32.3462 54.1923 31.4133 54.3729C30.6621 54.5183 29.8847 54.2424 29.2407 53.8292ZM100.945 69.7473C100.375 76.975 100.265 84.2647 98.9262 91.3902C98.369 94.3561 97.3642 97.6039 94.7259 99.0688C91.1684 101.044 86.8699 98.765 83.2465 96.913C71.3949 90.8553 57.4239 89.0131 46.724 81.0967C38.4978 75.0106 32.892 65.5059 31.5153 55.3693C32.1334 55.2825 32.7182 54.9815 33.2424 54.4608C34.9995 52.7155 35.7443 50.6375 35.0945 48.1579C34.7282 46.7603 34.0457 45.5391 33.1434 44.4261C33.1193 44.3963 33.0949 44.3667 33.0706 44.3368C33.3583 44.0464 33.5037 43.6458 33.6504 43.263C35.1135 39.444 37.6808 36.1561 40.719 33.3878C41.5388 32.9436 42.258 32.3369 42.8486 31.5869C43.0058 31.4632 43.1635 31.3403 43.3222 31.219C45.2667 29.7333 47.381 28.3845 49.7547 27.7897C51.7982 27.2776 53.9412 27.3469 56.0199 27.0049C58.0986 26.6629 60.2585 25.783 61.3308 23.9696C61.427 23.8069 61.4931 23.6018 61.5164 23.4015C61.8515 23.0839 62.2678 22.9266 62.7443 22.8083C63.5782 22.601 64.399 22.5873 65.237 22.7329C67.3654 23.1028 69.2238 24.0159 70.7592 25.5353C71.5409 26.3088 72.2641 27.1419 73.0033 27.9576C74.1683 29.2431 75.3888 30.4646 76.8498 31.4213C78.7387 32.6581 80.7908 33.3687 83.0672 33.3281C83.4804 33.3207 83.9041 33.2589 84.3009 33.1453C84.7359 33.0206 84.955 32.5789 84.8606 32.1501C84.8157 31.9463 84.7578 31.7401 84.6695 31.552C83.8176 29.7377 83.3494 27.7998 82.7974 25.8859C82.4496 24.6803 82.0685 23.4691 81.5461 22.3323C80.7498 20.5998 79.6637 19.1882 78.3054 18.0997C78.5651 18.1733 78.8236 18.2483 79.0807 18.3247C82.4064 19.3129 85.7004 20.5121 88.65 22.3389C93.3746 25.2652 97.0627 29.7587 99.2644 34.8613C103.929 45.6712 101.871 58.0105 100.945 69.7473Z" fill="#006766"/>
<path d="M93.8932 29.3032C91.6232 26.364 88.7675 23.8544 85.4707 22.1447C85.1739 21.9908 84.0013 21.2989 83.6935 21.6404C83.674 21.6621 83.6585 21.6845 83.6467 21.7076C83.4585 22.0769 84.2225 22.6061 84.4511 22.748C89.9644 26.1712 94.4101 31.2879 97.0298 37.2252C97.5558 38.4174 98.0433 39.6892 99.023 40.5483C99.3423 40.1662 99.2078 39.5943 99.0481 39.1227C97.8569 35.6052 96.1631 32.2425 93.8932 29.3032Z" fill="#006766"/>
<path d="M39.9867 69.9985C37.4763 66.3142 35.7294 62.1122 34.8882 57.7341C34.8174 57.3652 34.5775 56.1562 33.9941 56.2384C33.4441 56.3158 33.5687 57.3599 33.6347 57.7009C34.8531 63.988 37.9861 69.8908 42.5103 74.4233C42.5045 74.403 42.4985 74.3827 42.4925 74.3624C42.0115 72.7495 40.9355 71.391 39.9867 69.9985Z" fill="#006766"/>
<path d="M26.8756 17.5657C28.5663 18.3462 30.4275 18.6741 32.1801 19.3037C35.6162 20.5382 38.615 22.9805 40.4686 26.1262C40.47 26.1075 40.4713 26.0888 40.4724 26.0702C40.5359 24.9963 40.0348 23.956 39.3844 23.096C37.699 20.8678 35.0592 19.583 32.4353 18.6236C31.3535 18.2281 30.2567 17.8737 29.1479 17.5615C28.5935 17.4054 28.0362 17.2603 27.4763 17.1251C27.3054 17.0838 26.18 16.7198 26.5329 17.3113C26.6071 17.4354 26.7444 17.5052 26.8756 17.5657Z" fill="#006766"/>
<path d="M35.3758 8.87894C33.8843 7.61001 32.3131 6.43967 30.7892 5.21076C30.3903 4.88913 29.9941 4.56419 29.604 4.23207C29.4028 4.06075 28.8049 3.33337 28.5614 3.31453C28.468 3.30729 28.4009 3.31966 28.3554 3.34746C28.0256 3.54873 28.8349 4.55887 29.0395 4.77735C32.0687 8.01135 36.3256 10.0079 38.9549 13.5748C39.5828 14.4266 40.1056 15.3539 40.7631 16.1831C40.8241 16.26 40.9039 16.3438 41.0014 16.3324C41.1819 16.3113 41.1639 16.0418 41.0895 15.876C39.8463 13.1056 37.6887 10.8465 35.3758 8.87894Z" fill="#006766"/>
<path d="M70.4447 28.0491C70.6242 28.199 70.8078 28.3525 71.0271 28.4341C71.2366 28.512 71.4887 28.5124 71.6693 28.3837C71.6776 28.3778 71.6859 28.3715 71.694 28.365C70.7406 27.1339 69.5848 26.06 68.2871 25.1996C66.7508 24.1809 63.4417 22.5894 61.8008 24.2085C62.4005 24.6936 63.2491 24.6517 64.0174 24.7207C66.4593 24.9402 68.5625 26.4781 70.4447 28.0491Z" fill="#006766"/>
<path d="M62.6759 15.7305C62.8004 15.7895 62.9532 15.7482 63.0643 15.6665C63.1754 15.5849 63.255 15.4688 63.3391 15.3596C63.9934 14.5088 64.9992 13.9952 66.0244 13.6776C67.0496 13.3599 68.1195 13.2121 69.1565 12.9355C70.7466 12.5115 72.2407 11.7902 73.6946 11.0194C74.0243 10.8446 74.3762 10.6417 74.5187 10.2969C73.3578 10.3493 72.3741 11.0347 71.3403 11.4838C70.2158 11.9724 68.9916 12.1254 67.7888 12.3003C66.7823 12.4468 65.7669 12.6172 64.8335 13.021C63.9 13.4248 63.0439 14.0887 62.5986 15.0031C62.4794 15.248 62.4296 15.6138 62.6759 15.7305Z" fill="#006766"/>
<path d="M59.3934 16.9583C59.9096 19.2736 59.8229 21.9201 58.2939 23.7336C58.3303 23.7545 58.3676 23.769 58.4052 23.7777C58.6916 23.8442 59.003 23.5814 59.1904 23.3226C60.4976 21.5174 60.5412 19.073 60.0742 16.8937C59.6073 14.7144 58.6918 12.6499 58.2392 10.4676C58.0909 9.75245 57.14 8.91467 57.3834 10.1366C57.8468 12.463 58.8772 14.6431 59.3934 16.9583Z" fill="#006766"/>
<path d="M50.1234 36.4328C50.1879 36.254 50.2024 36.0649 50.1867 35.8752C50.1715 35.6917 50.1282 35.5078 50.0745 35.332C49.9121 34.7995 49.6583 34.2949 49.3277 33.8469C48.9734 33.367 48.4635 32.9247 47.8672 32.9378C47.403 32.948 46.9609 33.2669 46.8049 33.7042C46.6257 34.2063 46.8129 34.768 47.0882 35.2245C47.4956 35.9001 49.5531 38.0129 50.1234 36.4328Z" fill="#006766"/>
<path d="M93.5022 62.2401C93.9097 62.9158 95.9671 65.0285 96.5375 63.4484C96.602 63.2696 96.6165 63.0805 96.6008 62.8908C96.5856 62.7074 96.5422 62.5234 96.4886 62.3476C96.3262 61.8151 96.0724 61.3105 95.7418 60.8626C95.3875 60.3827 94.8776 59.9403 94.2812 59.9534C93.8171 59.9636 93.375 60.2826 93.2189 60.7198C93.0397 61.2218 93.227 61.7835 93.5022 62.2401Z" fill="#006766"/>
<path d="M31.0501 50.3711C30.9954 50.0797 30.8709 49.7979 30.8766 49.5014C30.8779 49.4338 30.8874 49.3628 30.9276 49.3084C31.0239 49.1779 31.224 49.2125 31.3804 49.2555C31.7329 49.3524 32.0928 49.4225 32.4559 49.4649C32.6526 49.4879 32.9237 49.4447 32.9369 49.2471C32.9462 49.1095 32.8115 49.01 32.6899 48.9451C32.1401 48.6513 31.5252 48.4802 30.9027 48.4477C30.6817 48.4362 30.4431 48.4365 30.2649 48.3054C30.1382 48.212 30.063 48.0661 29.9923 47.9255C29.5349 47.0174 29.0949 46.1001 28.633 45.1942C28.4058 44.7486 28.1733 44.3058 27.931 43.8682C27.8515 43.7247 27.7517 43.567 27.5907 43.5361C27.3992 43.4994 27.2194 43.676 27.1802 43.8669C27.141 44.0579 27.2032 44.2537 27.2667 44.4379C28.098 46.8484 29.301 49.1303 30.82 51.1783C31.0652 51.0117 31.1049 50.6625 31.0501 50.3711Z" fill="#006766"/>
<path d="M62.1524 71.5409C61.3633 70.9142 59.1364 70.5572 59.6666 72.28C59.8299 72.8107 60.295 73.1882 60.765 73.4839C61.1977 73.7562 61.6555 73.9883 62.1309 74.1765C62.3906 74.2793 62.6651 74.3703 62.9435 74.3478C63.222 74.3252 63.5061 74.1629 63.5935 73.8975C63.6023 73.871 63.6089 73.8442 63.6136 73.8174C63.6595 73.557 63.5245 73.2864 63.3857 73.0531C63.0511 72.4911 62.6646 71.9477 62.1524 71.5409Z" fill="#006766"/>
<path d="M70.9862 50.433C71.2262 50.3363 71.3789 50.0863 71.4211 49.8309C71.4336 49.755 71.4378 49.6785 71.4357 49.602C71.4309 49.4212 71.3908 49.2401 71.3425 49.0648C71.2039 48.5622 70.9958 48.0789 70.7257 47.633C70.5271 47.305 70.2904 46.9924 69.9795 46.768C69.2143 46.2153 68.1076 46.5328 68.0712 47.5791C68.0543 48.0658 68.2878 48.5282 68.5756 48.9211C68.9788 49.4715 69.501 49.9344 70.0959 50.2686C70.3684 50.4217 70.6963 50.5497 70.9862 50.433Z" fill="#006766"/>
<path d="M95.2209 49.7296C95.4934 49.8826 95.8213 50.0107 96.1112 49.894C96.3512 49.7973 96.5039 49.5473 96.5461 49.2919C96.5586 49.2159 96.5628 49.1394 96.5607 49.0629C96.5559 48.8822 96.5158 48.701 96.4675 48.5258C96.3289 48.0232 96.1208 47.5399 95.8507 47.0939C95.6521 46.766 95.4153 46.4534 95.1045 46.2289C94.3393 45.6762 93.2326 45.9938 93.1962 47.04C93.1793 47.5268 93.4128 47.9891 93.7006 48.3821C94.1038 48.9326 94.626 49.3954 95.2209 49.7296Z" fill="#006766"/>
<path d="M56.7977 59.0869C56.7808 59.5737 57.0144 60.036 57.3022 60.4289C57.7054 60.9794 58.2276 61.4422 58.8225 61.7764C59.0949 61.9295 59.4229 62.0576 59.7127 61.9408C59.9528 61.8441 60.1055 61.5941 60.1476 61.3388C60.1602 61.2628 60.1644 61.1863 60.1623 61.1098C60.1574 60.929 60.1174 60.7479 60.0691 60.5726C59.9305 60.07 59.7223 59.5867 59.4523 59.1407C59.2537 58.8128 59.0169 58.5002 58.7061 58.2757C57.9408 57.7231 56.8341 58.0407 56.7977 59.0869Z" fill="#006766"/>
<path d="M84.6468 56.2217C84.9192 56.3748 85.2472 56.5029 85.537 56.3861C85.777 56.2895 85.9297 56.0394 85.9719 55.7841C85.9844 55.7081 85.9886 55.6317 85.9865 55.5551C85.9816 55.3744 85.9416 55.1932 85.8933 55.0179C85.7547 54.5154 85.5465 54.0321 85.2765 53.5861C85.0779 53.2581 84.8412 52.9456 84.5303 52.7211C83.7651 52.1684 82.6583 52.486 82.622 53.5322C82.605 54.019 82.8386 54.4813 83.1264 54.8742C83.5297 55.4247 84.0519 55.8875 84.6468 56.2217Z" fill="#006766"/>
<path d="M38.9795 47.5492C38.2143 46.9965 37.1076 47.3141 37.0712 48.3603C37.0543 48.8471 37.2878 49.3094 37.5756 49.7023C37.9788 50.2528 38.501 50.7156 39.0959 51.0498C39.3684 51.2029 39.6963 51.331 39.9861 51.2142C40.2262 51.1175 40.3789 50.8675 40.421 50.6121C40.4335 50.5362 40.4378 50.4597 40.4357 50.3832C40.4308 50.2024 40.3908 50.0213 40.3425 49.846C40.2039 49.3434 39.9957 48.8601 39.7257 48.4142C39.5271 48.0863 39.2903 47.7737 38.9795 47.5492Z" fill="#006766"/>
<path d="M48.2467 46.7915C48.1841 46.1295 47.9542 45.484 47.5841 44.9316C46.9505 43.9859 45.2212 43.622 45.1313 45.1859C45.1007 45.7194 45.3643 46.2294 45.6976 46.6471C46.0639 47.1062 46.5231 47.491 47.0394 47.7712C47.2511 47.8861 47.4938 47.986 47.7274 47.9273C47.9479 47.8718 48.1154 47.6798 48.1923 47.4658C48.2531 47.2969 48.2651 47.1155 48.257 46.9352C48.2548 46.8872 48.2512 46.8392 48.2467 46.7915Z" fill="#006766"/>
<path d="M91.4679 31.9743C91.4657 31.9262 91.4621 31.8782 91.4576 31.8306C91.3951 31.1686 91.1651 30.5231 90.7951 29.9706C90.1615 29.0249 88.4321 28.6611 88.3423 30.2249C88.3116 30.7584 88.5753 31.2684 88.9085 31.6861C89.2749 32.1453 89.7341 32.53 90.2503 32.8103C90.4621 32.9252 90.7047 33.025 90.9384 32.9663C91.1589 32.9108 91.3263 32.7187 91.4033 32.5048C91.464 32.336 91.476 32.1546 91.4679 31.9743Z" fill="#006766"/>
<path d="M89.1061 82.979C89.0435 82.317 88.8136 81.6715 88.4435 81.1191C87.8099 80.1734 86.0806 79.8095 85.9907 81.3734C85.9601 81.9069 86.2237 82.4169 86.5569 82.8346C86.9233 83.2938 87.3825 83.6785 87.8988 83.9587C88.1105 84.0737 88.3532 84.1735 88.5868 84.1148C88.8073 84.0593 88.9747 83.8673 89.0517 83.6533C89.1124 83.4844 89.1245 83.303 89.1163 83.1227C89.1142 83.0747 89.1106 83.0267 89.1061 82.979Z" fill="#006766"/>
<path d="M83.6193 42.2955C84.0451 42.5739 84.976 42.9399 85.1587 42.1858C85.201 42.0108 85.1757 41.8271 85.1396 41.651C84.984 40.8934 84.6265 40.1782 84.1139 39.5991C83.901 39.3587 83.6559 39.1374 83.3601 39.0125C83.2343 38.9593 83.0981 38.9257 82.9614 38.9166C82.7766 38.9042 82.591 38.9367 82.4296 39.0264C82.0704 39.226 81.901 39.6737 81.9388 40.0828C81.9764 40.492 82.1872 40.8659 82.4358 41.193C82.7636 41.6244 83.1658 41.999 83.6193 42.2955Z" fill="#006766"/>
<path d="M61.4138 37.4185C61.6893 37.626 62.0571 37.8098 62.3651 37.6546C62.741 37.4651 62.7421 36.9316 62.6471 36.5216C62.4492 35.6678 62.0651 34.8512 61.4906 34.1893C60.9626 33.5809 59.8345 33.2769 59.6498 34.3693C59.635 34.4567 59.6304 34.5446 59.634 34.6323C59.645 34.901 59.7328 35.1683 59.8404 35.4177C60.1804 36.2054 60.7284 36.9023 61.4138 37.4185Z" fill="#006766"/>
<path d="M84.7758 66.3143C84.2477 65.7059 83.1196 65.4018 82.935 66.4942C82.9201 66.5817 82.9155 66.6696 82.9191 66.7573C82.9301 67.026 83.018 67.2933 83.1256 67.5427C83.4656 68.3304 84.0136 69.0273 84.6989 69.5435C84.9745 69.751 85.3422 69.9348 85.6503 69.7795C86.0261 69.59 86.0273 69.0566 85.9323 68.6465C85.7343 67.7928 85.3502 66.9762 84.7758 66.3143Z" fill="#006766"/>
<path d="M39.3965 37.5075C39.507 37.3347 39.5943 37.0613 39.3262 36.9964C39.1407 36.9515 38.9095 37.2811 38.8052 37.3874C38.4256 37.7743 38.0633 38.1792 37.7152 38.5945C37.0377 39.4024 36.4181 40.2588 35.8628 41.1551C35.2903 42.0794 34.7752 43.0825 34.6992 44.1671C34.7308 44.1672 34.7617 44.1649 34.7919 44.1604C35.1392 44.1092 35.3923 43.7696 35.5884 43.463C36.8578 41.4778 38.1272 39.4927 39.3965 37.5075Z" fill="#006766"/>
<path d="M64.5622 28.6299C65.1097 28.6279 65.2637 28.3007 65.2103 27.8537C65.1063 26.9849 64.2186 25.6632 63.912 25.3949C63.6 25.1219 63.1786 24.8907 62.7855 25.0224C62.4508 25.1347 62.2429 25.4931 62.2211 25.8455C62.1993 26.1978 62.3318 26.5424 62.5007 26.8524C62.8287 27.4547 63.3036 27.9756 63.8702 28.3618C64.0778 28.5033 64.3109 28.6309 64.5622 28.6299Z" fill="#006766"/>
<path d="M47.0776 56.6352C46.4877 55.6991 44.7773 55.2186 44.5364 56.7212C44.4591 57.2039 44.6544 57.7023 44.9723 58.0738C45.2901 58.4452 45.7196 58.7045 46.1624 58.9118C46.4904 59.0655 46.8903 59.1905 47.1999 59.0023C47.4598 58.8443 47.5516 58.5269 47.5569 58.2128C47.5582 58.1351 47.5542 58.0576 47.5462 57.9827C47.495 57.5058 47.3334 57.041 47.0776 56.6352Z" fill="#006766"/>
<path d="M71.3107 35.1982C71.0529 35.3395 70.9241 35.6516 70.9299 35.9455C70.9356 36.2394 71.0542 36.519 71.1893 36.7801C71.5777 37.5301 72.1221 38.1988 72.7778 38.7312C72.9573 38.877 73.1625 39.0187 73.3937 39.0186C73.602 39.0186 73.805 38.8903 73.8943 38.7021C74.2645 37.9222 73.106 36.2701 72.6418 35.7203C72.4748 35.5225 72.2894 35.3322 72.0573 35.2174C71.9684 35.1734 71.8713 35.142 71.7725 35.127C71.6137 35.103 71.4506 35.1215 71.3107 35.1982Z" fill="#006766"/>
<path d="M95.4233 74.1119C95.1807 74.0926 94.9365 74.1817 94.7038 74.4268C94.4397 74.705 94.3733 75.1311 94.4643 75.5036C94.5554 75.8762 94.7843 76.2014 95.047 76.4807C95.4476 76.9067 95.938 77.2479 96.4766 77.4754C96.6768 77.5599 96.9032 77.6292 97.1078 77.5561C97.3273 77.4775 97.4651 77.2468 97.4941 77.0155C97.5232 76.7841 97.4619 76.5512 97.3877 76.3302C97.1769 75.702 96.3105 74.1825 95.4233 74.1119Z" fill="#006766"/>
<path d="M56.4413 47.414C56.8165 47.8642 58.3534 49.2626 58.6926 48.0387C58.7166 47.952 58.7257 47.863 58.7247 47.7733C58.7232 47.6429 58.7003 47.5113 58.6708 47.3838C58.5281 46.7676 58.2311 46.1878 57.8143 45.7121C57.4594 45.3069 56.9055 44.9586 56.4064 45.1607C55.9989 45.3257 55.7987 45.8184 55.8523 46.2547C55.9059 46.691 56.1599 47.0763 56.4413 47.414Z" fill="#006766"/>
<path d="M54.0018 77.4933C53.6469 77.0882 53.093 76.7399 52.5939 76.942C52.1864 77.1069 51.9862 77.5997 52.0398 78.0359C52.0934 78.4723 52.3474 78.8575 52.6289 79.1953C53.0041 79.6454 54.541 81.0439 54.8801 79.8199C54.9041 79.7333 54.9132 79.6442 54.9122 79.5545C54.9107 79.4241 54.8879 79.2925 54.8584 79.1651C54.7156 78.5489 54.4185 77.9691 54.0018 77.4933Z" fill="#006766"/>
<path d="M74.8867 76.5625C75.2618 77.0127 76.7988 78.4111 77.1379 77.1872C77.1619 77.1004 77.171 77.0114 77.17 76.9218C77.1685 76.7914 77.1456 76.6597 77.1161 76.5323C76.9734 75.9161 76.6763 75.3363 76.2596 74.8605C75.9048 74.4554 75.3508 74.1071 74.8517 74.3092C74.4442 74.4741 74.244 74.9668 74.2976 75.4032C74.3511 75.8395 74.6052 76.2248 74.8867 76.5625Z" fill="#006766"/>
<path d="M72.2727 63.8393C72.4007 63.8925 72.5385 63.9411 72.6752 63.9183C72.9145 63.8783 73.0703 63.624 73.0796 63.3815C73.0818 63.3237 73.0777 63.2665 73.0686 63.2099C73.0399 63.0294 72.9618 62.8554 72.8823 62.6887C72.6313 62.1622 72.3505 61.6422 71.959 61.2097C71.4531 60.6507 69.8186 59.7561 69.7931 61.2151C69.7865 61.597 69.9889 61.9509 70.2199 62.255C70.7489 62.9513 71.465 63.504 72.2727 63.8393Z" fill="#006766"/>
<path d="M42.8198 66.2825C42.5688 65.756 42.288 65.236 41.8965 64.8035C41.3906 64.2444 39.7561 63.3498 39.7306 64.8088C39.724 65.1907 39.9264 65.5446 40.1574 65.8487C40.6864 66.5451 41.4026 67.0978 42.2102 67.4331C42.3382 67.4862 42.476 67.5348 42.6128 67.512C42.852 67.4721 43.0079 67.2177 43.0171 66.9753C43.0193 66.9175 43.0152 66.8602 43.0062 66.8037C42.9775 66.6232 42.8993 66.4493 42.8198 66.2825Z" fill="#006766"/>
<path d="M24.631 34.9421C25.5757 34.8277 26.5662 34.7547 27.3778 34.2578C27.227 34.3502 26.6034 34.2065 26.4109 34.2013C26.0558 34.1915 25.7004 34.1937 25.3455 34.208C24.6933 34.2343 24.0435 34.3077 23.3954 34.3824C21.9521 34.5485 20.5132 34.7535 19.081 34.9971C18.5147 35.0934 17.9722 35.3263 17.5122 35.6703C17.5068 35.6743 17.5014 35.6783 17.4961 35.6824C19.8858 35.8612 22.2519 35.2302 24.631 34.9421Z" fill="#006766"/>
<path d="M50.0101 67.1982C49.2468 66.6161 48.0225 67.1633 48.2973 68.2052C48.4395 68.7444 48.943 69.1219 49.4722 69.2979C49.7103 69.377 49.9656 69.4243 50.2124 69.3794C50.4593 69.3346 50.6965 69.1853 50.7994 68.9564C50.8108 68.931 50.8204 68.9053 50.8283 68.8793C50.9194 68.5796 50.7864 68.2435 50.6289 67.9639C50.4667 67.676 50.2729 67.3986 50.0101 67.1982Z" fill="#006766"/>
<path d="M52.2724 21.7982C52.302 21.5218 52.125 21.2703 51.9569 21.0488C51.2822 20.16 49.6186 17.6546 48.3235 17.829C48.2946 17.9137 48.3097 17.9909 48.3511 18.0704C49.1931 19.6878 50.7627 20.7759 52.2724 21.7982Z" fill="#006766"/>
<path d="M77.9411 7.83921C79.12 7.24666 80.3548 6.85404 81.6562 6.64855C82.223 6.55901 82.7849 6.43429 83.3449 6.3076C83.5409 6.26326 83.7502 6.18101 83.5664 5.8125C81.6942 6.10115 79.7884 6.33828 78.0162 7.15314C77.6056 7.34195 77.114 7.45742 76.9531 7.98785C77.3498 8.33857 77.6539 7.98353 77.9411 7.83921Z" fill="#006766"/>
<path d="M52.4332 17.5994C52.5923 17.7314 52.8074 17.8631 52.9917 17.7696C52.9908 17.7673 52.9899 17.7651 52.989 17.7629C52.5053 16.5554 51.7934 15.4397 50.9022 14.4922C50.7081 14.2859 50.3916 14.0771 50.1705 14.2543C49.9466 14.4339 50.0885 14.7921 50.2499 15.0295C50.8775 15.9526 51.5695 16.8826 52.4332 17.5994Z" fill="#006766"/>
<path d="M46.3171 21.6795C47.4816 22.6771 48.6461 23.6748 49.8105 24.6724C49.997 24.8322 50.2894 24.9908 50.4599 24.814C50.5737 24.6961 48.5054 22.7467 48.3045 22.5725C47.8797 22.2041 47.4366 21.8572 46.9781 21.5317C46.8886 21.4682 46.4317 21.1336 46.1883 21.097C46.0603 21.0777 45.9914 21.1408 46.0658 21.369C46.1076 21.4973 46.2146 21.5917 46.3171 21.6795Z" fill="#006766"/>
<path d="M21.9495 39.1658C21.8323 39.198 21.7449 39.3561 21.6588 39.4337C21.3904 39.6757 21.1496 39.9593 20.8994 40.2201C20.4177 40.7222 19.939 41.2273 19.4635 41.7353C19.3625 41.8432 19.2546 41.9701 19.2665 42.1175C19.2825 42.3147 19.5196 42.4314 19.7138 42.3935C19.9079 42.3556 20.0625 42.2129 20.2023 42.0729C21.0443 41.23 21.7623 40.2635 22.3262 39.2141C22.3088 39.2454 22.0071 39.15 21.9495 39.1658Z" fill="#006766"/>
<path d="M25.7477 38.6818C25.5917 38.7061 25.3383 38.9347 25.2275 39.0538C24.9471 39.3553 24.6866 39.6745 24.4395 40.0038C23.943 40.6655 23.5047 41.3685 23.0673 42.0699C22.9718 42.223 22.881 42.4371 23.0071 42.5661C23.0893 42.6502 23.2315 42.6465 23.3344 42.5896C23.4373 42.5328 23.51 42.435 23.5792 42.34C24.2828 41.3753 24.9733 40.401 25.6503 39.4175C25.7347 39.2949 25.8207 39.1682 25.8535 39.0229C25.9162 38.7449 25.855 38.6651 25.7477 38.6818Z" fill="#006766"/>
<path d="M34.0277 28.2621C34.0295 28.225 34.0205 28.1877 33.9978 28.1513C33.9218 28.0295 33.7472 28.0308 33.6045 28.0465C32.7038 28.1459 31.8261 28.2544 30.9848 28.6162C30.8054 28.6933 30.603 28.8182 30.6016 29.0135C30.6005 29.1596 30.7241 29.2834 30.8629 29.3291C31.0017 29.3748 31.1524 29.3591 31.2971 29.3392C32.1285 29.2243 32.942 28.9808 33.6999 28.6202C33.8511 28.5482 34.0209 28.4068 34.0277 28.2621Z" fill="#006766"/>
<path d="M86.991 26.4386C86.9883 26.3869 87.0064 26.3177 86.9799 26.2862C86.2049 25.3627 85.203 24.7425 84.1448 24.207C84.0568 24.1624 83.8261 24.2533 83.762 24.3486C83.6959 24.447 83.691 24.6917 83.7648 24.7627C84.626 25.5911 85.605 26.2396 86.7577 26.5925C86.8145 26.6099 86.9124 26.4931 86.991 26.4386Z" fill="#006766"/>
<path d="M31.5488 26.317C31.5526 26.3129 31.556 26.3086 31.5591 26.3042C31.6081 26.2344 31.5785 26.1267 31.5127 26.069C31.4427 26.0076 31.3461 25.9885 31.2541 25.9741C30.3007 25.8245 29.0908 25.8791 28.2042 26.2987C27.9827 26.4035 27.7415 26.6017 27.7972 26.8402C29.002 27.1011 30.2446 26.7393 31.424 26.3809C31.4693 26.3671 31.5169 26.3519 31.5488 26.317Z" fill="#006766"/>
<path d="M23.4517 20.102C23.4475 20.137 23.4487 20.1717 23.4548 20.2055C23.4801 20.348 23.5891 20.4753 23.7193 20.5467C23.8804 20.635 24.0686 20.6558 24.2513 20.6749C24.6899 20.7209 25.1286 20.7668 25.5672 20.8127C25.8868 20.8462 26.3097 20.8133 26.3913 20.5025C26.4253 20.3727 23.5616 19.2044 23.4517 20.102Z" fill="#006766"/>
<path d="M18.5006 39.3594C18.2514 39.3522 17.7053 39.8762 17.5778 39.9879C17.1761 40.3396 16.8038 40.7237 16.4406 41.1146C16.2579 41.3111 16.0642 41.5771 16.1712 41.8233C16.2053 41.9017 16.2734 41.969 16.3575 41.9846C16.4764 42.0068 16.5876 41.926 16.6813 41.8496C17.3639 41.2937 18.0453 40.7056 18.4907 39.9464C18.5515 39.8427 18.6087 39.7328 18.6214 39.6133C18.6407 39.4324 18.5896 39.3621 18.5006 39.3594Z" fill="#006766"/>
<path d="M33.9734 30.5956C34.7642 30.3221 35.7064 30.3953 36.44 29.5639C36.0882 29.5285 35.878 29.4533 35.6977 29.4984C34.7986 29.7229 33.9062 29.975 33.0161 30.2333C32.9544 30.2512 32.9303 30.3987 32.8594 30.5479C33.2164 30.8544 33.6082 30.7219 33.9734 30.5956Z" fill="#006766"/>
<path d="M38.2478 41.559C38.2626 41.0891 37.5266 41.904 37.4523 41.999C37.0562 42.5047 36.7185 43.0562 36.4482 43.6389C36.3741 43.7987 36.3293 44.0329 36.4741 44.1187C36.4797 44.1221 36.4856 44.1252 36.4918 44.1281C36.6466 44.1999 36.802 44.0353 36.8935 43.8912C37.3354 43.1943 37.7609 42.4869 38.1695 41.7699C38.2071 41.7041 38.2454 41.6347 38.2478 41.559Z" fill="#006766"/>
<path d="M14.8592 38.9535C14.7078 38.9745 14.5097 39.1848 14.3886 39.2728C14.0328 39.5313 13.6827 39.7976 13.3391 40.072C13.2517 40.1418 13.1627 40.2143 13.1064 40.311C13.05 40.4076 13.0323 40.5349 13.0912 40.63C13.1537 40.7309 13.2868 40.7697 13.4044 40.7531C13.5219 40.7364 13.6276 40.6747 13.7285 40.6121C14.3543 40.2235 14.9414 39.7305 15.2792 39.0758C15.2811 39.0595 14.9122 38.9461 14.8592 38.9535Z" fill="#006766"/>
<path d="M76.293 21.8117C77.1497 22.3191 77.8092 22.3372 78.9406 21.782C77.2343 21.4623 77.136 21.4652 76.293 21.8117Z" fill="#006766"/>
<path d="M32.6978 37.0526C32.823 37.0581 32.9446 37.0132 33.0602 36.9648C33.6538 36.7165 34.2142 36.3414 34.5655 35.8027C34.5688 35.7976 34.5722 35.7924 34.5755 35.7873C34.5976 35.7528 33.8174 35.7893 33.7075 35.8258C33.3554 35.9428 33.0088 36.1581 32.6988 36.3582C32.5207 36.4732 32.3252 36.663 32.3987 36.8619C32.4422 36.9794 32.5726 37.0471 32.6978 37.0526Z" fill="#006766"/>
<path d="M29.1357 43.7161C29.2034 43.7204 29.3456 43.591 29.3411 43.5322C29.2908 42.8686 28.7613 42.6006 28.2823 42.2954C28.2406 42.2688 28.1825 42.2599 28.1314 42.258C28.0801 42.256 28.0281 42.2728 27.926 42.2897C27.8713 42.3897 27.7952 42.513 27.7372 42.6444C27.7199 42.6837 27.7382 42.7557 27.7655 42.7953C28.1011 43.2818 28.5058 43.6758 29.1357 43.7161Z" fill="#006766"/>
<path d="M81.4076 26.9917C80.6718 26.3445 80.0843 26.1682 79.4666 26.1099C79.3339 26.0974 79.1811 26.2968 78.9766 26.4418C79.6842 27.038 80.3596 27.1891 81.4076 26.9917Z" fill="#006766"/>
<path d="M28.915 45.3628C28.9147 45.3637 28.9144 45.3646 28.9141 45.3655C29.258 45.5586 29.6046 45.7518 29.977 45.8819C30.3467 46.011 30.7516 46.0757 31.1405 46.0058C31.1309 46.0075 30.7435 45.5388 30.6902 45.494C30.5057 45.3391 30.297 45.2129 30.0742 45.1213C29.6659 44.9535 29.102 44.8275 28.915 45.3628Z" fill="#006766"/>
<path d="M80.3221 24.3906C79.1516 23.7857 79.1055 23.778 77.8281 23.9722C78.0334 24.1422 78.1644 24.3405 78.3239 24.367C78.9506 24.471 79.5904 24.6846 80.3221 24.3906Z" fill="#006766"/>
<path d="M30.0273 46.8829C30.2454 47.2617 30.6383 47.519 31.0581 47.6407C31.4779 47.7623 31.9246 47.7598 32.3589 47.711C32.2854 47.7192 31.5037 47.0223 31.3071 46.9505C30.8857 46.7966 30.4583 46.7675 30.0273 46.8829Z" fill="#006766"/>
<path d="M73.6836 19.6437C73.9819 20.0709 74.2697 19.9848 74.5565 19.9136C75.4652 19.688 75.4654 19.6888 75.831 19.1554C74.8412 19.089 74.8398 19.0847 73.6836 19.6437Z" fill="#006766"/>
<path d="M70.7383 18.3354C71.7462 18.5149 72.0409 18.3974 72.5762 17.5859C71.8469 17.6479 71.2391 17.7321 70.7383 18.3354Z" fill="#006766"/>
<path d="M11.7732 38.444C11.6026 38.5321 11.1847 39.1919 11.1367 39.1991C11.3766 39.1626 11.6131 39.1045 11.8427 39.0259C11.9325 38.9951 12.0242 38.9594 12.0915 38.8925C12.4345 38.552 12.188 38.2298 11.7732 38.444Z" fill="#006766"/>
<path d="M69.4293 17.4375C69.2886 17.6476 69.1873 17.7989 69.0859 17.9502C69.2167 18.0003 69.363 18.1118 69.4738 18.0836C69.5907 18.0538 69.7176 17.9035 69.7529 17.7807C69.7704 17.7201 69.5918 17.6029 69.4293 17.4375Z" fill="#006766"/>
</g>
</svg>
