<svg width="77" height="120" viewBox="0 0 77 120" fill="none" xmlns="http://www.w3.org/2000/svg">
<g opacity="0.15">
<path fill-rule="evenodd" clip-rule="evenodd" d="M41.1276 22.1077C38.4634 20.1756 35.6859 19.0443 32.3973 18.5415C28.0773 17.8808 23.6421 18.52 19.2082 19.3769C14.9664 20.197 10.7256 21.2165 6.59242 21.3574C6.4879 21.3513 5.70767 21.3095 5.40822 21.3788C4.96181 21.482 4.69764 21.7436 4.56134 21.9821C4.25719 22.5144 4.28209 23.3421 5.18669 24.08C6.56738 25.2064 10.9091 26.7916 12.5123 27.1869C14.7385 27.7355 17.0602 28.7585 19.3776 28.7203C19.7982 28.7133 20.48 28.6032 21.2912 28.4446C21.0751 28.6121 20.8186 28.8269 20.5301 29.0816C18.9948 29.7583 14.3138 31.7209 12.8476 32.8019C5.1021 38.5143 0.487688 50.3155 0.0572727 59.5698C-0.368232 68.7185 1.69679 77.9418 2.30629 87.0398C2.54072 90.5416 2.66474 101.826 3.65765 109.394C3.9214 111.406 4.24891 113.163 4.64966 114.465C4.96209 115.481 5.3394 116.248 5.7379 116.719C8.13535 119.553 12.1081 120.339 16.4423 119.876C22.5286 119.225 29.314 116.161 32.7717 113.848C37.407 110.746 41.6556 107.074 46.19 103.825C52.5583 99.2618 59.6422 94.3304 65.0177 88.3319C70.5332 82.1768 74.2618 74.9082 73.7568 65.8135C73.5684 62.4256 72.5708 58.3232 70.4881 54.525C71.47 54.2793 72.4197 53.869 73.3198 53.269C73.6398 53.0556 73.767 52.7939 73.8247 52.5588C73.8783 52.3405 73.8714 52.1155 73.7897 51.8857C73.7296 51.7176 73.6126 51.5163 73.4018 51.3355C73.2898 51.2393 72.9677 51.0407 72.8869 50.9919C72.4758 50.5801 72.0729 50.1599 71.6788 49.732C70.3098 48.2456 69.6346 46.3772 68.5392 44.71C66.5069 41.6173 63.4436 38.9926 60.2739 37.0171C62.4385 37.4642 64.6432 37.704 66.9812 37.6232C67.9308 37.5908 72.4206 36.5467 74.6951 35.1537C75.4537 34.6892 75.9885 34.1595 76.2408 33.6518C76.5138 33.1029 76.5415 32.5432 76.297 31.9813C76.1222 31.579 75.7061 31.2625 75.3155 31.1215C72.6403 30.1554 69.146 30.2839 66.3331 29.703C61.9421 28.7962 57.7533 27.0879 53.457 25.8527C52.4364 25.5593 51.1216 25.5559 49.8403 25.5438C49.0776 25.5363 48.328 25.5393 47.7089 25.4016C47.738 25.3097 47.7736 25.2126 47.8132 25.1318C48.2321 24.2736 49.1045 23.204 50.2088 22.0202C53.9152 18.0482 60.1819 12.9908 62.6536 10.6497C63.1496 10.1799 63.5074 9.80126 63.698 9.54565C63.8908 9.28758 63.9795 9.06515 64.0158 8.9144C64.1344 8.41967 64.0797 7.78632 63.8719 7.10737C63.5327 6.00152 62.7737 4.70544 62.4858 3.98132C62.288 3.48371 62.083 2.67352 61.7949 1.97655C61.5266 1.32721 61.1749 0.768709 60.7714 0.436498C60.3505 0.0901178 59.8147 -0.0660975 59.1631 0.0260041C58.5851 0.107724 57.8534 0.42794 57.0394 0.983987C52.6749 3.96491 44.8435 14.2396 43.7196 16.1778C42.9032 17.5859 42.1367 19.055 41.6098 20.5992C41.4387 21.1 41.2768 21.6013 41.1276 22.1077ZM16.1682 33.4476C15.3229 33.8626 14.5917 34.2602 14.1587 34.5795C6.90857 39.9265 2.66642 51.0099 2.2635 59.6723C1.84192 68.7382 3.90569 77.8764 4.50992 86.892C4.74309 90.372 4.86108 101.586 5.8474 109.107C6.09256 110.975 6.38893 112.607 6.76049 113.815C6.96279 114.473 7.16621 114.988 7.424 115.293C9.37925 117.603 12.6727 118.058 16.2075 117.68C21.9241 117.068 28.2955 114.185 31.5435 112.012C36.1592 108.924 40.3882 105.264 44.9036 102.029C51.1461 97.5563 58.1034 92.7381 63.3728 86.8577C68.5022 81.1336 72.0214 74.3939 71.5513 65.9359C71.3661 62.5986 70.3223 58.5052 68.108 54.8143C66.7409 54.8191 65.3415 54.5666 63.9527 54.1204C59.3941 52.6572 54.954 49.0877 52.3793 46.264C51.078 44.8372 49.784 43.471 48.731 41.9048C48.7534 43.3987 48.7456 44.8829 48.6606 45.74C48.1669 50.7272 45.6581 55.4421 43.8998 60.0667C43.1905 61.9329 42.6429 63.8714 41.902 65.7229C41.8345 65.8917 41.6628 66.2772 41.4594 66.4844C41.141 66.8086 40.7507 66.9313 40.3367 66.8622C39.9809 66.8028 39.6307 66.6234 39.3227 66.2769C38.9741 65.884 38.6405 65.1536 38.4068 64.1512C37.3549 59.6419 37.6741 48.6415 38.1149 46.5295L38.1414 46.4068C37.8988 46.7665 37.6509 47.1224 37.3953 47.4733C33.3138 53.0768 26.2738 56.1559 20.8781 60.3298C20.6948 60.4718 19.5804 61.4237 18.9739 61.6505C18.336 61.889 17.8416 61.7001 17.551 61.436C17.2856 61.1947 17.0613 60.8009 17.0528 60.2074C17.0449 59.6525 17.2695 58.7273 17.7296 57.5559C19.6636 52.63 25.7493 42.4611 29.4635 37.6724C28.8426 37.9413 28.2266 38.2233 27.6161 38.5234C24.1249 40.2381 20.0977 40.4509 16.3997 41.5504C15.361 41.859 14.3465 42.231 13.4148 42.7935C13.3394 42.8392 12.5995 43.3224 12.1932 43.5C11.8423 43.6533 11.5448 43.6596 11.39 43.6375C11.0926 43.595 10.8788 43.4593 10.7223 43.2952C10.5399 43.1044 10.4077 42.8532 10.4077 42.5071C10.4077 41.4585 11.1772 39.8069 12.4431 38.0065C13.4751 36.5394 14.8168 34.9333 16.1682 33.4476ZM59.4526 2.22564C59.6356 2.43762 59.7482 2.78533 59.8722 3.128C60.0937 3.73792 60.2663 4.3768 60.4333 4.79677C60.6725 5.39876 61.2533 6.40718 61.6215 7.35864C61.7518 7.69541 61.8875 8.01092 61.883 8.26927C61.6758 8.48448 60.9065 9.27264 60.0622 10.0258C57.126 12.6443 51.8715 17.0008 48.5938 20.5135C47.062 22.1551 45.9594 23.6513 45.5895 24.7344C45.329 25.4976 45.375 26.1432 45.6246 26.6424C45.7587 26.9106 45.97 27.1056 46.2367 27.2285C46.9996 27.5807 48.0108 27.7073 49.0971 27.7394C50.3847 27.7773 51.7989 27.6739 52.8466 27.9751C57.1967 29.2257 61.4404 30.9476 65.8863 31.8657C68.3802 32.3807 71.4331 32.2872 73.915 32.9911C73.7978 33.0908 73.6657 33.1944 73.5416 33.2703C71.5828 34.4697 67.7229 35.3879 66.9047 35.4159C62.4755 35.5689 58.5598 34.4696 54.4316 33.0486C54.292 33.0005 53.5379 32.6596 53.1606 32.5861C52.6366 32.4841 52.2649 32.6693 52.084 32.8138C51.8484 33.0025 51.264 33.7191 52.0039 34.4889C52.2491 34.7442 53.7862 35.7844 53.8936 35.8507C55.2266 36.6751 56.6013 37.4373 57.9639 38.2114C61.2598 40.083 64.5883 42.7194 66.6934 45.9228C67.8551 47.6906 68.6025 49.6522 70.0542 51.2285C70.3202 51.5172 70.5899 51.8025 70.8638 52.084C68.9149 52.8759 66.7536 52.7003 64.6279 52.0177C60.4399 50.6733 56.3769 47.3702 54.0116 44.776C52.2923 42.8905 50.5507 41.1476 49.5075 38.7737C49.2745 38.243 49.0952 37.6845 48.9409 37.1264C48.9297 37.085 48.8217 36.6407 48.7305 36.4116C48.6412 36.1868 48.5235 36.0325 48.4459 35.9519C47.9937 35.4821 47.5123 35.5301 47.1309 35.721C46.9506 35.8109 46.7604 35.9599 46.6131 36.2158C46.5023 36.4085 46.3774 36.8307 46.3471 37.4393C46.259 39.2188 46.6585 43.5476 46.4628 45.5224C45.988 50.318 43.5261 54.8352 41.8355 59.2821C41.3411 60.5826 40.9261 61.9188 40.4683 63.2358C40.387 62.8199 40.3166 62.3548 40.2545 61.8528C39.6484 56.956 39.9105 48.7362 40.2768 46.9807C40.6725 45.0873 41.2647 43.2489 41.8311 41.4014C41.845 41.3558 41.9986 40.9016 42.0459 40.6383C42.0867 40.4108 42.0738 40.2233 42.0522 40.1095C41.9516 39.5829 41.6152 39.3463 41.2988 39.2409C40.9927 39.1386 40.5907 39.1373 40.1916 39.4298C39.9515 39.6058 39.6032 40.1255 39.5344 40.2247C38.1774 42.1752 37.01 44.2509 35.61 46.1727C31.7103 51.5267 24.9772 54.4402 19.7737 58.3936L19.785 58.363C21.9649 52.8114 29.5881 40.3342 32.658 37.3337C32.7492 37.2447 33.3833 36.7238 33.8204 36.3008C34.1119 36.0189 34.3292 35.7498 34.4174 35.5888C34.6565 35.1525 34.5855 34.7846 34.4956 34.5597C34.3719 34.2508 34.1356 33.9848 33.7103 33.8813C33.5803 33.8495 33.3755 33.828 33.1304 33.8803C32.9319 33.923 32.596 34.0621 32.5508 34.0788C30.5397 34.8196 28.5656 35.5964 26.6425 36.5411C23.2619 38.2017 19.3513 38.369 15.7702 39.4335C15.0411 39.6502 14.324 39.8976 13.6314 40.2029C13.8194 39.9039 14.027 39.5944 14.2499 39.2771C16.7398 35.7362 21.125 31.3326 22.7268 30.126C23.9604 29.1974 25.333 28.5345 26.7697 27.9902C27.2349 27.8139 27.6996 27.6353 28.1757 27.4914C28.3221 27.4473 28.6487 27.4151 28.8085 27.369C29.0862 27.2888 29.2658 27.1514 29.3617 27.0572C29.6946 26.7297 29.7542 26.3607 29.6722 26.0022C29.6259 25.7987 29.5167 25.4583 29.0475 25.2238C28.8537 25.127 28.5761 25.0465 28.2184 25.024C27.7561 24.995 27.0683 25.0587 26.2625 25.1894C23.9652 25.5617 20.5421 26.4925 19.3417 26.512C17.21 26.5471 15.0885 25.5472 13.0409 25.0424C12.1154 24.8142 10.1722 24.1555 8.56871 23.4446C12.2088 23.1171 15.9187 22.2624 19.6276 21.5456C23.809 20.7372 27.9893 20.1018 32.0635 20.7249C34.9986 21.1739 37.477 22.1832 39.8545 23.9122C40.1394 24.1194 40.5987 24.3382 41.2954 24.6013L41.2948 24.601C41.4124 24.6568 41.5381 24.689 41.6686 24.7019C41.7693 24.712 42.4298 24.7805 42.7775 24.0788C42.8383 23.9557 43.0939 23.2677 43.1074 23.2181C43.2843 22.5753 43.4844 21.9433 43.7 21.3123C44.1802 19.9049 44.8856 18.5692 45.63 17.2855C46.5709 15.6631 52.4211 7.93075 56.665 4.11172C57.5082 3.35289 58.2774 2.75286 58.9248 2.41903C59.0961 2.33072 59.34 2.25721 59.4526 2.22564Z" fill="white"/>
<path fill-rule="evenodd" clip-rule="evenodd" d="M12.371 69.8825C12.1886 71.4444 12.0556 73.723 11.8982 75.6432C11.8487 76.2508 12.3015 76.7843 12.909 76.8339C13.5163 76.8838 14.0498 76.431 14.0997 75.8236C14.2549 73.9286 14.3846 71.68 14.5644 70.1387C14.6351 69.5334 14.2012 68.9845 13.5958 68.9138C12.9903 68.8432 12.4417 69.2774 12.371 69.8825Z" fill="white"/>
<path fill-rule="evenodd" clip-rule="evenodd" d="M21.3792 80.7794C20.9529 82.3677 20.4743 83.9377 20.0166 85.5172C19.8468 86.1025 20.1843 86.7155 20.7696 86.8853C21.3552 87.055 21.9682 86.7174 22.1377 86.132C22.5996 84.5385 23.0823 82.9542 23.5124 81.3517C23.6701 80.763 23.3204 80.1569 22.7317 79.9988C22.1433 79.841 21.537 80.1906 21.3792 80.7794Z" fill="white"/>
<path fill-rule="evenodd" clip-rule="evenodd" d="M33.2621 71.2916C32.8107 73.0545 32.3099 74.7062 31.8338 76.4134C31.67 77.0006 32.0139 77.6102 32.6012 77.7735C33.1881 77.9374 33.7976 77.5937 33.9614 77.0066C34.4416 75.2842 34.946 73.618 35.4017 71.8394C35.5529 71.2491 35.1962 70.6471 34.6056 70.4956C34.0153 70.3446 33.4133 70.7011 33.2621 71.2916Z" fill="white"/>
<path fill-rule="evenodd" clip-rule="evenodd" d="M48.0933 78.1453C47.557 78.9449 46.1927 80.8237 45.2427 82.1631C44.8898 82.6603 45.0073 83.35 45.5042 83.7029C46.0014 84.0555 46.6911 83.9382 47.0439 83.4409C48.0053 82.0859 49.3851 80.1845 49.9274 79.3755C50.267 78.8694 50.1315 78.1829 49.6254 77.8434C49.1193 77.5038 48.4325 77.6392 48.0933 78.1453Z" fill="white"/>
<path fill-rule="evenodd" clip-rule="evenodd" d="M59.2916 67.694C58.9808 68.1341 57.9967 69.3984 57.3496 70.2509C56.981 70.7362 57.0761 71.4297 57.5614 71.7982C58.047 72.1666 58.7401 72.0717 59.1086 71.5861C59.7712 70.7134 60.7777 69.4183 61.0957 68.9677C61.4472 68.4698 61.3282 67.7801 60.8304 67.4285C60.3325 67.0771 59.6431 67.1961 59.2916 67.694Z" fill="white"/>
<path fill-rule="evenodd" clip-rule="evenodd" d="M39.7811 95.0975C38.6122 96.1315 37.2677 97.3963 36.011 98.546C35.5615 98.9574 35.5302 99.6563 35.9415 100.106C36.353 100.556 37.0521 100.587 37.5018 100.176C38.7493 99.0342 40.084 97.7781 41.2444 96.7514C41.701 96.3475 41.7436 95.6491 41.3397 95.1928C40.9358 94.7363 40.2372 94.6933 39.7811 95.0975Z" fill="white"/>
<path fill-rule="evenodd" clip-rule="evenodd" d="M20.3036 98.1594C18.9589 100.271 18.3389 101.24 17.3567 102.78C17.029 103.294 17.1804 103.978 17.694 104.305C18.208 104.633 18.8914 104.482 19.2189 103.968C20.2015 102.427 20.8215 101.458 22.1665 99.346C22.494 98.8317 22.3422 98.1486 21.8283 97.8211C21.3143 97.494 20.6308 97.6454 20.3036 98.1594Z" fill="white"/>
</g>
</svg>
