<svg width="42" height="40" viewBox="0 0 42 40" fill="none" xmlns="http://www.w3.org/2000/svg">
<path opacity="0.3" d="M20.9995 32.9271L21.257 33.0818L31.4363 39.1969L31.4468 39.2032L31.4467 39.2033C31.8123 39.4353 32.1749 39.5251 32.5478 39.4941C32.9477 39.4608 33.2835 39.3306 33.5705 39.1081C33.8758 38.8713 34.1129 38.5767 34.2843 38.2185C34.4328 37.9066 34.4718 37.5455 34.3711 37.1097L20.9995 32.9271ZM20.9995 32.9271L20.7421 33.0818L10.5628 39.1969L10.5627 39.1967L10.5524 39.2033C10.1867 39.4353 9.82416 39.5251 9.45132 39.4941C9.05142 39.4608 8.71558 39.3306 8.42862 39.1081L8.12218 39.5032L8.42861 39.1081C8.1234 38.8713 7.88633 38.577 7.71493 38.2189C7.56627 37.9068 7.5272 37.5455 7.62805 37.1092C7.62809 37.1091 7.62813 37.1089 7.62817 37.1087L10.3261 25.5522L10.3949 25.2574L10.1655 25.0598L1.15537 17.2971C0.815528 16.991 0.624262 16.6633 0.548471 16.3122L0.548035 16.3102C0.465359 15.9346 0.489392 15.5731 0.620224 15.2143C0.757784 14.8371 0.957794 14.5435 1.21506 14.319L0.886329 13.9423L1.21506 14.319C1.44677 14.1169 1.79222 13.9619 2.29286 13.8888L14.1751 12.8505L14.475 12.8243L14.5922 12.547L19.1912 1.66222L19.192 1.66037C19.357 1.26546 19.6028 0.987384 19.9296 0.801524L19.9303 0.801118C20.2907 0.595329 20.6451 0.5 20.9995 0.5C21.3539 0.5 21.7092 0.595277 22.0715 0.801236C22.3966 0.986914 22.6419 1.26498 22.8071 1.66037L22.8078 1.66221L27.4069 12.547L27.524 12.8243L27.8239 12.8505L39.7062 13.8888C40.2069 13.9619 40.5523 14.1169 40.784 14.319L41.1127 13.9423L40.784 14.319C41.0413 14.5435 41.2413 14.8371 41.3788 15.2143L41.8486 15.043L41.3788 15.2143C41.5098 15.5735 41.5346 15.9355 41.4532 16.3114C41.3759 16.6629 41.1836 16.991 40.8437 17.2971L31.8336 25.0598L31.6042 25.2574L31.673 25.5522L34.3709 37.1087L20.9995 32.9271Z" stroke="#FF9B24"/>
</svg>
