<svg width="262" height="242" viewBox="0 0 262 242" fill="none" xmlns="http://www.w3.org/2000/svg">
<path d="M0.473855 240.516C0.488568 241.344 1.17196 242.004 2.00026 241.989C2.82856 241.974 3.4881 241.291 3.47339 240.462L0.473855 240.516ZM34.8634 193.13L34.6831 191.641L34.8634 193.13ZM86.3484 207.417L87.2374 206.209L86.3484 207.417ZM93.8351 231.22L94.7536 232.406L93.8351 231.22ZM51.246 202.932L52.6625 202.439L51.246 202.932ZM66.0925 123.509L64.9437 122.544L66.0925 123.509ZM163.122 89.187L162.469 90.5376L163.122 89.187ZM192.574 169.588L193.736 170.536L192.574 169.588ZM142.037 153.159L140.755 153.937L142.037 153.159ZM162.296 40.5891L163.113 41.8468L162.296 40.5891ZM261.335 11.4082C261.852 10.7612 261.747 9.81732 261.1 9.29995L250.556 0.869095C249.909 0.351737 248.965 0.456844 248.448 1.10385C247.93 1.75087 248.036 2.69478 248.683 3.21214L258.055 10.7062L250.561 20.0784C250.043 20.7254 250.149 21.6693 250.796 22.1867C251.443 22.704 252.387 22.599 252.904 21.9519L261.335 11.4082ZM3.47339 240.462C3.2841 229.804 5.9647 218.924 11.316 210.425C16.6528 201.948 24.6068 195.882 35.0437 194.619L34.6831 191.641C23.1823 193.033 14.4978 199.74 8.77723 208.826C3.07121 217.89 0.275756 229.362 0.473855 240.516L3.47339 240.462ZM35.0437 194.619C51.4165 192.637 72.0133 198.732 85.4595 208.625L87.2374 206.209C73.2431 195.913 51.8933 189.557 34.6831 191.641L35.0437 194.619ZM85.4595 208.625C88.7802 211.068 92.7251 215.084 94.7317 219.232C95.7299 221.295 96.1945 223.279 95.9786 225.063C95.7688 226.796 94.9004 228.497 92.9166 230.034L94.7536 232.406C97.3139 230.423 98.6424 228.022 98.9568 225.424C99.265 222.877 98.5811 220.3 97.4323 217.925C95.1449 213.197 90.8024 208.832 87.2374 206.209L85.4595 208.625ZM92.9166 230.034C87.506 234.225 79.3839 232.549 71.2615 226.78C63.2558 221.093 55.94 211.845 52.6625 202.439L49.8295 203.426C53.3295 213.471 61.0559 223.21 69.5241 229.225C77.8756 235.158 87.6594 237.901 94.7536 232.406L92.9166 230.034ZM52.6625 202.439C42.7792 174.072 49.6622 145.409 67.2412 124.473L64.9437 122.544C46.736 144.229 39.5729 173.988 49.8295 203.426L52.6625 202.439ZM67.2412 124.473C78.2192 111.399 93.5991 98.7768 110.48 91.5091C127.349 84.2464 145.583 82.3783 162.469 90.5376L163.775 87.8364C145.876 79.1877 126.694 81.2625 109.294 88.7536C91.9054 96.2398 76.163 109.182 64.9437 122.544L67.2412 124.473ZM162.469 90.5376C178.263 98.169 186.662 109.022 192.604 126.349L195.441 125.375C189.291 107.442 180.421 95.88 163.775 87.8364L162.469 90.5376ZM192.604 126.349C194.99 133.308 197.026 141.073 197.28 148.532C197.534 155.98 196.01 163.002 191.411 168.64L193.736 170.536C198.94 164.155 200.547 156.331 200.278 148.43C200.009 140.539 197.868 132.451 195.441 125.375L192.604 126.349ZM191.411 168.64C187.569 173.351 183.397 175.728 179.182 176.482C174.944 177.241 170.497 176.39 166.086 174.343C157.224 170.232 148.821 161.437 143.319 152.38L140.755 153.937C146.451 163.313 155.25 172.624 164.824 177.065C169.631 179.295 174.71 180.331 179.711 179.435C184.734 178.536 189.512 175.716 193.736 170.536L191.411 168.64ZM143.319 152.38C132.185 134.053 129.018 111.665 132.726 91.1961C136.435 70.7195 146.992 52.3223 163.113 41.8468L161.479 39.3313C144.514 50.3549 133.595 69.5661 129.774 90.6614C125.951 111.764 129.197 134.912 140.755 153.937L143.319 152.38ZM163.113 41.8468C191.839 23.1813 226.446 15.7352 260.329 11.9623L259.997 8.98069C225.965 12.7702 190.796 20.2814 161.479 39.3313L163.113 41.8468Z" fill="white"/>
</svg>
