<svg width="60" height="75" viewBox="0 0 60 75" fill="none" xmlns="http://www.w3.org/2000/svg">
<path opacity="0.12" d="M52.1335 3.62577C46.1531 1.09415 39.6166 0.18071 33.1793 0.976998C26.742 1.77329 20.6299 4.25133 15.4555 8.16277C10.2812 12.0742 6.22641 17.2817 3.69755 23.2632C1.16869 29.2447 0.254593 35.7903 1.04687 42.2438C1.83914 48.6973 4.30996 54.832 8.21169 60.0332C12.1134 65.2345 17.309 69.3194 23.2777 71.8787C29.2464 74.438 35.7786 75.3817 42.2196 74.6152C48.6606 73.8488 54.7842 71.3991 59.9766 67.5117L49.5492 53.5445C46.7966 55.6053 43.5503 56.904 40.1357 57.3103C36.7211 57.7166 33.2582 57.2163 30.0939 55.8596C26.9297 54.5028 24.1754 52.3372 22.1069 49.5799C20.0385 46.8226 18.7286 43.5703 18.3086 40.1491C17.8886 36.7279 18.3732 33.2579 19.7138 30.0869C21.0545 26.9159 23.2041 24.1552 25.9471 22.0817C28.6902 20.0081 31.9305 18.6944 35.3431 18.2722C38.7557 17.8501 42.2209 18.3344 45.3913 19.6764L52.1335 3.62577Z" fill="url(#paint0_linear_34_1306)"/>
<defs>
<linearGradient id="paint0_linear_34_1306" x1="8" y1="17.0039" x2="51.7647" y2="72.1538" gradientUnits="userSpaceOnUse">
<stop stop-color="#186035"/>
<stop offset="0.2" stop-color="#32C66D" stop-opacity="0.2"/>
</linearGradient>
</defs>
</svg>
