<svg width="60" height="75" viewBox="0 0 60 75" fill="none" xmlns="http://www.w3.org/2000/svg">
<path opacity="0.12" d="M51.6022 3.1492C45.6218 0.617585 39.0854 -0.295852 32.6481 0.500436C26.2107 1.29672 20.0986 3.77476 14.9243 7.68621C9.74994 11.5976 5.69516 16.8051 3.1663 22.7866C0.63744 28.7682 -0.276657 35.3137 0.515618 41.7672C1.30789 48.2207 3.77871 54.3555 7.68044 59.5567C11.5822 64.7579 16.7777 68.8428 22.7465 71.4021C28.7152 73.9614 35.2474 74.9051 41.6884 74.1387C48.1294 73.3722 54.2529 70.9226 59.4453 67.0352L49.018 53.0679C46.2653 55.1288 43.019 56.4274 39.6044 56.8337C36.1898 57.2401 32.7269 56.7398 29.5627 55.383C26.3985 54.0262 23.6441 51.8607 21.5757 49.1033C19.5073 46.346 18.1974 43.0938 17.7774 39.6725C17.3574 36.2513 17.842 32.7813 19.1826 29.6103C20.5232 26.4393 22.6728 23.6787 25.4159 21.6051C28.159 19.5315 31.3992 18.2178 34.8119 17.7957C38.2245 17.3735 41.6897 17.8578 44.8601 19.1999L51.6022 3.1492Z" fill="url(#paint0_linear_34_1411)"/>
<defs>
<linearGradient id="paint0_linear_34_1411" x1="7.46875" y1="16.5273" x2="51.2334" y2="71.6773" gradientUnits="userSpaceOnUse">
<stop stop-color="#186035"/>
<stop offset="0.2" stop-color="#32C66D" stop-opacity="0.2"/>
</linearGradient>
</defs>
</svg>
