<svg width="50" height="50" viewBox="0 0 50 50" fill="none" xmlns="http://www.w3.org/2000/svg">
<path fill-rule="evenodd" clip-rule="evenodd" d="M7.6584 41.1191C7.00938 41.0362 6.48585 40.7917 6.00017 40.4353C5.11173 39.7837 4.67154 39.3742 4.11899 38.5496C3.64056 37.8356 3.3383 37.1901 3.04673 35.6772C2.67791 33.7631 3.04673 24.3878 3.04673 24.3878C2.83566 20.4554 6.64556 18.4145 9.42879 17.6498C11.6852 17.0298 14.1349 16.8066 16.3978 16.8066C18.6185 16.8066 20.8862 16.9887 23.0061 17.6498C25.1708 18.3249 27.5383 19.6382 28.6402 21.7653C28.4904 21.9776 28.3123 22.2406 28.0751 22.5838C28.0628 22.6015 28.0504 22.6187 28.0375 22.6355C27.7705 21.7244 26.9257 21.0551 25.9308 21.0551H23.3939C22.1904 21.0551 21.1992 22.0418 21.1992 23.2497V31.9513C20.1172 33.3082 19.9158 35.1444 20.7233 36.7419L21.6194 38.5147L21.6198 38.5156C21.6941 38.6623 21.7195 38.8073 21.6999 38.9705L21.6996 38.973L21.4644 40.9456C21.4561 41.014 21.4495 41.0823 21.4443 41.1503H9.22703V25.8125C9.22703 25.3796 8.87556 25.0282 8.44271 25.0282C8.00987 25.0282 7.6584 25.3796 7.6584 25.8125V41.1191ZM16.2175 15.5686C13.0381 15.5686 10.4568 12.3585 10.4568 7.3513C10.4568 2.34424 13.1594 1.46875 16.3387 1.46875C19.5181 1.46875 21.9781 2.34424 21.9781 7.3513C21.9781 12.3585 19.3968 15.5686 16.2175 15.5686ZM27.6561 35.5592C27.6392 35.7569 27.6305 35.9568 27.6305 36.1588C27.6305 39.9921 30.7572 43.1188 34.5918 43.1188C38.4252 43.1188 41.5519 39.9921 41.5519 36.1588C41.5519 35.1107 41.3182 34.1155 40.9003 33.2226C40.9209 33.0998 40.9315 32.9739 40.9315 32.8456C40.9315 32.5681 40.8815 32.3017 40.7901 32.0551C41.7734 31.7994 42.5042 30.9013 42.5042 29.8405C42.5042 29.3956 42.3753 28.9791 42.1529 28.6268C42.6349 28.2437 42.9599 27.6709 43.0127 27.0236C43.2947 27.3432 43.5012 27.7365 43.6057 28.181L44.0582 30.1152C44.1824 30.6446 44.4263 31.0661 44.8227 31.4373L46.2704 32.7977C47.1384 33.611 47.3572 34.8517 46.8205 35.9134L45.9244 37.6864C45.6789 38.1714 45.5946 38.6505 45.6582 39.1903L45.8948 41.163C46.0353 42.343 45.4053 43.4342 44.3125 43.9031L42.4862 44.6838C41.9864 44.8983 41.6138 45.2117 41.3165 45.6657L40.2297 47.3293C39.5775 48.3244 38.3946 48.7548 37.256 48.4102L35.3543 47.8365C34.8353 47.6783 34.3472 47.6783 33.8267 47.8365L31.9251 48.4102C30.7864 48.7548 29.6034 48.3244 28.9528 47.3293L27.8659 45.6657C27.5687 45.2117 27.1946 44.8983 26.6948 44.6838L24.87 43.9031C23.7758 43.4342 23.1458 42.343 23.2877 41.163L23.5228 39.1903C23.5879 38.6505 23.5036 38.1714 23.2582 37.6864L22.5147 36.2154C22.7845 36.3345 23.082 36.4008 23.3939 36.4008H25.9308C26.6292 36.4008 27.2536 36.071 27.6561 35.5592ZM28.1254 33.1417V24.0481C28.5045 23.8747 28.8018 23.601 29.0425 23.2533L29.0426 23.2531C29.9355 21.9612 29.8486 21.9788 31.017 21.2153L31.0171 21.2152C32.9916 19.9238 33.0856 19.4059 33.7788 16.3704C34.5206 16.7056 34.8425 17.4026 34.9292 18.1838C35.0939 19.6684 34.4581 21.4653 33.9313 22.0743C33.831 22.1904 33.8074 22.3543 33.8712 22.4939C33.9351 22.6336 34.0745 22.7231 34.2279 22.7231H39.9125C40.5234 22.7231 41.0235 23.2219 41.0235 23.8329C41.0235 24.4429 40.5234 24.9426 39.9125 24.9426H35.9936C35.7771 24.9426 35.6014 25.1184 35.6014 25.3347C35.6014 25.5512 35.7771 25.7269 35.9936 25.7269H40.7341C41.345 25.7269 41.8439 26.2258 41.8439 26.8367C41.8439 27.4475 41.345 27.9464 40.7341 27.9464H35.9936C35.7771 27.9464 35.6014 28.1222 35.6014 28.3386C35.6014 28.555 35.7771 28.7307 35.9936 28.7307H40.2179C40.8288 28.7307 41.3277 29.2306 41.3277 29.8405C41.3277 30.4514 40.8289 30.9515 40.2179 30.9515H35.9936C35.7771 30.9515 35.6014 31.1273 35.6014 31.3437C35.6014 31.5601 35.7771 31.7358 35.9936 31.7358H38.6454C39.2561 31.7358 39.7551 32.2348 39.7551 32.8456C39.7551 33.4555 39.2561 33.9554 38.6454 33.9554H32.0445C30.3363 33.9554 29.1979 33.5424 28.1254 33.1417ZM23.3939 22.6238H25.9308C26.2753 22.6238 26.5567 22.9051 26.5567 23.2497V34.2062C26.5567 34.5507 26.2753 34.8322 25.9308 34.8322H23.3939C23.0506 34.8322 22.7678 34.5507 22.7678 34.2062V23.2497C22.7678 22.9051 23.0506 22.6238 23.3939 22.6238Z" fill="#00001B"/>
</svg>
