<svg width="50" height="50" viewBox="0 0 50 50" fill="none" xmlns="http://www.w3.org/2000/svg">
<path d="M18.75 42.1875C18.3356 42.1875 17.9382 42.0229 17.6451 41.7299C17.3521 41.4368 17.1875 41.0394 17.1875 40.625C17.183 36.8968 15.6999 33.3226 13.0637 30.6863C10.4274 28.0501 6.85321 26.567 3.125 26.5625C2.7106 26.5625 2.31317 26.3979 2.02015 26.1049C1.72712 25.8118 1.5625 25.4144 1.5625 25C1.5625 24.5856 1.72712 24.1882 2.02015 23.8951C2.31317 23.6021 2.7106 23.4375 3.125 23.4375C7.68176 23.4429 12.0503 25.2554 15.2725 28.4775C18.4946 31.6997 20.3071 36.0682 20.3125 40.625C20.3125 41.0394 20.1479 41.4368 19.8549 41.7299C19.5618 42.0229 19.1644 42.1875 18.75 42.1875Z" fill="black"/>
<path d="M12.5 42.1875C12.0856 42.1875 11.6882 42.0229 11.3951 41.7299C11.1021 41.4368 10.9375 41.0394 10.9375 40.625C10.935 38.5538 10.1111 36.5681 8.64653 35.1035C7.18194 33.6389 5.19624 32.815 3.125 32.8125C2.7106 32.8125 2.31317 32.6479 2.02015 32.3549C1.72712 32.0618 1.5625 31.6644 1.5625 31.25C1.5625 30.8356 1.72712 30.4382 2.02015 30.1451C2.31317 29.8521 2.7106 29.6875 3.125 29.6875C6.02479 29.6908 8.80486 30.8442 10.8553 32.8947C12.9058 34.9451 14.0592 37.7252 14.0625 40.625C14.0625 41.0394 13.8979 41.4368 13.6049 41.7299C13.3118 42.0229 12.9144 42.1875 12.5 42.1875Z" fill="black"/>
<path d="M6.25 42.1875C5.8356 42.1875 5.43817 42.0229 5.14515 41.7299C4.85212 41.4368 4.6875 41.0394 4.6875 40.625C4.6875 40.2106 4.52288 39.8132 4.22985 39.5201C3.93683 39.2271 3.5394 39.0625 3.125 39.0625C2.7106 39.0625 2.31317 38.8979 2.02015 38.6049C1.72712 38.3118 1.5625 37.9144 1.5625 37.5C1.5625 37.0856 1.72712 36.6882 2.02015 36.3951C2.31317 36.1021 2.7106 35.9375 3.125 35.9375C4.3682 35.9375 5.56049 36.4314 6.43956 37.3104C7.31864 38.1895 7.8125 39.3818 7.8125 40.625C7.8125 41.0394 7.64788 41.4368 7.35485 41.7299C7.06183 42.0229 6.6644 42.1875 6.25 42.1875Z" fill="black"/>
<path d="M46.875 7.8125H3.125C2.7106 7.8125 2.31317 7.97712 2.02015 8.27015C1.72712 8.56317 1.5625 8.9606 1.5625 9.375V18.75C1.5625 19.1644 1.72712 19.5618 2.02015 19.8549C2.31317 20.1479 2.7106 20.3125 3.125 20.3125C8.51031 20.3187 13.6733 22.4608 17.4813 26.2687C21.2892 30.0767 23.4313 35.2397 23.4375 40.625C23.4375 41.0394 23.6021 41.4368 23.8951 41.7299C24.1882 42.0229 24.5856 42.1875 25 42.1875H46.875C47.2894 42.1875 47.6868 42.0229 47.9799 41.7299C48.2729 41.4368 48.4375 41.0394 48.4375 40.625V9.375C48.4375 8.9606 48.2729 8.56317 47.9799 8.27015C47.6868 7.97712 47.2894 7.8125 46.875 7.8125Z" fill="black"/>
</svg>
