<svg width="50" height="50" viewBox="0 0 50 50" fill="none" xmlns="http://www.w3.org/2000/svg">
<g clip-path="url(#clip0_34_914)">
<path d="M48.8615 16.7435C48.6342 16.592 48.3312 16.6677 48.1039 16.8192L38.2554 23.6374V17.4253C38.2554 17.1223 38.1039 16.895 37.8767 16.7435C37.6494 16.592 37.3464 16.6677 37.1191 16.8192L28.2554 23.4859V17.4253C28.2554 17.1223 28.1039 16.895 27.8767 16.7435C27.6494 16.592 27.3464 16.6677 27.1191 16.7435L18.1797 22.8041L21.9676 48.1829C22.0433 48.5617 21.9676 48.9405 21.8918 49.2435H26.0585V39.092C26.0585 38.7132 26.3615 38.3344 26.8161 38.3344H35.2251C35.6039 38.3344 35.9827 38.6374 35.9827 39.092V49.2435H48.4827C48.8615 49.2435 49.2403 48.9405 49.2403 48.4859V17.4253C49.2403 17.1223 49.0888 16.895 48.8615 16.7435ZM26.8161 33.3344C26.8161 33.6374 26.5888 33.8647 26.2857 33.8647H22.2706C21.9676 33.8647 21.7403 33.6374 21.7403 33.3344V29.8495C21.7403 29.5465 21.9676 29.3192 22.2706 29.3192H26.2857C26.5888 29.3192 26.8161 29.5465 26.8161 29.8495V33.3344ZM35.8312 33.3344C35.8312 33.6374 35.6039 33.8647 35.3009 33.8647H31.2857C30.9827 33.8647 30.7554 33.6374 30.7554 33.3344V29.8495C30.7554 29.5465 30.9827 29.3192 31.2857 29.3192H35.3009C35.6039 29.3192 35.8312 29.5465 35.8312 29.8495V33.3344ZM44.9221 33.3344C44.9221 33.6374 44.6948 33.8647 44.3918 33.8647H40.3767C40.0736 33.8647 39.8464 33.6374 39.8464 33.3344V29.8495C39.8464 29.5465 40.0736 29.3192 40.3767 29.3192H44.3918C44.6948 29.3192 44.9221 29.5465 44.9221 29.8495V33.3344Z" fill="white"/>
<path d="M15.6101 15.906H5.68584L5.38281 17.9515H15.9131L15.6101 15.906Z" fill="white"/>
<path d="M5.15175 19.3904L0.757812 48.4055C0.757812 48.6328 0.757813 48.8601 0.909328 49.0116C1.06084 49.1631 1.28812 49.2389 1.51539 49.2389H19.8487C20.076 49.2389 20.3033 49.1631 20.379 49.0116C20.5305 48.8601 20.6063 48.6328 20.5305 48.4055L16.1366 19.3904H5.15175Z" fill="white"/>
<path d="M14.8511 10.6058C14.7753 10.227 14.4723 9.99976 14.0935 9.99976H7.19957C6.82079 9.99976 6.51776 10.227 6.442 10.6058L5.83594 14.3937H15.3056L14.8511 10.6058Z" fill="white"/>
<path d="M13.5623 8.48342C13.9411 8.48342 14.3198 8.18039 14.3198 7.72584V4.46827C14.3198 4.08948 14.0168 3.71069 13.5623 3.71069C13.1077 3.71069 12.8047 4.01372 12.8047 4.46827V7.8016C12.8047 8.18039 13.1835 8.48342 13.5623 8.48342Z" fill="white"/>
<path d="M10.6795 5.75923C11.0582 5.75923 11.437 5.45619 11.437 5.00165V1.81983C11.437 1.44104 11.134 1.06226 10.6795 1.06226C10.2249 1.06226 9.92188 1.36529 9.92188 1.81983V5.07741C9.92188 5.45619 10.2249 5.75923 10.6795 5.75923Z" fill="white"/>
<path d="M7.72633 8.48342C8.10511 8.48342 8.4839 8.18039 8.4839 7.72584V4.46827C8.4839 4.08948 8.18087 3.71069 7.72633 3.71069C7.34754 3.71069 6.96875 4.01372 6.96875 4.46827V7.8016C6.96875 8.18039 7.34754 8.48342 7.72633 8.48342Z" fill="white"/>
<path d="M48.7131 7.19696C48.6373 7.19696 48.107 7.04545 47.7282 6.89393C47.5767 6.43939 47.4252 5.98484 47.1979 5.5303L47.7282 4.6212C47.804 4.39393 47.7282 4.01514 47.5009 3.78787L46.2131 2.49999C45.9858 2.27272 45.607 2.19696 45.304 2.34848L44.3949 2.87878C43.9403 2.65151 43.4858 2.42423 43.0313 2.34848L42.7282 1.36363C42.7282 0.984841 42.4252 0.757568 42.0464 0.757568H40.1525C39.8494 0.757568 39.5464 0.984841 39.4706 1.28787L39.2434 2.27272C38.7888 2.42423 38.3343 2.57575 37.8797 2.80302L36.9706 2.27272C36.6676 2.1212 36.3646 2.19696 36.0616 2.42423L34.7737 3.78787C34.5464 4.01514 34.4706 4.39393 34.6222 4.69696L35.1525 5.60605C34.9252 6.0606 34.6979 6.51514 34.5464 6.96969L33.5616 7.27272C33.2585 7.34848 33.0312 7.65151 33.0312 7.95454V9.84848C33.0312 10.1515 33.2585 10.4545 33.5616 10.5303L34.5464 10.8333C34.6979 11.2879 34.8494 11.7424 35.1525 12.197L34.6222 13.1061C34.4706 13.4091 34.4706 13.7879 34.7737 14.0151L36.0616 15.303C36.2888 15.5303 36.6676 15.6061 36.9706 15.4545L37.8797 14.9242C38.3343 15.1515 38.7888 15.3788 39.2434 15.4545L39.5464 16.4394C39.6222 16.7424 39.9252 16.9697 40.2282 16.9697H42.1222C42.4252 16.9697 42.7282 16.7424 42.804 16.4394L43.107 15.4545C43.5616 15.303 44.0161 15.1515 44.4706 14.9242L45.3797 15.4545C45.6828 15.6061 45.9858 15.5303 46.2888 15.303L47.5767 14.0151C47.804 13.7879 47.8797 13.4091 47.7282 13.1061L47.1222 12.1212C47.3494 11.6667 47.5767 11.2121 47.6525 10.7576L48.6373 10.4545C48.9403 10.3788 49.1676 10.0757 49.1676 9.77272V7.87878C49.2434 7.57575 49.0161 7.27272 48.7131 7.19696ZM41.1373 11.5909C39.6222 11.5909 38.41 10.3788 38.41 8.86363C38.41 7.34848 39.6222 6.13636 41.1373 6.13636C42.6525 6.13636 43.8646 7.34848 43.8646 8.86363C43.8646 10.3788 42.6525 11.5909 41.1373 11.5909Z" fill="white"/>
</g>
<defs>
<clipPath id="clip0_34_914">
<rect width="50" height="50" fill="white"/>
</clipPath>
</defs>
</svg>
