<svg width="50" height="50" viewBox="0 0 50 50" fill="none" xmlns="http://www.w3.org/2000/svg">
<path fill-rule="evenodd" clip-rule="evenodd" d="M35.9178 39.8832C26.9145 39.8832 22.4128 39.8832 22.4128 39.8832C21.8723 36.857 20.0475 35.6967 16.9379 36.4024C14.8637 36.7626 13.8484 36.4725 13.8924 35.5323C13.8817 34.0732 13.6318 33.5425 13.2557 33.2611C12.423 32.6187 13.3509 31.7936 14.3043 31.2758C13.5023 31.212 12.4725 30.5673 12.6943 30.0509C13.0492 28.8364 12.8815 28.3474 12.3333 28.0633C11.2661 27.5414 11.0485 26.8768 11.6807 26.0692C12.4154 25.2724 12.9972 24.4622 13.4259 23.6387C13.8204 22.8811 13.9649 22.1296 13.8795 21.2797C13.8401 20.8874 13.8198 20.4895 13.8198 20.0868C13.8198 13.5588 19.1117 8.26689 25.6396 8.26689C32.1676 8.26689 37.4596 13.5588 37.4596 20.0868C37.4596 22.9988 36.4061 25.6647 34.6599 27.7247C34.0945 28.3916 33.7842 29.1125 33.6889 29.9816C33.3699 32.8868 34.1483 36.2841 35.9178 39.8832ZM30.203 19.5749C30.8928 19.2735 31.3749 18.5854 31.3749 17.7845C31.3749 16.9836 30.8928 16.2954 30.203 15.994V13.7413C30.203 13.3099 29.8532 12.9601 29.4218 12.9601C28.9903 12.9601 28.6405 13.3099 28.6405 13.7413V15.994C27.9508 16.2954 27.4687 16.9836 27.4687 17.7845C27.4687 18.5854 27.9508 19.2735 28.6405 19.5749V26.4319C28.6405 26.8634 28.9903 27.2132 29.4218 27.2132C29.8532 27.2132 30.203 26.8634 30.203 26.4319V19.5749ZM24.8585 13.7413V21.5749C24.1687 21.8763 23.6866 22.5645 23.6866 23.3653C23.6866 24.1662 24.1687 24.8544 24.8585 25.1558V26.4319C24.8585 26.8634 25.2083 27.2132 25.6397 27.2132C26.0712 27.2132 26.421 26.8634 26.421 26.4319V25.1558C27.1107 24.8544 27.5929 24.1662 27.5929 23.3653C27.5929 22.5645 27.1107 21.8763 26.421 21.5749V13.7413C26.421 13.3099 26.0712 12.9601 25.6397 12.9601C25.2083 12.9601 24.8585 13.3099 24.8585 13.7413ZM22.639 26.4319V19.5749C23.3287 19.2735 23.8108 18.5854 23.8108 17.7845C23.8108 16.9836 23.3287 16.2954 22.639 15.994V13.7413C22.639 13.3099 22.2892 12.9601 21.8577 12.9601C21.4263 12.9601 21.0765 13.3099 21.0765 13.7413V15.994C20.3867 16.2954 19.9046 16.9836 19.9046 17.7845C19.9046 18.5854 20.3867 19.2735 21.0765 19.5749V26.4319C21.0765 26.8634 21.4263 27.2132 21.8577 27.2132C22.2892 27.2132 22.639 26.8634 22.639 26.4319ZM39.781 28.7128H47.8516C48.3895 28.7128 48.8281 29.1515 48.8281 29.6894V37.76C48.8281 38.2979 48.3895 38.7365 47.8516 38.7365H39.781C39.2431 38.7365 38.8044 38.2979 38.8044 37.76V29.6894C38.8044 29.1515 39.2431 28.7128 39.781 28.7128ZM15.0136 5.47129C17.9491 4.05918 21.1374 3.34365 24.3938 3.34365C30.3749 3.34365 35.7898 5.76797 39.7094 9.6875C43.6289 13.607 46.0532 19.022 46.0532 25.0031C46.0532 25.2569 46.05 25.505 46.0413 25.7588C46.0278 26.1886 46.3653 26.5479 46.7951 26.5614C47.2249 26.5749 47.5843 26.2374 47.5978 25.8076C47.6068 25.5409 47.6158 25.2696 47.6158 25.0031C47.6158 12.1782 37.2188 1.78125 24.3939 1.78125C20.9133 1.78125 17.4794 2.5585 14.3424 4.06758C13.9548 4.25293 13.7908 4.71758 13.9762 5.10518C14.1613 5.49277 14.626 5.65674 15.0136 5.47129ZM38.9019 41.0863C39.2221 40.7981 39.7153 40.8241 40.0035 41.1443C40.2917 41.4646 40.2657 41.9578 39.9455 42.246C35.6749 46.101 30.1462 48.225 24.3938 48.225C22.283 48.225 20.1647 47.9355 18.1318 47.3673C17.7173 47.2527 17.474 46.8236 17.5886 46.4091C17.7031 45.9945 18.1322 45.7513 18.5468 45.8658C20.4559 46.3995 22.4117 46.6625 24.3937 46.6625C29.7825 46.6626 34.9011 44.6978 38.9019 41.0863ZM5.75732 36.0465C5.97637 36.4173 5.85342 36.8955 5.48272 37.1145C5.11191 37.3336 4.63369 37.2106 4.41465 36.8399C2.28828 33.2593 1.17188 29.1667 1.17188 25.0031C1.17188 22.1424 1.69971 19.2923 2.73262 16.6241C2.8877 16.223 3.33857 16.0235 3.73965 16.1785C4.14072 16.3336 4.34023 16.7845 4.18525 17.1855C3.21699 19.6871 2.73438 22.3217 2.73438 25.0031C2.73438 28.9102 3.76182 32.6861 5.75732 36.0465ZM7.91484 4.28857C4.8873 4.28857 2.43291 6.74287 2.43291 9.77051C2.43291 12.7981 4.8873 15.2524 7.91484 15.2524C10.9424 15.2524 13.3968 12.7981 13.3968 9.77051C13.3968 6.74287 10.9425 4.28857 7.91484 4.28857ZM8.77588 35.9113L2.93721 46.0241H14.6145L8.77588 35.9113ZM25.6397 10.8174C20.5204 10.8174 16.3704 14.9674 16.3704 20.0867C16.3704 25.2061 20.5204 29.3561 25.6397 29.3561C30.7591 29.3561 34.9091 25.2061 34.9091 20.0867C34.9091 14.9674 30.7591 10.8174 25.6397 10.8174Z" fill="white"/>
</svg>
