<svg width="50" height="50" viewBox="0 0 50 50" fill="none" xmlns="http://www.w3.org/2000/svg">
<path d="M42.4969 20.5734L33.4508 12.5781H29.5938L33.9555 20.5734H42.4969Z" fill="white"/>
<path d="M16.4492 12.5781H12.5922L3.55469 20.5734H12.0961L16.4492 12.5781Z" fill="white"/>
<path d="M32.0688 20.5734L27.707 12.5781H18.3383L13.9844 20.5734H32.0688Z" fill="white"/>
<path d="M13.8047 22.2344L22.9672 45.2672L32.2367 22.2344H13.8047Z" fill="white"/>
<path d="M3.125 22.2344L20.307 43.0492L12.0219 22.2344H3.125Z" fill="white"/>
<path d="M34.0188 22.2344L25.7422 42.7844L42.9078 22.2344H34.0188Z" fill="white"/>
<path d="M5.87363 8.67214H7.32888V10.1274C7.32888 10.3469 7.41608 10.5574 7.57129 10.7126C7.72651 10.8678 7.93702 10.955 8.15653 10.955C8.37603 10.955 8.58655 10.8678 8.74176 10.7126C8.89698 10.5574 8.98418 10.3469 8.98418 10.1274V8.67214H10.439C10.6585 8.67214 10.869 8.58494 11.0243 8.42973C11.1795 8.27451 11.2667 8.064 11.2667 7.84449C11.2667 7.62499 11.1795 7.41447 11.0243 7.25926C10.869 7.10404 10.6585 7.01684 10.439 7.01684H8.98418V5.56202C8.98418 5.34252 8.89698 5.132 8.74176 4.97679C8.58655 4.82157 8.37603 4.73437 8.15653 4.73438C7.93702 4.73437 7.72651 4.82157 7.57129 4.97679C7.41608 5.132 7.32888 5.34252 7.32888 5.56202V7.01687H5.87363C5.65701 7.02123 5.45074 7.11035 5.29909 7.26508C5.14744 7.41982 5.0625 7.62784 5.0625 7.8445C5.0625 8.06116 5.14744 8.26919 5.29909 8.42392C5.45074 8.57866 5.65701 8.66778 5.87363 8.67214Z" fill="white"/>
<path d="M46.0601 30.421H44.6052V28.9657C44.6045 28.7467 44.517 28.5368 44.3619 28.3821C44.2068 28.2275 43.9966 28.1406 43.7776 28.1406C43.5585 28.1406 43.3484 28.2275 43.1932 28.3821C43.0381 28.5368 42.9506 28.7467 42.9499 28.9657V30.421H41.4943C41.3854 30.4207 41.2775 30.4418 41.1767 30.4833C41.076 30.5247 40.9845 30.5856 40.9074 30.6625C40.8303 30.7394 40.7691 30.8307 40.7273 30.9313C40.6856 31.0319 40.6641 31.1397 40.6641 31.2486C40.6641 31.3575 40.6856 31.4654 40.7273 31.5659C40.7691 31.6665 40.8303 31.7579 40.9074 31.8348C40.9845 31.9117 41.076 31.9726 41.1767 32.014C41.2775 32.0555 41.3854 32.0766 41.4943 32.0763H42.9499V33.5311C42.9496 33.64 42.9707 33.7479 43.0122 33.8486C43.0536 33.9493 43.1145 34.0409 43.1914 34.118C43.2683 34.1951 43.3597 34.2563 43.4602 34.2981C43.5608 34.3398 43.6687 34.3613 43.7776 34.3613C43.8865 34.3613 43.9943 34.3398 44.0949 34.2981C44.1955 34.2563 44.2868 34.1951 44.3637 34.118C44.4406 34.0409 44.5015 33.9493 44.5429 33.8486C44.5844 33.7479 44.6055 33.64 44.6052 33.5311V32.0763H46.0601C46.2767 32.072 46.4831 31.9829 46.6348 31.8282C46.7866 31.6734 46.8716 31.4654 46.8716 31.2486C46.8716 31.0319 46.7866 30.8238 46.6348 30.6691C46.4831 30.5143 46.2767 30.4253 46.0601 30.421Z" fill="white"/>
</svg>
