<svg width="50" height="50" viewBox="0 0 50 50" fill="none" xmlns="http://www.w3.org/2000/svg">
<path d="M34.1693 20.8307C34.1693 18.3996 33.2035 16.068 31.4844 14.3489C29.7653 12.6298 27.4338 11.6641 25.0026 11.6641C22.5715 11.6641 20.2399 12.6298 18.5208 14.3489C16.8017 16.068 15.8359 18.3996 15.8359 20.8307V22.1207C16.1195 21.9523 16.4269 21.8276 16.7476 21.7507C16.8555 21.2272 17.0808 20.735 17.4065 20.3112C17.7322 19.8874 18.1497 19.5429 18.6278 19.3039C19.1059 19.0648 19.632 18.9373 20.1664 18.931C20.7009 18.9247 21.2299 19.0397 21.7134 19.2674C22.7438 19.746 23.8661 19.9939 25.0022 19.9939C26.1382 19.9939 27.2606 19.746 28.2909 19.2674C28.8271 19.0133 29.419 18.8996 30.0111 18.937C30.6032 18.9745 31.1761 19.1619 31.6759 19.4816C32.0783 19.7345 32.4258 20.0657 32.6978 20.4555C32.9698 20.8453 33.1607 21.2858 33.2593 21.7507C33.5794 21.8278 33.8862 21.9525 34.1693 22.1207V20.8307Z" fill="white"/>
<path d="M24.9974 35.8303C23.85 35.8311 22.7149 35.5936 21.6641 35.1328V36.482C21.7216 36.5904 21.7856 36.6953 21.8557 36.7961C22.2222 37.29 22.7038 37.6868 23.2586 37.9521C23.8134 38.2175 24.4246 38.3433 25.0391 38.3186C25.0216 38.0461 24.9974 37.7745 24.9974 37.497C25.002 36.9393 25.0437 36.3825 25.1224 35.8303C25.0807 35.8303 25.0407 35.8303 24.9974 35.8303Z" fill="white"/>
<path d="M25.7236 41.6483C25.5277 41.1064 25.3698 40.5514 25.2511 39.9875C25.1545 39.9917 25.057 40.0008 24.9611 40.0008C24.0889 40.0174 23.2258 39.8212 22.4465 39.4291C21.6672 39.0371 20.9952 38.461 20.4886 37.7508C20.457 37.7058 20.4353 37.6675 20.4053 37.625L16.2645 38.5833C16.047 38.6342 15.8411 38.7092 15.6328 38.7783C18.3926 40.6643 21.6585 41.6712 25.0011 41.6667C25.2428 41.6667 25.4836 41.6575 25.7236 41.6483Z" fill="white"/>
<path d="M34.0859 25.4819C34.1669 25.2336 34.1875 24.9695 34.146 24.7116C34.1045 24.4536 34.0021 24.2093 33.8473 23.9989C33.6925 23.7885 33.4898 23.618 33.2559 23.5015C33.0221 23.3851 32.7638 23.3261 32.5026 23.3294C32.2816 23.3294 32.0696 23.2416 31.9133 23.0854C31.7571 22.9291 31.6693 22.7171 31.6693 22.4961C31.6701 22.1749 31.5892 21.8588 31.4343 21.5774C31.2793 21.2961 31.0553 21.0588 30.7834 20.8878C30.521 20.7173 30.219 20.6173 29.9066 20.5974C29.5943 20.5776 29.2821 20.6385 29.0001 20.7744C27.7483 21.3568 26.3844 21.6585 25.0039 21.6585C23.6233 21.6585 22.2594 21.3568 21.0076 20.7744C20.7201 20.6382 20.4026 20.5775 20.0851 20.5982C19.7675 20.6188 19.4606 20.7201 19.1931 20.8925C18.9257 21.0648 18.7066 21.3026 18.5566 21.5832C18.4066 21.8638 18.3307 22.178 18.3359 22.4961C18.3359 22.7171 18.2481 22.9291 18.0919 23.0854C17.9356 23.2416 17.7236 23.3294 17.5026 23.3294C17.0606 23.3294 16.6367 23.505 16.3241 23.8176C16.0115 24.1302 15.8359 24.5541 15.8359 24.9961C15.8359 25.4381 16.0115 25.8621 16.3241 26.1746C16.6367 26.4872 17.0606 26.6628 17.5026 26.6628C17.7236 26.6628 17.9356 26.7506 18.0919 26.9068C18.2481 27.0631 18.3359 27.2751 18.3359 27.4961C18.3388 29.2633 19.0421 30.9574 20.2917 32.207C21.5413 33.4566 23.2354 34.1599 25.0026 34.1628C25.1693 34.1628 25.3209 34.1561 25.4718 34.1461C26.0491 32.0869 27.1437 30.2098 28.6515 28.6932C30.1594 27.1767 32.0302 26.0712 34.0859 25.4819Z" fill="white"/>
<path d="M1.75906 23.0015C1.6324 24.3282 1.6324 25.664 1.75906 26.9907C1.77362 27.0942 1.81572 27.1919 1.88096 27.2735C1.94619 27.3552 2.03217 27.4178 2.12989 27.4548L4.80739 28.5315C4.93465 28.5826 5.04731 28.6644 5.13541 28.7695C5.2235 28.8746 5.28429 28.9998 5.31239 29.134C5.82649 31.5746 6.79346 33.8972 8.16323 35.9815C8.23806 36.0961 8.28351 36.2274 8.29558 36.3637C8.30764 36.5 8.28594 36.6372 8.23239 36.7632L7.09906 39.4298C7.05446 39.5234 7.03684 39.6276 7.04818 39.7306C7.05951 39.8337 7.09935 39.9315 7.16323 40.0132C8.02003 41.0315 8.96266 41.9744 9.98073 42.8315C10.0626 42.8971 10.1612 42.9384 10.2654 42.9507C10.3696 42.9629 10.4751 42.9456 10.5699 42.9007L13.2366 41.7582C13.3627 41.7042 13.5001 41.6822 13.6368 41.6941C13.7734 41.7061 13.905 41.7515 14.0199 41.8265C16.1018 43.1951 18.4219 44.1613 20.8599 44.6748C20.9944 44.7029 21.1198 44.7638 21.2251 44.852C21.3303 44.9403 21.4121 45.0532 21.4632 45.1807L22.5382 47.8632C22.5767 47.9616 22.6407 48.048 22.7236 48.1136C22.8064 48.1792 22.9053 48.2216 23.0099 48.2365C24.3316 48.3566 25.6615 48.3566 26.9832 48.2365C27.0896 48.2212 27.1899 48.1777 27.2739 48.1106C27.3578 48.0435 27.4223 47.9552 27.4607 47.8548L28.2507 45.874C27.5311 45.0861 26.915 44.2096 26.4174 43.2657C25.9682 43.3048 25.4899 43.3298 24.9966 43.3298C21.3706 43.3298 17.826 42.2546 14.8111 40.2401C11.7962 38.2256 9.44638 35.3624 8.05877 32.0124C6.67116 28.6624 6.3081 24.9762 7.0155 21.4199C7.72289 17.8635 9.46897 14.5969 12.0329 12.0329C14.5969 9.46892 17.8636 7.72284 21.4199 7.01545C24.9762 6.30805 28.6624 6.67111 32.0124 8.05872C35.3624 9.44633 38.2257 11.7962 40.2402 14.8111C42.2547 17.826 43.3299 21.3705 43.3299 24.9965C43.3299 25.4757 43.3057 25.9507 43.2707 26.4207C44.2144 26.9183 45.0906 27.5344 45.8782 28.254L47.8616 27.4598C47.9595 27.4231 48.0457 27.3607 48.1113 27.2792C48.1768 27.1977 48.2192 27.1 48.2341 26.9965C48.3607 25.6695 48.3607 24.3335 48.2341 23.0065C48.2196 22.9031 48.1776 22.8055 48.1125 22.7238C48.0474 22.6422 47.9616 22.5795 47.8641 22.5423L45.1857 21.4657C45.0586 21.4146 44.946 21.333 44.8579 21.2281C44.7698 21.1231 44.709 20.9981 44.6807 20.864C44.1674 18.4219 43.2004 16.0978 41.8299 14.0123C41.7549 13.8977 41.7094 13.7662 41.6973 13.6298C41.6853 13.4933 41.707 13.3559 41.7607 13.2298L42.8941 10.5632C42.9395 10.4688 42.9575 10.3636 42.9462 10.2594C42.9348 10.1553 42.8945 10.0564 42.8299 9.97401C41.9715 8.95742 41.029 8.01493 40.0124 7.15651C39.9302 7.09155 39.8316 7.05074 39.7275 7.03867C39.6235 7.02661 39.5181 7.04375 39.4232 7.08818L36.7566 8.23068C36.6305 8.28464 36.493 8.30663 36.3563 8.29471C36.2197 8.28279 36.0881 8.23732 35.9732 8.16234C33.8913 6.79379 31.5712 5.82766 29.1332 5.31401C28.9988 5.28595 28.8733 5.22509 28.7681 5.13684C28.6628 5.04859 28.581 4.93569 28.5299 4.80818L27.4549 2.12568C27.4166 2.02733 27.3528 1.94096 27.2701 1.87548C27.1873 1.81 27.0886 1.76779 26.9841 1.75318C25.662 1.63436 24.332 1.63436 23.0099 1.75318C22.9035 1.76801 22.803 1.81118 22.719 1.87818C22.635 1.94519 22.5705 2.03355 22.5324 2.13401L21.4624 4.80818C21.4113 4.93569 21.3295 5.04859 21.2242 5.13684C21.119 5.22509 20.9935 5.28595 20.8591 5.31401C18.421 5.82792 16.101 6.79433 14.0191 8.16318C13.9042 8.23816 13.7726 8.28362 13.636 8.29554C13.4993 8.30746 13.3618 8.28547 13.2357 8.23151L10.5691 7.08985C10.4759 7.04467 10.3719 7.02635 10.2689 7.03695C10.1658 7.04755 10.0678 7.08664 9.98573 7.14985C8.96604 8.00777 8.02175 8.9515 7.16323 9.97068C7.09767 10.0524 7.05642 10.1509 7.04419 10.2549C7.03195 10.359 7.04924 10.4643 7.09406 10.559L8.22989 13.2298C8.28359 13.3559 8.30536 13.4933 8.2933 13.6298C8.28123 13.7662 8.2357 13.8977 8.16073 14.0123C6.79154 16.0967 5.8254 18.4193 5.31239 20.8598C5.28417 20.9939 5.22332 21.119 5.13523 21.2239C5.04715 21.3289 4.93454 21.4105 4.80739 21.4615L2.13239 22.5365C2.03409 22.5733 1.94752 22.6359 1.88182 22.7177C1.81611 22.7995 1.7737 22.8976 1.75906 23.0015Z" fill="white"/>
<path d="M37.4974 26.6641C35.3548 26.6641 33.2603 27.2994 31.4787 28.4898C29.6972 29.6802 28.3087 31.3721 27.4887 33.3517C26.6688 35.3312 26.4542 37.5094 26.8722 39.6109C27.2902 41.7123 28.322 43.6427 29.8371 45.1577C31.3521 46.6728 33.2825 47.7046 35.3839 48.1226C37.4854 48.5406 39.6636 48.326 41.6431 47.5061C43.6227 46.6861 45.3146 45.2976 46.505 43.5161C47.6954 41.7345 48.3307 39.64 48.3307 37.4974C48.3274 34.6252 47.185 31.8717 45.1541 29.8407C43.1231 27.8098 40.3696 26.6674 37.4974 26.6641ZM43.8924 37.6532L42.3632 39.2007L42.7249 41.3949C42.8021 41.8368 42.7525 42.2915 42.5818 42.7064C42.4112 43.1213 42.1265 43.4793 41.7607 43.7391C41.4143 43.9876 41.0046 44.133 40.579 44.1584C40.1533 44.1838 39.7292 44.0881 39.3557 43.8824L37.4974 42.8666L35.6391 43.8824C35.2655 44.088 34.8415 44.1836 34.4159 44.1582C33.9903 44.1329 33.5805 43.9875 33.2341 43.7391C32.8684 43.4795 32.5837 43.1216 32.4131 42.7068C32.2424 42.2921 32.1928 41.8375 32.2699 41.3957L32.6316 39.2007L31.1024 37.6541C30.7906 37.3374 30.5728 36.9403 30.4733 36.5072C30.3738 36.074 30.3966 35.6217 30.5391 35.2007C30.6704 34.7909 30.9133 34.4257 31.2405 34.146C31.5677 33.8664 31.9662 33.6833 32.3916 33.6174L34.4791 33.3032L35.4141 31.3307C35.5969 30.9328 35.8901 30.5957 36.2588 30.3594C36.6275 30.1231 37.0562 29.9975 37.4941 29.9975C37.932 29.9975 38.3607 30.1231 38.7294 30.3594C39.098 30.5957 39.3912 30.9328 39.5741 31.3307L40.5124 33.3074L42.5999 33.6216C43.0252 33.6875 43.4238 33.8705 43.751 34.1502C44.0782 34.4298 44.321 34.795 44.4524 35.2049C44.5945 35.6249 44.6174 36.076 44.5185 36.5082C44.4197 36.9404 44.2029 37.3368 43.8924 37.6532Z" fill="white"/>
<path d="M42.3598 35.2697L39.8365 34.8889C39.7015 34.8685 39.5737 34.8153 39.4641 34.7339C39.3545 34.6526 39.2667 34.5455 39.2081 34.4223L38.079 32.0448C38.0313 31.9319 37.9514 31.8356 37.8493 31.7679C37.7471 31.7002 37.6273 31.6641 37.5048 31.6641C37.3823 31.6641 37.2625 31.7002 37.1604 31.7679C37.0582 31.8356 36.9783 31.9319 36.9306 32.0448L35.7998 34.4223C35.7413 34.5455 35.6534 34.6526 35.5438 34.7339C35.4343 34.8153 35.3064 34.8685 35.1715 34.8889L32.6465 35.2697C32.5257 35.2895 32.4129 35.3429 32.321 35.4238C32.2292 35.5047 32.1621 35.6099 32.1273 35.7272C32.0821 35.8561 32.0738 35.9951 32.1032 36.1285C32.1326 36.2618 32.1987 36.3844 32.294 36.4823L34.1215 38.3306C34.2139 38.4242 34.2829 38.5384 34.3228 38.6639C34.3626 38.7893 34.3721 38.9224 34.3506 39.0523L33.9198 41.6639C33.8941 41.7977 33.9073 41.9361 33.958 42.0625C34.0087 42.189 34.0946 42.2982 34.2056 42.3772C34.2969 42.4457 34.4063 42.486 34.5202 42.4929C34.6341 42.4999 34.7475 42.4733 34.8465 42.4164L37.1048 41.1831C37.2272 41.1163 37.3645 41.0813 37.504 41.0813C37.6435 41.0813 37.7807 41.1163 37.9031 41.1831L40.1615 42.4164C40.2601 42.4741 40.3737 42.5012 40.4878 42.4943C40.6019 42.4873 40.7114 42.4466 40.8023 42.3772C40.9129 42.298 40.9985 42.1886 41.0488 42.0622C41.0992 41.9358 41.1123 41.7975 41.0865 41.6639L40.6548 39.0514C40.6335 38.9216 40.6433 38.7887 40.6833 38.6634C40.7233 38.5381 40.7923 38.4241 40.8848 38.3306L42.7115 36.4806C42.8067 36.3829 42.8728 36.2605 42.9023 36.1273C42.9317 35.994 42.9234 35.8552 42.8781 35.7264C42.8433 35.6093 42.7762 35.5044 42.6846 35.4236C42.5929 35.3429 42.4804 35.2895 42.3598 35.2697Z" fill="white"/>
</svg>
