<svg width="40" height="40" viewBox="0 0 40 40" fill="none" xmlns="http://www.w3.org/2000/svg">
<path d="M19.9995 16.4052C22.1695 16.4052 23.9286 14.6461 23.9286 12.476C23.9286 10.306 22.1695 8.54688 19.9995 8.54688C17.8295 8.54688 16.0703 10.306 16.0703 12.476C16.0703 14.6461 17.8295 16.4052 19.9995 16.4052Z" fill="black"/>
<path d="M37.0807 1.82812H34.5807C33.8932 1.82812 33.3307 2.39062 33.3307 3.07812V7.66146H29.6682C29.5016 7.61562 29.3307 7.60313 29.1599 7.62812C29.1099 7.63646 29.0641 7.64896 29.0182 7.66146H10.9766C10.9307 7.64896 10.8849 7.63229 10.8349 7.62812C10.6641 7.60313 10.4891 7.61562 10.3266 7.66146H6.66406V3.07812C6.66406 2.39062 6.10156 1.82812 5.41406 1.82812H2.91406C2.22656 1.82812 1.66406 2.39062 1.66406 3.07812V12.6615C1.66406 13.349 2.22656 13.9115 2.91406 13.9115H5.41406C6.10156 13.9115 6.66406 13.349 6.66406 12.6615V8.49479H9.1224L9.08906 8.51979C8.58073 8.92396 8.4724 9.66146 8.8349 10.199L15.4266 19.8906L16.2349 27.5698L11.6432 35.5531C11.3474 36.1198 11.5224 36.8156 12.0557 37.174L13.2391 37.9615C13.5182 38.1448 13.8516 38.2115 14.1766 38.149C14.5057 38.0823 14.7849 37.8948 14.9724 37.6156L19.6516 30.599C19.8099 30.3615 20.1891 30.3615 20.3432 30.599L25.0224 37.6156C25.2057 37.8948 25.4891 38.0823 25.8182 38.149C25.9016 38.1656 25.9849 38.174 26.0641 38.174C26.3099 38.174 26.5474 38.1031 26.7557 37.9656L27.9391 37.1781C28.4724 36.824 28.6516 36.1281 28.3432 35.5448L23.7599 27.574L24.5682 19.8948L31.1599 10.2031C31.5266 9.66563 31.4141 8.92812 30.9057 8.52396L30.8724 8.49896H33.3307V12.6656C33.3307 13.3531 33.8932 13.9156 34.5807 13.9156H37.0807C37.7682 13.9156 38.3307 13.3531 38.3307 12.6656V3.07812C38.3307 2.39062 37.7682 1.82812 37.0807 1.82812ZM21.8641 17.2448H18.1266L11.9266 8.49479H28.0599L21.8599 17.2448H21.8641Z" fill="black"/>
</svg>
