<svg width="40" height="40" viewBox="0 0 40 40" fill="none" xmlns="http://www.w3.org/2000/svg">
<g clip-path="url(#clip0_34_1292)">
<path d="M38.8281 0H34.0625C33.4148 0 32.8906 0.524141 32.8906 1.17188V2.34375H23.2998C22.8144 0.982656 21.5258 0 20 0C18.4742 0 17.1856 0.982656 16.7002 2.34375H7.10938V1.17188C7.10938 0.524141 6.58523 0 5.9375 0H1.17188C0.524141 0 0 0.524141 0 1.17188V5.85938C0 6.50711 0.524141 7.03125 1.17188 7.03125H5.9375C6.58523 7.03125 7.10938 6.50711 7.10938 5.85938V4.67188H11.9222C7.85523 7.21258 5.17359 11.675 4.85305 16.673C3.44695 17.1333 2.42188 18.4422 2.42188 20C2.42188 21.9386 3.99891 23.5156 5.9375 23.5156C7.87609 23.5156 9.45312 21.9386 9.45312 20C9.45312 18.5047 8.51086 17.2334 7.19219 16.726C7.59203 11.1538 11.4802 6.45719 16.8885 5.11719C17.4734 6.2482 18.6412 7.03125 20 7.03125C21.3588 7.03125 22.5266 6.2482 23.1115 5.11719C28.5198 6.45711 32.408 11.1537 32.8078 16.7259C31.4891 17.2334 30.5469 18.5047 30.5469 20C30.5469 21.9386 32.1239 23.5156 34.0625 23.5156C36.0011 23.5156 37.5781 21.9386 37.5781 20C37.5781 18.4422 36.553 17.1333 35.147 16.673C34.8264 11.675 32.1448 7.2282 28.0778 4.6875H32.8906V5.85938C32.8906 6.50711 33.4148 7.03125 34.0625 7.03125H38.8281C39.4759 7.03125 40 6.50711 40 5.85938V1.17188C40 0.524141 39.4759 0 38.8281 0Z" fill="black"/>
<path d="M27.9731 38.5465C27.3602 36.6708 25.5942 35.2344 23.5161 35.2344H16.4849C14.4067 35.2344 12.6408 36.6708 12.0278 38.5465C11.7915 39.2697 12.4067 40 13.1677 40H26.8333C27.5942 40 28.2095 39.2697 27.9731 38.5465Z" fill="black"/>
<path d="M30.35 24.0407L21.1719 10.2734V21.3909C22.533 21.8763 23.5156 23.1649 23.5156 24.6907C23.5156 26.6293 21.9386 28.2063 20 28.2063C18.0614 28.2063 16.4844 26.6293 16.4844 24.6907C16.4844 23.1649 17.467 21.8763 18.8281 21.3909V10.2734L9.65001 24.0407C9.33985 24.5053 9.40165 25.1245 9.7965 25.5193C11.9478 27.6706 13.323 30.4421 13.8537 33.415C14.6677 33.0848 15.5531 32.8938 16.4844 32.8938H23.5156C24.4469 32.8938 25.3323 33.0847 26.1463 33.4148C26.677 30.4418 28.0522 27.6706 30.2035 25.5193C30.5984 25.1245 30.6602 24.5053 30.35 24.0407Z" fill="black"/>
<path d="M20 23.5156C19.3534 23.5156 18.8281 24.0409 18.8281 24.6875C18.8281 25.3341 19.3534 25.8594 20 25.8594C20.6466 25.8594 21.1719 25.3341 21.1719 24.6875C21.1719 24.0409 20.6466 23.5156 20 23.5156Z" fill="black"/>
</g>
<defs>
<clipPath id="clip0_34_1292">
<rect width="40" height="40" fill="white"/>
</clipPath>
</defs>
</svg>
