<svg width="40" height="40" viewBox="0 0 40 40" fill="none" xmlns="http://www.w3.org/2000/svg">
<path d="M38.276 15.75C38.0056 15.1516 37.7047 14.5675 37.3744 14L33.1194 25.5583C32.9571 25.9902 32.7211 26.3906 32.4219 26.7417C33.564 26.6286 34.6646 26.2533 35.6379 25.6449C36.6111 25.0366 37.4307 24.2117 38.0327 23.2345C38.6348 22.2574 39.003 21.1543 39.1086 20.0115C39.2143 18.8686 39.0545 17.7168 38.6419 16.6458C38.5285 16.3408 38.4069 16.0442 38.276 15.75Z" fill="black"/>
<path d="M13.8564 5.33875C11.3736 6.22253 9.09468 7.59819 7.156 9.38338C5.21731 11.1686 3.65875 13.3266 2.57362 15.7282C1.48849 18.1299 0.899107 20.7258 0.840743 23.3605C0.782378 25.9953 1.25624 28.6147 2.23395 31.0621C2.25978 31.1146 2.27728 31.1663 2.30312 31.2188C2.82254 32.4592 3.66822 33.5358 4.75033 34.3342C5.83245 35.1327 7.1106 35.6231 8.44906 35.7536C9.78752 35.884 11.1363 35.6494 12.3522 35.0749C13.5681 34.5004 14.6057 33.6073 15.3548 32.4904C16.9215 30.1303 19.1707 28.3041 21.8023 27.2554C21.8856 27.2221 21.9689 27.1971 22.0523 27.1663C22.3486 26.4827 22.7895 25.8716 23.3446 25.3748C23.8998 24.8781 24.556 24.5075 25.2681 24.2888C25.2508 23.6612 25.3794 23.0381 25.6439 22.4688L32.2273 8.21292C29.6413 6.25264 26.6098 4.96405 23.4038 4.46247C20.1978 3.96089 16.9175 4.26196 13.8564 5.33875ZM8.74812 27.0888C8.08884 27.0888 7.44438 26.8933 6.89622 26.527C6.34805 26.1607 5.92081 25.6401 5.66852 25.031C5.41623 24.4219 5.35021 23.7517 5.47883 23.1051C5.60745 22.4585 5.92492 21.8646 6.39109 21.3984C6.85727 20.9322 7.45121 20.6148 8.09781 20.4861C8.74442 20.3575 9.41464 20.4235 10.0237 20.6758C10.6328 20.9281 11.1534 21.3554 11.5197 21.9035C11.886 22.4517 12.0814 23.0961 12.0814 23.7554C12.0814 24.6395 11.7303 25.4873 11.1051 26.1124C10.48 26.7376 9.63217 27.0888 8.74812 27.0888ZM12.9148 17.5054C12.2555 17.5054 11.611 17.3099 11.0629 16.9437C10.5147 16.5774 10.0875 16.0568 9.83518 15.4477C9.58289 14.8386 9.51688 14.1684 9.6455 13.5218C9.77411 12.8752 10.0916 12.2812 10.5578 11.8151C11.0239 11.3489 11.6179 11.0314 12.2645 10.9028C12.9111 10.7742 13.5813 10.8402 14.1904 11.0925C14.7995 11.3448 15.3201 11.772 15.6863 12.3202C16.0526 12.8683 16.2481 13.5128 16.2481 14.1721C16.2481 15.0561 15.8969 15.904 15.2718 16.5291C14.6467 17.1542 13.7988 17.5054 12.9148 17.5054ZM22.9148 14.5888C22.2555 14.5888 21.611 14.3933 21.0629 14.027C20.5147 13.6607 20.0875 13.1401 19.8352 12.531C19.5829 11.9219 19.5169 11.2517 19.6455 10.6051C19.7741 9.95851 20.0916 9.36457 20.5578 8.8984C21.0239 8.43222 21.6179 8.11475 22.2645 7.98613C22.9111 7.85752 23.5813 7.92353 24.1904 8.17582C24.7995 8.42811 25.3201 8.85535 25.6863 9.40352C26.0526 9.95168 26.2481 10.5961 26.2481 11.2554C26.2481 12.1395 25.8969 12.9873 25.2718 13.6124C24.6467 14.2376 23.7988 14.5888 22.9148 14.5888Z" fill="black"/>
<path d="M37.8944 3.46218C37.5246 3.30861 37.1098 3.30424 36.7369 3.44998C36.364 3.59572 36.062 3.88025 35.8944 4.24385L27.1577 23.1647C26.9565 23.5999 26.8915 24.0858 26.971 24.5586C27.0506 25.0314 27.271 25.4692 27.6035 25.8147C26.7914 25.6242 25.938 25.7283 25.1955 26.1085C24.4529 26.4887 23.8696 27.1202 23.5494 27.8905C22.2002 31.1488 24.3344 32.578 22.9844 35.8363C24.5234 35.6644 25.9895 35.0881 27.2336 34.166C28.4777 33.2439 29.4555 32.0088 30.0677 30.5863C30.3559 29.8859 30.4102 29.1111 30.2225 28.3773C30.0348 27.6435 29.6152 26.9899 29.026 26.5138C29.5588 26.5825 30.0992 26.4685 30.5589 26.1905C31.0185 25.9125 31.3703 25.4868 31.5569 24.983L38.7569 5.42385C38.8936 5.04873 38.8802 4.63532 38.7195 4.26983C38.5588 3.90434 38.2632 3.61501 37.8944 3.46218Z" fill="black"/>
</svg>
