<svg width="40" height="40" viewBox="0 0 40 40" fill="none" xmlns="http://www.w3.org/2000/svg">
<g clip-path="url(#clip0_34_1246)">
<path d="M26.1947 20.167C26.015 21.635 25.3548 23.0342 24.2673 24.1217C22.9454 25.4444 21.0978 26.0671 18.7774 25.9733C17.1501 25.9085 16.3985 26.3343 16.2751 26.4116C15.7766 26.8483 15.1438 27.0874 14.4759 27.0874C13.7454 27.0874 13.0587 26.803 12.5423 26.2866C11.6508 25.3952 11.5071 24.0202 12.1157 22.9725L12.5524 22.2803C12.7009 21.9186 12.9016 21.2045 12.8548 20.0506C12.7618 17.7295 13.3844 15.8826 14.7063 14.5608C15.7891 13.4787 17.1735 12.8084 18.6704 12.6295C18.8821 11.6115 19.3407 10.6592 20.0025 9.85916H4.3008C2.57579 9.85916 1.17188 11.2623 1.17188 12.9873V28.5022H33.8127V13.0967L29.8463 17.9576C28.9134 19.0975 27.6181 19.8733 26.1947 20.167Z" fill="black"/>
<path d="M1.17195 31.8437C1.17195 33.5679 2.57587 34.9711 4.30088 34.9711H13.193V37.6539H11.2221C10.5749 37.6539 10.0502 38.1786 10.0502 38.8258C10.0502 39.473 10.5749 39.9977 11.2221 39.9977H23.7622C24.4094 39.9977 24.9341 39.473 24.9341 38.8258C24.9341 38.1786 24.4094 37.6539 23.7622 37.6539H21.7913V34.9711H30.6838C32.4088 34.9711 33.8127 33.5679 33.8127 31.8437V30.8437H1.17188V31.8437H1.17195Z" fill="black"/>
<path d="M14.231 24.051C14.2308 24.0511 14.2305 24.0513 14.2304 24.0516C14.2302 24.0517 14.2302 24.0517 14.2301 24.0519L14.2298 24.0522C14.2296 24.0523 14.2295 24.0524 14.2294 24.0526C14.2293 24.0528 14.2292 24.0528 14.229 24.053L14.2289 24.0531C14.2288 24.0532 14.2287 24.0533 14.2285 24.0535C14.2285 24.0535 14.2285 24.0535 14.2284 24.0535C14.2284 24.0536 14.2282 24.0538 14.2281 24.0539C14.2281 24.0539 14.2281 24.0539 14.228 24.054C14.2279 24.0541 14.2278 24.0542 14.2277 24.0544C14.2277 24.0544 14.2277 24.0544 14.2276 24.0545L14.2272 24.0549C14.0791 24.2078 14.0805 24.4517 14.2316 24.6028C14.3079 24.6791 14.4078 24.7172 14.5078 24.7172C14.6069 24.7172 14.7059 24.6798 14.782 24.6049C14.8059 24.5822 15.9892 23.4882 18.9044 23.6054C20.5445 23.6715 21.802 23.2786 22.6423 22.4383C24.3645 20.7162 24.3645 17.9142 22.6423 16.192C21.8081 15.3578 20.699 14.8984 19.5192 14.8984C18.3395 14.8984 17.2303 15.3578 16.3961 16.192C15.5558 17.0324 15.163 18.29 15.229 19.93C15.3468 22.861 14.2405 24.0412 14.2316 24.0504C14.2313 24.0506 14.2312 24.0508 14.231 24.051Z" fill="black"/>
<path d="M26.0898 17.7596C26.8539 17.5307 27.5422 17.0776 28.0555 16.4503L29.5528 14.6153L24.2187 9.28119L22.3914 10.7737C21.7625 11.2862 21.3078 11.9737 21.0781 12.7378C22.2859 13.0213 23.3937 13.6362 24.293 14.5354C25.2133 15.4557 25.8125 16.5768 26.0898 17.7596Z" fill="black"/>
<path d="M38.1272 0.703631C37.2545 -0.169025 35.8748 -0.238556 34.9186 0.542694L26.0469 7.78902L31.0459 12.788L38.2889 3.91152C39.0694 2.95598 38.9998 1.57629 38.1272 0.703631Z" fill="black"/>
</g>
<defs>
<clipPath id="clip0_34_1246">
<rect width="40" height="40" fill="white"/>
</clipPath>
</defs>
</svg>
