<svg width="40" height="40" viewBox="0 0 40 40" fill="none" xmlns="http://www.w3.org/2000/svg">
<path d="M21.1815 13.3105C21.0556 14.3328 22.1659 15.6771 24.5305 16.2684C27.0603 16.9005 27.7744 18.2665 28.4045 19.4715C28.8719 20.3656 29.2845 21.1538 30.4105 21.7366C31.1113 19.7813 31.3803 17.6975 31.199 15.6283C31.0178 13.5591 30.3906 11.5537 29.3606 9.75C28.0787 10.8136 26.1896 11.8747 23.7539 11.8747C22.2986 11.8747 21.2888 12.4383 21.1815 13.3105Z" fill="black"/>
<path d="M18.0233 7.15258C18.3136 7.58812 18.6071 7.63391 19.9915 7.09844C21.024 6.69914 22.3093 6.20211 23.475 6.9793C24.2924 7.52422 25.6412 6.76883 26.4754 6.18195C24.7449 4.62429 22.6616 3.51081 20.4051 2.9375C18.1454 5.28055 17.7008 6.66898 18.0233 7.15258Z" fill="black"/>
<path d="M7.15574 21.5276C8.15371 21.0671 8.74949 19.327 8.74949 16.873C8.74949 14.2016 10.0873 13.6308 11.2675 13.1273C12.2874 12.6923 13.2507 12.2814 13.7736 10.4513C14.5583 7.70594 11.4509 5.40266 9.76512 4.38281C7.12622 5.88525 5.03068 8.18452 3.77882 10.9511C2.52696 13.7177 2.18305 16.8095 2.79637 19.7836C4.69418 21.3658 6.19934 21.9688 7.15574 21.5276Z" fill="black"/>
<path d="M11.2149 21.8185C11.2029 21.1389 11.4297 20.5566 11.8712 20.136C12.7253 19.3214 14.1561 19.3087 15.3506 20.1052C15.6455 20.3016 15.9159 20.275 17.1163 19.1848C17.7022 18.6528 18.3077 18.1028 19.0241 17.8146C19.934 17.4485 20.8155 17.5993 21.6443 18.2621C23.0155 19.3591 23.0697 20.7663 22.7392 22.2134L25.9877 20.6847C26.071 20.6455 26.1618 20.6252 26.2538 20.6252C26.3458 20.6252 26.4367 20.6455 26.5199 20.6847L28.1426 21.4483C27.7862 20.9874 27.5347 20.5067 27.2966 20.0513C26.7149 18.9386 26.2125 17.9777 24.2273 17.4816C22.8367 17.1339 21.6961 16.5278 20.9291 15.7287C20.1834 14.9518 19.8323 14.0389 19.9408 13.1584C20.1299 11.6195 21.6266 10.6252 23.7535 10.6252C25.9039 10.6252 27.573 9.63925 28.6851 8.68487C28.2899 8.11698 27.8545 7.57815 27.3823 7.07253C25.5395 8.43972 23.9188 8.77823 22.7818 8.02018C22.1992 7.63175 21.4771 7.86511 20.4425 8.26518C19.8878 8.47964 19.2266 8.73534 18.5888 8.73542C17.9995 8.73542 17.4304 8.51729 16.9835 7.8469C16.2188 6.69995 16.8856 4.95448 18.9629 2.65159C16.2819 2.25908 13.5446 2.63251 11.0668 3.72878C11.9041 4.28683 12.8377 5.01784 13.6008 5.89745C14.988 7.49604 15.4518 9.14448 14.9795 10.797C14.293 13.1996 12.8896 13.7983 11.762 14.2793C10.6655 14.7471 10.0035 15.0295 10.0035 16.8752C10.0035 18.6376 9.70211 21.7334 7.6832 22.6648C7.30927 22.8356 6.90242 22.9223 6.49133 22.9189C5.57906 22.9189 4.53219 22.5322 3.35938 21.7626C4.1801 24.0183 5.55048 26.0336 7.34643 27.6261C9.14239 29.2186 11.3072 30.338 13.6448 30.883C13.4775 28.8536 13.0515 25.8786 11.9676 24.0714C11.4801 23.2596 11.227 22.5015 11.2149 21.8185Z" fill="black"/>
<path d="M15.0016 26.2491C15.0017 26.1305 15.0354 26.0144 15.099 25.9142C15.1625 25.8141 15.2532 25.7341 15.3606 25.6836L21.2421 22.9158C21.8857 20.8861 21.783 19.9746 20.8612 19.2371C19.9241 18.4871 19.2559 18.9271 17.9545 20.109C17.0393 20.9402 15.9003 21.9743 14.6549 21.1441C13.9727 20.6893 13.1459 20.6441 12.7316 21.0395C12.2827 21.4675 12.3972 22.3598 13.0376 23.4275C13.6079 24.3782 14.5899 26.622 14.9148 31.1146C16.1875 31.2894 17.4778 31.2938 18.7516 31.1278V28.4104L15.3606 26.8146C15.2532 26.7641 15.1625 26.6841 15.099 26.584C15.0354 26.4838 15.0017 26.3677 15.0016 26.2491Z" fill="black"/>
<path d="M26.25 31.8755C26.158 31.8755 26.0671 31.8552 25.9839 31.8159L20 29V34.625C22.0817 35.7036 24.1827 36.2505 26.25 36.2505C28.3173 36.2505 30.4183 35.7036 32.5 34.625V29L26.5161 31.8159C26.4329 31.8552 26.342 31.8755 26.25 31.8755Z" fill="black"/>
<path d="M36.2509 29.9967H37.5009V26.2467C37.5009 26.081 37.4351 25.922 37.3179 25.8048C37.2007 25.6876 37.0417 25.6217 36.8759 25.6217H34.08L26.2509 21.9375L17.0938 26.2467L26.2509 30.5559L34.08 26.8717H36.2509V29.9967Z" fill="black"/>
<path d="M36.875 33.75C36.875 33.75 35.625 34.375 35.625 37.5H38.125C38.125 34.375 36.875 33.75 36.875 33.75Z" fill="black"/>
<path d="M36.875 33.75C37.5654 33.75 38.125 33.1904 38.125 32.5C38.125 31.8096 37.5654 31.25 36.875 31.25C36.1846 31.25 35.625 31.8096 35.625 32.5C35.625 33.1904 36.1846 33.75 36.875 33.75Z" fill="black"/>
</svg>
