<svg width="40" height="40" viewBox="0 0 40 40" fill="none" xmlns="http://www.w3.org/2000/svg">
<g clip-path="url(#clip0_34_1225)">
<path d="M32.8906 8.28125C32.8906 3.75852 29.2102 0 24.6875 0C22.9251 0 21.2783 0.754141 20 2.11141C18.7216 0.754141 17.0748 0 15.3125 0C10.7898 0 7.10938 3.75852 7.10938 8.28125C7.10938 12.8303 10.4476 15.1786 14.3134 17.8988C15.9076 19.0203 17.5567 20.1808 19.2321 21.6342L19.9988 22.3002L20.7667 21.6353C22.6607 19.9965 24.462 18.7137 26.0505 17.5818C29.8716 14.8616 32.8906 12.7124 32.8906 8.28125ZM23.5156 11.7969H21.1719V14.1406H18.8281V11.7969H16.4844V9.45312H18.8281V7.10938H21.1719V9.45312H23.5156V11.7969Z" fill="black"/>
<path d="M38.5938 10.7188C36.2031 10.7188 35.586 21.8281 35.5391 22.0626C35.301 23.6904 34.1543 26.1001 32.2177 27.551L27.1419 31.2364L25.7366 29.3596L30.8124 25.6753C32.8231 24.1678 33.7395 21.5937 31.2266 21.5937C28.9759 21.5937 24.769 24.1995 23.5218 25.2331C22.0325 26.4675 21.1719 28.3016 21.1719 30.2359V40.0001H28.2031C28.2031 38.875 28.8125 37.6484 29.7499 36.4766C30.7344 35.1875 32.1406 33.875 33.5937 32.5391C36.3593 29.9375 39.2265 27.2656 39.6016 24.547C39.8242 22.7207 40.0091 19.5885 39.9999 16.797C39.9898 13.6708 39.7249 10.8198 38.5938 10.7188Z" fill="black"/>
<path d="M16.2022 25.0156C12.8975 22.7421 10.3898 21.5937 8.77261 21.5937C6.25964 21.5937 7.17605 24.1677 9.18675 25.6752L14.2626 29.3595L12.8573 31.2363L7.78144 27.5509C5.84472 26.1 4.698 23.6903 4.45996 22.0625C4.413 21.828 3.79589 10.7187 1.40519 10.7187C0.092691 10.8358 -0.0479342 14.6562 0.0224565 18.3124C0.0694096 20.9843 0.280269 23.5858 0.397378 24.5469C0.772457 27.2655 3.63964 29.9375 6.40527 32.539C7.85839 33.8749 9.26457 35.1874 10.249 36.4765C11.1864 37.6483 11.7958 38.8749 11.7958 40H18.8271V30.2826C18.8272 28.2123 17.8553 26.262 16.2022 25.0156Z" fill="black"/>
</g>
<defs>
<clipPath id="clip0_34_1225">
<rect width="40" height="40" fill="white"/>
</clipPath>
</defs>
</svg>
