<svg width="40" height="40" viewBox="0 0 40 40" fill="none" xmlns="http://www.w3.org/2000/svg">
<path d="M36.053 3.71869H3.94184C2.66406 3.71869 1.66406 4.71869 1.66406 5.94091V26.7742C1.66406 27.9965 2.66406 29.052 3.94184 29.052H36.1085C37.3307 29.052 38.3863 28.052 38.3863 26.7742V5.94091C38.3307 4.71869 37.3307 3.71869 36.053 3.71869ZM19.9974 25.552C14.9418 25.552 10.7752 21.4409 10.7752 16.3298C10.7752 11.2742 14.8863 7.10758 19.9974 7.10758C25.053 7.10758 29.2196 11.2187 29.2196 16.3298C29.2196 21.4409 25.053 25.552 19.9974 25.552Z" fill="black"/>
<path d="M24.1615 16.3828C24.1615 16.9383 23.8837 17.4383 23.3837 17.7716L18.7726 20.5494C18.4948 20.7161 18.217 20.7716 17.9392 20.7716C17.6615 20.7716 17.3837 20.7161 17.1615 20.5494C16.6615 20.2716 16.3281 19.7161 16.3281 19.1605V13.605C16.3281 13.0494 16.6059 12.4939 17.1615 12.2161C17.6615 11.9383 18.2726 11.9383 18.7726 12.2161L23.3837 14.9939C23.8837 15.2716 24.1615 15.7716 24.1615 16.3828Z" fill="black"/>
<path d="M38.3307 34.1666C38.3307 34.4444 38.1085 34.7222 37.7752 34.7222H11.1641C10.8307 35.6666 9.83073 36.3333 8.55295 36.3333C7.33073 36.3333 6.27517 35.6666 5.94184 34.7222H2.71962C2.38628 34.7222 2.16406 34.4444 2.16406 34.1666C2.16406 33.8333 2.38628 33.6111 2.71962 33.6111H5.94184C6.21962 32.6666 7.27517 31.9999 8.55295 31.9999C9.83073 31.9999 10.8307 32.6666 11.1641 33.6111H37.7752C38.1085 33.6111 38.3307 33.8333 38.3307 34.1666Z" fill="black"/>
</svg>
