<svg width="40" height="40" viewBox="0 0 40 40" fill="none" xmlns="http://www.w3.org/2000/svg">
<path fill-rule="evenodd" clip-rule="evenodd" d="M12.3727 10.039V4.5015L7.69844 6.29213V11.8296L12.3727 10.039ZM32.2555 12.8335V28.8273H28.6063V29.7648H32.7242C32.9828 29.7648 33.193 29.5546 33.193 29.296V12.8335H32.2555ZM7.69844 12.8335H6.76094V29.296C6.76094 29.5546 6.97031 29.7648 7.22969 29.7648H11.3469V28.8273H7.69844V12.8335ZM28.9891 35.7429H10.9648V36.832C10.9648 37.432 11.4531 37.9202 12.0531 37.9202H27.9008C28.5008 37.9202 28.9891 37.432 28.9891 36.832V35.7429ZM27.1117 24.7851H12.8414C12.5344 24.7851 12.2844 25.0351 12.2844 25.3421V34.8054H27.6688V25.3421C27.6688 25.0351 27.4195 24.7851 27.1117 24.7851ZM24.5008 29.464C24.6836 29.6468 24.6836 29.9437 24.5008 30.1265L22.2508 32.3765C22.1594 32.4679 22.0391 32.514 21.9195 32.514C21.7992 32.514 21.6797 32.4679 21.5883 32.3765C21.4047 32.1937 21.4047 31.8968 21.5883 31.714L23.5063 29.7952L21.5883 27.8765C21.4047 27.6937 21.4047 27.3968 21.5883 27.214C21.7711 27.0312 22.068 27.0312 22.2508 27.214L24.5008 29.464ZM20.9375 27.0984L19.8672 32.6687C19.8242 32.8937 19.6281 33.0492 19.4078 33.0492C19.3781 33.0492 19.3484 33.0468 19.3188 33.0406C19.0648 32.9921 18.8977 32.7468 18.9469 32.4921L20.0164 26.921C20.0656 26.6671 20.3117 26.5007 20.5656 26.5492C20.8195 26.5984 20.9859 26.8437 20.9375 27.0984ZM18.3656 27.8765L16.4469 29.7952L18.3656 31.714C18.5484 31.8968 18.5484 32.1937 18.3656 32.3765C18.2742 32.4679 18.1539 32.514 18.0344 32.514C17.9141 32.514 17.7945 32.4679 17.7031 32.3765L15.4531 30.1265C15.2695 29.9437 15.2695 29.6468 15.4531 29.464L17.7031 27.214C17.8859 27.0312 18.1828 27.0312 18.3656 27.214C18.5477 27.3968 18.5477 27.6937 18.3656 27.8765ZM19.9766 18.5882C21.5484 18.5882 22.8273 17.3093 22.8273 15.7374C22.8273 14.1656 21.5484 12.8867 19.9766 12.8867C18.4047 12.8867 17.1258 14.1656 17.1258 15.7374C17.125 17.3093 18.4047 18.5882 19.9766 18.5882ZM24.8195 23.8476C24.1539 22.1015 22.3891 21.0781 19.9766 21.0781C17.5641 21.0781 15.7992 22.1015 15.1336 23.8476H24.8195ZM28.4227 3.82025L32.7242 5.46791L37.025 3.82025L32.7242 2.17181L28.4227 3.82025ZM32.2555 11.8296L27.5805 10.039V4.5015L32.2555 6.29213V11.8296ZM33.193 6.29213L37.8672 4.5015V10.039L33.193 11.8296V6.29213ZM2.92813 3.82025L7.22969 2.17181L11.5312 3.82025L7.22969 5.46791L2.92813 3.82025ZM6.76094 11.8296V6.29213L2.08594 4.5015V10.039L6.76094 11.8296Z" fill="black"/>
</svg>
