<svg width="40" height="40" viewBox="0 0 40 40" fill="none" xmlns="http://www.w3.org/2000/svg">
<g clip-path="url(#clip0_34_1201)">
<path d="M14.9974 16.6666C19.5998 16.6666 23.3307 12.9357 23.3307 8.3333C23.3307 3.73093 19.5998 -3.05176e-05 14.9974 -3.05176e-05C10.395 -3.05176e-05 6.66406 3.73093 6.66406 8.3333C6.66406 12.9357 10.395 16.6666 14.9974 16.6666Z" fill="black"/>
<path d="M19.2233 34.6666C18.355 33.1633 18.5283 31.3116 19.5617 30C18.5283 28.6883 18.355 26.8383 19.2233 25.3333L20.5717 23C21.3133 21.715 22.6967 20.9166 24.1817 20.9166C24.385 20.9166 24.585 20.9316 24.7833 20.96C24.8383 20.8233 24.9083 20.695 24.9767 20.565C24.0767 20.21 23.105 20 22.0833 20H7.91667C3.55167 20 0 23.5516 0 27.9166V33.75C0 34.44 0.56 35 1.25 35H19.415L19.2233 34.6666Z" fill="black"/>
<path d="M36.1734 30.779C36.2067 30.5207 36.2517 30.264 36.2517 29.9974C36.2517 29.729 36.2051 29.474 36.1734 29.2157L37.6751 28.079C38.0101 27.8257 38.1034 27.3624 37.8934 26.9974L36.5451 24.664C36.3351 24.3007 35.8867 24.149 35.5001 24.3124L33.7717 25.0407C33.3501 24.719 32.9017 24.4357 32.4067 24.229L32.1767 22.394C32.1234 21.9774 31.7701 21.664 31.3501 21.664H28.6551C28.2351 21.664 27.8801 21.9774 27.8284 22.394L27.5984 24.229C27.1034 24.4357 26.6534 24.7207 26.2334 25.0407L24.5051 24.3124C24.1184 24.149 23.6701 24.299 23.4601 24.664L22.1117 26.9974C21.9017 27.3607 21.9951 27.824 22.3301 28.079L23.8317 29.2157C23.7984 29.474 23.7534 29.7307 23.7534 29.9974C23.7534 30.2657 23.8001 30.5207 23.8317 30.779L22.3301 31.9157C21.9951 32.169 21.9017 32.6324 22.1117 32.9974L23.4601 35.3324C23.6701 35.6957 24.1184 35.8474 24.5051 35.684L26.2334 34.954C26.6551 35.2757 27.1034 35.559 27.5984 35.7657L27.8284 37.6007C27.8801 38.0174 28.2334 38.3307 28.6534 38.3307H31.3484C31.7684 38.3307 32.1234 38.0174 32.1751 37.6007L32.4051 35.7657C32.9001 35.559 33.3501 35.274 33.7701 34.954L35.4984 35.6824C35.8851 35.8457 36.3334 35.6957 36.5434 35.3307L37.8917 32.9957C38.1017 32.6324 38.0084 32.169 37.6734 31.914L36.1734 30.779ZM30.0017 33.3307C28.1601 33.3307 26.6684 31.839 26.6684 29.9974C26.6684 28.1557 28.1601 26.664 30.0017 26.664C31.8434 26.664 33.3351 28.1557 33.3351 29.9974C33.3351 31.839 31.8434 33.3307 30.0017 33.3307Z" fill="black"/>
</g>
<defs>
<clipPath id="clip0_34_1201">
<rect width="40" height="40" fill="white"/>
</clipPath>
</defs>
</svg>
