<svg width="40" height="40" viewBox="0 0 40 40" fill="none" xmlns="http://www.w3.org/2000/svg">
<g clip-path="url(#clip0_34_1209)">
<path d="M32.4254 4.34369L22 11.9182L39.4684 24.6099C39.8179 23.1315 40.0038 21.5906 40.0038 20.007C40.0038 13.6688 37.0396 8.01056 32.4254 4.34369Z" fill="black"/>
<path d="M30.3859 2.92392C27.356 1.07447 23.7985 0.00775146 19.9965 0.00775146C15.9104 0.00775146 12.1073 1.24041 8.9375 3.35205L12.9216 15.6127L30.3859 2.92392Z" fill="black"/>
<path d="M6.96414 4.8515C2.70273 8.52205 0 13.9546 0 20.007C0 21.8667 0.256094 23.6676 0.733203 25.3772H13.6339L6.96414 4.8515Z" fill="black"/>
<path d="M1.54688 27.7187C4.46883 34.6818 11.2215 39.6541 19.1535 39.9856L23.1392 27.7187H1.54688Z" fill="black"/>
<path d="M21.6328 39.937C29.4959 39.2979 36.0868 34.091 38.7419 26.9804L28.3062 19.3984L21.6328 39.937Z" fill="black"/>
</g>
<defs>
<clipPath id="clip0_34_1209">
<rect width="40" height="40" fill="white"/>
</clipPath>
</defs>
</svg>
