<svg width="50" height="50" viewBox="0 0 50 50" fill="none" xmlns="http://www.w3.org/2000/svg">
<g clip-path="url(#clip0_34_720)">
<path d="M14.385 18.0407C14.385 13.6932 10.8479 10.1562 6.50039 10.1562H4.84844C2.175 10.1562 0 12.3312 0 15.0046C0 16.3125 0.512793 17.5384 1.44404 18.4568C2.37529 19.3752 3.61084 19.8698 4.91592 19.8527L6.43164 19.8316C7.76777 19.8093 9.02803 20.3196 9.97969 21.258C10.9313 22.1965 11.4554 23.4494 11.4554 24.7859V29.5608H14.3851L14.385 18.0407ZM11.4553 18.6517C10.0554 17.5162 8.32676 16.9014 6.50371 16.9014C6.46611 16.9014 6.42842 16.9017 6.39082 16.9021L4.8751 16.9233C4.35713 16.9277 3.86973 16.7343 3.50117 16.3709C3.13262 16.0075 2.92969 15.5222 2.92969 15.0046C2.92969 13.9466 3.79043 13.0859 4.84844 13.0859H6.50039C9.23252 13.0859 11.4553 15.3087 11.4553 18.0407V18.6517Z" fill="black"/>
<path d="M34.8403 14.1933L28.9277 0H22.8516L29.9124 16.9871C31.0051 15.393 32.7957 14.3139 34.8403 14.1933Z" fill="black"/>
<path d="M17.523 46.1107H5.55225V43.1811H17.523V39.5044H5.55225V36.5747H17.523V32.4922H0V49.9999H17.523V46.1107Z" fill="black"/>
<path d="M20.4531 50.0005H50.0004V25.3359H20.4531V50.0005ZM30.4509 29.5631H40.0025V32.4928H30.4509V29.5631ZM25.6751 36.1692H44.7783V39.0989H25.6751V36.1692ZM25.6751 42.7756H44.7783V45.7053H25.6751V42.7756Z" fill="black"/>
<path d="M40.7026 17.241L47.8678 0H41.7916L36.9453 11.5986L38.337 14.9851C39.3056 15.5221 40.1214 16.3015 40.7026 17.241Z" fill="black"/>
<path d="M38.7287 22.4045V20.6144C38.7287 18.6817 37.1563 17.1094 35.2237 17.1094C33.2911 17.1094 31.7188 18.6817 31.7188 20.6144V22.4045H38.7287Z" fill="black"/>
</g>
<defs>
<clipPath id="clip0_34_720">
<rect width="50" height="50" fill="white"/>
</clipPath>
</defs>
</svg>
