<svg width="41" height="40" viewBox="0 0 41 40" fill="none" xmlns="http://www.w3.org/2000/svg">
<g clip-path="url(#clip0_34_369)">
<path d="M13.7684 18.3986L12.7376 18.1016L11.3125 20.0008L12.8319 21.5202L13.7684 18.3986Z" fill="black"/>
<path d="M30.3984 4.20312H31.7777V17.9962H30.3984V4.20312Z" fill="black"/>
<path d="M14.5415 9.03105C14.5415 8.6512 14.2317 8.34139 13.8518 8.34139H12.6961C11.072 8.34139 9.4765 7.89958 8.08371 7.06445L6.96134 6.39062C6.52492 6.72771 6.26562 7.24764 6.26562 7.81472V10.9545C6.26562 12.1106 6.84011 13.1828 7.80152 13.8236L9.52297 14.9712C10.0463 15.3201 10.7615 15.3201 11.2848 14.9712L13.0063 13.8236C13.967 13.1828 14.5415 12.1106 14.5415 10.9545V9.03105Z" fill="black"/>
<path d="M3.44929 7.9769C3.83688 7.50579 4.36793 7.16029 4.98384 7.02593C5.20744 6.14096 5.79775 5.38598 6.64197 4.96404L6.9804 4.79432L8.78805 5.87897C9.96666 6.5858 11.3163 6.95959 12.6909 6.95959H15.226C15.9223 6.95959 16.5521 7.22798 17.0383 7.65564C17.1424 6.98384 17.237 6.14803 17.2764 5.1644L15.226 5.84732V4.89062C15.226 4.8785 15.1886 3.44599 13.9389 1.42046L13.3459 2.60648L12.6694 1.92996C12.6549 1.91682 10.9261 0.298424 6.53489 0.0859375L7.3121 2.41622L4.22447 1.64372C4.29755 2.6378 4.49421 3.61705 4.81075 4.566L5.28253 5.98033L2.85156 5.17012C2.94518 6.34032 3.19841 7.27916 3.44929 7.9769Z" fill="black"/>
<path d="M11.7821 17.0731V16.2656C11.3571 16.4899 10.8877 16.6131 10.4027 16.6131C9.91783 16.6131 9.44841 16.4899 9.02344 16.2656V17.0731L10.4027 18.9124L11.7821 17.0731Z" fill="black"/>
<path d="M4.88497 10.9056V8.53125C4.47447 8.76967 4.19531 9.20979 4.19531 9.71794C4.19531 10.2264 4.47447 10.6662 4.88497 10.9056Z" fill="black"/>
<path d="M27.6406 4.20312H29.0199V17.9962H27.6406V4.20312Z" fill="black"/>
<path d="M16.6071 9.71585C16.6071 9.1747 16.2912 8.71033 15.8359 8.48438C15.8838 8.65814 15.9174 8.83796 15.9174 9.0262V10.9036C16.3279 10.6641 16.6071 10.2243 16.6071 9.71585Z" fill="black"/>
<path d="M7.03125 18.3986L7.96774 21.5202L9.48714 20.0008L8.06203 18.1016L7.03125 18.3986Z" fill="black"/>
<path d="M26.2637 22.1328C24.9804 22.1328 23.9079 23.0178 23.6018 24.2075C24.879 24.2365 26.0472 24.8322 26.8177 25.8592L25.7142 26.6873C25.1872 25.9838 24.3817 25.5811 23.5051 25.5811C21.9837 25.5811 20.7465 26.8186 20.7465 28.3397C20.7465 28.6633 20.8105 28.9937 20.9368 29.3233L21.1072 29.7682L20.7519 30.0847C19.872 30.8717 19.3672 31.9958 19.3672 33.1673C19.3672 34.9494 20.5141 36.4964 22.1383 37.0668C22.2625 34.8965 24.0624 33.1673 26.2637 33.1673V34.5466C24.7423 34.5466 23.5051 35.7841 23.5051 37.3052C23.5051 38.8266 24.7423 40.0638 26.2637 40.0638C27.7852 40.0638 29.0224 38.8266 29.0224 37.3052V24.8914C29.0224 23.3704 27.7852 22.1328 26.2637 22.1328Z" fill="black"/>
<path d="M33.1622 19.375H26.2656V20.7543C27.7029 20.7543 28.9717 21.4911 29.7139 22.6074C30.4561 21.4911 31.7249 20.7543 33.1622 20.7543V19.375Z" fill="black"/>
<path d="M40.0536 29.0294C40.0536 27.2473 38.9067 25.7006 37.2825 25.1302C37.1583 27.3005 35.3584 29.0294 33.1571 29.0294V27.6501C34.6785 27.6501 35.9157 26.4129 35.9157 24.8914C35.9157 23.3704 34.6785 22.1328 33.1571 22.1328C31.6356 22.1328 30.3984 23.3704 30.3984 24.8914V37.3052C30.3984 38.8266 31.6356 40.0638 33.1571 40.0638C34.4404 40.0638 35.5129 39.1792 35.819 37.9895C34.5418 37.9605 33.3736 37.3648 32.6031 36.3378L33.7066 35.5094C34.2336 36.2128 35.0391 36.6156 35.9157 36.6156C37.4371 36.6156 38.6743 35.3784 38.6743 33.857C38.6743 33.5337 38.6103 33.2033 38.484 32.8737L38.3136 32.4288L38.6689 32.1123C39.5488 31.3253 40.0536 30.2012 40.0536 29.0294Z" fill="black"/>
<path d="M2.81331 22.1342H4.19262V26.2722H9.70986V21.7301L7.31189 24.1274L5.70696 18.7812L1.54984 19.9807C0.669922 20.2343 0.0546875 21.0516 0.0546875 21.9682V26.2722H2.81331V22.1342Z" fill="black"/>
<path d="M19.9218 26.2722C20.141 25.8943 20.4185 25.5559 20.7411 25.2653V21.9682C20.7411 21.0516 20.1259 20.2343 19.2453 19.9807L15.0882 18.7812L13.4832 24.1281L11.0859 21.7301V26.2722H16.6032V22.1342H17.9825V26.2722H19.9218Z" fill="black"/>
<path d="M29.7117 0.617188L28.2422 2.82186H31.1813L29.7117 0.617188Z" fill="black"/>
<path d="M13.1581 33.1682H11.0892V30.8359L6.42423 33.1682H0.744343C0.364494 33.1682 0.0546875 33.4774 0.0546875 33.8579V39.3751C0.0546875 39.756 0.364494 40.0648 0.744343 40.0648H13.1581C13.538 40.0648 13.8478 39.756 13.8478 39.3751V33.8579C13.8478 33.4774 13.538 33.1682 13.1581 33.1682ZM9.70986 38.6855H1.434V37.3062H9.70986V38.6855ZM12.4685 38.6855H11.0892V37.3062H12.4685V38.6855ZM12.4685 35.9269H1.434V34.5475H12.4685V35.9269Z" fill="black"/>
</g>
<defs>
<clipPath id="clip0_34_369">
<rect width="40.002" height="40" fill="white" transform="translate(0.0546875)"/>
</clipPath>
</defs>
</svg>
