<svg width="50" height="50" viewBox="0 0 50 50" fill="none" xmlns="http://www.w3.org/2000/svg">
<g clip-path="url(#clip0_34_711)">
<path d="M6.25 28.125C6.25 25.5402 8.35266 23.4375 10.9375 23.4375C13.5223 23.4375 15.625 25.5402 15.625 28.125H18.75C18.75 28.125 18.75 23.0308 18.75 23.0164C18.75 21.849 20.0952 21.0811 21.1021 21.6675C22.1173 22.2586 23.4375 21.4885 23.4375 20.3125C23.4375 19.1777 22.0995 18.3706 21.1023 18.9574C20.0837 19.5568 18.75 18.785 18.75 17.6086V9.375H4.6875C2.10266 9.375 0 11.4777 0 14.0625V28.125H6.25Z" fill="black"/>
<path d="M18.75 43.75C16.1652 43.75 14.0625 41.6473 14.0625 39.0625C14.0625 36.4777 16.1652 34.375 18.75 34.375V31.25H13.6406C12.475 31.25 11.6856 29.9344 12.2924 28.8972C12.8784 27.8956 12.1203 26.5626 10.9376 26.5625C9.80598 26.5624 8.99869 27.9027 9.58245 28.897C10.1825 29.919 9.4167 31.25 8.23441 31.25H0V45.3125C0 47.8973 2.10266 50 4.6875 50H18.75V43.75Z" fill="black"/>
<path d="M34.375 31.25C34.375 33.8348 32.2723 35.9375 29.6875 35.9375C27.1027 35.9375 25 33.8348 25 31.25H21.875V36.3586C21.875 37.5294 20.5328 38.2969 19.5229 37.7075C18.5137 37.1186 17.1875 37.885 17.1875 39.0625C17.1875 40.2015 18.5237 41.0056 19.5228 40.4175C20.5361 39.8211 21.875 40.6015 21.875 41.7664V50H35.9375C38.5223 50 40.625 47.8973 40.625 45.3125V31.25H34.375Z" fill="black"/>
<path d="M45.3125 0H29.6875C28.8239 0 28.125 0.698859 28.125 1.5625V8.23361C28.125 9.41816 29.4568 10.1784 30.4778 9.58255C31.5002 8.98594 32.8125 9.77377 32.8125 10.9375C32.8125 12.0781 31.4787 12.8834 30.478 12.2926C29.4633 11.6934 28.125 12.4765 28.125 13.6414V20.3125C28.125 21.1761 28.8239 21.875 29.6875 21.875H34.375C34.375 24.4598 36.4777 26.5625 39.0625 26.5625C41.6473 26.5625 43.75 24.4598 43.75 21.875H48.4375C49.3011 21.875 50 21.1761 50 20.3125V4.6875C50 2.10266 47.8973 0 45.3125 0Z" fill="black"/>
</g>
<defs>
<clipPath id="clip0_34_711">
<rect width="50" height="50" fill="white"/>
</clipPath>
</defs>
</svg>
