<svg width="50" height="50" viewBox="0 0 50 50" fill="none" xmlns="http://www.w3.org/2000/svg">
<path fill-rule="evenodd" clip-rule="evenodd" d="M45.5268 11.4485C46.3586 11.2842 47.1277 10.9457 47.7948 10.4728V25.7041C47.7948 26.2574 47.3421 26.7102 46.7888 26.7102H31.4725C30.919 26.7102 30.4664 26.2574 30.4664 25.7041V20.4171L32.7345 19.8095V22.9628C32.7345 23.3713 33.0687 23.7056 33.4771 23.7056H44.7841C45.1926 23.7056 45.5268 23.3714 45.5268 22.9628V11.4485ZM32.7345 8.01318C32.7345 7.60469 33.0687 7.27051 33.4771 7.27051H38.6752C38.5265 6.75137 38.4467 6.20303 38.4467 5.63613C38.4467 5.16445 38.5021 4.70576 38.6063 4.26592H31.4724C30.9189 4.26592 30.4663 4.71865 30.4663 5.27197V15.6218L32.7344 15.17V8.01328L32.7345 8.01318ZM43.1105 46.4009H41.2686V32.2649H36.9927V46.4009H35.1506C34.2896 46.4009 33.5874 47.1032 33.5874 47.9642V48.9297H44.6739V47.9642C44.6739 47.1032 43.9716 46.4009 43.1106 46.4009H43.1105ZM4.59971 46.0711H3.85527C3.43633 46.0711 3.09365 46.4139 3.09365 46.8328V48.1203C3.09365 48.5393 3.43643 48.882 3.85527 48.882H4.59971C5.01865 48.882 5.36143 48.5393 5.36143 48.1203V46.8328C5.36143 46.4139 5.01865 46.0711 4.59971 46.0711ZM10.8262 46.1188H10.0816C9.66269 46.1188 9.32002 46.4616 9.32002 46.8806V48.1682C9.32002 48.5871 9.66279 48.9299 10.0816 48.9299H10.8262C11.2451 48.9299 11.5878 48.5871 11.5878 48.1682V46.8806C11.5878 46.4616 11.245 46.1188 10.8262 46.1188ZM13.6034 30.4125V43.3221C13.6034 44.4307 12.6965 45.3376 11.5879 45.3376H3.09365C1.98506 45.3376 1.07812 44.4306 1.07812 43.3221V30.4125C1.07812 29.3039 1.98506 28.397 3.09365 28.397H3.13799V21.7543C3.13799 21.221 3.35576 20.7365 3.70645 20.3858C4.05723 20.0352 4.5416 19.8174 5.0749 19.8174H9.60654C10.1399 19.8174 10.6243 20.0352 10.975 20.3858C11.3257 20.7365 11.5435 21.221 11.5435 21.7543V28.397H11.5879C12.6965 28.397 13.6034 29.3039 13.6034 30.4125ZM4.50518 28.397H10.1764V21.7543C10.1764 21.5983 10.112 21.4561 10.0084 21.3524C9.90479 21.2488 9.7625 21.1846 9.60654 21.1846H5.0749C4.91895 21.1846 4.77656 21.2489 4.67305 21.3524C4.56943 21.4561 4.50518 21.5983 4.50518 21.7543V28.397ZM11.7175 42.8343C11.7175 42.4567 11.4114 42.1507 11.0339 42.1507H3.64766C3.27012 42.1507 2.96406 42.4567 2.96406 42.8343C2.96406 43.2118 3.27012 43.5179 3.64766 43.5179H11.0339C11.4114 43.5179 11.7175 43.2118 11.7175 42.8343ZM11.7175 34.2197C11.7175 33.6346 11.4791 33.1036 11.0947 32.7192C10.7104 32.3349 10.1794 32.0965 9.59424 32.0965H5.0873C4.50215 32.0965 3.97119 32.3349 3.58682 32.7192C3.20244 33.1036 2.96406 33.6347 2.96406 34.2197V40.5169C2.96406 40.8944 3.27012 41.2005 3.64766 41.2005C4.0252 41.2005 4.33125 40.8944 4.33125 40.5169V34.2197C4.33125 34.012 4.41631 33.823 4.55342 33.6858C4.69063 33.5486 4.87959 33.4636 5.0873 33.4636H9.59424C9.80195 33.4636 9.99092 33.5486 10.1281 33.6858C10.2653 33.823 10.3504 34.012 10.3504 34.2197V40.5169C10.3504 40.8944 10.6564 41.2005 11.034 41.2005C11.4115 41.2005 11.7176 40.8944 11.7176 40.5169L11.7175 34.2197ZM32.1802 29.1061C32.1802 30.0915 32.9864 30.8978 33.9719 30.8978H44.2894C45.2748 30.8978 46.0811 30.0915 46.0811 29.1061V28.0772H32.1802V29.1061ZM39.8139 5.63603C39.8139 3.12559 41.8613 1.07812 44.3718 1.07812C46.8822 1.07812 48.9297 3.12559 48.9297 5.63603C48.9297 8.14648 46.8822 10.1939 44.3718 10.1939C41.8613 10.1939 39.8139 8.14648 39.8139 5.63603ZM41.7937 5.58945L42.8569 7.43115C43.0795 7.81846 43.6138 7.8917 43.9304 7.57529L46.8402 4.66543C47.1071 4.39854 47.1071 3.96572 46.8402 3.69883C46.5733 3.43193 46.1405 3.43193 45.8736 3.69883L43.5915 5.98096L42.9739 4.91123C42.7866 4.58535 42.3706 4.47295 42.0446 4.66025C41.7188 4.84756 41.6063 5.26348 41.7937 5.58945ZM42.4609 20.4146H41.6646C41.287 20.4146 40.981 20.7206 40.981 21.0981C40.981 21.4757 41.287 21.7817 41.6646 21.7817H42.4609C42.8385 21.7817 43.1445 21.4757 43.1445 21.0981C43.1445 20.7206 42.8385 20.4146 42.4609 20.4146ZM35.8001 20.4146C35.4226 20.4146 35.1165 20.7206 35.1165 21.0981C35.1165 21.4757 35.4226 21.7817 35.8001 21.7817H36.5965C36.974 21.7817 37.2801 21.4757 37.2801 21.0981C37.2801 20.7206 36.974 20.4146 36.5965 20.4146H35.8001ZM42.518 12.5795H35.7431C35.3655 12.5795 35.0595 12.8855 35.0595 13.2631C35.0595 13.6406 35.3655 13.9467 35.7431 13.9467H42.518C42.8955 13.9467 43.2016 13.6406 43.2016 13.2631C43.2016 12.8855 42.8955 12.5795 42.518 12.5795ZM38.7323 20.4146C38.3548 20.4146 38.0487 20.7206 38.0487 21.0981C38.0487 21.4757 38.3548 21.7817 38.7323 21.7817H39.5287C39.9062 21.7817 40.2123 21.4757 40.2123 21.0981C40.2123 20.7206 39.9062 20.4146 39.5287 20.4146H38.7323ZM35.0595 10.9559C35.0595 11.3334 35.3655 11.6395 35.7431 11.6395H39.039C39.4165 11.6395 39.7226 11.3334 39.7226 10.9559C39.7226 10.5783 39.4165 10.2723 39.039 10.2723H35.7431C35.3655 10.2723 35.0595 10.5783 35.0595 10.9559ZM20.3647 12.3405C22.233 12.3405 23.7524 10.7166 23.7524 8.71982C23.7524 6.72305 22.233 5.09961 20.3647 5.09961C18.4965 5.09961 16.9762 6.72354 16.9762 8.71982C16.9762 10.7161 18.4966 12.3405 20.3647 12.3405ZM27.1688 47.7828L25.2281 47.0235C24.4321 46.7114 23.9177 45.9578 23.9177 45.1021V27.9024H16.8123V30.1905C16.8123 30.9973 16.939 31.6619 17.2378 32.4118L19.3103 37.6126C19.3323 37.6695 19.3479 37.7293 19.355 37.7905L20.5172 48.3574C20.5501 48.662 20.7973 48.8832 21.1042 48.8832H26.9918C27.3345 48.8832 27.438 48.6083 27.4682 48.4445C27.5044 48.2563 27.4809 47.9051 27.1688 47.7827V47.7828ZM18.0056 38.0321L17.2936 36.2448L17.3169 48.5157C17.3169 48.7186 17.4821 48.8834 17.6841 48.8834H19.2369C19.199 48.7629 19.1722 48.6372 19.1579 48.5073L18.0057 38.0322L18.0056 38.0321ZM23.9177 20.6889L20.2518 19.7065C18.9488 19.3573 18.1722 18.0129 18.521 16.7101V16.7096C18.8707 15.4066 20.2155 14.6305 21.518 14.9797L23.7165 15.5688C23.2286 14.1808 21.9054 13.1952 20.3647 13.1952C18.4062 13.1952 16.8123 14.7891 16.8123 16.7477V26.5354H23.9177V20.6889ZM19.8423 17.0636C19.6879 17.6388 20.0311 18.2318 20.6048 18.3862L25.9958 19.8299C26.4722 19.9579 26.8981 19.9579 27.3745 19.8299L34.622 17.8882C35.2937 17.7079 35.6283 17.305 35.5154 16.8107C35.4321 16.446 35.0913 16.1 34.5406 16.204L26.8182 17.7423C26.7155 17.7625 26.6087 17.7592 26.5084 17.7319L21.1645 16.3C20.5897 16.1461 19.9957 16.4884 19.8423 17.0636Z" fill="black"/>
</svg>
