<svg width="41" height="40" viewBox="0 0 41 40" fill="none" xmlns="http://www.w3.org/2000/svg">
<g clip-path="url(#clip0_34_357)">
<path d="M24.7421 1.76242C23.9135 0.958984 22.6306 0 21.2264 0C18.9479 0 16.9887 2.52453 16.7735 2.81297C16.5069 3.16773 16.4646 3.64266 16.6625 4.03977L20.5021 11.7969H28.9816L32.8217 4.03977C33.0196 3.64266 32.9773 3.16773 32.7106 2.81297C32.4954 2.52453 30.5362 0 28.2577 0C26.8535 0 25.5706 0.958984 24.7421 1.76242Z" fill="black"/>
<path d="M25.9188 14.1406V14.342C25.9188 16.1399 26.6479 17.9 27.9193 19.1714C28.3771 19.6291 28.3771 20.3708 27.9193 20.8285C27.4616 21.2863 26.7199 21.2863 26.2621 20.8285C25.6636 20.2312 25.1554 19.5525 24.7468 18.8189C24.3383 19.5525 23.8301 20.2311 23.2315 20.8285C22.7737 21.2863 22.0321 21.2863 21.5743 20.8285C21.1166 20.3708 21.1166 19.6291 21.5743 19.1714C22.8459 17.9 23.575 16.1399 23.575 14.342V14.1406H19.184C16.4807 16.6954 13.7985 20.1677 12 23.5156H22.403C24.3417 23.5156 25.9188 25.0927 25.9188 27.0312V38.8281C25.9188 39.2435 25.8337 39.6298 25.7008 40H27.2624C34.011 40 40.0602 38.4955 40.0602 31.7188C40.0602 26.2971 34.7722 18.5799 30.2266 14.1406H25.9188Z" fill="black"/>
<path d="M11.8516 34.0625C12.4988 34.0625 13.0234 33.5378 13.0234 32.8906C13.0234 32.2434 12.4988 31.7188 11.8516 31.7188C11.2044 31.7188 10.6797 32.2434 10.6797 32.8906C10.6797 33.5378 11.2044 34.0625 11.8516 34.0625Z" fill="black"/>
<path d="M1.22662 40H22.3996C23.0473 40 23.5715 39.4759 23.5715 38.8281V27.0312C23.5715 26.3835 23.0473 25.8594 22.3996 25.8594H1.22662C0.578855 25.8594 0.0546875 26.3835 0.0546875 27.0312V38.8281C0.0546875 39.4759 0.578855 40 1.22662 40ZM18.8838 31.7188C19.531 31.7188 20.0557 32.2433 20.0557 32.8906C20.0557 33.5378 19.531 34.0625 18.8838 34.0625C18.2365 34.0625 17.7118 33.5378 17.7118 32.8906C17.7118 32.2433 18.2365 31.7188 18.8838 31.7188ZM11.8522 29.375C13.7909 29.375 15.368 30.952 15.368 32.8906C15.368 34.8292 13.7909 36.4062 11.8522 36.4062C9.91347 36.4062 8.33636 34.8292 8.33636 32.8906C8.33636 30.952 9.91347 29.375 11.8522 29.375ZM4.82055 31.7188C5.46777 31.7188 5.99249 32.2433 5.99249 32.8906C5.99249 33.5378 5.46777 34.0625 4.82055 34.0625C4.17333 34.0625 3.64862 33.5378 3.64862 32.8906C3.64862 32.2433 4.17333 31.7188 4.82055 31.7188Z" fill="black"/>
</g>
<defs>
<clipPath id="clip0_34_357">
<rect width="40.002" height="40" fill="white" transform="translate(0.0546875)"/>
</clipPath>
</defs>
</svg>
