<svg width="41" height="40" viewBox="0 0 41 40" fill="none" xmlns="http://www.w3.org/2000/svg">
<g clip-path="url(#clip0_34_392)">
<path d="M34.117 23.5153C36.0586 23.5153 37.6325 21.9414 37.6325 19.9998C37.6325 18.0583 36.0586 16.4844 34.117 16.4844C32.1755 16.4844 30.6016 18.0583 30.6016 19.9998C30.6016 21.9414 32.1755 23.5153 34.117 23.5153Z" fill="black"/>
<path d="M5.99204 23.5153C7.93358 23.5153 9.50751 21.9414 9.50751 19.9998C9.50751 18.0583 7.93358 16.4844 5.99204 16.4844C4.05049 16.4844 2.47656 18.0583 2.47656 19.9998C2.47656 21.9414 4.05049 23.5153 5.99204 23.5153Z" fill="black"/>
<path d="M20.0545 37.5778C21.9961 37.5778 23.57 36.0039 23.57 34.0623C23.57 32.1208 21.9961 30.5469 20.0545 30.5469C18.113 30.5469 16.5391 32.1208 16.5391 34.0623C16.5391 36.0039 18.113 37.5778 20.0545 37.5778Z" fill="black"/>
<path d="M20.0545 9.45282C21.9961 9.45282 23.57 7.87889 23.57 5.93735C23.57 3.99581 21.9961 2.42188 20.0545 2.42188C18.113 2.42188 16.5391 3.99581 16.5391 5.93735C16.5391 7.87889 18.113 9.45282 20.0545 9.45282Z" fill="black"/>
<path d="M12.4502 3.29203C12.0519 1.89935 11.8241 0.917208 11.8162 0.889709C11.6616 0.270595 11.038 -0.11392 10.4223 0.0302929C9.80202 0.169896 9.406 0.77987 9.53077 1.40352C9.76577 2.56948 10.3084 4.33769 10.2403 4.10051C11.4191 8.21166 13.6566 11.9458 16.6808 14.97L20.0548 18.3438L23.4288 14.97C26.4531 11.9459 28.6906 8.21166 29.8693 4.10051C29.9374 3.86263 30.3405 2.58565 30.5789 1.40352C30.7037 0.77987 30.3076 0.169896 29.6874 0.0302929C29.0648 -0.112748 28.448 0.270595 28.2935 0.889709C28.2854 0.917208 28.0589 1.89709 27.6618 3.28515C26.6444 6.44705 24.2938 11.7981 20.0548 11.7981C15.8182 11.798 13.4699 6.45384 12.4502 3.29203Z" fill="black"/>
<path d="M21.7109 20.002L25.0848 23.3758C28.1089 26.3999 31.8431 28.6373 35.9542 29.8158C36.1921 29.884 37.4691 30.2872 38.6512 30.5255C39.2749 30.6582 39.8848 30.2554 40.0244 29.6341C40.1641 29.0127 39.783 28.3936 39.165 28.2402C39.1375 28.2322 38.2358 28.0056 36.8477 27.6085C33.6858 26.5912 28.2567 24.2407 28.2567 20.002C28.2567 15.7655 33.6789 13.4173 36.8408 12.3977C38.2335 11.9994 39.1375 11.7717 39.165 11.7637C39.783 11.6092 40.1641 10.9913 40.0244 10.3699C39.8848 9.7485 39.2749 9.34571 38.6512 9.47844C37.4853 9.71343 35.7952 10.2559 36.0324 10.1879C31.9212 11.3666 28.1089 13.604 25.0848 16.6281L21.7109 20.002Z" fill="black"/>
<path d="M0.0834843 29.6341C0.223088 30.2554 0.833061 30.6582 1.45671 30.5255C2.62267 30.2904 4.39088 29.7479 4.1537 29.8158C8.26485 28.6373 11.999 26.3999 15.0232 23.3758L18.397 20.002L15.0232 16.6281C11.9991 13.604 8.26485 11.3666 4.1537 10.1879C3.91582 10.1197 2.63884 9.71679 1.45671 9.47844C0.833061 9.34571 0.223088 9.7485 0.0834843 10.3699C-0.0561191 10.9913 0.324958 11.6104 0.9429 11.7637C0.970399 11.7718 1.95028 11.9983 3.33834 12.3954C6.50024 13.4127 11.8513 15.7632 11.8513 20.002C11.8513 24.2384 6.50711 26.5866 3.34522 27.6063C1.95254 28.0045 0.970399 28.2322 0.9429 28.2402C0.324958 28.3947 -0.0561191 29.0127 0.0834843 29.6341Z" fill="black"/>
<path d="M27.6595 36.708C28.0578 38.1007 28.2855 39.0828 28.2935 39.1103C28.4468 39.7295 29.0626 40.1048 29.6874 39.9698C30.3076 39.8302 30.7037 39.2202 30.5789 38.5965C30.5503 38.4547 29.8744 35.917 29.8693 35.8995C28.6906 31.7883 26.4531 28.0543 23.4288 25.0301L20.0548 21.6562L16.6808 25.0301C13.6566 28.0542 11.4191 31.7882 10.2403 35.8995C10.2353 35.9169 9.55944 38.4547 9.53077 38.5965C9.406 39.2202 9.80202 39.8302 10.4223 39.9698C11.0418 40.1083 11.6614 39.7309 11.8162 39.1103C11.8242 39.0828 12.0508 38.103 12.4479 36.7149C13.4653 33.553 15.8159 28.202 20.0548 28.202C24.2914 28.202 26.6398 33.5462 27.6595 36.708Z" fill="black"/>
</g>
<defs>
<clipPath id="clip0_34_392">
<rect width="40.002" height="40" fill="white" transform="translate(0.0546875)"/>
</clipPath>
</defs>
</svg>
