<svg width="50" height="50" viewBox="0 0 50 50" fill="none" xmlns="http://www.w3.org/2000/svg">
<g clip-path="url(#clip0_34_732)">
<path d="M23.4375 13.2812V10.1484C21.1031 10.1587 18.79 9.70459 16.6328 8.8125C15.9322 9.4967 15.032 9.94 14.0625 10.0781V13.2812C14.0625 14.5245 14.5564 15.7167 15.4354 16.5958C16.3145 17.4749 17.5068 17.9688 18.75 17.9688C19.9932 17.9688 21.1855 17.4749 22.0646 16.5958C22.9436 15.7167 23.4375 14.5245 23.4375 13.2812Z" fill="black"/>
<path d="M12.5 11.0156V9.375C12.5006 9.16799 12.5831 8.96963 12.7295 8.82326C12.8759 8.67688 13.0742 8.59437 13.2812 8.59375C13.2969 8.59375 15.0625 8.57031 15.7344 7.42188C15.7871 7.33042 15.858 7.25069 15.9426 7.18755C16.0273 7.12442 16.1239 7.07921 16.2266 7.05469C16.3301 7.02868 16.438 7.02498 16.543 7.04384C16.6481 7.0627 16.7479 7.10368 16.8359 7.16406C16.8594 7.17188 19.1094 8.59375 24.2188 8.59375C24.4258 8.59437 24.6241 8.67688 24.7705 8.82326C24.9169 8.96963 24.9994 9.16799 25 9.375V11.0156C25.2569 10.9618 25.5188 10.9356 25.7812 10.9375C26.6169 10.9287 27.4351 11.1768 28.125 11.6484V7.03125C28.1228 5.37432 27.4636 3.78588 26.292 2.61426C25.1204 1.44263 23.5319 0.783445 21.875 0.78125H15.625C14.9216 0.781855 14.2389 1.01972 13.6874 1.45638C13.1359 1.89304 12.7478 2.50296 12.5859 3.1875C11.6854 3.35097 10.8708 3.82523 10.2841 4.52762C9.69731 5.23002 9.3756 6.11602 9.375 7.03125V11.6484C10.0649 11.1768 10.8831 10.9287 11.7188 10.9375C11.9812 10.9352 12.2432 10.9614 12.5 11.0156Z" fill="black"/>
<path d="M21.0938 19.0781C19.5877 19.6719 17.9123 19.6719 16.4062 19.0781V20.7734L18.75 23.1172L21.0938 20.7734V19.0781Z" fill="black"/>
<path d="M28.125 14.4524C28.0677 13.8849 27.7901 13.3624 27.3519 12.9973C26.9137 12.6321 26.3498 12.4533 25.7812 12.4993C25.5162 12.4964 25.2525 12.536 25 12.6165V13.2805C25.0007 14.2225 24.787 15.1522 24.375 15.9993C24.7947 16.2676 25.2831 16.4087 25.7812 16.4055C26.3498 16.4515 26.9137 16.2727 27.3519 15.9075C27.7901 15.5424 28.0677 15.0199 28.125 14.4524Z" fill="black"/>
<path d="M12.5 13.2805V12.6243C12.2489 12.5373 11.9845 12.495 11.7188 12.4993C11.1502 12.4533 10.5863 12.6321 10.1481 12.9973C9.70986 13.3624 9.4323 13.8849 9.375 14.4524C9.4323 15.0199 9.70986 15.5424 10.1481 15.9075C10.5863 16.2727 11.1502 16.4515 11.7188 16.4055C12.2175 16.4136 12.7073 16.2721 13.125 15.9993C12.713 15.1522 12.4993 14.2225 12.5 13.2805Z" fill="black"/>
<path d="M47.1797 17.2425C47.8554 17.241 48.5218 17.3989 49.125 17.7035L48.8203 6.57846C48.806 6.07207 48.5947 5.59124 48.2315 5.23814C47.8682 4.88504 47.3816 4.6875 46.875 4.6875C46.3684 4.6875 45.8818 4.88504 45.5185 5.23814C45.1553 5.59124 44.944 6.07207 44.9297 6.57846L44.6094 18.055C45.1767 17.6499 45.8332 17.3873 46.5234 17.2894C46.7408 17.258 46.9601 17.2423 47.1797 17.2425Z" fill="black"/>
<path d="M4.68753 29.2656V35.1562H6.25003C6.66443 35.1562 7.06186 35.3209 7.35488 35.6139C7.64791 35.9069 7.81253 36.3043 7.81253 36.7188V40.2656C8.2875 40.5392 8.68201 40.9331 8.95631 41.4076C9.23062 41.8822 9.37505 42.4206 9.37505 42.9688C9.37505 43.5169 9.23062 44.0553 8.95631 44.5299C8.68201 45.0044 8.2875 45.3983 7.81253 45.6719V49.2188H10.9375V24.4922L7.47659 25.5312C6.66944 25.7668 5.96081 26.2584 5.45767 26.9321C4.95454 27.6058 4.68423 28.4248 4.68753 29.2656Z" fill="black"/>
<path d="M14.9687 25.5781L17.4844 24.0625L15.5 22.0781L12.9766 23.5938L14.9687 25.5781Z" fill="black"/>
<path d="M24.5234 23.5938L22 22.0781L20.0156 24.0625L22.5312 25.5781L24.5234 23.5938Z" fill="black"/>
<path d="M17.6563 27.3438H19.8438L20.4688 26.1641L18.75 25.1328L17.0312 26.1641L17.6563 27.3438Z" fill="black"/>
<path d="M21.0547 42.6094L19.6094 28.9062H17.8906L16.4453 42.6094L18.75 44.3359L21.0547 42.6094Z" fill="black"/>
<path d="M22.6562 27.3438C22.5162 27.3426 22.3788 27.3049 22.2578 27.2344L21.8125 26.9688L21.1172 28.2813L22.6484 42.8906C22.6636 43.0242 22.6435 43.1595 22.59 43.2829C22.5365 43.4063 22.4516 43.5135 22.3438 43.5938L19.2188 45.9375C19.0835 46.0389 18.919 46.0938 18.75 46.0938C18.581 46.0938 18.4165 46.0389 18.2812 45.9375L15.1562 43.5938C15.0484 43.5135 14.9635 43.4063 14.91 43.2829C14.8565 43.1595 14.8364 43.0242 14.8516 42.8906L16.3828 28.2813L15.6875 26.9688L15.2422 27.2344C15.0926 27.3227 14.9181 27.3591 14.7457 27.3379C14.5733 27.3167 14.4128 27.2391 14.2891 27.1172L12.5 25.3281V49.2188H25V25.3281L23.2109 27.1172C23.0624 27.2617 22.8635 27.3429 22.6562 27.3438Z" fill="black"/>
<path d="M36.0781 31.9609C36.0184 32.0441 35.9427 32.1145 35.8554 32.1679C35.7681 32.2213 35.671 32.2567 35.5698 32.272C35.4685 32.2873 35.3653 32.2822 35.2661 32.2569C35.1669 32.2317 35.0738 32.1868 34.9922 32.125C34.8247 32.0025 34.7125 31.8186 34.6803 31.6136C34.6481 31.4086 34.6984 31.1992 34.8203 31.0313L35.6484 29.9062L31.625 26.4609L26.5625 24.5703V49.2188H30.4688C30.676 49.2188 30.8747 49.1364 31.0212 48.9899C31.1677 48.8434 31.25 48.6447 31.25 48.4375V35.1563C31.25 34.949 31.3323 34.7503 31.4788 34.6038C31.6253 34.4573 31.824 34.375 32.0312 34.375C32.2385 34.375 32.4372 34.4573 32.5837 34.6038C32.7302 34.7503 32.8125 34.949 32.8125 35.1563V37.8984L38.6797 40.3906C38.7763 40.4308 38.8797 40.452 38.9844 40.4531C39.1199 40.4529 39.2531 40.4176 39.3709 40.3505C39.4886 40.2834 39.587 40.1868 39.6562 40.0703L47.7109 26.3125L42.8828 22.6953C36.2578 31.7344 36.0781 31.9609 36.0781 31.9609Z" fill="black"/>
<path d="M48.8672 19.369C48.5677 19.1435 48.226 18.9803 47.8624 18.889C47.4987 18.7978 47.1205 18.7804 46.75 18.8378C46.3788 18.8892 46.022 19.0154 45.701 19.2088C45.3801 19.4021 45.1017 19.6587 44.8828 19.9628L43.8047 21.4315L48.5078 24.9628L49.6094 23.0722C49.9619 22.4714 50.081 21.762 49.9442 21.0791C49.8073 20.3962 49.424 19.7875 48.8672 19.369Z" fill="black"/>
<path d="M0 47.6562C0 48.0707 0.16462 48.4681 0.457646 48.7611C0.750671 49.0541 1.1481 49.2188 1.5625 49.2188H6.25V46.0938H1.5625C1.1481 46.0938 0.750671 46.2584 0.457646 46.5514C0.16462 46.8444 0 47.2418 0 47.6562Z" fill="black"/>
<path d="M1.5625 39.8438H6.25V36.7188H1.5625C1.1481 36.7188 0.750671 36.8834 0.457646 37.1764C0.16462 37.4694 0 37.8668 0 38.2812C0 38.6957 0.16462 39.0931 0.457646 39.3861C0.750671 39.6791 1.1481 39.8438 1.5625 39.8438Z" fill="black"/>
<path d="M6.25 41.4062H1.5625V44.5312H6.25C6.6644 44.5312 7.06183 44.3666 7.35485 44.0736C7.64788 43.7806 7.8125 43.3832 7.8125 42.9688C7.8125 42.5543 7.64788 42.1569 7.35485 41.8639C7.06183 41.5709 6.6644 41.4062 6.25 41.4062Z" fill="black"/>
</g>
<defs>
<clipPath id="clip0_34_732">
<rect width="50" height="50" fill="white"/>
</clipPath>
</defs>
</svg>
