<svg width="60" height="60" viewBox="0 0 60 60" fill="none" xmlns="http://www.w3.org/2000/svg">
<path d="M11 57.252L12.865 58.003L19.265 42H17.099L11 57.252Z" fill="white"/>
<path d="M29 42H31V58H29V42Z" fill="white"/>
<path d="M26.9965 51V49H18.6125L17.8125 51H26.9965Z" fill="white"/>
<path d="M30 7C27.6266 7 25.3066 7.70379 23.3332 9.02236C21.3598 10.3409 19.8217 12.2151 18.9135 14.4078C18.0052 16.6005 17.7676 19.0133 18.2306 21.3411C18.6936 23.6689 19.8365 25.8071 21.5147 27.4853C23.193 29.1635 25.3312 30.3064 27.6589 30.7694C29.9867 31.2324 32.3995 30.9948 34.5922 30.0866C36.7849 29.1783 38.6591 27.6402 39.9776 25.6668C41.2962 23.6935 42 21.3734 42 19C41.9966 15.8185 40.7312 12.7682 38.4815 10.5185C36.2318 8.26883 33.1815 7.00344 30 7ZM35.789 14.614L28.012 24.614C27.925 24.7259 27.8151 24.818 27.6898 24.8842C27.5645 24.9504 27.4265 24.9892 27.285 24.998H27.223C26.9578 24.9979 26.7035 24.8926 26.516 24.705L24.293 22.482C24.1108 22.2934 24.0101 22.0408 24.0123 21.7786C24.0146 21.5164 24.1198 21.2656 24.3052 21.0802C24.4906 20.8948 24.7414 20.7896 25.0036 20.7873C25.2658 20.7851 25.5184 20.8858 25.707 21.068L27.129 22.49L34.211 13.384C34.376 13.1813 34.6139 13.0512 34.8736 13.0217C35.1334 12.9922 35.3944 13.0656 35.6007 13.2262C35.807 13.3867 35.9422 13.6216 35.9774 13.8807C36.0126 14.1397 35.945 14.4022 35.789 14.612V14.614Z" fill="white"/>
<path d="M56 3C56 2.73478 55.8946 2.48043 55.7071 2.29289C55.5196 2.10536 55.2652 2 55 2H5C4.73478 2 4.48043 2.10536 4.29289 2.29289C4.10536 2.48043 4 2.73478 4 3V36H56V3ZM30 33C27.2311 33 24.5243 32.1789 22.222 30.6406C19.9197 29.1022 18.1253 26.9157 17.0657 24.3576C16.0061 21.7994 15.7288 18.9845 16.269 16.2687C16.8092 13.553 18.1426 11.0584 20.1005 9.10051C22.0584 7.14257 24.553 5.8092 27.2687 5.26901C29.9845 4.72881 32.7994 5.00606 35.3576 6.06569C37.9157 7.12531 40.1022 8.91973 41.6406 11.222C43.1789 13.5243 44 16.2311 44 19C43.996 22.7118 42.5198 26.2705 39.8951 28.8951C37.2705 31.5198 33.7118 32.996 30 33Z" fill="white"/>
<path d="M40.7344 42L47.1374 58L48.9944 57.253L42.9004 42H40.7344Z" fill="white"/>
<path d="M2 38H58.001V40H2V38Z" fill="white"/>
<path d="M41.384 49H33V51H42.184L41.384 49Z" fill="white"/>
</svg>
