<svg width="60" height="60" viewBox="0 0 60 60" fill="none" xmlns="http://www.w3.org/2000/svg">
<g clip-path="url(#clip0_34_668)">
<path d="M60 17.5781V56.4844H42.1207C37.2076 56.4844 34.6237 59.8158 34.3605 60H25.6395C25.3725 59.8132 22.8255 56.4844 17.8793 56.4844H0V14.0625H3.51562V52.9688H17.8945C23.3885 52.9688 26.4466 56.0685 27.2086 56.4844H32.7914C33.553 56.0686 36.612 52.9688 42.1055 52.9688H56.4844V17.5781H60Z" fill="white"/>
<path d="M24.7184 50.8559C22.5832 49.9324 20.2734 49.4531 17.8945 49.4531H7.03125V7.03125H10.5469V42.4219H15.8203C20.6109 42.4219 24.5297 46.173 24.7184 50.8559Z" fill="white"/>
<path d="M42.104 10.5469C38.3805 10.5469 34.7942 11.5223 31.6328 13.3876C31.7145 14.1861 31.7563 14.9981 31.7563 15.8203V52.895C31.9918 52.7243 32.2609 52.535 32.5676 52.3337C37.9953 48.7138 41.7351 49.4531 52.9673 49.4531V10.5469H42.104Z" fill="white"/>
<path d="M28.2422 51.2109C28.2422 44.4261 22.6698 38.9062 15.8203 38.9062H14.0625V0C22.8505 0 28.2422 7.09699 28.2422 15.8203V51.2109Z" fill="white"/>
</g>
<defs>
<clipPath id="clip0_34_668">
<rect width="60" height="60" fill="white"/>
</clipPath>
</defs>
</svg>
