<svg width="60" height="60" viewBox="0 0 60 60" fill="none" xmlns="http://www.w3.org/2000/svg">
<path d="M31.2619 30.4816C38.3532 30.4816 44.1019 24.4643 44.1019 17.0416C44.1019 9.61885 38.3532 3.60156 31.2619 3.60156C24.1705 3.60156 18.4219 9.61885 18.4219 17.0416C18.4219 24.4643 24.1705 30.4816 31.2619 30.4816Z" fill="white"/>
<path d="M55.5637 50.3978C55.5637 50.2778 55.5037 50.1578 55.5037 50.0378C55.3237 49.1978 54.9037 48.4778 54.3637 47.8778C53.7037 47.2178 52.9237 46.6778 51.9637 46.4378C51.6037 46.3178 51.1837 46.2578 50.7637 46.2578C48.0637 46.2578 45.8438 48.4778 45.8438 51.1778C45.8438 53.8778 48.0637 56.0978 50.7637 56.0978C53.4637 56.0978 55.6838 53.8778 55.6838 51.1778C55.6838 50.9378 55.6237 50.6978 55.5637 50.3978Z" fill="white"/>
<path d="M15.5378 46.3184C15.5378 43.6184 13.3178 41.3984 10.6178 41.3984C10.4378 41.3984 10.2578 41.3984 10.0778 41.3984C10.0178 41.3984 10.0178 41.3984 9.95781 41.3984C9.83781 41.3984 9.71781 41.4584 9.59781 41.4584C9.53781 41.4584 9.53781 41.4584 9.47781 41.5184C9.35781 41.5184 9.23781 41.5784 9.11781 41.6384C9.05781 41.6384 9.05781 41.6384 9.05781 41.6984C8.93781 41.7584 8.81781 41.8184 8.69781 41.8184H8.63781C8.51781 41.8784 8.39781 41.9384 8.21781 41.9984C8.09781 42.0584 7.97781 42.1784 7.79781 42.2384C7.55781 42.4184 7.25781 42.6584 7.07781 42.8984C6.23781 43.7984 5.75781 44.9384 5.75781 46.2584C5.75781 48.9584 7.97781 51.1784 10.6778 51.1784C13.3778 51.1784 15.5378 49.0184 15.5378 46.3184Z" fill="white"/>
<path d="M57 47.3428C55.5 35.2828 39.84 31.3828 37.98 30.9628L31.44 36.1228L24.9 30.9628C23.52 31.2628 14.76 33.4228 9.6 39.3028L5.22 23.8828L3 24.4828L7.5 40.5628C8.4 40.0828 9.48 39.7828 10.62 39.7828C14.22 39.7828 17.16 42.7228 17.16 46.3228C17.16 49.6228 14.7 52.3228 11.58 52.8028C14.28 53.9428 18 55.0828 22.92 55.7428V40.1428C22.92 40.1428 31.02 40.1428 36.6 43.8028L36.66 56.4028H38.28L38.22 43.8028C43.8 40.1428 51.9 40.1428 51.9 40.1428V44.8228C54.12 45.2428 55.92 46.7428 56.76 48.7828C57 48.3028 57.06 47.8228 57 47.3428Z" fill="white"/>
</svg>
