<svg width="60" height="60" viewBox="0 0 60 60" fill="none" xmlns="http://www.w3.org/2000/svg">
<g clip-path="url(#clip0_34_649)">
<path d="M46.3203 20.5833C46.4068 22.9131 49.7503 22.9113 49.8359 20.5833V13.3359L46.3203 14.6209V20.5833Z" fill="white"/>
<path d="M11.3182 10.0173L29.3873 16.6261C29.7772 16.7687 30.2045 16.7687 30.5945 16.6263L48.6756 10.0175C50.2049 9.46028 50.2043 7.27239 48.6757 6.71552L30.6006 0.106963C30.2109 -0.0356543 29.7832 -0.0356543 29.3935 0.106963L11.3185 6.71552C9.78942 7.27263 9.79 9.4604 11.3182 10.0173Z" fill="white"/>
<path d="M17.8861 38.3453C17.8861 35.0576 15.2113 32.3828 11.9236 32.3828C4.02434 32.6826 4.02656 44.0092 11.9237 44.3078C15.2113 44.3078 17.8861 41.633 17.8861 38.3453Z" fill="white"/>
<path d="M54.0345 38.3453C54.0345 35.0576 51.3597 32.3828 48.072 32.3828C40.1728 32.6826 40.175 44.0092 48.0721 44.3078C51.3597 44.3078 54.0345 41.633 54.0345 38.3453Z" fill="white"/>
<path d="M24.0391 38.3453C24.0391 41.633 26.7139 44.3078 30.0016 44.3078C37.9008 44.008 37.8987 32.6814 30.0014 32.3828C26.7139 32.3828 24.0391 35.0576 24.0391 38.3453Z" fill="white"/>
<path d="M48.0736 44.3125C45.7194 44.3125 43.5225 44.9984 41.6719 46.1806C44.0112 48.8843 45.4272 52.3994 45.4272 56.2374V60.0031H58.2408C59.2116 60.0031 59.9986 59.2161 59.9986 58.2453V56.2374C59.9986 49.662 54.6491 44.3125 48.0736 44.3125Z" fill="white"/>
<path d="M29.9035 44.3125C23.2796 44.3125 17.8906 49.662 17.8906 56.2375V60.0031H41.9165V56.2374C41.9164 49.662 36.5274 44.3125 29.9035 44.3125Z" fill="white"/>
<path d="M11.925 44.3125C5.34949 44.3125 0 49.662 0 56.2374V58.2453C0 59.2161 0.787031 60.0031 1.75781 60.0031H14.3715V56.2374C14.3715 52.3611 15.816 48.814 18.1972 46.0996C16.3739 44.9675 14.2246 44.3125 11.925 44.3125Z" fill="white"/>
<path d="M41.1718 22.7953V16.5078L31.8043 19.9317C30.6437 20.3588 29.3409 20.3588 28.1812 19.9306L18.8281 16.5098V22.7971C18.8281 23.5352 19.2891 24.1946 19.9822 24.448L29.3902 27.8888C29.78 28.0313 30.2076 28.0313 30.5974 27.8889L40.0174 24.4463C40.7105 24.193 41.1718 23.5334 41.1718 22.7953Z" fill="white"/>
</g>
<defs>
<clipPath id="clip0_34_649">
<rect width="60" height="60" fill="white"/>
</clipPath>
</defs>
</svg>
