<svg width="58" height="49" viewBox="0 0 58 49" fill="none" xmlns="http://www.w3.org/2000/svg">
<path opacity="0.2" d="M2.00195 46.9086C8.15162 39.6828 13.0044 31.1947 17.3966 22.8314C17.7358 22.1855 24.3125 8.7469 25.3095 7.19042C30.3953 -0.749718 29.5558 15.0972 29.5892 15.9962C29.6585 17.8644 29.7042 28.9991 29.7123 31.6371C29.727 36.4089 29.5575 35.5953 29.9586 31.4832C30.5052 25.8808 31.0918 21.6345 31.9907 15.9346C32.4255 13.1779 32.8749 10.4226 33.4071 7.68305C33.7648 5.84148 34.2708 0.65867 35.1313 2.32571C36.2735 4.53885 35.6153 7.28718 35.6855 9.77672C35.8155 14.3916 34.9229 20.0463 35.9318 24.5864C36.2709 26.1124 36.7204 21.5597 37.0402 20.0296C37.0823 19.828 38.2718 9.93996 40.8581 14.9493C42.263 17.6706 43.9085 24.5791 44.4912 27.1419C44.7754 28.3918 45.7649 40.064 47.8164 41.0587C48.6243 41.4504 55.6942 24.5153 56.3143 23.0777" stroke="#6440FB" stroke-width="3" stroke-linecap="round"/>
</svg>
