<svg width="107" height="93" viewBox="0 0 107 93" fill="none" xmlns="http://www.w3.org/2000/svg">
<path d="M23.0374 4.17754C24.1939 4.17754 25.1315 3.24237 25.1315 2.08877C25.1315 0.935174 24.1939 0 23.0374 0C21.8808 0 20.9432 0.935174 20.9432 2.08877C20.9432 3.24237 21.8808 4.17754 23.0374 4.17754Z" fill="#A7A7CA"/>
<path d="M23.0374 21.9818C24.1939 21.9818 25.1315 21.0466 25.1315 19.893C25.1315 18.7395 24.1939 17.8043 23.0374 17.8043C21.8808 17.8043 20.9432 18.7395 20.9432 19.893C20.9432 21.0466 21.8808 21.9818 23.0374 21.9818Z" fill="#A7A7CA"/>
<path d="M23.0374 39.8856C24.1939 39.8856 25.1315 38.9504 25.1315 37.7968C25.1315 36.6432 24.1939 35.708 23.0374 35.708C21.8808 35.708 20.9432 36.6432 20.9432 37.7968C20.9432 38.9504 21.8808 39.8856 23.0374 39.8856Z" fill="#A7A7CA"/>
<path d="M23.0374 57.7893C24.1939 57.7893 25.1315 56.8541 25.1315 55.7005C25.1315 54.5469 24.1939 53.6118 23.0374 53.6118C21.8808 53.6118 20.9432 54.5469 20.9432 55.7005C20.9432 56.8541 21.8808 57.7893 23.0374 57.7893Z" fill="#A7A7CA"/>
<path d="M23.0374 75.0963C24.1939 75.0963 25.1315 74.1611 25.1315 73.0075C25.1315 71.8539 24.1939 70.9187 23.0374 70.9187C21.8808 70.9187 20.9432 71.8539 20.9432 73.0075C20.9432 74.1611 21.8808 75.0963 23.0374 75.0963Z" fill="#A7A7CA"/>
<path d="M23.0374 93C24.1939 93 25.1315 92.0648 25.1315 90.9112C25.1315 89.7576 24.1939 88.8225 23.0374 88.8225C21.8808 88.8225 20.9432 89.7576 20.9432 90.9112C20.9432 92.0648 21.8808 93 23.0374 93Z" fill="#A7A7CA"/>
<path d="M2.09608 4.17754C3.25264 4.17754 4.19021 3.24237 4.19021 2.08877C4.19021 0.935174 3.25264 0 2.09608 0C0.939526 0 0.00195312 0.935174 0.00195312 2.08877C0.00195312 3.24237 0.939526 4.17754 2.09608 4.17754Z" fill="#A7A7CA"/>
<path d="M2.09608 21.9818C3.25264 21.9818 4.19021 21.0466 4.19021 19.893C4.19021 18.7395 3.25264 17.8043 2.09608 17.8043C0.939526 17.8043 0.00195312 18.7395 0.00195312 19.893C0.00195312 21.0466 0.939526 21.9818 2.09608 21.9818Z" fill="#A7A7CA"/>
<path d="M2.09608 39.8856C3.25264 39.8856 4.19021 38.9504 4.19021 37.7968C4.19021 36.6432 3.25264 35.708 2.09608 35.708C0.939526 35.708 0.00195312 36.6432 0.00195312 37.7968C0.00195312 38.9504 0.939526 39.8856 2.09608 39.8856Z" fill="#A7A7CA"/>
<path d="M2.09608 57.7893C3.25264 57.7893 4.19021 56.8541 4.19021 55.7005C4.19021 54.5469 3.25264 53.6118 2.09608 53.6118C0.939526 53.6118 0.00195312 54.5469 0.00195312 55.7005C0.00195312 56.8541 0.939526 57.7893 2.09608 57.7893Z" fill="#A7A7CA"/>
<path d="M2.09608 75.0963C3.25264 75.0963 4.19021 74.1611 4.19021 73.0075C4.19021 71.8539 3.25264 70.9187 2.09608 70.9187C0.939526 70.9187 0.00195312 71.8539 0.00195312 73.0075C0.00195312 74.1611 0.939526 75.0963 2.09608 75.0963Z" fill="#A7A7CA"/>
<path d="M2.09608 93C3.25264 93 4.19021 92.0648 4.19021 90.9112C4.19021 89.7576 3.25264 88.8225 2.09608 88.8225C0.939526 88.8225 0.00195312 89.7576 0.00195312 90.9112C0.00195312 92.0648 0.939526 93 2.09608 93Z" fill="#A7A7CA"/>
<path d="M63.9227 4.17754C65.0793 4.17754 66.0169 3.24237 66.0169 2.08877C66.0169 0.935174 65.0793 0 63.9227 0C62.7662 0 61.8286 0.935174 61.8286 2.08877C61.8286 3.24237 62.7662 4.17754 63.9227 4.17754Z" fill="#A7A7CA"/>
<path d="M63.9227 21.9818C65.0793 21.9818 66.0169 21.0466 66.0169 19.893C66.0169 18.7395 65.0793 17.8043 63.9227 17.8043C62.7662 17.8043 61.8286 18.7395 61.8286 19.893C61.8286 21.0466 62.7662 21.9818 63.9227 21.9818Z" fill="#A7A7CA"/>
<path d="M63.9227 39.8856C65.0793 39.8856 66.0169 38.9504 66.0169 37.7968C66.0169 36.6432 65.0793 35.708 63.9227 35.708C62.7662 35.708 61.8286 36.6432 61.8286 37.7968C61.8286 38.9504 62.7662 39.8856 63.9227 39.8856Z" fill="#A7A7CA"/>
<path d="M63.9227 57.7893C65.0793 57.7893 66.0169 56.8541 66.0169 55.7005C66.0169 54.5469 65.0793 53.6118 63.9227 53.6118C62.7662 53.6118 61.8286 54.5469 61.8286 55.7005C61.8286 56.8541 62.7662 57.7893 63.9227 57.7893Z" fill="#A7A7CA"/>
<path d="M63.9227 75.0963C65.0793 75.0963 66.0169 74.1611 66.0169 73.0075C66.0169 71.8539 65.0793 70.9187 63.9227 70.9187C62.7662 70.9187 61.8286 71.8539 61.8286 73.0075C61.8286 74.1611 62.7662 75.0963 63.9227 75.0963Z" fill="#A7A7CA"/>
<path d="M63.9227 93C65.0793 93 66.0169 92.0648 66.0169 90.9112C66.0169 89.7576 65.0793 88.8225 63.9227 88.8225C62.7662 88.8225 61.8286 89.7576 61.8286 90.9112C61.8286 92.0648 62.7662 93 63.9227 93Z" fill="#A7A7CA"/>
<path d="M42.9814 4.17754C44.138 4.17754 45.0756 3.24237 45.0756 2.08877C45.0756 0.935174 44.138 0 42.9814 0C41.8249 0 40.8873 0.935174 40.8873 2.08877C40.8873 3.24237 41.8249 4.17754 42.9814 4.17754Z" fill="#A7A7CA"/>
<path d="M42.9814 21.9818C44.138 21.9818 45.0756 21.0466 45.0756 19.893C45.0756 18.7395 44.138 17.8043 42.9814 17.8043C41.8249 17.8043 40.8873 18.7395 40.8873 19.893C40.8873 21.0466 41.8249 21.9818 42.9814 21.9818Z" fill="#A7A7CA"/>
<path d="M42.9814 39.8856C44.138 39.8856 45.0756 38.9504 45.0756 37.7968C45.0756 36.6432 44.138 35.708 42.9814 35.708C41.8249 35.708 40.8873 36.6432 40.8873 37.7968C40.8873 38.9504 41.8249 39.8856 42.9814 39.8856Z" fill="#A7A7CA"/>
<path d="M42.9814 57.7893C44.138 57.7893 45.0756 56.8541 45.0756 55.7005C45.0756 54.5469 44.138 53.6118 42.9814 53.6118C41.8249 53.6118 40.8873 54.5469 40.8873 55.7005C40.8873 56.8541 41.8249 57.7893 42.9814 57.7893Z" fill="#A7A7CA"/>
<path d="M42.9814 75.0963C44.138 75.0963 45.0756 74.1611 45.0756 73.0075C45.0756 71.8539 44.138 70.9187 42.9814 70.9187C41.8249 70.9187 40.8873 71.8539 40.8873 73.0075C40.8873 74.1611 41.8249 75.0963 42.9814 75.0963Z" fill="#A7A7CA"/>
<path d="M42.9814 93C44.138 93 45.0756 92.0648 45.0756 90.9112C45.0756 89.7576 44.138 88.8225 42.9814 88.8225C41.8249 88.8225 40.8873 89.7576 40.8873 90.9112C40.8873 92.0648 41.8249 93 42.9814 93Z" fill="#A7A7CA"/>
<path d="M104.908 4.17754C106.064 4.17754 107.002 3.24237 107.002 2.08877C107.002 0.935174 106.064 0 104.908 0C103.751 0 102.814 0.935174 102.814 2.08877C102.814 3.24237 103.751 4.17754 104.908 4.17754Z" fill="#A7A7CA"/>
<path d="M104.908 21.9818C106.064 21.9818 107.002 21.0466 107.002 19.893C107.002 18.7395 106.064 17.8043 104.908 17.8043C103.751 17.8043 102.814 18.7395 102.814 19.893C102.814 21.0466 103.751 21.9818 104.908 21.9818Z" fill="#A7A7CA"/>
<path d="M104.908 39.8856C106.064 39.8856 107.002 38.9504 107.002 37.7968C107.002 36.6432 106.064 35.708 104.908 35.708C103.751 35.708 102.814 36.6432 102.814 37.7968C102.814 38.9504 103.751 39.8856 104.908 39.8856Z" fill="#A7A7CA"/>
<path d="M104.908 57.7893C106.064 57.7893 107.002 56.8541 107.002 55.7005C107.002 54.5469 106.064 53.6118 104.908 53.6118C103.751 53.6118 102.814 54.5469 102.814 55.7005C102.814 56.8541 103.751 57.7893 104.908 57.7893Z" fill="#A7A7CA"/>
<path d="M104.908 75.0963C106.064 75.0963 107.002 74.1611 107.002 73.0075C107.002 71.8539 106.064 70.9187 104.908 70.9187C103.751 70.9187 102.814 71.8539 102.814 73.0075C102.814 74.1611 103.751 75.0963 104.908 75.0963Z" fill="#A7A7CA"/>
<path d="M104.908 93C106.064 93 107.002 92.0648 107.002 90.9112C107.002 89.7576 106.064 88.8225 104.908 88.8225C103.751 88.8225 102.814 89.7576 102.814 90.9112C102.814 92.0648 103.751 93 104.908 93Z" fill="#A7A7CA"/>
<path d="M83.9665 4.17754C85.1231 4.17754 86.0607 3.24237 86.0607 2.08877C86.0607 0.935174 85.1231 0 83.9665 0C82.81 0 81.8724 0.935174 81.8724 2.08877C81.8724 3.24237 82.81 4.17754 83.9665 4.17754Z" fill="#A7A7CA"/>
<path d="M83.9665 21.9818C85.1231 21.9818 86.0607 21.0466 86.0607 19.893C86.0607 18.7395 85.1231 17.8043 83.9665 17.8043C82.81 17.8043 81.8724 18.7395 81.8724 19.893C81.8724 21.0466 82.81 21.9818 83.9665 21.9818Z" fill="#A7A7CA"/>
<path d="M83.9665 39.8856C85.1231 39.8856 86.0607 38.9504 86.0607 37.7968C86.0607 36.6432 85.1231 35.708 83.9665 35.708C82.81 35.708 81.8724 36.6432 81.8724 37.7968C81.8724 38.9504 82.81 39.8856 83.9665 39.8856Z" fill="#A7A7CA"/>
<path d="M83.9665 57.7893C85.1231 57.7893 86.0607 56.8541 86.0607 55.7005C86.0607 54.5469 85.1231 53.6118 83.9665 53.6118C82.81 53.6118 81.8724 54.5469 81.8724 55.7005C81.8724 56.8541 82.81 57.7893 83.9665 57.7893Z" fill="#A7A7CA"/>
<path d="M83.9665 75.0963C85.1231 75.0963 86.0607 74.1611 86.0607 73.0075C86.0607 71.8539 85.1231 70.9187 83.9665 70.9187C82.81 70.9187 81.8724 71.8539 81.8724 73.0075C81.8724 74.1611 82.81 75.0963 83.9665 75.0963Z" fill="#A7A7CA"/>
<path d="M83.9665 93C85.1231 93 86.0607 92.0648 86.0607 90.9112C86.0607 89.7576 85.1231 88.8225 83.9665 88.8225C82.81 88.8225 81.8724 89.7576 81.8724 90.9112C81.8724 92.0648 82.81 93 83.9665 93Z" fill="#A7A7CA"/>
</svg>
