<svg width="111" height="24" viewBox="0 0 111 24" fill="none" xmlns="http://www.w3.org/2000/svg">
<g opacity="0.4">
<path d="M1.00195 10.9805C1.00195 10.9805 9.7825 24.5621 16.7381 22.633C21.9185 21.1962 26.7171 10.9805 26.7171 10.9805C26.7171 10.9805 29.9985 22.7787 34.777 22.633C39.4583 22.4903 42.4532 10.9805 42.4532 10.9805C42.4532 10.9805 43.7774 21.401 47.8265 22.633C52.6708 24.107 56.6541 10.9805 56.6541 10.9805C56.6541 10.9805 57.083 21.2061 60.8759 22.633C65.4576 24.3567 68.9359 10.9805 68.9359 10.9805C68.9359 10.9805 68.8269 20.816 72.3902 22.633C76.9162 24.941 80.8339 10.9805 80.8339 10.9805C80.8339 10.9805 81.9517 20.9611 85.8234 22.633C90.8426 24.8004 90.5645 12.0323 95.8024 10.9805C102.207 9.69445 109.619 22.633 109.619 22.633" stroke="#6440FB"/>
<path d="M1.76758 2.09257C1.76758 2.09257 10.5172 16.0792 17.4483 14.0926C22.6105 12.6129 27.3921 2.09257 27.3921 2.09257C27.3921 2.09257 30.662 14.2426 35.4237 14.0926C40.0885 13.9456 43.0728 2.09257 43.0728 2.09257C43.0728 2.09257 44.3924 12.8238 48.4272 14.0926C53.2544 15.6105 57.2237 2.09257 57.2237 2.09257C57.2237 2.09257 57.6512 12.6231 61.4307 14.0926C65.9962 15.8676 69.4623 2.09257 69.4623 2.09257C69.4623 2.09257 69.3537 12.2214 72.9044 14.0926C77.4145 16.4694 81.3185 2.09257 81.3185 2.09257C81.3185 2.09257 82.4323 12.3708 86.2904 14.0926C91.2919 16.3246 91.0147 3.17569 96.2342 2.09257C102.617 0.768151 110.003 14.0926 110.003 14.0926" stroke="#6440FB"/>
</g>
</svg>
