<svg width="108" height="94" viewBox="0 0 108 94" fill="none" xmlns="http://www.w3.org/2000/svg">
<path d="M24.0029 4.99597C25.1594 4.99597 26.0969 4.06122 26.0969 2.90814C26.0969 1.75507 25.1594 0.820312 24.0029 0.820312C22.8464 0.820312 21.9089 1.75507 21.9089 2.90814C21.9089 4.06122 22.8464 4.99597 24.0029 4.99597Z" fill="#A7A7CA"/>
<path d="M24.0029 22.7922C25.1594 22.7922 26.0969 21.8575 26.0969 20.7044C26.0969 19.5513 25.1594 18.6166 24.0029 18.6166C22.8464 18.6166 21.9089 19.5513 21.9089 20.7044C21.9089 21.8575 22.8464 22.7922 24.0029 22.7922Z" fill="#A7A7CA"/>
<path d="M24.0029 40.6879C25.1594 40.6879 26.0969 39.7532 26.0969 38.6001C26.0969 37.447 25.1594 36.5123 24.0029 36.5123C22.8464 36.5123 21.9089 37.447 21.9089 38.6001C21.9089 39.7532 22.8464 40.6879 24.0029 40.6879Z" fill="#A7A7CA"/>
<path d="M24.0029 58.5836C25.1594 58.5836 26.0969 57.6489 26.0969 56.4958C26.0969 55.3427 25.1594 54.408 24.0029 54.408C22.8464 54.408 21.9089 55.3427 21.9089 56.4958C21.9089 57.6489 22.8464 58.5836 24.0029 58.5836Z" fill="#A7A7CA"/>
<path d="M24.0029 75.8828C25.1594 75.8828 26.0969 74.948 26.0969 73.7949C26.0969 72.6419 25.1594 71.7071 24.0029 71.7071C22.8464 71.7071 21.9089 72.6419 21.9089 73.7949C21.9089 74.948 22.8464 75.8828 24.0029 75.8828Z" fill="#A7A7CA"/>
<path d="M24.0029 93.7785C25.1594 93.7785 26.0969 92.8437 26.0969 91.6906C26.0969 90.5376 25.1594 89.6028 24.0029 89.6028C22.8464 89.6028 21.9089 90.5376 21.9089 91.6906C21.9089 92.8437 22.8464 93.7785 24.0029 93.7785Z" fill="#A7A7CA"/>
<path d="M3.06277 4.99597C4.21926 4.99597 5.15678 4.06122 5.15678 2.90814C5.15678 1.75507 4.21926 0.820312 3.06277 0.820312C1.90627 0.820312 0.96875 1.75507 0.96875 2.90814C0.96875 4.06122 1.90627 4.99597 3.06277 4.99597Z" fill="#A7A7CA"/>
<path d="M3.06277 22.7922C4.21926 22.7922 5.15678 21.8575 5.15678 20.7044C5.15678 19.5513 4.21926 18.6166 3.06277 18.6166C1.90627 18.6166 0.96875 19.5513 0.96875 20.7044C0.96875 21.8575 1.90627 22.7922 3.06277 22.7922Z" fill="#A7A7CA"/>
<path d="M3.06277 40.6879C4.21926 40.6879 5.15678 39.7532 5.15678 38.6001C5.15678 37.447 4.21926 36.5123 3.06277 36.5123C1.90627 36.5123 0.96875 37.447 0.96875 38.6001C0.96875 39.7532 1.90627 40.6879 3.06277 40.6879Z" fill="#A7A7CA"/>
<path d="M3.06277 58.5836C4.21926 58.5836 5.15678 57.6489 5.15678 56.4958C5.15678 55.3427 4.21926 54.408 3.06277 54.408C1.90627 54.408 0.96875 55.3427 0.96875 56.4958C0.96875 57.6489 1.90627 58.5836 3.06277 58.5836Z" fill="#A7A7CA"/>
<path d="M3.06277 75.8828C4.21926 75.8828 5.15678 74.948 5.15678 73.7949C5.15678 72.6419 4.21926 71.7071 3.06277 71.7071C1.90627 71.7071 0.96875 72.6419 0.96875 73.7949C0.96875 74.948 1.90627 75.8828 3.06277 75.8828Z" fill="#A7A7CA"/>
<path d="M3.06277 93.7785C4.21926 93.7785 5.15678 92.8437 5.15678 91.6906C5.15678 90.5376 4.21926 89.6028 3.06277 89.6028C1.90627 89.6028 0.96875 90.5376 0.96875 91.6906C0.96875 92.8437 1.90627 93.7785 3.06277 93.7785Z" fill="#A7A7CA"/>
<path d="M64.8861 4.99597C66.0426 4.99597 66.9801 4.06122 66.9801 2.90814C66.9801 1.75507 66.0426 0.820312 64.8861 0.820312C63.7296 0.820312 62.7921 1.75507 62.7921 2.90814C62.7921 4.06122 63.7296 4.99597 64.8861 4.99597Z" fill="#A7A7CA"/>
<path d="M64.8861 22.7922C66.0426 22.7922 66.9801 21.8575 66.9801 20.7044C66.9801 19.5513 66.0426 18.6166 64.8861 18.6166C63.7296 18.6166 62.7921 19.5513 62.7921 20.7044C62.7921 21.8575 63.7296 22.7922 64.8861 22.7922Z" fill="#A7A7CA"/>
<path d="M64.8861 40.6879C66.0426 40.6879 66.9801 39.7532 66.9801 38.6001C66.9801 37.447 66.0426 36.5123 64.8861 36.5123C63.7296 36.5123 62.7921 37.447 62.7921 38.6001C62.7921 39.7532 63.7296 40.6879 64.8861 40.6879Z" fill="#A7A7CA"/>
<path d="M64.8861 58.5836C66.0426 58.5836 66.9801 57.6489 66.9801 56.4958C66.9801 55.3427 66.0426 54.408 64.8861 54.408C63.7296 54.408 62.7921 55.3427 62.7921 56.4958C62.7921 57.6489 63.7296 58.5836 64.8861 58.5836Z" fill="#A7A7CA"/>
<path d="M64.8861 75.8828C66.0426 75.8828 66.9801 74.948 66.9801 73.7949C66.9801 72.6419 66.0426 71.7071 64.8861 71.7071C63.7296 71.7071 62.7921 72.6419 62.7921 73.7949C62.7921 74.948 63.7296 75.8828 64.8861 75.8828Z" fill="#A7A7CA"/>
<path d="M64.8861 93.7785C66.0426 93.7785 66.9801 92.8437 66.9801 91.6906C66.9801 90.5376 66.0426 89.6028 64.8861 89.6028C63.7296 89.6028 62.7921 90.5376 62.7921 91.6906C62.7921 92.8437 63.7296 93.7785 64.8861 93.7785Z" fill="#A7A7CA"/>
<path d="M43.9459 4.99597C45.1024 4.99597 46.0399 4.06122 46.0399 2.90814C46.0399 1.75507 45.1024 0.820312 43.9459 0.820312C42.7894 0.820312 41.8519 1.75507 41.8519 2.90814C41.8519 4.06122 42.7894 4.99597 43.9459 4.99597Z" fill="#A7A7CA"/>
<path d="M43.9459 22.7922C45.1024 22.7922 46.0399 21.8575 46.0399 20.7044C46.0399 19.5513 45.1024 18.6166 43.9459 18.6166C42.7894 18.6166 41.8519 19.5513 41.8519 20.7044C41.8519 21.8575 42.7894 22.7922 43.9459 22.7922Z" fill="#A7A7CA"/>
<path d="M43.9459 40.6879C45.1024 40.6879 46.0399 39.7532 46.0399 38.6001C46.0399 37.447 45.1024 36.5123 43.9459 36.5123C42.7894 36.5123 41.8519 37.447 41.8519 38.6001C41.8519 39.7532 42.7894 40.6879 43.9459 40.6879Z" fill="#A7A7CA"/>
<path d="M43.9459 58.5836C45.1024 58.5836 46.0399 57.6489 46.0399 56.4958C46.0399 55.3427 45.1024 54.408 43.9459 54.408C42.7894 54.408 41.8519 55.3427 41.8519 56.4958C41.8519 57.6489 42.7894 58.5836 43.9459 58.5836Z" fill="#A7A7CA"/>
<path d="M43.9459 75.8828C45.1024 75.8828 46.0399 74.948 46.0399 73.7949C46.0399 72.6419 45.1024 71.7071 43.9459 71.7071C42.7894 71.7071 41.8519 72.6419 41.8519 73.7949C41.8519 74.948 42.7894 75.8828 43.9459 75.8828Z" fill="#A7A7CA"/>
<path d="M43.9459 93.7785C45.1024 93.7785 46.0399 92.8437 46.0399 91.6906C46.0399 90.5376 45.1024 89.6028 43.9459 89.6028C42.7894 89.6028 41.8519 90.5376 41.8519 91.6906C41.8519 92.8437 42.7894 93.7785 43.9459 93.7785Z" fill="#A7A7CA"/>
<path d="M105.869 4.99597C107.025 4.99597 107.963 4.06122 107.963 2.90814C107.963 1.75507 107.025 0.820312 105.869 0.820312C104.712 0.820312 103.775 1.75507 103.775 2.90814C103.775 4.06122 104.712 4.99597 105.869 4.99597Z" fill="#A7A7CA"/>
<path d="M105.869 22.7922C107.025 22.7922 107.963 21.8575 107.963 20.7044C107.963 19.5513 107.025 18.6166 105.869 18.6166C104.712 18.6166 103.775 19.5513 103.775 20.7044C103.775 21.8575 104.712 22.7922 105.869 22.7922Z" fill="#A7A7CA"/>
<path d="M105.869 40.6879C107.025 40.6879 107.963 39.7532 107.963 38.6001C107.963 37.447 107.025 36.5123 105.869 36.5123C104.712 36.5123 103.775 37.447 103.775 38.6001C103.775 39.7532 104.712 40.6879 105.869 40.6879Z" fill="#A7A7CA"/>
<path d="M105.869 58.5836C107.025 58.5836 107.963 57.6489 107.963 56.4958C107.963 55.3427 107.025 54.408 105.869 54.408C104.712 54.408 103.775 55.3427 103.775 56.4958C103.775 57.6489 104.712 58.5836 105.869 58.5836Z" fill="#A7A7CA"/>
<path d="M105.869 75.8828C107.025 75.8828 107.963 74.948 107.963 73.7949C107.963 72.6419 107.025 71.7071 105.869 71.7071C104.712 71.7071 103.775 72.6419 103.775 73.7949C103.775 74.948 104.712 75.8828 105.869 75.8828Z" fill="#A7A7CA"/>
<path d="M105.869 93.7785C107.025 93.7785 107.963 92.8437 107.963 91.6906C107.963 90.5376 107.025 89.6028 105.869 89.6028C104.712 89.6028 103.775 90.5376 103.775 91.6906C103.775 92.8437 104.712 93.7785 105.869 93.7785Z" fill="#A7A7CA"/>
<path d="M84.9288 4.99597C86.0853 4.99597 87.0228 4.06122 87.0228 2.90814C87.0228 1.75507 86.0853 0.820312 84.9288 0.820312C83.7723 0.820312 82.8348 1.75507 82.8348 2.90814C82.8348 4.06122 83.7723 4.99597 84.9288 4.99597Z" fill="#A7A7CA"/>
<path d="M84.9288 22.7922C86.0853 22.7922 87.0228 21.8575 87.0228 20.7044C87.0228 19.5513 86.0853 18.6166 84.9288 18.6166C83.7723 18.6166 82.8348 19.5513 82.8348 20.7044C82.8348 21.8575 83.7723 22.7922 84.9288 22.7922Z" fill="#A7A7CA"/>
<path d="M84.9288 40.6879C86.0853 40.6879 87.0228 39.7532 87.0228 38.6001C87.0228 37.447 86.0853 36.5123 84.9288 36.5123C83.7723 36.5123 82.8348 37.447 82.8348 38.6001C82.8348 39.7532 83.7723 40.6879 84.9288 40.6879Z" fill="#A7A7CA"/>
<path d="M84.9288 58.5836C86.0853 58.5836 87.0228 57.6489 87.0228 56.4958C87.0228 55.3427 86.0853 54.408 84.9288 54.408C83.7723 54.408 82.8348 55.3427 82.8348 56.4958C82.8348 57.6489 83.7723 58.5836 84.9288 58.5836Z" fill="#A7A7CA"/>
<path d="M84.9288 75.8828C86.0853 75.8828 87.0228 74.948 87.0228 73.7949C87.0228 72.6419 86.0853 71.7071 84.9288 71.7071C83.7723 71.7071 82.8348 72.6419 82.8348 73.7949C82.8348 74.948 83.7723 75.8828 84.9288 75.8828Z" fill="#A7A7CA"/>
<path d="M84.9288 93.7785C86.0853 93.7785 87.0228 92.8437 87.0228 91.6906C87.0228 90.5376 86.0853 89.6028 84.9288 89.6028C83.7723 89.6028 82.8348 90.5376 82.8348 91.6906C82.8348 92.8437 83.7723 93.7785 84.9288 93.7785Z" fill="#A7A7CA"/>
</svg>
