<svg width="40" height="40" viewBox="0 0 40 40" fill="none" xmlns="http://www.w3.org/2000/svg">
<g clip-path="url(#clip0_34_575)">
<path d="M22.2266 0.6875V9.44075H30.9798L22.2266 0.6875Z" fill="black"/>
<path d="M19.8785 11.7848V0H0V38.748H22.1746C21.1735 37.7085 20.3818 36.5112 19.8206 35.1841C19.2087 33.7367 18.8984 32.2018 18.8984 30.62C18.8984 29.0381 19.2087 27.5032 19.8206 26.0558C20.4115 24.6599 21.2563 23.4063 22.3317 22.3302C23.4079 21.2548 24.6615 20.4099 26.0573 19.8191C27.5047 19.2071 29.0397 18.8969 30.6215 18.8969C30.9974 18.8969 31.371 18.9148 31.7415 18.95V11.7848H19.8785ZM5.8467 11.7591H15.2252V14.1037H5.8467V11.7591ZM15.2252 28.1714H5.8467V25.8268H15.2252V28.1714ZM17.5698 23.4821H5.8467V21.1375H17.5698V23.4821ZM23.5353 18.7929H5.8467V16.4483H23.5353V18.7929Z" fill="black"/>
<path d="M30.6207 21.2422C25.4414 21.2422 21.2422 25.4414 21.2422 30.6207C21.2422 35.7999 25.4414 39.9991 30.6207 39.9991C35.7999 39.9991 39.9991 35.7999 39.9991 30.6207C39.9991 25.4414 35.7999 21.2422 30.6207 21.2422ZM29.6289 34.1188L26.2972 30.6902L27.9791 29.056L29.7453 30.8739L33.4358 27.5836L34.9957 29.3335L29.6289 34.1188Z" fill="black"/>
</g>
<defs>
<clipPath id="clip0_34_575">
<rect width="40" height="40" fill="white"/>
</clipPath>
</defs>
</svg>
