<svg width="40" height="40" viewBox="0 0 40 40" fill="none" xmlns="http://www.w3.org/2000/svg">
<path d="M35.9972 15.4804L27.7259 8.16992H24.1992L28.1874 15.4804H35.9972Z" fill="black"/>
<path d="M12.1827 8.16992H8.65602L0.392578 15.4804H8.20242L12.1827 8.16992Z" fill="black"/>
<path d="M26.4632 15.4804L22.4751 8.16992H13.9087L9.92773 15.4804H26.4632Z" fill="black"/>
<path d="M9.75977 17.0015L18.1375 38.0615L26.6131 17.0015H9.75977Z" fill="black"/>
<path d="M0 17.0015L15.7104 36.0335L8.13487 17.0015H0Z" fill="black"/>
<path d="M28.2474 17.0015L20.6797 35.7914L36.3751 17.0015H28.2474Z" fill="black"/>
<path d="M2.51314 4.6005H3.84375V5.93111C3.84375 6.13181 3.92348 6.3243 4.0654 6.46622C4.20732 6.60814 4.39981 6.68787 4.60051 6.68787C4.80122 6.68787 4.9937 6.60814 5.13562 6.46622C5.27754 6.3243 5.35727 6.13181 5.35727 5.93111V4.6005H6.68751C6.88822 4.6005 7.0807 4.52077 7.22262 4.37885C7.36454 4.23693 7.44427 4.04444 7.44427 3.84374C7.44427 3.64303 7.36454 3.45055 7.22262 3.30863C7.0807 3.16671 6.88822 3.08698 6.68751 3.08698H5.35727V1.75676C5.35727 1.55606 5.27754 1.36357 5.13562 1.22165C4.9937 1.07973 4.80122 1 4.60051 1C4.39981 1 4.20732 1.07973 4.0654 1.22165C3.92348 1.36357 3.84375 1.55606 3.84375 1.75676V3.087H2.51314C2.31508 3.09099 2.12647 3.17247 1.98781 3.31396C1.84915 3.45544 1.77148 3.64565 1.77148 3.84375C1.77148 4.04185 1.84915 4.23206 1.98781 4.37354C2.12647 4.51503 2.31508 4.59651 2.51314 4.6005Z" fill="black"/>
<path d="M39.258 24.4786H37.9278V23.148C37.9272 22.9477 37.8472 22.7558 37.7053 22.6144C37.5635 22.473 37.3713 22.3936 37.171 22.3936C36.9707 22.3936 36.7786 22.473 36.6368 22.6144C36.4949 22.7558 36.4149 22.9477 36.4143 23.148V24.4786H35.0833C34.9837 24.4783 34.8851 24.4976 34.793 24.5355C34.7009 24.5734 34.6172 24.6291 34.5467 24.6994C34.4762 24.7697 34.4202 24.8533 34.382 24.9452C34.3439 25.0372 34.3242 25.1358 34.3242 25.2354C34.3242 25.3349 34.3439 25.4335 34.382 25.5255C34.4202 25.6175 34.4762 25.701 34.5467 25.7713C34.6172 25.8416 34.7009 25.8973 34.793 25.9352C34.8851 25.9731 34.9837 25.9924 35.0833 25.9921H36.4143V27.3224C36.414 27.4219 36.4333 27.5206 36.4712 27.6127C36.5091 27.7048 36.5648 27.7885 36.6351 27.859C36.7054 27.9295 36.7889 27.9855 36.8809 28.0236C36.9729 28.0618 37.0715 28.0815 37.171 28.0815C37.2706 28.0815 37.3692 28.0618 37.4612 28.0236C37.5531 27.9855 37.6367 27.9295 37.707 27.859C37.7773 27.7885 37.833 27.7048 37.8709 27.6127C37.9088 27.5206 37.9281 27.4219 37.9278 27.3224V25.9921H39.258C39.4562 25.9882 39.6449 25.9068 39.7836 25.7653C39.9223 25.6238 40.0001 25.4335 40.0001 25.2354C40.0001 25.0372 39.9223 24.8469 39.7836 24.7054C39.6449 24.5639 39.4562 24.4825 39.258 24.4786Z" fill="black"/>
</svg>
