<svg width="137" height="55" viewBox="0 0 137 55" fill="none" xmlns="http://www.w3.org/2000/svg">
<path d="M0.908924 38.3985C0.908924 39.4984 0.888548 38.6548 0.960292 37.9125C1.2691 34.7172 2.25913 33.4066 4.2479 31.4126C12.0626 23.5776 21.6607 18.5354 29.8809 11.2448C31.8445 9.50332 33.3365 7.40765 35.0178 5.29163C36.0318 4.01556 37.1343 2.4057 38.4339 1.49498C39.7128 0.598751 39.2803 4.75895 39.2814 4.86641C39.3904 14.8263 39.4778 24.8629 39.076 34.8144C38.8755 39.7789 38.5852 44.753 38.1513 49.6973C38.0773 50.5406 38.0515 53.1036 37.4322 54.0103C36.6563 55.1462 34.0741 53.2564 33.5538 52.8257C29.5106 49.4788 26.6546 45.0471 25.6944 39.3097C24.8241 34.1096 24.2602 27.6445 25.5146 22.4525C26.9966 16.3186 31.0301 19.2073 33.4254 23.0296C36.2146 27.4805 39.5895 35.9472 36.8671 41.4662C36.3681 42.4777 34.3176 44.66 33.0658 43.9871C31.3433 43.0612 33.3963 35.6516 33.9905 34.3588C35.2949 31.5204 38.3783 32.966 40.5143 33.1439C41.8598 33.2559 42.9547 33.3156 44.2899 33.0224C45.7336 32.7053 47.1624 31.3132 48.5792 31.1696C50.573 30.9675 48.9284 37.8613 48.6306 39.0059C47.8693 41.9316 51.8285 28.4749 52.8428 31.2911C53.1468 32.1351 53.1764 33.0851 53.2795 33.9943C53.3993 35.0518 53.4396 36.1199 53.5106 37.1835C53.5424 37.6589 53.1845 38.6111 53.5877 38.6111C53.9902 38.6111 53.5939 37.6589 53.6134 37.1835C53.7432 34.0101 53.8577 30.828 54.4353 27.7071C55.2562 23.2713 57.3142 16.3537 62.2176 17.4409C65.6065 18.1923 63.2444 15.6369 62.0635 17.7447C59.481 22.3544 59.1887 28.8945 59.3667 34.2069C59.5096 38.4751 61.0216 42.0836 61.37 46.2044C61.4943 47.6738 60.6221 49.5909 59.1612 48.1179C56.8112 45.7484 56.6196 40.655 57.0037 37.4569C57.4633 33.6295 58.4018 30.9533 60.6252 28.1323C61.3448 27.2193 64.9819 23.7506 65.4796 27.2819C66.1161 31.7981 62.0976 35.6824 59.9317 38.5807C59.3432 39.3683 57.5027 40.8771 58.365 41.132C61.5933 42.0865 66.3297 41.5625 69.435 41.2535C80.9983 40.1031 95.5265 36.8218 101.54 23.3941C103.052 20.0193 102.684 17.2265 101.309 14.0088C100.571 12.2801 98.7703 7.29353 96.2495 9.60463C89.553 15.744 89.5549 29.0828 80.9416 33.1135C79.4724 33.801 74.7272 34.4594 76.2927 34.2069C81.7504 33.3269 87.4567 33.2313 92.9105 32.6275C105.008 31.2883 117.313 29.9871 129.049 26.0365C132.988 24.7104 133.303 24.1518 135.906 21.9969" stroke="#00001B" stroke-linecap="round"/>
</svg>
