<svg width="279" height="450" viewBox="0 0 279 450" fill="none" xmlns="http://www.w3.org/2000/svg">
<g opacity="0.06" clip-path="url(#clip0_34_838)">
<path d="M185.236 140.636C183.049 138.609 180.177 137.449 177.368 137.442C174.577 137.436 172.028 138.579 170.377 140.577L158.047 155.488C155.267 152.189 151.65 149.508 147.701 147.842C145.181 146.78 142.513 147.817 141.743 150.158C140.972 152.5 142.39 155.259 144.91 156.321C147.562 157.439 149.982 159.37 151.665 161.677C153.246 163.85 155.718 165.317 158.282 165.6C160.853 165.884 163.194 164.998 164.706 163.17L178.104 146.966C178.221 146.825 178.379 146.754 178.577 146.754C178.725 146.755 178.951 146.794 179.164 146.997C214.586 179.713 221.186 230.839 194.183 263.394C193.224 264.554 192.217 265.696 191.189 266.789C190.86 267.139 190.307 267.153 189.904 266.82L181.623 259.973C183.507 258.553 185.092 256.808 186.348 254.77C191.465 246.463 189.488 234.736 181.648 226.887C176.756 221.99 170.215 219.087 163.694 218.926C157.168 218.764 151.219 221.34 147.373 225.992C146.437 227.124 145.639 228.357 144.985 229.68L126.272 214.208C125.039 213.188 124.762 211.479 125.657 210.398L140.295 192.694C141.811 190.86 142.242 188.384 141.475 185.901C140.707 183.416 138.868 181.335 136.427 180.19C134.654 179.359 133.04 178.206 131.634 176.763C127.1 172.112 126.045 165.241 129.125 160.424C129.399 159.994 129.702 159.584 130.024 159.203C131.593 157.351 131.147 154.404 129.03 152.62C129.016 152.609 129.002 152.598 128.989 152.587C126.874 150.838 123.913 150.905 122.355 152.745C121.81 153.387 121.302 154.079 120.843 154.797C115.583 163.022 117.387 174.76 125.134 182.708C127.037 184.658 129.171 186.299 131.497 187.6L117.929 204.009C113.947 208.825 115.177 216.44 120.671 220.982L140.859 237.674C142.944 239.398 145.548 240.141 148.004 239.711C150.453 239.283 152.433 237.689 153.291 235.461C153.729 234.34 154.337 233.304 155.1 232.382C157.358 229.651 160.851 228.14 164.684 228.234C168.567 228.33 172.315 229.993 175.243 232.928C179.834 237.525 180.993 244.39 177.997 249.251C177.062 250.768 175.828 252.006 174.336 252.927C172.3 254.176 171.149 256.323 171.182 258.818C171.213 261.303 172.471 263.811 174.546 265.526L184.302 273.593C188.797 277.31 195.074 277.288 198.592 273.545C199.73 272.334 200.846 271.068 201.905 269.787C231.865 233.668 224.542 176.938 185.236 140.636Z" fill="#6440FB"/>
<path d="M120.191 276.251C119.99 273.198 118.42 270.244 115.883 268.146L108.734 262.235C119.963 254.437 118.258 234.527 104.591 225.702C95.4066 219.476 83.5176 219.738 76.3206 226.325C74.555 227.941 73.1392 229.825 72.0978 231.943L51.1492 214.622L67.4084 194.957C68.925 193.123 69.3552 190.648 68.5885 188.165C67.8209 185.679 65.9824 183.598 63.5407 182.453C61.7683 181.622 60.155 180.468 58.7474 179.026C54.2146 174.375 53.1584 167.504 56.2377 162.689C58.1964 159.627 61.3749 157.766 65.1871 157.452C68.9527 157.142 72.8978 158.44 76.0114 161.014C77.0648 161.886 77.998 162.874 78.7779 163.941C80.3572 166.116 82.8297 167.582 85.394 167.864C87.9643 168.148 90.306 167.263 91.8174 165.435L105.077 149.398C106.769 147.352 107.424 144.568 106.875 141.759C106.323 138.941 104.597 136.29 102.144 134.493C59.3876 103.162 2.52725 106.529 -27.302 142.159C-41.4839 158.874 -48.4771 182.738 -45.3047 206.495C-44.9858 209.065 -42.6079 211.167 -39.9908 211.187C-37.3752 211.207 -35.5129 209.14 -35.8306 206.568C-37.8719 190.089 -35.104 174.352 -27.8136 160.739L-19.7665 167.392C-29.8561 174.653 -30.2152 192.295 -17.7381 202.331C-6.81477 211.487 10.7291 210.432 16.8668 197.682L37.8215 215.007L21.5721 234.66C18.4748 238.248 20.4331 245.514 26.8139 247.904C34.2585 252 37.2734 263.397 30.9393 269.092C26.1316 273.793 15.3432 273.214 10.1528 265.612C8.59299 263.444 6.22471 262.035 3.6529 261.744C1.09101 261.454 -1.33684 262.367 -2.84003 264.185L-19.0977 283.848L-45.4157 262.088C-40.3403 252.064 -37.0927 241.321 -35.7592 230.143C-35.4618 227.647 -37.3431 225.124 -39.9607 224.506C-42.579 223.89 -44.9435 225.413 -45.2414 227.909C-46.4452 238.671 -50.2338 250.234 -55.5426 259.963L-78.5034 287.732C-85.0228 295.617 -83.0087 308.083 -74.0132 315.521L-32.1609 350.126C-23.1659 357.563 -10.5436 357.199 -4.02415 349.314L18.9329 321.548C32.5855 310.146 50.9342 302.939 70.9813 301.332C88.2529 299.928 104.144 293.878 116.935 283.836C119.203 282.056 120.389 279.291 120.191 276.251ZM20.9921 189.689C17.4704 186.572 10.2238 186.757 8.46593 192.109C5.58911 199.304 -5.295 202.415 -13.3811 194.43C-18.1526 189.517 -20.3118 180.553 -13.3161 175.014C-9.19048 172.971 -7.38562 166.227 -12.6899 161.84L-23.1515 153.19C-22.0319 151.606 -20.846 150.067 -19.6057 148.586C7.28113 116.471 58.5313 113.437 97.0712 141.678C97.3644 141.888 97.4697 142.158 97.5065 142.342C97.5407 142.518 97.5419 142.777 97.3496 143.009L85.1591 157.753C84.0921 156.486 82.9041 155.31 81.6116 154.241C76.3081 149.856 69.591 147.645 63.1814 148.173C56.7797 148.701 51.2303 151.941 47.9562 157.061C42.6959 165.286 44.5 177.024 52.2477 184.973C54.152 186.925 56.286 188.564 58.6103 189.863L43.4212 208.234L20.9921 189.689ZM3.75135 324.175L-31.5055 295.024C-33.6397 293.259 -36.6225 293.345 -38.1694 295.216C-39.7163 297.087 -39.2403 300.033 -37.106 301.797L-1.84921 330.949L-7.44978 337.722L-66.4751 288.919L-60.8745 282.145L-54.8988 287.086C-52.7645 288.851 -49.7818 288.764 -48.2349 286.894C-46.688 285.023 -47.164 282.077 -49.2982 280.312L-55.274 275.371L-50.35 269.416L8.67484 318.219L3.75135 324.175ZM-26.5615 343.353L-68.4138 308.749C-72.5339 305.342 -73.8681 299.933 -71.8844 295.851L-13.2413 344.339C-16.8781 347.053 -22.4418 346.76 -26.5615 343.353ZM110.393 276.291C98.8712 285.337 84.5519 290.787 68.9853 292.053C48.3053 293.734 29.6329 300.629 14.9484 312.001L-11.3721 290.238L3.81588 271.869C12.1126 282.352 29.4043 284.752 38.0198 276.172C48.3178 266.786 44.6986 247.569 30.3667 239.757L45.5479 221.396L67.9724 239.938C70.0649 241.668 72.6798 242.413 75.1465 241.98C77.6162 241.548 79.5287 240.009 80.3943 237.756C81.0226 236.12 82.0035 234.685 83.3091 233.49C87.5214 229.635 94.4814 229.482 99.8597 233.129C107.568 238.302 109.586 250.102 101.498 255.157C99.4621 256.433 98.2725 258.679 98.3156 261.164C98.3586 263.654 99.5777 266.069 101.66 267.791L110.282 274.919C110.577 275.163 110.654 275.449 110.667 275.645C110.679 275.833 110.641 276.097 110.393 276.291Z" fill="#6440FB"/>
<path d="M134.433 322.346L121.524 310.599C119.478 308.747 116.472 308.663 114.812 310.435C113.153 312.207 113.467 315.154 115.514 317.017L128.423 328.764C128.491 328.826 128.56 328.886 128.631 328.945C130.669 330.63 133.53 330.641 135.134 328.928C136.794 327.156 136.48 324.209 134.433 322.346Z" fill="#6440FB"/>
<path d="M93.7596 345.691L89.5815 330.039C88.9 327.489 86.2855 325.697 83.7391 326.037C81.1936 326.376 79.6811 328.717 80.3612 331.266L84.5394 346.918C84.8341 348.021 85.49 348.981 86.3467 349.69C87.4703 350.619 88.9369 351.113 90.3817 350.92C92.9273 350.581 94.4397 348.24 93.7596 345.691Z" fill="#6440FB"/>
<path d="M49.4967 325.806C50.4427 323.545 49.2108 320.719 46.7551 319.496C44.2953 318.272 41.5346 319.113 40.5886 321.374L34.623 335.637C33.8305 337.534 34.5652 339.827 36.2735 341.239C36.6027 341.511 36.9676 341.751 37.3646 341.948C39.8244 343.172 42.5851 342.331 43.5311 340.07L49.4967 325.806Z" fill="#6440FB"/>
<path d="M65.9153 95.8925C64.8378 97.8093 65.4963 100.357 67.3642 101.902C67.5651 102.068 67.7793 102.222 68.0079 102.363C70.3569 103.813 73.2297 103.268 74.4237 101.144L81.9529 87.7546C83.1467 85.632 82.2111 82.7387 79.8604 81.284C77.5114 79.8337 74.6386 80.3794 73.4446 82.5032L65.9153 95.8925Z" fill="#6440FB"/>
<path d="M25.9581 87.6876C26.1661 88.9727 26.8819 90.121 27.8705 90.9384C28.8591 91.7558 30.1215 92.243 31.4228 92.2059C34.0256 92.1304 35.7984 89.9863 35.3831 87.4161L32.8326 71.6328C32.4164 69.0626 29.9705 67.0402 27.3684 67.1148C24.7655 67.1904 22.9928 69.3344 23.408 71.9047L25.9581 87.6876Z" fill="#6440FB"/>
<path d="M-1.56302 97.8402L-13.3297 85.0024C-15.1965 82.9677 -18.2171 82.5907 -20.0775 84.1621C-21.9387 85.7334 -21.9358 88.6576 -20.0704 90.6919L-8.30371 103.53C-8.12272 103.727 -7.93029 103.91 -7.72939 104.076C-5.86197 105.62 -3.23622 105.789 -1.556 104.37C0.305794 102.799 0.302883 99.8749 -1.56302 97.8402Z" fill="#6440FB"/>
</g>
<defs>
<clipPath id="clip0_34_838">
<rect width="342.238" height="300" fill="white" transform="translate(15.166) rotate(39.5848)"/>
</clipPath>
</defs>
</svg>
